G04*
G04 #@! TF.GenerationSoftware,Altium Limited,Altium Designer,21.0.8 (223)*
G04*
G04 Layer_Color=16711935*
%FSLAX25Y25*%
%MOIN*%
G70*
G04*
G04 #@! TF.SameCoordinates,6ED59E13-5717-42ED-B6B1-0E666ED3908C*
G04*
G04*
G04 #@! TF.FilePolarity,Negative*
G04*
G01*
G75*
%ADD38R,0.22060X0.12217*%
%ADD39R,0.40958X0.36627*%
%ADD45R,0.04934X0.06115*%
%ADD46R,0.06115X0.04934*%
%ADD47R,0.05721X0.06706*%
%ADD50R,0.07690X0.05721*%
%ADD51R,0.05721X0.07690*%
%ADD52C,0.05524*%
G04:AMPARAMS|DCode=53|XSize=55.24mil|YSize=55.24mil|CornerRadius=15.81mil|HoleSize=0mil|Usage=FLASHONLY|Rotation=90.000|XOffset=0mil|YOffset=0mil|HoleType=Round|Shape=RoundedRectangle|*
%AMROUNDEDRECTD53*
21,1,0.05524,0.02362,0,0,90.0*
21,1,0.02362,0.05524,0,0,90.0*
1,1,0.03162,0.01181,0.01181*
1,1,0.03162,0.01181,-0.01181*
1,1,0.03162,-0.01181,-0.01181*
1,1,0.03162,-0.01181,0.01181*
%
%ADD53ROUNDEDRECTD53*%
%ADD54C,0.06800*%
%ADD55R,0.06800X0.06800*%
%ADD56R,0.08674X0.08674*%
G04:AMPARAMS|DCode=57|XSize=86.74mil|YSize=86.74mil|CornerRadius=23.68mil|HoleSize=0mil|Usage=FLASHONLY|Rotation=90.000|XOffset=0mil|YOffset=0mil|HoleType=Round|Shape=RoundedRectangle|*
%AMROUNDEDRECTD57*
21,1,0.08674,0.03937,0,0,90.0*
21,1,0.03937,0.08674,0,0,90.0*
1,1,0.04737,0.01968,0.01968*
1,1,0.04737,0.01968,-0.01968*
1,1,0.04737,-0.01968,-0.01968*
1,1,0.04737,-0.01968,0.01968*
%
%ADD57ROUNDEDRECTD57*%
%ADD58R,0.06706X0.06706*%
%ADD59C,0.06706*%
%ADD60C,0.03950*%
%ADD61R,0.06706X0.06706*%
G04:AMPARAMS|DCode=62|XSize=55.24mil|YSize=55.24mil|CornerRadius=15.81mil|HoleSize=0mil|Usage=FLASHONLY|Rotation=0.000|XOffset=0mil|YOffset=0mil|HoleType=Round|Shape=RoundedRectangle|*
%AMROUNDEDRECTD62*
21,1,0.05524,0.02362,0,0,0.0*
21,1,0.02362,0.05524,0,0,0.0*
1,1,0.03162,0.01181,-0.01181*
1,1,0.03162,-0.01181,-0.01181*
1,1,0.03162,-0.01181,0.01181*
1,1,0.03162,0.01181,0.01181*
%
%ADD62ROUNDEDRECTD62*%
%ADD63C,0.03162*%
%ADD64C,0.04737*%
%ADD65C,0.05800*%
%ADD106R,0.05700X0.13300*%
%ADD107R,0.06800X0.08800*%
%ADD108R,0.08800X0.06800*%
%ADD109R,0.05524X0.05131*%
%ADD110R,0.04934X0.16351*%
%ADD111R,0.10642X0.07493*%
%ADD112R,0.36627X0.40958*%
%ADD113R,0.16351X0.04934*%
%ADD114R,0.07493X0.10642*%
%ADD115R,0.05721X0.08083*%
%ADD116R,0.06784X0.13398*%
%ADD117R,0.09461X0.10642*%
%ADD118R,0.06706X0.05721*%
%ADD119R,0.14383X0.07296*%
%ADD120R,0.03162X0.04737*%
G36*
X281945Y348575D02*
Y323228D01*
X281945Y323173D01*
Y320032D01*
X279977Y318063D01*
X270134Y318063D01*
X268166Y320032D01*
Y327906D01*
X269150Y328890D01*
X271118Y328890D01*
X272103Y329874D01*
Y348575D01*
X273087Y349559D01*
X280961D01*
X281945Y348575D01*
D02*
G37*
G36*
X206621Y328128D02*
X205938D01*
Y329593D01*
X205866Y329549D01*
X205805Y329499D01*
X205777Y329477D01*
X205755Y329460D01*
X205744Y329449D01*
X205738Y329443D01*
X205716Y329421D01*
X205688Y329399D01*
X205627Y329332D01*
X205555Y329260D01*
X205483Y329188D01*
X205416Y329116D01*
X205361Y329055D01*
X205339Y329033D01*
X205322Y329016D01*
X205316Y329005D01*
X205311Y328999D01*
X205194Y328877D01*
X205100Y328777D01*
X205011Y328694D01*
X204945Y328627D01*
X204889Y328577D01*
X204850Y328544D01*
X204823Y328522D01*
X204817Y328516D01*
X204723Y328444D01*
X204634Y328383D01*
X204551Y328333D01*
X204478Y328294D01*
X204417Y328261D01*
X204367Y328239D01*
X204340Y328228D01*
X204329Y328222D01*
X204240Y328189D01*
X204151Y328167D01*
X204068Y328150D01*
X203990Y328139D01*
X203929Y328134D01*
X203879Y328128D01*
X203846D01*
X203835D01*
X203751Y328134D01*
X203668Y328145D01*
X203590Y328156D01*
X203518Y328178D01*
X203391Y328233D01*
X203280Y328289D01*
X203230Y328322D01*
X203191Y328350D01*
X203152Y328378D01*
X203124Y328405D01*
X203102Y328428D01*
X203080Y328439D01*
X203074Y328450D01*
X203069Y328455D01*
X203013Y328516D01*
X202963Y328589D01*
X202924Y328655D01*
X202891Y328733D01*
X202836Y328877D01*
X202797Y329022D01*
X202786Y329088D01*
X202775Y329149D01*
X202769Y329205D01*
X202764Y329255D01*
X202758Y329293D01*
Y329349D01*
X202764Y329443D01*
X202769Y329532D01*
X202797Y329704D01*
X202841Y329849D01*
X202863Y329915D01*
X202891Y329976D01*
X202913Y330032D01*
X202941Y330076D01*
X202963Y330120D01*
X202980Y330154D01*
X203002Y330181D01*
X203013Y330198D01*
X203019Y330209D01*
X203024Y330215D01*
X203080Y330276D01*
X203135Y330331D01*
X203202Y330381D01*
X203274Y330426D01*
X203418Y330492D01*
X203557Y330548D01*
X203629Y330564D01*
X203690Y330581D01*
X203746Y330598D01*
X203796Y330603D01*
X203840Y330614D01*
X203868D01*
X203890Y330620D01*
X203896D01*
X203968Y329887D01*
X203857Y329876D01*
X203763Y329854D01*
X203679Y329832D01*
X203618Y329804D01*
X203568Y329782D01*
X203535Y329760D01*
X203513Y329743D01*
X203507Y329737D01*
X203463Y329682D01*
X203430Y329621D01*
X203402Y329560D01*
X203385Y329499D01*
X203374Y329449D01*
X203368Y329404D01*
Y329366D01*
X203374Y329282D01*
X203391Y329210D01*
X203413Y329149D01*
X203435Y329094D01*
X203457Y329055D01*
X203479Y329022D01*
X203496Y329005D01*
X203502Y328999D01*
X203557Y328955D01*
X203618Y328922D01*
X203679Y328899D01*
X203740Y328883D01*
X203796Y328872D01*
X203846Y328866D01*
X203873D01*
X203879D01*
X203885D01*
X203968Y328872D01*
X204046Y328888D01*
X204123Y328916D01*
X204190Y328944D01*
X204251Y328972D01*
X204295Y328999D01*
X204323Y329016D01*
X204334Y329022D01*
X204367Y329044D01*
X204406Y329077D01*
X204456Y329121D01*
X204501Y329166D01*
X204606Y329266D01*
X204712Y329366D01*
X204812Y329466D01*
X204856Y329510D01*
X204889Y329554D01*
X204922Y329588D01*
X204945Y329610D01*
X204961Y329626D01*
X204967Y329632D01*
X205072Y329743D01*
X205172Y329843D01*
X205267Y329937D01*
X205350Y330020D01*
X205433Y330098D01*
X205511Y330165D01*
X205577Y330226D01*
X205644Y330276D01*
X205699Y330320D01*
X205749Y330359D01*
X205788Y330392D01*
X205827Y330415D01*
X205849Y330437D01*
X205872Y330448D01*
X205883Y330459D01*
X205888D01*
X206016Y330531D01*
X206149Y330587D01*
X206271Y330631D01*
X206382Y330664D01*
X206482Y330686D01*
X206521Y330692D01*
X206554Y330698D01*
X206582Y330703D01*
X206604Y330709D01*
X206615D01*
X206621D01*
Y328128D01*
D02*
G37*
G36*
Y325142D02*
X205938D01*
Y326607D01*
X205866Y326563D01*
X205805Y326513D01*
X205777Y326491D01*
X205755Y326474D01*
X205744Y326463D01*
X205738Y326457D01*
X205716Y326435D01*
X205688Y326413D01*
X205627Y326346D01*
X205555Y326274D01*
X205483Y326202D01*
X205416Y326130D01*
X205361Y326069D01*
X205339Y326047D01*
X205322Y326030D01*
X205316Y326019D01*
X205311Y326013D01*
X205194Y325891D01*
X205100Y325791D01*
X205011Y325708D01*
X204945Y325642D01*
X204889Y325592D01*
X204850Y325558D01*
X204823Y325536D01*
X204817Y325531D01*
X204723Y325458D01*
X204634Y325397D01*
X204551Y325347D01*
X204478Y325309D01*
X204417Y325275D01*
X204367Y325253D01*
X204340Y325242D01*
X204329Y325236D01*
X204240Y325203D01*
X204151Y325181D01*
X204068Y325164D01*
X203990Y325153D01*
X203929Y325148D01*
X203879Y325142D01*
X203846D01*
X203835D01*
X203751Y325148D01*
X203668Y325159D01*
X203590Y325170D01*
X203518Y325192D01*
X203391Y325248D01*
X203280Y325303D01*
X203230Y325336D01*
X203191Y325364D01*
X203152Y325392D01*
X203124Y325419D01*
X203102Y325442D01*
X203080Y325453D01*
X203074Y325464D01*
X203069Y325469D01*
X203013Y325531D01*
X202963Y325603D01*
X202924Y325669D01*
X202891Y325747D01*
X202836Y325891D01*
X202797Y326036D01*
X202786Y326102D01*
X202775Y326163D01*
X202769Y326219D01*
X202764Y326269D01*
X202758Y326308D01*
Y326363D01*
X202764Y326457D01*
X202769Y326546D01*
X202797Y326718D01*
X202841Y326863D01*
X202863Y326929D01*
X202891Y326990D01*
X202913Y327046D01*
X202941Y327090D01*
X202963Y327134D01*
X202980Y327168D01*
X203002Y327196D01*
X203013Y327212D01*
X203019Y327223D01*
X203024Y327229D01*
X203080Y327290D01*
X203135Y327345D01*
X203202Y327395D01*
X203274Y327440D01*
X203418Y327506D01*
X203557Y327562D01*
X203629Y327578D01*
X203690Y327595D01*
X203746Y327612D01*
X203796Y327617D01*
X203840Y327628D01*
X203868D01*
X203890Y327634D01*
X203896D01*
X203968Y326901D01*
X203857Y326890D01*
X203763Y326868D01*
X203679Y326846D01*
X203618Y326818D01*
X203568Y326796D01*
X203535Y326774D01*
X203513Y326757D01*
X203507Y326751D01*
X203463Y326696D01*
X203430Y326635D01*
X203402Y326574D01*
X203385Y326513D01*
X203374Y326463D01*
X203368Y326419D01*
Y326380D01*
X203374Y326296D01*
X203391Y326224D01*
X203413Y326163D01*
X203435Y326108D01*
X203457Y326069D01*
X203479Y326036D01*
X203496Y326019D01*
X203502Y326013D01*
X203557Y325969D01*
X203618Y325936D01*
X203679Y325914D01*
X203740Y325897D01*
X203796Y325886D01*
X203846Y325880D01*
X203873D01*
X203879D01*
X203885D01*
X203968Y325886D01*
X204046Y325902D01*
X204123Y325930D01*
X204190Y325958D01*
X204251Y325986D01*
X204295Y326013D01*
X204323Y326030D01*
X204334Y326036D01*
X204367Y326058D01*
X204406Y326091D01*
X204456Y326135D01*
X204501Y326180D01*
X204606Y326280D01*
X204712Y326380D01*
X204812Y326480D01*
X204856Y326524D01*
X204889Y326568D01*
X204922Y326602D01*
X204945Y326624D01*
X204961Y326641D01*
X204967Y326646D01*
X205072Y326757D01*
X205172Y326857D01*
X205267Y326951D01*
X205350Y327035D01*
X205433Y327112D01*
X205511Y327179D01*
X205577Y327240D01*
X205644Y327290D01*
X205699Y327334D01*
X205749Y327373D01*
X205788Y327406D01*
X205827Y327429D01*
X205849Y327451D01*
X205872Y327462D01*
X205883Y327473D01*
X205888D01*
X206016Y327545D01*
X206149Y327601D01*
X206271Y327645D01*
X206382Y327678D01*
X206482Y327701D01*
X206521Y327706D01*
X206554Y327712D01*
X206582Y327717D01*
X206604Y327723D01*
X206615D01*
X206621D01*
Y325142D01*
D02*
G37*
G36*
X205594Y323122D02*
X204856D01*
Y324570D01*
X205594D01*
Y323122D01*
D02*
G37*
G36*
X204317Y322461D02*
X204234Y322284D01*
X204190Y322201D01*
X204140Y322123D01*
X204096Y322051D01*
X204051Y321984D01*
X204007Y321923D01*
X203968Y321867D01*
X203935Y321823D01*
X203901Y321784D01*
X203873Y321751D01*
X203857Y321729D01*
X203846Y321718D01*
X203840Y321712D01*
X206621D01*
Y320974D01*
X202758D01*
Y321573D01*
X202886Y321629D01*
X203002Y321701D01*
X203113Y321779D01*
X203202Y321856D01*
X203274Y321923D01*
X203330Y321984D01*
X203352Y322006D01*
X203368Y322023D01*
X203374Y322034D01*
X203380Y322040D01*
X203468Y322162D01*
X203546Y322278D01*
X203607Y322384D01*
X203651Y322478D01*
X203685Y322556D01*
X203713Y322611D01*
X203718Y322633D01*
X203724Y322650D01*
X203729Y322656D01*
Y322661D01*
X204395D01*
X204317Y322461D01*
D02*
G37*
G36*
X206621Y317383D02*
X205938D01*
Y318848D01*
X205866Y318804D01*
X205805Y318754D01*
X205777Y318732D01*
X205755Y318715D01*
X205744Y318704D01*
X205738Y318699D01*
X205716Y318676D01*
X205688Y318654D01*
X205627Y318587D01*
X205555Y318515D01*
X205483Y318443D01*
X205416Y318371D01*
X205361Y318310D01*
X205339Y318288D01*
X205322Y318271D01*
X205316Y318260D01*
X205311Y318254D01*
X205194Y318132D01*
X205100Y318033D01*
X205011Y317949D01*
X204945Y317883D01*
X204889Y317833D01*
X204850Y317799D01*
X204823Y317777D01*
X204817Y317772D01*
X204723Y317700D01*
X204634Y317638D01*
X204551Y317588D01*
X204478Y317550D01*
X204417Y317516D01*
X204367Y317494D01*
X204340Y317483D01*
X204329Y317477D01*
X204240Y317444D01*
X204151Y317422D01*
X204068Y317405D01*
X203990Y317394D01*
X203929Y317389D01*
X203879Y317383D01*
X203846D01*
X203835D01*
X203751Y317389D01*
X203668Y317400D01*
X203590Y317411D01*
X203518Y317433D01*
X203391Y317489D01*
X203280Y317544D01*
X203230Y317577D01*
X203191Y317605D01*
X203152Y317633D01*
X203124Y317661D01*
X203102Y317683D01*
X203080Y317694D01*
X203074Y317705D01*
X203069Y317711D01*
X203013Y317772D01*
X202963Y317844D01*
X202924Y317910D01*
X202891Y317988D01*
X202836Y318132D01*
X202797Y318277D01*
X202786Y318343D01*
X202775Y318404D01*
X202769Y318460D01*
X202764Y318510D01*
X202758Y318549D01*
Y318604D01*
X202764Y318699D01*
X202769Y318787D01*
X202797Y318959D01*
X202841Y319104D01*
X202863Y319170D01*
X202891Y319231D01*
X202913Y319287D01*
X202941Y319331D01*
X202963Y319376D01*
X202980Y319409D01*
X203002Y319437D01*
X203013Y319453D01*
X203019Y319464D01*
X203024Y319470D01*
X203080Y319531D01*
X203135Y319586D01*
X203202Y319637D01*
X203274Y319681D01*
X203418Y319747D01*
X203557Y319803D01*
X203629Y319820D01*
X203690Y319836D01*
X203746Y319853D01*
X203796Y319858D01*
X203840Y319869D01*
X203868D01*
X203890Y319875D01*
X203896D01*
X203968Y319143D01*
X203857Y319131D01*
X203763Y319109D01*
X203679Y319087D01*
X203618Y319059D01*
X203568Y319037D01*
X203535Y319015D01*
X203513Y318998D01*
X203507Y318993D01*
X203463Y318937D01*
X203430Y318876D01*
X203402Y318815D01*
X203385Y318754D01*
X203374Y318704D01*
X203368Y318660D01*
Y318621D01*
X203374Y318538D01*
X203391Y318465D01*
X203413Y318404D01*
X203435Y318349D01*
X203457Y318310D01*
X203479Y318277D01*
X203496Y318260D01*
X203502Y318254D01*
X203557Y318210D01*
X203618Y318177D01*
X203679Y318155D01*
X203740Y318138D01*
X203796Y318127D01*
X203846Y318121D01*
X203873D01*
X203879D01*
X203885D01*
X203968Y318127D01*
X204046Y318144D01*
X204123Y318171D01*
X204190Y318199D01*
X204251Y318227D01*
X204295Y318254D01*
X204323Y318271D01*
X204334Y318277D01*
X204367Y318299D01*
X204406Y318332D01*
X204456Y318377D01*
X204501Y318421D01*
X204606Y318521D01*
X204712Y318621D01*
X204812Y318721D01*
X204856Y318765D01*
X204889Y318810D01*
X204922Y318843D01*
X204945Y318865D01*
X204961Y318882D01*
X204967Y318887D01*
X205072Y318998D01*
X205172Y319098D01*
X205267Y319193D01*
X205350Y319276D01*
X205433Y319353D01*
X205511Y319420D01*
X205577Y319481D01*
X205644Y319531D01*
X205699Y319575D01*
X205749Y319614D01*
X205788Y319648D01*
X205827Y319670D01*
X205849Y319692D01*
X205872Y319703D01*
X205883Y319714D01*
X205888D01*
X206016Y319786D01*
X206149Y319842D01*
X206271Y319886D01*
X206382Y319919D01*
X206482Y319942D01*
X206521Y319947D01*
X206554Y319953D01*
X206582Y319958D01*
X206604Y319964D01*
X206615D01*
X206621D01*
Y317383D01*
D02*
G37*
G36*
X205594Y315363D02*
X204856D01*
Y316811D01*
X205594D01*
Y315363D01*
D02*
G37*
G36*
X206621Y312610D02*
X205938D01*
Y314075D01*
X205866Y314031D01*
X205805Y313981D01*
X205777Y313959D01*
X205755Y313942D01*
X205744Y313931D01*
X205738Y313926D01*
X205716Y313903D01*
X205688Y313881D01*
X205627Y313814D01*
X205555Y313742D01*
X205483Y313670D01*
X205416Y313598D01*
X205361Y313537D01*
X205339Y313515D01*
X205322Y313498D01*
X205316Y313487D01*
X205311Y313481D01*
X205194Y313359D01*
X205100Y313260D01*
X205011Y313176D01*
X204945Y313110D01*
X204889Y313060D01*
X204850Y313026D01*
X204823Y313004D01*
X204817Y312999D01*
X204723Y312927D01*
X204634Y312865D01*
X204551Y312815D01*
X204478Y312777D01*
X204417Y312743D01*
X204367Y312721D01*
X204340Y312710D01*
X204329Y312704D01*
X204240Y312671D01*
X204151Y312649D01*
X204068Y312632D01*
X203990Y312621D01*
X203929Y312616D01*
X203879Y312610D01*
X203846D01*
X203835D01*
X203751Y312616D01*
X203668Y312627D01*
X203590Y312638D01*
X203518Y312660D01*
X203391Y312716D01*
X203280Y312771D01*
X203230Y312804D01*
X203191Y312832D01*
X203152Y312860D01*
X203124Y312888D01*
X203102Y312910D01*
X203080Y312921D01*
X203074Y312932D01*
X203069Y312938D01*
X203013Y312999D01*
X202963Y313071D01*
X202924Y313137D01*
X202891Y313215D01*
X202836Y313359D01*
X202797Y313504D01*
X202786Y313570D01*
X202775Y313631D01*
X202769Y313687D01*
X202764Y313737D01*
X202758Y313776D01*
Y313831D01*
X202764Y313926D01*
X202769Y314014D01*
X202797Y314186D01*
X202841Y314331D01*
X202863Y314397D01*
X202891Y314458D01*
X202913Y314514D01*
X202941Y314558D01*
X202963Y314603D01*
X202980Y314636D01*
X203002Y314664D01*
X203013Y314680D01*
X203019Y314691D01*
X203024Y314697D01*
X203080Y314758D01*
X203135Y314813D01*
X203202Y314863D01*
X203274Y314908D01*
X203418Y314974D01*
X203557Y315030D01*
X203629Y315047D01*
X203690Y315063D01*
X203746Y315080D01*
X203796Y315085D01*
X203840Y315096D01*
X203868D01*
X203890Y315102D01*
X203896D01*
X203968Y314370D01*
X203857Y314358D01*
X203763Y314336D01*
X203679Y314314D01*
X203618Y314286D01*
X203568Y314264D01*
X203535Y314242D01*
X203513Y314225D01*
X203507Y314220D01*
X203463Y314164D01*
X203430Y314103D01*
X203402Y314042D01*
X203385Y313981D01*
X203374Y313931D01*
X203368Y313887D01*
Y313848D01*
X203374Y313765D01*
X203391Y313692D01*
X203413Y313631D01*
X203435Y313576D01*
X203457Y313537D01*
X203479Y313504D01*
X203496Y313487D01*
X203502Y313481D01*
X203557Y313437D01*
X203618Y313404D01*
X203679Y313382D01*
X203740Y313365D01*
X203796Y313354D01*
X203846Y313348D01*
X203873D01*
X203879D01*
X203885D01*
X203968Y313354D01*
X204046Y313370D01*
X204123Y313398D01*
X204190Y313426D01*
X204251Y313454D01*
X204295Y313481D01*
X204323Y313498D01*
X204334Y313504D01*
X204367Y313526D01*
X204406Y313559D01*
X204456Y313604D01*
X204501Y313648D01*
X204606Y313748D01*
X204712Y313848D01*
X204812Y313948D01*
X204856Y313992D01*
X204889Y314036D01*
X204922Y314070D01*
X204945Y314092D01*
X204961Y314109D01*
X204967Y314114D01*
X205072Y314225D01*
X205172Y314325D01*
X205267Y314420D01*
X205350Y314503D01*
X205433Y314580D01*
X205511Y314647D01*
X205577Y314708D01*
X205644Y314758D01*
X205699Y314802D01*
X205749Y314841D01*
X205788Y314875D01*
X205827Y314897D01*
X205849Y314919D01*
X205872Y314930D01*
X205883Y314941D01*
X205888D01*
X206016Y315013D01*
X206149Y315069D01*
X206271Y315113D01*
X206382Y315146D01*
X206482Y315169D01*
X206521Y315174D01*
X206554Y315180D01*
X206582Y315185D01*
X206604Y315191D01*
X206615D01*
X206621D01*
Y312610D01*
D02*
G37*
G36*
X204922Y312105D02*
X205106Y312094D01*
X205278Y312077D01*
X205433Y312055D01*
X205572Y312033D01*
X205699Y312005D01*
X205810Y311972D01*
X205910Y311939D01*
X205994Y311911D01*
X206071Y311878D01*
X206132Y311850D01*
X206182Y311822D01*
X206216Y311805D01*
X206243Y311789D01*
X206260Y311778D01*
X206265Y311772D01*
X206343Y311705D01*
X206404Y311633D01*
X206465Y311561D01*
X206510Y311484D01*
X206554Y311411D01*
X206587Y311334D01*
X206615Y311262D01*
X206637Y311189D01*
X206660Y311123D01*
X206671Y311062D01*
X206682Y311006D01*
X206687Y310962D01*
Y310923D01*
X206693Y310890D01*
Y310868D01*
X206687Y310768D01*
X206676Y310673D01*
X206654Y310579D01*
X206632Y310496D01*
X206604Y310418D01*
X206571Y310346D01*
X206532Y310285D01*
X206493Y310224D01*
X206460Y310174D01*
X206421Y310124D01*
X206388Y310085D01*
X206360Y310052D01*
X206338Y310029D01*
X206315Y310013D01*
X206304Y310002D01*
X206299Y309996D01*
X206205Y309929D01*
X206094Y309874D01*
X205977Y309819D01*
X205849Y309780D01*
X205722Y309741D01*
X205594Y309713D01*
X205461Y309685D01*
X205333Y309663D01*
X205211Y309652D01*
X205100Y309641D01*
X204995Y309630D01*
X204906Y309624D01*
X204834Y309619D01*
X204778D01*
X204756D01*
X204739D01*
X204734D01*
X204728D01*
X204528Y309624D01*
X204345Y309635D01*
X204179Y309652D01*
X204023Y309680D01*
X203879Y309707D01*
X203751Y309735D01*
X203635Y309774D01*
X203535Y309807D01*
X203441Y309841D01*
X203368Y309874D01*
X203302Y309907D01*
X203246Y309935D01*
X203207Y309963D01*
X203180Y309979D01*
X203163Y309991D01*
X203157Y309996D01*
X203085Y310057D01*
X203024Y310124D01*
X202974Y310196D01*
X202924Y310268D01*
X202886Y310340D01*
X202858Y310412D01*
X202830Y310479D01*
X202808Y310551D01*
X202791Y310618D01*
X202780Y310673D01*
X202769Y310729D01*
X202764Y310773D01*
X202758Y310812D01*
Y310868D01*
X202764Y310967D01*
X202775Y311062D01*
X202797Y311156D01*
X202819Y311239D01*
X202852Y311317D01*
X202886Y311389D01*
X202919Y311450D01*
X202958Y311511D01*
X202997Y311561D01*
X203030Y311611D01*
X203063Y311650D01*
X203097Y311678D01*
X203119Y311705D01*
X203141Y311722D01*
X203152Y311733D01*
X203157Y311739D01*
X203252Y311805D01*
X203363Y311861D01*
X203479Y311911D01*
X203602Y311955D01*
X203729Y311988D01*
X203862Y312022D01*
X203990Y312044D01*
X204118Y312066D01*
X204240Y312077D01*
X204351Y312088D01*
X204456Y312100D01*
X204545Y312105D01*
X204617Y312111D01*
X204673D01*
X204695D01*
X204712D01*
X204717D01*
X204723D01*
X204922Y312105D01*
D02*
G37*
G36*
X205594Y307604D02*
X204856D01*
Y309053D01*
X205594D01*
Y307604D01*
D02*
G37*
G36*
X206621Y306394D02*
X205017D01*
Y306144D01*
X205022Y306067D01*
X205028Y306000D01*
X205039Y305945D01*
X205045Y305900D01*
X205056Y305872D01*
X205061Y305856D01*
Y305850D01*
X205083Y305806D01*
X205106Y305762D01*
X205133Y305723D01*
X205155Y305684D01*
X205183Y305656D01*
X205205Y305634D01*
X205217Y305623D01*
X205222Y305617D01*
X205250Y305595D01*
X205278Y305567D01*
X205361Y305506D01*
X205450Y305440D01*
X205550Y305367D01*
X205638Y305306D01*
X205683Y305279D01*
X205716Y305256D01*
X205744Y305234D01*
X205766Y305218D01*
X205783Y305212D01*
X205788Y305206D01*
X206621Y304651D01*
Y303719D01*
X205872Y304191D01*
X205794Y304241D01*
X205716Y304291D01*
X205649Y304335D01*
X205589Y304380D01*
X205533Y304418D01*
X205477Y304452D01*
X205394Y304518D01*
X205328Y304568D01*
X205283Y304602D01*
X205256Y304629D01*
X205250Y304635D01*
X205183Y304696D01*
X205122Y304768D01*
X205072Y304835D01*
X205022Y304901D01*
X204983Y304957D01*
X204956Y305001D01*
X204934Y305034D01*
X204928Y305040D01*
Y305046D01*
X204911Y304951D01*
X204889Y304868D01*
X204867Y304790D01*
X204839Y304713D01*
X204812Y304646D01*
X204784Y304585D01*
X204756Y304524D01*
X204723Y304474D01*
X204695Y304429D01*
X204667Y304391D01*
X204639Y304357D01*
X204617Y304335D01*
X204601Y304313D01*
X204584Y304296D01*
X204578Y304291D01*
X204573Y304285D01*
X204517Y304241D01*
X204462Y304202D01*
X204340Y304135D01*
X204223Y304091D01*
X204107Y304063D01*
X204007Y304041D01*
X203968Y304035D01*
X203929D01*
X203901Y304030D01*
X203873D01*
X203862D01*
X203857D01*
X203735Y304035D01*
X203618Y304058D01*
X203518Y304085D01*
X203430Y304113D01*
X203357Y304146D01*
X203302Y304174D01*
X203285Y304185D01*
X203269Y304196D01*
X203263Y304202D01*
X203257D01*
X203163Y304269D01*
X203085Y304341D01*
X203024Y304413D01*
X202969Y304485D01*
X202936Y304552D01*
X202908Y304602D01*
X202891Y304635D01*
X202886Y304640D01*
Y304646D01*
X202869Y304701D01*
X202852Y304762D01*
X202824Y304901D01*
X202808Y305051D01*
X202791Y305195D01*
Y305268D01*
X202786Y305328D01*
Y305390D01*
X202780Y305440D01*
Y307171D01*
X206621D01*
Y306394D01*
D02*
G37*
G36*
X204895Y303425D02*
X205083Y303403D01*
X205256Y303364D01*
X205339Y303347D01*
X205411Y303325D01*
X205477Y303303D01*
X205539Y303286D01*
X205589Y303264D01*
X205633Y303247D01*
X205666Y303236D01*
X205694Y303225D01*
X205711Y303214D01*
X205716D01*
X205883Y303120D01*
X206027Y303014D01*
X206155Y302903D01*
X206254Y302792D01*
X206299Y302742D01*
X206338Y302692D01*
X206371Y302654D01*
X206393Y302615D01*
X206415Y302587D01*
X206432Y302559D01*
X206438Y302548D01*
X206443Y302542D01*
X206488Y302454D01*
X206526Y302370D01*
X206587Y302187D01*
X206632Y302010D01*
X206660Y301849D01*
X206671Y301771D01*
X206682Y301704D01*
X206687Y301643D01*
Y301588D01*
X206693Y301549D01*
Y301488D01*
X206687Y301310D01*
X206665Y301144D01*
X206637Y300983D01*
X206604Y300844D01*
X206587Y300783D01*
X206571Y300728D01*
X206554Y300678D01*
X206543Y300633D01*
X206532Y300600D01*
X206521Y300578D01*
X206515Y300561D01*
Y300555D01*
X206449Y300389D01*
X206377Y300250D01*
X206304Y300128D01*
X206243Y300023D01*
X206188Y299945D01*
X206166Y299917D01*
X206143Y299890D01*
X206127Y299873D01*
X206116Y299856D01*
X206105Y299845D01*
X204562D01*
Y301516D01*
X205211D01*
Y300628D01*
X205705D01*
X205755Y300694D01*
X205799Y300766D01*
X205838Y300839D01*
X205872Y300905D01*
X205899Y300961D01*
X205922Y301011D01*
X205932Y301038D01*
X205938Y301044D01*
Y301049D01*
X205971Y301138D01*
X205994Y301227D01*
X206010Y301310D01*
X206021Y301382D01*
X206027Y301449D01*
X206032Y301494D01*
Y301538D01*
X206027Y301627D01*
X206016Y301715D01*
X205999Y301793D01*
X205977Y301871D01*
X205922Y302010D01*
X205894Y302065D01*
X205860Y302121D01*
X205827Y302171D01*
X205799Y302215D01*
X205766Y302248D01*
X205744Y302282D01*
X205722Y302304D01*
X205705Y302320D01*
X205694Y302332D01*
X205688Y302337D01*
X205622Y302387D01*
X205544Y302437D01*
X205466Y302476D01*
X205383Y302509D01*
X205211Y302565D01*
X205045Y302598D01*
X204967Y302609D01*
X204889Y302620D01*
X204828Y302626D01*
X204767Y302631D01*
X204723Y302637D01*
X204684D01*
X204662D01*
X204656D01*
X204539Y302631D01*
X204434Y302626D01*
X204329Y302609D01*
X204234Y302592D01*
X204151Y302570D01*
X204073Y302542D01*
X204001Y302515D01*
X203935Y302487D01*
X203879Y302465D01*
X203829Y302437D01*
X203790Y302409D01*
X203757Y302387D01*
X203729Y302370D01*
X203713Y302354D01*
X203701Y302348D01*
X203696Y302343D01*
X203640Y302282D01*
X203585Y302221D01*
X203546Y302154D01*
X203507Y302087D01*
X203474Y302021D01*
X203446Y301954D01*
X203407Y301827D01*
X203396Y301765D01*
X203385Y301710D01*
X203380Y301660D01*
X203374Y301616D01*
X203368Y301582D01*
Y301532D01*
X203374Y301410D01*
X203396Y301305D01*
X203418Y301210D01*
X203452Y301127D01*
X203479Y301066D01*
X203507Y301016D01*
X203529Y300989D01*
X203535Y300977D01*
X203602Y300900D01*
X203674Y300833D01*
X203746Y300778D01*
X203818Y300739D01*
X203885Y300705D01*
X203935Y300683D01*
X203968Y300672D01*
X203973Y300667D01*
X203979D01*
X203835Y299895D01*
X203740Y299917D01*
X203646Y299951D01*
X203563Y299984D01*
X203485Y300028D01*
X203407Y300067D01*
X203341Y300112D01*
X203280Y300156D01*
X203224Y300200D01*
X203174Y300245D01*
X203130Y300284D01*
X203091Y300317D01*
X203063Y300350D01*
X203041Y300378D01*
X203019Y300400D01*
X203013Y300411D01*
X203008Y300417D01*
X202952Y300495D01*
X202908Y300578D01*
X202869Y300667D01*
X202836Y300761D01*
X202780Y300944D01*
X202747Y301122D01*
X202730Y301205D01*
X202725Y301283D01*
X202719Y301355D01*
X202714Y301416D01*
X202708Y301466D01*
Y301532D01*
X202714Y301732D01*
X202736Y301910D01*
X202752Y301987D01*
X202769Y302065D01*
X202786Y302137D01*
X202802Y302198D01*
X202824Y302254D01*
X202841Y302309D01*
X202858Y302348D01*
X202869Y302387D01*
X202886Y302415D01*
X202891Y302437D01*
X202902Y302448D01*
Y302454D01*
X203002Y302626D01*
X203063Y302698D01*
X203119Y302770D01*
X203180Y302837D01*
X203241Y302898D01*
X203302Y302953D01*
X203357Y303003D01*
X203413Y303042D01*
X203463Y303081D01*
X203507Y303114D01*
X203546Y303142D01*
X203579Y303158D01*
X203602Y303175D01*
X203618Y303181D01*
X203624Y303186D01*
X203713Y303231D01*
X203801Y303270D01*
X203984Y303330D01*
X204168Y303375D01*
X204329Y303403D01*
X204406Y303414D01*
X204473Y303425D01*
X204534Y303431D01*
X204590D01*
X204628Y303436D01*
X204662D01*
X204684D01*
X204689D01*
X204895Y303425D01*
D02*
G37*
%LPC*%
G36*
Y311334D02*
X204839D01*
X204795D01*
X204756D01*
X204734D01*
X204728D01*
X204606D01*
X204490Y311328D01*
X204390D01*
X204290Y311323D01*
X204206Y311317D01*
X204123Y311312D01*
X204057Y311306D01*
X203990Y311295D01*
X203935Y311289D01*
X203890Y311284D01*
X203851Y311278D01*
X203818Y311273D01*
X203796Y311267D01*
X203774D01*
X203768Y311262D01*
X203763D01*
X203685Y311239D01*
X203618Y311211D01*
X203568Y311189D01*
X203524Y311162D01*
X203496Y311139D01*
X203474Y311123D01*
X203463Y311112D01*
X203457Y311106D01*
X203430Y311067D01*
X203407Y311023D01*
X203391Y310984D01*
X203380Y310945D01*
X203374Y310917D01*
X203368Y310890D01*
Y310868D01*
X203374Y310818D01*
X203380Y310773D01*
X203396Y310734D01*
X203413Y310701D01*
X203430Y310673D01*
X203441Y310651D01*
X203452Y310640D01*
X203457Y310634D01*
X203496Y310601D01*
X203546Y310568D01*
X203602Y310540D01*
X203657Y310512D01*
X203713Y310496D01*
X203757Y310479D01*
X203785Y310473D01*
X203790Y310468D01*
X203796D01*
X203846Y310457D01*
X203907Y310446D01*
X203979Y310435D01*
X204051Y310423D01*
X204201Y310412D01*
X204356Y310407D01*
X204429Y310401D01*
X204501D01*
X204562Y310396D01*
X204617D01*
X204662D01*
X204700D01*
X204723D01*
X204728D01*
X204850D01*
X204967Y310401D01*
X205072D01*
X205167Y310407D01*
X205256Y310412D01*
X205333Y310418D01*
X205405Y310429D01*
X205466Y310435D01*
X205522Y310440D01*
X205566Y310451D01*
X205605Y310457D01*
X205638Y310462D01*
X205661Y310468D01*
X205683D01*
X205688Y310473D01*
X205694D01*
X205772Y310496D01*
X205833Y310523D01*
X205888Y310551D01*
X205927Y310573D01*
X205960Y310595D01*
X205982Y310618D01*
X205994Y310629D01*
X205999Y310634D01*
X206027Y310673D01*
X206049Y310712D01*
X206060Y310751D01*
X206071Y310790D01*
X206077Y310818D01*
X206082Y310845D01*
Y310868D01*
X206077Y310917D01*
X206071Y310962D01*
X206055Y311001D01*
X206038Y311034D01*
X206027Y311062D01*
X206010Y311084D01*
X206005Y311095D01*
X205999Y311101D01*
X205960Y311134D01*
X205910Y311167D01*
X205855Y311195D01*
X205799Y311223D01*
X205749Y311239D01*
X205705Y311256D01*
X205677Y311262D01*
X205666Y311267D01*
X205611Y311278D01*
X205550Y311289D01*
X205483Y311300D01*
X205411Y311306D01*
X205256Y311317D01*
X205100Y311323D01*
X205028Y311328D01*
X204956D01*
X204895Y311334D01*
D02*
G37*
G36*
X204406Y306394D02*
X203430D01*
Y305506D01*
X203435Y305456D01*
Y305334D01*
X203441Y305284D01*
Y305251D01*
X203446Y305234D01*
Y305229D01*
X203463Y305162D01*
X203485Y305101D01*
X203507Y305051D01*
X203535Y305012D01*
X203563Y304979D01*
X203579Y304951D01*
X203596Y304940D01*
X203602Y304935D01*
X203646Y304901D01*
X203701Y304873D01*
X203751Y304857D01*
X203801Y304840D01*
X203846Y304835D01*
X203879Y304829D01*
X203901D01*
X203912D01*
X203973Y304835D01*
X204029Y304840D01*
X204079Y304857D01*
X204123Y304868D01*
X204156Y304885D01*
X204179Y304901D01*
X204195Y304907D01*
X204201Y304912D01*
X204240Y304946D01*
X204273Y304979D01*
X204323Y305051D01*
X204340Y305079D01*
X204351Y305107D01*
X204362Y305123D01*
Y305129D01*
X204367Y305156D01*
X204379Y305201D01*
X204384Y305245D01*
X204390Y305295D01*
X204395Y305412D01*
X204401Y305528D01*
X204406Y305639D01*
Y306394D01*
D02*
G37*
%LPD*%
D38*
X528992Y278890D02*
D03*
Y317866D02*
D03*
D39*
X286756Y380606D02*
D03*
D45*
X460390Y276724D02*
D03*
X467673D02*
D03*
D46*
X483717Y292177D02*
D03*
Y284894D02*
D03*
X491591D02*
D03*
Y292177D02*
D03*
X448284D02*
D03*
Y284894D02*
D03*
X440410D02*
D03*
Y292177D02*
D03*
D47*
X349470Y229476D02*
D03*
X342580D02*
D03*
X487654Y310189D02*
D03*
X494544D02*
D03*
D50*
X369544Y393555D02*
D03*
Y382728D02*
D03*
X335256Y271693D02*
D03*
Y282520D02*
D03*
X295528Y313831D02*
D03*
Y324658D02*
D03*
D51*
X359603Y381843D02*
D03*
X348776D02*
D03*
D52*
X241591Y408614D02*
D03*
Y346606D02*
D03*
X251433Y314126D02*
D03*
X180567Y341685D02*
D03*
D53*
X241591Y388929D02*
D03*
Y366291D02*
D03*
D54*
X430961Y231291D02*
D03*
X440961D02*
D03*
X450961D02*
D03*
X460961D02*
D03*
X470961D02*
D03*
X480961D02*
D03*
X430961Y241291D02*
D03*
X440961D02*
D03*
X450961D02*
D03*
X460961D02*
D03*
X470961D02*
D03*
X271008Y393599D02*
D03*
Y385724D02*
D03*
Y377851D02*
D03*
Y369976D02*
D03*
X278882Y393599D02*
D03*
Y385724D02*
D03*
Y377851D02*
D03*
Y369976D02*
D03*
X286756Y393599D02*
D03*
Y385724D02*
D03*
Y377851D02*
D03*
Y369976D02*
D03*
X294630Y393599D02*
D03*
Y385724D02*
D03*
Y377851D02*
D03*
Y369976D02*
D03*
X302504Y393599D02*
D03*
Y385724D02*
D03*
Y377851D02*
D03*
Y369976D02*
D03*
X220567Y241291D02*
D03*
X210567D02*
D03*
X200567D02*
D03*
X190567D02*
D03*
X180567D02*
D03*
X230567Y231291D02*
D03*
X220567D02*
D03*
X210567D02*
D03*
X200567D02*
D03*
X190567D02*
D03*
X180567D02*
D03*
X540646Y241291D02*
D03*
X530646D02*
D03*
X520646D02*
D03*
X510646D02*
D03*
X500646D02*
D03*
X550646Y231291D02*
D03*
X540646D02*
D03*
X530646D02*
D03*
X520646D02*
D03*
X510646D02*
D03*
X500646D02*
D03*
D55*
X480961Y241291D02*
D03*
X230567D02*
D03*
X550646D02*
D03*
D56*
X316756Y407957D02*
D03*
D57*
Y392957D02*
D03*
Y377957D02*
D03*
Y347957D02*
D03*
Y332957D02*
D03*
Y317957D02*
D03*
X416756Y407957D02*
D03*
Y392957D02*
D03*
Y377957D02*
D03*
Y347957D02*
D03*
Y332957D02*
D03*
Y317957D02*
D03*
D58*
X198835Y283606D02*
D03*
D59*
X178756D02*
D03*
X198835Y253606D02*
D03*
X178756D02*
D03*
D60*
X284574Y283487D02*
D03*
X288511D02*
D03*
Y279550D02*
D03*
Y275613D02*
D03*
X284574D02*
D03*
X292448D02*
D03*
Y279550D02*
D03*
X284574D02*
D03*
X520990Y305866D02*
D03*
X515213Y272787D02*
D03*
Y290504D02*
D03*
X517181Y305866D02*
D03*
X513410D02*
D03*
X515213Y296409D02*
D03*
Y276724D02*
D03*
D61*
X231748Y280662D02*
D03*
D62*
Y314126D02*
D03*
X200252Y341685D02*
D03*
D63*
X460630Y299213D02*
D03*
X456693D02*
D03*
X452756D02*
D03*
X448819D02*
D03*
X465229Y293307D02*
D03*
X454724Y275590D02*
D03*
Y279528D02*
D03*
Y283465D02*
D03*
Y287402D02*
D03*
X386073Y388159D02*
D03*
X475579Y297512D02*
D03*
Y301849D02*
D03*
Y306264D02*
D03*
X343953Y258102D02*
D03*
X295528Y313831D02*
D03*
X297756Y345106D02*
D03*
X342875Y229476D02*
D03*
X379386Y248102D02*
D03*
D64*
X176426Y407480D02*
D03*
X332677Y261811D02*
D03*
X332677Y253642D02*
D03*
X551181Y397232D02*
D03*
X519685Y356409D02*
D03*
X350051Y229476D02*
D03*
X540803Y399264D02*
D03*
Y388831D02*
D03*
X263385Y285217D02*
D03*
X277071Y344976D02*
D03*
X288756Y295606D02*
D03*
D65*
X515213Y379087D02*
D03*
X475843D02*
D03*
D106*
X176426Y407480D02*
D03*
X201526D02*
D03*
X176426Y372047D02*
D03*
X201526D02*
D03*
Y389764D02*
D03*
X176426D02*
D03*
D107*
X321272Y261811D02*
D03*
X332272D02*
D03*
D108*
X551181Y397232D02*
D03*
Y386232D02*
D03*
X519685Y345409D02*
D03*
Y356409D02*
D03*
D109*
X210630Y371850D02*
D03*
Y380118D02*
D03*
D110*
X296756Y341039D02*
D03*
X276756D02*
D03*
D111*
X355542Y244342D02*
D03*
X371290D02*
D03*
X356756Y285106D02*
D03*
X372504D02*
D03*
D112*
X476323Y390606D02*
D03*
Y339717D02*
D03*
D113*
X436756Y400606D02*
D03*
Y380606D02*
D03*
Y390606D02*
D03*
Y339717D02*
D03*
Y329717D02*
D03*
Y349717D02*
D03*
D114*
X400756Y333480D02*
D03*
Y317732D02*
D03*
X401969Y380228D02*
D03*
Y364480D02*
D03*
X385969Y380102D02*
D03*
Y364354D02*
D03*
X384756Y333480D02*
D03*
Y317732D02*
D03*
D115*
X384603Y344835D02*
D03*
X396217D02*
D03*
X386177Y393654D02*
D03*
X397792D02*
D03*
X348776Y392079D02*
D03*
X360390D02*
D03*
X487752Y300346D02*
D03*
X499366D02*
D03*
D116*
X340532Y359606D02*
D03*
X364981D02*
D03*
X364981Y331606D02*
D03*
X340532D02*
D03*
D117*
X335756Y390354D02*
D03*
Y408858D02*
D03*
D118*
X499465Y285090D02*
D03*
Y291980D02*
D03*
X460095Y285090D02*
D03*
Y291980D02*
D03*
D119*
X270756Y324827D02*
D03*
Y302386D02*
D03*
D120*
X468165Y293949D02*
D03*
X471906D02*
D03*
X475646D02*
D03*
Y283122D02*
D03*
X471906D02*
D03*
X468165D02*
D03*
M02*
