G04*
G04 #@! TF.GenerationSoftware,Altium Limited,Altium Designer,20.2.6 (244)*
G04*
G04 Layer_Physical_Order=1*
G04 Layer_Color=255*
%FSLAX24Y24*%
%MOIN*%
G70*
G04*
G04 #@! TF.SameCoordinates,31C55898-3F01-4FA6-8909-C42763FC29AA*
G04*
G04*
G04 #@! TF.FilePolarity,Positive*
G04*
G01*
G75*
%ADD14C,0.0100*%
%ADD15R,0.0728X0.0492*%
%ADD16R,0.0787X0.1575*%
%ADD17R,0.0689X0.0492*%
%ADD18R,0.0630X0.1102*%
%ADD19O,0.0571X0.0236*%
G04:AMPARAMS|DCode=20|XSize=118.1mil|YSize=118.1mil|CornerRadius=29.5mil|HoleSize=0mil|Usage=FLASHONLY|Rotation=0.000|XOffset=0mil|YOffset=0mil|HoleType=Round|Shape=RoundedRectangle|*
%AMROUNDEDRECTD20*
21,1,0.1181,0.0591,0,0,0.0*
21,1,0.0591,0.1181,0,0,0.0*
1,1,0.0591,0.0295,-0.0295*
1,1,0.0591,-0.0295,-0.0295*
1,1,0.0591,-0.0295,0.0295*
1,1,0.0591,0.0295,0.0295*
%
%ADD20ROUNDEDRECTD20*%
%ADD21R,0.4016X0.3583*%
%ADD22R,0.0492X0.0689*%
%ADD23R,0.0531X0.0413*%
%ADD24R,0.0413X0.0531*%
%ADD25R,0.0630X0.1260*%
%ADD26R,0.2126X0.1142*%
%ADD27R,0.0512X0.0591*%
G04:AMPARAMS|DCode=28|XSize=21.7mil|YSize=31.5mil|CornerRadius=1.9mil|HoleSize=0mil|Usage=FLASHONLY|Rotation=90.000|XOffset=0mil|YOffset=0mil|HoleType=Round|Shape=RoundedRectangle|*
%AMROUNDEDRECTD28*
21,1,0.0217,0.0276,0,0,90.0*
21,1,0.0178,0.0315,0,0,90.0*
1,1,0.0039,0.0138,0.0089*
1,1,0.0039,0.0138,-0.0089*
1,1,0.0039,-0.0138,-0.0089*
1,1,0.0039,-0.0138,0.0089*
%
%ADD28ROUNDEDRECTD28*%
%ADD29R,0.0492X0.0591*%
%ADD56C,0.0236*%
%ADD60C,0.0250*%
%ADD61C,0.0200*%
%ADD62C,0.0300*%
%ADD63C,0.0118*%
%ADD64C,0.0120*%
%ADD65C,0.0600*%
%ADD66C,0.0197*%
%ADD67C,0.0295*%
%ADD68C,0.0315*%
%ADD69C,0.0600*%
%ADD70R,0.0787X0.0787*%
G04:AMPARAMS|DCode=71|XSize=78.7mil|YSize=78.7mil|CornerRadius=19.7mil|HoleSize=0mil|Usage=FLASHONLY|Rotation=90.000|XOffset=0mil|YOffset=0mil|HoleType=Round|Shape=RoundedRectangle|*
%AMROUNDEDRECTD71*
21,1,0.0787,0.0394,0,0,90.0*
21,1,0.0394,0.0787,0,0,90.0*
1,1,0.0394,0.0197,0.0197*
1,1,0.0394,0.0197,-0.0197*
1,1,0.0394,-0.0197,-0.0197*
1,1,0.0394,-0.0197,0.0197*
%
%ADD71ROUNDEDRECTD71*%
%ADD72C,0.0472*%
G04:AMPARAMS|DCode=73|XSize=47.2mil|YSize=47.2mil|CornerRadius=11.8mil|HoleSize=0mil|Usage=FLASHONLY|Rotation=180.000|XOffset=0mil|YOffset=0mil|HoleType=Round|Shape=RoundedRectangle|*
%AMROUNDEDRECTD73*
21,1,0.0472,0.0236,0,0,180.0*
21,1,0.0236,0.0472,0,0,180.0*
1,1,0.0236,-0.0118,0.0118*
1,1,0.0236,0.0118,0.0118*
1,1,0.0236,0.0118,-0.0118*
1,1,0.0236,-0.0118,-0.0118*
%
%ADD73ROUNDEDRECTD73*%
G04:AMPARAMS|DCode=74|XSize=47.2mil|YSize=47.2mil|CornerRadius=11.8mil|HoleSize=0mil|Usage=FLASHONLY|Rotation=90.000|XOffset=0mil|YOffset=0mil|HoleType=Round|Shape=RoundedRectangle|*
%AMROUNDEDRECTD74*
21,1,0.0472,0.0236,0,0,90.0*
21,1,0.0236,0.0472,0,0,90.0*
1,1,0.0236,0.0118,0.0118*
1,1,0.0236,0.0118,-0.0118*
1,1,0.0236,-0.0118,-0.0118*
1,1,0.0236,-0.0118,0.0118*
%
%ADD74ROUNDEDRECTD74*%
%ADD75R,0.0600X0.0600*%
%ADD76R,0.0591X0.0591*%
%ADD77R,0.0591X0.0591*%
%ADD78C,0.0591*%
%ADD79C,0.0394*%
%ADD80C,0.0500*%
G36*
X16732Y-394D02*
Y-2885D01*
X16550Y-3065D01*
X15748D01*
Y-1772D01*
X15512Y-1535D01*
X9567D01*
X9561Y-1541D01*
X9374D01*
X9287Y-1642D01*
Y-6102D01*
X6102D01*
X5709Y-5709D01*
Y-4134D01*
X4724Y-3150D01*
X394D01*
X197Y-2953D01*
Y-394D01*
X394Y-197D01*
X16535D01*
X16732Y-394D01*
D02*
G37*
G36*
X39173Y-787D02*
Y-19488D01*
X39075Y-19587D01*
X25886D01*
X25787Y-19488D01*
Y-17323D01*
X26575D01*
Y-19071D01*
X26642Y-19138D01*
X35586D01*
X35630Y-19094D01*
Y-4331D01*
X35139Y-3840D01*
Y-3069D01*
X34152D01*
Y-3543D01*
X31202D01*
Y-3050D01*
X30215D01*
Y-3543D01*
X25778D01*
X25763Y-3493D01*
X25779Y-3483D01*
X26414Y-2848D01*
X26750D01*
Y-3269D01*
X27580D01*
Y-1967D01*
X26750D01*
Y-2389D01*
X26319D01*
X26231Y-2406D01*
X26157Y-2456D01*
X25521Y-3091D01*
X22118D01*
X21894Y-2868D01*
X21820Y-2818D01*
X21732Y-2800D01*
X21644Y-2818D01*
X21569Y-2868D01*
X21520Y-2942D01*
X21502Y-3030D01*
X21520Y-3118D01*
X21569Y-3192D01*
X21860Y-3483D01*
X21876Y-3493D01*
X21861Y-3543D01*
X21063D01*
X20669Y-3150D01*
Y-394D01*
X20866Y-197D01*
X38583D01*
X39173Y-787D01*
D02*
G37*
G36*
X34152Y-4844D02*
X35139D01*
Y-4050D01*
X35186Y-4031D01*
X35528Y-4373D01*
Y-19036D01*
X33763D01*
Y-16535D01*
X33756Y-16496D01*
X33734Y-16463D01*
X32976Y-15706D01*
Y-11656D01*
X33310Y-11322D01*
X33957D01*
X33996Y-11315D01*
X34029Y-11293D01*
X34051Y-11259D01*
X34059Y-11220D01*
Y-7776D01*
X34051Y-7737D01*
X34029Y-7703D01*
X33996Y-7681D01*
X33957Y-7674D01*
X29035D01*
X28996Y-7681D01*
X28963Y-7703D01*
X28865Y-7802D01*
X28843Y-7835D01*
X28835Y-7874D01*
Y-8756D01*
X26378D01*
X26339Y-8764D01*
X26306Y-8786D01*
X26284Y-8819D01*
X26276Y-8858D01*
Y-10630D01*
X26284Y-10669D01*
X26306Y-10702D01*
X26503Y-10899D01*
X26536Y-10921D01*
X26575Y-10929D01*
X26765D01*
Y-11136D01*
X26490Y-11410D01*
X23031D01*
X22953Y-11426D01*
X22887Y-11470D01*
X22494Y-11864D01*
X22449Y-11930D01*
X22434Y-12008D01*
Y-14093D01*
X22272D01*
Y-14207D01*
X21063D01*
X21001Y-14219D01*
X20948Y-14255D01*
X20138Y-15064D01*
X20103Y-15117D01*
X20090Y-15180D01*
Y-18285D01*
X20103Y-18347D01*
X20138Y-18400D01*
X20554Y-18816D01*
X20607Y-18851D01*
X20669Y-18864D01*
X22244D01*
X22307Y-18851D01*
X22359Y-18816D01*
X22556Y-18619D01*
X22592Y-18566D01*
X22604Y-18504D01*
Y-17871D01*
X23424Y-17051D01*
X23807D01*
Y-16319D01*
X23193D01*
Y-16820D01*
X23095Y-16918D01*
X23049Y-16899D01*
Y-16290D01*
X22926D01*
X22905Y-16240D01*
X23261Y-15884D01*
X24066D01*
Y-16319D01*
X23922D01*
Y-17051D01*
X24066D01*
Y-17205D01*
X23922D01*
Y-17937D01*
X24066D01*
Y-18104D01*
X23207Y-18964D01*
X22256D01*
X22248Y-18951D01*
X22208Y-18925D01*
X22162Y-18915D01*
X21886D01*
X21839Y-18925D01*
X21799Y-18951D01*
X21773Y-18991D01*
X21764Y-19037D01*
Y-19215D01*
X21773Y-19261D01*
X21799Y-19301D01*
X21839Y-19327D01*
X21886Y-19337D01*
X22162D01*
X22208Y-19327D01*
X22248Y-19301D01*
X22256Y-19288D01*
X23274D01*
X23336Y-19276D01*
X23389Y-19241D01*
X24343Y-18286D01*
X24378Y-18234D01*
X24391Y-18172D01*
Y-17937D01*
X24535D01*
Y-17205D01*
X24391D01*
Y-17051D01*
X24535D01*
Y-16319D01*
X24391D01*
Y-15722D01*
Y-15435D01*
X24578D01*
Y-14821D01*
X24086D01*
X24066Y-14775D01*
X24121Y-14721D01*
X24130Y-14706D01*
X24578D01*
Y-14093D01*
X23847D01*
Y-14496D01*
X23841Y-14500D01*
X23791Y-14473D01*
Y-14093D01*
X23059D01*
Y-14496D01*
X23054Y-14501D01*
X23004Y-14477D01*
Y-14093D01*
X22842D01*
Y-12092D01*
X23116Y-11818D01*
X26575D01*
X26653Y-11803D01*
X26719Y-11758D01*
X27113Y-11365D01*
X27157Y-11299D01*
X27172Y-11220D01*
Y-10929D01*
X29092D01*
X29622Y-11460D01*
Y-12205D01*
X29630Y-12244D01*
X29652Y-12277D01*
X30046Y-12671D01*
X30079Y-12693D01*
X30118Y-12700D01*
X31060D01*
X31197Y-12838D01*
Y-16535D01*
X31205Y-16574D01*
X31227Y-16608D01*
X31788Y-17168D01*
Y-19036D01*
X30657D01*
X30614Y-18996D01*
Y-18794D01*
X30624Y-18717D01*
X30614Y-18639D01*
Y-17794D01*
X30624Y-17717D01*
X30614Y-17639D01*
Y-17323D01*
X30606Y-17284D01*
X30584Y-17251D01*
X30551Y-17229D01*
X30512Y-17221D01*
X28937D01*
X28898Y-17229D01*
X28865Y-17251D01*
X28863Y-17253D01*
X28841Y-17286D01*
X28833Y-17325D01*
Y-17606D01*
X28831Y-17612D01*
X28817Y-17717D01*
X28831Y-17821D01*
X28833Y-17827D01*
Y-18606D01*
X28831Y-18612D01*
X28817Y-18717D01*
X28831Y-18821D01*
X28833Y-18827D01*
Y-19002D01*
X28805Y-19036D01*
X28538D01*
X28518Y-18986D01*
X28570Y-18918D01*
X28610Y-18821D01*
X28624Y-18717D01*
X28610Y-18612D01*
X28570Y-18515D01*
X28506Y-18431D01*
X28475Y-18408D01*
Y-18025D01*
X28506Y-18002D01*
X28570Y-17918D01*
X28610Y-17821D01*
X28624Y-17717D01*
X28610Y-17612D01*
X28570Y-17515D01*
X28506Y-17431D01*
X28475Y-17408D01*
Y-13063D01*
X28456Y-12965D01*
X28401Y-12882D01*
X28212Y-12694D01*
X28129Y-12639D01*
X28032Y-12619D01*
X27580D01*
Y-12223D01*
X26750D01*
Y-13525D01*
X27580D01*
Y-13129D01*
X27926D01*
X27966Y-13168D01*
Y-17408D01*
X27935Y-17431D01*
X27871Y-17515D01*
X27831Y-17612D01*
X27817Y-17717D01*
X27831Y-17821D01*
X27871Y-17918D01*
X27935Y-18002D01*
X27966Y-18025D01*
Y-18408D01*
X27935Y-18431D01*
X27871Y-18515D01*
X27831Y-18612D01*
X27817Y-18717D01*
X27831Y-18821D01*
X27871Y-18918D01*
X27923Y-18986D01*
X27903Y-19036D01*
X27538D01*
X27518Y-18986D01*
X27570Y-18918D01*
X27610Y-18821D01*
X27624Y-18717D01*
X27610Y-18612D01*
X27570Y-18515D01*
X27506Y-18431D01*
X27475Y-18408D01*
Y-18025D01*
X27506Y-18002D01*
X27570Y-17918D01*
X27610Y-17821D01*
X27624Y-17717D01*
X27610Y-17612D01*
X27570Y-17515D01*
X27506Y-17431D01*
X27422Y-17367D01*
X27325Y-17327D01*
X27220Y-17313D01*
X27116Y-17327D01*
X27019Y-17367D01*
X26935Y-17431D01*
X26871Y-17515D01*
X26831Y-17612D01*
X26817Y-17717D01*
X26831Y-17821D01*
X26871Y-17918D01*
X26935Y-18002D01*
X26966Y-18025D01*
Y-18408D01*
X26935Y-18431D01*
X26871Y-18515D01*
X26831Y-18612D01*
X26817Y-18717D01*
X26831Y-18821D01*
X26871Y-18918D01*
X26892Y-18945D01*
X26873Y-19003D01*
X26869Y-19004D01*
X26677Y-18812D01*
Y-17323D01*
X26669Y-17284D01*
X26647Y-17251D01*
X26614Y-17229D01*
X26575Y-17221D01*
X25787D01*
X25748Y-17229D01*
X25715Y-17251D01*
X25693Y-17284D01*
X25685Y-17323D01*
Y-19488D01*
X19488D01*
Y-19293D01*
X19933D01*
Y-18502D01*
X19488D01*
Y-14173D01*
X20669Y-12992D01*
Y-3937D01*
X20961Y-3645D01*
X24332D01*
X24354Y-3690D01*
X24344Y-3703D01*
X24314Y-3776D01*
X24304Y-3853D01*
Y-4247D01*
X24314Y-4324D01*
X24344Y-4397D01*
X24391Y-4459D01*
X24453Y-4506D01*
X24526Y-4536D01*
X24603Y-4546D01*
X24997D01*
X25074Y-4536D01*
X25147Y-4506D01*
X25209Y-4459D01*
X25256Y-4397D01*
X25286Y-4324D01*
X25296Y-4247D01*
Y-3853D01*
X25286Y-3776D01*
X25256Y-3703D01*
X25246Y-3690D01*
X25268Y-3645D01*
X30215D01*
Y-4824D01*
X31202D01*
Y-3645D01*
X34152D01*
Y-4844D01*
D02*
G37*
G36*
X15345Y-2156D02*
Y-2963D01*
X15157Y-3150D01*
X14173D01*
Y-3150D01*
X13976Y-3346D01*
Y-5709D01*
X9691D01*
Y-1969D01*
X15157D01*
X15345Y-2156D01*
D02*
G37*
G36*
X20276Y-492D02*
Y-12795D01*
X19193Y-13878D01*
Y-19488D01*
X19095Y-19587D01*
X17279D01*
X17207Y-19412D01*
X17329Y-19263D01*
X17626D01*
X17823Y-19263D01*
X17905Y-19263D01*
X18437D01*
Y-18532D01*
X18334D01*
Y-16646D01*
X18318Y-16568D01*
X18274Y-16501D01*
X17876Y-16103D01*
Y-15640D01*
X17164D01*
Y-16431D01*
X17453D01*
X17461Y-16443D01*
X17356Y-16640D01*
X17164D01*
Y-16832D01*
X16429D01*
X16351Y-16847D01*
X16285Y-16891D01*
X16219Y-16957D01*
X15917D01*
X15835Y-16957D01*
Y-16957D01*
X15720D01*
Y-16957D01*
X15107D01*
Y-17689D01*
X15107D01*
Y-17744D01*
X15107D01*
Y-18335D01*
X15107Y-18476D01*
X15107Y-18694D01*
X14258D01*
X14075Y-18511D01*
Y-18012D01*
X13922Y-17859D01*
Y-17018D01*
X13906Y-16940D01*
X13862Y-16874D01*
X12743Y-15754D01*
X12677Y-15710D01*
X12599Y-15695D01*
X10471D01*
X10258Y-15482D01*
Y-14345D01*
X10648D01*
X10650Y-14346D01*
X10735Y-14363D01*
X11070D01*
X11155Y-14346D01*
X11227Y-14298D01*
X11275Y-14226D01*
X11292Y-14141D01*
X11275Y-14056D01*
X11247Y-14013D01*
X11227Y-13977D01*
Y-13804D01*
X11247Y-13768D01*
X11275Y-13726D01*
X11292Y-13641D01*
X11275Y-13556D01*
X11243Y-13506D01*
X11227Y-13478D01*
Y-13303D01*
X11243Y-13275D01*
X11275Y-13226D01*
X11292Y-13141D01*
X11275Y-13056D01*
X11227Y-12983D01*
X11155Y-12935D01*
X11070Y-12918D01*
X10735D01*
X10650Y-12935D01*
X10648Y-12937D01*
X9633D01*
X9633Y-12937D01*
X9561Y-12951D01*
X9119D01*
X9038Y-12754D01*
X9305Y-12487D01*
X11781D01*
X11788Y-12497D01*
X11850Y-12544D01*
X11923Y-12574D01*
X12000Y-12584D01*
X12078Y-12574D01*
X12150Y-12544D01*
X12212Y-12497D01*
X12259Y-12435D01*
X12289Y-12363D01*
X12299Y-12285D01*
X12289Y-12208D01*
X12259Y-12135D01*
X12212Y-12073D01*
X12150Y-12026D01*
X12078Y-11996D01*
X12000Y-11986D01*
X11923Y-11996D01*
X11850Y-12026D01*
X11788Y-12073D01*
X11781Y-12083D01*
X9221D01*
X9143Y-12098D01*
X9078Y-12142D01*
X8322Y-12898D01*
X8278Y-12964D01*
X8262Y-13041D01*
Y-13237D01*
X8099D01*
Y-13791D01*
X8074Y-13869D01*
X7950Y-13965D01*
X7311D01*
Y-14068D01*
X6876D01*
X6694Y-13886D01*
Y-13384D01*
X5904D01*
Y-14175D01*
X6406D01*
X6647Y-14416D01*
X6713Y-14460D01*
X6791Y-14476D01*
X7311D01*
Y-14578D01*
X8043D01*
Y-14578D01*
X8099D01*
Y-14578D01*
X8830D01*
Y-14253D01*
X9136Y-13947D01*
X9798D01*
X9858Y-14036D01*
X9890Y-14144D01*
X9866Y-14180D01*
X9850Y-14258D01*
Y-15566D01*
X9866Y-15644D01*
X9910Y-15710D01*
X10243Y-16043D01*
X10309Y-16087D01*
X10387Y-16103D01*
X12514D01*
X13514Y-17102D01*
Y-17717D01*
X7382D01*
X7185Y-17520D01*
Y-16634D01*
X6398Y-15846D01*
X2047D01*
X1742Y-15541D01*
X1575D01*
X1575Y-15541D01*
X1575Y-15541D01*
X591D01*
X591Y-15541D01*
X591Y-15541D01*
X384D01*
X197Y-15354D01*
Y-14961D01*
X197Y-6890D01*
X492Y-6594D01*
X1870D01*
X1969Y-6693D01*
Y-11614D01*
X1772Y-11811D01*
Y-14173D01*
X2362Y-14764D01*
X3568D01*
X4244Y-14087D01*
Y-12217D01*
X4650Y-11811D01*
X6890D01*
X7480Y-11220D01*
Y-7972D01*
X7185Y-7677D01*
X5906D01*
X5807Y-7579D01*
Y-6791D01*
X5906Y-6693D01*
X8583D01*
X8980Y-7090D01*
Y-8665D01*
Y-9159D01*
X8997Y-9289D01*
X9047Y-9411D01*
X9127Y-9515D01*
X11195Y-11583D01*
X11299Y-11663D01*
X11421Y-11714D01*
X11551Y-11731D01*
X12217D01*
X12537Y-12050D01*
Y-12752D01*
X12511Y-12771D01*
X12428Y-12879D01*
X12376Y-13005D01*
X12358Y-13141D01*
X12376Y-13276D01*
X12428Y-13402D01*
X12511Y-13510D01*
X12620Y-13593D01*
X12664Y-13612D01*
X12659Y-13641D01*
X12675Y-13726D01*
X12708Y-13775D01*
X12724Y-13803D01*
Y-13978D01*
X12708Y-14006D01*
X12675Y-14056D01*
X12659Y-14141D01*
X12675Y-14226D01*
X12708Y-14275D01*
X12724Y-14303D01*
Y-14478D01*
X12708Y-14506D01*
X12675Y-14556D01*
X12659Y-14641D01*
X12675Y-14726D01*
X12724Y-14798D01*
X12796Y-14846D01*
X12881Y-14863D01*
X13216D01*
X13301Y-14846D01*
X13303Y-14845D01*
X13706D01*
X13784Y-14829D01*
X13850Y-14785D01*
X14244Y-14391D01*
X14244Y-14391D01*
X14288Y-14324D01*
X14304Y-14246D01*
X14304Y-14246D01*
Y-11187D01*
X14288Y-11109D01*
X14244Y-11042D01*
X12550Y-9348D01*
Y-8811D01*
X12698D01*
Y-8023D01*
X12698Y-7922D01*
X12698Y-7787D01*
X12839Y-7590D01*
X12900D01*
X12998Y-7571D01*
X13080Y-7515D01*
X13136Y-7433D01*
X13155Y-7335D01*
X13136Y-7237D01*
X13080Y-7155D01*
X12998Y-7100D01*
X12900Y-7080D01*
X12698D01*
Y-6937D01*
X12006D01*
Y-7725D01*
X12006Y-7826D01*
X12006Y-8023D01*
Y-8811D01*
X12142D01*
Y-9432D01*
X12157Y-9510D01*
X12202Y-9577D01*
X12679Y-10054D01*
X12679Y-10058D01*
X12602Y-10255D01*
X12592Y-10257D01*
X12520Y-10305D01*
X12472Y-10377D01*
X12455Y-10463D01*
X12468Y-10529D01*
X12460Y-10564D01*
X12351Y-10722D01*
X11760D01*
X9988Y-8950D01*
Y-6758D01*
X10053Y-6693D01*
X14135D01*
X14169Y-6708D01*
X14306Y-6835D01*
X14304Y-6853D01*
Y-7247D01*
X14314Y-7324D01*
X14344Y-7397D01*
X14391Y-7459D01*
X14453Y-7506D01*
X14526Y-7536D01*
X14603Y-7546D01*
X14997D01*
X15074Y-7536D01*
X15147Y-7506D01*
X15209Y-7459D01*
X15256Y-7397D01*
X15286Y-7324D01*
X15296Y-7247D01*
Y-6853D01*
X15286Y-6776D01*
X15256Y-6703D01*
X15209Y-6641D01*
X15147Y-6594D01*
X15074Y-6564D01*
X14997Y-6554D01*
X14603D01*
X14589Y-6556D01*
X14482Y-6415D01*
X14473Y-6397D01*
X14469Y-6382D01*
Y-4947D01*
X14592Y-4823D01*
X16929D01*
Y-3937D01*
X17421Y-3445D01*
Y-591D01*
X17717Y-295D01*
X20079D01*
X20276Y-492D01*
D02*
G37*
G36*
X5118Y-4331D02*
Y-7874D01*
X5512Y-8268D01*
X6693D01*
X6890Y-8465D01*
Y-10827D01*
X6496Y-11220D01*
X4528D01*
X3740Y-12008D01*
Y-13976D01*
X3543Y-14173D01*
X2559D01*
X2362Y-13976D01*
Y-12008D01*
X2559Y-11811D01*
Y-6102D01*
X2362Y-5906D01*
X591D01*
X394Y-5709D01*
Y-3937D01*
X591Y-3740D01*
X4528D01*
X5118Y-4331D01*
D02*
G37*
G36*
X22272Y-14706D02*
X22824D01*
X22843Y-14752D01*
X22774Y-14821D01*
X22272D01*
Y-14966D01*
X20769D01*
X20748Y-14916D01*
X21131Y-14533D01*
X22272D01*
Y-14706D01*
D02*
G37*
G36*
Y-15435D02*
X22765D01*
X22784Y-15481D01*
X22384Y-15881D01*
X21967D01*
X21949Y-15863D01*
X21866Y-15808D01*
X21769Y-15788D01*
X21419D01*
Y-15640D01*
X20707D01*
Y-16362D01*
X20657Y-16387D01*
X20635Y-16370D01*
Y-15422D01*
X20766Y-15290D01*
X22272D01*
Y-15435D01*
D02*
G37*
G36*
X21668Y-16303D02*
Y-17080D01*
X21846D01*
Y-17624D01*
X21846Y-17625D01*
Y-18175D01*
X21839Y-18177D01*
X21799Y-18203D01*
X21773Y-18243D01*
X21764Y-18289D01*
Y-18467D01*
X21768Y-18488D01*
X21734Y-18538D01*
X20737D01*
X20417Y-18217D01*
Y-16696D01*
X20463Y-16677D01*
X20707Y-16921D01*
Y-17431D01*
X21419D01*
Y-16640D01*
X20884D01*
X20725Y-16481D01*
X20746Y-16431D01*
X21419D01*
Y-16298D01*
X21663D01*
X21668Y-16303D01*
D02*
G37*
G36*
X22887Y-17126D02*
X22326Y-17688D01*
X22290Y-17741D01*
X22278Y-17803D01*
Y-18165D01*
X22228Y-18190D01*
X22208Y-18177D01*
X22170Y-18169D01*
Y-17626D01*
X22170Y-17625D01*
Y-17080D01*
X22868D01*
X22887Y-17126D01*
D02*
G37*
G36*
X17164Y-17431D02*
X17876D01*
X17926Y-17607D01*
Y-18532D01*
X17708Y-18532D01*
X17626Y-18532D01*
X17095D01*
Y-18916D01*
X16851Y-19159D01*
X15905D01*
X15720Y-18975D01*
Y-18673D01*
X15720Y-18532D01*
X15720Y-18263D01*
X15778Y-18252D01*
X15827Y-18218D01*
X15893Y-18152D01*
X15926Y-18103D01*
X15938Y-18044D01*
Y-17802D01*
X16051Y-17689D01*
X16448D01*
Y-17303D01*
X16452Y-17301D01*
X16514Y-17239D01*
X17164D01*
Y-17431D01*
D02*
G37*
G36*
X30512Y-18996D02*
X30506Y-19002D01*
X28935D01*
Y-17325D01*
X28937Y-17323D01*
X30512D01*
Y-18996D01*
D02*
G37*
G36*
X33957Y-11220D02*
X33268D01*
X32874Y-11614D01*
Y-15748D01*
X33661Y-16535D01*
Y-19036D01*
X31890D01*
Y-17126D01*
X31299Y-16535D01*
Y-12795D01*
X31102Y-12598D01*
X30118D01*
X29724Y-12205D01*
Y-11417D01*
X29134Y-10827D01*
X26575D01*
X26378Y-10630D01*
Y-8858D01*
X28937D01*
Y-7874D01*
X29035Y-7776D01*
X33957D01*
Y-11220D01*
D02*
G37*
G36*
X3200Y-16043D02*
X6299D01*
X6890Y-16634D01*
Y-19390D01*
X6791Y-19488D01*
X4921D01*
X4724Y-19291D01*
Y-17421D01*
X4429Y-17126D01*
X2953D01*
X2714Y-17126D01*
X2320Y-16732D01*
Y-16135D01*
X2506Y-15948D01*
X3105D01*
X3200Y-16043D01*
D02*
G37*
G36*
X1772Y-16142D02*
Y-17126D01*
X1969Y-17323D01*
X2264D01*
X2491Y-17550D01*
Y-17579D01*
X2478Y-17717D01*
X2491Y-17854D01*
Y-18579D01*
X2478Y-18717D01*
X2491Y-18854D01*
Y-19359D01*
X2362Y-19488D01*
X591D01*
X197Y-19094D01*
Y-16339D01*
X394Y-16142D01*
X591Y-15945D01*
X1575D01*
X1772Y-16142D01*
D02*
G37*
%LPC*%
G36*
X7283Y-345D02*
X7159Y-357D01*
X7039Y-394D01*
X6928Y-453D01*
X6831Y-532D01*
X6752Y-629D01*
X6693Y-740D01*
X6656Y-860D01*
X6644Y-984D01*
X6656Y-1109D01*
X6693Y-1229D01*
X6752Y-1339D01*
X6831Y-1436D01*
X6928Y-1516D01*
X7039Y-1575D01*
X7159Y-1611D01*
X7283Y-1624D01*
X7408Y-1611D01*
X7528Y-1575D01*
X7639Y-1516D01*
X7736Y-1436D01*
X7815Y-1339D01*
X7874Y-1229D01*
X7910Y-1109D01*
X7923Y-984D01*
X7910Y-860D01*
X7874Y-740D01*
X7815Y-629D01*
X7736Y-532D01*
X7639Y-453D01*
X7528Y-394D01*
X7408Y-357D01*
X7283Y-345D01*
D02*
G37*
G36*
X24997Y-554D02*
X24603D01*
X24526Y-564D01*
X24453Y-594D01*
X24391Y-641D01*
X24344Y-703D01*
X24314Y-776D01*
X24304Y-853D01*
Y-1247D01*
X24314Y-1324D01*
X24344Y-1397D01*
X24391Y-1459D01*
X24453Y-1506D01*
X24526Y-1536D01*
X24603Y-1546D01*
X24997D01*
X25074Y-1536D01*
X25147Y-1506D01*
X25209Y-1459D01*
X25256Y-1397D01*
X25286Y-1324D01*
X25296Y-1247D01*
Y-853D01*
X25286Y-776D01*
X25256Y-703D01*
X25209Y-641D01*
X25147Y-594D01*
X25074Y-564D01*
X24997Y-554D01*
D02*
G37*
G36*
X37649Y-1573D02*
X36760D01*
Y-2265D01*
X37649D01*
Y-1573D01*
D02*
G37*
G36*
X37669Y-2617D02*
X36741D01*
Y-3309D01*
X37669D01*
Y-2617D01*
D02*
G37*
G36*
X38589Y-17317D02*
X37789D01*
Y-18117D01*
X38589D01*
Y-17317D01*
D02*
G37*
G36*
X38189Y-18313D02*
X38085Y-18327D01*
X37987Y-18367D01*
X37904Y-18431D01*
X37840Y-18515D01*
X37799Y-18612D01*
X37786Y-18717D01*
X37799Y-18821D01*
X37840Y-18918D01*
X37904Y-19002D01*
X37987Y-19066D01*
X38085Y-19106D01*
X38189Y-19120D01*
X38293Y-19106D01*
X38391Y-19066D01*
X38474Y-19002D01*
X38538Y-18918D01*
X38579Y-18821D01*
X38592Y-18717D01*
X38579Y-18612D01*
X38538Y-18515D01*
X38474Y-18431D01*
X38391Y-18367D01*
X38293Y-18327D01*
X38189Y-18313D01*
D02*
G37*
G36*
X24997Y-6554D02*
X24603D01*
X24526Y-6564D01*
X24453Y-6594D01*
X24391Y-6641D01*
X24344Y-6703D01*
X24314Y-6776D01*
X24304Y-6853D01*
Y-7247D01*
X24314Y-7324D01*
X24344Y-7397D01*
X24391Y-7459D01*
X24453Y-7506D01*
X24526Y-7536D01*
X24603Y-7546D01*
X24997D01*
X25074Y-7536D01*
X25147Y-7506D01*
X25209Y-7459D01*
X25256Y-7397D01*
X25286Y-7324D01*
X25296Y-7247D01*
Y-6853D01*
X25286Y-6776D01*
X25256Y-6703D01*
X25209Y-6641D01*
X25147Y-6594D01*
X25074Y-6564D01*
X24997Y-6554D01*
D02*
G37*
G36*
Y-9554D02*
X24603D01*
X24526Y-9564D01*
X24453Y-9594D01*
X24391Y-9641D01*
X24344Y-9703D01*
X24314Y-9776D01*
X24304Y-9853D01*
Y-10247D01*
X24314Y-10324D01*
X24344Y-10397D01*
X24391Y-10459D01*
X24453Y-10506D01*
X24526Y-10536D01*
X24603Y-10546D01*
X24997D01*
X25074Y-10536D01*
X25147Y-10506D01*
X25209Y-10459D01*
X25256Y-10397D01*
X25286Y-10324D01*
X25296Y-10247D01*
Y-9853D01*
X25286Y-9776D01*
X25256Y-9703D01*
X25209Y-9641D01*
X25147Y-9594D01*
X25074Y-9564D01*
X24997Y-9554D01*
D02*
G37*
G36*
X35061Y-13778D02*
X34231D01*
Y-15080D01*
X35061D01*
Y-13778D01*
D02*
G37*
G36*
X11800Y-3082D02*
X11663Y-3095D01*
X11531Y-3135D01*
X11409Y-3200D01*
X11303Y-3288D01*
X11215Y-3394D01*
X11150Y-3516D01*
X11110Y-3648D01*
X11097Y-3785D01*
X11110Y-3922D01*
X11150Y-4054D01*
X11215Y-4176D01*
X11303Y-4282D01*
X11403Y-4382D01*
X11403Y-4382D01*
X11509Y-4470D01*
X11631Y-4535D01*
X11763Y-4575D01*
X11900Y-4588D01*
X12981D01*
X13118Y-4575D01*
X13250Y-4535D01*
X13372Y-4470D01*
X13478Y-4382D01*
X13566Y-4276D01*
X13631Y-4154D01*
X13671Y-4022D01*
X13685Y-3885D01*
X13671Y-3748D01*
X13631Y-3616D01*
X13566Y-3494D01*
X13478Y-3388D01*
X13372Y-3300D01*
X13250Y-3235D01*
X13118Y-3195D01*
X12981Y-3182D01*
X12156D01*
X12069Y-3135D01*
X11937Y-3095D01*
X11800Y-3082D01*
D02*
G37*
G36*
X10924Y-6937D02*
X10776Y-7056D01*
X10754Y-7059D01*
X10682Y-7089D01*
X10620Y-7136D01*
X10572Y-7198D01*
X10542Y-7271D01*
X10532Y-7348D01*
X10542Y-7426D01*
X10572Y-7498D01*
X10620Y-7560D01*
X10682Y-7607D01*
X10754Y-7637D01*
X10832Y-7647D01*
X10924Y-7826D01*
X10924Y-7922D01*
X10924D01*
Y-8811D01*
X11616D01*
Y-7922D01*
X11616D01*
X11616Y-7826D01*
X11616D01*
Y-6937D01*
X10924D01*
Y-6937D01*
D02*
G37*
G36*
X14997Y-9554D02*
X14603D01*
X14526Y-9564D01*
X14453Y-9594D01*
X14391Y-9641D01*
X14344Y-9703D01*
X14314Y-9776D01*
X14304Y-9853D01*
Y-10247D01*
X14314Y-10324D01*
X14344Y-10397D01*
X14391Y-10459D01*
X14453Y-10506D01*
X14526Y-10536D01*
X14603Y-10546D01*
X14997D01*
X15074Y-10536D01*
X15147Y-10506D01*
X15209Y-10459D01*
X15256Y-10397D01*
X15286Y-10324D01*
X15296Y-10247D01*
Y-9853D01*
X15286Y-9776D01*
X15256Y-9703D01*
X15209Y-9641D01*
X15147Y-9594D01*
X15074Y-9564D01*
X14997Y-9554D01*
D02*
G37*
%LPD*%
D14*
X17717Y-19488D02*
X17758Y-19446D01*
Y-18349D01*
X17520Y-18110D02*
X17758Y-18349D01*
X15719Y-18110D02*
X15785Y-18044D01*
X16142Y-17382D02*
Y-17323D01*
X15413Y-18110D02*
X15719D01*
X15785Y-17739D02*
X16142Y-17382D01*
X15785Y-18044D02*
Y-17739D01*
D15*
X33465Y-11998D02*
D03*
Y-10837D02*
D03*
X37205Y-4124D02*
D03*
Y-2963D02*
D03*
X26969Y-8278D02*
D03*
Y-9439D02*
D03*
X9449Y-13297D02*
D03*
Y-14459D02*
D03*
D16*
X30709Y-11791D02*
D03*
Y-14587D02*
D03*
Y-1142D02*
D03*
Y-3937D02*
D03*
X34646Y-1161D02*
D03*
Y-3957D02*
D03*
X30709Y-6260D02*
D03*
Y-9055D02*
D03*
D17*
X37205Y-1919D02*
D03*
Y-837D02*
D03*
X27953Y-9400D02*
D03*
Y-8317D02*
D03*
D18*
X34646Y-12736D02*
D03*
Y-14429D02*
D03*
X27165Y-12874D02*
D03*
Y-14567D02*
D03*
Y-2618D02*
D03*
Y-925D02*
D03*
D19*
X10903Y-13141D02*
D03*
Y-13641D02*
D03*
Y-14141D02*
D03*
Y-14641D02*
D03*
X13048Y-13141D02*
D03*
Y-13641D02*
D03*
Y-14141D02*
D03*
Y-14641D02*
D03*
D20*
X11975Y-13891D02*
D03*
D21*
X11800Y-3785D02*
D03*
D22*
X11270Y-7382D02*
D03*
X12352D02*
D03*
X12352Y-8366D02*
D03*
X11270D02*
D03*
D23*
X7677Y-13543D02*
D03*
Y-14272D02*
D03*
X24213Y-15128D02*
D03*
Y-14400D02*
D03*
X8465Y-14272D02*
D03*
Y-13543D02*
D03*
X22638Y-15128D02*
D03*
Y-14400D02*
D03*
X23425Y-15128D02*
D03*
Y-14400D02*
D03*
D24*
X23500Y-16685D02*
D03*
X24228D02*
D03*
X16142Y-18898D02*
D03*
X15413D02*
D03*
X23500Y-17571D02*
D03*
X24228D02*
D03*
X17402Y-18898D02*
D03*
X18130D02*
D03*
X15413Y-18110D02*
D03*
X16142D02*
D03*
Y-17323D02*
D03*
X15413D02*
D03*
D25*
X9154Y-18701D02*
D03*
Y-16732D02*
D03*
X12205Y-18701D02*
D03*
Y-16732D02*
D03*
D26*
X2559Y-4705D02*
D03*
Y-807D02*
D03*
D27*
X17520Y-17035D02*
D03*
Y-16035D02*
D03*
X21063D02*
D03*
Y-17035D02*
D03*
D28*
X22890Y-18752D02*
D03*
X22024Y-19126D02*
D03*
Y-18378D02*
D03*
D29*
X18898Y-18898D02*
D03*
X19587D02*
D03*
X22014Y-16685D02*
D03*
X22703D02*
D03*
D56*
X35125Y-16828D02*
D03*
X34653D02*
D03*
Y-17301D02*
D03*
Y-18246D02*
D03*
X34180Y-16828D02*
D03*
X33708Y-12576D02*
D03*
Y-13049D02*
D03*
Y-13521D02*
D03*
X30873Y-16828D02*
D03*
Y-18246D02*
D03*
X28511Y-12576D02*
D03*
X26621Y-15411D02*
D03*
Y-15883D02*
D03*
Y-16356D02*
D03*
Y-16828D02*
D03*
X26149Y-14939D02*
D03*
Y-15411D02*
D03*
Y-15883D02*
D03*
Y-16356D02*
D03*
Y-16828D02*
D03*
X25676Y-12104D02*
D03*
Y-14466D02*
D03*
Y-14939D02*
D03*
Y-15411D02*
D03*
Y-15883D02*
D03*
Y-16356D02*
D03*
Y-16828D02*
D03*
X25204Y-13994D02*
D03*
Y-14466D02*
D03*
Y-14939D02*
D03*
Y-15411D02*
D03*
Y-15883D02*
D03*
Y-16356D02*
D03*
Y-16828D02*
D03*
Y-17301D02*
D03*
Y-17773D02*
D03*
Y-18246D02*
D03*
Y-18718D02*
D03*
Y-19191D02*
D03*
X24731Y-13521D02*
D03*
Y-13994D02*
D03*
Y-14466D02*
D03*
Y-14939D02*
D03*
Y-15411D02*
D03*
Y-15883D02*
D03*
Y-16356D02*
D03*
Y-16828D02*
D03*
Y-17301D02*
D03*
Y-17773D02*
D03*
Y-18246D02*
D03*
Y-18718D02*
D03*
Y-19191D02*
D03*
X24259Y-13049D02*
D03*
Y-13521D02*
D03*
Y-18718D02*
D03*
Y-19191D02*
D03*
X23787Y-12576D02*
D03*
Y-13049D02*
D03*
Y-13521D02*
D03*
Y-19191D02*
D03*
X23314Y-12104D02*
D03*
Y-12576D02*
D03*
Y-13049D02*
D03*
Y-13521D02*
D03*
Y-18246D02*
D03*
X22842D02*
D03*
X22369Y-11631D02*
D03*
Y-17301D02*
D03*
X21897Y-11631D02*
D03*
X21424Y-17773D02*
D03*
Y-18246D02*
D03*
Y-19191D02*
D03*
X16109Y-10687D02*
D03*
Y-11277D02*
D03*
Y-11868D02*
D03*
Y-12458D02*
D03*
X15519Y-10687D02*
D03*
Y-11277D02*
D03*
Y-11868D02*
D03*
Y-12458D02*
D03*
Y-13049D02*
D03*
X14928Y-11868D02*
D03*
Y-12458D02*
D03*
Y-13049D02*
D03*
Y-13639D02*
D03*
Y-14230D02*
D03*
X14338Y-14820D02*
D03*
Y-15411D02*
D03*
Y-16002D02*
D03*
Y-16592D02*
D03*
Y-17183D02*
D03*
X13747Y-15411D02*
D03*
Y-16002D02*
D03*
X13157Y-15411D02*
D03*
Y-17183D02*
D03*
X12566Y-14820D02*
D03*
Y-15411D02*
D03*
X11976Y-13049D02*
D03*
Y-14820D02*
D03*
Y-15411D02*
D03*
X11385Y-14820D02*
D03*
Y-15411D02*
D03*
Y-16592D02*
D03*
Y-17183D02*
D03*
X10794Y-15411D02*
D03*
Y-16592D02*
D03*
Y-17183D02*
D03*
X10204Y-16592D02*
D03*
Y-17183D02*
D03*
X9613Y-15411D02*
D03*
X9023Y-10687D02*
D03*
Y-11277D02*
D03*
Y-11868D02*
D03*
X8432Y-7143D02*
D03*
Y-7734D02*
D03*
Y-8324D02*
D03*
Y-8915D02*
D03*
Y-9506D02*
D03*
Y-11277D02*
D03*
Y-11868D02*
D03*
Y-12458D02*
D03*
Y-14820D02*
D03*
Y-15411D02*
D03*
Y-16002D02*
D03*
Y-16592D02*
D03*
Y-17183D02*
D03*
X7842Y-7143D02*
D03*
Y-7734D02*
D03*
Y-8324D02*
D03*
Y-8915D02*
D03*
Y-9506D02*
D03*
Y-10096D02*
D03*
Y-10687D02*
D03*
Y-11277D02*
D03*
Y-11868D02*
D03*
Y-12458D02*
D03*
Y-13049D02*
D03*
Y-14820D02*
D03*
Y-15411D02*
D03*
X7251Y-11868D02*
D03*
Y-12458D02*
D03*
Y-13049D02*
D03*
Y-14820D02*
D03*
X6661Y-7143D02*
D03*
Y-12458D02*
D03*
Y-13049D02*
D03*
Y-14820D02*
D03*
X6070Y-7143D02*
D03*
Y-12458D02*
D03*
Y-13049D02*
D03*
Y-14820D02*
D03*
X5480Y-12458D02*
D03*
Y-13049D02*
D03*
Y-13639D02*
D03*
Y-14230D02*
D03*
Y-14820D02*
D03*
X4889Y-12458D02*
D03*
Y-13049D02*
D03*
Y-13639D02*
D03*
Y-14230D02*
D03*
Y-14820D02*
D03*
X4298Y-14230D02*
D03*
Y-14820D02*
D03*
X3708D02*
D03*
X1936D02*
D03*
X1346Y-7143D02*
D03*
Y-8324D02*
D03*
Y-8915D02*
D03*
Y-9506D02*
D03*
Y-10096D02*
D03*
Y-10687D02*
D03*
Y-11277D02*
D03*
Y-11868D02*
D03*
Y-12458D02*
D03*
Y-13049D02*
D03*
Y-14230D02*
D03*
Y-14820D02*
D03*
X755Y-7143D02*
D03*
Y-8324D02*
D03*
Y-8915D02*
D03*
Y-9506D02*
D03*
Y-10096D02*
D03*
Y-10687D02*
D03*
Y-11277D02*
D03*
Y-11868D02*
D03*
Y-12458D02*
D03*
Y-14230D02*
D03*
Y-14820D02*
D03*
X21732Y-3030D02*
D03*
X33661Y-8268D02*
D03*
X33268D02*
D03*
X32874D02*
D03*
X32480D02*
D03*
X32087D02*
D03*
X31693D02*
D03*
Y-8661D02*
D03*
X32087D02*
D03*
X32480D02*
D03*
X32874D02*
D03*
X33268D02*
D03*
X33661D02*
D03*
Y-9055D02*
D03*
X33268D02*
D03*
X32874D02*
D03*
X32480D02*
D03*
X32087D02*
D03*
X31693D02*
D03*
Y-9449D02*
D03*
X32087D02*
D03*
X32480D02*
D03*
X32874D02*
D03*
X33268D02*
D03*
X33661D02*
D03*
X30682Y-12094D02*
D03*
Y-11661D02*
D03*
Y-11219D02*
D03*
X12677Y-10463D02*
D03*
X12900Y-7335D02*
D03*
X21063Y-17035D02*
D03*
X15413Y-17323D02*
D03*
X17402Y-18898D02*
D03*
X17520Y-16035D02*
D03*
Y-17035D02*
D03*
X19567Y-18898D02*
D03*
D60*
X21732Y-3030D02*
X22023Y-3321D01*
X25616D02*
X26319Y-2618D01*
X22023Y-3321D02*
X25616D01*
X26319Y-2618D02*
X27165D01*
X26969Y-8278D02*
X26988Y-8297D01*
X27933D01*
X27953Y-8317D01*
X26969Y-9439D02*
X26988Y-9419D01*
X27933D01*
X27953Y-9400D01*
X30689Y-11219D02*
X33079D01*
X33346Y-10837D02*
X33465D01*
X33079Y-11219D02*
X33225Y-11073D01*
Y-10958D01*
X33346Y-10837D01*
X33465Y-11998D02*
X33484Y-11978D01*
D61*
X22638Y-14400D02*
Y-12008D01*
X23031Y-11614D02*
X26575D01*
X22638Y-12008D02*
X23031Y-11614D01*
X26575D02*
X26969Y-11220D01*
Y-9439D01*
X17520Y-16035D02*
X18130Y-16646D01*
Y-18898D02*
Y-16646D01*
X8465Y-14272D02*
X8524D01*
X7677D02*
X8465D01*
X6791D02*
X7677D01*
X6299Y-13780D02*
X6791Y-14272D01*
X9463Y-13324D02*
Y-13311D01*
Y-13324D02*
Y-13311D01*
X9449Y-13297D02*
X9463Y-13311D01*
X9633Y-13141D01*
X14173Y-18898D02*
X15413D01*
X13718Y-18442D02*
Y-17018D01*
Y-18442D02*
X14173Y-18898D01*
X10172Y-14141D02*
X10903D01*
X10054Y-15566D02*
Y-14258D01*
X10172Y-14141D01*
X10054Y-15566D02*
X10387Y-15899D01*
X9998Y-13641D02*
X10903D01*
X9896Y-13743D02*
X9998Y-13641D01*
X8524Y-14272D02*
X9052Y-13743D01*
X9896D01*
X13048Y-14141D02*
X13633D01*
X13750Y-14024D02*
Y-11535D01*
X13633Y-14141D02*
X13750Y-14024D01*
X13706Y-14641D02*
X14100Y-14246D01*
X13048Y-14641D02*
X13706D01*
X14100Y-14246D02*
Y-11187D01*
X12346Y-9432D02*
X14100Y-11187D01*
X12346Y-8373D02*
X12352Y-8366D01*
X12346Y-9432D02*
Y-8373D01*
X9633Y-13141D02*
X10903D01*
X12677Y-10463D02*
X13750Y-11535D01*
X11551Y-11226D02*
X12426D01*
X13041Y-13148D02*
Y-11841D01*
X12426Y-11226D02*
X13041Y-11841D01*
X7283Y-5217D02*
X8406D01*
X9484Y-9159D02*
Y-6295D01*
X8406Y-5217D02*
X9484Y-6295D01*
Y-9159D02*
X11551Y-11226D01*
X16429Y-17035D02*
X17520D01*
X16142Y-17323D02*
Y-17264D01*
X16248Y-17157D01*
X16307D01*
X16429Y-17035D01*
X23282Y-18752D02*
X23500Y-18534D01*
Y-17571D01*
X22890Y-18752D02*
X23282D01*
X18410Y-19435D02*
X18898Y-18947D01*
X17929Y-19435D02*
X18410D01*
X18898Y-18947D02*
Y-18898D01*
X16142Y-18110D02*
X17520D01*
X9154Y-16732D02*
X12205D01*
X12599Y-15899D02*
X13718Y-17018D01*
X19567Y-18898D02*
X19587D01*
X16142D02*
Y-18110D01*
X10387Y-15899D02*
X12599D01*
X15820Y-19363D02*
X16936D01*
X15413Y-18957D02*
Y-18898D01*
Y-18957D02*
X15820Y-19363D01*
X16936D02*
X17402Y-18898D01*
D62*
X27165Y-12874D02*
X28032D01*
X28220Y-13063D01*
Y-18717D02*
Y-13063D01*
X26795Y-19291D02*
X35695D01*
X26220Y-18717D02*
X26795Y-19291D01*
X26220Y-18717D02*
Y-17717D01*
X35695Y-19291D02*
X36189Y-18798D01*
Y-18717D01*
X27220D02*
Y-17717D01*
X21063Y-16035D02*
X21071Y-16043D01*
X21769D01*
X12352Y-7382D02*
X12399Y-7335D01*
X12900D01*
X21945Y-16616D02*
Y-16219D01*
Y-16616D02*
X22014Y-16685D01*
X21769Y-16043D02*
X21945Y-16219D01*
D63*
X22697Y-15128D02*
X23219Y-14606D01*
X22638Y-15128D02*
X22697D01*
X23219Y-14606D02*
Y-14532D01*
X23299Y-14451D01*
X22451Y-16043D02*
X23366Y-15128D01*
X21769Y-16043D02*
X22451D01*
X21071D02*
X21769D01*
X23425Y-15128D02*
X23484D01*
X24006Y-14606D01*
Y-14547D01*
X24154Y-14400D01*
X24213D01*
X22703Y-16685D02*
Y-16213D01*
X23193Y-15722D01*
X24228D01*
X23366Y-15128D02*
X23425D01*
X24228Y-15722D02*
Y-15144D01*
Y-16685D02*
Y-15722D01*
Y-17571D02*
Y-16685D01*
Y-18172D02*
Y-17571D01*
X24213Y-15128D02*
X24228Y-15144D01*
X20472Y-15354D02*
X20699Y-15128D01*
X22638D01*
X20472Y-16457D02*
Y-15354D01*
Y-16457D02*
X21050Y-17035D01*
X22024Y-19126D02*
X23274D01*
X24228Y-18172D01*
X21050Y-17035D02*
X21063D01*
X23299Y-14451D02*
X23358D01*
X22008Y-18329D02*
Y-17625D01*
X22008Y-17625D01*
X22024Y-18378D02*
Y-18344D01*
X22008Y-18329D02*
X22024Y-18344D01*
X22008Y-17625D02*
Y-16691D01*
X22014Y-16685D01*
D64*
X22608Y-14370D02*
X22638Y-14400D01*
X20253Y-15180D02*
X21063Y-14370D01*
X22608D01*
X20253Y-18285D02*
X20669Y-18701D01*
X20253Y-18285D02*
Y-15180D01*
X20669Y-18701D02*
X22244D01*
X22441Y-18504D01*
X23500Y-16744D02*
Y-16685D01*
X22441Y-17803D02*
X23500Y-16744D01*
X22441Y-18504D02*
Y-17803D01*
D65*
X11800Y-3785D02*
X11900Y-3885D01*
X12981D01*
X9154Y-18701D02*
X12205D01*
D66*
X9221Y-12285D02*
X12000D01*
X8465Y-13543D02*
Y-13041D01*
X9221Y-12285D01*
D67*
X10832Y-7348D02*
X10848Y-7365D01*
X11253D01*
X11270Y-7382D01*
Y-8366D02*
Y-7382D01*
D68*
X11582Y-13497D02*
D03*
X11975D02*
D03*
Y-13891D02*
D03*
Y-14284D02*
D03*
X11582D02*
D03*
X12369D02*
D03*
Y-13891D02*
D03*
X11582D02*
D03*
X34843Y-12205D02*
D03*
X34252Y-12795D02*
D03*
X34841Y-12804D02*
D03*
X34252Y-12205D02*
D03*
X35223Y-11259D02*
D03*
X34843D02*
D03*
X34465D02*
D03*
X34646Y-14567D02*
D03*
Y-14173D02*
D03*
D69*
X10225Y-2486D02*
D03*
Y-3273D02*
D03*
Y-4061D02*
D03*
Y-4848D02*
D03*
X11013Y-2486D02*
D03*
Y-3273D02*
D03*
Y-4061D02*
D03*
Y-4848D02*
D03*
X11800Y-2486D02*
D03*
Y-3273D02*
D03*
Y-4061D02*
D03*
Y-4848D02*
D03*
X12587Y-2486D02*
D03*
Y-3273D02*
D03*
Y-4061D02*
D03*
Y-4848D02*
D03*
X13375Y-2486D02*
D03*
Y-3273D02*
D03*
Y-4061D02*
D03*
Y-4848D02*
D03*
X33189Y-18717D02*
D03*
X34189D02*
D03*
X35189D02*
D03*
X36189D02*
D03*
X37189D02*
D03*
X38189D02*
D03*
X33189Y-17717D02*
D03*
X34189D02*
D03*
X35189D02*
D03*
X36189D02*
D03*
X37189D02*
D03*
X1181Y-18717D02*
D03*
X2181D02*
D03*
X3181D02*
D03*
X4181D02*
D03*
X5181D02*
D03*
X6181D02*
D03*
X1181Y-17717D02*
D03*
X2181D02*
D03*
X3181D02*
D03*
X4181D02*
D03*
X5181D02*
D03*
X26220Y-18717D02*
D03*
X27220D02*
D03*
X28220D02*
D03*
X29220D02*
D03*
X30220D02*
D03*
X31220D02*
D03*
X26220Y-17717D02*
D03*
X27220D02*
D03*
X28220D02*
D03*
X29220D02*
D03*
X30220D02*
D03*
D70*
X14800Y-1050D02*
D03*
D71*
Y-2550D02*
D03*
Y-4050D02*
D03*
Y-7050D02*
D03*
Y-8550D02*
D03*
Y-10050D02*
D03*
X24800Y-1050D02*
D03*
Y-2550D02*
D03*
Y-4050D02*
D03*
Y-7050D02*
D03*
Y-8550D02*
D03*
Y-10050D02*
D03*
D72*
X1181Y-7677D02*
D03*
X8268Y-10433D02*
D03*
X7283Y-984D02*
D03*
Y-7185D02*
D03*
D73*
X3150Y-7677D02*
D03*
X6299Y-10433D02*
D03*
D74*
X7283Y-2953D02*
D03*
Y-5217D02*
D03*
D75*
X38189Y-17717D02*
D03*
X6181D02*
D03*
X31220D02*
D03*
D76*
X6299Y-13780D02*
D03*
D77*
X3008Y-13485D02*
D03*
D78*
X1000D02*
D03*
X3008Y-16485D02*
D03*
X1000D02*
D03*
D79*
X37205Y-1919D02*
D03*
Y-2963D02*
D03*
X9463Y-13324D02*
D03*
X12000Y-12285D02*
D03*
X10433Y-18701D02*
D03*
X11024Y-18701D02*
D03*
X11614Y-18701D02*
D03*
X12195Y-18701D02*
D03*
X9744D02*
D03*
X9154D02*
D03*
X10832Y-7348D02*
D03*
D80*
X34646Y-3937D02*
D03*
X30709D02*
D03*
M02*
