M48
;Layer_Color=9474304
;FILE_FORMAT=2:4
INCH,LZ
;TYPE=PLATED
T1F00S00C0.0118
T2F00S00C0.0157
T3F00S00C0.0197
T4F00S00C0.0276
T5F00S00C0.0280
T6F00S00C0.0300
T7F00S00C0.0354
T8F00S00C0.0394
%
T01
X000755Y-01482
X001346
X001936
X001346Y-01423
X000755
X001346Y-013049
Y-012458
Y-011868
X000755
Y-012458
X004889
X00548
X00607
X006661
X007251
X007842
X008432
Y-011868
X007842
X007251
Y-013049
X007842
X006661
X00607
X00548
Y-013639
Y-01423
Y-01482
X00607
X006661
X007251
X007842
X008432
Y-015411
Y-016002
Y-016592
Y-017183
X007842Y-015411
X004889Y-01482
Y-01423
Y-013639
Y-013049
X004298Y-01423
Y-01482
X003708
X009613Y-015411
X010794
X011385
X011976
X012566
X013157
X013747
X014338
Y-01482
X014928Y-01423
Y-013639
Y-013049
X015519
Y-012458
X016109
Y-011868
X015519
X014928
Y-012458
X011976Y-013049
Y-01482
X012566
X011385
Y-016592
Y-017183
X010794
Y-016592
X010204
Y-017183
X013157
X014338
Y-016592
Y-016002
X013747
X015413Y-017323
X01752Y-017035
Y-016035
X017402Y-018898
X019567
X021424Y-019191
Y-018246
Y-017773
X021063Y-017035
X022369Y-017301
X022842Y-018246
X023314
X024259Y-018718
Y-019191
X023787
Y-013521
X024259
Y-013049
X023787
Y-012576
X023314
Y-012104
Y-013049
Y-013521
X022369Y-011631
X021897
X009023Y-011868
X025676Y-012104
Y-014466
Y-014939
X026149
Y-015411
X026621
Y-015883
Y-016356
Y-016828
X026149
Y-016356
Y-015883
X025676
Y-015411
X025204
Y-014939
Y-014466
Y-013994
X024731
Y-013521
Y-014466
Y-014939
Y-015411
Y-015883
X025204
Y-016356
X025676
Y-016828
X025204
Y-017301
Y-017773
Y-018246
Y-018718
Y-019191
X024731
Y-018718
Y-018246
Y-017773
Y-017301
Y-016828
Y-016356
X030873Y-016828
Y-018246
X034653
Y-017301
Y-016828
X035125
X03418
X033708Y-013521
Y-013049
Y-012576
X030682Y-012094
Y-011661
X028511Y-012576
X030682Y-011219
X031693Y-009449
Y-009055
Y-008661
Y-008268
X032087
Y-008661
X03248
Y-008268
X032874
Y-008661
X033268
Y-008268
X033661
Y-008661
Y-009055
X033268
X032874
X03248
X032087
Y-009449
X03248
X032874
X033268
X033661
X021732Y-00303
X0129Y-007335
X012677Y-010463
X015519Y-010687
X016109
Y-011277
X015519
X009023
Y-010687
X008432Y-011277
X007842
Y-010687
Y-010096
Y-009506
X008432
Y-008915
Y-008324
Y-007734
Y-007143
X007842
Y-007734
Y-008324
Y-008915
X006661Y-007143
X00607
X001346
X000755
Y-008324
X001346
Y-008915
Y-009506
Y-010096
Y-010687
Y-011277
X000755
Y-010687
Y-010096
Y-009506
Y-008915
T02
X011582Y-014284
X011975
Y-013891
Y-013497
X011582
Y-013891
X012369
Y-014284
X034646Y-014173
Y-014567
X034841Y-012804
X034252Y-012795
Y-012205
X034843
Y-011259
X034465
X035223
T03
X009154Y-018701
X009744
X010433Y-018701
X011024Y-018701
X011614Y-018701
X012195Y-018701
X012Y-012285
X009463Y-013324
X037205Y-002963
Y-001919
X010832Y-007348
T04
X001181Y-007677
X00315
X007283Y-007185
Y-005217
Y-002953
Y-000984
X008268Y-010433
X006299
T05
X030709Y-003937
X034646
T06
X010225Y-004848
Y-004061
X011013
Y-004848
X0118
Y-004061
Y-003273
X011013
X010225
Y-002486
X011013
X0118
X012587
X013375
Y-003273
X012587
Y-004061
Y-004848
X013375
Y-004061
T07
X001181Y-018717
X002181
X003181
X004181
X005181
X006181
Y-017717
X005181
X004181
X003181
X002181
X001181
X001Y-016485
X003008
Y-013485
X001
X006299Y-01378
X02622Y-017717
Y-018717
X02722
X02822
X02922
X03022
X03122
Y-017717
X03022
X02922
X02822
X02722
X033189
Y-018717
X034189
X035189
X036189
X037189
X038189
Y-017717
X037189
X036189
X035189
X034189
T08
X0248Y-01005
Y-00855
Y-00705
Y-00405
Y-00255
Y-00105
X0148
Y-00255
Y-00405
Y-00705
Y-00855
Y-01005
M30
