G04*
G04 #@! TF.GenerationSoftware,Altium Limited,Altium Designer,21.0.8 (223)*
G04*
G04 Layer_Color=16711935*
%FSLAX25Y25*%
%MOIN*%
G70*
G04*
G04 #@! TF.SameCoordinates,608BFDEB-8ADB-4086-B875-8CE8CE559F17*
G04*
G04*
G04 #@! TF.FilePolarity,Positive*
G04*
G01*
G75*
%ADD14C,0.01000*%
%ADD124C,0.00394*%
%ADD125R,0.02436X0.11496*%
%ADD126R,0.11496X0.02436*%
%ADD127R,0.15551X0.02515*%
%ADD128R,0.02436X0.11496*%
D14*
X487961Y224291D02*
Y248291D01*
X423961Y224291D02*
X487961D01*
X423961D02*
Y248291D01*
X487961D01*
X173567D02*
X237567D01*
X173567Y224291D02*
Y248291D01*
Y224291D02*
X237567D01*
Y248291D01*
X493646D02*
X557646D01*
X493646Y224291D02*
Y248291D01*
Y224291D02*
X557646D01*
Y248291D01*
X213679Y366639D02*
X213023Y365983D01*
Y364671D01*
X213679Y364015D01*
X216302D01*
X216958Y364671D01*
Y365983D01*
X216302Y366639D01*
X213679Y367951D02*
X213023Y368607D01*
Y369919D01*
X213679Y370575D01*
X214335D01*
X214990Y369919D01*
Y369263D01*
Y369919D01*
X215647Y370575D01*
X216302D01*
X216958Y369919D01*
Y368607D01*
X216302Y367951D01*
X420961Y252291D02*
Y256227D01*
X422929D01*
X423585Y255571D01*
Y254259D01*
X422929Y253603D01*
X420961D01*
X427521Y252291D02*
X424897D01*
X427521Y254915D01*
Y255571D01*
X426865Y256227D01*
X425553D01*
X424897Y255571D01*
X269503Y388581D02*
X270159Y389237D01*
Y390549D01*
X269503Y391205D01*
X266879D01*
X266223Y390549D01*
Y389237D01*
X266879Y388581D01*
X266223Y385302D02*
X270159D01*
X268191Y387270D01*
Y384646D01*
X170567Y252291D02*
Y256227D01*
X172535D01*
X173191Y255571D01*
Y254259D01*
X172535Y253603D01*
X170567D01*
X174503Y255571D02*
X175159Y256227D01*
X176471D01*
X177127Y255571D01*
Y254915D01*
X176471Y254259D01*
X175815D01*
X176471D01*
X177127Y253603D01*
Y252947D01*
X176471Y252291D01*
X175159D01*
X174503Y252947D01*
X490646Y252291D02*
Y256227D01*
X492614D01*
X493270Y255571D01*
Y254259D01*
X492614Y253603D01*
X490646D01*
X494582Y252291D02*
X495894D01*
X495238D01*
Y256227D01*
X494582Y255571D01*
X209458Y342038D02*
X208802Y342694D01*
X207490D01*
X206834Y342038D01*
Y339415D01*
X207490Y338758D01*
X208802D01*
X209458Y339415D01*
X213394Y338758D02*
X210770D01*
X213394Y341382D01*
Y342038D01*
X212738Y342694D01*
X211426D01*
X210770Y342038D01*
X222542Y313773D02*
X223198Y313117D01*
X224510D01*
X225166Y313773D01*
Y316397D01*
X224510Y317053D01*
X223198D01*
X222542Y316397D01*
X221231Y317053D02*
X219919D01*
X220574D01*
Y313117D01*
X221231Y313773D01*
X361677Y237577D02*
X362333Y238233D01*
X363645D01*
X364301Y237577D01*
Y234953D01*
X363645Y234298D01*
X362333D01*
X361677Y234953D01*
X360365Y234298D02*
X359053D01*
X359709D01*
Y238233D01*
X360365Y237577D01*
X357085Y234953D02*
X356429Y234298D01*
X355118D01*
X354462Y234953D01*
Y237577D01*
X355118Y238233D01*
X356429D01*
X357085Y237577D01*
Y236921D01*
X356429Y236265D01*
X354462D01*
X412062Y354936D02*
X412718Y355592D01*
X414030D01*
X414686Y354936D01*
Y352312D01*
X414030Y351656D01*
X412718D01*
X412062Y352312D01*
X410750Y354936D02*
X410094Y355592D01*
X408782D01*
X408126Y354936D01*
Y354280D01*
X408782Y353624D01*
X409438D01*
X408782D01*
X408126Y352968D01*
Y352312D01*
X408782Y351656D01*
X410094D01*
X410750Y352312D01*
X404847Y351656D02*
Y355592D01*
X406814Y353624D01*
X404191D01*
X400640Y398757D02*
X401296Y399412D01*
X402608D01*
X403264Y398757D01*
Y396133D01*
X402608Y395477D01*
X401296D01*
X400640Y396133D01*
X399329Y398757D02*
X398673Y399412D01*
X397361D01*
X396705Y398757D01*
Y398100D01*
X397361Y397445D01*
X398017D01*
X397361D01*
X396705Y396789D01*
Y396133D01*
X397361Y395477D01*
X398673D01*
X399329Y396133D01*
X392769Y395477D02*
X395393D01*
X392769Y398100D01*
Y398757D01*
X393425Y399412D01*
X394737D01*
X395393Y398757D01*
X383543Y414142D02*
X379608D01*
Y412174D01*
X380264Y411518D01*
X381575D01*
X382231Y412174D01*
Y414142D01*
Y412830D02*
X383543Y411518D01*
X380264Y410206D02*
X379608Y409550D01*
Y408238D01*
X380264Y407582D01*
X380920D01*
X381575Y408238D01*
Y408894D01*
Y408238D01*
X382231Y407582D01*
X382887D01*
X383543Y408238D01*
Y409550D01*
X382887Y410206D01*
X376235Y402180D02*
X376891Y402836D01*
X378203D01*
X378859Y402180D01*
Y399556D01*
X378203Y398900D01*
X376891D01*
X376235Y399556D01*
X372300Y402836D02*
X374923D01*
Y400868D01*
X373611Y401524D01*
X372955D01*
X372300Y400868D01*
Y399556D01*
X372955Y398900D01*
X374268D01*
X374923Y399556D01*
X321256Y251106D02*
X325192D01*
Y253074D01*
X324536Y253730D01*
X323224D01*
X322568Y253074D01*
Y251106D01*
Y252418D02*
X321256Y253730D01*
Y255042D02*
Y256354D01*
Y255698D01*
X325192D01*
X324536Y255042D01*
X321256Y260946D02*
Y258322D01*
X323880Y260946D01*
X324536D01*
X325192Y260290D01*
Y258978D01*
X324536Y258322D01*
X380189Y367843D02*
Y371778D01*
X378221D01*
X377566Y371123D01*
Y369811D01*
X378221Y369155D01*
X380189D01*
X378877D02*
X377566Y367843D01*
X376254D02*
X374942D01*
X375598D01*
Y371778D01*
X376254Y371123D01*
X515212Y310448D02*
X515868Y311104D01*
X517179D01*
X517835Y310448D01*
Y307824D01*
X517179Y307168D01*
X515868D01*
X515212Y307824D01*
X511276Y307168D02*
X513900D01*
X511276Y309792D01*
Y310448D01*
X511932Y311104D01*
X513244D01*
X513900Y310448D01*
X509964D02*
X509308Y311104D01*
X507996D01*
X507340Y310448D01*
Y309792D01*
X507996Y309136D01*
X507340Y308480D01*
Y307824D01*
X507996Y307168D01*
X509308D01*
X509964Y307824D01*
Y308480D01*
X509308Y309136D01*
X509964Y309792D01*
Y310448D01*
X509308Y309136D02*
X507996D01*
X502463Y280034D02*
X503463Y279034D01*
Y277035D01*
X502463Y276035D01*
X498464D01*
X497465Y277035D01*
Y279034D01*
X498464Y280034D01*
X502463Y282033D02*
X503463Y283033D01*
Y285033D01*
X502463Y286032D01*
X501463D01*
X500464Y285033D01*
Y284033D01*
Y285033D01*
X499464Y286032D01*
X498464D01*
X497465Y285033D01*
Y283033D01*
X498464Y282033D01*
X503463Y292030D02*
X502463Y290031D01*
X500464Y288032D01*
X498464D01*
X497465Y289031D01*
Y291031D01*
X498464Y292030D01*
X499464D01*
X500464Y291031D01*
Y288032D01*
X496895Y309812D02*
X492959D01*
Y307844D01*
X493615Y307188D01*
X494927D01*
X495583Y307844D01*
Y309812D01*
Y308500D02*
X496895Y307188D01*
X493615Y305876D02*
X492959Y305220D01*
Y303908D01*
X493615Y303252D01*
X494271D01*
X494927Y303908D01*
Y304564D01*
Y303908D01*
X495583Y303252D01*
X496239D01*
X496895Y303908D01*
Y305220D01*
X496239Y305876D01*
X493615Y301940D02*
X492959Y301284D01*
Y299972D01*
X493615Y299316D01*
X496239D01*
X496895Y299972D01*
Y301284D01*
X496239Y301940D01*
X493615D01*
X478412Y267259D02*
X482348D01*
Y269227D01*
X481692Y269883D01*
X480380D01*
X479724Y269227D01*
Y267259D01*
Y268571D02*
X478412Y269883D01*
Y273819D02*
Y271195D01*
X481036Y273819D01*
X481692D01*
X482348Y273163D01*
Y271851D01*
X481692Y271195D01*
X482348Y277754D02*
X481692Y276443D01*
X480380Y275131D01*
X479068D01*
X478412Y275787D01*
Y277098D01*
X479068Y277754D01*
X479724D01*
X480380Y277098D01*
Y275131D01*
X475446Y302088D02*
X474790Y301432D01*
X473478D01*
X472822Y302088D01*
Y304712D01*
X473478Y305367D01*
X474790D01*
X475446Y304712D01*
X479382Y305367D02*
X476758D01*
X479382Y302744D01*
Y302088D01*
X478726Y301432D01*
X477414D01*
X476758Y302088D01*
X482662Y305367D02*
Y301432D01*
X480694Y303400D01*
X483318D01*
X281528Y293244D02*
X285464D01*
Y295212D01*
X284808Y295868D01*
X283496D01*
X282840Y295212D01*
Y293244D01*
Y294556D02*
X281528Y295868D01*
X285464Y299804D02*
Y297180D01*
X283496D01*
X284152Y298492D01*
Y299148D01*
X283496Y299804D01*
X282184D01*
X281528Y299148D01*
Y297836D01*
X282184Y297180D01*
X454932Y287724D02*
X450996D01*
Y285756D01*
X451652Y285101D01*
X452964D01*
X453620Y285756D01*
Y287724D01*
Y286413D02*
X454932Y285101D01*
Y281165D02*
Y283789D01*
X452308Y281165D01*
X451652D01*
X450996Y281821D01*
Y283133D01*
X451652Y283789D01*
X454932Y277229D02*
Y279853D01*
X452308Y277229D01*
X451652D01*
X450996Y277885D01*
Y279197D01*
X451652Y279853D01*
X446118Y276356D02*
X445463Y275700D01*
X444151D01*
X443495Y276356D01*
Y278979D01*
X444151Y279635D01*
X445463D01*
X446118Y278979D01*
X450054Y279635D02*
X447430D01*
X450054Y277012D01*
Y276356D01*
X449398Y275700D01*
X448086D01*
X447430Y276356D01*
X451366Y279635D02*
X452678D01*
X452022D01*
Y275700D01*
X451366Y276356D01*
X461462Y309812D02*
X457526D01*
Y307844D01*
X458182Y307188D01*
X459494D01*
X460150Y307844D01*
Y309812D01*
Y308500D02*
X461462Y307188D01*
Y303252D02*
Y305876D01*
X458838Y303252D01*
X458182D01*
X457526Y303908D01*
Y305220D01*
X458182Y305876D01*
Y301940D02*
X457526Y301284D01*
Y299972D01*
X458182Y299316D01*
X458838D01*
X459494Y299972D01*
X460150Y299316D01*
X460806D01*
X461462Y299972D01*
Y301284D01*
X460806Y301940D01*
X460150D01*
X459494Y301284D01*
X458838Y301940D01*
X458182D01*
X459494Y301284D02*
Y299972D01*
X427231Y267259D02*
X431167D01*
Y269227D01*
X430511Y269883D01*
X429199D01*
X428543Y269227D01*
Y267259D01*
Y268571D02*
X427231Y269883D01*
Y273819D02*
Y271195D01*
X429855Y273819D01*
X430511D01*
X431167Y273163D01*
Y271851D01*
X430511Y271195D01*
X427231Y277098D02*
X431167D01*
X429199Y275131D01*
Y277754D01*
X530702Y361371D02*
X530046Y360715D01*
Y359403D01*
X530702Y358747D01*
X533326D01*
X533982Y359403D01*
Y360715D01*
X533326Y361371D01*
X530046Y365307D02*
X530702Y363995D01*
X532014Y362683D01*
X533326D01*
X533982Y363339D01*
Y364651D01*
X533326Y365307D01*
X532670D01*
X532014Y364651D01*
Y362683D01*
X347808Y242659D02*
Y238723D01*
X345840D01*
X345184Y239379D01*
Y240691D01*
X345840Y241347D01*
X347808D01*
X346496D02*
X345184Y242659D01*
X343872D02*
X342560D01*
X343216D01*
Y238723D01*
X343872Y239379D01*
X340593Y242003D02*
X339936Y242659D01*
X338625D01*
X337969Y242003D01*
Y239379D01*
X338625Y238723D01*
X339936D01*
X340593Y239379D01*
Y240035D01*
X339936Y240691D01*
X337969D01*
X346921Y238354D02*
Y242290D01*
X348889D01*
X349545Y241634D01*
Y240322D01*
X348889Y239666D01*
X346921D01*
X348233D02*
X349545Y238354D01*
X350857D02*
X352169D01*
X351513D01*
Y242290D01*
X350857Y241634D01*
X354137D02*
X354793Y242290D01*
X356105D01*
X356761Y241634D01*
Y240978D01*
X356105Y240322D01*
X356761Y239666D01*
Y239010D01*
X356105Y238354D01*
X354793D01*
X354137Y239010D01*
Y239666D01*
X354793Y240322D01*
X354137Y240978D01*
Y241634D01*
X354793Y240322D02*
X356105D01*
X345856Y228724D02*
X341920D01*
Y230692D01*
X342576Y231348D01*
X343888D01*
X344544Y230692D01*
Y228724D01*
Y230036D02*
X345856Y231348D01*
Y232660D02*
Y233971D01*
Y233315D01*
X341920D01*
X342576Y232660D01*
X341920Y238563D02*
X342576Y237251D01*
X343888Y235939D01*
X345200D01*
X345856Y236595D01*
Y237907D01*
X345200Y238563D01*
X344544D01*
X343888Y237907D01*
Y235939D01*
X337982Y228724D02*
X334046D01*
Y230692D01*
X334702Y231348D01*
X336014D01*
X336670Y230692D01*
Y228724D01*
Y230036D02*
X337982Y231348D01*
Y232660D02*
Y233972D01*
Y233315D01*
X334046D01*
X334702Y232660D01*
Y235939D02*
X334046Y236595D01*
Y237907D01*
X334702Y238563D01*
X335358D01*
X336014Y237907D01*
Y237251D01*
Y237907D01*
X336670Y238563D01*
X337326D01*
X337982Y237907D01*
Y236595D01*
X337326Y235939D01*
X367262Y229807D02*
X366606Y230463D01*
X365294D01*
X364638Y229807D01*
Y227184D01*
X365294Y226528D01*
X366606D01*
X367262Y227184D01*
X368574Y226528D02*
X369886D01*
X369230D01*
Y230463D01*
X368574Y229807D01*
X371853D02*
X372510Y230463D01*
X373821D01*
X374477Y229807D01*
Y229152D01*
X373821Y228496D01*
X374477Y227840D01*
Y227184D01*
X373821Y226528D01*
X372510D01*
X371853Y227184D01*
Y227840D01*
X372510Y228496D01*
X371853Y229152D01*
Y229807D01*
X372510Y228496D02*
X373821D01*
X513503Y325936D02*
X514159Y326592D01*
Y327904D01*
X513503Y328560D01*
X510879D01*
X510223Y327904D01*
Y326592D01*
X510879Y325936D01*
X510223Y322000D02*
Y324624D01*
X512847Y322000D01*
X513503D01*
X514159Y322656D01*
Y323968D01*
X513503Y324624D01*
Y320688D02*
X514159Y320032D01*
Y318720D01*
X513503Y318064D01*
X512847D01*
X512191Y318720D01*
Y319376D01*
Y318720D01*
X511535Y318064D01*
X510879D01*
X510223Y318720D01*
Y320032D01*
X510879Y320688D01*
X408313Y249543D02*
X404377D01*
Y251511D01*
X405033Y252167D01*
X406345D01*
X407001Y251511D01*
Y249543D01*
Y250855D02*
X408313Y252167D01*
Y253478D02*
Y254790D01*
Y254134D01*
X404377D01*
X405033Y253478D01*
X408313Y258726D02*
X404377D01*
X406345Y256758D01*
Y259382D01*
X386122Y238428D02*
Y242364D01*
X388090D01*
X388746Y241708D01*
Y240396D01*
X388090Y239740D01*
X386122D01*
X387434D02*
X388746Y238428D01*
X390057D02*
X391369D01*
X390714D01*
Y242364D01*
X390057Y241708D01*
X395961Y242364D02*
X393337D01*
Y240396D01*
X394649Y241052D01*
X395305D01*
X395961Y240396D01*
Y239084D01*
X395305Y238428D01*
X393993D01*
X393337Y239084D01*
X376687Y259708D02*
X376031Y260364D01*
X374719D01*
X374063Y259708D01*
Y257084D01*
X374719Y256428D01*
X376031D01*
X376687Y257084D01*
X380622Y256428D02*
X377998D01*
X380622Y259052D01*
Y259708D01*
X379966Y260364D01*
X378654D01*
X377998Y259708D01*
X381934D02*
X382590Y260364D01*
X383902D01*
X384558Y259708D01*
Y257084D01*
X383902Y256428D01*
X382590D01*
X381934Y257084D01*
Y259708D01*
X424061Y249543D02*
X420125D01*
Y251511D01*
X420781Y252167D01*
X422093D01*
X422749Y251511D01*
Y249543D01*
Y250855D02*
X424061Y252167D01*
Y256102D02*
Y253478D01*
X421437Y256102D01*
X420781D01*
X420125Y255446D01*
Y254134D01*
X420781Y253478D01*
Y257414D02*
X420125Y258070D01*
Y259382D01*
X420781Y260038D01*
X423405D01*
X424061Y259382D01*
Y258070D01*
X423405Y257414D01*
X420781D01*
X416187Y249543D02*
X412251D01*
Y251511D01*
X412907Y252167D01*
X414219D01*
X414875Y251511D01*
Y249543D01*
Y250855D02*
X416187Y252167D01*
Y253478D02*
Y254790D01*
Y254134D01*
X412251D01*
X412907Y253478D01*
X412251Y256758D02*
Y259382D01*
X412907D01*
X415531Y256758D01*
X416187D01*
X386122Y229570D02*
Y233505D01*
X388090D01*
X388746Y232849D01*
Y231537D01*
X388090Y230882D01*
X386122D01*
X387434D02*
X388746Y229570D01*
X392681D02*
X390058D01*
X392681Y232193D01*
Y232849D01*
X392025Y233505D01*
X390714D01*
X390058Y232849D01*
X393993Y229570D02*
X395305D01*
X394649D01*
Y233505D01*
X393993Y232849D01*
X551646Y403677D02*
X555582D01*
Y401709D01*
X554926Y401053D01*
X553614D01*
X552958Y401709D01*
Y403677D01*
Y402365D02*
X551646Y401053D01*
Y397118D02*
Y399741D01*
X554270Y397118D01*
X554926D01*
X555582Y397774D01*
Y399085D01*
X554926Y399741D01*
X434284Y355874D02*
X438219D01*
Y353906D01*
X437564Y353250D01*
X436252D01*
X435596Y353906D01*
Y355874D01*
Y354562D02*
X434284Y353250D01*
Y349970D02*
X438219D01*
X436252Y351938D01*
Y349314D01*
X448542Y351526D02*
X449198Y352182D01*
Y353494D01*
X448542Y354150D01*
X445918D01*
X445262Y353494D01*
Y352182D01*
X445918Y351526D01*
Y350214D02*
X445262Y349558D01*
Y348247D01*
X445918Y347591D01*
X448542D01*
X449198Y348247D01*
Y349558D01*
X448542Y350214D01*
X447886D01*
X447230Y349558D01*
Y347591D01*
X313425Y348559D02*
Y344623D01*
X311457D01*
X310802Y345279D01*
Y346591D01*
X311457Y347247D01*
X313425D01*
X312113D02*
X310802Y348559D01*
X309490Y347903D02*
X308834Y348559D01*
X307522D01*
X306866Y347903D01*
Y345279D01*
X307522Y344623D01*
X308834D01*
X309490Y345279D01*
Y345935D01*
X308834Y346591D01*
X306866D01*
X260866Y330638D02*
Y334574D01*
X262834D01*
X263490Y333918D01*
Y332606D01*
X262834Y331950D01*
X260866D01*
X262178D02*
X263490Y330638D01*
X264802Y333918D02*
X265458Y334574D01*
X266770D01*
X267426Y333918D01*
Y333262D01*
X266770Y332606D01*
X267426Y331950D01*
Y331294D01*
X266770Y330638D01*
X265458D01*
X264802Y331294D01*
Y331950D01*
X265458Y332606D01*
X264802Y333262D01*
Y333918D01*
X265458Y332606D02*
X266770D01*
X232349Y300658D02*
X236285D01*
Y298690D01*
X235629Y298034D01*
X234317D01*
X233661Y298690D01*
Y300658D01*
Y299346D02*
X232349Y298034D01*
Y296722D02*
Y295410D01*
Y296066D01*
X236285D01*
X235629Y296722D01*
Y293443D02*
X236285Y292787D01*
Y291475D01*
X235629Y290819D01*
X233005D01*
X232349Y291475D01*
Y292787D01*
X233005Y293443D01*
X235629D01*
X266580Y258106D02*
X262645D01*
Y260074D01*
X263301Y260730D01*
X264613D01*
X265268Y260074D01*
Y258106D01*
Y259418D02*
X266580Y260730D01*
X262645Y264665D02*
X263301Y263353D01*
X264613Y262041D01*
X265924D01*
X266580Y262698D01*
Y264009D01*
X265924Y264665D01*
X265268D01*
X264613Y264009D01*
Y262041D01*
X253143Y258025D02*
X252487Y257369D01*
Y256057D01*
X253143Y255401D01*
X255767D01*
X256423Y256057D01*
Y257369D01*
X255767Y258025D01*
X256423Y259337D02*
Y260649D01*
Y259993D01*
X252487D01*
X253143Y259337D01*
X252487Y265240D02*
X253143Y263929D01*
X254455Y262617D01*
X255767D01*
X256423Y263273D01*
Y264584D01*
X255767Y265240D01*
X255111D01*
X254455Y264584D01*
Y262617D01*
D124*
X203953Y277858D02*
X203689Y278843D01*
X202969Y279563D01*
X201985Y279827D01*
X201000Y279563D01*
X200280Y278843D01*
X200016Y277858D01*
X200280Y276874D01*
X201000Y276154D01*
X201985Y275890D01*
X202969Y276154D01*
X203689Y276874D01*
X203953Y277858D01*
X286148Y285849D02*
X285885Y286833D01*
X285164Y287554D01*
X284180Y287817D01*
X283196Y287554D01*
X282475Y286833D01*
X282211Y285849D01*
X282475Y284865D01*
X283196Y284144D01*
X284180Y283880D01*
X285164Y284144D01*
X285885Y284865D01*
X286148Y285849D01*
X277418Y233024D02*
X282536Y227906D01*
X277418Y233024D02*
Y254677D01*
X304189D01*
Y233024D02*
Y254677D01*
X299071Y227906D02*
X304189Y233024D01*
X282536Y227906D02*
X299071D01*
X320472Y258465D02*
Y265158D01*
X333071Y258465D02*
Y265158D01*
X320472D02*
X333071D01*
X320472Y258465D02*
X333071D01*
X547835Y385433D02*
X554528D01*
X547835Y398031D02*
X554528D01*
X547835Y385433D02*
Y398031D01*
X554528Y385433D02*
Y398031D01*
X516112Y344609D02*
X522805D01*
X516112Y357208D02*
X522805D01*
X516112Y344609D02*
Y357208D01*
X522805Y344609D02*
Y357208D01*
X213287Y371850D02*
Y380118D01*
X207972Y371850D02*
Y380118D01*
Y371850D02*
X213287D01*
X207972Y380118D02*
X213287D01*
X170725Y367276D02*
X217969D01*
Y414520D01*
X170725Y367276D02*
Y414520D01*
X217969D01*
X267071Y355410D02*
X306441D01*
X267071Y390843D02*
X306441D01*
Y355410D02*
Y390843D01*
X267071Y355410D02*
Y390843D01*
X172063Y281402D02*
X205528D01*
X172063Y255811D02*
X205528D01*
Y281402D01*
X172063Y255811D02*
Y281402D01*
X280637Y269707D02*
Y289392D01*
X296385Y269707D02*
Y289392D01*
X280637D02*
X296385D01*
X280637Y269707D02*
X296385D01*
X350356Y226622D02*
Y232330D01*
X341694Y226622D02*
Y232330D01*
X350356D01*
X341694Y226622D02*
X350356D01*
X354361Y238594D02*
X372471D01*
X354361Y250090D02*
X372471D01*
X354361Y238594D02*
Y250090D01*
X372471Y238594D02*
Y250090D01*
X451126Y410291D02*
X486559D01*
X451126Y370921D02*
X486559D01*
Y410291D01*
X451126Y370921D02*
Y410291D01*
X395008Y334662D02*
X406504D01*
X395008Y316551D02*
X406504D01*
X395008D02*
Y334662D01*
X406504Y316551D02*
Y334662D01*
X396221Y381410D02*
X407717D01*
X396221Y363299D02*
X407717D01*
X396221D02*
Y381410D01*
X407717Y363299D02*
Y381410D01*
X383717Y341291D02*
X397103D01*
X383717Y348378D02*
X397103D01*
X383717Y341291D02*
Y348378D01*
X397103Y341291D02*
Y348378D01*
X385292Y390110D02*
X398677D01*
X385292Y397197D02*
X398677D01*
X385292Y390110D02*
Y397197D01*
X398677Y390110D02*
Y397197D01*
X451126Y320032D02*
Y359402D01*
X486559Y320032D02*
Y359402D01*
X451126Y320032D02*
X486559D01*
X451126Y359402D02*
X486559D01*
X338760Y347362D02*
Y371850D01*
X366752Y347362D02*
Y371850D01*
X338760Y347362D02*
X366752D01*
X338760Y371850D02*
X366752D01*
X380221Y381284D02*
X391717D01*
X380221Y363173D02*
X391717D01*
X380221D02*
Y381284D01*
X391717Y363173D02*
Y381284D01*
X366099Y394539D02*
X372989D01*
X366099Y381744D02*
X372989D01*
X366099D02*
Y394539D01*
X372989Y381744D02*
Y394539D01*
X347890Y388535D02*
X361276D01*
X347890Y395622D02*
X361276D01*
X347890Y388535D02*
Y395622D01*
X361276Y388535D02*
Y395622D01*
X331811Y270709D02*
X338701D01*
X331811Y283504D02*
X338701D01*
Y270709D02*
Y283504D01*
X331811Y270709D02*
Y283504D01*
X343532Y390256D02*
Y408957D01*
X327981Y390256D02*
Y408957D01*
Y390256D02*
X343532D01*
X327981Y408957D02*
X343532D01*
X338760Y343850D02*
X366752D01*
X338760Y319362D02*
X366752D01*
Y343850D01*
X338760Y319362D02*
Y343850D01*
X360587Y378398D02*
Y385287D01*
X347792Y378398D02*
Y385287D01*
X360587D01*
X347792Y378398D02*
X360587D01*
X379008Y334662D02*
X390504D01*
X379008Y316551D02*
X390504D01*
X379008D02*
Y334662D01*
X390504Y316551D02*
Y334662D01*
X355575Y279358D02*
X373685D01*
X355575Y290854D02*
X373685D01*
X355575Y279358D02*
Y290854D01*
X373685Y279358D02*
Y290854D01*
X486866Y296803D02*
X500252D01*
X486866Y303890D02*
X500252D01*
X486866Y296803D02*
Y303890D01*
X500252Y296803D02*
Y303890D01*
X496610Y284205D02*
X502319D01*
X496610Y292866D02*
X502319D01*
Y284205D02*
Y292866D01*
X496610Y284205D02*
Y292866D01*
X481059Y292768D02*
X486374D01*
X481059Y284303D02*
X486374D01*
X481059D02*
Y292768D01*
X486374Y284303D02*
Y292768D01*
X488933Y284303D02*
X494248D01*
X488933Y292768D02*
X494248D01*
Y284303D02*
Y292768D01*
X488933Y284303D02*
Y292768D01*
X486768Y307335D02*
Y313043D01*
X495429Y307335D02*
Y313043D01*
X486768Y307335D02*
X495429D01*
X486768Y313043D02*
X495429D01*
X553599Y273772D02*
Y322984D01*
X504386Y273772D02*
Y322984D01*
Y273772D02*
X553599D01*
X504386Y322984D02*
X553599D01*
X292083Y312846D02*
X298973D01*
X292083Y325642D02*
X298973D01*
Y312846D02*
Y325642D01*
X292083Y312846D02*
Y325642D01*
X264004Y300614D02*
Y326599D01*
X277508Y300614D02*
Y326599D01*
X264004D02*
X277508D01*
X264004Y300614D02*
X277508D01*
X459799Y274067D02*
Y279382D01*
X468264Y274067D02*
Y279382D01*
X459799Y274067D02*
X468264D01*
X459799Y279382D02*
X468264D01*
X457240Y284205D02*
X462949D01*
X457240Y292866D02*
X462949D01*
Y284205D02*
Y292866D01*
X457240Y284205D02*
Y292866D01*
X445626Y292768D02*
X450941D01*
X445626Y284303D02*
X450941D01*
X445626D02*
Y292768D01*
X450941Y284303D02*
Y292768D01*
X437752Y284303D02*
X443067D01*
X437752Y292768D02*
X443067D01*
Y284303D02*
Y292768D01*
X437752Y284303D02*
Y292768D01*
X465902Y291980D02*
X477910D01*
X465902Y285090D02*
X477910D01*
X465902D02*
Y291980D01*
X477910Y285090D02*
Y291980D01*
X537260Y376331D02*
X544347D01*
X537260Y389717D02*
X544347D01*
X537260Y376331D02*
Y389717D01*
X544347Y376331D02*
Y389717D01*
X504386Y275642D02*
X508225Y271803D01*
X504386Y275642D02*
Y293457D01*
X526040D01*
Y275642D02*
Y293457D01*
X522201Y271803D02*
X526040Y275642D01*
X508225Y271803D02*
X522201D01*
X390567Y224953D02*
Y236921D01*
X396079Y224953D02*
Y236921D01*
X390567D02*
X396079D01*
X390567Y224953D02*
X396079D01*
X252024Y227906D02*
X268559D01*
X273677Y233024D01*
Y254677D01*
X246906D02*
X273677D01*
X246906Y233024D02*
Y254677D01*
Y233024D02*
X252024Y227906D01*
X447398Y411567D02*
X451236Y407728D01*
Y389913D02*
Y407728D01*
X429583Y389913D02*
X451236D01*
X429583D02*
Y407728D01*
X433421Y411567D01*
X447398D01*
X322300Y232138D02*
X330764D01*
X322300Y226823D02*
X330764D01*
X322300D02*
Y232138D01*
X330764Y226823D02*
Y232138D01*
X342181Y226823D02*
X350646D01*
X342181Y232138D02*
X350646D01*
Y226823D02*
Y232138D01*
X342181Y226823D02*
Y232138D01*
X335335Y245768D02*
Y254232D01*
X330020Y245768D02*
Y254232D01*
X335335D01*
X330020Y245768D02*
X335335D01*
X327461D02*
Y254232D01*
X322146Y245768D02*
Y254232D01*
X327461D01*
X322146Y245768D02*
X327461D01*
X356847Y226626D02*
X365508D01*
X356847Y232335D02*
X365508D01*
Y226626D02*
Y232335D01*
X356847Y226626D02*
Y232335D01*
X347890Y263142D02*
X375449D01*
X347890Y243063D02*
X375449D01*
X347890D02*
Y263142D01*
X375449Y243063D02*
Y263142D01*
X465508Y303299D02*
X486177D01*
X459110Y296901D02*
X465508Y303299D01*
X459110Y269835D02*
Y296901D01*
Y269835D02*
X492575D01*
Y296901D01*
X486177Y303299D02*
X492575Y296901D01*
X499858Y297590D02*
Y310976D01*
X506945Y297590D02*
Y310976D01*
X499858Y297590D02*
X506945D01*
X499858Y310976D02*
X506945D01*
X397792Y266587D02*
Y275051D01*
X392477Y266587D02*
Y275051D01*
X397792D01*
X392477Y266587D02*
X397792D01*
X429583Y274264D02*
X433421Y270425D01*
X429583Y274264D02*
Y292079D01*
X451236D01*
Y274264D02*
Y292079D01*
X447398Y270425D02*
X451236Y274264D01*
X433421Y270425D02*
X447398D01*
X403166Y248949D02*
X411630D01*
X403166Y254264D02*
X411630D01*
Y248949D02*
Y254264D01*
X403166Y248949D02*
Y254264D01*
X388008Y248752D02*
X396670D01*
X388008Y254461D02*
X396670D01*
Y248752D02*
Y254461D01*
X388008Y248752D02*
Y254461D01*
X413540Y266587D02*
Y275051D01*
X408225Y266587D02*
Y275051D01*
X413540D01*
X408225Y266587D02*
X413540D01*
X405665D02*
Y275051D01*
X400351Y266587D02*
Y275051D01*
X405665D01*
X400351Y266587D02*
X405665D01*
X403166Y240091D02*
X411630D01*
X403166Y245406D02*
X411630D01*
Y240091D02*
Y245406D01*
X403166Y240091D02*
Y245406D01*
X459110Y382728D02*
X465508Y376331D01*
X459110Y382728D02*
Y409795D01*
X492575D01*
Y382728D02*
Y409795D01*
X486177Y376331D02*
X492575Y382728D01*
X465508Y376331D02*
X486177D01*
X537358Y398280D02*
Y411075D01*
X544248Y398280D02*
Y411075D01*
X537358Y398280D02*
X544248D01*
X537358Y411075D02*
X544248D01*
X498481Y382531D02*
X504878Y376134D01*
X498481Y382531D02*
Y409598D01*
X531945D01*
Y382531D02*
Y409598D01*
X525547Y376134D02*
X531945Y382531D01*
X504878Y376134D02*
X525547D01*
X459110Y331547D02*
X465508Y325150D01*
X459110Y331547D02*
Y358614D01*
X492575D01*
Y331547D02*
Y358614D01*
X486177Y325150D02*
X492575Y331547D01*
X465508Y325150D02*
X486177D01*
X444839Y323476D02*
Y336272D01*
X451728Y323476D02*
Y336272D01*
X444839Y323476D02*
X451728D01*
X444839Y336272D02*
X451728D01*
X434898Y336567D02*
X441984D01*
X434898Y323181D02*
X441984D01*
Y336567D01*
X434898Y323181D02*
Y336567D01*
X280469Y338240D02*
X293264D01*
X280469Y331350D02*
X293264D01*
X280469D02*
Y338240D01*
X293264Y331350D02*
Y338240D01*
X280469Y341193D02*
X293264D01*
X280469Y348083D02*
X293264D01*
Y341193D02*
Y348083D01*
X280469Y341193D02*
Y348083D01*
X242870Y275150D02*
Y283614D01*
X248185Y275150D02*
Y283614D01*
X242870Y275150D02*
X248185D01*
X242870Y283614D02*
X248185D01*
X256059Y275150D02*
Y283614D01*
X250744Y275150D02*
Y283614D01*
X256059D01*
X250744Y275150D02*
X256059D01*
X259701Y272984D02*
X266788D01*
X259701Y286370D02*
X266788D01*
X259701Y272984D02*
Y286370D01*
X266788Y272984D02*
Y286370D01*
D125*
X355579Y244342D02*
D03*
D126*
X400756Y317769D02*
D03*
X401970Y364518D02*
D03*
X385969Y364391D02*
D03*
X384756Y317769D02*
D03*
D127*
X335757Y391514D02*
D03*
D128*
X356795Y285106D02*
D03*
M02*
