G04*
G04 #@! TF.GenerationSoftware,Altium Limited,Altium Designer,20.2.6 (244)*
G04*
G04 Layer_Color=32768*
%FSLAX24Y24*%
%MOIN*%
G70*
G04*
G04 #@! TF.SameCoordinates,31C55898-3F01-4FA6-8909-C42763FC29AA*
G04*
G04*
G04 #@! TF.FilePolarity,Positive*
G04*
G01*
G75*
%ADD106C,0.0039*%
%ADD111C,0.0020*%
D106*
X33268Y-11417D02*
X33661D01*
X33465Y-11614D02*
Y-11220D01*
X29300Y-2982D02*
Y-2588D01*
X29103Y-2785D02*
X29497D01*
X29103Y-7874D02*
X29497D01*
X29300Y-8071D02*
Y-7677D01*
X18203Y-5885D02*
X18597D01*
X18400Y-6082D02*
Y-5688D01*
X28937Y-12992D02*
X29331D01*
X29134Y-13189D02*
Y-12795D01*
X32234Y-11024D02*
Y-10630D01*
X32037Y-10827D02*
X32431D01*
X32283Y-11811D02*
X32677D01*
X32480Y-12008D02*
Y-11614D01*
X29528Y-14370D02*
Y-13976D01*
X29331Y-14173D02*
X29724D01*
X30709Y-13386D02*
Y-12992D01*
X30512Y-13189D02*
X30906D01*
X30118Y-12992D02*
X30512D01*
X30315Y-13189D02*
Y-12795D01*
X37205Y-3740D02*
Y-3346D01*
X37008Y-3543D02*
X37402D01*
X37008Y-1378D02*
X37402D01*
X37205Y-1575D02*
Y-1181D01*
X26969Y-9055D02*
Y-8661D01*
X26772Y-8858D02*
X27165D01*
X27756D02*
X28150D01*
X27953Y-9055D02*
Y-8661D01*
X34449Y-13583D02*
X34843D01*
X34646Y-13780D02*
Y-13386D01*
X11779Y-13891D02*
X12172D01*
X11975Y-14088D02*
Y-13694D01*
X11800Y-5439D02*
Y-5045D01*
X11603Y-5242D02*
X11997D01*
X18583Y-2835D02*
Y-2441D01*
X18386Y-2638D02*
X18780D01*
X18346Y-3661D02*
X18740D01*
X18543Y-3858D02*
Y-3465D01*
X17520Y-18898D02*
X17913D01*
X17717Y-19094D02*
Y-18701D01*
X16503Y-1885D02*
X16897D01*
X16700Y-2082D02*
Y-1688D01*
X18400Y-8882D02*
Y-8488D01*
X18203Y-8685D02*
X18597D01*
X19600Y-14982D02*
Y-14588D01*
X19403Y-14785D02*
X19797D01*
X19587Y-13532D02*
Y-13138D01*
X19391Y-13335D02*
X19784D01*
X20079Y-3228D02*
Y-2835D01*
X19882Y-3031D02*
X20276D01*
X12677Y-10118D02*
Y-9724D01*
X12480Y-9921D02*
X12874D01*
X10200Y-10682D02*
Y-10288D01*
X10003Y-10485D02*
X10397D01*
X16650Y-14332D02*
Y-13938D01*
X16453Y-14135D02*
X16847D01*
X27165Y-13189D02*
Y-12795D01*
X26969Y-12992D02*
X27362D01*
X32283Y-13189D02*
Y-12795D01*
X32087Y-12992D02*
X32480D01*
X27953Y-13189D02*
Y-12795D01*
X27756Y-12992D02*
X28150D01*
X31496Y-13189D02*
Y-12795D01*
X31299Y-12992D02*
X31693D01*
X22323Y-2677D02*
Y-2283D01*
X22126Y-2480D02*
X22520D01*
X22165Y-7559D02*
Y-7165D01*
X21969Y-7362D02*
X22362D01*
X21721Y-4820D02*
Y-4426D01*
X21524Y-4623D02*
X21918D01*
X23321Y-4807D02*
Y-4413D01*
X23124Y-4610D02*
X23518D01*
X23200Y-9482D02*
Y-9088D01*
X23003Y-9285D02*
X23397D01*
X21600Y-9482D02*
Y-9088D01*
X21403Y-9285D02*
X21797D01*
X35827Y-12008D02*
X36220D01*
X36024Y-12205D02*
Y-11811D01*
X38583Y-14764D02*
Y-9252D01*
X33465Y-14764D02*
Y-9252D01*
Y-14764D02*
X38583D01*
X33465Y-9252D02*
X38583D01*
X32874Y-12992D02*
X33268D01*
X33071Y-13189D02*
Y-12795D01*
X11614Y-7382D02*
X12008D01*
X11811Y-7579D02*
Y-7185D01*
X11614Y-8366D02*
X12008D01*
X11811Y-8563D02*
Y-8169D01*
X7677Y-14104D02*
Y-13711D01*
X7480Y-13907D02*
X7874D01*
X23667Y-16685D02*
X24061D01*
X23864Y-16882D02*
Y-16488D01*
X15581Y-18898D02*
X15974D01*
X15778Y-19094D02*
Y-18701D01*
X24213Y-14961D02*
Y-14567D01*
X24016Y-14764D02*
X24409D01*
X23667Y-17571D02*
X24061D01*
X23864Y-17768D02*
Y-17374D01*
X9154Y-17913D02*
Y-17520D01*
X8957Y-17717D02*
X9350D01*
X12205Y-17913D02*
Y-17520D01*
X12008Y-17717D02*
X12402D01*
X2362Y-2756D02*
X2756D01*
X2559Y-2953D02*
Y-2559D01*
X17569Y-18898D02*
X17963D01*
X17766Y-19094D02*
Y-18701D01*
X19291Y-16732D02*
Y-16339D01*
X19095Y-16535D02*
X19488D01*
X22457Y-18949D02*
Y-18555D01*
X22260Y-18752D02*
X22654D01*
X2004Y-15182D02*
Y-14788D01*
X1807Y-14985D02*
X2201D01*
X26969Y-13720D02*
X27362D01*
X27165Y-13917D02*
Y-13524D01*
X9252Y-13878D02*
X9646D01*
X9449Y-14075D02*
Y-13681D01*
X8465Y-14104D02*
Y-13711D01*
X8268Y-13907D02*
X8661D01*
X15581Y-18110D02*
X15974D01*
X15778Y-18307D02*
Y-17913D01*
X22638Y-14961D02*
Y-14567D01*
X22441Y-14764D02*
X22835D01*
X15581Y-17323D02*
X15974D01*
X15778Y-17520D02*
Y-17126D01*
X23425Y-14961D02*
Y-14567D01*
X23228Y-14764D02*
X23622D01*
X19045Y-18898D02*
X19439D01*
X19242Y-19094D02*
Y-18701D01*
X22161Y-16685D02*
X22555D01*
X22358Y-16882D02*
Y-16488D01*
X30512Y-2539D02*
X30906D01*
X30709Y-2736D02*
Y-2343D01*
X34449Y-2559D02*
X34843D01*
X34646Y-2756D02*
Y-2362D01*
X30512Y-7657D02*
X30906D01*
X30709Y-7854D02*
Y-7461D01*
X26969Y-1772D02*
X27362D01*
X27165Y-1969D02*
Y-1575D01*
D111*
X32992Y-12343D02*
Y-10492D01*
X33937Y-12343D02*
Y-10492D01*
X32992Y-12343D02*
X33937D01*
X32992Y-10492D02*
X33937D01*
X25944Y-679D02*
X32656D01*
X25944Y-4891D02*
X32656D01*
Y-679D01*
X25944Y-4891D02*
Y-679D01*
Y-9980D02*
Y-5768D01*
X32656Y-9980D02*
Y-5768D01*
X25944Y-9980D02*
X32656D01*
X25944Y-5768D02*
X32656D01*
X16760Y-7165D02*
Y-4606D01*
X20040Y-7165D02*
Y-4606D01*
X16760Y-7165D02*
X20040D01*
X16760Y-4606D02*
X20040D01*
X28740Y-13681D02*
Y-12303D01*
X29528Y-13681D02*
Y-12303D01*
X28740D02*
X29528D01*
X28740Y-13681D02*
X29528D01*
X31545Y-10433D02*
X32923D01*
X31545Y-11220D02*
X32923D01*
Y-10433D01*
X31545Y-11220D02*
Y-10433D01*
X33406Y-12283D02*
Y-11339D01*
X31555Y-12283D02*
Y-11339D01*
X33406D01*
X31555Y-12283D02*
X33406D01*
X28858Y-13799D02*
X30197D01*
X28858Y-14547D02*
X30197D01*
Y-13799D01*
X28858Y-14547D02*
Y-13799D01*
X28937Y-10906D02*
X32480D01*
X28937Y-15472D02*
X32480D01*
Y-10906D01*
X28937Y-15472D02*
Y-10906D01*
X31024Y-13829D02*
Y-12156D01*
X29606Y-13829D02*
Y-12156D01*
Y-13829D02*
X31024D01*
X29606Y-12156D02*
X31024D01*
X36732Y-4469D02*
X37677D01*
X36732Y-2618D02*
X37677D01*
X36732Y-4469D02*
Y-2618D01*
X37677Y-4469D02*
Y-2618D01*
X36752Y-2264D02*
Y-492D01*
X37657Y-2264D02*
Y-492D01*
X36752Y-2264D02*
X37657D01*
X36752Y-492D02*
X37657D01*
X26496Y-7933D02*
X27441D01*
X26496Y-9783D02*
X27441D01*
Y-7933D01*
X26496Y-9783D02*
Y-7933D01*
X27500Y-9744D02*
Y-7972D01*
X28406Y-9744D02*
Y-7972D01*
X27500Y-9744D02*
X28406D01*
X27500Y-7972D02*
X28406D01*
X35827Y-15079D02*
Y-12087D01*
X33465Y-15079D02*
Y-12087D01*
X35827D01*
X33465Y-15079D02*
X35827D01*
X10519Y-14973D02*
Y-12808D01*
X13432Y-14973D02*
Y-12808D01*
X10519D02*
X13432D01*
X10519Y-14973D02*
X13432D01*
X9694Y-8598D02*
X13906D01*
X9694Y-1885D02*
X13906D01*
Y-8598D02*
Y-1885D01*
X9694Y-8598D02*
Y-1885D01*
X17657Y-3110D02*
X19508D01*
X17657Y-2165D02*
X19508D01*
X17657Y-3110D02*
Y-2165D01*
X19508Y-3110D02*
Y-2165D01*
X19429Y-4114D02*
Y-3209D01*
X17658Y-4114D02*
Y-3209D01*
X19429D01*
X17658Y-4114D02*
X19429D01*
X18406Y-19291D02*
Y-18504D01*
X17028Y-19291D02*
Y-18504D01*
X18406D01*
X17028Y-19291D02*
X18406D01*
X17527Y-3342D02*
Y-428D01*
X15873Y-3342D02*
Y-428D01*
Y-3342D02*
X17527D01*
X15873Y-428D02*
X17527D01*
X16760Y-7405D02*
X20040D01*
X16760Y-9965D02*
X20040D01*
Y-7405D01*
X16760Y-9965D02*
Y-7405D01*
X18281Y-15415D02*
X20919D01*
X18281Y-14155D02*
X20919D01*
X18281Y-15415D02*
Y-14155D01*
X20919Y-15415D02*
Y-14155D01*
X18269Y-13965D02*
X20906D01*
X18269Y-12705D02*
X20906D01*
X18269Y-13965D02*
Y-12705D01*
X20906Y-13965D02*
Y-12705D01*
X19626Y-2146D02*
X20532D01*
X19626Y-3917D02*
X20532D01*
X19626D02*
Y-2146D01*
X20532Y-3917D02*
Y-2146D01*
X12224Y-10807D02*
X13130D01*
X12224Y-9035D02*
X13130D01*
Y-10807D02*
Y-9035D01*
X12224Y-10807D02*
Y-9035D01*
X9413Y-12020D02*
X10987D01*
X9413Y-8950D02*
X10987D01*
Y-12020D02*
Y-8950D01*
X9413Y-12020D02*
Y-8950D01*
X16197Y-15021D02*
X17103D01*
X16197Y-13249D02*
X17103D01*
Y-15021D02*
Y-13249D01*
X16197Y-15021D02*
Y-13249D01*
X26791Y-13661D02*
X27539D01*
X26791Y-12323D02*
X27539D01*
Y-13661D02*
Y-12323D01*
X26791Y-13661D02*
Y-12323D01*
X31909Y-13661D02*
X32657D01*
X31909Y-12323D02*
X32657D01*
Y-13661D02*
Y-12323D01*
X31909Y-13661D02*
Y-12323D01*
X27579Y-12323D02*
X28327D01*
X27579Y-13661D02*
X28327D01*
X27579D02*
Y-12323D01*
X28327Y-13661D02*
Y-12323D01*
X31122D02*
X31870D01*
X31122Y-13661D02*
X31870D01*
X31122D02*
Y-12323D01*
X31870Y-13661D02*
Y-12323D01*
X21398Y-2953D02*
X23248D01*
X21398Y-2008D02*
X23248D01*
X21398Y-2953D02*
Y-2008D01*
X23248Y-2953D02*
Y-2008D01*
X21240Y-7835D02*
X23091D01*
X21240Y-6890D02*
X23091D01*
X21240Y-7835D02*
Y-6890D01*
X23091Y-7835D02*
Y-6890D01*
X21091Y-3304D02*
X22351D01*
X21091Y-5942D02*
X22351D01*
X21091D02*
Y-3304D01*
X22351Y-5942D02*
Y-3304D01*
X22691Y-3291D02*
X23951D01*
X22691Y-5929D02*
X23951D01*
X22691D02*
Y-3291D01*
X23951Y-5929D02*
Y-3291D01*
X22570Y-7966D02*
X23830D01*
X22570Y-10604D02*
X23830D01*
X22570D02*
Y-7966D01*
X23830Y-10604D02*
Y-7966D01*
X20970D02*
X22230D01*
X20970Y-10604D02*
X22230D01*
X20970D02*
Y-7966D01*
X22230Y-10604D02*
Y-7966D01*
X32677Y-13681D02*
Y-12303D01*
X33465Y-13681D02*
Y-12303D01*
X32677D02*
X33465D01*
X32677Y-13681D02*
X33465D01*
X10925Y-7835D02*
Y-6929D01*
X12697Y-7835D02*
Y-6929D01*
X10925D02*
X12697D01*
X10925Y-7835D02*
X12697D01*
X12697Y-8819D02*
Y-7913D01*
X10925Y-8819D02*
Y-7913D01*
Y-8819D02*
X12697D01*
X10925Y-7913D02*
X12697D01*
X7303Y-13238D02*
X8051D01*
X7303Y-14577D02*
X8051D01*
Y-13238D01*
X7303Y-14577D02*
Y-13238D01*
X23195Y-17059D02*
Y-16311D01*
X24533Y-17059D02*
Y-16311D01*
X23195D02*
X24533D01*
X23195Y-17059D02*
X24533D01*
X16447Y-19272D02*
Y-18524D01*
X15108Y-19272D02*
Y-18524D01*
Y-19272D02*
X16447D01*
X15108Y-18524D02*
X16447D01*
X23839Y-15433D02*
X24587D01*
X23839Y-14094D02*
X24587D01*
X23839Y-15433D02*
Y-14094D01*
X24587Y-15433D02*
Y-14094D01*
X23195Y-17945D02*
Y-17197D01*
X24533Y-17945D02*
Y-17197D01*
X23195D02*
X24533D01*
X23195Y-17945D02*
X24533D01*
X7717Y-19429D02*
X10591D01*
X7717Y-16004D02*
X10591D01*
X7717Y-19429D02*
Y-16004D01*
X10591Y-19429D02*
Y-16004D01*
X10768Y-19429D02*
X13642D01*
X10768Y-16004D02*
X13642D01*
X10768Y-19429D02*
Y-16004D01*
X13642Y-19429D02*
Y-16004D01*
X157Y-5315D02*
Y-197D01*
X4961D01*
X157Y-5315D02*
X4961D01*
Y-197D01*
X17096Y-19272D02*
Y-18524D01*
X18435Y-19272D02*
Y-18524D01*
X17096D02*
X18435D01*
X17096Y-19272D02*
X18435D01*
X17224Y-15492D02*
X21358D01*
X17224Y-17579D02*
X21358D01*
X17224D02*
Y-15492D01*
X21358Y-17579D02*
Y-15492D01*
X21837Y-19382D02*
X23077D01*
X21837Y-18122D02*
X23077D01*
Y-19382D02*
Y-18122D01*
X21837Y-19382D02*
Y-18122D01*
X213Y-13076D02*
X3795D01*
X213Y-16894D02*
X3795D01*
Y-13076D01*
X213Y-16894D02*
Y-13076D01*
X28346Y-15217D02*
Y-12224D01*
X25984Y-15217D02*
Y-12224D01*
X28346D01*
X25984Y-15217D02*
X28346D01*
X9921Y-14803D02*
Y-12953D01*
X8976Y-14803D02*
Y-12953D01*
X9921D01*
X8976Y-14803D02*
X9921D01*
X8091Y-14577D02*
X8839D01*
X8091Y-13238D02*
X8839D01*
X8091Y-14577D02*
Y-13238D01*
X8839Y-14577D02*
Y-13238D01*
X15108Y-18484D02*
Y-17736D01*
X16447Y-18484D02*
Y-17736D01*
X15108D02*
X16447D01*
X15108Y-18484D02*
X16447D01*
X22264Y-15433D02*
X23012D01*
X22264Y-14094D02*
X23012D01*
X22264Y-15433D02*
Y-14094D01*
X23012Y-15433D02*
Y-14094D01*
X16447Y-17697D02*
Y-16949D01*
X15108Y-17697D02*
Y-16949D01*
Y-17697D02*
X16447D01*
X15108Y-16949D02*
X16447D01*
X23051Y-15433D02*
X23799D01*
X23051Y-14094D02*
X23799D01*
X23051Y-15433D02*
Y-14094D01*
X23799Y-15433D02*
Y-14094D01*
X18553Y-19291D02*
Y-18504D01*
X19931Y-19291D02*
Y-18504D01*
X18553D02*
X19931D01*
X18553Y-19291D02*
X19931D01*
X21669Y-17079D02*
Y-16291D01*
X23047Y-17079D02*
Y-16291D01*
X21669D02*
X23047D01*
X21669Y-17079D02*
X23047D01*
X32480Y-4823D02*
Y-256D01*
X28937Y-4823D02*
Y-256D01*
X32480D01*
X28937Y-4823D02*
X32480D01*
X36417Y-4843D02*
Y-276D01*
X32874Y-4843D02*
Y-276D01*
X36417D01*
X32874Y-4843D02*
X36417D01*
X32480Y-9941D02*
Y-5374D01*
X28937Y-9941D02*
Y-5374D01*
X32480D01*
X28937Y-9941D02*
X32480D01*
X25984Y-3268D02*
Y-276D01*
X28346Y-3268D02*
Y-276D01*
X25984Y-3268D02*
X28346D01*
X25984Y-276D02*
X28346D01*
M02*
