G04*
G04 #@! TF.GenerationSoftware,Altium Limited,Altium Designer,21.0.8 (223)*
G04*
G04 Layer_Physical_Order=1*
G04 Layer_Color=255*
%FSLAX25Y25*%
%MOIN*%
G70*
G04*
G04 #@! TF.SameCoordinates,6ED59E13-5717-42ED-B6B1-0E666ED3908C*
G04*
G04*
G04 #@! TF.FilePolarity,Positive*
G04*
G01*
G75*
%ADD14C,0.01000*%
%ADD17R,0.06299X0.12598*%
%ADD18R,0.05512X0.05906*%
%ADD19R,0.05906X0.05512*%
%ADD20R,0.21260X0.11417*%
%ADD21R,0.40158X0.35827*%
%ADD22O,0.05709X0.02362*%
G04:AMPARAMS|DCode=23|XSize=118.11mil|YSize=118.11mil|CornerRadius=29.53mil|HoleSize=0mil|Usage=FLASHONLY|Rotation=0.000|XOffset=0mil|YOffset=0mil|HoleType=Round|Shape=RoundedRectangle|*
%AMROUNDEDRECTD23*
21,1,0.11811,0.05906,0,0,0.0*
21,1,0.05906,0.11811,0,0,0.0*
1,1,0.05906,0.02953,-0.02953*
1,1,0.05906,-0.02953,-0.02953*
1,1,0.05906,-0.02953,0.02953*
1,1,0.05906,0.02953,0.02953*
%
%ADD23ROUNDEDRECTD23*%
%ADD24R,0.07284X0.04921*%
%ADD25R,0.06299X0.11024*%
G04:AMPARAMS|DCode=26|XSize=21.65mil|YSize=31.5mil|CornerRadius=1.95mil|HoleSize=0mil|Usage=FLASHONLY|Rotation=90.000|XOffset=0mil|YOffset=0mil|HoleType=Round|Shape=RoundedRectangle|*
%AMROUNDEDRECTD26*
21,1,0.02165,0.02760,0,0,90.0*
21,1,0.01776,0.03150,0,0,90.0*
1,1,0.00390,0.01380,0.00888*
1,1,0.00390,0.01380,-0.00888*
1,1,0.00390,-0.01380,-0.00888*
1,1,0.00390,-0.01380,0.00888*
%
%ADD26ROUNDEDRECTD26*%
%ADD27R,0.04134X0.05315*%
%ADD28R,0.05315X0.04134*%
%ADD29R,0.04921X0.05906*%
%ADD30R,0.05118X0.05906*%
%ADD31R,0.07874X0.15748*%
%ADD32R,0.06890X0.04921*%
%ADD33R,0.04921X0.06890*%
%ADD34C,0.01240*%
%ADD66C,0.02000*%
%ADD67C,0.01181*%
%ADD68C,0.03000*%
%ADD69C,0.06000*%
%ADD70C,0.01200*%
%ADD71C,0.02953*%
%ADD72C,0.01968*%
%ADD73C,0.02500*%
%ADD74C,0.04724*%
G04:AMPARAMS|DCode=75|XSize=47.24mil|YSize=47.24mil|CornerRadius=11.81mil|HoleSize=0mil|Usage=FLASHONLY|Rotation=90.000|XOffset=0mil|YOffset=0mil|HoleType=Round|Shape=RoundedRectangle|*
%AMROUNDEDRECTD75*
21,1,0.04724,0.02362,0,0,90.0*
21,1,0.02362,0.04724,0,0,90.0*
1,1,0.02362,0.01181,0.01181*
1,1,0.02362,0.01181,-0.01181*
1,1,0.02362,-0.01181,-0.01181*
1,1,0.02362,-0.01181,0.01181*
%
%ADD75ROUNDEDRECTD75*%
%ADD76C,0.06000*%
%ADD77R,0.06000X0.06000*%
%ADD78R,0.07874X0.07874*%
G04:AMPARAMS|DCode=79|XSize=78.74mil|YSize=78.74mil|CornerRadius=19.68mil|HoleSize=0mil|Usage=FLASHONLY|Rotation=90.000|XOffset=0mil|YOffset=0mil|HoleType=Round|Shape=RoundedRectangle|*
%AMROUNDEDRECTD79*
21,1,0.07874,0.03937,0,0,90.0*
21,1,0.03937,0.07874,0,0,90.0*
1,1,0.03937,0.01968,0.01968*
1,1,0.03937,0.01968,-0.01968*
1,1,0.03937,-0.01968,-0.01968*
1,1,0.03937,-0.01968,0.01968*
%
%ADD79ROUNDEDRECTD79*%
%ADD80R,0.05906X0.05906*%
%ADD81C,0.05906*%
%ADD82C,0.03150*%
%ADD83R,0.05906X0.05906*%
G04:AMPARAMS|DCode=84|XSize=47.24mil|YSize=47.24mil|CornerRadius=11.81mil|HoleSize=0mil|Usage=FLASHONLY|Rotation=0.000|XOffset=0mil|YOffset=0mil|HoleType=Round|Shape=RoundedRectangle|*
%AMROUNDEDRECTD84*
21,1,0.04724,0.02362,0,0,0.0*
21,1,0.02362,0.04724,0,0,0.0*
1,1,0.02362,0.01181,-0.01181*
1,1,0.02362,-0.01181,-0.01181*
1,1,0.02362,-0.01181,0.01181*
1,1,0.02362,0.01181,0.01181*
%
%ADD84ROUNDEDRECTD84*%
%ADD85C,0.02362*%
%ADD86C,0.03937*%
%ADD87C,0.05000*%
G36*
X336079Y414520D02*
Y389606D01*
X334256Y387806D01*
X326236D01*
Y400740D01*
X323874Y403102D01*
X264425D01*
X264370Y403047D01*
X262497D01*
X261630Y402032D01*
Y357433D01*
X229780D01*
X225843Y361370D01*
Y377118D01*
X216000Y386961D01*
X172693D01*
X170725Y388929D01*
Y414520D01*
X172693Y416488D01*
X334110D01*
X336079Y414520D01*
D02*
G37*
G36*
X560488Y410583D02*
Y223575D01*
X559504Y222590D01*
X427614D01*
X426630Y223575D01*
Y245228D01*
X434504D01*
Y227748D01*
X435180Y227073D01*
X524616D01*
X525055Y227512D01*
Y375150D01*
X520150Y380055D01*
Y387764D01*
X510276D01*
Y383024D01*
X480780D01*
Y387961D01*
X470906D01*
Y383024D01*
X426537D01*
X426385Y383524D01*
X426542Y383628D01*
X432895Y389982D01*
X436260D01*
Y385764D01*
X444559D01*
Y398787D01*
X436260D01*
Y394570D01*
X431945D01*
X431067Y394395D01*
X430323Y393898D01*
X423970Y387544D01*
X389932D01*
X387695Y389781D01*
X386951Y390278D01*
X386073Y390453D01*
X385195Y390278D01*
X384451Y389781D01*
X383954Y389036D01*
X383779Y388159D01*
X383954Y387281D01*
X384451Y386537D01*
X387359Y383628D01*
X387516Y383524D01*
X387364Y383024D01*
X379386D01*
X375449Y386961D01*
Y414520D01*
X377417Y416488D01*
X554583D01*
X560488Y410583D01*
D02*
G37*
G36*
X510276Y370016D02*
X520150D01*
Y377960D01*
X520612Y378151D01*
X524036Y374727D01*
Y228092D01*
X506390D01*
Y253102D01*
X506312Y253492D01*
X506091Y253823D01*
X498516Y261399D01*
Y301893D01*
X501856Y305232D01*
X508323D01*
X508713Y305310D01*
X509044Y305531D01*
X509265Y305862D01*
X509343Y306252D01*
Y340701D01*
X509265Y341091D01*
X509044Y341422D01*
X508713Y341643D01*
X508323Y341720D01*
X459110D01*
X458720Y341643D01*
X458390Y341422D01*
X457405Y340438D01*
X457184Y340107D01*
X457107Y339717D01*
Y330894D01*
X432536D01*
X432145Y330816D01*
X431815Y330595D01*
X431594Y330264D01*
X431516Y329874D01*
Y312157D01*
X431594Y311767D01*
X431815Y311437D01*
X433783Y309468D01*
X434114Y309247D01*
X434504Y309169D01*
X436402D01*
Y307097D01*
X433660Y304354D01*
X399071D01*
X398291Y304199D01*
X397629Y303757D01*
X393692Y299820D01*
X393250Y299158D01*
X393095Y298378D01*
Y277527D01*
X391476D01*
Y276387D01*
X379386D01*
X378762Y276263D01*
X378233Y275909D01*
X370136Y267813D01*
X369783Y267284D01*
X369659Y266660D01*
Y235608D01*
X369783Y234984D01*
X370136Y234454D01*
X374295Y230295D01*
X374825Y229942D01*
X375449Y229817D01*
X391197D01*
X391821Y229942D01*
X392351Y230295D01*
X394319Y232264D01*
X394673Y232793D01*
X394797Y233417D01*
Y239749D01*
X402996Y247949D01*
X406823D01*
Y255264D01*
X400689D01*
Y250256D01*
X399706Y249273D01*
X399244Y249464D01*
Y255559D01*
X398013D01*
X397806Y256059D01*
X401362Y259616D01*
X409418D01*
Y255264D01*
X407973D01*
Y247949D01*
X409418D01*
Y246406D01*
X407973D01*
Y239091D01*
X409418D01*
Y237413D01*
X400824Y228819D01*
X391319D01*
X391234Y228946D01*
X390839Y229210D01*
X390372Y229303D01*
X387613D01*
X387146Y229210D01*
X386751Y228946D01*
X386487Y228551D01*
X386394Y228085D01*
Y226309D01*
X386487Y225843D01*
X386751Y225448D01*
X387146Y225184D01*
X387613Y225091D01*
X390372D01*
X390839Y225184D01*
X391234Y225448D01*
X391319Y225575D01*
X401495D01*
X402116Y225699D01*
X402642Y226050D01*
X412186Y235594D01*
X412538Y236121D01*
X412661Y236741D01*
Y239091D01*
X414107D01*
Y246406D01*
X412661D01*
Y247949D01*
X414107D01*
Y255264D01*
X412661D01*
Y261237D01*
Y264110D01*
X414539D01*
Y270244D01*
X409612D01*
X409421Y270706D01*
X409962Y271247D01*
X410060Y271394D01*
X414539D01*
Y277527D01*
X407225D01*
Y273500D01*
X407165Y273461D01*
X406666Y273728D01*
Y277527D01*
X399351D01*
Y273500D01*
X399291Y273451D01*
X398792Y273686D01*
Y277527D01*
X397173D01*
Y297533D01*
X399916Y300276D01*
X434504D01*
X435285Y300431D01*
X435946Y300873D01*
X439883Y304810D01*
X440325Y305472D01*
X440480Y306252D01*
Y309169D01*
X459672D01*
X464981Y303861D01*
Y296409D01*
X465058Y296019D01*
X465279Y295689D01*
X469216Y291752D01*
X469547Y291530D01*
X469937Y291453D01*
X479357D01*
X480729Y290082D01*
Y253102D01*
X480806Y252712D01*
X481027Y252381D01*
X486634Y246775D01*
Y228092D01*
X475323D01*
X474894Y228499D01*
Y230519D01*
X474995Y231291D01*
X474894Y232064D01*
Y240519D01*
X474995Y241291D01*
X474894Y242064D01*
Y245228D01*
X474816Y245619D01*
X474595Y245949D01*
X474264Y246170D01*
X473874Y246248D01*
X458126D01*
X457736Y246170D01*
X457405Y245949D01*
X457387Y245931D01*
X457166Y245600D01*
X457089Y245210D01*
Y242395D01*
X457064Y242336D01*
X456926Y241291D01*
X457064Y240247D01*
X457089Y240188D01*
Y232395D01*
X457064Y232336D01*
X456926Y231291D01*
X457064Y230247D01*
X457089Y230188D01*
Y228439D01*
X456804Y228092D01*
X454138D01*
X453932Y228592D01*
X454455Y229274D01*
X454858Y230247D01*
X454995Y231291D01*
X454858Y232336D01*
X454455Y233309D01*
X453814Y234144D01*
X453510Y234377D01*
Y238205D01*
X453814Y238439D01*
X454455Y239274D01*
X454858Y240247D01*
X454995Y241291D01*
X454858Y242336D01*
X454455Y243309D01*
X453814Y244144D01*
X453510Y244377D01*
Y287831D01*
X453316Y288806D01*
X452763Y289633D01*
X450878Y291519D01*
X450051Y292072D01*
X449075Y292266D01*
X444559D01*
Y296228D01*
X436260D01*
Y283205D01*
X444559D01*
Y287168D01*
X448019D01*
X448412Y286775D01*
Y244377D01*
X448108Y244144D01*
X447467Y243309D01*
X447064Y242336D01*
X446926Y241291D01*
X447064Y240247D01*
X447467Y239274D01*
X448108Y238439D01*
X448412Y238205D01*
Y234377D01*
X448108Y234144D01*
X447467Y233309D01*
X447064Y232336D01*
X446926Y231291D01*
X447064Y230247D01*
X447467Y229274D01*
X447990Y228592D01*
X447784Y228092D01*
X444138D01*
X443932Y228592D01*
X444455Y229274D01*
X444858Y230247D01*
X444995Y231291D01*
X444858Y232336D01*
X444455Y233309D01*
X443814Y234144D01*
X443510Y234377D01*
Y238205D01*
X443814Y238439D01*
X444455Y239274D01*
X444858Y240247D01*
X444995Y241291D01*
X444858Y242336D01*
X444455Y243309D01*
X443814Y244144D01*
X442978Y244785D01*
X442005Y245188D01*
X440961Y245326D01*
X439917Y245188D01*
X438944Y244785D01*
X438108Y244144D01*
X437467Y243309D01*
X437064Y242336D01*
X436926Y241291D01*
X437064Y240247D01*
X437467Y239274D01*
X438108Y238439D01*
X438412Y238205D01*
Y234377D01*
X438108Y234144D01*
X437467Y233309D01*
X437064Y232336D01*
X436926Y231291D01*
X437064Y230247D01*
X437467Y229274D01*
X437672Y229007D01*
X437487Y228427D01*
X437444Y228413D01*
X435524Y230333D01*
Y245228D01*
X435446Y245619D01*
X435225Y245949D01*
X434894Y246170D01*
X434504Y246248D01*
X426630D01*
X426240Y246170D01*
X425909Y245949D01*
X425688Y245619D01*
X425610Y245228D01*
Y223575D01*
X363638D01*
Y225528D01*
X368083D01*
Y233433D01*
X366662D01*
Y246931D01*
X366506Y247711D01*
X366064Y248373D01*
X366064Y248373D01*
X364893Y249544D01*
X364231Y249986D01*
X363638Y250104D01*
Y276724D01*
X375449Y288535D01*
Y379087D01*
X378366Y382004D01*
X412076D01*
X412297Y381556D01*
X412195Y381422D01*
X411896Y380700D01*
X411794Y379925D01*
Y375988D01*
X411896Y375213D01*
X412195Y374491D01*
X412670Y373871D01*
X413291Y373395D01*
X414013Y373096D01*
X414788Y372994D01*
X418725D01*
X419499Y373096D01*
X420222Y373395D01*
X420842Y373871D01*
X421318Y374491D01*
X421617Y375213D01*
X421719Y375988D01*
Y379925D01*
X421617Y380700D01*
X421318Y381422D01*
X421215Y381556D01*
X421436Y382004D01*
X470906D01*
Y370213D01*
X480780D01*
Y382004D01*
X510276D01*
Y370016D01*
D02*
G37*
G36*
X322202Y396901D02*
Y388832D01*
X320331Y386961D01*
X310488D01*
Y386961D01*
X308520Y384992D01*
Y361370D01*
X265665D01*
Y398772D01*
X320331D01*
X322202Y396901D01*
D02*
G37*
G36*
X371512Y413535D02*
Y290504D01*
X360685Y279677D01*
Y250142D01*
X347512D01*
Y252055D01*
X340394D01*
Y247888D01*
X336335D01*
X336335Y250575D01*
X336335Y251394D01*
Y255931D01*
X336433Y257858D01*
X336433Y258636D01*
Y265764D01*
X328921D01*
Y258636D01*
X328921Y257858D01*
X329020Y255931D01*
X329020Y251162D01*
X328768Y250381D01*
X327527Y249425D01*
X321146D01*
Y243291D01*
X328461D01*
Y243291D01*
X329020D01*
Y243291D01*
X336335D01*
Y244829D01*
X340394D01*
Y244150D01*
X347512D01*
Y246063D01*
X360685D01*
Y223575D01*
X358717Y221606D01*
X340443D01*
X339862Y222769D01*
X339750Y223575D01*
X341998Y225823D01*
X345020D01*
X346989Y225823D01*
X347807Y225823D01*
X353122D01*
Y233138D01*
X347807D01*
X345839Y233138D01*
X345020Y233138D01*
X339705D01*
Y229297D01*
X337270Y226862D01*
X327802D01*
X325957Y228707D01*
Y233138D01*
X319823D01*
Y231520D01*
X311333D01*
X308028Y234825D01*
Y239815D01*
X307975Y239868D01*
Y248278D01*
X307820Y249059D01*
X307378Y249720D01*
X296186Y260913D01*
X295524Y261355D01*
X294744Y261510D01*
X273469D01*
X271339Y263639D01*
Y275010D01*
X275235D01*
X275258Y274995D01*
X276109Y274826D01*
X279455D01*
X280306Y274995D01*
X281028Y275477D01*
X281510Y276199D01*
X281679Y277050D01*
X281510Y277901D01*
X281227Y278324D01*
X281028Y278686D01*
Y280414D01*
X281227Y280775D01*
X281510Y281199D01*
X281679Y282050D01*
X281510Y282901D01*
X281181Y283393D01*
X281028Y283674D01*
Y285426D01*
X281181Y285707D01*
X281510Y286199D01*
X281679Y287050D01*
X281510Y287901D01*
X281028Y288622D01*
X280306Y289104D01*
X279455Y289274D01*
X276109D01*
X275258Y289104D01*
X275078Y288984D01*
X264985D01*
X264985Y288984D01*
X264788Y288945D01*
X259948D01*
X259133Y290914D01*
X261803Y293583D01*
X286567D01*
X286639Y293489D01*
X287259Y293013D01*
X287981Y292714D01*
X288756Y292612D01*
X289531Y292714D01*
X290253Y293013D01*
X290873Y293489D01*
X291349Y294109D01*
X291648Y294831D01*
X291750Y295606D01*
X291648Y296381D01*
X291349Y297103D01*
X290873Y297724D01*
X290253Y298199D01*
X289531Y298499D01*
X288756Y298601D01*
X287981Y298499D01*
X287259Y298199D01*
X286639Y297724D01*
X286567Y297629D01*
X260965D01*
X260191Y297476D01*
X259534Y297037D01*
X251971Y289474D01*
X251533Y288818D01*
X251379Y288043D01*
Y286091D01*
X249744D01*
Y280544D01*
X249493Y279763D01*
X248252Y278807D01*
X241870D01*
Y277779D01*
X237514D01*
X235701Y279593D01*
Y284614D01*
X227796D01*
Y276709D01*
X232817D01*
X235228Y274298D01*
X235889Y273856D01*
X236670Y273701D01*
X241870D01*
Y272673D01*
X249185D01*
Y272673D01*
X249744D01*
Y272673D01*
X257059D01*
Y275923D01*
X260121Y278984D01*
X266739D01*
X267338Y278094D01*
X267655Y277016D01*
X267416Y276659D01*
X267261Y275878D01*
Y262795D01*
X267416Y262014D01*
X267858Y261353D01*
X271182Y258029D01*
X271844Y257587D01*
X272624Y257431D01*
X293899D01*
X303897Y247434D01*
Y241291D01*
X242575D01*
X241688Y242178D01*
Y253789D01*
X232435Y263042D01*
X184504D01*
X184504Y263042D01*
X184504Y263042D01*
X174662D01*
X174662Y263042D01*
X174662Y263042D01*
X172596D01*
X170725Y264913D01*
Y268850D01*
X170725Y349559D01*
X173678Y352512D01*
X187457D01*
X188441Y351528D01*
Y302315D01*
X186473Y300346D01*
Y276725D01*
X192378Y270819D01*
X204433D01*
X211201Y277587D01*
Y296289D01*
X215258Y300346D01*
X237654D01*
X243559Y306252D01*
Y338732D01*
X240607Y341685D01*
X227811D01*
X226827Y342669D01*
Y350543D01*
X227811Y351528D01*
X254585D01*
X258552Y347561D01*
Y331811D01*
Y326869D01*
X258723Y325564D01*
X259227Y324348D01*
X260029Y323303D01*
X280705Y302627D01*
X281749Y301825D01*
X282966Y301322D01*
X284271Y301150D01*
X290931D01*
X294196Y297885D01*
Y290995D01*
X293870Y290745D01*
X293040Y289663D01*
X292518Y288402D01*
X292340Y287050D01*
X292518Y285697D01*
X293040Y284437D01*
X293870Y283354D01*
X294953Y282524D01*
X295399Y282339D01*
X295342Y282050D01*
X295511Y281199D01*
X295840Y280707D01*
X295993Y280426D01*
Y278674D01*
X295840Y278393D01*
X295511Y277901D01*
X295342Y277050D01*
X295511Y276199D01*
X295840Y275707D01*
X295993Y275426D01*
Y273674D01*
X295840Y273393D01*
X295511Y272901D01*
X295342Y272050D01*
X295511Y271199D01*
X295993Y270477D01*
X296715Y269995D01*
X297566Y269826D01*
X300912D01*
X301763Y269995D01*
X301786Y270010D01*
X305814D01*
X306594Y270166D01*
X307256Y270608D01*
X311930Y275283D01*
X312372Y275944D01*
X312528Y276724D01*
X312527Y276724D01*
Y305858D01*
X312372Y306639D01*
X311930Y307300D01*
X311930Y307300D01*
X294253Y324977D01*
Y330350D01*
X295741D01*
Y338225D01*
X295741Y339240D01*
X295741Y340589D01*
X297150Y342557D01*
X297756D01*
X298732Y342751D01*
X299559Y343304D01*
X300111Y344131D01*
X300305Y345106D01*
X300111Y346082D01*
X299559Y346909D01*
X298732Y347461D01*
X297756Y347655D01*
X295741D01*
Y349083D01*
X288819D01*
Y341209D01*
X288819Y340193D01*
X288819Y338225D01*
Y330350D01*
X290175D01*
Y324132D01*
X290330Y323352D01*
X290772Y322691D01*
X295550Y317913D01*
X295549Y317874D01*
X294774Y315905D01*
X294677Y315885D01*
X293955Y315403D01*
X293473Y314682D01*
X293304Y313831D01*
X293436Y313167D01*
X293360Y312816D01*
X292271Y311236D01*
X286360D01*
X268638Y328958D01*
Y350875D01*
X269290Y351528D01*
X310107D01*
X310442Y351373D01*
X311818Y350110D01*
X311793Y349925D01*
Y345988D01*
X311895Y345213D01*
X312195Y344491D01*
X312670Y343871D01*
X313291Y343395D01*
X314013Y343096D01*
X314788Y342994D01*
X318725D01*
X319499Y343096D01*
X320222Y343395D01*
X320842Y343871D01*
X321318Y344491D01*
X321617Y345213D01*
X321719Y345988D01*
Y349925D01*
X321617Y350700D01*
X321318Y351422D01*
X320842Y352042D01*
X320222Y352518D01*
X319499Y352817D01*
X318725Y352919D01*
X314788D01*
X314645Y352901D01*
X313572Y354310D01*
X313488Y354489D01*
X313441Y354636D01*
Y368991D01*
X314678Y370228D01*
X338048D01*
Y379087D01*
X342969Y384008D01*
Y412551D01*
X345922Y415504D01*
X369544D01*
X371512Y413535D01*
D02*
G37*
G36*
X219937Y375150D02*
Y339717D01*
X223874Y335780D01*
X235685D01*
X237654Y333811D01*
Y310189D01*
X233717Y306252D01*
X214032D01*
X206158Y298378D01*
Y278693D01*
X204189Y276725D01*
X194347D01*
X192378Y278693D01*
Y298378D01*
X194347Y300346D01*
Y357433D01*
X192378Y359402D01*
X174662D01*
X172693Y361370D01*
Y379087D01*
X174662Y381055D01*
X214032D01*
X219937Y375150D01*
D02*
G37*
G36*
X473874Y228499D02*
X473814Y228439D01*
X458108D01*
Y245210D01*
X458126Y245228D01*
X473874D01*
Y228499D01*
D02*
G37*
G36*
X508323Y306252D02*
X501433D01*
X497496Y302315D01*
Y260976D01*
X505370Y253102D01*
Y228092D01*
X487654D01*
Y247197D01*
X481748Y253102D01*
Y290504D01*
X479780Y292472D01*
X469937D01*
X466000Y296409D01*
Y304283D01*
X460095Y310189D01*
X434504D01*
X432536Y312157D01*
Y329874D01*
X458126D01*
Y339717D01*
X459110Y340701D01*
X508323D01*
Y306252D01*
D02*
G37*
G36*
X237654Y252118D02*
Y224559D01*
X236670Y223575D01*
X217969D01*
X217601Y223943D01*
Y244205D01*
X213481Y248325D01*
X194765D01*
X191956Y251134D01*
Y257109D01*
X192870Y258024D01*
X231748D01*
X237654Y252118D01*
D02*
G37*
G36*
X186473Y257039D02*
Y247197D01*
X188441Y245228D01*
X191394D01*
X193668Y242954D01*
Y242664D01*
X193533Y241291D01*
X193668Y239919D01*
Y232664D01*
X193533Y231291D01*
X193668Y229919D01*
Y224865D01*
X192378Y223575D01*
X174662D01*
X170725Y227512D01*
Y255071D01*
X172693Y257039D01*
X174662Y259008D01*
X184504D01*
X186473Y257039D01*
D02*
G37*
%LPC*%
G36*
X241591Y415007D02*
X240344Y414884D01*
X239144Y414521D01*
X238039Y413930D01*
X237070Y413135D01*
X236275Y412166D01*
X235684Y411061D01*
X235321Y409862D01*
X235198Y408614D01*
X235321Y407367D01*
X235684Y406168D01*
X236275Y405062D01*
X237070Y404094D01*
X238039Y403299D01*
X239144Y402708D01*
X240344Y402344D01*
X241591Y402221D01*
X242838Y402344D01*
X244037Y402708D01*
X245143Y403299D01*
X246111Y404094D01*
X246906Y405062D01*
X247497Y406168D01*
X247861Y407367D01*
X247984Y408614D01*
X247861Y409862D01*
X247497Y411061D01*
X246906Y412166D01*
X246111Y413135D01*
X245143Y413930D01*
X244037Y414521D01*
X242838Y414884D01*
X241591Y415007D01*
D02*
G37*
G36*
X418725Y412919D02*
X414788D01*
X414013Y412817D01*
X413291Y412518D01*
X412670Y412042D01*
X412195Y411422D01*
X411896Y410700D01*
X411794Y409925D01*
Y405988D01*
X411896Y405213D01*
X412195Y404491D01*
X412670Y403871D01*
X413291Y403395D01*
X414013Y403096D01*
X414788Y402994D01*
X418725D01*
X419499Y403096D01*
X420222Y403395D01*
X420842Y403871D01*
X421318Y404491D01*
X421617Y405213D01*
X421719Y405988D01*
Y409925D01*
X421617Y410700D01*
X421318Y411422D01*
X420842Y412042D01*
X420222Y412518D01*
X419499Y412817D01*
X418725Y412919D01*
D02*
G37*
G36*
X545248Y402724D02*
X536358D01*
Y395803D01*
X545248D01*
Y402724D01*
D02*
G37*
G36*
X555134Y401394D02*
X547228D01*
Y393882D01*
X555134D01*
Y401394D01*
D02*
G37*
G36*
X545445Y392291D02*
X536162D01*
Y385370D01*
X545445D01*
Y392291D01*
D02*
G37*
G36*
X554646Y245291D02*
X546646D01*
Y237291D01*
X554646D01*
Y245291D01*
D02*
G37*
G36*
X550646Y235326D02*
X549602Y235189D01*
X548629Y234785D01*
X547793Y234144D01*
X547152Y233309D01*
X546749Y232336D01*
X546611Y231291D01*
X546749Y230247D01*
X547152Y229274D01*
X547793Y228439D01*
X548629Y227797D01*
X549602Y227394D01*
X550646Y227257D01*
X551690Y227394D01*
X552663Y227797D01*
X553499Y228439D01*
X554140Y229274D01*
X554543Y230247D01*
X554680Y231291D01*
X554543Y232336D01*
X554140Y233309D01*
X553499Y234144D01*
X552663Y234785D01*
X551690Y235189D01*
X550646Y235326D01*
D02*
G37*
G36*
X523412Y360570D02*
X515506D01*
Y353058D01*
X523412D01*
Y360570D01*
D02*
G37*
G36*
X442718Y374244D02*
X440714Y374086D01*
X438758Y373616D01*
X436900Y372847D01*
X435185Y371796D01*
X433656Y370490D01*
X432350Y368961D01*
X431299Y367246D01*
X430530Y365388D01*
X430060Y363433D01*
X429903Y361428D01*
X430060Y359423D01*
X430530Y357467D01*
X431299Y355609D01*
X432350Y353895D01*
X433656Y352365D01*
X435185Y351059D01*
X436900Y350009D01*
X438758Y349239D01*
X440714Y348769D01*
X442718Y348612D01*
X444723Y348769D01*
X446679Y349239D01*
X448537Y350009D01*
X450251Y351059D01*
X451781Y352365D01*
X453087Y353895D01*
X454138Y355609D01*
X454907Y357467D01*
X455376Y359423D01*
X455534Y361428D01*
X455376Y363433D01*
X454907Y365388D01*
X454138Y367246D01*
X453087Y368961D01*
X451781Y370490D01*
X450251Y371796D01*
X448537Y372847D01*
X446679Y373616D01*
X444723Y374086D01*
X442718Y374244D01*
D02*
G37*
G36*
X418725Y352919D02*
X414788D01*
X414013Y352817D01*
X413291Y352518D01*
X412670Y352042D01*
X412195Y351422D01*
X411896Y350700D01*
X411794Y349925D01*
Y345988D01*
X411896Y345213D01*
X412195Y344491D01*
X412670Y343871D01*
X413291Y343395D01*
X414013Y343096D01*
X414788Y342994D01*
X418725D01*
X419499Y343096D01*
X420222Y343395D01*
X420842Y343871D01*
X421318Y344491D01*
X421617Y345213D01*
X421719Y345988D01*
Y349925D01*
X421617Y350700D01*
X421318Y351422D01*
X420842Y352042D01*
X420222Y352518D01*
X419499Y352817D01*
X418725Y352919D01*
D02*
G37*
G36*
Y322919D02*
X414788D01*
X414013Y322817D01*
X413291Y322518D01*
X412670Y322042D01*
X412195Y321422D01*
X411896Y320700D01*
X411794Y319925D01*
Y315988D01*
X411896Y315213D01*
X412195Y314491D01*
X412670Y313871D01*
X413291Y313395D01*
X414013Y313096D01*
X414788Y312994D01*
X418725D01*
X419499Y313096D01*
X420222Y313395D01*
X420842Y313871D01*
X421318Y314491D01*
X421617Y315213D01*
X421719Y315988D01*
Y319925D01*
X421617Y320700D01*
X421318Y321422D01*
X420842Y322042D01*
X420222Y322518D01*
X419499Y322817D01*
X418725Y322919D01*
D02*
G37*
G36*
X519362Y280677D02*
X511063D01*
Y267653D01*
X519362D01*
Y280677D01*
D02*
G37*
%LPD*%
G36*
X441372Y364261D02*
X441600D01*
Y364235D01*
X441827D01*
Y364210D01*
X442005D01*
Y364185D01*
X442106D01*
Y364159D01*
X442232D01*
Y364134D01*
X442334D01*
Y364109D01*
X442359D01*
Y364134D01*
X442384D01*
Y364109D01*
X442435D01*
Y364083D01*
X442536D01*
Y364058D01*
X442587D01*
Y364033D01*
X442637D01*
Y364058D01*
X442663D01*
Y364033D01*
X442713D01*
Y364007D01*
X442764D01*
Y363982D01*
X442814D01*
Y363957D01*
X442916D01*
Y363932D01*
X442941D01*
Y363906D01*
X442992D01*
Y363881D01*
X443042D01*
Y363856D01*
X443118D01*
Y363830D01*
X443093D01*
Y363805D01*
X443042D01*
Y363830D01*
X442992D01*
Y363856D01*
X442891D01*
Y363881D01*
X442789D01*
Y363906D01*
X442713D01*
Y363932D01*
X442612D01*
Y363957D01*
X442460D01*
Y363982D01*
X442359D01*
Y364007D01*
X442157D01*
Y364033D01*
X441473D01*
Y364007D01*
X441245D01*
Y363982D01*
X441119D01*
Y363957D01*
X441068D01*
Y363982D01*
X441043D01*
Y363957D01*
X440942D01*
Y363932D01*
X440840D01*
Y363906D01*
X440739D01*
Y363881D01*
X440613D01*
Y363856D01*
X440511D01*
Y363830D01*
X440461D01*
Y363805D01*
X440359D01*
Y363780D01*
X440283D01*
Y363754D01*
X440233D01*
Y363729D01*
X440182D01*
Y363704D01*
X440132D01*
Y363679D01*
X440030D01*
Y363653D01*
X439980D01*
Y363628D01*
X439954D01*
Y363602D01*
X439879D01*
Y363577D01*
X439828D01*
Y363552D01*
X439777D01*
Y363527D01*
X439727D01*
Y363501D01*
X439676D01*
Y363476D01*
X439651D01*
Y363451D01*
X439575D01*
Y363425D01*
X439549D01*
Y363400D01*
X439524D01*
Y363375D01*
X439448D01*
Y363349D01*
X439372D01*
Y363375D01*
X439347D01*
Y363400D01*
X439322D01*
Y363425D01*
X439347D01*
Y363451D01*
Y363476D01*
Y363501D01*
Y363527D01*
X439372D01*
Y363552D01*
Y363577D01*
X439398D01*
Y363602D01*
Y363628D01*
X439423D01*
Y363653D01*
X439448D01*
Y363679D01*
Y363704D01*
X439473D01*
Y363729D01*
X439499D01*
Y363754D01*
X439524D01*
Y363780D01*
X439549D01*
Y363805D01*
X439575D01*
Y363830D01*
Y363856D01*
X439651D01*
Y363881D01*
X439676D01*
Y363906D01*
X439701D01*
Y363932D01*
X439727D01*
Y363957D01*
X439803D01*
Y363982D01*
X439828D01*
Y364007D01*
X439879D01*
Y364033D01*
X439904D01*
Y364058D01*
X439980D01*
Y364083D01*
X440030D01*
Y364109D01*
X440081D01*
Y364134D01*
X440106D01*
Y364109D01*
X440132D01*
Y364134D01*
X440182D01*
Y364159D01*
X440283D01*
Y364185D01*
X440334D01*
Y364210D01*
X440511D01*
Y364235D01*
X440638D01*
Y364261D01*
X440714D01*
Y364235D01*
X440739D01*
Y364261D01*
X440790D01*
Y364286D01*
X441372D01*
Y364261D01*
D02*
G37*
G36*
X439575Y364134D02*
Y364109D01*
Y364083D01*
Y364058D01*
Y364033D01*
X439549D01*
Y364007D01*
Y363982D01*
X439524D01*
Y363957D01*
Y363932D01*
X439499D01*
Y363906D01*
Y363881D01*
X439473D01*
Y363856D01*
X439448D01*
Y363830D01*
Y363805D01*
X439423D01*
Y363780D01*
Y363754D01*
X439398D01*
Y363729D01*
X439372D01*
Y363704D01*
X439347D01*
Y363679D01*
X439322D01*
Y363653D01*
X439296D01*
Y363628D01*
Y363602D01*
X439271D01*
Y363577D01*
X439246D01*
Y363552D01*
X439220D01*
Y363527D01*
X439195D01*
Y363501D01*
X439170D01*
Y363476D01*
Y363451D01*
X439145D01*
Y363425D01*
X439119D01*
Y363400D01*
X439094D01*
Y363375D01*
X439069D01*
Y363349D01*
X439043D01*
Y363324D01*
X439018D01*
Y363299D01*
X438993D01*
Y363274D01*
X438967D01*
Y363248D01*
Y363223D01*
X438942D01*
Y363198D01*
Y363172D01*
X438917D01*
Y363147D01*
X438891D01*
Y363122D01*
Y363096D01*
X438866D01*
Y363071D01*
X438841D01*
Y363046D01*
Y363020D01*
X438815D01*
Y362995D01*
Y362970D01*
Y362945D01*
X438790D01*
Y362919D01*
Y362894D01*
X438765D01*
Y362868D01*
Y362843D01*
Y362818D01*
Y362793D01*
Y362767D01*
Y362742D01*
Y362717D01*
X438790D01*
Y362691D01*
X438765D01*
Y362666D01*
Y362641D01*
Y362615D01*
X438790D01*
Y362590D01*
Y362565D01*
X438815D01*
Y362540D01*
Y362514D01*
X438841D01*
Y362489D01*
Y362464D01*
Y362438D01*
X438866D01*
Y362413D01*
X438891D01*
Y362388D01*
X438917D01*
Y362362D01*
X438942D01*
Y362337D01*
X438967D01*
Y362312D01*
X439043D01*
Y362286D01*
X439069D01*
Y362261D01*
X439119D01*
Y362236D01*
X439220D01*
Y362210D01*
X439296D01*
Y362185D01*
X439423D01*
Y362160D01*
X439524D01*
Y362135D01*
X439549D01*
Y362160D01*
X439575D01*
Y362135D01*
X439727D01*
Y362109D01*
X439904D01*
Y362084D01*
X440005D01*
Y362059D01*
X440208D01*
Y362033D01*
X440385D01*
Y362008D01*
X440486D01*
Y361983D01*
X440638D01*
Y361957D01*
X440739D01*
Y361932D01*
X440840D01*
Y361907D01*
X440916D01*
Y361881D01*
X440992D01*
Y361856D01*
X441068D01*
Y361831D01*
X441119D01*
Y361806D01*
X441169D01*
Y361780D01*
X441245D01*
Y361755D01*
X441296D01*
Y361730D01*
X441321D01*
Y361704D01*
X441347D01*
Y361679D01*
X441397D01*
Y361654D01*
X441423D01*
Y361628D01*
X441448D01*
Y361603D01*
X441498D01*
Y361578D01*
X441524D01*
Y361552D01*
X441549D01*
Y361527D01*
X441574D01*
Y361502D01*
X441600D01*
Y361476D01*
X441625D01*
Y361451D01*
X441650D01*
Y361426D01*
Y361401D01*
X441676D01*
Y361375D01*
X441701D01*
Y361350D01*
Y361325D01*
X441726D01*
Y361299D01*
X441751D01*
Y361274D01*
Y361249D01*
X441777D01*
Y361223D01*
Y361198D01*
Y361173D01*
Y361147D01*
Y361122D01*
Y361097D01*
Y361071D01*
Y361046D01*
Y361021D01*
Y360996D01*
Y360970D01*
Y360945D01*
Y360920D01*
X441751D01*
Y360894D01*
Y360869D01*
Y360844D01*
X441726D01*
Y360818D01*
X441701D01*
Y360793D01*
Y360768D01*
X441650D01*
Y360742D01*
X441625D01*
Y360717D01*
X441574D01*
Y360692D01*
X441524D01*
Y360666D01*
X441448D01*
Y360641D01*
X441397D01*
Y360666D01*
X441169D01*
Y360692D01*
X440891D01*
Y360717D01*
X440815D01*
Y360742D01*
X440790D01*
Y360717D01*
X440764D01*
Y360742D01*
X440663D01*
Y360768D01*
X440385D01*
Y360793D01*
X440283D01*
Y360818D01*
X440233D01*
Y360793D01*
X440182D01*
Y360818D01*
X440081D01*
Y360844D01*
X439777D01*
Y360869D01*
X439625D01*
Y360894D01*
X439195D01*
Y360920D01*
X438512D01*
Y360894D01*
X437980D01*
Y360869D01*
X437803D01*
Y360844D01*
X437575D01*
Y360818D01*
X437373D01*
Y360793D01*
X437221D01*
Y360768D01*
X437044D01*
Y360742D01*
X436942D01*
Y360717D01*
X436841D01*
Y360692D01*
X436689D01*
Y360666D01*
X436614D01*
Y360641D01*
X436512D01*
Y360616D01*
X436386D01*
Y360591D01*
X436310D01*
Y360565D01*
X436132D01*
Y360591D01*
X436107D01*
Y360616D01*
Y360641D01*
X436132D01*
Y360666D01*
X436158D01*
Y360692D01*
Y360717D01*
X436183D01*
Y360742D01*
X436208D01*
Y360768D01*
X436234D01*
Y360793D01*
X436259D01*
Y360818D01*
X436284D01*
Y360844D01*
X436310D01*
Y360869D01*
X436335D01*
Y360894D01*
X436360D01*
Y360920D01*
X436411D01*
Y360945D01*
X436436D01*
Y360970D01*
X436462D01*
Y360996D01*
X436512D01*
Y361021D01*
X436538D01*
Y361046D01*
X436588D01*
Y361071D01*
X436664D01*
Y361097D01*
X436715D01*
Y361122D01*
X436765D01*
Y361147D01*
X436841D01*
Y361173D01*
X436892D01*
Y361198D01*
X436993D01*
Y361223D01*
X437018D01*
Y361249D01*
X437170D01*
Y361274D01*
X437221D01*
Y361299D01*
X437322D01*
Y361325D01*
X437474D01*
Y361350D01*
X437601D01*
Y361375D01*
X437702D01*
Y361401D01*
X438031D01*
Y361426D01*
X438208D01*
Y361451D01*
X438638D01*
Y361476D01*
X440359D01*
Y361502D01*
X440309D01*
Y361527D01*
X440157D01*
Y361552D01*
X440056D01*
Y361578D01*
X439980D01*
Y361603D01*
X439777D01*
Y361628D01*
X439575D01*
Y361654D01*
X439448D01*
Y361679D01*
X439195D01*
Y361704D01*
X438891D01*
Y361730D01*
X438841D01*
Y361704D01*
X438815D01*
Y361730D01*
X437803D01*
Y361704D01*
X437727D01*
Y361730D01*
X437702D01*
Y361704D01*
X437474D01*
Y361679D01*
X437221D01*
Y361654D01*
X437094D01*
Y361628D01*
X436968D01*
Y361603D01*
X436791D01*
Y361578D01*
X436715D01*
Y361552D01*
X436588D01*
Y361527D01*
X436487D01*
Y361502D01*
X436411D01*
Y361476D01*
X436335D01*
Y361451D01*
X436259D01*
Y361426D01*
X436183D01*
Y361401D01*
X436107D01*
Y361375D01*
X436057D01*
Y361350D01*
X436006D01*
Y361325D01*
X435955D01*
Y361299D01*
X435879D01*
Y361274D01*
X435854D01*
Y361249D01*
X435778D01*
Y361223D01*
X435753D01*
Y361198D01*
X435702D01*
Y361173D01*
X435652D01*
Y361147D01*
X435626D01*
Y361122D01*
X435576D01*
Y361097D01*
X435550D01*
Y361071D01*
X435500D01*
Y361046D01*
X435474D01*
Y361021D01*
X435449D01*
Y360996D01*
X435398D01*
Y360970D01*
X435373D01*
Y360945D01*
X435348D01*
Y360920D01*
X435297D01*
Y360894D01*
X435272D01*
Y360869D01*
X435247D01*
Y360844D01*
X435221D01*
Y360818D01*
X435196D01*
Y360793D01*
X435171D01*
Y360768D01*
X435145D01*
Y360742D01*
X435120D01*
Y360717D01*
X435095D01*
Y360692D01*
X435070D01*
Y360666D01*
X435044D01*
Y360641D01*
X435019D01*
Y360616D01*
Y360591D01*
X434994D01*
Y360565D01*
X434968D01*
Y360540D01*
X434943D01*
Y360515D01*
X434918D01*
Y360489D01*
Y360464D01*
X434892D01*
Y360439D01*
X434867D01*
Y360413D01*
Y360388D01*
X434842D01*
Y360363D01*
X434816D01*
Y360337D01*
Y360312D01*
Y360287D01*
X434791D01*
Y360262D01*
Y360236D01*
X434766D01*
Y360211D01*
X434740D01*
Y360186D01*
Y360160D01*
X434715D01*
Y360135D01*
Y360110D01*
X434690D01*
Y360084D01*
Y360059D01*
Y360034D01*
X434664D01*
Y360008D01*
Y359983D01*
X434639D01*
Y359958D01*
Y359932D01*
X434614D01*
Y359907D01*
Y359882D01*
Y359857D01*
Y359831D01*
Y359806D01*
X434589D01*
Y359781D01*
Y359755D01*
Y359730D01*
Y359705D01*
X434563D01*
Y359679D01*
Y359654D01*
X434538D01*
Y359629D01*
Y359604D01*
Y359578D01*
Y359553D01*
Y359527D01*
X434487D01*
Y359502D01*
X434437D01*
Y359527D01*
X434386D01*
Y359553D01*
X434310D01*
Y359578D01*
Y359604D01*
X434285D01*
Y359629D01*
Y359654D01*
X434260D01*
Y359679D01*
Y359705D01*
Y359730D01*
X434234D01*
Y359755D01*
Y359781D01*
Y359806D01*
Y359831D01*
X434209D01*
Y359857D01*
Y359882D01*
X434184D01*
Y359907D01*
Y359932D01*
X434209D01*
Y359958D01*
X434184D01*
Y359983D01*
Y360008D01*
Y360034D01*
X434158D01*
Y360059D01*
Y360084D01*
Y360110D01*
Y360135D01*
Y360160D01*
Y360186D01*
Y360211D01*
Y360236D01*
Y360262D01*
X434133D01*
Y360287D01*
Y360312D01*
Y360337D01*
Y360363D01*
Y360388D01*
Y360413D01*
Y360439D01*
Y360464D01*
Y360489D01*
Y360515D01*
Y360540D01*
Y360565D01*
Y360591D01*
X434158D01*
Y360616D01*
Y360641D01*
Y360666D01*
Y360692D01*
Y360717D01*
Y360742D01*
Y360768D01*
Y360793D01*
X434184D01*
Y360818D01*
Y360844D01*
Y360869D01*
Y360894D01*
Y360920D01*
Y360945D01*
X434209D01*
Y360970D01*
Y360996D01*
X434234D01*
Y361021D01*
Y361046D01*
Y361071D01*
Y361097D01*
X434260D01*
Y361122D01*
Y361147D01*
X434285D01*
Y361173D01*
Y361198D01*
Y361223D01*
X434310D01*
Y361249D01*
Y361274D01*
Y361299D01*
X434336D01*
Y361325D01*
X434361D01*
Y361350D01*
Y361375D01*
X434386D01*
Y361401D01*
Y361426D01*
Y361451D01*
X434411D01*
Y361476D01*
X434437D01*
Y361502D01*
X434462D01*
Y361527D01*
Y361552D01*
Y361578D01*
X434487D01*
Y361603D01*
X434513D01*
Y361628D01*
X434538D01*
Y361654D01*
Y361679D01*
X434563D01*
Y361704D01*
X434589D01*
Y361730D01*
Y361755D01*
X434614D01*
Y361780D01*
X434639D01*
Y361806D01*
X434664D01*
Y361831D01*
X434690D01*
Y361856D01*
X434715D01*
Y361881D01*
Y361907D01*
X434740D01*
Y361932D01*
X434766D01*
Y361957D01*
X434791D01*
Y361983D01*
X434816D01*
Y362008D01*
X434842D01*
Y362033D01*
X434867D01*
Y362059D01*
X434892D01*
Y362084D01*
X434918D01*
Y362109D01*
X434943D01*
Y362135D01*
X434968D01*
Y362160D01*
X434994D01*
Y362185D01*
X435019D01*
Y362210D01*
X435044D01*
Y362236D01*
X435070D01*
Y362261D01*
X435095D01*
Y362286D01*
X435145D01*
Y362312D01*
X435171D01*
Y362337D01*
X435221D01*
Y362362D01*
Y362388D01*
X435247D01*
Y362413D01*
X435272D01*
Y362438D01*
X435297D01*
Y362464D01*
X435373D01*
Y362489D01*
X435398D01*
Y362514D01*
X435424D01*
Y362540D01*
X435449D01*
Y362565D01*
X435474D01*
Y362590D01*
X435550D01*
Y362615D01*
X435576D01*
Y362641D01*
X435601D01*
Y362666D01*
X435652D01*
Y362691D01*
X435677D01*
Y362717D01*
X435702D01*
Y362742D01*
X435778D01*
Y362767D01*
X435804D01*
Y362793D01*
X435854D01*
Y362818D01*
X435879D01*
Y362843D01*
X435930D01*
Y362868D01*
X435955D01*
Y362894D01*
X436006D01*
Y362919D01*
X436057D01*
Y362945D01*
X436082D01*
Y362970D01*
X436158D01*
Y362995D01*
X436183D01*
Y363020D01*
X436234D01*
Y363046D01*
X436284D01*
Y363071D01*
X436335D01*
Y363096D01*
X436411D01*
Y363122D01*
X436436D01*
Y363147D01*
X436487D01*
Y363172D01*
X436538D01*
Y363198D01*
X436588D01*
Y363223D01*
X436664D01*
Y363248D01*
X436689D01*
Y363274D01*
X436765D01*
Y363299D01*
X436791D01*
Y363324D01*
X436867D01*
Y363349D01*
X436917D01*
Y363375D01*
X436993D01*
Y363400D01*
X437044D01*
Y363425D01*
X437094D01*
Y363451D01*
X437170D01*
Y363476D01*
X437221D01*
Y363501D01*
X437271D01*
Y363527D01*
X437348D01*
Y363552D01*
X437398D01*
Y363577D01*
X437474D01*
Y363602D01*
X437575D01*
Y363628D01*
X437601D01*
Y363653D01*
X437676D01*
Y363679D01*
X437752D01*
Y363704D01*
X437778D01*
Y363679D01*
X437803D01*
Y363704D01*
X437828D01*
Y363729D01*
X437904D01*
Y363754D01*
X438005D01*
Y363780D01*
X438082D01*
Y363805D01*
X438157D01*
Y363830D01*
X438208D01*
Y363856D01*
X438309D01*
Y363881D01*
X438436D01*
Y363906D01*
X438486D01*
Y363932D01*
X438562D01*
Y363957D01*
X438689D01*
Y363982D01*
X438739D01*
Y364007D01*
X438841D01*
Y364033D01*
X438942D01*
Y364058D01*
X439043D01*
Y364083D01*
X439119D01*
Y364109D01*
X439246D01*
Y364134D01*
X439296D01*
Y364159D01*
X439575D01*
Y364134D01*
D02*
G37*
G36*
X443726Y363476D02*
X443827D01*
Y363451D01*
X443852D01*
Y363476D01*
X443878D01*
Y363451D01*
X444105D01*
Y363425D01*
X444232D01*
Y363400D01*
X444358D01*
Y363375D01*
X444485D01*
Y363349D01*
X444586D01*
Y363324D01*
X444713D01*
Y363299D01*
X444839D01*
Y363274D01*
X444890D01*
Y363248D01*
X444991D01*
Y363223D01*
X445118D01*
Y363198D01*
X445168D01*
Y363172D01*
X445270D01*
Y363147D01*
X445346D01*
Y363122D01*
X445422D01*
Y363096D01*
X445472D01*
Y363071D01*
X445548D01*
Y363046D01*
X445624D01*
Y363020D01*
X445675D01*
Y362995D01*
X445751D01*
Y362970D01*
X445801D01*
Y362945D01*
X445877D01*
Y362919D01*
X445902D01*
Y362894D01*
X445978D01*
Y362868D01*
X446054D01*
Y362843D01*
X446105D01*
Y362818D01*
X446156D01*
Y362793D01*
X446206D01*
Y362767D01*
X446257D01*
Y362742D01*
X446307D01*
Y362717D01*
X446358D01*
Y362691D01*
X446409D01*
Y362666D01*
X446485D01*
Y362641D01*
X446510D01*
Y362615D01*
X446560D01*
Y362590D01*
X446611D01*
Y362565D01*
X446662D01*
Y362540D01*
X446712D01*
Y362514D01*
X446738D01*
Y362489D01*
X446763D01*
Y362464D01*
X446814D01*
Y362438D01*
X446864D01*
Y362413D01*
X446915D01*
Y362388D01*
X446940D01*
Y362362D01*
X446991D01*
Y362337D01*
X447016D01*
Y362312D01*
X447067D01*
Y362286D01*
X447092D01*
Y362261D01*
X447143D01*
Y362236D01*
X447168D01*
Y362210D01*
X447219D01*
Y362185D01*
X447244D01*
Y362160D01*
X447269D01*
Y362135D01*
X447320D01*
Y362109D01*
X447345D01*
Y362084D01*
X447370D01*
Y362059D01*
X447421D01*
Y362033D01*
X447446D01*
Y362008D01*
X447497D01*
Y361983D01*
X447522D01*
Y361957D01*
X447548D01*
Y361932D01*
X447573D01*
Y361907D01*
X447624D01*
Y361881D01*
X447649D01*
Y361856D01*
X447674D01*
Y361831D01*
X447699D01*
Y361806D01*
X447725D01*
Y361780D01*
X447750D01*
Y361755D01*
X447801D01*
Y361730D01*
X447826D01*
Y361704D01*
X447851D01*
Y361679D01*
X447902D01*
Y361654D01*
X447927D01*
Y361628D01*
Y361603D01*
X447978D01*
Y361578D01*
X448003D01*
Y361552D01*
Y361527D01*
X448054D01*
Y361502D01*
X448079D01*
Y361476D01*
Y361451D01*
X448130D01*
Y361426D01*
X448155D01*
Y361401D01*
X448180D01*
Y361375D01*
X448206D01*
Y361350D01*
Y361325D01*
X448256D01*
Y361299D01*
Y361274D01*
X448307D01*
Y361249D01*
Y361223D01*
X448332D01*
Y361198D01*
X448358D01*
Y361173D01*
X448383D01*
Y361147D01*
X448408D01*
Y361122D01*
X448433D01*
Y361097D01*
X448459D01*
Y361071D01*
Y361046D01*
X448484D01*
Y361021D01*
X448509D01*
Y360996D01*
X448535D01*
Y360970D01*
X448560D01*
Y360945D01*
X448585D01*
Y360920D01*
X448611D01*
Y360894D01*
Y360869D01*
X448636D01*
Y360844D01*
X448661D01*
Y360818D01*
X448687D01*
Y360793D01*
Y360768D01*
X448712D01*
Y360742D01*
Y360717D01*
X448737D01*
Y360692D01*
X448763D01*
Y360666D01*
X448788D01*
Y360641D01*
Y360616D01*
X448813D01*
Y360591D01*
X448839D01*
Y360565D01*
Y360540D01*
X448889D01*
Y360515D01*
Y360489D01*
Y360464D01*
X448914D01*
Y360439D01*
X448940D01*
Y360413D01*
Y360388D01*
X448965D01*
Y360363D01*
Y360337D01*
X448990D01*
Y360312D01*
X449016D01*
Y360287D01*
Y360262D01*
X449041D01*
Y360236D01*
X449066D01*
Y360211D01*
Y360186D01*
X449092D01*
Y360160D01*
Y360135D01*
X449117D01*
Y360110D01*
Y360084D01*
X449142D01*
Y360059D01*
Y360034D01*
X449167D01*
Y360008D01*
Y359983D01*
X449193D01*
Y359958D01*
Y359932D01*
X449218D01*
Y359907D01*
Y359882D01*
X449243D01*
Y359857D01*
Y359831D01*
X449269D01*
Y359806D01*
Y359781D01*
Y359755D01*
X449294D01*
Y359730D01*
X449319D01*
Y359705D01*
Y359679D01*
Y359654D01*
Y359629D01*
Y359604D01*
Y359578D01*
X449243D01*
Y359604D01*
X449218D01*
Y359629D01*
X449193D01*
Y359654D01*
X449167D01*
Y359679D01*
Y359705D01*
X449142D01*
Y359730D01*
X449117D01*
Y359755D01*
X449092D01*
Y359781D01*
Y359806D01*
X449066D01*
Y359831D01*
X449041D01*
Y359857D01*
X449016D01*
Y359882D01*
Y359907D01*
X448990D01*
Y359932D01*
Y359958D01*
X448965D01*
Y359983D01*
X448940D01*
Y360008D01*
X448914D01*
Y360034D01*
Y360059D01*
X448889D01*
Y360084D01*
X448864D01*
Y360110D01*
X448839D01*
Y360135D01*
Y360160D01*
X448813D01*
Y360186D01*
X448788D01*
Y360211D01*
Y360236D01*
X448763D01*
Y360262D01*
X448737D01*
Y360287D01*
X448712D01*
Y360312D01*
X448687D01*
Y360337D01*
Y360363D01*
X448661D01*
Y360388D01*
X448636D01*
Y360413D01*
X448611D01*
Y360439D01*
X448585D01*
Y360464D01*
Y360489D01*
X448560D01*
Y360515D01*
X448535D01*
Y360540D01*
X448509D01*
Y360565D01*
X448484D01*
Y360591D01*
X448459D01*
Y360616D01*
X448433D01*
Y360641D01*
X448408D01*
Y360666D01*
X448383D01*
Y360692D01*
X448358D01*
Y360717D01*
X448332D01*
Y360742D01*
Y360768D01*
X448307D01*
Y360793D01*
X448282D01*
Y360818D01*
X448256D01*
Y360844D01*
X448231D01*
Y360869D01*
X448206D01*
Y360894D01*
X448180D01*
Y360920D01*
X448155D01*
Y360945D01*
X448130D01*
Y360970D01*
X448079D01*
Y360996D01*
X448054D01*
Y361021D01*
X448029D01*
Y361046D01*
X448003D01*
Y361071D01*
X447978D01*
Y361097D01*
X447927D01*
Y361122D01*
Y361147D01*
X447902D01*
Y361173D01*
X447877D01*
Y361198D01*
X447826D01*
Y361223D01*
X447801D01*
Y361249D01*
X447750D01*
Y361274D01*
X447725D01*
Y361299D01*
X447699D01*
Y361325D01*
X447649D01*
Y361350D01*
X447624D01*
Y361375D01*
X447573D01*
Y361401D01*
Y361426D01*
X447522D01*
Y361451D01*
X447472D01*
Y361476D01*
X447446D01*
Y361502D01*
X447396D01*
Y361527D01*
X447345D01*
Y361552D01*
X447320D01*
Y361578D01*
X447295D01*
Y361603D01*
X447244D01*
Y361628D01*
X447193D01*
Y361654D01*
X447143D01*
Y361679D01*
X447092D01*
Y361704D01*
X447041D01*
Y361730D01*
X447016D01*
Y361755D01*
X446940D01*
Y361780D01*
X446915D01*
Y361806D01*
X446864D01*
Y361831D01*
X446788D01*
Y361856D01*
X446763D01*
Y361881D01*
X446687D01*
Y361907D01*
X446611D01*
Y361932D01*
X446560D01*
Y361957D01*
X446485D01*
Y361983D01*
X446434D01*
Y362008D01*
X446358D01*
Y362033D01*
X446307D01*
Y362059D01*
X446181D01*
Y362084D01*
X446105D01*
Y362109D01*
X446004D01*
Y362135D01*
X445928D01*
Y362160D01*
X445725D01*
Y362185D01*
X445498D01*
Y362210D01*
X445270D01*
Y362236D01*
X445219D01*
Y362210D01*
X445092D01*
Y362236D01*
X445017D01*
Y362261D01*
X444966D01*
Y362286D01*
X444941D01*
Y362312D01*
X444915D01*
Y362337D01*
X444890D01*
Y362362D01*
X444865D01*
Y362388D01*
X444814D01*
Y362413D01*
Y362438D01*
X444789D01*
Y362464D01*
X444738D01*
Y362489D01*
X444713D01*
Y362514D01*
X444688D01*
Y362540D01*
X444637D01*
Y362565D01*
X444612D01*
Y362590D01*
X444561D01*
Y362615D01*
X444536D01*
Y362641D01*
X444510D01*
Y362666D01*
X444460D01*
Y362691D01*
X444434D01*
Y362717D01*
X444384D01*
Y362742D01*
X444358D01*
Y362767D01*
X444333D01*
Y362793D01*
X444283D01*
Y362818D01*
X444232D01*
Y362843D01*
X444207D01*
Y362868D01*
X444156D01*
Y362894D01*
X444131D01*
Y362919D01*
X444080D01*
Y362945D01*
X444030D01*
Y362970D01*
X443979D01*
Y362995D01*
X443954D01*
Y363020D01*
X443903D01*
Y363046D01*
X443878D01*
Y363071D01*
X443827D01*
Y363096D01*
X443776D01*
Y363122D01*
X443726D01*
Y363147D01*
X443675D01*
Y363172D01*
X443650D01*
Y363198D01*
X443624D01*
Y363223D01*
X443549D01*
Y363248D01*
X443498D01*
Y363274D01*
Y363299D01*
X443422D01*
Y363324D01*
X443397D01*
Y363349D01*
X443371D01*
Y363375D01*
Y363400D01*
Y363425D01*
Y363451D01*
Y363476D01*
X443422D01*
Y363501D01*
X443675D01*
Y363476D01*
X443700D01*
Y363501D01*
X443726D01*
Y363476D01*
D02*
G37*
G36*
X442663Y364995D02*
X443042D01*
Y364969D01*
X443194D01*
Y364944D01*
X443346D01*
Y364919D01*
X443498D01*
Y364893D01*
X443599D01*
Y364868D01*
X443675D01*
Y364843D01*
X443802D01*
Y364817D01*
X443852D01*
Y364792D01*
X443954D01*
Y364767D01*
X444030D01*
Y364741D01*
X444105D01*
Y364716D01*
X444181D01*
Y364691D01*
X444207D01*
Y364666D01*
X444283D01*
Y364640D01*
X444358D01*
Y364615D01*
X444409D01*
Y364590D01*
X444485D01*
Y364564D01*
X444561D01*
Y364539D01*
X444586D01*
Y364514D01*
X444662D01*
Y364488D01*
X444713D01*
Y364463D01*
X444764D01*
Y364438D01*
X444814D01*
Y364412D01*
X444865D01*
Y364387D01*
X444890D01*
Y364362D01*
X444941D01*
Y364336D01*
X444991D01*
Y364311D01*
X445017D01*
Y364286D01*
X445042D01*
Y364261D01*
X445067D01*
Y364286D01*
X445092D01*
Y364261D01*
X445118D01*
Y364235D01*
X445143D01*
Y364210D01*
X445194D01*
Y364185D01*
X445244D01*
Y364159D01*
X445270D01*
Y364134D01*
X445320D01*
Y364109D01*
X445346D01*
Y364083D01*
X445396D01*
Y364058D01*
X445422D01*
Y364033D01*
X445447D01*
Y364007D01*
X445498D01*
Y363982D01*
Y363957D01*
X445548D01*
Y363932D01*
X445573D01*
Y363906D01*
X445599D01*
Y363881D01*
X445649D01*
Y363856D01*
X445675D01*
Y363830D01*
X445700D01*
Y363805D01*
X445725D01*
Y363780D01*
X445776D01*
Y363754D01*
X445801D01*
Y363729D01*
X445826D01*
Y363704D01*
X445852D01*
Y363679D01*
X445877D01*
Y363653D01*
X445902D01*
Y363628D01*
X445928D01*
Y363602D01*
X445953D01*
Y363577D01*
X445978D01*
Y363552D01*
X446004D01*
Y363527D01*
Y363501D01*
X446029D01*
Y363476D01*
Y363451D01*
X446004D01*
Y363425D01*
X445953D01*
Y363451D01*
X445902D01*
Y363476D01*
X445877D01*
Y363501D01*
X445852D01*
Y363527D01*
X445801D01*
Y363552D01*
X445776D01*
Y363577D01*
X445751D01*
Y363602D01*
X445700D01*
Y363628D01*
X445649D01*
Y363653D01*
X445624D01*
Y363679D01*
X445548D01*
Y363704D01*
Y363729D01*
X445523D01*
Y363754D01*
X445472D01*
Y363780D01*
X445422D01*
Y363805D01*
X445371D01*
Y363830D01*
X445320D01*
Y363856D01*
X445270D01*
Y363881D01*
X445219D01*
Y363906D01*
X445168D01*
Y363932D01*
X445118D01*
Y363957D01*
X445067D01*
Y363982D01*
X445017D01*
Y364007D01*
X444941D01*
Y364033D01*
X444890D01*
Y364058D01*
X444814D01*
Y364083D01*
X444713D01*
Y364109D01*
X444688D01*
Y364134D01*
X444561D01*
Y364159D01*
X444485D01*
Y364185D01*
X444434D01*
Y364210D01*
X444283D01*
Y364235D01*
X444207D01*
Y364261D01*
X444105D01*
Y364286D01*
X443878D01*
Y364311D01*
X443650D01*
Y364336D01*
X443574D01*
Y364311D01*
X443549D01*
Y364336D01*
X443295D01*
Y364311D01*
X443245D01*
Y364336D01*
X443194D01*
Y364311D01*
X443169D01*
Y364336D01*
X443144D01*
Y364311D01*
X442916D01*
Y364286D01*
X442713D01*
Y364261D01*
X442637D01*
Y364235D01*
X442587D01*
Y364261D01*
X442561D01*
Y364235D01*
X442536D01*
Y364261D01*
X442460D01*
Y364286D01*
X442359D01*
Y364311D01*
X442283D01*
Y364336D01*
X442232D01*
Y364362D01*
X442131D01*
Y364387D01*
X442030D01*
Y364412D01*
X441929D01*
Y364438D01*
X441802D01*
Y364463D01*
X441777D01*
Y364488D01*
X441600D01*
Y364514D01*
X441321D01*
Y364539D01*
X441144D01*
Y364514D01*
X440815D01*
Y364488D01*
X440714D01*
Y364463D01*
X440638D01*
Y364438D01*
X440537D01*
Y364412D01*
X440461D01*
Y364387D01*
X440410D01*
Y364362D01*
X440385D01*
Y364336D01*
X440309D01*
Y364311D01*
X440258D01*
Y364286D01*
X440157D01*
Y364261D01*
X440132D01*
Y364235D01*
X440106D01*
Y364210D01*
X440056D01*
Y364185D01*
X440005D01*
Y364159D01*
X439954D01*
Y364185D01*
X439879D01*
Y364210D01*
Y364235D01*
X439853D01*
Y364261D01*
Y364286D01*
Y364311D01*
X439879D01*
Y364336D01*
X439904D01*
Y364362D01*
X439980D01*
Y364387D01*
X440030D01*
Y364412D01*
X440056D01*
Y364438D01*
X440132D01*
Y364463D01*
X440157D01*
Y364488D01*
X440208D01*
Y364514D01*
X440283D01*
Y364539D01*
X440334D01*
Y364564D01*
X440410D01*
Y364590D01*
X440461D01*
Y364615D01*
X440537D01*
Y364640D01*
X440587D01*
Y364666D01*
X440663D01*
Y364691D01*
X440714D01*
Y364716D01*
X440790D01*
Y364741D01*
X440866D01*
Y364767D01*
X440967D01*
Y364792D01*
X441017D01*
Y364817D01*
X441068D01*
Y364843D01*
X441195D01*
Y364868D01*
X441296D01*
Y364893D01*
X441397D01*
Y364919D01*
X441549D01*
Y364944D01*
X441726D01*
Y364969D01*
X441802D01*
Y364995D01*
X442157D01*
Y365020D01*
X442663D01*
Y364995D01*
D02*
G37*
G36*
X441271Y363856D02*
X441296D01*
Y363830D01*
X441321D01*
Y363805D01*
Y363780D01*
X441347D01*
Y363754D01*
Y363729D01*
Y363704D01*
X441372D01*
Y363679D01*
Y363653D01*
Y363628D01*
X441397D01*
Y363602D01*
X441372D01*
Y363577D01*
Y363552D01*
Y363527D01*
Y363501D01*
Y363476D01*
X441347D01*
Y363451D01*
Y363425D01*
Y363400D01*
Y363375D01*
Y363349D01*
X441321D01*
Y363324D01*
X441296D01*
Y363299D01*
Y363274D01*
X441271D01*
Y363248D01*
Y363223D01*
X441245D01*
Y363198D01*
Y363172D01*
X441220D01*
Y363147D01*
X441195D01*
Y363122D01*
Y363096D01*
X441169D01*
Y363071D01*
X441144D01*
Y363046D01*
X441093D01*
Y363020D01*
X441068D01*
Y362995D01*
X441043D01*
Y362970D01*
X441017D01*
Y362945D01*
X440967D01*
Y362919D01*
X440942D01*
Y362894D01*
X440891D01*
Y362868D01*
X440840D01*
Y362843D01*
X440790D01*
Y362818D01*
X440638D01*
Y362793D01*
X440385D01*
Y362818D01*
X440258D01*
Y362843D01*
X440208D01*
Y362868D01*
X440157D01*
Y362894D01*
X440106D01*
Y362919D01*
X440081D01*
Y362945D01*
X440030D01*
Y362970D01*
X439980D01*
Y362995D01*
Y363020D01*
X439929D01*
Y363046D01*
X439904D01*
Y363071D01*
X439879D01*
Y363096D01*
X439853D01*
Y363122D01*
Y363147D01*
X439803D01*
Y363172D01*
Y363198D01*
X439777D01*
Y363223D01*
X439752D01*
Y363248D01*
Y363274D01*
X439727D01*
Y363299D01*
Y363324D01*
X439752D01*
Y363349D01*
X439777D01*
Y363375D01*
X439803D01*
Y363400D01*
X439828D01*
Y363425D01*
X439853D01*
Y363451D01*
X439904D01*
Y363476D01*
X439929D01*
Y363501D01*
X439954D01*
Y363527D01*
X440005D01*
Y363552D01*
X440056D01*
Y363577D01*
X440081D01*
Y363602D01*
X440132D01*
Y363628D01*
X440182D01*
Y363653D01*
X440233D01*
Y363679D01*
X440309D01*
Y363704D01*
X440359D01*
Y363729D01*
X440435D01*
Y363754D01*
X440537D01*
Y363780D01*
X440613D01*
Y363805D01*
X440739D01*
Y363830D01*
X440790D01*
Y363856D01*
X441144D01*
Y363881D01*
X441271D01*
Y363856D01*
D02*
G37*
G36*
X441093Y362691D02*
X441195D01*
Y362666D01*
X441245D01*
Y362691D01*
X441271D01*
Y362666D01*
X441423D01*
Y362641D01*
X441549D01*
Y362615D01*
X441701D01*
Y362590D01*
X441802D01*
Y362565D01*
X441929D01*
Y362540D01*
X442055D01*
Y362514D01*
X442131D01*
Y362489D01*
X442157D01*
Y362514D01*
X442182D01*
Y362489D01*
X442258D01*
Y362464D01*
X442359D01*
Y362438D01*
X442460D01*
Y362413D01*
X442511D01*
Y362388D01*
X442612D01*
Y362362D01*
X442688D01*
Y362337D01*
X442764D01*
Y362312D01*
X442865D01*
Y362286D01*
X442916D01*
Y362261D01*
X442992D01*
Y362236D01*
X443093D01*
Y362210D01*
X443144D01*
Y362185D01*
X443194D01*
Y362160D01*
X443245D01*
Y362135D01*
X443321D01*
Y362109D01*
X443397D01*
Y362084D01*
X443422D01*
Y362059D01*
X443523D01*
Y362033D01*
X443574D01*
Y362008D01*
X443624D01*
Y361983D01*
X443675D01*
Y361957D01*
X443726D01*
Y361932D01*
X443802D01*
Y361907D01*
X443852D01*
Y361881D01*
X443903D01*
Y361856D01*
X443928D01*
Y361831D01*
X443979D01*
Y361806D01*
X444030D01*
Y361780D01*
X444080D01*
Y361755D01*
X444131D01*
Y361730D01*
X444181D01*
Y361704D01*
X444207D01*
Y361679D01*
X444257D01*
Y361654D01*
X444308D01*
Y361628D01*
X444333D01*
Y361603D01*
X444384D01*
Y361578D01*
X444409D01*
Y361552D01*
X444460D01*
Y361527D01*
X444510D01*
Y361502D01*
X444561D01*
Y361476D01*
X444586D01*
Y361451D01*
X444612D01*
Y361426D01*
X444637D01*
Y361401D01*
X444688D01*
Y361375D01*
X444713D01*
Y361350D01*
X444764D01*
Y361325D01*
X444814D01*
Y361299D01*
X444839D01*
Y361274D01*
X444865D01*
Y361249D01*
X444915D01*
Y361223D01*
X444941D01*
Y361198D01*
X444966D01*
Y361173D01*
X444991D01*
Y361147D01*
X445017D01*
Y361122D01*
X445067D01*
Y361097D01*
X445092D01*
Y361071D01*
X445143D01*
Y361046D01*
X445168D01*
Y361021D01*
X445194D01*
Y360996D01*
X445219D01*
Y360970D01*
X445244D01*
Y360945D01*
X445270D01*
Y360920D01*
X445320D01*
Y360894D01*
Y360869D01*
X445346D01*
Y360844D01*
X445396D01*
Y360818D01*
X445422D01*
Y360793D01*
Y360768D01*
X445472D01*
Y360742D01*
X445498D01*
Y360717D01*
X445523D01*
Y360692D01*
X445548D01*
Y360666D01*
X445573D01*
Y360641D01*
X445599D01*
Y360616D01*
X445624D01*
Y360591D01*
X445649D01*
Y360565D01*
X445675D01*
Y360540D01*
X445700D01*
Y360515D01*
Y360489D01*
X445725D01*
Y360464D01*
X445776D01*
Y360439D01*
X445801D01*
Y360413D01*
Y360388D01*
X445826D01*
Y360363D01*
X445852D01*
Y360337D01*
X445877D01*
Y360312D01*
X445902D01*
Y360287D01*
X445928D01*
Y360262D01*
X445953D01*
Y360236D01*
Y360211D01*
X445978D01*
Y360186D01*
X446004D01*
Y360160D01*
X446029D01*
Y360135D01*
X446054D01*
Y360110D01*
Y360084D01*
X446080D01*
Y360059D01*
X446105D01*
Y360034D01*
Y360008D01*
X446156D01*
Y359983D01*
Y359958D01*
X446181D01*
Y359932D01*
X446206D01*
Y359907D01*
X446232D01*
Y359882D01*
Y359857D01*
X446257D01*
Y359831D01*
Y359806D01*
X446282D01*
Y359781D01*
X446307D01*
Y359755D01*
X446333D01*
Y359730D01*
Y359705D01*
X446358D01*
Y359679D01*
X446383D01*
Y359654D01*
Y359629D01*
X446409D01*
Y359604D01*
X446434D01*
Y359578D01*
Y359553D01*
X446459D01*
Y359527D01*
X446485D01*
Y359502D01*
Y359477D01*
X446510D01*
Y359452D01*
X446535D01*
Y359426D01*
Y359401D01*
X446560D01*
Y359376D01*
X446586D01*
Y359350D01*
Y359325D01*
X446611D01*
Y359300D01*
X446636D01*
Y359274D01*
Y359249D01*
X446662D01*
Y359224D01*
Y359198D01*
X446687D01*
Y359173D01*
X446712D01*
Y359148D01*
Y359123D01*
X446738D01*
Y359097D01*
Y359072D01*
X446763D01*
Y359047D01*
X446788D01*
Y359021D01*
Y358996D01*
X446814D01*
Y358971D01*
Y358945D01*
X446839D01*
Y358920D01*
X446864D01*
Y358895D01*
Y358870D01*
Y358844D01*
X446890D01*
Y358819D01*
X446915D01*
Y358793D01*
Y358768D01*
X446940D01*
Y358743D01*
Y358718D01*
X446966D01*
Y358692D01*
Y358667D01*
X446991D01*
Y358642D01*
X447016D01*
Y358616D01*
Y358591D01*
Y358566D01*
X447041D01*
Y358540D01*
Y358515D01*
X446966D01*
Y358540D01*
X446940D01*
Y358566D01*
X446915D01*
Y358591D01*
X446890D01*
Y358616D01*
Y358642D01*
X446864D01*
Y358667D01*
X446839D01*
Y358692D01*
Y358718D01*
X446814D01*
Y358743D01*
X446788D01*
Y358768D01*
Y358793D01*
X446738D01*
Y358819D01*
Y358844D01*
X446712D01*
Y358870D01*
X446687D01*
Y358895D01*
X446662D01*
Y358920D01*
Y358945D01*
X446636D01*
Y358971D01*
X446586D01*
Y358996D01*
X446560D01*
Y359021D01*
Y359047D01*
X446535D01*
Y359072D01*
X446510D01*
Y359097D01*
X446485D01*
Y359123D01*
X446459D01*
Y359148D01*
X446434D01*
Y359173D01*
Y359198D01*
X446409D01*
Y359224D01*
X446383D01*
Y359249D01*
X446358D01*
Y359274D01*
X446333D01*
Y359300D01*
X446307D01*
Y359325D01*
X446282D01*
Y359350D01*
Y359376D01*
X446257D01*
Y359401D01*
X446232D01*
Y359426D01*
X446206D01*
Y359452D01*
X446181D01*
Y359477D01*
X446156D01*
Y359502D01*
X446105D01*
Y359527D01*
Y359553D01*
X446080D01*
Y359578D01*
X446054D01*
Y359604D01*
X446029D01*
Y359629D01*
X446004D01*
Y359654D01*
X445978D01*
Y359679D01*
X445953D01*
Y359705D01*
X445928D01*
Y359730D01*
X445902D01*
Y359755D01*
X445877D01*
Y359781D01*
X445826D01*
Y359806D01*
X445801D01*
Y359831D01*
Y359857D01*
X445751D01*
Y359882D01*
X445725D01*
Y359907D01*
X445700D01*
Y359932D01*
X445675D01*
Y359958D01*
X445649D01*
Y359983D01*
X445624D01*
Y360008D01*
X445573D01*
Y360034D01*
X445548D01*
Y360059D01*
X445523D01*
Y360084D01*
X445472D01*
Y360110D01*
X445447D01*
Y360135D01*
X445422D01*
Y360160D01*
X445371D01*
Y360186D01*
X445346D01*
Y360211D01*
X445320D01*
Y360236D01*
X445295D01*
Y360262D01*
X445270D01*
Y360287D01*
X445219D01*
Y360312D01*
X445194D01*
Y360337D01*
X445143D01*
Y360363D01*
X445118D01*
Y360388D01*
X445042D01*
Y360413D01*
X445017D01*
Y360439D01*
X444991D01*
Y360464D01*
X444941D01*
Y360489D01*
X444915D01*
Y360515D01*
X444865D01*
Y360540D01*
X444814D01*
Y360565D01*
X444764D01*
Y360591D01*
X444738D01*
Y360616D01*
X444662D01*
Y360641D01*
X444637D01*
Y360666D01*
X444586D01*
Y360692D01*
X444536D01*
Y360717D01*
X444485D01*
Y360742D01*
X444434D01*
Y360768D01*
X444358D01*
Y360793D01*
X444308D01*
Y360818D01*
X444257D01*
Y360844D01*
X444207D01*
Y360869D01*
X444131D01*
Y360894D01*
X444105D01*
Y360920D01*
X443979D01*
Y360945D01*
X443954D01*
Y360970D01*
X443852D01*
Y360996D01*
X443751D01*
Y361021D01*
X443675D01*
Y361046D01*
X443574D01*
Y361071D01*
X443447D01*
Y361097D01*
X443346D01*
Y361122D01*
X443169D01*
Y361147D01*
X443017D01*
Y361173D01*
X442688D01*
Y361198D01*
X442561D01*
Y361173D01*
X442536D01*
Y361198D01*
X442131D01*
Y361223D01*
X442106D01*
Y361249D01*
X442081D01*
Y361274D01*
X442055D01*
Y361299D01*
X442030D01*
Y361325D01*
X442005D01*
Y361350D01*
X441979D01*
Y361375D01*
Y361401D01*
X441954D01*
Y361426D01*
X441929D01*
Y361451D01*
X441903D01*
Y361476D01*
X441878D01*
Y361502D01*
X441853D01*
Y361527D01*
X441827D01*
Y361552D01*
X441802D01*
Y361578D01*
X441777D01*
Y361603D01*
Y361628D01*
X441751D01*
Y361654D01*
X441726D01*
Y361679D01*
X441701D01*
Y361704D01*
X441676D01*
Y361730D01*
X441650D01*
Y361755D01*
X441600D01*
Y361780D01*
X441574D01*
Y361806D01*
X441549D01*
Y361831D01*
X441524D01*
Y361856D01*
X441498D01*
Y361881D01*
X441473D01*
Y361907D01*
X441448D01*
Y361932D01*
X441397D01*
Y361957D01*
X441372D01*
Y361983D01*
X441321D01*
Y362008D01*
X441296D01*
Y362033D01*
X441245D01*
Y362059D01*
X441195D01*
Y362084D01*
X441144D01*
Y362109D01*
X441119D01*
Y362135D01*
X441043D01*
Y362160D01*
X440992D01*
Y362185D01*
X440942D01*
Y362210D01*
X440891D01*
Y362236D01*
X440815D01*
Y362261D01*
X440739D01*
Y362286D01*
X440689D01*
Y362312D01*
X440587D01*
Y362337D01*
X440511D01*
Y362362D01*
X440461D01*
Y362388D01*
X440385D01*
Y362413D01*
X440283D01*
Y362438D01*
X440233D01*
Y362464D01*
X440132D01*
Y362489D01*
X440056D01*
Y362514D01*
X439980D01*
Y362540D01*
X439904D01*
Y362565D01*
X439879D01*
Y362590D01*
X439828D01*
Y362615D01*
X439803D01*
Y362641D01*
Y362666D01*
Y362691D01*
X439980D01*
Y362666D01*
X440132D01*
Y362641D01*
X440283D01*
Y362615D01*
X440739D01*
Y362641D01*
X440840D01*
Y362666D01*
X441017D01*
Y362691D01*
X441068D01*
Y362717D01*
X441093D01*
Y362691D01*
D02*
G37*
G36*
X445624Y361856D02*
X445751D01*
Y361831D01*
X445928D01*
Y361806D01*
X446004D01*
Y361780D01*
X446105D01*
Y361755D01*
X446232D01*
Y361730D01*
X446282D01*
Y361704D01*
X446358D01*
Y361679D01*
X446459D01*
Y361654D01*
X446510D01*
Y361628D01*
X446560D01*
Y361603D01*
X446611D01*
Y361578D01*
X446662D01*
Y361552D01*
X446712D01*
Y361527D01*
X446788D01*
Y361502D01*
X446814D01*
Y361476D01*
X446864D01*
Y361451D01*
X446915D01*
Y361426D01*
X446966D01*
Y361401D01*
X447016D01*
Y361375D01*
X447041D01*
Y361350D01*
X447067D01*
Y361325D01*
X447117D01*
Y361299D01*
X447143D01*
Y361274D01*
X447193D01*
Y361249D01*
X447219D01*
Y361223D01*
X447244D01*
Y361198D01*
X447295D01*
Y361173D01*
X447320D01*
Y361147D01*
X447345D01*
Y361122D01*
X447396D01*
Y361097D01*
X447421D01*
Y361071D01*
X447446D01*
Y361046D01*
X447497D01*
Y361021D01*
Y360996D01*
X447548D01*
Y360970D01*
X447573D01*
Y360945D01*
Y360920D01*
X447624D01*
Y360894D01*
X447649D01*
Y360869D01*
X447674D01*
Y360844D01*
X447699D01*
Y360818D01*
X447725D01*
Y360793D01*
Y360768D01*
X447775D01*
Y360742D01*
X447801D01*
Y360717D01*
Y360692D01*
X447826D01*
Y360666D01*
X447851D01*
Y360641D01*
X447877D01*
Y360616D01*
X447902D01*
Y360591D01*
X447927D01*
Y360565D01*
X447953D01*
Y360540D01*
X447978D01*
Y360515D01*
X448003D01*
Y360489D01*
Y360464D01*
X448054D01*
Y360439D01*
Y360413D01*
X448079D01*
Y360388D01*
X448104D01*
Y360363D01*
Y360337D01*
X448130D01*
Y360312D01*
X448155D01*
Y360287D01*
X448180D01*
Y360262D01*
X448206D01*
Y360236D01*
X448231D01*
Y360211D01*
Y360186D01*
X448256D01*
Y360160D01*
Y360135D01*
X448282D01*
Y360110D01*
X448307D01*
Y360084D01*
X448332D01*
Y360059D01*
Y360034D01*
X448358D01*
Y360008D01*
X448383D01*
Y359983D01*
X448408D01*
Y359958D01*
Y359932D01*
X448433D01*
Y359907D01*
X448459D01*
Y359882D01*
Y359857D01*
X448484D01*
Y359831D01*
X448509D01*
Y359806D01*
Y359781D01*
X448535D01*
Y359755D01*
X448560D01*
Y359730D01*
Y359705D01*
X448585D01*
Y359679D01*
Y359654D01*
X448611D01*
Y359629D01*
X448636D01*
Y359604D01*
Y359578D01*
X448661D01*
Y359553D01*
Y359527D01*
X448687D01*
Y359502D01*
X448712D01*
Y359477D01*
Y359452D01*
X448737D01*
Y359426D01*
Y359401D01*
X448763D01*
Y359376D01*
X448788D01*
Y359350D01*
Y359325D01*
Y359300D01*
X448813D01*
Y359274D01*
Y359249D01*
X448864D01*
Y359224D01*
Y359198D01*
Y359173D01*
X448889D01*
Y359148D01*
Y359123D01*
X448914D01*
Y359097D01*
Y359072D01*
X448940D01*
Y359047D01*
Y359021D01*
Y358996D01*
X448965D01*
Y358971D01*
Y358945D01*
X448990D01*
Y358920D01*
X449016D01*
Y358895D01*
Y358870D01*
Y358844D01*
X449041D01*
Y358819D01*
Y358793D01*
X449066D01*
Y358768D01*
Y358743D01*
X449092D01*
Y358718D01*
Y358692D01*
Y358667D01*
X449117D01*
Y358642D01*
X449142D01*
Y358616D01*
Y358591D01*
Y358566D01*
X449167D01*
Y358540D01*
Y358515D01*
Y358490D01*
X449193D01*
Y358465D01*
X449218D01*
Y358439D01*
Y358414D01*
Y358388D01*
X449243D01*
Y358363D01*
Y358338D01*
Y358313D01*
X449269D01*
Y358287D01*
Y358262D01*
X449294D01*
Y358237D01*
Y358211D01*
Y358186D01*
X449319D01*
Y358161D01*
Y358135D01*
Y358110D01*
X449345D01*
Y358085D01*
Y358060D01*
Y358034D01*
Y358009D01*
X449370D01*
Y357984D01*
Y357958D01*
Y357933D01*
X449395D01*
Y357908D01*
Y357882D01*
X449421D01*
Y357857D01*
Y357832D01*
Y357806D01*
Y357781D01*
X449446D01*
Y357756D01*
Y357731D01*
Y357705D01*
X449471D01*
Y357680D01*
Y357655D01*
Y357629D01*
Y357604D01*
X449497D01*
Y357579D01*
Y357553D01*
Y357528D01*
Y357503D01*
Y357477D01*
X449522D01*
Y357452D01*
Y357427D01*
Y357401D01*
Y357376D01*
Y357351D01*
X449547D01*
Y357326D01*
Y357300D01*
Y357275D01*
X449522D01*
Y357250D01*
Y357224D01*
X449471D01*
Y357250D01*
X449446D01*
Y357275D01*
Y357300D01*
Y357326D01*
X449421D01*
Y357351D01*
Y357376D01*
X449395D01*
Y357401D01*
Y357427D01*
Y357452D01*
Y357477D01*
X449370D01*
Y357503D01*
Y357528D01*
X449345D01*
Y357553D01*
Y357579D01*
X449319D01*
Y357604D01*
Y357629D01*
Y357655D01*
X449294D01*
Y357680D01*
Y357705D01*
X449269D01*
Y357731D01*
Y357756D01*
X449243D01*
Y357781D01*
Y357806D01*
Y357832D01*
X449218D01*
Y357857D01*
Y357882D01*
X449193D01*
Y357908D01*
Y357933D01*
X449167D01*
Y357958D01*
Y357984D01*
Y358009D01*
X449142D01*
Y358034D01*
Y358060D01*
X449117D01*
Y358085D01*
X449092D01*
Y358110D01*
Y358135D01*
Y358161D01*
X449066D01*
Y358186D01*
Y358211D01*
X449041D01*
Y358237D01*
X449016D01*
Y358262D01*
Y358287D01*
X448990D01*
Y358313D01*
Y358338D01*
X448965D01*
Y358363D01*
Y358388D01*
X448940D01*
Y358414D01*
X448914D01*
Y358439D01*
Y358465D01*
X448889D01*
Y358490D01*
Y358515D01*
X448864D01*
Y358540D01*
Y358566D01*
X448813D01*
Y358591D01*
Y358616D01*
Y358642D01*
X448788D01*
Y358667D01*
X448763D01*
Y358692D01*
X448737D01*
Y358718D01*
Y358743D01*
X448712D01*
Y358768D01*
X448687D01*
Y358793D01*
X448661D01*
Y358819D01*
Y358844D01*
X448636D01*
Y358870D01*
Y358895D01*
X448611D01*
Y358920D01*
X448585D01*
Y358945D01*
X448560D01*
Y358971D01*
X448535D01*
Y358996D01*
X448509D01*
Y359021D01*
X448484D01*
Y359047D01*
Y359072D01*
X448459D01*
Y359097D01*
X448433D01*
Y359123D01*
X448408D01*
Y359148D01*
X448383D01*
Y359173D01*
X448358D01*
Y359198D01*
X448332D01*
Y359224D01*
X448307D01*
Y359249D01*
X448282D01*
Y359274D01*
X448256D01*
Y359300D01*
X448231D01*
Y359325D01*
X448206D01*
Y359350D01*
X448180D01*
Y359376D01*
X448155D01*
Y359401D01*
X448130D01*
Y359426D01*
X448104D01*
Y359452D01*
X448079D01*
Y359477D01*
X448054D01*
Y359502D01*
X448029D01*
Y359527D01*
X448003D01*
Y359553D01*
X447953D01*
Y359578D01*
X447927D01*
Y359604D01*
X447877D01*
Y359629D01*
X447851D01*
Y359654D01*
X447801D01*
Y359679D01*
X447775D01*
Y359705D01*
X447725D01*
Y359730D01*
X447699D01*
Y359755D01*
X447649D01*
Y359781D01*
X447598D01*
Y359806D01*
X447573D01*
Y359831D01*
X447522D01*
Y359857D01*
X447446D01*
Y359882D01*
X447396D01*
Y359907D01*
X447345D01*
Y359932D01*
X447269D01*
Y359958D01*
X447219D01*
Y359983D01*
X447143D01*
Y360008D01*
X447016D01*
Y360034D01*
X446940D01*
Y360059D01*
X446788D01*
Y360084D01*
X446738D01*
Y360110D01*
Y360135D01*
Y360160D01*
X446712D01*
Y360186D01*
X446687D01*
Y360211D01*
Y360236D01*
X446662D01*
Y360262D01*
Y360287D01*
X446636D01*
Y360312D01*
Y360337D01*
Y360363D01*
X446611D01*
Y360388D01*
X446586D01*
Y360413D01*
Y360439D01*
X446560D01*
Y360464D01*
Y360489D01*
X446535D01*
Y360515D01*
Y360540D01*
X446510D01*
Y360565D01*
Y360591D01*
X446485D01*
Y360616D01*
X446459D01*
Y360641D01*
Y360666D01*
X446434D01*
Y360692D01*
X446409D01*
Y360717D01*
Y360742D01*
X446383D01*
Y360768D01*
Y360793D01*
X446358D01*
Y360818D01*
X446333D01*
Y360844D01*
Y360869D01*
X446307D01*
Y360894D01*
X446282D01*
Y360920D01*
X446257D01*
Y360945D01*
Y360970D01*
X446232D01*
Y360996D01*
X446206D01*
Y361021D01*
Y361046D01*
X446181D01*
Y361071D01*
X446156D01*
Y361097D01*
X446130D01*
Y361122D01*
X446105D01*
Y361147D01*
Y361173D01*
X446080D01*
Y361198D01*
X446054D01*
Y361223D01*
X446029D01*
Y361249D01*
X446004D01*
Y361274D01*
X445978D01*
Y361299D01*
X445953D01*
Y361325D01*
Y361350D01*
X445928D01*
Y361375D01*
X445902D01*
Y361401D01*
X445877D01*
Y361426D01*
X445852D01*
Y361451D01*
X445801D01*
Y361476D01*
X445776D01*
Y361502D01*
X445751D01*
Y361527D01*
X445725D01*
Y361552D01*
X445700D01*
Y361578D01*
Y361603D01*
X445649D01*
Y361628D01*
X445624D01*
Y361654D01*
Y361679D01*
X445573D01*
Y361704D01*
X445548D01*
Y361730D01*
X445523D01*
Y361755D01*
Y361780D01*
X445472D01*
Y361806D01*
X445447D01*
Y361831D01*
X445472D01*
Y361856D01*
Y361881D01*
X445573D01*
Y361856D01*
X445599D01*
Y361881D01*
X445624D01*
Y361856D01*
D02*
G37*
G36*
X442359Y361021D02*
X442410D01*
Y360996D01*
X442486D01*
Y360970D01*
X442663D01*
Y360945D01*
X442764D01*
Y360920D01*
X442941D01*
Y360894D01*
X443068D01*
Y360869D01*
X443169D01*
Y360844D01*
X443321D01*
Y360818D01*
X443371D01*
Y360793D01*
X443498D01*
Y360768D01*
X443624D01*
Y360742D01*
X443675D01*
Y360717D01*
X443776D01*
Y360692D01*
X443878D01*
Y360666D01*
X443928D01*
Y360641D01*
X443979D01*
Y360616D01*
X444080D01*
Y360591D01*
X444131D01*
Y360565D01*
X444207D01*
Y360540D01*
X444283D01*
Y360515D01*
X444333D01*
Y360489D01*
X444384D01*
Y360464D01*
X444460D01*
Y360439D01*
X444510D01*
Y360413D01*
X444561D01*
Y360388D01*
X444612D01*
Y360363D01*
X444662D01*
Y360337D01*
X444713D01*
Y360312D01*
X444764D01*
Y360287D01*
X444814D01*
Y360262D01*
X444865D01*
Y360236D01*
X444915D01*
Y360211D01*
X444941D01*
Y360186D01*
X444966D01*
Y360160D01*
X445017D01*
Y360135D01*
X445067D01*
Y360110D01*
X445118D01*
Y360084D01*
X445143D01*
Y360059D01*
X445194D01*
Y360034D01*
X445219D01*
Y360008D01*
X445244D01*
Y359983D01*
X445295D01*
Y359958D01*
X445320D01*
Y359932D01*
X445346D01*
Y359907D01*
X445371D01*
Y359882D01*
X445396D01*
Y359857D01*
X445447D01*
Y359831D01*
X445472D01*
Y359806D01*
Y359781D01*
X445523D01*
Y359755D01*
X445548D01*
Y359730D01*
X445573D01*
Y359705D01*
X445599D01*
Y359679D01*
X445624D01*
Y359654D01*
Y359629D01*
X445675D01*
Y359604D01*
X445700D01*
Y359578D01*
Y359553D01*
X445725D01*
Y359527D01*
X445751D01*
Y359502D01*
X445776D01*
Y359477D01*
X445801D01*
Y359452D01*
Y359426D01*
X445826D01*
Y359401D01*
X445852D01*
Y359376D01*
X445877D01*
Y359350D01*
X445902D01*
Y359325D01*
X445928D01*
Y359300D01*
X445953D01*
Y359274D01*
Y359249D01*
X445978D01*
Y359224D01*
Y359198D01*
X446004D01*
Y359173D01*
X446029D01*
Y359148D01*
Y359123D01*
X446054D01*
Y359097D01*
X446080D01*
Y359072D01*
X446105D01*
Y359047D01*
Y359021D01*
Y358996D01*
X446130D01*
Y358971D01*
Y358945D01*
X446156D01*
Y358920D01*
X446181D01*
Y358895D01*
Y358870D01*
X446206D01*
Y358844D01*
Y358819D01*
X446232D01*
Y358793D01*
Y358768D01*
X446257D01*
Y358743D01*
Y358718D01*
X446282D01*
Y358692D01*
Y358667D01*
X446307D01*
Y358642D01*
X446333D01*
Y358616D01*
X446307D01*
Y358591D01*
X446257D01*
Y358616D01*
X446232D01*
Y358642D01*
X446206D01*
Y358667D01*
X446181D01*
Y358692D01*
X446156D01*
Y358718D01*
X446130D01*
Y358743D01*
X446105D01*
Y358768D01*
X446080D01*
Y358793D01*
X446054D01*
Y358819D01*
X446029D01*
Y358844D01*
Y358870D01*
X446004D01*
Y358895D01*
X445978D01*
Y358920D01*
X445928D01*
Y358945D01*
Y358971D01*
X445902D01*
Y358996D01*
X445852D01*
Y359021D01*
X445826D01*
Y359047D01*
X445801D01*
Y359072D01*
X445776D01*
Y359097D01*
X445751D01*
Y359123D01*
X445700D01*
Y359148D01*
X445675D01*
Y359173D01*
X445624D01*
Y359198D01*
Y359224D01*
X445573D01*
Y359249D01*
X445523D01*
Y359274D01*
X445498D01*
Y359300D01*
X445472D01*
Y359325D01*
X445396D01*
Y359350D01*
X445371D01*
Y359376D01*
X445346D01*
Y359401D01*
X445270D01*
Y359426D01*
X445219D01*
Y359452D01*
X445194D01*
Y359477D01*
X445143D01*
Y359502D01*
X445092D01*
Y359527D01*
X445042D01*
Y359553D01*
X444966D01*
Y359578D01*
X444915D01*
Y359604D01*
X444865D01*
Y359629D01*
X444789D01*
Y359654D01*
X444738D01*
Y359679D01*
X444688D01*
Y359705D01*
X444586D01*
Y359730D01*
X444510D01*
Y359755D01*
X444460D01*
Y359781D01*
X444358D01*
Y359806D01*
X444308D01*
Y359831D01*
X444232D01*
Y359857D01*
X444131D01*
Y359882D01*
X444055D01*
Y359907D01*
X443979D01*
Y359932D01*
X443852D01*
Y359958D01*
X443776D01*
Y359983D01*
X443675D01*
Y360008D01*
X443498D01*
Y360034D01*
X443397D01*
Y360059D01*
X443245D01*
Y360084D01*
X443093D01*
Y360110D01*
X443017D01*
Y360135D01*
X442814D01*
Y360160D01*
X442688D01*
Y360186D01*
X442663D01*
Y360160D01*
X442637D01*
Y360186D01*
X442410D01*
Y360211D01*
X442182D01*
Y360236D01*
X441853D01*
Y360262D01*
X441195D01*
Y360287D01*
X441144D01*
Y360312D01*
X441119D01*
Y360337D01*
Y360363D01*
X441093D01*
Y360388D01*
Y360413D01*
Y360439D01*
X441119D01*
Y360464D01*
X441144D01*
Y360489D01*
X441245D01*
Y360515D01*
X441574D01*
Y360540D01*
X441600D01*
Y360515D01*
X441676D01*
Y360540D01*
X441777D01*
Y360565D01*
X441802D01*
Y360591D01*
X441827D01*
Y360616D01*
X441853D01*
Y360641D01*
X441878D01*
Y360666D01*
X441903D01*
Y360692D01*
X441929D01*
Y360717D01*
X441954D01*
Y360742D01*
Y360768D01*
X441979D01*
Y360793D01*
X442005D01*
Y360818D01*
X442030D01*
Y360844D01*
Y360869D01*
X442055D01*
Y360894D01*
X442081D01*
Y360920D01*
X442106D01*
Y360945D01*
X442131D01*
Y360970D01*
X442157D01*
Y360996D01*
X442182D01*
Y361021D01*
X442258D01*
Y361046D01*
X442308D01*
Y361021D01*
X442334D01*
Y361046D01*
X442359D01*
Y361021D01*
D02*
G37*
G36*
X445194Y364893D02*
X445295D01*
Y364868D01*
X445346D01*
Y364893D01*
X445371D01*
Y364868D01*
X445523D01*
Y364843D01*
X445675D01*
Y364817D01*
X445700D01*
Y364843D01*
X445776D01*
Y364817D01*
X445826D01*
Y364792D01*
X445953D01*
Y364767D01*
X446080D01*
Y364741D01*
X446181D01*
Y364716D01*
X446282D01*
Y364691D01*
X446333D01*
Y364666D01*
X446358D01*
Y364691D01*
X446383D01*
Y364666D01*
X446459D01*
Y364640D01*
X446560D01*
Y364615D01*
X446586D01*
Y364590D01*
X446712D01*
Y364564D01*
X446788D01*
Y364539D01*
X446839D01*
Y364514D01*
X446940D01*
Y364488D01*
X447016D01*
Y364463D01*
X447067D01*
Y364438D01*
X447143D01*
Y364412D01*
X447193D01*
Y364387D01*
X447269D01*
Y364362D01*
X447345D01*
Y364336D01*
X447396D01*
Y364311D01*
X447472D01*
Y364286D01*
X447522D01*
Y364261D01*
X447573D01*
Y364235D01*
X447624D01*
Y364210D01*
X447699D01*
Y364185D01*
X447750D01*
Y364159D01*
X447801D01*
Y364134D01*
X447877D01*
Y364109D01*
X447902D01*
Y364083D01*
X447953D01*
Y364058D01*
X448029D01*
Y364033D01*
X448054D01*
Y364007D01*
X448104D01*
Y363982D01*
X448155D01*
Y363957D01*
X448231D01*
Y363932D01*
X448256D01*
Y363906D01*
X448307D01*
Y363881D01*
X448358D01*
Y363856D01*
X448408D01*
Y363830D01*
X448433D01*
Y363805D01*
X448509D01*
Y363780D01*
X448535D01*
Y363754D01*
X448611D01*
Y363729D01*
X448636D01*
Y363704D01*
X448687D01*
Y363679D01*
X448712D01*
Y363653D01*
X448763D01*
Y363628D01*
X448788D01*
Y363602D01*
X448839D01*
Y363577D01*
X448889D01*
Y363552D01*
X448940D01*
Y363527D01*
X448990D01*
Y363501D01*
X449016D01*
Y363476D01*
X449041D01*
Y363451D01*
X449092D01*
Y363425D01*
X449117D01*
Y363400D01*
X449167D01*
Y363375D01*
X449193D01*
Y363349D01*
X449218D01*
Y363324D01*
X449243D01*
Y363299D01*
X449294D01*
Y363274D01*
X449345D01*
Y363248D01*
X449370D01*
Y363223D01*
X449395D01*
Y363198D01*
X449446D01*
Y363172D01*
X449471D01*
Y363147D01*
X449497D01*
Y363122D01*
X449522D01*
Y363096D01*
X449598D01*
Y363071D01*
X449623D01*
Y363046D01*
X449648D01*
Y363020D01*
X449674D01*
Y362995D01*
X449724D01*
Y362970D01*
X449750D01*
Y362945D01*
X449775D01*
Y362919D01*
X449826D01*
Y362894D01*
X449851D01*
Y362868D01*
X449876D01*
Y362843D01*
X449927D01*
Y362818D01*
X449952D01*
Y362793D01*
X449977D01*
Y362767D01*
X450003D01*
Y362742D01*
X450053D01*
Y362717D01*
X450079D01*
Y362691D01*
X450104D01*
Y362666D01*
X450155D01*
Y362641D01*
X450180D01*
Y362615D01*
Y362590D01*
X450231D01*
Y362565D01*
X450256D01*
Y362540D01*
X450281D01*
Y362514D01*
X450307D01*
Y362489D01*
X450332D01*
Y362464D01*
X450382D01*
Y362438D01*
Y362413D01*
X450408D01*
Y362388D01*
X450458D01*
Y362362D01*
X450484D01*
Y362337D01*
X450509D01*
Y362312D01*
X450534D01*
Y362286D01*
X450560D01*
Y362261D01*
X450585D01*
Y362236D01*
X450610D01*
Y362210D01*
X450635D01*
Y362185D01*
X450661D01*
Y362160D01*
X450711D01*
Y362135D01*
Y362109D01*
X450737D01*
Y362084D01*
X450762D01*
Y362059D01*
X450787D01*
Y362033D01*
X450813D01*
Y362008D01*
X450838D01*
Y361983D01*
X450889D01*
Y361957D01*
Y361932D01*
X450914D01*
Y361907D01*
X450965D01*
Y361881D01*
X450990D01*
Y361856D01*
Y361831D01*
X451015D01*
Y361806D01*
X451041D01*
Y361780D01*
X451066D01*
Y361755D01*
X451091D01*
Y361730D01*
X451116D01*
Y361704D01*
X451142D01*
Y361679D01*
X451167D01*
Y361654D01*
X451192D01*
Y361628D01*
X451218D01*
Y361603D01*
X451243D01*
Y361578D01*
Y361552D01*
X451268D01*
Y361527D01*
X451319D01*
Y361502D01*
Y361476D01*
X451344D01*
Y361451D01*
X451369D01*
Y361426D01*
X451395D01*
Y361401D01*
X451420D01*
Y361375D01*
X451445D01*
Y361350D01*
Y361325D01*
X451496D01*
Y361299D01*
Y361274D01*
X451521D01*
Y361249D01*
X451547D01*
Y361223D01*
X451572D01*
Y361198D01*
X451597D01*
Y361173D01*
Y361147D01*
X451623D01*
Y361122D01*
X451648D01*
Y361097D01*
X451673D01*
Y361071D01*
X451699D01*
Y361046D01*
Y361021D01*
X451724D01*
Y360996D01*
Y360970D01*
X451749D01*
Y360945D01*
X451775D01*
Y360920D01*
Y360894D01*
Y360869D01*
X451749D01*
Y360894D01*
X451724D01*
Y360920D01*
X451699D01*
Y360945D01*
X451673D01*
Y360970D01*
X451648D01*
Y360996D01*
X451623D01*
Y361021D01*
Y361046D01*
X451597D01*
Y361071D01*
X451547D01*
Y361097D01*
X451521D01*
Y361122D01*
Y361147D01*
X451496D01*
Y361173D01*
X451471D01*
Y361198D01*
X451420D01*
Y361223D01*
Y361249D01*
X451395D01*
Y361274D01*
X451369D01*
Y361299D01*
X451344D01*
Y361325D01*
X451319D01*
Y361350D01*
X451268D01*
Y361375D01*
X451243D01*
Y361401D01*
X451218D01*
Y361426D01*
X451192D01*
Y361451D01*
X451167D01*
Y361476D01*
X451142D01*
Y361502D01*
X451116D01*
Y361527D01*
X451091D01*
Y361552D01*
X451041D01*
Y361578D01*
X451015D01*
Y361603D01*
X450990D01*
Y361628D01*
X450965D01*
Y361654D01*
X450939D01*
Y361679D01*
X450914D01*
Y361704D01*
X450889D01*
Y361730D01*
X450863D01*
Y361755D01*
X450838D01*
Y361780D01*
X450813D01*
Y361806D01*
X450787D01*
Y361831D01*
X450737D01*
Y361856D01*
X450711D01*
Y361881D01*
X450686D01*
Y361907D01*
X450661D01*
Y361932D01*
X450635D01*
Y361957D01*
X450610D01*
Y361983D01*
X450534D01*
Y362008D01*
Y362033D01*
X450509D01*
Y362059D01*
X450458D01*
Y362084D01*
X450433D01*
Y362109D01*
X450408D01*
Y362135D01*
X450357D01*
Y362160D01*
X450332D01*
Y362185D01*
X450307D01*
Y362210D01*
X450281D01*
Y362236D01*
X450231D01*
Y362261D01*
X450205D01*
Y362286D01*
X450180D01*
Y362312D01*
X450129D01*
Y362337D01*
X450104D01*
Y362362D01*
X450079D01*
Y362388D01*
X450028D01*
Y362413D01*
X449977D01*
Y362438D01*
X449952D01*
Y362464D01*
X449927D01*
Y362489D01*
X449876D01*
Y362514D01*
X449851D01*
Y362540D01*
X449800D01*
Y362565D01*
X449750D01*
Y362590D01*
X449724D01*
Y362615D01*
X449699D01*
Y362641D01*
X449648D01*
Y362666D01*
X449623D01*
Y362691D01*
X449547D01*
Y362717D01*
X449522D01*
Y362742D01*
X449471D01*
Y362767D01*
X449446D01*
Y362793D01*
X449395D01*
Y362818D01*
X449319D01*
Y362843D01*
X449294D01*
Y362868D01*
X449243D01*
Y362894D01*
X449167D01*
Y362919D01*
X449142D01*
Y362945D01*
X449092D01*
Y362970D01*
X449041D01*
Y362995D01*
X449016D01*
Y363020D01*
X448940D01*
Y363046D01*
X448889D01*
Y363071D01*
X448839D01*
Y363096D01*
X448763D01*
Y363122D01*
X448712D01*
Y363147D01*
X448636D01*
Y363172D01*
X448560D01*
Y363198D01*
X448535D01*
Y363223D01*
X448408D01*
Y363248D01*
X448358D01*
Y363274D01*
X448332D01*
Y363299D01*
X448206D01*
Y363324D01*
X448130D01*
Y363349D01*
X448054D01*
Y363375D01*
X447927D01*
Y363400D01*
X447851D01*
Y363425D01*
X447699D01*
Y363451D01*
X447497D01*
Y363476D01*
X447345D01*
Y363501D01*
X446383D01*
Y363527D01*
X446333D01*
Y363552D01*
X446307D01*
Y363577D01*
Y363602D01*
X446257D01*
Y363628D01*
Y363653D01*
X446232D01*
Y363679D01*
X446181D01*
Y363704D01*
X446156D01*
Y363729D01*
X446130D01*
Y363754D01*
X446105D01*
Y363780D01*
X446080D01*
Y363805D01*
X446029D01*
Y363830D01*
Y363856D01*
X445978D01*
Y363881D01*
X445953D01*
Y363906D01*
X445928D01*
Y363932D01*
X445902D01*
Y363957D01*
X445877D01*
Y363982D01*
X445826D01*
Y364007D01*
Y364033D01*
X445776D01*
Y364058D01*
X445751D01*
Y364083D01*
X445725D01*
Y364109D01*
X445700D01*
Y364134D01*
X445649D01*
Y364159D01*
X445624D01*
Y364185D01*
X445573D01*
Y364210D01*
X445548D01*
Y364235D01*
X445523D01*
Y364261D01*
X445472D01*
Y364286D01*
X445422D01*
Y364311D01*
X445396D01*
Y364336D01*
X445371D01*
Y364362D01*
X445320D01*
Y364387D01*
X445295D01*
Y364412D01*
X445270D01*
Y364438D01*
X445194D01*
Y364463D01*
X445168D01*
Y364488D01*
X445143D01*
Y364514D01*
X445092D01*
Y364539D01*
X445042D01*
Y364564D01*
X445017D01*
Y364590D01*
X444966D01*
Y364615D01*
X444915D01*
Y364640D01*
X444865D01*
Y364666D01*
X444814D01*
Y364691D01*
X444764D01*
Y364716D01*
X444713D01*
Y364741D01*
X444662D01*
Y364767D01*
X444586D01*
Y364792D01*
X444561D01*
Y364817D01*
X444536D01*
Y364843D01*
X444485D01*
Y364868D01*
Y364893D01*
Y364919D01*
X445194D01*
Y364893D01*
D02*
G37*
G36*
X441701Y363906D02*
X441751D01*
Y363881D01*
X441853D01*
Y363856D01*
X441954D01*
Y363830D01*
X441979D01*
Y363805D01*
X442081D01*
Y363780D01*
X442131D01*
Y363754D01*
X442232D01*
Y363729D01*
X442283D01*
Y363704D01*
X442334D01*
Y363679D01*
X442410D01*
Y363653D01*
X442460D01*
Y363628D01*
X442511D01*
Y363602D01*
X442587D01*
Y363577D01*
X442663D01*
Y363552D01*
X442688D01*
Y363527D01*
X442764D01*
Y363501D01*
X442814D01*
Y363476D01*
X442840D01*
Y363451D01*
X442891D01*
Y363425D01*
X442966D01*
Y363400D01*
X442992D01*
Y363375D01*
X443068D01*
Y363349D01*
X443093D01*
Y363324D01*
X443144D01*
Y363299D01*
X443194D01*
Y363274D01*
X443220D01*
Y363248D01*
X443270D01*
Y363223D01*
X443321D01*
Y363198D01*
X443371D01*
Y363172D01*
X443422D01*
Y363147D01*
X443447D01*
Y363122D01*
X443498D01*
Y363096D01*
X443549D01*
Y363071D01*
X443574D01*
Y363046D01*
X443624D01*
Y363020D01*
X443650D01*
Y362995D01*
X443700D01*
Y362970D01*
X443751D01*
Y362945D01*
X443776D01*
Y362919D01*
X443802D01*
Y362894D01*
X443878D01*
Y362868D01*
X443903D01*
Y362843D01*
X443928D01*
Y362818D01*
X443979D01*
Y362793D01*
X444030D01*
Y362767D01*
X444055D01*
Y362742D01*
X444080D01*
Y362717D01*
X444131D01*
Y362691D01*
X444156D01*
Y362666D01*
X444207D01*
Y362641D01*
X444232D01*
Y362615D01*
X444257D01*
Y362590D01*
X444308D01*
Y362565D01*
X444333D01*
Y362540D01*
X444384D01*
Y362514D01*
X444409D01*
Y362489D01*
Y362464D01*
X444460D01*
Y362438D01*
X444485D01*
Y362413D01*
X444510D01*
Y362388D01*
X444561D01*
Y362362D01*
Y362337D01*
X444612D01*
Y362312D01*
X444662D01*
Y362286D01*
Y362261D01*
X444713D01*
Y362236D01*
X444738D01*
Y362210D01*
X444764D01*
Y362185D01*
X444789D01*
Y362160D01*
X444839D01*
Y362135D01*
X444865D01*
Y362109D01*
X444890D01*
Y362084D01*
X444915D01*
Y362059D01*
X444941D01*
Y362033D01*
X444966D01*
Y362008D01*
X444991D01*
Y361983D01*
X445042D01*
Y361957D01*
X445067D01*
Y361932D01*
X445092D01*
Y361907D01*
X445118D01*
Y361881D01*
X445143D01*
Y361856D01*
X445168D01*
Y361831D01*
X445219D01*
Y361806D01*
Y361780D01*
X445244D01*
Y361755D01*
X445295D01*
Y361730D01*
X445320D01*
Y361704D01*
X445346D01*
Y361679D01*
X445371D01*
Y361654D01*
X445396D01*
Y361628D01*
X445422D01*
Y361603D01*
X445447D01*
Y361578D01*
X445472D01*
Y361552D01*
Y361527D01*
X445523D01*
Y361502D01*
X445548D01*
Y361476D01*
X445573D01*
Y361451D01*
Y361426D01*
X445624D01*
Y361401D01*
X445649D01*
Y361375D01*
X445675D01*
Y361350D01*
X445700D01*
Y361325D01*
X445725D01*
Y361299D01*
X445751D01*
Y361274D01*
X445776D01*
Y361249D01*
X445801D01*
Y361223D01*
X445826D01*
Y361198D01*
X445852D01*
Y361173D01*
X445877D01*
Y361147D01*
X445902D01*
Y361122D01*
X445928D01*
Y361097D01*
X445953D01*
Y361071D01*
Y361046D01*
X446004D01*
Y361021D01*
X446029D01*
Y360996D01*
Y360970D01*
X446054D01*
Y360945D01*
X446080D01*
Y360920D01*
X446105D01*
Y360894D01*
Y360869D01*
X446130D01*
Y360844D01*
X446156D01*
Y360818D01*
X446181D01*
Y360793D01*
Y360768D01*
X446206D01*
Y360742D01*
Y360717D01*
X446257D01*
Y360692D01*
Y360666D01*
Y360641D01*
X446282D01*
Y360616D01*
X446307D01*
Y360591D01*
Y360565D01*
X446333D01*
Y360540D01*
Y360515D01*
X446358D01*
Y360489D01*
Y360464D01*
X446383D01*
Y360439D01*
Y360413D01*
Y360388D01*
X446358D01*
Y360363D01*
X446333D01*
Y360388D01*
X446282D01*
Y360413D01*
X446257D01*
Y360439D01*
X446232D01*
Y360464D01*
X446181D01*
Y360489D01*
X446156D01*
Y360515D01*
X446130D01*
Y360540D01*
X446105D01*
Y360565D01*
X446054D01*
Y360591D01*
X446029D01*
Y360616D01*
X446004D01*
Y360641D01*
X445978D01*
Y360666D01*
X445953D01*
Y360692D01*
X445928D01*
Y360717D01*
X445902D01*
Y360742D01*
X445877D01*
Y360768D01*
X445852D01*
Y360793D01*
X445826D01*
Y360818D01*
X445801D01*
Y360844D01*
X445751D01*
Y360869D01*
X445725D01*
Y360894D01*
X445700D01*
Y360920D01*
X445675D01*
Y360945D01*
X445649D01*
Y360970D01*
X445624D01*
Y360996D01*
X445599D01*
Y361021D01*
X445573D01*
Y361046D01*
X445548D01*
Y361071D01*
X445523D01*
Y361097D01*
X445498D01*
Y361122D01*
X445472D01*
Y361147D01*
X445422D01*
Y361173D01*
Y361198D01*
X445396D01*
Y361223D01*
X445371D01*
Y361249D01*
X445346D01*
Y361274D01*
X445320D01*
Y361299D01*
X445295D01*
Y361325D01*
X445270D01*
Y361350D01*
X445219D01*
Y361375D01*
X445194D01*
Y361401D01*
X445143D01*
Y361426D01*
X445118D01*
Y361451D01*
X445092D01*
Y361476D01*
X445067D01*
Y361502D01*
X445017D01*
Y361527D01*
X444991D01*
Y361552D01*
X444966D01*
Y361578D01*
X444941D01*
Y361603D01*
X444890D01*
Y361628D01*
X444865D01*
Y361654D01*
X444814D01*
Y361679D01*
X444789D01*
Y361704D01*
X444738D01*
Y361730D01*
X444713D01*
Y361755D01*
X444637D01*
Y361780D01*
X444612D01*
Y361806D01*
X444586D01*
Y361831D01*
X444561D01*
Y361856D01*
X444485D01*
Y361881D01*
X444460D01*
Y361907D01*
X444409D01*
Y361932D01*
X444384D01*
Y361957D01*
X444333D01*
Y361983D01*
X444308D01*
Y362008D01*
X444283D01*
Y361983D01*
X444257D01*
Y362008D01*
X444232D01*
Y362033D01*
X444207D01*
Y362059D01*
X444131D01*
Y362084D01*
X444055D01*
Y362109D01*
X444030D01*
Y362135D01*
X443979D01*
Y362160D01*
X443928D01*
Y362185D01*
X443878D01*
Y362210D01*
X443827D01*
Y362236D01*
X443751D01*
Y362261D01*
X443700D01*
Y362286D01*
X443650D01*
Y362312D01*
X443574D01*
Y362337D01*
X443523D01*
Y362362D01*
X443447D01*
Y362388D01*
X443371D01*
Y362413D01*
X443346D01*
Y362438D01*
X443245D01*
Y362464D01*
X443144D01*
Y362489D01*
X443068D01*
Y362514D01*
X442992D01*
Y362540D01*
X442891D01*
Y362565D01*
X442840D01*
Y362590D01*
X442688D01*
Y362615D01*
X442587D01*
Y362641D01*
X442536D01*
Y362666D01*
X442384D01*
Y362691D01*
X442283D01*
Y362717D01*
X442182D01*
Y362742D01*
X442005D01*
Y362767D01*
X441929D01*
Y362793D01*
X441751D01*
Y362818D01*
X441397D01*
Y362843D01*
X441347D01*
Y362868D01*
X441271D01*
Y362894D01*
X441245D01*
Y362919D01*
Y362945D01*
Y362970D01*
Y362995D01*
X441271D01*
Y363020D01*
Y363046D01*
X441296D01*
Y363071D01*
Y363096D01*
X441321D01*
Y363122D01*
X441347D01*
Y363147D01*
X441372D01*
Y363172D01*
Y363198D01*
X441397D01*
Y363223D01*
X441423D01*
Y363248D01*
Y363274D01*
X441448D01*
Y363299D01*
X441473D01*
Y363324D01*
X441498D01*
Y363349D01*
Y363375D01*
Y363400D01*
Y363425D01*
X441524D01*
Y363451D01*
Y363476D01*
X441498D01*
Y363501D01*
X441524D01*
Y363527D01*
Y363552D01*
X441549D01*
Y363577D01*
Y363602D01*
X441524D01*
Y363628D01*
Y363653D01*
X441549D01*
Y363679D01*
Y363704D01*
Y363729D01*
Y363754D01*
Y363780D01*
Y363805D01*
X441574D01*
Y363830D01*
Y363856D01*
X441600D01*
Y363881D01*
Y363906D01*
X441625D01*
Y363932D01*
X441701D01*
Y363906D01*
D02*
G37*
G36*
X446586Y363172D02*
X446940D01*
Y363147D01*
X447067D01*
Y363122D01*
X447117D01*
Y363147D01*
X447143D01*
Y363122D01*
X447244D01*
Y363096D01*
X447370D01*
Y363071D01*
X447446D01*
Y363046D01*
X447573D01*
Y363020D01*
X447649D01*
Y362995D01*
X447699D01*
Y362970D01*
X447801D01*
Y362945D01*
X447902D01*
Y362919D01*
X447927D01*
Y362894D01*
X448003D01*
Y362868D01*
X448079D01*
Y362843D01*
X448130D01*
Y362818D01*
X448180D01*
Y362793D01*
X448231D01*
Y362767D01*
X448282D01*
Y362742D01*
X448332D01*
Y362717D01*
X448383D01*
Y362691D01*
X448408D01*
Y362666D01*
X448484D01*
Y362641D01*
X448509D01*
Y362615D01*
X448560D01*
Y362590D01*
X448611D01*
Y362565D01*
X448636D01*
Y362540D01*
X448687D01*
Y362514D01*
X448737D01*
Y362489D01*
X448763D01*
Y362464D01*
X448813D01*
Y362438D01*
X448839D01*
Y362413D01*
X448864D01*
Y362388D01*
X448914D01*
Y362362D01*
X448940D01*
Y362337D01*
X448965D01*
Y362312D01*
X449016D01*
Y362286D01*
X449041D01*
Y362261D01*
X449092D01*
Y362236D01*
X449117D01*
Y362210D01*
X449142D01*
Y362185D01*
X449167D01*
Y362160D01*
X449218D01*
Y362135D01*
X449243D01*
Y362109D01*
X449269D01*
Y362084D01*
X449294D01*
Y362059D01*
X449319D01*
Y362033D01*
X449370D01*
Y362008D01*
X449395D01*
Y361983D01*
X449421D01*
Y361957D01*
X449446D01*
Y361932D01*
X449471D01*
Y361907D01*
X449522D01*
Y361881D01*
X449547D01*
Y361856D01*
X449573D01*
Y361831D01*
X449598D01*
Y361806D01*
X449623D01*
Y361780D01*
Y361755D01*
X449674D01*
Y361730D01*
X449699D01*
Y361704D01*
Y361679D01*
X449724D01*
Y361654D01*
X449750D01*
Y361628D01*
X449775D01*
Y361603D01*
X449800D01*
Y361578D01*
X449826D01*
Y361552D01*
X449851D01*
Y361527D01*
X449876D01*
Y361502D01*
X449901D01*
Y361476D01*
X449927D01*
Y361451D01*
Y361426D01*
X449952D01*
Y361401D01*
X449977D01*
Y361375D01*
X450003D01*
Y361350D01*
X450028D01*
Y361325D01*
X450053D01*
Y361299D01*
X450079D01*
Y361274D01*
X450104D01*
Y361249D01*
Y361223D01*
X450129D01*
Y361198D01*
X450155D01*
Y361173D01*
X450180D01*
Y361147D01*
X450205D01*
Y361122D01*
Y361097D01*
X450231D01*
Y361071D01*
X450256D01*
Y361046D01*
X450281D01*
Y361021D01*
X450307D01*
Y360996D01*
Y360970D01*
X450332D01*
Y360945D01*
X450357D01*
Y360920D01*
X450382D01*
Y360894D01*
Y360869D01*
X450408D01*
Y360844D01*
X450433D01*
Y360818D01*
Y360793D01*
X450458D01*
Y360768D01*
X450484D01*
Y360742D01*
Y360717D01*
X450509D01*
Y360692D01*
X450534D01*
Y360666D01*
Y360641D01*
X450560D01*
Y360616D01*
X450585D01*
Y360591D01*
X450610D01*
Y360565D01*
Y360540D01*
X450635D01*
Y360515D01*
X450661D01*
Y360489D01*
X450686D01*
Y360464D01*
X450711D01*
Y360439D01*
Y360413D01*
X450737D01*
Y360388D01*
X450762D01*
Y360363D01*
Y360337D01*
X450787D01*
Y360312D01*
Y360287D01*
Y360262D01*
Y360236D01*
X450711D01*
Y360262D01*
X450686D01*
Y360287D01*
X450661D01*
Y360312D01*
X450635D01*
Y360337D01*
X450610D01*
Y360363D01*
Y360388D01*
X450585D01*
Y360413D01*
X450560D01*
Y360439D01*
Y360464D01*
X450534D01*
Y360489D01*
X450509D01*
Y360515D01*
Y360540D01*
X450484D01*
Y360565D01*
X450458D01*
Y360591D01*
X450433D01*
Y360616D01*
X450408D01*
Y360641D01*
X450382D01*
Y360666D01*
Y360692D01*
X450357D01*
Y360717D01*
X450332D01*
Y360742D01*
X450307D01*
Y360768D01*
X450281D01*
Y360793D01*
X450256D01*
Y360818D01*
Y360844D01*
X450205D01*
Y360869D01*
X450180D01*
Y360894D01*
Y360920D01*
X450155D01*
Y360945D01*
X450104D01*
Y360970D01*
Y360996D01*
X450079D01*
Y361021D01*
X450028D01*
Y361046D01*
X450003D01*
Y361071D01*
X449977D01*
Y361097D01*
X449952D01*
Y361122D01*
X449927D01*
Y361147D01*
X449901D01*
Y361173D01*
X449851D01*
Y361198D01*
Y361223D01*
X449826D01*
Y361249D01*
X449775D01*
Y361274D01*
X449750D01*
Y361299D01*
X449699D01*
Y361325D01*
X449674D01*
Y361350D01*
X449623D01*
Y361375D01*
X449598D01*
Y361401D01*
X449573D01*
Y361426D01*
X449522D01*
Y361451D01*
X449497D01*
Y361476D01*
X449471D01*
Y361502D01*
X449421D01*
Y361527D01*
X449370D01*
Y361552D01*
X449345D01*
Y361578D01*
X449319D01*
Y361603D01*
X449269D01*
Y361628D01*
X449218D01*
Y361654D01*
X449167D01*
Y361679D01*
X449117D01*
Y361704D01*
X449066D01*
Y361730D01*
X449041D01*
Y361755D01*
X448990D01*
Y361780D01*
X448940D01*
Y361806D01*
X448889D01*
Y361831D01*
X448839D01*
Y361856D01*
X448788D01*
Y361881D01*
X448712D01*
Y361907D01*
X448636D01*
Y361932D01*
X448585D01*
Y361957D01*
X448509D01*
Y361983D01*
X448433D01*
Y362008D01*
X448383D01*
Y362033D01*
X448307D01*
Y362059D01*
X448231D01*
Y362084D01*
X448206D01*
Y362059D01*
X448180D01*
Y362084D01*
X448104D01*
Y362109D01*
X447978D01*
Y362135D01*
X447877D01*
Y362160D01*
X447750D01*
Y362185D01*
X447674D01*
Y362210D01*
X447624D01*
Y362236D01*
X447522D01*
Y362261D01*
X447472D01*
Y362286D01*
X447421D01*
Y362312D01*
X447370D01*
Y362337D01*
X447295D01*
Y362362D01*
X447269D01*
Y362388D01*
X447219D01*
Y362413D01*
X447168D01*
Y362438D01*
X447143D01*
Y362464D01*
X447067D01*
Y362489D01*
X447041D01*
Y362514D01*
X446991D01*
Y362540D01*
X446940D01*
Y362565D01*
X446915D01*
Y362590D01*
X446839D01*
Y362615D01*
X446814D01*
Y362641D01*
X446788D01*
Y362666D01*
X446712D01*
Y362691D01*
X446687D01*
Y362717D01*
X446662D01*
Y362742D01*
X446611D01*
Y362767D01*
X446586D01*
Y362793D01*
X446535D01*
Y362818D01*
X446510D01*
Y362843D01*
X446459D01*
Y362868D01*
X446409D01*
Y362894D01*
X446383D01*
Y362919D01*
X446333D01*
Y362945D01*
X446307D01*
Y362970D01*
X446232D01*
Y362995D01*
X446181D01*
Y363020D01*
X446156D01*
Y363046D01*
X446105D01*
Y363071D01*
Y363096D01*
Y363122D01*
Y363147D01*
X446181D01*
Y363172D01*
X446282D01*
Y363198D01*
X446586D01*
Y363172D01*
D02*
G37*
%LPC*%
G36*
X286756Y387640D02*
X285384Y387505D01*
X284065Y387105D01*
X282848Y386455D01*
X281783Y385580D01*
X280908Y384514D01*
X280258Y383298D01*
X279857Y381979D01*
X279722Y380606D01*
X279857Y379234D01*
X280258Y377915D01*
X280908Y376699D01*
X281783Y375633D01*
X282783Y374633D01*
X282783Y374633D01*
X283848Y373758D01*
X285065Y373108D01*
X286384Y372708D01*
X287756Y372572D01*
X298567D01*
X299939Y372708D01*
X301259Y373108D01*
X302475Y373758D01*
X303541Y374633D01*
X304416Y375699D01*
X305066Y376915D01*
X305466Y378234D01*
X305601Y379606D01*
X305466Y380979D01*
X305066Y382298D01*
X304416Y383514D01*
X303541Y384580D01*
X302475Y385455D01*
X301259Y386105D01*
X299939Y386505D01*
X298567Y386640D01*
X290317D01*
X289448Y387105D01*
X288128Y387505D01*
X286756Y387640D01*
D02*
G37*
G36*
X277992Y349083D02*
X276515Y347897D01*
X276296Y347869D01*
X275574Y347569D01*
X274954Y347094D01*
X274478Y346474D01*
X274179Y345751D01*
X274077Y344976D01*
X274179Y344201D01*
X274478Y343479D01*
X274954Y342859D01*
X275574Y342384D01*
X276296Y342084D01*
X277071Y341982D01*
X277992Y340193D01*
X277992Y339240D01*
X277992D01*
Y330350D01*
X284914D01*
Y339240D01*
X284914D01*
X284914Y340193D01*
X284914D01*
Y349083D01*
X277992D01*
Y349083D01*
D02*
G37*
G36*
X318725Y322919D02*
X314788D01*
X314013Y322817D01*
X313291Y322518D01*
X312670Y322042D01*
X312195Y321422D01*
X311895Y320700D01*
X311793Y319925D01*
Y315988D01*
X311895Y315213D01*
X312195Y314491D01*
X312670Y313871D01*
X313291Y313395D01*
X314013Y313096D01*
X314788Y312994D01*
X318725D01*
X319499Y313096D01*
X320222Y313395D01*
X320842Y313871D01*
X321318Y314491D01*
X321617Y315213D01*
X321719Y315988D01*
Y319925D01*
X321617Y320700D01*
X321318Y321422D01*
X320842Y322042D01*
X320222Y322518D01*
X319499Y322817D01*
X318725Y322919D01*
D02*
G37*
G36*
X347512Y262055D02*
X340394D01*
Y254150D01*
X347512D01*
Y262055D01*
D02*
G37*
%LPD*%
D14*
X332677Y246358D02*
X342209D01*
X343953Y248102D01*
X343953Y237354D02*
X346339Y234969D01*
X345921Y223575D02*
X346339Y223992D01*
D17*
X290803Y231449D02*
D03*
Y251134D02*
D03*
X260292D02*
D03*
Y231449D02*
D03*
D18*
X320866Y261811D02*
D03*
X332677D02*
D03*
D19*
X551181Y385827D02*
D03*
Y397638D02*
D03*
X519459Y345003D02*
D03*
Y356814D02*
D03*
D20*
X194347Y371410D02*
D03*
Y410386D02*
D03*
D21*
X286756Y380606D02*
D03*
D22*
X277782Y287050D02*
D03*
Y282050D02*
D03*
Y277050D02*
D03*
Y272050D02*
D03*
X299239Y287050D02*
D03*
Y282050D02*
D03*
Y277050D02*
D03*
Y272050D02*
D03*
D23*
X288511Y279550D02*
D03*
D24*
X540803Y377217D02*
D03*
Y388831D02*
D03*
X503402Y298476D02*
D03*
Y310090D02*
D03*
X438441Y335681D02*
D03*
Y324067D02*
D03*
X263244Y273870D02*
D03*
Y285484D02*
D03*
D25*
X515213Y274165D02*
D03*
Y291094D02*
D03*
X440410Y409205D02*
D03*
Y392276D02*
D03*
Y272787D02*
D03*
Y289717D02*
D03*
D26*
X388993Y234677D02*
D03*
Y227197D02*
D03*
X397654Y230937D02*
D03*
D27*
X322890Y229480D02*
D03*
X330173D02*
D03*
X350055D02*
D03*
X342772D02*
D03*
X411040Y251606D02*
D03*
X403756D02*
D03*
X411040Y242748D02*
D03*
X403756D02*
D03*
D28*
X332677Y253642D02*
D03*
Y246358D02*
D03*
X324803Y253642D02*
D03*
Y246358D02*
D03*
X395134Y274461D02*
D03*
Y267177D02*
D03*
X410882Y274461D02*
D03*
Y267177D02*
D03*
X403008Y274461D02*
D03*
Y267177D02*
D03*
X245528Y275740D02*
D03*
Y283024D02*
D03*
X253402D02*
D03*
Y275740D02*
D03*
D29*
X364622Y229480D02*
D03*
X357733D02*
D03*
X395784Y251606D02*
D03*
X388894D02*
D03*
D30*
X343953Y248102D02*
D03*
Y258102D02*
D03*
X379386D02*
D03*
Y248102D02*
D03*
D31*
X475843Y272590D02*
D03*
Y300543D02*
D03*
Y379087D02*
D03*
Y407039D02*
D03*
X515213Y378890D02*
D03*
Y406843D02*
D03*
X475843Y327906D02*
D03*
Y355858D02*
D03*
D32*
X540803Y399264D02*
D03*
Y410090D02*
D03*
X448284Y324461D02*
D03*
Y335287D02*
D03*
D33*
X281453Y334795D02*
D03*
X292280D02*
D03*
X292280Y344638D02*
D03*
X281453D02*
D03*
D34*
X453875Y361428D02*
X453830Y362428D01*
X453696Y363420D01*
X453473Y364396D01*
X453164Y365348D01*
X452770Y366268D01*
X452296Y367150D01*
X451744Y367985D01*
X451120Y368768D01*
X450428Y369492D01*
X449674Y370150D01*
X448865Y370739D01*
X448005Y371252D01*
X447103Y371687D01*
X446166Y372038D01*
X445201Y372305D01*
X444216Y372483D01*
X443219Y372573D01*
X442218D01*
X441221Y372483D01*
X440236Y372305D01*
X439271Y372038D01*
X438334Y371687D01*
X437432Y371252D01*
X436572Y370739D01*
X435762Y370150D01*
X435008Y369492D01*
X434317Y368768D01*
X433693Y367985D01*
X433141Y367150D01*
X432667Y366268D01*
X432273Y365348D01*
X431964Y364396D01*
X431741Y363420D01*
X431607Y362428D01*
X431562Y361428D01*
X431607Y360428D01*
X431741Y359436D01*
X431964Y358460D01*
X432273Y357507D01*
X432667Y356587D01*
X433141Y355705D01*
X433693Y354870D01*
X434317Y354087D01*
X435008Y353364D01*
X435762Y352705D01*
X436572Y352117D01*
X437432Y351603D01*
X438334Y351169D01*
X439271Y350817D01*
X440236Y350551D01*
X441221Y350372D01*
X442218Y350282D01*
X443219D01*
X444216Y350372D01*
X445201Y350551D01*
X446166Y350817D01*
X447103Y351169D01*
X448005Y351603D01*
X448865Y352117D01*
X449674Y352705D01*
X450428Y353364D01*
X451120Y354087D01*
X451744Y354870D01*
X452296Y355705D01*
X452770Y356587D01*
X453164Y357507D01*
X453473Y358460D01*
X453696Y359436D01*
X453830Y360428D01*
X453875Y361428D01*
D66*
X267715Y281024D02*
X268741Y282050D01*
X259276Y281024D02*
X267715D01*
X253992Y275740D02*
X259276Y281024D01*
X245528Y275740D02*
X253402D01*
X253992D01*
X264985Y286945D02*
X275906D01*
X276011Y287050D02*
X277782D01*
X263385Y285344D02*
X264985Y286945D01*
X275906D02*
X276011Y287050D01*
X272624Y259471D02*
X294744D01*
X305936Y248278D01*
Y234033D02*
Y248278D01*
X260292Y251134D02*
X290803D01*
X326957Y224823D02*
X338115D01*
X322890Y228890D02*
X326957Y224823D01*
X322890Y228890D02*
Y229480D01*
X338115Y224823D02*
X342772Y229480D01*
X324803Y246358D02*
X332677D01*
X343953Y248102D02*
X363451D01*
X364622Y246931D01*
Y229677D02*
Y246931D01*
X321317Y241996D02*
X339311D01*
X343953Y237354D01*
X321317Y241996D02*
X324161Y239153D01*
X320146Y243168D02*
Y249279D01*
Y243168D02*
X321317Y241996D01*
X324213Y253346D02*
X324803D01*
X320146Y249279D02*
X324213Y253346D01*
X324161Y239153D02*
X326159D01*
X330173Y235138D01*
Y229480D02*
Y235138D01*
X342871Y229480D02*
X342875Y229476D01*
X342772Y229480D02*
X342871D01*
X269300Y262795D02*
Y275878D01*
Y262795D02*
X272624Y259471D01*
X236670Y275740D02*
X245528D01*
X231748Y280662D02*
X236670Y275740D01*
X263595Y326869D02*
Y355508D01*
X241591Y366291D02*
X252811D01*
X263595Y355508D01*
X268741Y282050D02*
X277782D01*
X263385Y285217D02*
Y285344D01*
X263244Y285484D02*
X263385Y285344D01*
X270472Y277050D02*
X277782D01*
X269300Y275878D02*
X270472Y277050D01*
X305814Y272050D02*
X310488Y276724D01*
X299239Y277050D02*
X305380D01*
X299239Y272050D02*
X305814D01*
X310488Y276724D02*
Y305858D01*
X434504Y302315D02*
X438441Y306252D01*
Y324067D01*
X399071Y302315D02*
X434504D01*
X395134Y274461D02*
Y298378D01*
X397654Y230937D02*
X401572D01*
X403756Y233121D01*
X395134Y298378D02*
X399071Y302315D01*
X403756Y233121D02*
Y242748D01*
X305936Y234033D02*
X310488Y229480D01*
X322890D01*
X364425D02*
X364622D01*
X352851Y224107D02*
X357733Y228988D01*
X348047Y224107D02*
X352851D01*
X357733Y228988D02*
Y229480D01*
X292214Y334730D02*
X292280Y334795D01*
X292214Y324132D02*
Y334730D01*
X263595Y326869D02*
X284271Y306193D01*
X299239Y287050D02*
Y299974D01*
X293020Y306193D02*
X299239Y299974D01*
X307093Y289610D02*
Y302265D01*
Y289610D02*
X307093Y289610D01*
Y278763D02*
Y289610D01*
X305380Y277050D02*
X307093Y278763D01*
X295528Y313831D02*
X307093Y302265D01*
X292214Y324132D02*
X310488Y305858D01*
X284271Y306193D02*
X293020D01*
D67*
X388983Y258024D02*
X393264D01*
X379465D02*
X388983D01*
X388894Y251606D02*
Y257935D01*
X388983Y258024D01*
X410882Y267177D02*
X411040Y267020D01*
Y261237D02*
Y267020D01*
X388894Y251606D02*
X388993Y251508D01*
Y234677D02*
Y251508D01*
X373481Y254402D02*
X379386Y248496D01*
X373481Y254402D02*
Y264913D01*
X379386Y248102D02*
Y248496D01*
X411040Y236741D02*
Y242748D01*
Y251606D01*
Y261237D01*
X375744Y267177D02*
X395134D01*
X395725D02*
X400941Y272394D01*
X395134Y267177D02*
X395725D01*
X393264Y258024D02*
X402418Y267177D01*
X373481Y264913D02*
X375744Y267177D01*
X395784Y256331D02*
X400690Y261237D01*
X411040D01*
X400941Y272394D02*
Y273142D01*
X403599Y267177D02*
X408815Y272394D01*
Y272984D02*
X410291Y274461D01*
X403008Y267177D02*
X403599D01*
X402418D02*
X403008D01*
X401748Y273949D02*
X402339D01*
X400941Y273142D02*
X401748Y273949D01*
X410291Y274461D02*
X410882D01*
X408815Y272394D02*
Y272984D01*
X395784Y251606D02*
Y256331D01*
X401495Y227197D02*
X411040Y236741D01*
X388993Y227197D02*
X401495D01*
D68*
X379386Y258102D02*
X379465Y258024D01*
X430961Y231291D02*
Y241291D01*
X440961Y231291D02*
Y241291D01*
X450961Y231291D02*
Y287831D01*
X436709Y225543D02*
X525710D01*
X530646Y230480D02*
Y231291D01*
X525710Y225543D02*
X530646Y230480D01*
X440410Y289717D02*
X449075D01*
X430961Y231291D02*
X436709Y225543D01*
X449075Y289717D02*
X450961Y287831D01*
X350051Y229476D02*
X350055Y229480D01*
X515213Y290504D02*
Y296409D01*
X292280Y344638D02*
X292748Y345106D01*
X297756D01*
D69*
X284898Y231449D02*
X290803D01*
X284898D02*
X290803D01*
X284898D02*
X290803D01*
X278992D02*
X290803D01*
X273087D02*
X278992D01*
X266197D02*
X273087D01*
X286756Y380606D02*
X287756Y379606D01*
X298567D01*
X260292Y231449D02*
X266197D01*
D70*
X371290Y266660D02*
X379386Y274756D01*
X371290Y235608D02*
Y266660D01*
Y235608D02*
X375449Y231449D01*
X394839Y274756D02*
X395134Y274461D01*
X379386Y274756D02*
X394839D01*
X403756Y251016D02*
Y251606D01*
X393165Y240425D02*
X403756Y251016D01*
X393165Y233417D02*
Y240425D01*
X375449Y231449D02*
X391197D01*
X393165Y233417D01*
D71*
X277071Y344976D02*
X277240Y344807D01*
X281284D02*
X281453Y344638D01*
Y334795D02*
Y344638D01*
X277240Y344807D02*
X281284D01*
D72*
X253402Y283024D02*
Y288043D01*
X260965Y295606D01*
X288756D01*
D73*
X499546Y306264D02*
X501010Y307728D01*
X475646Y306264D02*
X499546D01*
X448087Y324264D02*
X448284Y324461D01*
X438638Y324264D02*
X448087D01*
X438441Y324067D02*
X438638Y324264D01*
X501010Y307728D02*
Y308880D01*
X502221Y310090D01*
X503402D01*
Y298476D02*
X503599Y298673D01*
X388981Y385250D02*
X424920D01*
X386073Y388159D02*
X388981Y385250D01*
X431945Y392276D02*
X440410D01*
X424920Y385250D02*
X431945Y392276D01*
X438638Y335484D02*
X448087D01*
X438441Y335681D02*
X438638Y335484D01*
X448087D02*
X448284Y335287D01*
D74*
X241591Y408614D02*
D03*
Y346606D02*
D03*
X251433Y314126D02*
D03*
X180567Y341685D02*
D03*
D75*
X241591Y388929D02*
D03*
Y366291D02*
D03*
D76*
X430961Y231291D02*
D03*
X440961D02*
D03*
X450961D02*
D03*
X460961D02*
D03*
X470961D02*
D03*
X480961D02*
D03*
X430961Y241291D02*
D03*
X440961D02*
D03*
X450961D02*
D03*
X460961D02*
D03*
X470961D02*
D03*
X271008Y393599D02*
D03*
Y385724D02*
D03*
Y377851D02*
D03*
Y369976D02*
D03*
X278882Y393599D02*
D03*
Y385724D02*
D03*
Y377851D02*
D03*
Y369976D02*
D03*
X286756Y393599D02*
D03*
Y385724D02*
D03*
Y377851D02*
D03*
Y369976D02*
D03*
X294630Y393599D02*
D03*
Y385724D02*
D03*
Y377851D02*
D03*
Y369976D02*
D03*
X302504Y393599D02*
D03*
Y385724D02*
D03*
Y377851D02*
D03*
Y369976D02*
D03*
X220567Y241291D02*
D03*
X210567D02*
D03*
X200567D02*
D03*
X190567D02*
D03*
X180567D02*
D03*
X230567Y231291D02*
D03*
X220567D02*
D03*
X210567D02*
D03*
X200567D02*
D03*
X190567D02*
D03*
X180567D02*
D03*
X540646Y241291D02*
D03*
X530646D02*
D03*
X520646D02*
D03*
X510646D02*
D03*
X500646D02*
D03*
X550646Y231291D02*
D03*
X540646D02*
D03*
X530646D02*
D03*
X520646D02*
D03*
X510646D02*
D03*
X500646D02*
D03*
D77*
X480961Y241291D02*
D03*
X230567D02*
D03*
X550646D02*
D03*
D78*
X316756Y407957D02*
D03*
D79*
Y392957D02*
D03*
Y377957D02*
D03*
Y347957D02*
D03*
Y332957D02*
D03*
Y317957D02*
D03*
X416756Y407957D02*
D03*
Y392957D02*
D03*
Y377957D02*
D03*
Y347957D02*
D03*
Y332957D02*
D03*
Y317957D02*
D03*
D80*
X198835Y283606D02*
D03*
D81*
X178756D02*
D03*
X198835Y253606D02*
D03*
X178756D02*
D03*
D82*
X284574Y283487D02*
D03*
X288511D02*
D03*
Y279550D02*
D03*
Y275613D02*
D03*
X284574D02*
D03*
X292448D02*
D03*
Y279550D02*
D03*
X284574D02*
D03*
X520990Y305866D02*
D03*
X515213Y272787D02*
D03*
Y290504D02*
D03*
X517181Y305866D02*
D03*
X513410D02*
D03*
X515213Y296409D02*
D03*
Y276724D02*
D03*
D83*
X231748Y280662D02*
D03*
D84*
Y314126D02*
D03*
X200252Y341685D02*
D03*
D85*
X460630Y299213D02*
D03*
X456693D02*
D03*
X452756D02*
D03*
X448819D02*
D03*
X465229Y293307D02*
D03*
X454724Y275590D02*
D03*
Y279528D02*
D03*
Y283465D02*
D03*
Y287402D02*
D03*
X514961Y253543D02*
D03*
Y248819D02*
D03*
Y244094D02*
D03*
Y239370D02*
D03*
Y234646D02*
D03*
X510236Y291339D02*
D03*
Y253543D02*
D03*
Y248819D02*
D03*
X505512Y291339D02*
D03*
Y286614D02*
D03*
X481890Y248819D02*
D03*
X477165Y253543D02*
D03*
Y248819D02*
D03*
Y234646D02*
D03*
X434646Y262992D02*
D03*
Y258268D02*
D03*
Y253543D02*
D03*
Y248819D02*
D03*
X429921Y267717D02*
D03*
Y262992D02*
D03*
Y258268D02*
D03*
Y253543D02*
D03*
Y248819D02*
D03*
X425197Y272441D02*
D03*
Y267717D02*
D03*
Y262992D02*
D03*
Y258268D02*
D03*
Y253543D02*
D03*
Y248819D02*
D03*
X420472Y277165D02*
D03*
Y272441D02*
D03*
Y267717D02*
D03*
Y262992D02*
D03*
Y258268D02*
D03*
Y253543D02*
D03*
Y248819D02*
D03*
Y244094D02*
D03*
Y239370D02*
D03*
Y234646D02*
D03*
Y229921D02*
D03*
Y225197D02*
D03*
X415748Y281890D02*
D03*
Y277165D02*
D03*
Y272441D02*
D03*
Y267717D02*
D03*
Y262992D02*
D03*
Y258268D02*
D03*
Y253543D02*
D03*
Y248819D02*
D03*
Y244094D02*
D03*
Y239370D02*
D03*
Y234646D02*
D03*
Y229921D02*
D03*
Y225197D02*
D03*
X411024Y286614D02*
D03*
Y281890D02*
D03*
Y229921D02*
D03*
Y225197D02*
D03*
X406299Y291339D02*
D03*
Y286614D02*
D03*
Y281890D02*
D03*
Y258268D02*
D03*
Y225197D02*
D03*
X401575Y291339D02*
D03*
Y286614D02*
D03*
Y281890D02*
D03*
Y234646D02*
D03*
X396850Y239370D02*
D03*
Y234646D02*
D03*
X382677Y225197D02*
D03*
X324803Y312992D02*
D03*
Y307086D02*
D03*
Y301181D02*
D03*
Y295275D02*
D03*
Y289370D02*
D03*
X318897Y301181D02*
D03*
Y295275D02*
D03*
Y289370D02*
D03*
Y283465D02*
D03*
Y277559D02*
D03*
X312992Y271654D02*
D03*
Y265748D02*
D03*
Y259842D02*
D03*
Y253937D02*
D03*
Y248031D02*
D03*
Y242126D02*
D03*
X307086Y265748D02*
D03*
Y259842D02*
D03*
Y253937D02*
D03*
X301181Y265748D02*
D03*
Y259842D02*
D03*
Y248031D02*
D03*
X295275Y265748D02*
D03*
X289370Y289370D02*
D03*
Y271654D02*
D03*
Y265748D02*
D03*
X283464Y289370D02*
D03*
Y271654D02*
D03*
Y265748D02*
D03*
Y253937D02*
D03*
Y248031D02*
D03*
X277559Y265748D02*
D03*
Y253937D02*
D03*
Y248031D02*
D03*
X271653Y253937D02*
D03*
Y248031D02*
D03*
X265748Y265748D02*
D03*
Y259842D02*
D03*
Y253937D02*
D03*
Y248031D02*
D03*
X259842Y312992D02*
D03*
Y307086D02*
D03*
Y301181D02*
D03*
X253937Y348425D02*
D03*
Y342520D02*
D03*
Y336614D02*
D03*
Y330709D02*
D03*
Y324803D02*
D03*
Y318898D02*
D03*
Y307086D02*
D03*
Y301181D02*
D03*
Y295275D02*
D03*
Y265748D02*
D03*
Y259842D02*
D03*
Y253937D02*
D03*
Y248031D02*
D03*
X248031Y348425D02*
D03*
Y342520D02*
D03*
Y336614D02*
D03*
Y330709D02*
D03*
Y324803D02*
D03*
Y318898D02*
D03*
Y307086D02*
D03*
Y301181D02*
D03*
Y295275D02*
D03*
Y289370D02*
D03*
Y265748D02*
D03*
X242126Y342520D02*
D03*
Y301181D02*
D03*
Y295275D02*
D03*
Y289370D02*
D03*
X236220Y348425D02*
D03*
Y295275D02*
D03*
Y289370D02*
D03*
Y271654D02*
D03*
X230315Y348425D02*
D03*
Y295275D02*
D03*
Y289370D02*
D03*
Y271654D02*
D03*
X224409Y295275D02*
D03*
Y289370D02*
D03*
Y283465D02*
D03*
Y277559D02*
D03*
Y271654D02*
D03*
X218504Y295275D02*
D03*
Y289370D02*
D03*
Y283465D02*
D03*
Y277559D02*
D03*
Y271654D02*
D03*
X212598Y295275D02*
D03*
Y289370D02*
D03*
Y283465D02*
D03*
Y277559D02*
D03*
Y271654D02*
D03*
X188976D02*
D03*
X183071Y348425D02*
D03*
Y336614D02*
D03*
Y330709D02*
D03*
Y324803D02*
D03*
Y318898D02*
D03*
Y312992D02*
D03*
Y307086D02*
D03*
Y301181D02*
D03*
Y295275D02*
D03*
Y289370D02*
D03*
Y277559D02*
D03*
Y271654D02*
D03*
X177165Y348425D02*
D03*
Y336614D02*
D03*
Y330709D02*
D03*
Y324803D02*
D03*
Y318898D02*
D03*
Y312992D02*
D03*
Y307086D02*
D03*
Y301181D02*
D03*
Y295275D02*
D03*
Y289370D02*
D03*
Y277559D02*
D03*
Y271654D02*
D03*
X386073Y388159D02*
D03*
X505370Y335780D02*
D03*
X493559D02*
D03*
X505370Y331842D02*
D03*
X489622Y335780D02*
D03*
X485685D02*
D03*
X497496D02*
D03*
X501433D02*
D03*
X493559Y331842D02*
D03*
Y327906D02*
D03*
X497496D02*
D03*
X501433D02*
D03*
X489622Y323969D02*
D03*
X493559D02*
D03*
X489622Y327906D02*
D03*
X485685D02*
D03*
Y323969D02*
D03*
X505370Y327906D02*
D03*
X497496Y323969D02*
D03*
X501433D02*
D03*
X485685Y331842D02*
D03*
X489622D02*
D03*
X501433D02*
D03*
X497496D02*
D03*
X475579Y297512D02*
D03*
Y301849D02*
D03*
X505370Y323969D02*
D03*
X475579Y306264D02*
D03*
X343953Y258102D02*
D03*
X295528Y313831D02*
D03*
X297756Y345106D02*
D03*
X342875Y229476D02*
D03*
X379386Y248102D02*
D03*
D86*
X284898Y231449D02*
D03*
X278992Y231449D02*
D03*
X290705D02*
D03*
X176426Y407480D02*
D03*
X332677Y261811D02*
D03*
X332677Y253642D02*
D03*
X551181Y397232D02*
D03*
X519685Y356409D02*
D03*
X350051Y229476D02*
D03*
X266197Y231449D02*
D03*
X540803Y399264D02*
D03*
Y388831D02*
D03*
X260292Y231449D02*
D03*
X273087Y231449D02*
D03*
X263385Y285217D02*
D03*
X277071Y344976D02*
D03*
X288756Y295606D02*
D03*
D87*
X515213Y379087D02*
D03*
X475843D02*
D03*
M02*
