G04*
G04 #@! TF.GenerationSoftware,Altium Limited,Altium Designer,21.0.8 (223)*
G04*
G04 Layer_Color=16711935*
%FSLAX25Y25*%
%MOIN*%
G70*
G04*
G04 #@! TF.SameCoordinates,608BFDEB-8ADB-4086-B875-8CE8CE559F17*
G04*
G04*
G04 #@! TF.FilePolarity,Positive*
G04*
G01*
G75*
%ADD14C,0.01000*%
%ADD122C,0.00236*%
%ADD123C,0.00600*%
D14*
X144811Y418457D02*
X146811Y412457D01*
X142811D02*
X144811Y418457D01*
X142811Y227606D02*
X144811Y221606D01*
X146811Y227606D01*
X144811Y333527D02*
Y418457D01*
Y221606D02*
Y303336D01*
X143811Y418457D02*
X167256D01*
X143811Y221606D02*
X167256D01*
X168756Y167890D02*
X174756Y169890D01*
X168756Y167890D02*
X174756Y165890D01*
X556457D02*
X562457Y167890D01*
X556457Y169890D02*
X562457Y167890D01*
X168756D02*
X346412D01*
X381601D02*
X562457D01*
X168756Y166890D02*
Y220106D01*
X562457Y166890D02*
Y220106D01*
X267511Y264485D02*
Y261206D01*
X268166Y260550D01*
X269478D01*
X270134Y261206D01*
Y264485D01*
X271446Y260550D02*
X272758D01*
X272102D01*
Y264485D01*
X271446Y263829D01*
D122*
X391323Y234373D02*
Y231093D01*
X391979Y230437D01*
X393291D01*
X393947Y231093D01*
Y234373D01*
X395259Y233717D02*
X395915Y234373D01*
X397227D01*
X397883Y233717D01*
Y233061D01*
X397227Y232405D01*
X396571D01*
X397227D01*
X397883Y231749D01*
Y231093D01*
X397227Y230437D01*
X395915D01*
X395259Y231093D01*
D123*
X142412Y308935D02*
Y304936D01*
X145411D01*
X144411Y306935D01*
Y307935D01*
X145411Y308935D01*
X147410D01*
X148410Y307935D01*
Y305936D01*
X147410Y304936D01*
X143412Y310934D02*
X142412Y311934D01*
Y313933D01*
X143412Y314933D01*
X147410D01*
X148410Y313933D01*
Y311934D01*
X147410Y310934D01*
X143412D01*
X148410Y316932D02*
X147410D01*
Y317932D01*
X148410D01*
Y316932D01*
X143412Y321930D02*
X142412Y322930D01*
Y324929D01*
X143412Y325929D01*
X147410D01*
X148410Y324929D01*
Y322930D01*
X147410Y321930D01*
X143412D01*
Y327928D02*
X142412Y328928D01*
Y330927D01*
X143412Y331927D01*
X147410D01*
X148410Y330927D01*
Y328928D01*
X147410Y327928D01*
X143412D01*
X348012Y164291D02*
X350011D01*
X349011D01*
Y170289D01*
X348012Y169289D01*
X353010D02*
X354010Y170289D01*
X356009D01*
X357009Y169289D01*
Y165290D01*
X356009Y164291D01*
X354010D01*
X353010Y165290D01*
Y169289D01*
X359008D02*
X360008Y170289D01*
X362007D01*
X363007Y169289D01*
Y165290D01*
X362007Y164291D01*
X360008D01*
X359008Y165290D01*
Y169289D01*
X365006Y164291D02*
Y165290D01*
X366006D01*
Y164291D01*
X365006D01*
X370005Y169289D02*
X371004Y170289D01*
X373004D01*
X374003Y169289D01*
Y165290D01*
X373004Y164291D01*
X371004D01*
X370005Y165290D01*
Y169289D01*
X376003D02*
X377002Y170289D01*
X379002D01*
X380001Y169289D01*
Y165290D01*
X379002Y164291D01*
X377002D01*
X376003Y165290D01*
Y169289D01*
M02*
