G04*
G04 #@! TF.GenerationSoftware,Altium Limited,Altium Designer,21.0.8 (223)*
G04*
G04 Layer_Color=16711935*
%FSLAX25Y25*%
%MOIN*%
G70*
G04*
G04 #@! TF.SameCoordinates,C9A2E287-7343-4079-99F3-6D8708F74CA6*
G04*
G04*
G04 #@! TF.FilePolarity,Negative*
G04*
G01*
G75*
%ADD38R,0.22060X0.12217*%
%ADD39R,0.40958X0.36627*%
%ADD45R,0.04934X0.06115*%
%ADD46R,0.06115X0.04934*%
%ADD47R,0.05721X0.06706*%
%ADD50R,0.07690X0.05721*%
%ADD51R,0.05721X0.07690*%
%ADD52C,0.05524*%
G04:AMPARAMS|DCode=53|XSize=55.24mil|YSize=55.24mil|CornerRadius=15.81mil|HoleSize=0mil|Usage=FLASHONLY|Rotation=90.000|XOffset=0mil|YOffset=0mil|HoleType=Round|Shape=RoundedRectangle|*
%AMROUNDEDRECTD53*
21,1,0.05524,0.02362,0,0,90.0*
21,1,0.02362,0.05524,0,0,90.0*
1,1,0.03162,0.01181,0.01181*
1,1,0.03162,0.01181,-0.01181*
1,1,0.03162,-0.01181,-0.01181*
1,1,0.03162,-0.01181,0.01181*
%
%ADD53ROUNDEDRECTD53*%
%ADD54C,0.06800*%
%ADD55R,0.06800X0.06800*%
%ADD56R,0.08674X0.08674*%
G04:AMPARAMS|DCode=57|XSize=86.74mil|YSize=86.74mil|CornerRadius=23.68mil|HoleSize=0mil|Usage=FLASHONLY|Rotation=90.000|XOffset=0mil|YOffset=0mil|HoleType=Round|Shape=RoundedRectangle|*
%AMROUNDEDRECTD57*
21,1,0.08674,0.03937,0,0,90.0*
21,1,0.03937,0.08674,0,0,90.0*
1,1,0.04737,0.01968,0.01968*
1,1,0.04737,0.01968,-0.01968*
1,1,0.04737,-0.01968,-0.01968*
1,1,0.04737,-0.01968,0.01968*
%
%ADD57ROUNDEDRECTD57*%
%ADD58R,0.06706X0.06706*%
%ADD59C,0.06706*%
%ADD60C,0.03950*%
%ADD61R,0.06706X0.06706*%
G04:AMPARAMS|DCode=62|XSize=55.24mil|YSize=55.24mil|CornerRadius=15.81mil|HoleSize=0mil|Usage=FLASHONLY|Rotation=0.000|XOffset=0mil|YOffset=0mil|HoleType=Round|Shape=RoundedRectangle|*
%AMROUNDEDRECTD62*
21,1,0.05524,0.02362,0,0,0.0*
21,1,0.02362,0.05524,0,0,0.0*
1,1,0.03162,0.01181,-0.01181*
1,1,0.03162,-0.01181,-0.01181*
1,1,0.03162,-0.01181,0.01181*
1,1,0.03162,0.01181,0.01181*
%
%ADD62ROUNDEDRECTD62*%
%ADD63C,0.03162*%
%ADD64C,0.04737*%
%ADD65C,0.05800*%
%ADD106R,0.05700X0.13300*%
%ADD107R,0.06800X0.08800*%
%ADD108R,0.08800X0.06800*%
%ADD109R,0.05524X0.05131*%
%ADD110R,0.04934X0.16351*%
%ADD111R,0.10642X0.07493*%
%ADD112R,0.36627X0.40958*%
%ADD113R,0.16351X0.04934*%
%ADD114R,0.07493X0.10642*%
%ADD115R,0.05721X0.08083*%
%ADD116R,0.06784X0.13398*%
%ADD117R,0.09461X0.10642*%
%ADD118R,0.06706X0.05721*%
%ADD119R,0.14383X0.07296*%
%ADD120R,0.03162X0.04737*%
G36*
X281945Y348575D02*
Y322984D01*
X280140Y321180D01*
X268166D01*
Y327906D01*
X268735Y328475D01*
X270703D01*
X272103Y329874D01*
Y348575D01*
X273087Y349559D01*
X280961D01*
X281945Y348575D01*
D02*
G37*
D38*
X528992Y278890D02*
D03*
Y317866D02*
D03*
D39*
X286756Y380606D02*
D03*
D45*
X460390Y276724D02*
D03*
X467673D02*
D03*
D46*
X483717Y292177D02*
D03*
Y284894D02*
D03*
X491591D02*
D03*
Y292177D02*
D03*
X448284D02*
D03*
Y284894D02*
D03*
X440410D02*
D03*
Y292177D02*
D03*
D47*
X349470Y229476D02*
D03*
X342580D02*
D03*
X487654Y310189D02*
D03*
X494544D02*
D03*
D50*
X369544Y393555D02*
D03*
Y382728D02*
D03*
X335256Y271693D02*
D03*
Y282520D02*
D03*
X295528Y313831D02*
D03*
Y324658D02*
D03*
D51*
X359603Y381843D02*
D03*
X348776D02*
D03*
D52*
X241591Y408614D02*
D03*
Y346606D02*
D03*
X251433Y314126D02*
D03*
X180567Y341685D02*
D03*
D53*
X241591Y388929D02*
D03*
Y366291D02*
D03*
D54*
X430961Y231291D02*
D03*
X440961D02*
D03*
X450961D02*
D03*
X460961D02*
D03*
X470961D02*
D03*
X480961D02*
D03*
X430961Y241291D02*
D03*
X440961D02*
D03*
X450961D02*
D03*
X460961D02*
D03*
X470961D02*
D03*
X271008Y393599D02*
D03*
Y385724D02*
D03*
Y377851D02*
D03*
Y369976D02*
D03*
X278882Y393599D02*
D03*
Y385724D02*
D03*
Y377851D02*
D03*
Y369976D02*
D03*
X286756Y393599D02*
D03*
Y385724D02*
D03*
Y377851D02*
D03*
Y369976D02*
D03*
X294630Y393599D02*
D03*
Y385724D02*
D03*
Y377851D02*
D03*
Y369976D02*
D03*
X302504Y393599D02*
D03*
Y385724D02*
D03*
Y377851D02*
D03*
Y369976D02*
D03*
X220567Y241291D02*
D03*
X210567D02*
D03*
X200567D02*
D03*
X190567D02*
D03*
X180567D02*
D03*
X230567Y231291D02*
D03*
X220567D02*
D03*
X210567D02*
D03*
X200567D02*
D03*
X190567D02*
D03*
X180567D02*
D03*
X540646Y241291D02*
D03*
X530646D02*
D03*
X520646D02*
D03*
X510646D02*
D03*
X500646D02*
D03*
X550646Y231291D02*
D03*
X540646D02*
D03*
X530646D02*
D03*
X520646D02*
D03*
X510646D02*
D03*
X500646D02*
D03*
D55*
X480961Y241291D02*
D03*
X230567D02*
D03*
X550646D02*
D03*
D56*
X316756Y407957D02*
D03*
D57*
Y392957D02*
D03*
Y377957D02*
D03*
Y347957D02*
D03*
Y332957D02*
D03*
Y317957D02*
D03*
X416756Y407957D02*
D03*
Y392957D02*
D03*
Y377957D02*
D03*
Y347957D02*
D03*
Y332957D02*
D03*
Y317957D02*
D03*
D58*
X198835Y283606D02*
D03*
D59*
X178756D02*
D03*
X198835Y253606D02*
D03*
X178756D02*
D03*
D60*
X284574Y283487D02*
D03*
X288511D02*
D03*
Y279550D02*
D03*
Y275613D02*
D03*
X284574D02*
D03*
X292448D02*
D03*
Y279550D02*
D03*
X284574D02*
D03*
X520990Y305866D02*
D03*
X515213Y272787D02*
D03*
Y290504D02*
D03*
X517181Y305866D02*
D03*
X513410D02*
D03*
X515213Y296409D02*
D03*
Y276724D02*
D03*
D61*
X231748Y280662D02*
D03*
D62*
Y314126D02*
D03*
X200252Y341685D02*
D03*
D63*
X460630Y299213D02*
D03*
X456693D02*
D03*
X452756D02*
D03*
X448819D02*
D03*
X465229Y293307D02*
D03*
X454724Y275590D02*
D03*
Y279528D02*
D03*
Y283465D02*
D03*
Y287402D02*
D03*
X386073Y388159D02*
D03*
X475579Y297512D02*
D03*
Y301849D02*
D03*
Y306264D02*
D03*
X343953Y258102D02*
D03*
X295528Y313831D02*
D03*
X297756Y345106D02*
D03*
X342875Y229476D02*
D03*
X379386Y248102D02*
D03*
D64*
X176426Y407480D02*
D03*
X332677Y261811D02*
D03*
X332677Y253642D02*
D03*
X551181Y397232D02*
D03*
X519685Y356409D02*
D03*
X350051Y229476D02*
D03*
X540803Y399264D02*
D03*
Y388831D02*
D03*
X263385Y285217D02*
D03*
X277071Y344976D02*
D03*
X288756Y295606D02*
D03*
D65*
X515213Y379087D02*
D03*
X475843D02*
D03*
D106*
X176426Y407480D02*
D03*
X201526D02*
D03*
X176426Y372047D02*
D03*
X201526D02*
D03*
Y389764D02*
D03*
X176426D02*
D03*
D107*
X321272Y261811D02*
D03*
X332272D02*
D03*
D108*
X551181Y397232D02*
D03*
Y386232D02*
D03*
X519685Y345409D02*
D03*
Y356409D02*
D03*
D109*
X210630Y371850D02*
D03*
Y380118D02*
D03*
D110*
X296756Y341039D02*
D03*
X276756D02*
D03*
D111*
X355542Y244342D02*
D03*
X371290D02*
D03*
X356756Y285106D02*
D03*
X372504D02*
D03*
D112*
X476323Y390606D02*
D03*
Y339717D02*
D03*
D113*
X436756Y400606D02*
D03*
Y380606D02*
D03*
Y390606D02*
D03*
Y339717D02*
D03*
Y329717D02*
D03*
Y349717D02*
D03*
D114*
X400756Y333480D02*
D03*
Y317732D02*
D03*
X401969Y380228D02*
D03*
Y364480D02*
D03*
X385969Y380102D02*
D03*
Y364354D02*
D03*
X384756Y333480D02*
D03*
Y317732D02*
D03*
D115*
X384603Y344835D02*
D03*
X396217D02*
D03*
X386177Y393654D02*
D03*
X397792D02*
D03*
X348776Y392079D02*
D03*
X360390D02*
D03*
X487752Y300346D02*
D03*
X499366D02*
D03*
D116*
X340532Y359606D02*
D03*
X364981D02*
D03*
X364981Y331606D02*
D03*
X340532D02*
D03*
D117*
X335756Y390354D02*
D03*
Y408858D02*
D03*
D118*
X499465Y285090D02*
D03*
Y291980D02*
D03*
X460095Y285090D02*
D03*
Y291980D02*
D03*
D119*
X270756Y324827D02*
D03*
Y302386D02*
D03*
D120*
X468165Y293949D02*
D03*
X471906D02*
D03*
X475646D02*
D03*
Y283122D02*
D03*
X471906D02*
D03*
X468165D02*
D03*
M02*
