G04*
G04 #@! TF.GenerationSoftware,Altium Limited,Altium Designer,20.2.6 (244)*
G04*
G04 Layer_Color=255*
%FSLAX24Y24*%
%MOIN*%
G70*
G04*
G04 #@! TF.SameCoordinates,31C55898-3F01-4FA6-8909-C42763FC29AA*
G04*
G04*
G04 #@! TF.FilePolarity,Positive*
G04*
G01*
G75*
%ADD17R,0.0689X0.0492*%
%ADD21R,0.4016X0.3583*%
%ADD22R,0.0492X0.0689*%
%ADD23R,0.0531X0.0413*%
%ADD24R,0.0413X0.0531*%
%ADD26R,0.2126X0.1142*%
%ADD29R,0.0492X0.0591*%
%ADD68C,0.0315*%
%ADD69C,0.0600*%
%ADD70R,0.0787X0.0787*%
G04:AMPARAMS|DCode=71|XSize=78.7mil|YSize=78.7mil|CornerRadius=19.7mil|HoleSize=0mil|Usage=FLASHONLY|Rotation=90.000|XOffset=0mil|YOffset=0mil|HoleType=Round|Shape=RoundedRectangle|*
%AMROUNDEDRECTD71*
21,1,0.0787,0.0394,0,0,90.0*
21,1,0.0394,0.0787,0,0,90.0*
1,1,0.0394,0.0197,0.0197*
1,1,0.0394,0.0197,-0.0197*
1,1,0.0394,-0.0197,-0.0197*
1,1,0.0394,-0.0197,0.0197*
%
%ADD71ROUNDEDRECTD71*%
%ADD72C,0.0472*%
G04:AMPARAMS|DCode=73|XSize=47.2mil|YSize=47.2mil|CornerRadius=11.8mil|HoleSize=0mil|Usage=FLASHONLY|Rotation=180.000|XOffset=0mil|YOffset=0mil|HoleType=Round|Shape=RoundedRectangle|*
%AMROUNDEDRECTD73*
21,1,0.0472,0.0236,0,0,180.0*
21,1,0.0236,0.0472,0,0,180.0*
1,1,0.0236,-0.0118,0.0118*
1,1,0.0236,0.0118,0.0118*
1,1,0.0236,0.0118,-0.0118*
1,1,0.0236,-0.0118,-0.0118*
%
%ADD73ROUNDEDRECTD73*%
G04:AMPARAMS|DCode=74|XSize=47.2mil|YSize=47.2mil|CornerRadius=11.8mil|HoleSize=0mil|Usage=FLASHONLY|Rotation=90.000|XOffset=0mil|YOffset=0mil|HoleType=Round|Shape=RoundedRectangle|*
%AMROUNDEDRECTD74*
21,1,0.0472,0.0236,0,0,90.0*
21,1,0.0236,0.0472,0,0,90.0*
1,1,0.0236,0.0118,0.0118*
1,1,0.0236,0.0118,-0.0118*
1,1,0.0236,-0.0118,-0.0118*
1,1,0.0236,-0.0118,0.0118*
%
%ADD74ROUNDEDRECTD74*%
%ADD75R,0.0600X0.0600*%
%ADD76R,0.0591X0.0591*%
%ADD77R,0.0591X0.0591*%
%ADD78C,0.0591*%
%ADD81R,0.3583X0.4016*%
%ADD82R,0.1555X0.0413*%
%ADD83R,0.0598X0.1260*%
%ADD84R,0.0591X0.0492*%
%ADD85R,0.0492X0.0728*%
%ADD86R,0.0236X0.0394*%
%ADD87R,0.0413X0.1555*%
%ADD88R,0.0866X0.0984*%
%ADD89R,0.0984X0.0669*%
%ADD90R,0.1358X0.0650*%
%ADD91R,0.0669X0.0984*%
D17*
X20079Y-2490D02*
D03*
Y-3573D02*
D03*
X12677Y-10463D02*
D03*
Y-9380D02*
D03*
X16650Y-14676D02*
D03*
Y-13594D02*
D03*
D21*
X11800Y-3785D02*
D03*
D22*
X19085Y-3661D02*
D03*
X18002D02*
D03*
D23*
X27165Y-13356D02*
D03*
Y-12628D02*
D03*
X32283Y-13356D02*
D03*
Y-12628D02*
D03*
X27953D02*
D03*
Y-13356D02*
D03*
X31496Y-12628D02*
D03*
Y-13356D02*
D03*
D24*
X29892Y-14173D02*
D03*
X29163D02*
D03*
D26*
X36024Y-13957D02*
D03*
Y-10059D02*
D03*
D29*
X32579Y-10827D02*
D03*
X31890D02*
D03*
X18061Y-18898D02*
D03*
X17372D02*
D03*
D68*
X11582Y-13497D02*
D03*
X11975D02*
D03*
Y-13891D02*
D03*
Y-14284D02*
D03*
X11582D02*
D03*
X12369D02*
D03*
Y-13891D02*
D03*
X11582D02*
D03*
D69*
X10225Y-2486D02*
D03*
Y-3273D02*
D03*
Y-4061D02*
D03*
Y-4848D02*
D03*
X11013Y-2486D02*
D03*
Y-3273D02*
D03*
Y-4061D02*
D03*
Y-4848D02*
D03*
X11800Y-2486D02*
D03*
Y-3273D02*
D03*
Y-4061D02*
D03*
Y-4848D02*
D03*
X12587Y-2486D02*
D03*
Y-3273D02*
D03*
Y-4061D02*
D03*
Y-4848D02*
D03*
X13375Y-2486D02*
D03*
Y-3273D02*
D03*
Y-4061D02*
D03*
Y-4848D02*
D03*
X33189Y-18717D02*
D03*
X34189D02*
D03*
X35189D02*
D03*
X36189D02*
D03*
X37189D02*
D03*
X38189D02*
D03*
X33189Y-17717D02*
D03*
X34189D02*
D03*
X35189D02*
D03*
X36189D02*
D03*
X37189D02*
D03*
X1181Y-18717D02*
D03*
X2181D02*
D03*
X3181D02*
D03*
X4181D02*
D03*
X5181D02*
D03*
X6181D02*
D03*
X1181Y-17717D02*
D03*
X2181D02*
D03*
X3181D02*
D03*
X4181D02*
D03*
X5181D02*
D03*
X26220Y-18717D02*
D03*
X27220D02*
D03*
X28220D02*
D03*
X29220D02*
D03*
X30220D02*
D03*
X31220D02*
D03*
X26220Y-17717D02*
D03*
X27220D02*
D03*
X28220D02*
D03*
X29220D02*
D03*
X30220D02*
D03*
D70*
X14800Y-1050D02*
D03*
D71*
Y-2550D02*
D03*
Y-4050D02*
D03*
Y-7050D02*
D03*
Y-8550D02*
D03*
Y-10050D02*
D03*
X24800Y-1050D02*
D03*
Y-2550D02*
D03*
Y-4050D02*
D03*
Y-7050D02*
D03*
Y-8550D02*
D03*
Y-10050D02*
D03*
D72*
X1181Y-7677D02*
D03*
X8268Y-10433D02*
D03*
X7283Y-984D02*
D03*
Y-7185D02*
D03*
D73*
X3150Y-7677D02*
D03*
X6299Y-10433D02*
D03*
D74*
X7283Y-2953D02*
D03*
Y-5217D02*
D03*
D75*
X38189Y-17717D02*
D03*
X6181D02*
D03*
X31220D02*
D03*
D76*
X6299Y-13780D02*
D03*
D77*
X3008Y-13485D02*
D03*
D78*
X1000D02*
D03*
X3008Y-16485D02*
D03*
X1000D02*
D03*
D81*
X30757Y-2785D02*
D03*
Y-7874D02*
D03*
D82*
X26800Y-1785D02*
D03*
Y-3785D02*
D03*
Y-2785D02*
D03*
Y-7874D02*
D03*
Y-8874D02*
D03*
Y-6874D02*
D03*
D83*
X17178Y-5885D02*
D03*
X19622D02*
D03*
X19622Y-8685D02*
D03*
X17178D02*
D03*
D84*
X29134Y-12648D02*
D03*
Y-13337D02*
D03*
X33071Y-12648D02*
D03*
Y-13337D02*
D03*
D85*
X33061Y-11811D02*
D03*
X31900D02*
D03*
X18002Y-2638D02*
D03*
X19163D02*
D03*
X21742Y-2480D02*
D03*
X22904D02*
D03*
X21585Y-7362D02*
D03*
X22746D02*
D03*
D86*
X29941Y-13533D02*
D03*
X30315D02*
D03*
X30689D02*
D03*
Y-12451D02*
D03*
X30315D02*
D03*
X29941D02*
D03*
D87*
X12800Y-7742D02*
D03*
X10800D02*
D03*
D88*
X16700Y-2810D02*
D03*
Y-960D02*
D03*
D89*
X18813Y-14785D02*
D03*
X20387D02*
D03*
X18800Y-13335D02*
D03*
X20375D02*
D03*
D90*
X10200Y-11607D02*
D03*
Y-9363D02*
D03*
D91*
X21721Y-3835D02*
D03*
Y-5410D02*
D03*
X23321Y-3823D02*
D03*
Y-5398D02*
D03*
X23200Y-8498D02*
D03*
Y-10072D02*
D03*
X21600Y-8498D02*
D03*
Y-10072D02*
D03*
M02*
