G04*
G04 #@! TF.GenerationSoftware,Altium Limited,Altium Designer,20.2.6 (244)*
G04*
G04 Layer_Color=8388736*
%FSLAX24Y24*%
%MOIN*%
G70*
G04*
G04 #@! TF.SameCoordinates,31C55898-3F01-4FA6-8909-C42763FC29AA*
G04*
G04*
G04 #@! TF.FilePolarity,Negative*
G04*
G01*
G75*
%ADD30R,0.0808X0.0572*%
%ADD31R,0.0867X0.1655*%
%ADD32R,0.0769X0.0572*%
%ADD33R,0.0710X0.1182*%
%ADD34O,0.0651X0.0316*%
G04:AMPARAMS|DCode=35|XSize=126.1mil|YSize=126.1mil|CornerRadius=33.5mil|HoleSize=0mil|Usage=FLASHONLY|Rotation=0.000|XOffset=0mil|YOffset=0mil|HoleType=Round|Shape=RoundedRectangle|*
%AMROUNDEDRECTD35*
21,1,0.1261,0.0591,0,0,0.0*
21,1,0.0591,0.1261,0,0,0.0*
1,1,0.0671,0.0295,-0.0295*
1,1,0.0671,-0.0295,-0.0295*
1,1,0.0671,-0.0295,0.0295*
1,1,0.0671,0.0295,0.0295*
%
%ADD35ROUNDEDRECTD35*%
%ADD36R,0.4096X0.3663*%
%ADD37R,0.0572X0.0769*%
%ADD38R,0.0611X0.0493*%
%ADD39R,0.0493X0.0611*%
%ADD40R,0.0710X0.1340*%
%ADD41R,0.2206X0.1222*%
%ADD42R,0.0592X0.0671*%
G04:AMPARAMS|DCode=43|XSize=29.7mil|YSize=39.5mil|CornerRadius=5.9mil|HoleSize=0mil|Usage=FLASHONLY|Rotation=90.000|XOffset=0mil|YOffset=0mil|HoleType=Round|Shape=RoundedRectangle|*
%AMROUNDEDRECTD43*
21,1,0.0297,0.0276,0,0,90.0*
21,1,0.0178,0.0395,0,0,90.0*
1,1,0.0119,0.0138,0.0089*
1,1,0.0119,0.0138,-0.0089*
1,1,0.0119,-0.0138,-0.0089*
1,1,0.0119,-0.0138,0.0089*
%
%ADD43ROUNDEDRECTD43*%
%ADD44R,0.0572X0.0671*%
%ADD45C,0.0395*%
%ADD46C,0.0680*%
%ADD47R,0.0867X0.0867*%
G04:AMPARAMS|DCode=48|XSize=86.7mil|YSize=86.7mil|CornerRadius=23.7mil|HoleSize=0mil|Usage=FLASHONLY|Rotation=90.000|XOffset=0mil|YOffset=0mil|HoleType=Round|Shape=RoundedRectangle|*
%AMROUNDEDRECTD48*
21,1,0.0867,0.0394,0,0,90.0*
21,1,0.0394,0.0867,0,0,90.0*
1,1,0.0474,0.0197,0.0197*
1,1,0.0474,0.0197,-0.0197*
1,1,0.0474,-0.0197,-0.0197*
1,1,0.0474,-0.0197,0.0197*
%
%ADD48ROUNDEDRECTD48*%
%ADD49C,0.0552*%
G04:AMPARAMS|DCode=50|XSize=55.2mil|YSize=55.2mil|CornerRadius=15.8mil|HoleSize=0mil|Usage=FLASHONLY|Rotation=180.000|XOffset=0mil|YOffset=0mil|HoleType=Round|Shape=RoundedRectangle|*
%AMROUNDEDRECTD50*
21,1,0.0552,0.0236,0,0,180.0*
21,1,0.0236,0.0552,0,0,180.0*
1,1,0.0316,-0.0118,0.0118*
1,1,0.0316,0.0118,0.0118*
1,1,0.0316,0.0118,-0.0118*
1,1,0.0316,-0.0118,-0.0118*
%
%ADD50ROUNDEDRECTD50*%
G04:AMPARAMS|DCode=51|XSize=55.2mil|YSize=55.2mil|CornerRadius=15.8mil|HoleSize=0mil|Usage=FLASHONLY|Rotation=90.000|XOffset=0mil|YOffset=0mil|HoleType=Round|Shape=RoundedRectangle|*
%AMROUNDEDRECTD51*
21,1,0.0552,0.0236,0,0,90.0*
21,1,0.0236,0.0552,0,0,90.0*
1,1,0.0316,0.0118,0.0118*
1,1,0.0316,0.0118,-0.0118*
1,1,0.0316,-0.0118,-0.0118*
1,1,0.0316,-0.0118,0.0118*
%
%ADD51ROUNDEDRECTD51*%
%ADD52R,0.0680X0.0680*%
%ADD53R,0.0671X0.0671*%
%ADD54R,0.0671X0.0671*%
%ADD55C,0.0671*%
%ADD56C,0.0236*%
%ADD57C,0.0316*%
%ADD58C,0.0474*%
%ADD59C,0.0580*%
D30*
X33465Y-11998D02*
D03*
Y-10837D02*
D03*
X37205Y-4124D02*
D03*
Y-2963D02*
D03*
X26969Y-8278D02*
D03*
Y-9439D02*
D03*
X9449Y-13297D02*
D03*
Y-14459D02*
D03*
D31*
X30709Y-11791D02*
D03*
Y-14587D02*
D03*
Y-1142D02*
D03*
Y-3937D02*
D03*
X34646Y-1161D02*
D03*
Y-3957D02*
D03*
X30709Y-6260D02*
D03*
Y-9055D02*
D03*
D32*
X37205Y-1919D02*
D03*
Y-837D02*
D03*
X27953Y-9400D02*
D03*
Y-8317D02*
D03*
D33*
X34646Y-12736D02*
D03*
Y-14429D02*
D03*
X27165Y-12874D02*
D03*
Y-14567D02*
D03*
Y-2618D02*
D03*
Y-925D02*
D03*
D34*
X10903Y-13141D02*
D03*
Y-13641D02*
D03*
Y-14141D02*
D03*
Y-14641D02*
D03*
X13048Y-13141D02*
D03*
Y-13641D02*
D03*
Y-14141D02*
D03*
Y-14641D02*
D03*
D35*
X11975Y-13891D02*
D03*
D36*
X11800Y-3785D02*
D03*
D37*
X11270Y-7382D02*
D03*
X12352D02*
D03*
X12352Y-8366D02*
D03*
X11270D02*
D03*
D38*
X7677Y-13543D02*
D03*
Y-14272D02*
D03*
X24213Y-15128D02*
D03*
Y-14400D02*
D03*
X8465Y-14272D02*
D03*
Y-13543D02*
D03*
X22638Y-15128D02*
D03*
Y-14400D02*
D03*
X23425Y-15128D02*
D03*
Y-14400D02*
D03*
D39*
X23500Y-16685D02*
D03*
X24228D02*
D03*
X16142Y-18898D02*
D03*
X15413D02*
D03*
X23500Y-17571D02*
D03*
X24228D02*
D03*
X17402Y-18898D02*
D03*
X18130D02*
D03*
X15413Y-18110D02*
D03*
X16142D02*
D03*
Y-17323D02*
D03*
X15413D02*
D03*
D40*
X9154Y-18701D02*
D03*
Y-16732D02*
D03*
X12205Y-18701D02*
D03*
Y-16732D02*
D03*
D41*
X2559Y-4705D02*
D03*
Y-807D02*
D03*
D42*
X17520Y-17035D02*
D03*
Y-16035D02*
D03*
X21063D02*
D03*
Y-17035D02*
D03*
D43*
X22890Y-18752D02*
D03*
X22024Y-19126D02*
D03*
Y-18378D02*
D03*
D44*
X18898Y-18898D02*
D03*
X19587D02*
D03*
X22014Y-16685D02*
D03*
X22703D02*
D03*
D45*
X11582Y-13497D02*
D03*
X11975D02*
D03*
Y-13891D02*
D03*
Y-14284D02*
D03*
X11582D02*
D03*
X12369D02*
D03*
Y-13891D02*
D03*
X11582D02*
D03*
X34843Y-12205D02*
D03*
X34252Y-12795D02*
D03*
X34841Y-12804D02*
D03*
X34252Y-12205D02*
D03*
X35223Y-11259D02*
D03*
X34843D02*
D03*
X34465D02*
D03*
X34646Y-14567D02*
D03*
Y-14173D02*
D03*
D46*
X10225Y-2486D02*
D03*
Y-3273D02*
D03*
Y-4061D02*
D03*
Y-4848D02*
D03*
X11013Y-2486D02*
D03*
Y-3273D02*
D03*
Y-4061D02*
D03*
Y-4848D02*
D03*
X11800Y-2486D02*
D03*
Y-3273D02*
D03*
Y-4061D02*
D03*
Y-4848D02*
D03*
X12587Y-2486D02*
D03*
Y-3273D02*
D03*
Y-4061D02*
D03*
Y-4848D02*
D03*
X13375Y-2486D02*
D03*
Y-3273D02*
D03*
Y-4061D02*
D03*
Y-4848D02*
D03*
X33189Y-18717D02*
D03*
X34189D02*
D03*
X35189D02*
D03*
X36189D02*
D03*
X37189D02*
D03*
X38189D02*
D03*
X33189Y-17717D02*
D03*
X34189D02*
D03*
X35189D02*
D03*
X36189D02*
D03*
X37189D02*
D03*
X1181Y-18717D02*
D03*
X2181D02*
D03*
X3181D02*
D03*
X4181D02*
D03*
X5181D02*
D03*
X6181D02*
D03*
X1181Y-17717D02*
D03*
X2181D02*
D03*
X3181D02*
D03*
X4181D02*
D03*
X5181D02*
D03*
X26220Y-18717D02*
D03*
X27220D02*
D03*
X28220D02*
D03*
X29220D02*
D03*
X30220D02*
D03*
X31220D02*
D03*
X26220Y-17717D02*
D03*
X27220D02*
D03*
X28220D02*
D03*
X29220D02*
D03*
X30220D02*
D03*
D47*
X14800Y-1050D02*
D03*
D48*
Y-2550D02*
D03*
Y-4050D02*
D03*
Y-7050D02*
D03*
Y-8550D02*
D03*
Y-10050D02*
D03*
X24800Y-1050D02*
D03*
Y-2550D02*
D03*
Y-4050D02*
D03*
Y-7050D02*
D03*
Y-8550D02*
D03*
Y-10050D02*
D03*
D49*
X1181Y-7677D02*
D03*
X8268Y-10433D02*
D03*
X7283Y-984D02*
D03*
Y-7185D02*
D03*
D50*
X3150Y-7677D02*
D03*
X6299Y-10433D02*
D03*
D51*
X7283Y-2953D02*
D03*
Y-5217D02*
D03*
D52*
X38189Y-17717D02*
D03*
X6181D02*
D03*
X31220D02*
D03*
D53*
X6299Y-13780D02*
D03*
D54*
X3008Y-13485D02*
D03*
D55*
X1000D02*
D03*
X3008Y-16485D02*
D03*
X1000D02*
D03*
D56*
X35125Y-16828D02*
D03*
X34653D02*
D03*
Y-17301D02*
D03*
Y-18246D02*
D03*
X34180Y-16828D02*
D03*
X33708Y-12576D02*
D03*
Y-13049D02*
D03*
Y-13521D02*
D03*
X30873Y-16828D02*
D03*
Y-18246D02*
D03*
X28511Y-12576D02*
D03*
X26621Y-15411D02*
D03*
Y-15883D02*
D03*
Y-16356D02*
D03*
Y-16828D02*
D03*
X26149Y-14939D02*
D03*
Y-15411D02*
D03*
Y-15883D02*
D03*
Y-16356D02*
D03*
Y-16828D02*
D03*
X25676Y-12104D02*
D03*
Y-14466D02*
D03*
Y-14939D02*
D03*
Y-15411D02*
D03*
Y-15883D02*
D03*
Y-16356D02*
D03*
Y-16828D02*
D03*
X25204Y-13994D02*
D03*
Y-14466D02*
D03*
Y-14939D02*
D03*
Y-15411D02*
D03*
Y-15883D02*
D03*
Y-16356D02*
D03*
Y-16828D02*
D03*
Y-17301D02*
D03*
Y-17773D02*
D03*
Y-18246D02*
D03*
Y-18718D02*
D03*
Y-19191D02*
D03*
X24731Y-13521D02*
D03*
Y-13994D02*
D03*
Y-14466D02*
D03*
Y-14939D02*
D03*
Y-15411D02*
D03*
Y-15883D02*
D03*
Y-16356D02*
D03*
Y-16828D02*
D03*
Y-17301D02*
D03*
Y-17773D02*
D03*
Y-18246D02*
D03*
Y-18718D02*
D03*
Y-19191D02*
D03*
X24259Y-13049D02*
D03*
Y-13521D02*
D03*
Y-18718D02*
D03*
Y-19191D02*
D03*
X23787Y-12576D02*
D03*
Y-13049D02*
D03*
Y-13521D02*
D03*
Y-19191D02*
D03*
X23314Y-12104D02*
D03*
Y-12576D02*
D03*
Y-13049D02*
D03*
Y-13521D02*
D03*
Y-18246D02*
D03*
X22842D02*
D03*
X22369Y-11631D02*
D03*
Y-17301D02*
D03*
X21897Y-11631D02*
D03*
X21424Y-17773D02*
D03*
Y-18246D02*
D03*
Y-19191D02*
D03*
X16109Y-10687D02*
D03*
Y-11277D02*
D03*
Y-11868D02*
D03*
Y-12458D02*
D03*
X15519Y-10687D02*
D03*
Y-11277D02*
D03*
Y-11868D02*
D03*
Y-12458D02*
D03*
Y-13049D02*
D03*
X14928Y-11868D02*
D03*
Y-12458D02*
D03*
Y-13049D02*
D03*
Y-13639D02*
D03*
Y-14230D02*
D03*
X14338Y-14820D02*
D03*
Y-15411D02*
D03*
Y-16002D02*
D03*
Y-16592D02*
D03*
Y-17183D02*
D03*
X13747Y-15411D02*
D03*
Y-16002D02*
D03*
X13157Y-15411D02*
D03*
Y-17183D02*
D03*
X12566Y-14820D02*
D03*
Y-15411D02*
D03*
X11976Y-13049D02*
D03*
Y-14820D02*
D03*
Y-15411D02*
D03*
X11385Y-14820D02*
D03*
Y-15411D02*
D03*
Y-16592D02*
D03*
Y-17183D02*
D03*
X10794Y-15411D02*
D03*
Y-16592D02*
D03*
Y-17183D02*
D03*
X10204Y-16592D02*
D03*
Y-17183D02*
D03*
X9613Y-15411D02*
D03*
X9023Y-10687D02*
D03*
Y-11277D02*
D03*
Y-11868D02*
D03*
X8432Y-7143D02*
D03*
Y-7734D02*
D03*
Y-8324D02*
D03*
Y-8915D02*
D03*
Y-9506D02*
D03*
Y-11277D02*
D03*
Y-11868D02*
D03*
Y-12458D02*
D03*
Y-14820D02*
D03*
Y-15411D02*
D03*
Y-16002D02*
D03*
Y-16592D02*
D03*
Y-17183D02*
D03*
X7842Y-7143D02*
D03*
Y-7734D02*
D03*
Y-8324D02*
D03*
Y-8915D02*
D03*
Y-9506D02*
D03*
Y-10096D02*
D03*
Y-10687D02*
D03*
Y-11277D02*
D03*
Y-11868D02*
D03*
Y-12458D02*
D03*
Y-13049D02*
D03*
Y-14820D02*
D03*
Y-15411D02*
D03*
X7251Y-11868D02*
D03*
Y-12458D02*
D03*
Y-13049D02*
D03*
Y-14820D02*
D03*
X6661Y-7143D02*
D03*
Y-12458D02*
D03*
Y-13049D02*
D03*
Y-14820D02*
D03*
X6070Y-7143D02*
D03*
Y-12458D02*
D03*
Y-13049D02*
D03*
Y-14820D02*
D03*
X5480Y-12458D02*
D03*
Y-13049D02*
D03*
Y-13639D02*
D03*
Y-14230D02*
D03*
Y-14820D02*
D03*
X4889Y-12458D02*
D03*
Y-13049D02*
D03*
Y-13639D02*
D03*
Y-14230D02*
D03*
Y-14820D02*
D03*
X4298Y-14230D02*
D03*
Y-14820D02*
D03*
X3708D02*
D03*
X1936D02*
D03*
X1346Y-7143D02*
D03*
Y-8324D02*
D03*
Y-8915D02*
D03*
Y-9506D02*
D03*
Y-10096D02*
D03*
Y-10687D02*
D03*
Y-11277D02*
D03*
Y-11868D02*
D03*
Y-12458D02*
D03*
Y-13049D02*
D03*
Y-14230D02*
D03*
Y-14820D02*
D03*
X755Y-7143D02*
D03*
Y-8324D02*
D03*
Y-8915D02*
D03*
Y-9506D02*
D03*
Y-10096D02*
D03*
Y-10687D02*
D03*
Y-11277D02*
D03*
Y-11868D02*
D03*
Y-12458D02*
D03*
Y-14230D02*
D03*
Y-14820D02*
D03*
D57*
X21732Y-3030D02*
D03*
X33661Y-8268D02*
D03*
X33268D02*
D03*
X32874D02*
D03*
X32480D02*
D03*
X32087D02*
D03*
X31693D02*
D03*
Y-8661D02*
D03*
X32087D02*
D03*
X32480D02*
D03*
X32874D02*
D03*
X33268D02*
D03*
X33661D02*
D03*
Y-9055D02*
D03*
X33268D02*
D03*
X32874D02*
D03*
X32480D02*
D03*
X32087D02*
D03*
X31693D02*
D03*
Y-9449D02*
D03*
X32087D02*
D03*
X32480D02*
D03*
X32874D02*
D03*
X33268D02*
D03*
X33661D02*
D03*
X30682Y-12094D02*
D03*
Y-11661D02*
D03*
Y-11219D02*
D03*
X12677Y-10463D02*
D03*
X12900Y-7335D02*
D03*
X21063Y-17035D02*
D03*
X15413Y-17323D02*
D03*
X17402Y-18898D02*
D03*
X17520Y-16035D02*
D03*
Y-17035D02*
D03*
X19567Y-18898D02*
D03*
D58*
X37205Y-1919D02*
D03*
Y-2963D02*
D03*
X9463Y-13324D02*
D03*
X12000Y-12285D02*
D03*
X10433Y-18701D02*
D03*
X11024Y-18701D02*
D03*
X11614Y-18701D02*
D03*
X12195Y-18701D02*
D03*
X9744D02*
D03*
X9154D02*
D03*
X10832Y-7348D02*
D03*
D59*
X34646Y-3937D02*
D03*
X30709D02*
D03*
M02*
