G04*
G04 #@! TF.GenerationSoftware,Altium Limited,Altium Designer,21.0.8 (223)*
G04*
G04 Layer_Color=32768*
%FSLAX25Y25*%
%MOIN*%
G70*
G04*
G04 #@! TF.SameCoordinates,608BFDEB-8ADB-4086-B875-8CE8CE559F17*
G04*
G04*
G04 #@! TF.FilePolarity,Positive*
G04*
G01*
G75*
%ADD124C,0.00394*%
%ADD129C,0.00197*%
D124*
X290803Y239323D02*
Y243260D01*
X288835Y241291D02*
X292772D01*
X317717Y257874D02*
Y265748D01*
X335827Y257874D02*
Y265748D01*
X317717D02*
X335827D01*
X317717Y257874D02*
X335827D01*
X324803Y261811D02*
X328740D01*
X326772Y259842D02*
Y263779D01*
X547244Y382677D02*
X555118D01*
X547244Y400787D02*
X555118D01*
X547244Y382677D02*
Y400787D01*
X555118Y382677D02*
Y400787D01*
X551181Y389764D02*
Y393701D01*
X549213Y391732D02*
X553150D01*
X515522Y341854D02*
X523396D01*
X515522Y359964D02*
X523396D01*
X515522Y341854D02*
Y359964D01*
X523396Y341854D02*
Y359964D01*
X519459Y348940D02*
Y352877D01*
X517490Y350909D02*
X521427D01*
X208661Y375984D02*
X212598D01*
X210630Y374016D02*
Y377953D01*
X213976Y369193D02*
Y382776D01*
X207283Y369193D02*
Y382776D01*
Y369193D02*
X213976D01*
X207283Y382776D02*
X213976D01*
X192378Y390898D02*
X196315D01*
X194347Y388929D02*
Y392866D01*
X286756Y364071D02*
Y368008D01*
X284788Y366039D02*
X288725D01*
X188796Y266638D02*
Y270575D01*
X186827Y268606D02*
X190764D01*
X286542Y279550D02*
X290479D01*
X288511Y277581D02*
Y281518D01*
X344056Y229476D02*
X347993D01*
X346025Y227508D02*
Y231445D01*
X363416Y242373D02*
Y246310D01*
X361447Y244342D02*
X365384D01*
X461756Y388638D02*
Y392575D01*
X459788Y390606D02*
X463725D01*
X400756Y323638D02*
Y327575D01*
X398788Y325606D02*
X402725D01*
X401969Y370386D02*
Y374323D01*
X400000Y372354D02*
X403937D01*
X390410Y342866D02*
Y346803D01*
X388441Y344835D02*
X392378D01*
X391985Y391685D02*
Y395622D01*
X390016Y393654D02*
X393953D01*
X459788Y339717D02*
X463725D01*
X461756Y337748D02*
Y341685D01*
X350788Y359606D02*
X354725D01*
X352756Y357638D02*
Y361575D01*
X385969Y370260D02*
Y374197D01*
X384000Y372228D02*
X387937D01*
X369544Y386173D02*
Y390110D01*
X367575Y388142D02*
X371512D01*
X354583Y390110D02*
Y394047D01*
X352614Y392079D02*
X356552D01*
X335256Y275138D02*
Y279075D01*
X333288Y277106D02*
X337225D01*
X333788Y399606D02*
X337725D01*
X335756Y397638D02*
Y401575D01*
X352756Y329638D02*
Y333575D01*
X350788Y331606D02*
X354725D01*
X352221Y381843D02*
X356158D01*
X354189Y379874D02*
Y383811D01*
X384756Y323638D02*
Y327575D01*
X382788Y325606D02*
X386725D01*
X364630Y283138D02*
Y287075D01*
X362662Y285106D02*
X366599D01*
X493559Y298378D02*
Y302315D01*
X491591Y300346D02*
X495528D01*
X499465Y286567D02*
Y290504D01*
X497496Y288535D02*
X501433D01*
X483717Y286567D02*
Y290504D01*
X481748Y288535D02*
X485685D01*
X491591Y286567D02*
Y290504D01*
X489622Y288535D02*
X493559D01*
X489130Y310189D02*
X493067D01*
X491099Y308220D02*
Y312157D01*
X527024Y298378D02*
X530961D01*
X528992Y296409D02*
Y300346D01*
X554583Y270819D02*
Y325937D01*
X503402Y270819D02*
Y325937D01*
Y270819D02*
X554583D01*
X503402Y325937D02*
X554583D01*
X295528Y317276D02*
Y321213D01*
X293559Y319244D02*
X297496D01*
X268788Y313606D02*
X272725D01*
X270756Y311638D02*
Y315575D01*
X462063Y276724D02*
X466000D01*
X464032Y274756D02*
Y278693D01*
X460095Y286567D02*
Y290504D01*
X458126Y288535D02*
X462063D01*
X448284Y286567D02*
Y290504D01*
X446315Y288535D02*
X450252D01*
X440410Y286567D02*
Y290504D01*
X438441Y288535D02*
X442378D01*
X471906Y286567D02*
Y290504D01*
X469937Y288535D02*
X473874D01*
X540803Y381055D02*
Y384992D01*
X538835Y383024D02*
X542772D01*
X515213Y280661D02*
Y284598D01*
X513244Y282630D02*
X517181D01*
X391355Y230937D02*
X395292D01*
X393323Y228969D02*
Y232906D01*
X258323Y241291D02*
X262260D01*
X260292Y239323D02*
Y243260D01*
X440410Y398772D02*
Y402709D01*
X438441Y400740D02*
X442378D01*
X326532Y227512D02*
Y231449D01*
X324563Y229480D02*
X328500D01*
X346414Y227512D02*
Y231449D01*
X344445Y229480D02*
X348382D01*
X330709Y250000D02*
X334646D01*
X332677Y248031D02*
Y251969D01*
X322835Y250000D02*
X326772D01*
X324803Y248031D02*
Y251969D01*
X361177Y227512D02*
Y231449D01*
X359209Y229480D02*
X363146D01*
X361670Y251134D02*
Y255071D01*
X359701Y253102D02*
X363638D01*
X473874Y286567D02*
X477811D01*
X475843Y284598D02*
Y288535D01*
X501433Y304283D02*
X505370D01*
X503402Y302315D02*
Y306252D01*
X393165Y270819D02*
X397102D01*
X395134Y268850D02*
Y272787D01*
X440410Y279283D02*
Y283220D01*
X438441Y281252D02*
X442378D01*
X407398Y249638D02*
Y253575D01*
X405429Y251606D02*
X409366D01*
X392339Y249638D02*
Y253575D01*
X390370Y251606D02*
X394307D01*
X408914Y270819D02*
X412851D01*
X410882Y268850D02*
Y272787D01*
X401040Y270819D02*
X404977D01*
X403008Y268850D02*
Y272787D01*
X407398Y240780D02*
Y244717D01*
X405429Y242748D02*
X409366D01*
X475843Y391094D02*
Y395031D01*
X473874Y393063D02*
X477811D01*
X538835Y404677D02*
X542772D01*
X540803Y402709D02*
Y406646D01*
X515213Y390898D02*
Y394835D01*
X513244Y392866D02*
X517181D01*
X475843Y339913D02*
Y343850D01*
X473874Y341882D02*
X477811D01*
X446315Y329874D02*
X450252D01*
X448284Y327906D02*
Y331842D01*
X438441Y327906D02*
Y331842D01*
X436473Y329874D02*
X440410D01*
X286866Y332827D02*
Y336764D01*
X284898Y334795D02*
X288835D01*
X286866Y342669D02*
Y346606D01*
X284898Y344638D02*
X288835D01*
X243559Y279382D02*
X247496D01*
X245528Y277414D02*
Y281350D01*
X251433Y279382D02*
X255370D01*
X253402Y277414D02*
Y281350D01*
X263244Y277709D02*
Y281646D01*
X261276Y279677D02*
X265213D01*
D129*
X276433Y224165D02*
X305174D01*
X276433Y258417D02*
X305174D01*
X276433Y224165D02*
Y258417D01*
X305174Y224165D02*
Y258417D01*
X170331Y365307D02*
Y416488D01*
X218363D01*
X170331Y365307D02*
X218363D01*
Y416488D01*
X265693Y332476D02*
X307819D01*
X265693Y399602D02*
X307819D01*
Y332476D02*
Y399602D01*
X265693Y332476D02*
Y399602D01*
X170882Y287701D02*
X206709D01*
X170882Y249512D02*
X206709D01*
Y287701D01*
X170882Y249512D02*
Y287701D01*
X273944Y268723D02*
Y290376D01*
X303078Y268723D02*
Y290376D01*
X273944D02*
X303078D01*
X273944Y268723D02*
X303078D01*
X352915Y225539D02*
Y233413D01*
X339135Y225539D02*
Y233413D01*
X352915D01*
X339135Y225539D02*
X352915D01*
X350227Y238042D02*
X376605D01*
X350227Y250641D02*
X376605D01*
X350227Y238042D02*
Y250641D01*
X376605Y238042D02*
Y250641D01*
X428193Y411669D02*
X495319D01*
X428193Y369543D02*
X495319D01*
Y411669D01*
X428193Y369543D02*
Y411669D01*
X394457Y338795D02*
X407056D01*
X394457Y312417D02*
X407056D01*
X394457D02*
Y338795D01*
X407056Y312417D02*
Y338795D01*
X395670Y385543D02*
X408268D01*
X395670Y359166D02*
X408268D01*
X395670D02*
Y385543D01*
X408268Y359166D02*
Y385543D01*
X381158Y340110D02*
X399662D01*
X381158Y349559D02*
X399662D01*
X381158Y340110D02*
Y349559D01*
X399662Y340110D02*
Y349559D01*
X382733Y388929D02*
X401236D01*
X382733Y398378D02*
X401236D01*
X382733Y388929D02*
Y398378D01*
X401236Y388929D02*
Y398378D01*
X428193Y318654D02*
Y360780D01*
X495319Y318654D02*
Y360780D01*
X428193Y318654D02*
X495319D01*
X428193Y360780D02*
X495319D01*
X336359Y346811D02*
Y372402D01*
X369154Y346811D02*
Y372402D01*
X336359Y346811D02*
X369154D01*
X336359Y372402D02*
X369154D01*
X379670Y385417D02*
X392268D01*
X379670Y359039D02*
X392268D01*
X379670D02*
Y385417D01*
X392268Y359039D02*
Y385417D01*
X365016Y397000D02*
X374071D01*
X365016Y379284D02*
X374071D01*
X365016D02*
Y397000D01*
X374071Y379284D02*
Y397000D01*
X345331Y387354D02*
X363835D01*
X345331Y396803D02*
X363835D01*
X345331Y387354D02*
Y396803D01*
X363835Y387354D02*
Y396803D01*
X330729Y268248D02*
X339784D01*
X330729Y285965D02*
X339784D01*
Y268248D02*
Y285965D01*
X330729Y268248D02*
Y285965D01*
X344024Y385039D02*
Y414173D01*
X327488Y385039D02*
Y414173D01*
Y385039D02*
X344024D01*
X327488Y414173D02*
X344024D01*
X336359Y344402D02*
X369154D01*
X336359Y318811D02*
X369154D01*
Y344402D01*
X336359Y318811D02*
Y344402D01*
X363048Y377315D02*
Y386370D01*
X345331Y377315D02*
Y386370D01*
X363048D01*
X345331Y377315D02*
X363048D01*
X378457Y338795D02*
X391055D01*
X378457Y312417D02*
X391055D01*
X378457D02*
Y338795D01*
X391055Y312417D02*
Y338795D01*
X351441Y278807D02*
X377819D01*
X351441Y291406D02*
X377819D01*
X351441Y278807D02*
Y291406D01*
X377819Y278807D02*
Y291406D01*
X484307Y295622D02*
X502811D01*
X484307Y305071D02*
X502811D01*
X484307Y295622D02*
Y305071D01*
X502811Y295622D02*
Y305071D01*
X495528Y281646D02*
X503402D01*
X495528Y295425D02*
X503402D01*
Y281646D02*
Y295425D01*
X495528Y281646D02*
Y295425D01*
X479977Y295228D02*
X487457D01*
X479977Y281842D02*
X487457D01*
X479977D02*
Y295228D01*
X487457Y281842D02*
Y295228D01*
X487851Y281842D02*
X495331D01*
X487851Y295228D02*
X495331D01*
Y281842D02*
Y295228D01*
X487851Y281842D02*
Y295228D01*
X484209Y306252D02*
Y314126D01*
X497988Y306252D02*
Y314126D01*
X484209Y306252D02*
X497988D01*
X484209Y314126D02*
X497988D01*
X291000Y310386D02*
X300055D01*
X291000Y328102D02*
X300055D01*
Y310386D02*
Y328102D01*
X291000Y310386D02*
Y328102D01*
X262882Y298252D02*
Y328961D01*
X278630Y298252D02*
Y328961D01*
X262882D02*
X278630D01*
X262882Y298252D02*
X278630D01*
X457339Y272984D02*
Y280465D01*
X470725Y272984D02*
Y280465D01*
X457339Y272984D02*
X470725D01*
X457339Y280465D02*
X470725D01*
X456158Y281646D02*
X464032D01*
X456158Y295425D02*
X464032D01*
Y281646D02*
Y295425D01*
X456158Y281646D02*
Y295425D01*
X444544Y295228D02*
X452024D01*
X444544Y281842D02*
X452024D01*
X444544D02*
Y295228D01*
X452024Y281842D02*
Y295228D01*
X436669Y281842D02*
X444150D01*
X436669Y295228D02*
X444150D01*
Y281842D02*
Y295228D01*
X436669Y281842D02*
Y295228D01*
X464819Y296901D02*
X478992D01*
X464819Y280169D02*
X478992D01*
X464819D02*
Y296901D01*
X478992Y280169D02*
Y296901D01*
X536079Y373772D02*
X545528D01*
X536079Y392276D02*
X545528D01*
X536079Y373772D02*
Y392276D01*
X545528Y373772D02*
Y392276D01*
X503402Y267669D02*
X527024D01*
X503402Y297590D02*
X527024D01*
X503402Y267669D02*
Y297590D01*
X527024Y267669D02*
Y297590D01*
X387122Y224638D02*
Y237236D01*
X399524Y224638D02*
Y237236D01*
X387122D02*
X399524D01*
X387122Y224638D02*
X399524D01*
X274662Y224165D02*
Y258417D01*
X245922Y224165D02*
Y258417D01*
X274662D01*
X245922Y224165D02*
X274662D01*
X428599Y415701D02*
X452221D01*
X428599Y385780D02*
X452221D01*
Y415701D01*
X428599Y385780D02*
Y415701D01*
X319839Y233221D02*
X333225D01*
X319839Y225740D02*
X333225D01*
X319839D02*
Y233221D01*
X333225Y225740D02*
Y233221D01*
X339721Y225740D02*
X353107D01*
X339721Y233221D02*
X353107D01*
Y225740D02*
Y233221D01*
X339721Y225740D02*
Y233221D01*
X336417Y243307D02*
Y256693D01*
X328937Y243307D02*
Y256693D01*
X336417D01*
X328937Y243307D02*
X336417D01*
X328543D02*
Y256693D01*
X321063Y243307D02*
Y256693D01*
X328543D01*
X321063Y243307D02*
X328543D01*
X354288Y225543D02*
X368067D01*
X354288Y233417D02*
X368067D01*
Y225543D02*
Y233417D01*
X354288Y225543D02*
Y233417D01*
X341000Y263535D02*
X382339D01*
X341000Y242669D02*
X382339D01*
X341000D02*
Y263535D01*
X382339Y242669D02*
Y263535D01*
X458126Y263732D02*
Y309401D01*
X493559Y263732D02*
Y309401D01*
X458126Y263732D02*
X493559D01*
X458126Y309401D02*
X493559D01*
X498677Y295031D02*
Y313535D01*
X508126Y295031D02*
Y313535D01*
X498677Y295031D02*
X508126D01*
X498677Y313535D02*
X508126D01*
X398874Y264126D02*
Y277512D01*
X391394Y264126D02*
Y277512D01*
X398874D01*
X391394Y264126D02*
X398874D01*
X428599Y266291D02*
X452221D01*
X428599Y296213D02*
X452221D01*
X428599Y266291D02*
Y296213D01*
X452221Y266291D02*
Y296213D01*
X400705Y247866D02*
X414091D01*
X400705Y255346D02*
X414091D01*
Y247866D02*
Y255346D01*
X400705Y247866D02*
Y255346D01*
X385449Y247669D02*
X399229D01*
X385449Y255543D02*
X399229D01*
Y247669D02*
Y255543D01*
X385449Y247669D02*
Y255543D01*
X414622Y264126D02*
Y277512D01*
X407142Y264126D02*
Y277512D01*
X414622D01*
X407142Y264126D02*
X414622D01*
X406748D02*
Y277512D01*
X399268Y264126D02*
Y277512D01*
X406748D01*
X399268Y264126D02*
X406748D01*
X400705Y239008D02*
X414091D01*
X400705Y246488D02*
X414091D01*
Y239008D02*
Y246488D01*
X400705Y239008D02*
Y246488D01*
X458126Y370228D02*
X493559D01*
X458126Y415898D02*
X493559D01*
X458126Y370228D02*
Y415898D01*
X493559Y370228D02*
Y415898D01*
X536276Y395819D02*
Y413535D01*
X545331Y395819D02*
Y413535D01*
X536276Y395819D02*
X545331D01*
X536276Y413535D02*
X545331D01*
X497496Y370031D02*
X532929D01*
X497496Y415701D02*
X532929D01*
X497496Y370031D02*
Y415701D01*
X532929Y370031D02*
Y415701D01*
X458126Y319047D02*
X493559D01*
X458126Y364717D02*
X493559D01*
X458126Y319047D02*
Y364717D01*
X493559Y319047D02*
Y364717D01*
X443756Y321016D02*
Y338732D01*
X452811Y321016D02*
Y338732D01*
X443756Y321016D02*
X452811D01*
X443756Y338732D02*
X452811D01*
X433717Y339126D02*
X443165D01*
X433717Y320622D02*
X443165D01*
Y339126D01*
X433717Y320622D02*
Y339126D01*
X278008Y339323D02*
X295725D01*
X278008Y330268D02*
X295725D01*
X278008D02*
Y339323D01*
X295725Y330268D02*
Y339323D01*
X278008Y340110D02*
X295725D01*
X278008Y349165D02*
X295725D01*
Y340110D02*
Y349165D01*
X278008Y340110D02*
Y349165D01*
X241788Y272689D02*
Y286075D01*
X249268Y272689D02*
Y286075D01*
X241788Y272689D02*
X249268D01*
X241788Y286075D02*
X249268D01*
X257142Y272689D02*
Y286075D01*
X249662Y272689D02*
Y286075D01*
X257142D01*
X249662Y272689D02*
X257142D01*
X258520Y270425D02*
X267969D01*
X258520Y288929D02*
X267969D01*
X258520Y270425D02*
Y288929D01*
X267969Y270425D02*
Y288929D01*
M02*
