G04*
G04 #@! TF.GenerationSoftware,Altium Limited,Altium Designer,20.2.6 (244)*
G04*
G04 Layer_Color=32896*
%FSLAX24Y24*%
%MOIN*%
G70*
G04*
G04 #@! TF.SameCoordinates,31C55898-3F01-4FA6-8909-C42763FC29AA*
G04*
G04*
G04 #@! TF.FilePolarity,Positive*
G04*
G01*
G75*
%ADD10C,0.0098*%
%ADD11C,0.0079*%
%ADD13C,0.0157*%
%ADD14C,0.0100*%
D10*
X26849Y-4208D02*
G03*
X26849Y-4208I-49J0D01*
G01*
Y-9297D02*
G03*
X26849Y-9297I-49J0D01*
G01*
X29656Y-12451D02*
G03*
X29656Y-12451I-49J0D01*
G01*
X13272Y-7742D02*
G03*
X13272Y-7742I-49J0D01*
G01*
D11*
X28237Y-817D02*
X28808D01*
X28237Y-4754D02*
Y-817D01*
Y-4754D02*
X28808D01*
X28237Y-9843D02*
X28808D01*
X28237D02*
Y-5906D01*
X28808D01*
X16983Y-7125D02*
X19817D01*
X16983Y-4645D02*
X19817D01*
X16983Y-7125D02*
Y-6672D01*
X19817Y-7125D02*
Y-6672D01*
X16983Y-5098D02*
Y-4645D01*
X19817Y-5098D02*
Y-4645D01*
X18489Y-7871D02*
Y-7371D01*
X18239Y-7871D02*
X18489Y-7621D01*
X18239Y-7371D02*
X18489Y-7621D01*
X18239Y-7871D02*
Y-7371D01*
X32303Y-11486D02*
X32657D01*
X32303Y-12136D02*
X32657D01*
X29488Y-13947D02*
X29567D01*
X29488Y-14400D02*
X29567D01*
X29705Y-13189D02*
X30925D01*
X29705Y-12795D02*
X30925D01*
Y-13189D02*
Y-12795D01*
X29705Y-13189D02*
Y-12795D01*
X13769Y-6305D02*
Y-5734D01*
X9832Y-6305D02*
X13769D01*
X9832D02*
Y-5734D01*
X18406Y-2963D02*
X18760D01*
X18406Y-2313D02*
X18760D01*
X18406Y-3356D02*
X18681D01*
X18406Y-3967D02*
X18681D01*
X17350Y-2830D02*
X17487D01*
X17350Y-940D02*
X17487D01*
X15913Y-2830D02*
X16050D01*
X15913Y-940D02*
X16050D01*
X17487Y-2830D02*
Y-940D01*
X15913Y-2830D02*
Y-940D01*
X18239Y-10671D02*
Y-10171D01*
X18489Y-10421D01*
X18239Y-10671D02*
X18489Y-10421D01*
Y-10671D02*
Y-10171D01*
X19817Y-7898D02*
Y-7445D01*
X16983Y-7898D02*
Y-7445D01*
X19817Y-9925D02*
Y-9472D01*
X16983Y-9925D02*
Y-9472D01*
Y-7445D02*
X19817D01*
X16983Y-9925D02*
X19817D01*
X18694Y-15376D02*
Y-15277D01*
X20506Y-15376D02*
Y-15277D01*
X18694Y-14293D02*
Y-14194D01*
X20506Y-14293D02*
Y-14194D01*
X18694Y-15376D02*
X20506D01*
X18694Y-14194D02*
X20506D01*
X18682Y-13926D02*
Y-13827D01*
X20493Y-13926D02*
Y-13827D01*
X18682Y-12843D02*
Y-12744D01*
X20493Y-12843D02*
Y-12744D01*
X18682Y-13926D02*
X20493D01*
X18682Y-12744D02*
X20493D01*
X19774Y-3169D02*
Y-2894D01*
X20384Y-3169D02*
Y-2894D01*
X12982Y-10059D02*
Y-9783D01*
X12372Y-10059D02*
Y-9783D01*
X10840Y-11135D02*
Y-9835D01*
X9560Y-11135D02*
Y-9835D01*
X16955Y-14273D02*
Y-13997D01*
X16345Y-14273D02*
Y-13997D01*
X27392Y-13032D02*
Y-12953D01*
X26939Y-13032D02*
Y-12953D01*
X32510Y-13032D02*
Y-12953D01*
X32057Y-13032D02*
Y-12953D01*
X27726Y-13032D02*
Y-12953D01*
X28179Y-13032D02*
Y-12953D01*
X31270Y-13032D02*
Y-12953D01*
X31722Y-13032D02*
Y-12953D01*
X22146Y-2805D02*
X22500D01*
X22146Y-2156D02*
X22500D01*
X21988Y-7687D02*
X22343D01*
X21988Y-7037D02*
X22343D01*
X21131Y-5528D02*
Y-3717D01*
X22312Y-5528D02*
Y-3717D01*
X21131D02*
X21229D01*
X21131Y-5528D02*
X21229D01*
X22213Y-3717D02*
X22312D01*
X22213Y-5528D02*
X22312D01*
X22731Y-5516D02*
Y-3705D01*
X23912Y-5516D02*
Y-3705D01*
X22731D02*
X22829D01*
X22731Y-5516D02*
X22829D01*
X23813Y-3705D02*
X23912D01*
X23813Y-5516D02*
X23912D01*
X22609Y-10191D02*
Y-8380D01*
X23791Y-10191D02*
Y-8380D01*
X22609D02*
X22708D01*
X22609Y-10191D02*
X22708D01*
X23692Y-8380D02*
X23791D01*
X23692Y-10191D02*
X23791D01*
X21009D02*
Y-8380D01*
X22191Y-10191D02*
Y-8380D01*
X21009D02*
X21108D01*
X21009Y-10191D02*
X21108D01*
X22092Y-8380D02*
X22191D01*
X22092Y-10191D02*
X22191D01*
X37244Y-14468D02*
X38484D01*
X37244Y-9547D02*
X38484D01*
X33563Y-14468D02*
X34803D01*
X33563Y-9547D02*
X34803D01*
X38484Y-14468D02*
Y-9547D01*
X33563Y-14468D02*
Y-9547D01*
X38017Y-1436D02*
X38017D01*
D13*
X15922Y-3499D02*
X17478D01*
X18124Y-15360D02*
Y-14210D01*
X18111Y-13910D02*
Y-12760D01*
X21146Y-6099D02*
X22296D01*
X22746Y-6087D02*
X23896D01*
X22625Y-10761D02*
X23775D01*
X21025D02*
X22175D01*
D14*
X32321Y-15342D02*
X32221Y-15442D01*
X32021D01*
X31921Y-15342D01*
Y-14942D01*
X32021Y-14842D01*
X32221D01*
X32321Y-14942D01*
X32521Y-15342D02*
X32621Y-15442D01*
X32821D01*
X32921Y-15342D01*
Y-15242D01*
X32821Y-15142D01*
X32721D01*
X32821D01*
X32921Y-15042D01*
Y-14942D01*
X32821Y-14842D01*
X32621D01*
X32521Y-14942D01*
X33521Y-15442D02*
X33321Y-15342D01*
X33121Y-15142D01*
Y-14942D01*
X33221Y-14842D01*
X33421D01*
X33521Y-14942D01*
Y-15042D01*
X33421Y-15142D01*
X33121D01*
X29461Y-14330D02*
Y-14002D01*
X29527Y-13937D01*
X29658D01*
X29723Y-14002D01*
Y-14330D01*
X30051Y-13937D02*
Y-14330D01*
X29855Y-14133D01*
X30117D01*
X28624Y-13048D02*
X28231D01*
Y-13245D01*
X28296Y-13311D01*
X28428D01*
X28493Y-13245D01*
Y-13048D01*
Y-13180D02*
X28624Y-13311D01*
Y-13704D02*
Y-13442D01*
X28362Y-13704D01*
X28296D01*
X28231Y-13639D01*
Y-13508D01*
X28296Y-13442D01*
X28624Y-14098D02*
Y-13836D01*
X28362Y-14098D01*
X28296D01*
X28231Y-14032D01*
Y-13901D01*
X28296Y-13836D01*
X33111Y-13624D02*
X33045Y-13690D01*
X32914D01*
X32848Y-13624D01*
Y-13362D01*
X32914Y-13296D01*
X33045D01*
X33111Y-13362D01*
X33504Y-13296D02*
X33242D01*
X33504Y-13559D01*
Y-13624D01*
X33439Y-13690D01*
X33308D01*
X33242Y-13624D01*
X33636D02*
X33701Y-13690D01*
X33832D01*
X33898Y-13624D01*
Y-13559D01*
X33832Y-13493D01*
X33898Y-13427D01*
Y-13362D01*
X33832Y-13296D01*
X33701D01*
X33636Y-13362D01*
Y-13427D01*
X33701Y-13493D01*
X33636Y-13559D01*
Y-13624D01*
X33701Y-13493D02*
X33832D01*
X32597Y-9996D02*
X32662Y-9930D01*
X32793D01*
X32859Y-9996D01*
Y-10258D01*
X32793Y-10324D01*
X32662D01*
X32597Y-10258D01*
X32203Y-10324D02*
X32465D01*
X32203Y-10061D01*
Y-9996D01*
X32269Y-9930D01*
X32400D01*
X32465Y-9996D01*
X31875Y-10324D02*
Y-9930D01*
X32072Y-10127D01*
X31809D01*
X27737Y-14223D02*
X27671Y-14289D01*
X27540D01*
X27475Y-14223D01*
Y-13961D01*
X27540Y-13895D01*
X27671D01*
X27737Y-13961D01*
X28131Y-13895D02*
X27868D01*
X28131Y-14158D01*
Y-14223D01*
X28065Y-14289D01*
X27934D01*
X27868Y-14223D01*
X28262Y-13895D02*
X28393D01*
X28327D01*
Y-14289D01*
X28262Y-14223D01*
X27667Y-7715D02*
Y-7322D01*
X27864D01*
X27930Y-7387D01*
Y-7519D01*
X27864Y-7584D01*
X27667D01*
X27798D02*
X27930Y-7715D01*
X28258D02*
Y-7322D01*
X28061Y-7519D01*
X28323D01*
X37402Y-180D02*
X37008D01*
Y16D01*
X37074Y82D01*
X37205D01*
X37270Y16D01*
Y-180D01*
Y-49D02*
X37402Y82D01*
Y476D02*
Y213D01*
X37139Y476D01*
X37074D01*
X37008Y410D01*
Y279D01*
X37074Y213D01*
X36874Y-5109D02*
X36808Y-5174D01*
Y-5306D01*
X36874Y-5371D01*
X37136D01*
X37202Y-5306D01*
Y-5174D01*
X37136Y-5109D01*
X36808Y-4715D02*
X36874Y-4847D01*
X37005Y-4978D01*
X37136D01*
X37202Y-4912D01*
Y-4781D01*
X37136Y-4715D01*
X37070D01*
X37005Y-4781D01*
Y-4978D01*
X26837Y-7359D02*
X26772Y-7424D01*
Y-7556D01*
X26837Y-7621D01*
X27100D01*
X27165Y-7556D01*
Y-7424D01*
X27100Y-7359D01*
Y-7228D02*
X27165Y-7162D01*
Y-7031D01*
X27100Y-6965D01*
X26837D01*
X26772Y-7031D01*
Y-7162D01*
X26837Y-7228D01*
X26903D01*
X26969Y-7162D01*
Y-6965D01*
M02*
