G04*
G04 #@! TF.GenerationSoftware,Altium Limited,Altium Designer,20.2.6 (244)*
G04*
G04 Layer_Color=128*
%FSLAX24Y24*%
%MOIN*%
G70*
G04*
G04 #@! TF.SameCoordinates,31C55898-3F01-4FA6-8909-C42763FC29AA*
G04*
G04*
G04 #@! TF.FilePolarity,Positive*
G04*
G01*
G75*
%ADD17R,0.0689X0.0492*%
%ADD21R,0.4016X0.3583*%
%ADD22R,0.0492X0.0689*%
%ADD23R,0.0531X0.0413*%
%ADD24R,0.0413X0.0531*%
%ADD26R,0.2126X0.1142*%
%ADD29R,0.0492X0.0591*%
%ADD81R,0.3583X0.4016*%
%ADD82R,0.1555X0.0413*%
%ADD83R,0.0598X0.1260*%
%ADD84R,0.0591X0.0492*%
%ADD85R,0.0492X0.0728*%
%ADD86R,0.0236X0.0394*%
%ADD87R,0.0413X0.1555*%
%ADD88R,0.0866X0.0984*%
%ADD89R,0.0984X0.0669*%
%ADD90R,0.1358X0.0650*%
%ADD91R,0.0669X0.0984*%
D17*
X20079Y-2490D02*
D03*
Y-3573D02*
D03*
X12677Y-10463D02*
D03*
Y-9380D02*
D03*
X16650Y-14676D02*
D03*
Y-13594D02*
D03*
D21*
X11800Y-3785D02*
D03*
D22*
X19085Y-3661D02*
D03*
X18002D02*
D03*
D23*
X27165Y-13356D02*
D03*
Y-12628D02*
D03*
X32283Y-13356D02*
D03*
Y-12628D02*
D03*
X27953D02*
D03*
Y-13356D02*
D03*
X31496Y-12628D02*
D03*
Y-13356D02*
D03*
D24*
X29892Y-14173D02*
D03*
X29163D02*
D03*
D26*
X36024Y-13957D02*
D03*
Y-10059D02*
D03*
D29*
X32579Y-10827D02*
D03*
X31890D02*
D03*
X18061Y-18898D02*
D03*
X17372D02*
D03*
D81*
X30757Y-2785D02*
D03*
Y-7874D02*
D03*
D82*
X26800Y-1785D02*
D03*
Y-3785D02*
D03*
Y-2785D02*
D03*
Y-7874D02*
D03*
Y-8874D02*
D03*
Y-6874D02*
D03*
D83*
X17178Y-5885D02*
D03*
X19622D02*
D03*
X19622Y-8685D02*
D03*
X17178D02*
D03*
D84*
X29134Y-12648D02*
D03*
Y-13337D02*
D03*
X33071Y-12648D02*
D03*
Y-13337D02*
D03*
D85*
X33061Y-11811D02*
D03*
X31900D02*
D03*
X18002Y-2638D02*
D03*
X19163D02*
D03*
X21742Y-2480D02*
D03*
X22904D02*
D03*
X21585Y-7362D02*
D03*
X22746D02*
D03*
D86*
X29941Y-13533D02*
D03*
X30315D02*
D03*
X30689D02*
D03*
Y-12451D02*
D03*
X30315D02*
D03*
X29941D02*
D03*
D87*
X12800Y-7742D02*
D03*
X10800D02*
D03*
D88*
X16700Y-2810D02*
D03*
Y-960D02*
D03*
D89*
X18813Y-14785D02*
D03*
X20387D02*
D03*
X18800Y-13335D02*
D03*
X20375D02*
D03*
D90*
X10200Y-11607D02*
D03*
Y-9363D02*
D03*
D91*
X21721Y-3835D02*
D03*
Y-5410D02*
D03*
X23321Y-3823D02*
D03*
Y-5398D02*
D03*
X23200Y-8498D02*
D03*
Y-10072D02*
D03*
X21600Y-8498D02*
D03*
Y-10072D02*
D03*
M02*
