G04*
G04 #@! TF.GenerationSoftware,Altium Limited,Altium Designer,21.0.8 (223)*
G04*
G04 Layer_Color=8388736*
%FSLAX25Y25*%
%MOIN*%
G70*
G04*
G04 #@! TF.SameCoordinates,6ED59E13-5717-42ED-B6B1-0E666ED3908C*
G04*
G04*
G04 #@! TF.FilePolarity,Negative*
G04*
G01*
G75*
%ADD34C,0.01240*%
%ADD35R,0.07099X0.13398*%
%ADD36R,0.06312X0.06706*%
%ADD37R,0.06706X0.06312*%
%ADD38R,0.22060X0.12217*%
%ADD39R,0.40958X0.36627*%
%ADD40O,0.06509X0.03162*%
G04:AMPARAMS|DCode=41|XSize=126.11mil|YSize=126.11mil|CornerRadius=33.53mil|HoleSize=0mil|Usage=FLASHONLY|Rotation=0.000|XOffset=0mil|YOffset=0mil|HoleType=Round|Shape=RoundedRectangle|*
%AMROUNDEDRECTD41*
21,1,0.12611,0.05906,0,0,0.0*
21,1,0.05906,0.12611,0,0,0.0*
1,1,0.06706,0.02953,-0.02953*
1,1,0.06706,-0.02953,-0.02953*
1,1,0.06706,-0.02953,0.02953*
1,1,0.06706,0.02953,0.02953*
%
%ADD41ROUNDEDRECTD41*%
%ADD42R,0.08083X0.05721*%
%ADD43R,0.07099X0.11824*%
G04:AMPARAMS|DCode=44|XSize=29.65mil|YSize=39.5mil|CornerRadius=5.95mil|HoleSize=0mil|Usage=FLASHONLY|Rotation=90.000|XOffset=0mil|YOffset=0mil|HoleType=Round|Shape=RoundedRectangle|*
%AMROUNDEDRECTD44*
21,1,0.02965,0.02760,0,0,90.0*
21,1,0.01776,0.03950,0,0,90.0*
1,1,0.01190,0.01380,0.00888*
1,1,0.01190,0.01380,-0.00888*
1,1,0.01190,-0.01380,-0.00888*
1,1,0.01190,-0.01380,0.00888*
%
%ADD44ROUNDEDRECTD44*%
%ADD45R,0.04934X0.06115*%
%ADD46R,0.06115X0.04934*%
%ADD47R,0.05721X0.06706*%
%ADD48R,0.05918X0.06706*%
%ADD49R,0.08674X0.16548*%
%ADD50R,0.07690X0.05721*%
%ADD51R,0.05721X0.07690*%
%ADD52C,0.05524*%
G04:AMPARAMS|DCode=53|XSize=55.24mil|YSize=55.24mil|CornerRadius=15.81mil|HoleSize=0mil|Usage=FLASHONLY|Rotation=90.000|XOffset=0mil|YOffset=0mil|HoleType=Round|Shape=RoundedRectangle|*
%AMROUNDEDRECTD53*
21,1,0.05524,0.02362,0,0,90.0*
21,1,0.02362,0.05524,0,0,90.0*
1,1,0.03162,0.01181,0.01181*
1,1,0.03162,0.01181,-0.01181*
1,1,0.03162,-0.01181,-0.01181*
1,1,0.03162,-0.01181,0.01181*
%
%ADD53ROUNDEDRECTD53*%
%ADD54C,0.06800*%
%ADD55R,0.06800X0.06800*%
%ADD56R,0.08674X0.08674*%
G04:AMPARAMS|DCode=57|XSize=86.74mil|YSize=86.74mil|CornerRadius=23.68mil|HoleSize=0mil|Usage=FLASHONLY|Rotation=90.000|XOffset=0mil|YOffset=0mil|HoleType=Round|Shape=RoundedRectangle|*
%AMROUNDEDRECTD57*
21,1,0.08674,0.03937,0,0,90.0*
21,1,0.03937,0.08674,0,0,90.0*
1,1,0.04737,0.01968,0.01968*
1,1,0.04737,0.01968,-0.01968*
1,1,0.04737,-0.01968,-0.01968*
1,1,0.04737,-0.01968,0.01968*
%
%ADD57ROUNDEDRECTD57*%
%ADD58R,0.06706X0.06706*%
%ADD59C,0.06706*%
%ADD60C,0.03950*%
%ADD61R,0.06706X0.06706*%
G04:AMPARAMS|DCode=62|XSize=55.24mil|YSize=55.24mil|CornerRadius=15.81mil|HoleSize=0mil|Usage=FLASHONLY|Rotation=0.000|XOffset=0mil|YOffset=0mil|HoleType=Round|Shape=RoundedRectangle|*
%AMROUNDEDRECTD62*
21,1,0.05524,0.02362,0,0,0.0*
21,1,0.02362,0.05524,0,0,0.0*
1,1,0.03162,0.01181,-0.01181*
1,1,0.03162,-0.01181,-0.01181*
1,1,0.03162,-0.01181,0.01181*
1,1,0.03162,0.01181,0.01181*
%
%ADD62ROUNDEDRECTD62*%
%ADD63C,0.03162*%
%ADD64C,0.04737*%
%ADD65C,0.05800*%
G36*
X441372Y364261D02*
X441600D01*
Y364235D01*
X441827D01*
Y364210D01*
X442005D01*
Y364185D01*
X442106D01*
Y364159D01*
X442233D01*
Y364134D01*
X442334D01*
Y364109D01*
X442359D01*
Y364134D01*
X442384D01*
Y364109D01*
X442435D01*
Y364084D01*
X442536D01*
Y364058D01*
X442587D01*
Y364033D01*
X442637D01*
Y364058D01*
X442663D01*
Y364033D01*
X442713D01*
Y364008D01*
X442764D01*
Y363982D01*
X442815D01*
Y363957D01*
X442916D01*
Y363932D01*
X442941D01*
Y363906D01*
X442992D01*
Y363881D01*
X443043D01*
Y363856D01*
X443118D01*
Y363830D01*
X443093D01*
Y363805D01*
X443043D01*
Y363830D01*
X442992D01*
Y363856D01*
X442891D01*
Y363881D01*
X442789D01*
Y363906D01*
X442713D01*
Y363932D01*
X442612D01*
Y363957D01*
X442460D01*
Y363982D01*
X442359D01*
Y364008D01*
X442157D01*
Y364033D01*
X441473D01*
Y364008D01*
X441245D01*
Y363982D01*
X441119D01*
Y363957D01*
X441068D01*
Y363982D01*
X441043D01*
Y363957D01*
X440942D01*
Y363932D01*
X440840D01*
Y363906D01*
X440739D01*
Y363881D01*
X440613D01*
Y363856D01*
X440511D01*
Y363830D01*
X440461D01*
Y363805D01*
X440359D01*
Y363780D01*
X440284D01*
Y363755D01*
X440233D01*
Y363729D01*
X440182D01*
Y363704D01*
X440132D01*
Y363679D01*
X440030D01*
Y363653D01*
X439980D01*
Y363628D01*
X439955D01*
Y363603D01*
X439879D01*
Y363577D01*
X439828D01*
Y363552D01*
X439777D01*
Y363527D01*
X439727D01*
Y363501D01*
X439676D01*
Y363476D01*
X439651D01*
Y363451D01*
X439575D01*
Y363425D01*
X439550D01*
Y363400D01*
X439524D01*
Y363375D01*
X439448D01*
Y363350D01*
X439372D01*
Y363375D01*
X439347D01*
Y363400D01*
X439322D01*
Y363425D01*
X439347D01*
Y363451D01*
Y363476D01*
Y363501D01*
Y363527D01*
X439372D01*
Y363552D01*
Y363577D01*
X439398D01*
Y363603D01*
Y363628D01*
X439423D01*
Y363653D01*
X439448D01*
Y363679D01*
Y363704D01*
X439474D01*
Y363729D01*
X439499D01*
Y363755D01*
X439524D01*
Y363780D01*
X439550D01*
Y363805D01*
X439575D01*
Y363830D01*
Y363856D01*
X439651D01*
Y363881D01*
X439676D01*
Y363906D01*
X439702D01*
Y363932D01*
X439727D01*
Y363957D01*
X439803D01*
Y363982D01*
X439828D01*
Y364008D01*
X439879D01*
Y364033D01*
X439904D01*
Y364058D01*
X439980D01*
Y364084D01*
X440030D01*
Y364109D01*
X440081D01*
Y364134D01*
X440106D01*
Y364109D01*
X440132D01*
Y364134D01*
X440182D01*
Y364159D01*
X440284D01*
Y364185D01*
X440334D01*
Y364210D01*
X440511D01*
Y364235D01*
X440638D01*
Y364261D01*
X440714D01*
Y364235D01*
X440739D01*
Y364261D01*
X440790D01*
Y364286D01*
X441372D01*
Y364261D01*
D02*
G37*
G36*
X439575Y364134D02*
Y364109D01*
Y364084D01*
Y364058D01*
Y364033D01*
X439550D01*
Y364008D01*
Y363982D01*
X439524D01*
Y363957D01*
Y363932D01*
X439499D01*
Y363906D01*
Y363881D01*
X439474D01*
Y363856D01*
X439448D01*
Y363830D01*
Y363805D01*
X439423D01*
Y363780D01*
Y363755D01*
X439398D01*
Y363729D01*
X439372D01*
Y363704D01*
X439347D01*
Y363679D01*
X439322D01*
Y363653D01*
X439296D01*
Y363628D01*
Y363603D01*
X439271D01*
Y363577D01*
X439246D01*
Y363552D01*
X439221D01*
Y363527D01*
X439195D01*
Y363501D01*
X439170D01*
Y363476D01*
Y363451D01*
X439145D01*
Y363425D01*
X439119D01*
Y363400D01*
X439094D01*
Y363375D01*
X439069D01*
Y363350D01*
X439043D01*
Y363324D01*
X439018D01*
Y363299D01*
X438993D01*
Y363274D01*
X438968D01*
Y363248D01*
Y363223D01*
X438942D01*
Y363198D01*
Y363172D01*
X438917D01*
Y363147D01*
X438892D01*
Y363122D01*
Y363096D01*
X438866D01*
Y363071D01*
X438841D01*
Y363046D01*
Y363020D01*
X438816D01*
Y362995D01*
Y362970D01*
Y362945D01*
X438790D01*
Y362919D01*
Y362894D01*
X438765D01*
Y362869D01*
Y362843D01*
Y362818D01*
Y362793D01*
Y362767D01*
Y362742D01*
Y362717D01*
X438790D01*
Y362691D01*
X438765D01*
Y362666D01*
Y362641D01*
Y362615D01*
X438790D01*
Y362590D01*
Y362565D01*
X438816D01*
Y362540D01*
Y362514D01*
X438841D01*
Y362489D01*
Y362464D01*
Y362438D01*
X438866D01*
Y362413D01*
X438892D01*
Y362388D01*
X438917D01*
Y362362D01*
X438942D01*
Y362337D01*
X438968D01*
Y362312D01*
X439043D01*
Y362286D01*
X439069D01*
Y362261D01*
X439119D01*
Y362236D01*
X439221D01*
Y362211D01*
X439296D01*
Y362185D01*
X439423D01*
Y362160D01*
X439524D01*
Y362135D01*
X439550D01*
Y362160D01*
X439575D01*
Y362135D01*
X439727D01*
Y362109D01*
X439904D01*
Y362084D01*
X440005D01*
Y362059D01*
X440208D01*
Y362033D01*
X440385D01*
Y362008D01*
X440486D01*
Y361983D01*
X440638D01*
Y361957D01*
X440739D01*
Y361932D01*
X440840D01*
Y361907D01*
X440916D01*
Y361881D01*
X440992D01*
Y361856D01*
X441068D01*
Y361831D01*
X441119D01*
Y361806D01*
X441170D01*
Y361780D01*
X441245D01*
Y361755D01*
X441296D01*
Y361730D01*
X441321D01*
Y361704D01*
X441347D01*
Y361679D01*
X441397D01*
Y361654D01*
X441423D01*
Y361628D01*
X441448D01*
Y361603D01*
X441499D01*
Y361578D01*
X441524D01*
Y361553D01*
X441549D01*
Y361527D01*
X441574D01*
Y361502D01*
X441600D01*
Y361476D01*
X441625D01*
Y361451D01*
X441650D01*
Y361426D01*
Y361401D01*
X441676D01*
Y361375D01*
X441701D01*
Y361350D01*
Y361325D01*
X441726D01*
Y361299D01*
X441752D01*
Y361274D01*
Y361249D01*
X441777D01*
Y361223D01*
Y361198D01*
Y361173D01*
Y361147D01*
Y361122D01*
Y361097D01*
Y361072D01*
Y361046D01*
Y361021D01*
Y360996D01*
Y360970D01*
Y360945D01*
Y360920D01*
X441752D01*
Y360894D01*
Y360869D01*
Y360844D01*
X441726D01*
Y360819D01*
X441701D01*
Y360793D01*
Y360768D01*
X441650D01*
Y360742D01*
X441625D01*
Y360717D01*
X441574D01*
Y360692D01*
X441524D01*
Y360667D01*
X441448D01*
Y360641D01*
X441397D01*
Y360667D01*
X441170D01*
Y360692D01*
X440891D01*
Y360717D01*
X440815D01*
Y360742D01*
X440790D01*
Y360717D01*
X440765D01*
Y360742D01*
X440663D01*
Y360768D01*
X440385D01*
Y360793D01*
X440284D01*
Y360819D01*
X440233D01*
Y360793D01*
X440182D01*
Y360819D01*
X440081D01*
Y360844D01*
X439777D01*
Y360869D01*
X439626D01*
Y360894D01*
X439195D01*
Y360920D01*
X438512D01*
Y360894D01*
X437980D01*
Y360869D01*
X437803D01*
Y360844D01*
X437575D01*
Y360819D01*
X437373D01*
Y360793D01*
X437221D01*
Y360768D01*
X437044D01*
Y360742D01*
X436943D01*
Y360717D01*
X436841D01*
Y360692D01*
X436690D01*
Y360667D01*
X436614D01*
Y360641D01*
X436512D01*
Y360616D01*
X436386D01*
Y360591D01*
X436310D01*
Y360565D01*
X436133D01*
Y360591D01*
X436107D01*
Y360616D01*
Y360641D01*
X436133D01*
Y360667D01*
X436158D01*
Y360692D01*
Y360717D01*
X436183D01*
Y360742D01*
X436209D01*
Y360768D01*
X436234D01*
Y360793D01*
X436259D01*
Y360819D01*
X436284D01*
Y360844D01*
X436310D01*
Y360869D01*
X436335D01*
Y360894D01*
X436361D01*
Y360920D01*
X436411D01*
Y360945D01*
X436436D01*
Y360970D01*
X436462D01*
Y360996D01*
X436512D01*
Y361021D01*
X436538D01*
Y361046D01*
X436588D01*
Y361072D01*
X436664D01*
Y361097D01*
X436715D01*
Y361122D01*
X436765D01*
Y361147D01*
X436841D01*
Y361173D01*
X436892D01*
Y361198D01*
X436993D01*
Y361223D01*
X437018D01*
Y361249D01*
X437170D01*
Y361274D01*
X437221D01*
Y361299D01*
X437322D01*
Y361325D01*
X437474D01*
Y361350D01*
X437601D01*
Y361375D01*
X437702D01*
Y361401D01*
X438031D01*
Y361426D01*
X438208D01*
Y361451D01*
X438638D01*
Y361476D01*
X440359D01*
Y361502D01*
X440309D01*
Y361527D01*
X440157D01*
Y361553D01*
X440056D01*
Y361578D01*
X439980D01*
Y361603D01*
X439777D01*
Y361628D01*
X439575D01*
Y361654D01*
X439448D01*
Y361679D01*
X439195D01*
Y361704D01*
X438892D01*
Y361730D01*
X438841D01*
Y361704D01*
X438816D01*
Y361730D01*
X437803D01*
Y361704D01*
X437727D01*
Y361730D01*
X437702D01*
Y361704D01*
X437474D01*
Y361679D01*
X437221D01*
Y361654D01*
X437094D01*
Y361628D01*
X436968D01*
Y361603D01*
X436791D01*
Y361578D01*
X436715D01*
Y361553D01*
X436588D01*
Y361527D01*
X436487D01*
Y361502D01*
X436411D01*
Y361476D01*
X436335D01*
Y361451D01*
X436259D01*
Y361426D01*
X436183D01*
Y361401D01*
X436107D01*
Y361375D01*
X436057D01*
Y361350D01*
X436006D01*
Y361325D01*
X435955D01*
Y361299D01*
X435880D01*
Y361274D01*
X435854D01*
Y361249D01*
X435778D01*
Y361223D01*
X435753D01*
Y361198D01*
X435702D01*
Y361173D01*
X435652D01*
Y361147D01*
X435627D01*
Y361122D01*
X435576D01*
Y361097D01*
X435550D01*
Y361072D01*
X435500D01*
Y361046D01*
X435475D01*
Y361021D01*
X435449D01*
Y360996D01*
X435399D01*
Y360970D01*
X435373D01*
Y360945D01*
X435348D01*
Y360920D01*
X435297D01*
Y360894D01*
X435272D01*
Y360869D01*
X435247D01*
Y360844D01*
X435221D01*
Y360819D01*
X435196D01*
Y360793D01*
X435171D01*
Y360768D01*
X435146D01*
Y360742D01*
X435120D01*
Y360717D01*
X435095D01*
Y360692D01*
X435070D01*
Y360667D01*
X435044D01*
Y360641D01*
X435019D01*
Y360616D01*
Y360591D01*
X434994D01*
Y360565D01*
X434968D01*
Y360540D01*
X434943D01*
Y360515D01*
X434918D01*
Y360489D01*
Y360464D01*
X434892D01*
Y360439D01*
X434867D01*
Y360414D01*
Y360388D01*
X434842D01*
Y360363D01*
X434817D01*
Y360338D01*
Y360312D01*
Y360287D01*
X434791D01*
Y360262D01*
Y360236D01*
X434766D01*
Y360211D01*
X434741D01*
Y360186D01*
Y360160D01*
X434715D01*
Y360135D01*
Y360110D01*
X434690D01*
Y360085D01*
Y360059D01*
Y360034D01*
X434665D01*
Y360009D01*
Y359983D01*
X434639D01*
Y359958D01*
Y359933D01*
X434614D01*
Y359907D01*
Y359882D01*
Y359857D01*
Y359831D01*
Y359806D01*
X434589D01*
Y359781D01*
Y359755D01*
Y359730D01*
Y359705D01*
X434563D01*
Y359680D01*
Y359654D01*
X434538D01*
Y359629D01*
Y359604D01*
Y359578D01*
Y359553D01*
Y359528D01*
X434487D01*
Y359502D01*
X434437D01*
Y359528D01*
X434386D01*
Y359553D01*
X434310D01*
Y359578D01*
Y359604D01*
X434285D01*
Y359629D01*
Y359654D01*
X434260D01*
Y359680D01*
Y359705D01*
Y359730D01*
X434234D01*
Y359755D01*
Y359781D01*
Y359806D01*
Y359831D01*
X434209D01*
Y359857D01*
Y359882D01*
X434184D01*
Y359907D01*
Y359933D01*
X434209D01*
Y359958D01*
X434184D01*
Y359983D01*
Y360009D01*
Y360034D01*
X434158D01*
Y360059D01*
Y360085D01*
Y360110D01*
Y360135D01*
Y360160D01*
Y360186D01*
Y360211D01*
Y360236D01*
Y360262D01*
X434133D01*
Y360287D01*
Y360312D01*
Y360338D01*
Y360363D01*
Y360388D01*
Y360414D01*
Y360439D01*
Y360464D01*
Y360489D01*
Y360515D01*
Y360540D01*
Y360565D01*
Y360591D01*
X434158D01*
Y360616D01*
Y360641D01*
Y360667D01*
Y360692D01*
Y360717D01*
Y360742D01*
Y360768D01*
Y360793D01*
X434184D01*
Y360819D01*
Y360844D01*
Y360869D01*
Y360894D01*
Y360920D01*
Y360945D01*
X434209D01*
Y360970D01*
Y360996D01*
X434234D01*
Y361021D01*
Y361046D01*
Y361072D01*
Y361097D01*
X434260D01*
Y361122D01*
Y361147D01*
X434285D01*
Y361173D01*
Y361198D01*
Y361223D01*
X434310D01*
Y361249D01*
Y361274D01*
Y361299D01*
X434336D01*
Y361325D01*
X434361D01*
Y361350D01*
Y361375D01*
X434386D01*
Y361401D01*
Y361426D01*
Y361451D01*
X434411D01*
Y361476D01*
X434437D01*
Y361502D01*
X434462D01*
Y361527D01*
Y361553D01*
Y361578D01*
X434487D01*
Y361603D01*
X434513D01*
Y361628D01*
X434538D01*
Y361654D01*
Y361679D01*
X434563D01*
Y361704D01*
X434589D01*
Y361730D01*
Y361755D01*
X434614D01*
Y361780D01*
X434639D01*
Y361806D01*
X434665D01*
Y361831D01*
X434690D01*
Y361856D01*
X434715D01*
Y361881D01*
Y361907D01*
X434741D01*
Y361932D01*
X434766D01*
Y361957D01*
X434791D01*
Y361983D01*
X434817D01*
Y362008D01*
X434842D01*
Y362033D01*
X434867D01*
Y362059D01*
X434892D01*
Y362084D01*
X434918D01*
Y362109D01*
X434943D01*
Y362135D01*
X434968D01*
Y362160D01*
X434994D01*
Y362185D01*
X435019D01*
Y362211D01*
X435044D01*
Y362236D01*
X435070D01*
Y362261D01*
X435095D01*
Y362286D01*
X435146D01*
Y362312D01*
X435171D01*
Y362337D01*
X435221D01*
Y362362D01*
Y362388D01*
X435247D01*
Y362413D01*
X435272D01*
Y362438D01*
X435297D01*
Y362464D01*
X435373D01*
Y362489D01*
X435399D01*
Y362514D01*
X435424D01*
Y362540D01*
X435449D01*
Y362565D01*
X435475D01*
Y362590D01*
X435550D01*
Y362615D01*
X435576D01*
Y362641D01*
X435601D01*
Y362666D01*
X435652D01*
Y362691D01*
X435677D01*
Y362717D01*
X435702D01*
Y362742D01*
X435778D01*
Y362767D01*
X435804D01*
Y362793D01*
X435854D01*
Y362818D01*
X435880D01*
Y362843D01*
X435930D01*
Y362869D01*
X435955D01*
Y362894D01*
X436006D01*
Y362919D01*
X436057D01*
Y362945D01*
X436082D01*
Y362970D01*
X436158D01*
Y362995D01*
X436183D01*
Y363020D01*
X436234D01*
Y363046D01*
X436284D01*
Y363071D01*
X436335D01*
Y363096D01*
X436411D01*
Y363122D01*
X436436D01*
Y363147D01*
X436487D01*
Y363172D01*
X436538D01*
Y363198D01*
X436588D01*
Y363223D01*
X436664D01*
Y363248D01*
X436690D01*
Y363274D01*
X436765D01*
Y363299D01*
X436791D01*
Y363324D01*
X436867D01*
Y363350D01*
X436917D01*
Y363375D01*
X436993D01*
Y363400D01*
X437044D01*
Y363425D01*
X437094D01*
Y363451D01*
X437170D01*
Y363476D01*
X437221D01*
Y363501D01*
X437272D01*
Y363527D01*
X437348D01*
Y363552D01*
X437398D01*
Y363577D01*
X437474D01*
Y363603D01*
X437575D01*
Y363628D01*
X437601D01*
Y363653D01*
X437677D01*
Y363679D01*
X437752D01*
Y363704D01*
X437778D01*
Y363679D01*
X437803D01*
Y363704D01*
X437828D01*
Y363729D01*
X437904D01*
Y363755D01*
X438006D01*
Y363780D01*
X438082D01*
Y363805D01*
X438158D01*
Y363830D01*
X438208D01*
Y363856D01*
X438309D01*
Y363881D01*
X438436D01*
Y363906D01*
X438486D01*
Y363932D01*
X438562D01*
Y363957D01*
X438689D01*
Y363982D01*
X438740D01*
Y364008D01*
X438841D01*
Y364033D01*
X438942D01*
Y364058D01*
X439043D01*
Y364084D01*
X439119D01*
Y364109D01*
X439246D01*
Y364134D01*
X439296D01*
Y364159D01*
X439575D01*
Y364134D01*
D02*
G37*
G36*
X443726Y363476D02*
X443827D01*
Y363451D01*
X443852D01*
Y363476D01*
X443878D01*
Y363451D01*
X444105D01*
Y363425D01*
X444232D01*
Y363400D01*
X444359D01*
Y363375D01*
X444485D01*
Y363350D01*
X444586D01*
Y363324D01*
X444713D01*
Y363299D01*
X444839D01*
Y363274D01*
X444890D01*
Y363248D01*
X444991D01*
Y363223D01*
X445118D01*
Y363198D01*
X445168D01*
Y363172D01*
X445270D01*
Y363147D01*
X445346D01*
Y363122D01*
X445422D01*
Y363096D01*
X445472D01*
Y363071D01*
X445548D01*
Y363046D01*
X445624D01*
Y363020D01*
X445675D01*
Y362995D01*
X445751D01*
Y362970D01*
X445801D01*
Y362945D01*
X445877D01*
Y362919D01*
X445903D01*
Y362894D01*
X445978D01*
Y362869D01*
X446054D01*
Y362843D01*
X446105D01*
Y362818D01*
X446156D01*
Y362793D01*
X446206D01*
Y362767D01*
X446257D01*
Y362742D01*
X446308D01*
Y362717D01*
X446358D01*
Y362691D01*
X446409D01*
Y362666D01*
X446485D01*
Y362641D01*
X446510D01*
Y362615D01*
X446561D01*
Y362590D01*
X446611D01*
Y362565D01*
X446662D01*
Y362540D01*
X446712D01*
Y362514D01*
X446738D01*
Y362489D01*
X446763D01*
Y362464D01*
X446814D01*
Y362438D01*
X446864D01*
Y362413D01*
X446915D01*
Y362388D01*
X446940D01*
Y362362D01*
X446991D01*
Y362337D01*
X447016D01*
Y362312D01*
X447067D01*
Y362286D01*
X447092D01*
Y362261D01*
X447143D01*
Y362236D01*
X447168D01*
Y362211D01*
X447219D01*
Y362185D01*
X447244D01*
Y362160D01*
X447269D01*
Y362135D01*
X447320D01*
Y362109D01*
X447345D01*
Y362084D01*
X447371D01*
Y362059D01*
X447421D01*
Y362033D01*
X447446D01*
Y362008D01*
X447497D01*
Y361983D01*
X447522D01*
Y361957D01*
X447548D01*
Y361932D01*
X447573D01*
Y361907D01*
X447624D01*
Y361881D01*
X447649D01*
Y361856D01*
X447674D01*
Y361831D01*
X447700D01*
Y361806D01*
X447725D01*
Y361780D01*
X447750D01*
Y361755D01*
X447801D01*
Y361730D01*
X447826D01*
Y361704D01*
X447852D01*
Y361679D01*
X447902D01*
Y361654D01*
X447927D01*
Y361628D01*
Y361603D01*
X447978D01*
Y361578D01*
X448003D01*
Y361553D01*
Y361527D01*
X448054D01*
Y361502D01*
X448079D01*
Y361476D01*
Y361451D01*
X448130D01*
Y361426D01*
X448155D01*
Y361401D01*
X448180D01*
Y361375D01*
X448206D01*
Y361350D01*
Y361325D01*
X448256D01*
Y361299D01*
Y361274D01*
X448307D01*
Y361249D01*
Y361223D01*
X448332D01*
Y361198D01*
X448358D01*
Y361173D01*
X448383D01*
Y361147D01*
X448408D01*
Y361122D01*
X448434D01*
Y361097D01*
X448459D01*
Y361072D01*
Y361046D01*
X448484D01*
Y361021D01*
X448510D01*
Y360996D01*
X448535D01*
Y360970D01*
X448560D01*
Y360945D01*
X448586D01*
Y360920D01*
X448611D01*
Y360894D01*
Y360869D01*
X448636D01*
Y360844D01*
X448661D01*
Y360819D01*
X448687D01*
Y360793D01*
Y360768D01*
X448712D01*
Y360742D01*
Y360717D01*
X448737D01*
Y360692D01*
X448763D01*
Y360667D01*
X448788D01*
Y360641D01*
Y360616D01*
X448813D01*
Y360591D01*
X448839D01*
Y360565D01*
Y360540D01*
X448889D01*
Y360515D01*
Y360489D01*
Y360464D01*
X448914D01*
Y360439D01*
X448940D01*
Y360414D01*
Y360388D01*
X448965D01*
Y360363D01*
Y360338D01*
X448990D01*
Y360312D01*
X449016D01*
Y360287D01*
Y360262D01*
X449041D01*
Y360236D01*
X449066D01*
Y360211D01*
Y360186D01*
X449092D01*
Y360160D01*
Y360135D01*
X449117D01*
Y360110D01*
Y360085D01*
X449142D01*
Y360059D01*
Y360034D01*
X449168D01*
Y360009D01*
Y359983D01*
X449193D01*
Y359958D01*
Y359933D01*
X449218D01*
Y359907D01*
Y359882D01*
X449244D01*
Y359857D01*
Y359831D01*
X449269D01*
Y359806D01*
Y359781D01*
Y359755D01*
X449294D01*
Y359730D01*
X449320D01*
Y359705D01*
Y359680D01*
Y359654D01*
Y359629D01*
Y359604D01*
Y359578D01*
X449244D01*
Y359604D01*
X449218D01*
Y359629D01*
X449193D01*
Y359654D01*
X449168D01*
Y359680D01*
Y359705D01*
X449142D01*
Y359730D01*
X449117D01*
Y359755D01*
X449092D01*
Y359781D01*
Y359806D01*
X449066D01*
Y359831D01*
X449041D01*
Y359857D01*
X449016D01*
Y359882D01*
Y359907D01*
X448990D01*
Y359933D01*
Y359958D01*
X448965D01*
Y359983D01*
X448940D01*
Y360009D01*
X448914D01*
Y360034D01*
Y360059D01*
X448889D01*
Y360085D01*
X448864D01*
Y360110D01*
X448839D01*
Y360135D01*
Y360160D01*
X448813D01*
Y360186D01*
X448788D01*
Y360211D01*
Y360236D01*
X448763D01*
Y360262D01*
X448737D01*
Y360287D01*
X448712D01*
Y360312D01*
X448687D01*
Y360338D01*
Y360363D01*
X448661D01*
Y360388D01*
X448636D01*
Y360414D01*
X448611D01*
Y360439D01*
X448586D01*
Y360464D01*
Y360489D01*
X448560D01*
Y360515D01*
X448535D01*
Y360540D01*
X448510D01*
Y360565D01*
X448484D01*
Y360591D01*
X448459D01*
Y360616D01*
X448434D01*
Y360641D01*
X448408D01*
Y360667D01*
X448383D01*
Y360692D01*
X448358D01*
Y360717D01*
X448332D01*
Y360742D01*
Y360768D01*
X448307D01*
Y360793D01*
X448282D01*
Y360819D01*
X448256D01*
Y360844D01*
X448231D01*
Y360869D01*
X448206D01*
Y360894D01*
X448180D01*
Y360920D01*
X448155D01*
Y360945D01*
X448130D01*
Y360970D01*
X448079D01*
Y360996D01*
X448054D01*
Y361021D01*
X448029D01*
Y361046D01*
X448003D01*
Y361072D01*
X447978D01*
Y361097D01*
X447927D01*
Y361122D01*
Y361147D01*
X447902D01*
Y361173D01*
X447877D01*
Y361198D01*
X447826D01*
Y361223D01*
X447801D01*
Y361249D01*
X447750D01*
Y361274D01*
X447725D01*
Y361299D01*
X447700D01*
Y361325D01*
X447649D01*
Y361350D01*
X447624D01*
Y361375D01*
X447573D01*
Y361401D01*
Y361426D01*
X447522D01*
Y361451D01*
X447472D01*
Y361476D01*
X447446D01*
Y361502D01*
X447396D01*
Y361527D01*
X447345D01*
Y361553D01*
X447320D01*
Y361578D01*
X447295D01*
Y361603D01*
X447244D01*
Y361628D01*
X447193D01*
Y361654D01*
X447143D01*
Y361679D01*
X447092D01*
Y361704D01*
X447042D01*
Y361730D01*
X447016D01*
Y361755D01*
X446940D01*
Y361780D01*
X446915D01*
Y361806D01*
X446864D01*
Y361831D01*
X446788D01*
Y361856D01*
X446763D01*
Y361881D01*
X446687D01*
Y361907D01*
X446611D01*
Y361932D01*
X446561D01*
Y361957D01*
X446485D01*
Y361983D01*
X446434D01*
Y362008D01*
X446358D01*
Y362033D01*
X446308D01*
Y362059D01*
X446181D01*
Y362084D01*
X446105D01*
Y362109D01*
X446004D01*
Y362135D01*
X445928D01*
Y362160D01*
X445725D01*
Y362185D01*
X445498D01*
Y362211D01*
X445270D01*
Y362236D01*
X445219D01*
Y362211D01*
X445093D01*
Y362236D01*
X445017D01*
Y362261D01*
X444966D01*
Y362286D01*
X444941D01*
Y362312D01*
X444915D01*
Y362337D01*
X444890D01*
Y362362D01*
X444865D01*
Y362388D01*
X444814D01*
Y362413D01*
Y362438D01*
X444789D01*
Y362464D01*
X444738D01*
Y362489D01*
X444713D01*
Y362514D01*
X444688D01*
Y362540D01*
X444637D01*
Y362565D01*
X444612D01*
Y362590D01*
X444561D01*
Y362615D01*
X444536D01*
Y362641D01*
X444511D01*
Y362666D01*
X444460D01*
Y362691D01*
X444434D01*
Y362717D01*
X444384D01*
Y362742D01*
X444359D01*
Y362767D01*
X444333D01*
Y362793D01*
X444283D01*
Y362818D01*
X444232D01*
Y362843D01*
X444207D01*
Y362869D01*
X444156D01*
Y362894D01*
X444131D01*
Y362919D01*
X444080D01*
Y362945D01*
X444030D01*
Y362970D01*
X443979D01*
Y362995D01*
X443954D01*
Y363020D01*
X443903D01*
Y363046D01*
X443878D01*
Y363071D01*
X443827D01*
Y363096D01*
X443777D01*
Y363122D01*
X443726D01*
Y363147D01*
X443675D01*
Y363172D01*
X443650D01*
Y363198D01*
X443625D01*
Y363223D01*
X443549D01*
Y363248D01*
X443498D01*
Y363274D01*
Y363299D01*
X443422D01*
Y363324D01*
X443397D01*
Y363350D01*
X443371D01*
Y363375D01*
Y363400D01*
Y363425D01*
Y363451D01*
Y363476D01*
X443422D01*
Y363501D01*
X443675D01*
Y363476D01*
X443701D01*
Y363501D01*
X443726D01*
Y363476D01*
D02*
G37*
G36*
X442663Y364995D02*
X443043D01*
Y364969D01*
X443194D01*
Y364944D01*
X443346D01*
Y364919D01*
X443498D01*
Y364894D01*
X443599D01*
Y364868D01*
X443675D01*
Y364843D01*
X443802D01*
Y364818D01*
X443852D01*
Y364792D01*
X443954D01*
Y364767D01*
X444030D01*
Y364742D01*
X444105D01*
Y364716D01*
X444181D01*
Y364691D01*
X444207D01*
Y364666D01*
X444283D01*
Y364640D01*
X444359D01*
Y364615D01*
X444409D01*
Y364590D01*
X444485D01*
Y364564D01*
X444561D01*
Y364539D01*
X444586D01*
Y364514D01*
X444662D01*
Y364489D01*
X444713D01*
Y364463D01*
X444764D01*
Y364438D01*
X444814D01*
Y364413D01*
X444865D01*
Y364387D01*
X444890D01*
Y364362D01*
X444941D01*
Y364337D01*
X444991D01*
Y364311D01*
X445017D01*
Y364286D01*
X445042D01*
Y364261D01*
X445067D01*
Y364286D01*
X445093D01*
Y364261D01*
X445118D01*
Y364235D01*
X445143D01*
Y364210D01*
X445194D01*
Y364185D01*
X445245D01*
Y364159D01*
X445270D01*
Y364134D01*
X445320D01*
Y364109D01*
X445346D01*
Y364084D01*
X445396D01*
Y364058D01*
X445422D01*
Y364033D01*
X445447D01*
Y364008D01*
X445498D01*
Y363982D01*
Y363957D01*
X445548D01*
Y363932D01*
X445574D01*
Y363906D01*
X445599D01*
Y363881D01*
X445649D01*
Y363856D01*
X445675D01*
Y363830D01*
X445700D01*
Y363805D01*
X445725D01*
Y363780D01*
X445776D01*
Y363755D01*
X445801D01*
Y363729D01*
X445827D01*
Y363704D01*
X445852D01*
Y363679D01*
X445877D01*
Y363653D01*
X445903D01*
Y363628D01*
X445928D01*
Y363603D01*
X445953D01*
Y363577D01*
X445978D01*
Y363552D01*
X446004D01*
Y363527D01*
Y363501D01*
X446029D01*
Y363476D01*
Y363451D01*
X446004D01*
Y363425D01*
X445953D01*
Y363451D01*
X445903D01*
Y363476D01*
X445877D01*
Y363501D01*
X445852D01*
Y363527D01*
X445801D01*
Y363552D01*
X445776D01*
Y363577D01*
X445751D01*
Y363603D01*
X445700D01*
Y363628D01*
X445649D01*
Y363653D01*
X445624D01*
Y363679D01*
X445548D01*
Y363704D01*
Y363729D01*
X445523D01*
Y363755D01*
X445472D01*
Y363780D01*
X445422D01*
Y363805D01*
X445371D01*
Y363830D01*
X445320D01*
Y363856D01*
X445270D01*
Y363881D01*
X445219D01*
Y363906D01*
X445168D01*
Y363932D01*
X445118D01*
Y363957D01*
X445067D01*
Y363982D01*
X445017D01*
Y364008D01*
X444941D01*
Y364033D01*
X444890D01*
Y364058D01*
X444814D01*
Y364084D01*
X444713D01*
Y364109D01*
X444688D01*
Y364134D01*
X444561D01*
Y364159D01*
X444485D01*
Y364185D01*
X444434D01*
Y364210D01*
X444283D01*
Y364235D01*
X444207D01*
Y364261D01*
X444105D01*
Y364286D01*
X443878D01*
Y364311D01*
X443650D01*
Y364337D01*
X443574D01*
Y364311D01*
X443549D01*
Y364337D01*
X443296D01*
Y364311D01*
X443245D01*
Y364337D01*
X443194D01*
Y364311D01*
X443169D01*
Y364337D01*
X443144D01*
Y364311D01*
X442916D01*
Y364286D01*
X442713D01*
Y364261D01*
X442637D01*
Y364235D01*
X442587D01*
Y364261D01*
X442562D01*
Y364235D01*
X442536D01*
Y364261D01*
X442460D01*
Y364286D01*
X442359D01*
Y364311D01*
X442283D01*
Y364337D01*
X442233D01*
Y364362D01*
X442131D01*
Y364387D01*
X442030D01*
Y364413D01*
X441929D01*
Y364438D01*
X441802D01*
Y364463D01*
X441777D01*
Y364489D01*
X441600D01*
Y364514D01*
X441321D01*
Y364539D01*
X441144D01*
Y364514D01*
X440815D01*
Y364489D01*
X440714D01*
Y364463D01*
X440638D01*
Y364438D01*
X440537D01*
Y364413D01*
X440461D01*
Y364387D01*
X440410D01*
Y364362D01*
X440385D01*
Y364337D01*
X440309D01*
Y364311D01*
X440258D01*
Y364286D01*
X440157D01*
Y364261D01*
X440132D01*
Y364235D01*
X440106D01*
Y364210D01*
X440056D01*
Y364185D01*
X440005D01*
Y364159D01*
X439955D01*
Y364185D01*
X439879D01*
Y364210D01*
Y364235D01*
X439853D01*
Y364261D01*
Y364286D01*
Y364311D01*
X439879D01*
Y364337D01*
X439904D01*
Y364362D01*
X439980D01*
Y364387D01*
X440030D01*
Y364413D01*
X440056D01*
Y364438D01*
X440132D01*
Y364463D01*
X440157D01*
Y364489D01*
X440208D01*
Y364514D01*
X440284D01*
Y364539D01*
X440334D01*
Y364564D01*
X440410D01*
Y364590D01*
X440461D01*
Y364615D01*
X440537D01*
Y364640D01*
X440587D01*
Y364666D01*
X440663D01*
Y364691D01*
X440714D01*
Y364716D01*
X440790D01*
Y364742D01*
X440866D01*
Y364767D01*
X440967D01*
Y364792D01*
X441018D01*
Y364818D01*
X441068D01*
Y364843D01*
X441195D01*
Y364868D01*
X441296D01*
Y364894D01*
X441397D01*
Y364919D01*
X441549D01*
Y364944D01*
X441726D01*
Y364969D01*
X441802D01*
Y364995D01*
X442157D01*
Y365020D01*
X442663D01*
Y364995D01*
D02*
G37*
G36*
X441271Y363856D02*
X441296D01*
Y363830D01*
X441321D01*
Y363805D01*
Y363780D01*
X441347D01*
Y363755D01*
Y363729D01*
Y363704D01*
X441372D01*
Y363679D01*
Y363653D01*
Y363628D01*
X441397D01*
Y363603D01*
X441372D01*
Y363577D01*
Y363552D01*
Y363527D01*
Y363501D01*
Y363476D01*
X441347D01*
Y363451D01*
Y363425D01*
Y363400D01*
Y363375D01*
Y363350D01*
X441321D01*
Y363324D01*
X441296D01*
Y363299D01*
Y363274D01*
X441271D01*
Y363248D01*
Y363223D01*
X441245D01*
Y363198D01*
Y363172D01*
X441220D01*
Y363147D01*
X441195D01*
Y363122D01*
Y363096D01*
X441170D01*
Y363071D01*
X441144D01*
Y363046D01*
X441093D01*
Y363020D01*
X441068D01*
Y362995D01*
X441043D01*
Y362970D01*
X441018D01*
Y362945D01*
X440967D01*
Y362919D01*
X440942D01*
Y362894D01*
X440891D01*
Y362869D01*
X440840D01*
Y362843D01*
X440790D01*
Y362818D01*
X440638D01*
Y362793D01*
X440385D01*
Y362818D01*
X440258D01*
Y362843D01*
X440208D01*
Y362869D01*
X440157D01*
Y362894D01*
X440106D01*
Y362919D01*
X440081D01*
Y362945D01*
X440030D01*
Y362970D01*
X439980D01*
Y362995D01*
Y363020D01*
X439929D01*
Y363046D01*
X439904D01*
Y363071D01*
X439879D01*
Y363096D01*
X439853D01*
Y363122D01*
Y363147D01*
X439803D01*
Y363172D01*
Y363198D01*
X439777D01*
Y363223D01*
X439752D01*
Y363248D01*
Y363274D01*
X439727D01*
Y363299D01*
Y363324D01*
X439752D01*
Y363350D01*
X439777D01*
Y363375D01*
X439803D01*
Y363400D01*
X439828D01*
Y363425D01*
X439853D01*
Y363451D01*
X439904D01*
Y363476D01*
X439929D01*
Y363501D01*
X439955D01*
Y363527D01*
X440005D01*
Y363552D01*
X440056D01*
Y363577D01*
X440081D01*
Y363603D01*
X440132D01*
Y363628D01*
X440182D01*
Y363653D01*
X440233D01*
Y363679D01*
X440309D01*
Y363704D01*
X440359D01*
Y363729D01*
X440436D01*
Y363755D01*
X440537D01*
Y363780D01*
X440613D01*
Y363805D01*
X440739D01*
Y363830D01*
X440790D01*
Y363856D01*
X441144D01*
Y363881D01*
X441271D01*
Y363856D01*
D02*
G37*
G36*
X441093Y362691D02*
X441195D01*
Y362666D01*
X441245D01*
Y362691D01*
X441271D01*
Y362666D01*
X441423D01*
Y362641D01*
X441549D01*
Y362615D01*
X441701D01*
Y362590D01*
X441802D01*
Y362565D01*
X441929D01*
Y362540D01*
X442055D01*
Y362514D01*
X442131D01*
Y362489D01*
X442157D01*
Y362514D01*
X442182D01*
Y362489D01*
X442258D01*
Y362464D01*
X442359D01*
Y362438D01*
X442460D01*
Y362413D01*
X442511D01*
Y362388D01*
X442612D01*
Y362362D01*
X442688D01*
Y362337D01*
X442764D01*
Y362312D01*
X442865D01*
Y362286D01*
X442916D01*
Y362261D01*
X442992D01*
Y362236D01*
X443093D01*
Y362211D01*
X443144D01*
Y362185D01*
X443194D01*
Y362160D01*
X443245D01*
Y362135D01*
X443321D01*
Y362109D01*
X443397D01*
Y362084D01*
X443422D01*
Y362059D01*
X443523D01*
Y362033D01*
X443574D01*
Y362008D01*
X443625D01*
Y361983D01*
X443675D01*
Y361957D01*
X443726D01*
Y361932D01*
X443802D01*
Y361907D01*
X443852D01*
Y361881D01*
X443903D01*
Y361856D01*
X443928D01*
Y361831D01*
X443979D01*
Y361806D01*
X444030D01*
Y361780D01*
X444080D01*
Y361755D01*
X444131D01*
Y361730D01*
X444181D01*
Y361704D01*
X444207D01*
Y361679D01*
X444257D01*
Y361654D01*
X444308D01*
Y361628D01*
X444333D01*
Y361603D01*
X444384D01*
Y361578D01*
X444409D01*
Y361553D01*
X444460D01*
Y361527D01*
X444511D01*
Y361502D01*
X444561D01*
Y361476D01*
X444586D01*
Y361451D01*
X444612D01*
Y361426D01*
X444637D01*
Y361401D01*
X444688D01*
Y361375D01*
X444713D01*
Y361350D01*
X444764D01*
Y361325D01*
X444814D01*
Y361299D01*
X444839D01*
Y361274D01*
X444865D01*
Y361249D01*
X444915D01*
Y361223D01*
X444941D01*
Y361198D01*
X444966D01*
Y361173D01*
X444991D01*
Y361147D01*
X445017D01*
Y361122D01*
X445067D01*
Y361097D01*
X445093D01*
Y361072D01*
X445143D01*
Y361046D01*
X445168D01*
Y361021D01*
X445194D01*
Y360996D01*
X445219D01*
Y360970D01*
X445245D01*
Y360945D01*
X445270D01*
Y360920D01*
X445320D01*
Y360894D01*
Y360869D01*
X445346D01*
Y360844D01*
X445396D01*
Y360819D01*
X445422D01*
Y360793D01*
Y360768D01*
X445472D01*
Y360742D01*
X445498D01*
Y360717D01*
X445523D01*
Y360692D01*
X445548D01*
Y360667D01*
X445574D01*
Y360641D01*
X445599D01*
Y360616D01*
X445624D01*
Y360591D01*
X445649D01*
Y360565D01*
X445675D01*
Y360540D01*
X445700D01*
Y360515D01*
Y360489D01*
X445725D01*
Y360464D01*
X445776D01*
Y360439D01*
X445801D01*
Y360414D01*
Y360388D01*
X445827D01*
Y360363D01*
X445852D01*
Y360338D01*
X445877D01*
Y360312D01*
X445903D01*
Y360287D01*
X445928D01*
Y360262D01*
X445953D01*
Y360236D01*
Y360211D01*
X445978D01*
Y360186D01*
X446004D01*
Y360160D01*
X446029D01*
Y360135D01*
X446054D01*
Y360110D01*
Y360085D01*
X446080D01*
Y360059D01*
X446105D01*
Y360034D01*
Y360009D01*
X446156D01*
Y359983D01*
Y359958D01*
X446181D01*
Y359933D01*
X446206D01*
Y359907D01*
X446232D01*
Y359882D01*
Y359857D01*
X446257D01*
Y359831D01*
Y359806D01*
X446282D01*
Y359781D01*
X446308D01*
Y359755D01*
X446333D01*
Y359730D01*
Y359705D01*
X446358D01*
Y359680D01*
X446383D01*
Y359654D01*
Y359629D01*
X446409D01*
Y359604D01*
X446434D01*
Y359578D01*
Y359553D01*
X446459D01*
Y359528D01*
X446485D01*
Y359502D01*
Y359477D01*
X446510D01*
Y359452D01*
X446535D01*
Y359426D01*
Y359401D01*
X446561D01*
Y359376D01*
X446586D01*
Y359350D01*
Y359325D01*
X446611D01*
Y359300D01*
X446637D01*
Y359275D01*
Y359249D01*
X446662D01*
Y359224D01*
Y359199D01*
X446687D01*
Y359173D01*
X446712D01*
Y359148D01*
Y359123D01*
X446738D01*
Y359097D01*
Y359072D01*
X446763D01*
Y359047D01*
X446788D01*
Y359021D01*
Y358996D01*
X446814D01*
Y358971D01*
Y358945D01*
X446839D01*
Y358920D01*
X446864D01*
Y358895D01*
Y358870D01*
Y358844D01*
X446890D01*
Y358819D01*
X446915D01*
Y358794D01*
Y358768D01*
X446940D01*
Y358743D01*
Y358718D01*
X446966D01*
Y358692D01*
Y358667D01*
X446991D01*
Y358642D01*
X447016D01*
Y358616D01*
Y358591D01*
Y358566D01*
X447042D01*
Y358541D01*
Y358515D01*
X446966D01*
Y358541D01*
X446940D01*
Y358566D01*
X446915D01*
Y358591D01*
X446890D01*
Y358616D01*
Y358642D01*
X446864D01*
Y358667D01*
X446839D01*
Y358692D01*
Y358718D01*
X446814D01*
Y358743D01*
X446788D01*
Y358768D01*
Y358794D01*
X446738D01*
Y358819D01*
Y358844D01*
X446712D01*
Y358870D01*
X446687D01*
Y358895D01*
X446662D01*
Y358920D01*
Y358945D01*
X446637D01*
Y358971D01*
X446586D01*
Y358996D01*
X446561D01*
Y359021D01*
Y359047D01*
X446535D01*
Y359072D01*
X446510D01*
Y359097D01*
X446485D01*
Y359123D01*
X446459D01*
Y359148D01*
X446434D01*
Y359173D01*
Y359199D01*
X446409D01*
Y359224D01*
X446383D01*
Y359249D01*
X446358D01*
Y359275D01*
X446333D01*
Y359300D01*
X446308D01*
Y359325D01*
X446282D01*
Y359350D01*
Y359376D01*
X446257D01*
Y359401D01*
X446232D01*
Y359426D01*
X446206D01*
Y359452D01*
X446181D01*
Y359477D01*
X446156D01*
Y359502D01*
X446105D01*
Y359528D01*
Y359553D01*
X446080D01*
Y359578D01*
X446054D01*
Y359604D01*
X446029D01*
Y359629D01*
X446004D01*
Y359654D01*
X445978D01*
Y359680D01*
X445953D01*
Y359705D01*
X445928D01*
Y359730D01*
X445903D01*
Y359755D01*
X445877D01*
Y359781D01*
X445827D01*
Y359806D01*
X445801D01*
Y359831D01*
Y359857D01*
X445751D01*
Y359882D01*
X445725D01*
Y359907D01*
X445700D01*
Y359933D01*
X445675D01*
Y359958D01*
X445649D01*
Y359983D01*
X445624D01*
Y360009D01*
X445574D01*
Y360034D01*
X445548D01*
Y360059D01*
X445523D01*
Y360085D01*
X445472D01*
Y360110D01*
X445447D01*
Y360135D01*
X445422D01*
Y360160D01*
X445371D01*
Y360186D01*
X445346D01*
Y360211D01*
X445320D01*
Y360236D01*
X445295D01*
Y360262D01*
X445270D01*
Y360287D01*
X445219D01*
Y360312D01*
X445194D01*
Y360338D01*
X445143D01*
Y360363D01*
X445118D01*
Y360388D01*
X445042D01*
Y360414D01*
X445017D01*
Y360439D01*
X444991D01*
Y360464D01*
X444941D01*
Y360489D01*
X444915D01*
Y360515D01*
X444865D01*
Y360540D01*
X444814D01*
Y360565D01*
X444764D01*
Y360591D01*
X444738D01*
Y360616D01*
X444662D01*
Y360641D01*
X444637D01*
Y360667D01*
X444586D01*
Y360692D01*
X444536D01*
Y360717D01*
X444485D01*
Y360742D01*
X444434D01*
Y360768D01*
X444359D01*
Y360793D01*
X444308D01*
Y360819D01*
X444257D01*
Y360844D01*
X444207D01*
Y360869D01*
X444131D01*
Y360894D01*
X444105D01*
Y360920D01*
X443979D01*
Y360945D01*
X443954D01*
Y360970D01*
X443852D01*
Y360996D01*
X443751D01*
Y361021D01*
X443675D01*
Y361046D01*
X443574D01*
Y361072D01*
X443447D01*
Y361097D01*
X443346D01*
Y361122D01*
X443169D01*
Y361147D01*
X443017D01*
Y361173D01*
X442688D01*
Y361198D01*
X442562D01*
Y361173D01*
X442536D01*
Y361198D01*
X442131D01*
Y361223D01*
X442106D01*
Y361249D01*
X442081D01*
Y361274D01*
X442055D01*
Y361299D01*
X442030D01*
Y361325D01*
X442005D01*
Y361350D01*
X441979D01*
Y361375D01*
Y361401D01*
X441954D01*
Y361426D01*
X441929D01*
Y361451D01*
X441903D01*
Y361476D01*
X441878D01*
Y361502D01*
X441853D01*
Y361527D01*
X441827D01*
Y361553D01*
X441802D01*
Y361578D01*
X441777D01*
Y361603D01*
Y361628D01*
X441752D01*
Y361654D01*
X441726D01*
Y361679D01*
X441701D01*
Y361704D01*
X441676D01*
Y361730D01*
X441650D01*
Y361755D01*
X441600D01*
Y361780D01*
X441574D01*
Y361806D01*
X441549D01*
Y361831D01*
X441524D01*
Y361856D01*
X441499D01*
Y361881D01*
X441473D01*
Y361907D01*
X441448D01*
Y361932D01*
X441397D01*
Y361957D01*
X441372D01*
Y361983D01*
X441321D01*
Y362008D01*
X441296D01*
Y362033D01*
X441245D01*
Y362059D01*
X441195D01*
Y362084D01*
X441144D01*
Y362109D01*
X441119D01*
Y362135D01*
X441043D01*
Y362160D01*
X440992D01*
Y362185D01*
X440942D01*
Y362211D01*
X440891D01*
Y362236D01*
X440815D01*
Y362261D01*
X440739D01*
Y362286D01*
X440689D01*
Y362312D01*
X440587D01*
Y362337D01*
X440511D01*
Y362362D01*
X440461D01*
Y362388D01*
X440385D01*
Y362413D01*
X440284D01*
Y362438D01*
X440233D01*
Y362464D01*
X440132D01*
Y362489D01*
X440056D01*
Y362514D01*
X439980D01*
Y362540D01*
X439904D01*
Y362565D01*
X439879D01*
Y362590D01*
X439828D01*
Y362615D01*
X439803D01*
Y362641D01*
Y362666D01*
Y362691D01*
X439980D01*
Y362666D01*
X440132D01*
Y362641D01*
X440284D01*
Y362615D01*
X440739D01*
Y362641D01*
X440840D01*
Y362666D01*
X441018D01*
Y362691D01*
X441068D01*
Y362717D01*
X441093D01*
Y362691D01*
D02*
G37*
G36*
X445624Y361856D02*
X445751D01*
Y361831D01*
X445928D01*
Y361806D01*
X446004D01*
Y361780D01*
X446105D01*
Y361755D01*
X446232D01*
Y361730D01*
X446282D01*
Y361704D01*
X446358D01*
Y361679D01*
X446459D01*
Y361654D01*
X446510D01*
Y361628D01*
X446561D01*
Y361603D01*
X446611D01*
Y361578D01*
X446662D01*
Y361553D01*
X446712D01*
Y361527D01*
X446788D01*
Y361502D01*
X446814D01*
Y361476D01*
X446864D01*
Y361451D01*
X446915D01*
Y361426D01*
X446966D01*
Y361401D01*
X447016D01*
Y361375D01*
X447042D01*
Y361350D01*
X447067D01*
Y361325D01*
X447118D01*
Y361299D01*
X447143D01*
Y361274D01*
X447193D01*
Y361249D01*
X447219D01*
Y361223D01*
X447244D01*
Y361198D01*
X447295D01*
Y361173D01*
X447320D01*
Y361147D01*
X447345D01*
Y361122D01*
X447396D01*
Y361097D01*
X447421D01*
Y361072D01*
X447446D01*
Y361046D01*
X447497D01*
Y361021D01*
Y360996D01*
X447548D01*
Y360970D01*
X447573D01*
Y360945D01*
Y360920D01*
X447624D01*
Y360894D01*
X447649D01*
Y360869D01*
X447674D01*
Y360844D01*
X447700D01*
Y360819D01*
X447725D01*
Y360793D01*
Y360768D01*
X447776D01*
Y360742D01*
X447801D01*
Y360717D01*
Y360692D01*
X447826D01*
Y360667D01*
X447852D01*
Y360641D01*
X447877D01*
Y360616D01*
X447902D01*
Y360591D01*
X447927D01*
Y360565D01*
X447953D01*
Y360540D01*
X447978D01*
Y360515D01*
X448003D01*
Y360489D01*
Y360464D01*
X448054D01*
Y360439D01*
Y360414D01*
X448079D01*
Y360388D01*
X448105D01*
Y360363D01*
Y360338D01*
X448130D01*
Y360312D01*
X448155D01*
Y360287D01*
X448180D01*
Y360262D01*
X448206D01*
Y360236D01*
X448231D01*
Y360211D01*
Y360186D01*
X448256D01*
Y360160D01*
Y360135D01*
X448282D01*
Y360110D01*
X448307D01*
Y360085D01*
X448332D01*
Y360059D01*
Y360034D01*
X448358D01*
Y360009D01*
X448383D01*
Y359983D01*
X448408D01*
Y359958D01*
Y359933D01*
X448434D01*
Y359907D01*
X448459D01*
Y359882D01*
Y359857D01*
X448484D01*
Y359831D01*
X448510D01*
Y359806D01*
Y359781D01*
X448535D01*
Y359755D01*
X448560D01*
Y359730D01*
Y359705D01*
X448586D01*
Y359680D01*
Y359654D01*
X448611D01*
Y359629D01*
X448636D01*
Y359604D01*
Y359578D01*
X448661D01*
Y359553D01*
Y359528D01*
X448687D01*
Y359502D01*
X448712D01*
Y359477D01*
Y359452D01*
X448737D01*
Y359426D01*
Y359401D01*
X448763D01*
Y359376D01*
X448788D01*
Y359350D01*
Y359325D01*
Y359300D01*
X448813D01*
Y359275D01*
Y359249D01*
X448864D01*
Y359224D01*
Y359199D01*
Y359173D01*
X448889D01*
Y359148D01*
Y359123D01*
X448914D01*
Y359097D01*
Y359072D01*
X448940D01*
Y359047D01*
Y359021D01*
Y358996D01*
X448965D01*
Y358971D01*
Y358945D01*
X448990D01*
Y358920D01*
X449016D01*
Y358895D01*
Y358870D01*
Y358844D01*
X449041D01*
Y358819D01*
Y358794D01*
X449066D01*
Y358768D01*
Y358743D01*
X449092D01*
Y358718D01*
Y358692D01*
Y358667D01*
X449117D01*
Y358642D01*
X449142D01*
Y358616D01*
Y358591D01*
Y358566D01*
X449168D01*
Y358541D01*
Y358515D01*
Y358490D01*
X449193D01*
Y358465D01*
X449218D01*
Y358439D01*
Y358414D01*
Y358389D01*
X449244D01*
Y358363D01*
Y358338D01*
Y358313D01*
X449269D01*
Y358287D01*
Y358262D01*
X449294D01*
Y358237D01*
Y358211D01*
Y358186D01*
X449320D01*
Y358161D01*
Y358136D01*
Y358110D01*
X449345D01*
Y358085D01*
Y358060D01*
Y358034D01*
Y358009D01*
X449370D01*
Y357984D01*
Y357958D01*
Y357933D01*
X449395D01*
Y357908D01*
Y357882D01*
X449421D01*
Y357857D01*
Y357832D01*
Y357806D01*
Y357781D01*
X449446D01*
Y357756D01*
Y357731D01*
Y357705D01*
X449471D01*
Y357680D01*
Y357655D01*
Y357629D01*
Y357604D01*
X449497D01*
Y357579D01*
Y357553D01*
Y357528D01*
Y357503D01*
Y357477D01*
X449522D01*
Y357452D01*
Y357427D01*
Y357401D01*
Y357376D01*
Y357351D01*
X449547D01*
Y357326D01*
Y357300D01*
Y357275D01*
X449522D01*
Y357250D01*
Y357224D01*
X449471D01*
Y357250D01*
X449446D01*
Y357275D01*
Y357300D01*
Y357326D01*
X449421D01*
Y357351D01*
Y357376D01*
X449395D01*
Y357401D01*
Y357427D01*
Y357452D01*
Y357477D01*
X449370D01*
Y357503D01*
Y357528D01*
X449345D01*
Y357553D01*
Y357579D01*
X449320D01*
Y357604D01*
Y357629D01*
Y357655D01*
X449294D01*
Y357680D01*
Y357705D01*
X449269D01*
Y357731D01*
Y357756D01*
X449244D01*
Y357781D01*
Y357806D01*
Y357832D01*
X449218D01*
Y357857D01*
Y357882D01*
X449193D01*
Y357908D01*
Y357933D01*
X449168D01*
Y357958D01*
Y357984D01*
Y358009D01*
X449142D01*
Y358034D01*
Y358060D01*
X449117D01*
Y358085D01*
X449092D01*
Y358110D01*
Y358136D01*
Y358161D01*
X449066D01*
Y358186D01*
Y358211D01*
X449041D01*
Y358237D01*
X449016D01*
Y358262D01*
Y358287D01*
X448990D01*
Y358313D01*
Y358338D01*
X448965D01*
Y358363D01*
Y358389D01*
X448940D01*
Y358414D01*
X448914D01*
Y358439D01*
Y358465D01*
X448889D01*
Y358490D01*
Y358515D01*
X448864D01*
Y358541D01*
Y358566D01*
X448813D01*
Y358591D01*
Y358616D01*
Y358642D01*
X448788D01*
Y358667D01*
X448763D01*
Y358692D01*
X448737D01*
Y358718D01*
Y358743D01*
X448712D01*
Y358768D01*
X448687D01*
Y358794D01*
X448661D01*
Y358819D01*
Y358844D01*
X448636D01*
Y358870D01*
Y358895D01*
X448611D01*
Y358920D01*
X448586D01*
Y358945D01*
X448560D01*
Y358971D01*
X448535D01*
Y358996D01*
X448510D01*
Y359021D01*
X448484D01*
Y359047D01*
Y359072D01*
X448459D01*
Y359097D01*
X448434D01*
Y359123D01*
X448408D01*
Y359148D01*
X448383D01*
Y359173D01*
X448358D01*
Y359199D01*
X448332D01*
Y359224D01*
X448307D01*
Y359249D01*
X448282D01*
Y359275D01*
X448256D01*
Y359300D01*
X448231D01*
Y359325D01*
X448206D01*
Y359350D01*
X448180D01*
Y359376D01*
X448155D01*
Y359401D01*
X448130D01*
Y359426D01*
X448105D01*
Y359452D01*
X448079D01*
Y359477D01*
X448054D01*
Y359502D01*
X448029D01*
Y359528D01*
X448003D01*
Y359553D01*
X447953D01*
Y359578D01*
X447927D01*
Y359604D01*
X447877D01*
Y359629D01*
X447852D01*
Y359654D01*
X447801D01*
Y359680D01*
X447776D01*
Y359705D01*
X447725D01*
Y359730D01*
X447700D01*
Y359755D01*
X447649D01*
Y359781D01*
X447598D01*
Y359806D01*
X447573D01*
Y359831D01*
X447522D01*
Y359857D01*
X447446D01*
Y359882D01*
X447396D01*
Y359907D01*
X447345D01*
Y359933D01*
X447269D01*
Y359958D01*
X447219D01*
Y359983D01*
X447143D01*
Y360009D01*
X447016D01*
Y360034D01*
X446940D01*
Y360059D01*
X446788D01*
Y360085D01*
X446738D01*
Y360110D01*
Y360135D01*
Y360160D01*
X446712D01*
Y360186D01*
X446687D01*
Y360211D01*
Y360236D01*
X446662D01*
Y360262D01*
Y360287D01*
X446637D01*
Y360312D01*
Y360338D01*
Y360363D01*
X446611D01*
Y360388D01*
X446586D01*
Y360414D01*
Y360439D01*
X446561D01*
Y360464D01*
Y360489D01*
X446535D01*
Y360515D01*
Y360540D01*
X446510D01*
Y360565D01*
Y360591D01*
X446485D01*
Y360616D01*
X446459D01*
Y360641D01*
Y360667D01*
X446434D01*
Y360692D01*
X446409D01*
Y360717D01*
Y360742D01*
X446383D01*
Y360768D01*
Y360793D01*
X446358D01*
Y360819D01*
X446333D01*
Y360844D01*
Y360869D01*
X446308D01*
Y360894D01*
X446282D01*
Y360920D01*
X446257D01*
Y360945D01*
Y360970D01*
X446232D01*
Y360996D01*
X446206D01*
Y361021D01*
Y361046D01*
X446181D01*
Y361072D01*
X446156D01*
Y361097D01*
X446130D01*
Y361122D01*
X446105D01*
Y361147D01*
Y361173D01*
X446080D01*
Y361198D01*
X446054D01*
Y361223D01*
X446029D01*
Y361249D01*
X446004D01*
Y361274D01*
X445978D01*
Y361299D01*
X445953D01*
Y361325D01*
Y361350D01*
X445928D01*
Y361375D01*
X445903D01*
Y361401D01*
X445877D01*
Y361426D01*
X445852D01*
Y361451D01*
X445801D01*
Y361476D01*
X445776D01*
Y361502D01*
X445751D01*
Y361527D01*
X445725D01*
Y361553D01*
X445700D01*
Y361578D01*
Y361603D01*
X445649D01*
Y361628D01*
X445624D01*
Y361654D01*
Y361679D01*
X445574D01*
Y361704D01*
X445548D01*
Y361730D01*
X445523D01*
Y361755D01*
Y361780D01*
X445472D01*
Y361806D01*
X445447D01*
Y361831D01*
X445472D01*
Y361856D01*
Y361881D01*
X445574D01*
Y361856D01*
X445599D01*
Y361881D01*
X445624D01*
Y361856D01*
D02*
G37*
G36*
X442359Y361021D02*
X442410D01*
Y360996D01*
X442486D01*
Y360970D01*
X442663D01*
Y360945D01*
X442764D01*
Y360920D01*
X442941D01*
Y360894D01*
X443068D01*
Y360869D01*
X443169D01*
Y360844D01*
X443321D01*
Y360819D01*
X443371D01*
Y360793D01*
X443498D01*
Y360768D01*
X443625D01*
Y360742D01*
X443675D01*
Y360717D01*
X443777D01*
Y360692D01*
X443878D01*
Y360667D01*
X443928D01*
Y360641D01*
X443979D01*
Y360616D01*
X444080D01*
Y360591D01*
X444131D01*
Y360565D01*
X444207D01*
Y360540D01*
X444283D01*
Y360515D01*
X444333D01*
Y360489D01*
X444384D01*
Y360464D01*
X444460D01*
Y360439D01*
X444511D01*
Y360414D01*
X444561D01*
Y360388D01*
X444612D01*
Y360363D01*
X444662D01*
Y360338D01*
X444713D01*
Y360312D01*
X444764D01*
Y360287D01*
X444814D01*
Y360262D01*
X444865D01*
Y360236D01*
X444915D01*
Y360211D01*
X444941D01*
Y360186D01*
X444966D01*
Y360160D01*
X445017D01*
Y360135D01*
X445067D01*
Y360110D01*
X445118D01*
Y360085D01*
X445143D01*
Y360059D01*
X445194D01*
Y360034D01*
X445219D01*
Y360009D01*
X445245D01*
Y359983D01*
X445295D01*
Y359958D01*
X445320D01*
Y359933D01*
X445346D01*
Y359907D01*
X445371D01*
Y359882D01*
X445396D01*
Y359857D01*
X445447D01*
Y359831D01*
X445472D01*
Y359806D01*
Y359781D01*
X445523D01*
Y359755D01*
X445548D01*
Y359730D01*
X445574D01*
Y359705D01*
X445599D01*
Y359680D01*
X445624D01*
Y359654D01*
Y359629D01*
X445675D01*
Y359604D01*
X445700D01*
Y359578D01*
Y359553D01*
X445725D01*
Y359528D01*
X445751D01*
Y359502D01*
X445776D01*
Y359477D01*
X445801D01*
Y359452D01*
Y359426D01*
X445827D01*
Y359401D01*
X445852D01*
Y359376D01*
X445877D01*
Y359350D01*
X445903D01*
Y359325D01*
X445928D01*
Y359300D01*
X445953D01*
Y359275D01*
Y359249D01*
X445978D01*
Y359224D01*
Y359199D01*
X446004D01*
Y359173D01*
X446029D01*
Y359148D01*
Y359123D01*
X446054D01*
Y359097D01*
X446080D01*
Y359072D01*
X446105D01*
Y359047D01*
Y359021D01*
Y358996D01*
X446130D01*
Y358971D01*
Y358945D01*
X446156D01*
Y358920D01*
X446181D01*
Y358895D01*
Y358870D01*
X446206D01*
Y358844D01*
Y358819D01*
X446232D01*
Y358794D01*
Y358768D01*
X446257D01*
Y358743D01*
Y358718D01*
X446282D01*
Y358692D01*
Y358667D01*
X446308D01*
Y358642D01*
X446333D01*
Y358616D01*
X446308D01*
Y358591D01*
X446257D01*
Y358616D01*
X446232D01*
Y358642D01*
X446206D01*
Y358667D01*
X446181D01*
Y358692D01*
X446156D01*
Y358718D01*
X446130D01*
Y358743D01*
X446105D01*
Y358768D01*
X446080D01*
Y358794D01*
X446054D01*
Y358819D01*
X446029D01*
Y358844D01*
Y358870D01*
X446004D01*
Y358895D01*
X445978D01*
Y358920D01*
X445928D01*
Y358945D01*
Y358971D01*
X445903D01*
Y358996D01*
X445852D01*
Y359021D01*
X445827D01*
Y359047D01*
X445801D01*
Y359072D01*
X445776D01*
Y359097D01*
X445751D01*
Y359123D01*
X445700D01*
Y359148D01*
X445675D01*
Y359173D01*
X445624D01*
Y359199D01*
Y359224D01*
X445574D01*
Y359249D01*
X445523D01*
Y359275D01*
X445498D01*
Y359300D01*
X445472D01*
Y359325D01*
X445396D01*
Y359350D01*
X445371D01*
Y359376D01*
X445346D01*
Y359401D01*
X445270D01*
Y359426D01*
X445219D01*
Y359452D01*
X445194D01*
Y359477D01*
X445143D01*
Y359502D01*
X445093D01*
Y359528D01*
X445042D01*
Y359553D01*
X444966D01*
Y359578D01*
X444915D01*
Y359604D01*
X444865D01*
Y359629D01*
X444789D01*
Y359654D01*
X444738D01*
Y359680D01*
X444688D01*
Y359705D01*
X444586D01*
Y359730D01*
X444511D01*
Y359755D01*
X444460D01*
Y359781D01*
X444359D01*
Y359806D01*
X444308D01*
Y359831D01*
X444232D01*
Y359857D01*
X444131D01*
Y359882D01*
X444055D01*
Y359907D01*
X443979D01*
Y359933D01*
X443852D01*
Y359958D01*
X443777D01*
Y359983D01*
X443675D01*
Y360009D01*
X443498D01*
Y360034D01*
X443397D01*
Y360059D01*
X443245D01*
Y360085D01*
X443093D01*
Y360110D01*
X443017D01*
Y360135D01*
X442815D01*
Y360160D01*
X442688D01*
Y360186D01*
X442663D01*
Y360160D01*
X442637D01*
Y360186D01*
X442410D01*
Y360211D01*
X442182D01*
Y360236D01*
X441853D01*
Y360262D01*
X441195D01*
Y360287D01*
X441144D01*
Y360312D01*
X441119D01*
Y360338D01*
Y360363D01*
X441093D01*
Y360388D01*
Y360414D01*
Y360439D01*
X441119D01*
Y360464D01*
X441144D01*
Y360489D01*
X441245D01*
Y360515D01*
X441574D01*
Y360540D01*
X441600D01*
Y360515D01*
X441676D01*
Y360540D01*
X441777D01*
Y360565D01*
X441802D01*
Y360591D01*
X441827D01*
Y360616D01*
X441853D01*
Y360641D01*
X441878D01*
Y360667D01*
X441903D01*
Y360692D01*
X441929D01*
Y360717D01*
X441954D01*
Y360742D01*
Y360768D01*
X441979D01*
Y360793D01*
X442005D01*
Y360819D01*
X442030D01*
Y360844D01*
Y360869D01*
X442055D01*
Y360894D01*
X442081D01*
Y360920D01*
X442106D01*
Y360945D01*
X442131D01*
Y360970D01*
X442157D01*
Y360996D01*
X442182D01*
Y361021D01*
X442258D01*
Y361046D01*
X442308D01*
Y361021D01*
X442334D01*
Y361046D01*
X442359D01*
Y361021D01*
D02*
G37*
G36*
X445194Y364894D02*
X445295D01*
Y364868D01*
X445346D01*
Y364894D01*
X445371D01*
Y364868D01*
X445523D01*
Y364843D01*
X445675D01*
Y364818D01*
X445700D01*
Y364843D01*
X445776D01*
Y364818D01*
X445827D01*
Y364792D01*
X445953D01*
Y364767D01*
X446080D01*
Y364742D01*
X446181D01*
Y364716D01*
X446282D01*
Y364691D01*
X446333D01*
Y364666D01*
X446358D01*
Y364691D01*
X446383D01*
Y364666D01*
X446459D01*
Y364640D01*
X446561D01*
Y364615D01*
X446586D01*
Y364590D01*
X446712D01*
Y364564D01*
X446788D01*
Y364539D01*
X446839D01*
Y364514D01*
X446940D01*
Y364489D01*
X447016D01*
Y364463D01*
X447067D01*
Y364438D01*
X447143D01*
Y364413D01*
X447193D01*
Y364387D01*
X447269D01*
Y364362D01*
X447345D01*
Y364337D01*
X447396D01*
Y364311D01*
X447472D01*
Y364286D01*
X447522D01*
Y364261D01*
X447573D01*
Y364235D01*
X447624D01*
Y364210D01*
X447700D01*
Y364185D01*
X447750D01*
Y364159D01*
X447801D01*
Y364134D01*
X447877D01*
Y364109D01*
X447902D01*
Y364084D01*
X447953D01*
Y364058D01*
X448029D01*
Y364033D01*
X448054D01*
Y364008D01*
X448105D01*
Y363982D01*
X448155D01*
Y363957D01*
X448231D01*
Y363932D01*
X448256D01*
Y363906D01*
X448307D01*
Y363881D01*
X448358D01*
Y363856D01*
X448408D01*
Y363830D01*
X448434D01*
Y363805D01*
X448510D01*
Y363780D01*
X448535D01*
Y363755D01*
X448611D01*
Y363729D01*
X448636D01*
Y363704D01*
X448687D01*
Y363679D01*
X448712D01*
Y363653D01*
X448763D01*
Y363628D01*
X448788D01*
Y363603D01*
X448839D01*
Y363577D01*
X448889D01*
Y363552D01*
X448940D01*
Y363527D01*
X448990D01*
Y363501D01*
X449016D01*
Y363476D01*
X449041D01*
Y363451D01*
X449092D01*
Y363425D01*
X449117D01*
Y363400D01*
X449168D01*
Y363375D01*
X449193D01*
Y363350D01*
X449218D01*
Y363324D01*
X449244D01*
Y363299D01*
X449294D01*
Y363274D01*
X449345D01*
Y363248D01*
X449370D01*
Y363223D01*
X449395D01*
Y363198D01*
X449446D01*
Y363172D01*
X449471D01*
Y363147D01*
X449497D01*
Y363122D01*
X449522D01*
Y363096D01*
X449598D01*
Y363071D01*
X449623D01*
Y363046D01*
X449649D01*
Y363020D01*
X449674D01*
Y362995D01*
X449724D01*
Y362970D01*
X449750D01*
Y362945D01*
X449775D01*
Y362919D01*
X449826D01*
Y362894D01*
X449851D01*
Y362869D01*
X449876D01*
Y362843D01*
X449927D01*
Y362818D01*
X449952D01*
Y362793D01*
X449978D01*
Y362767D01*
X450003D01*
Y362742D01*
X450054D01*
Y362717D01*
X450079D01*
Y362691D01*
X450104D01*
Y362666D01*
X450155D01*
Y362641D01*
X450180D01*
Y362615D01*
Y362590D01*
X450231D01*
Y362565D01*
X450256D01*
Y362540D01*
X450281D01*
Y362514D01*
X450307D01*
Y362489D01*
X450332D01*
Y362464D01*
X450383D01*
Y362438D01*
Y362413D01*
X450408D01*
Y362388D01*
X450458D01*
Y362362D01*
X450484D01*
Y362337D01*
X450509D01*
Y362312D01*
X450534D01*
Y362286D01*
X450560D01*
Y362261D01*
X450585D01*
Y362236D01*
X450610D01*
Y362211D01*
X450636D01*
Y362185D01*
X450661D01*
Y362160D01*
X450712D01*
Y362135D01*
Y362109D01*
X450737D01*
Y362084D01*
X450762D01*
Y362059D01*
X450787D01*
Y362033D01*
X450813D01*
Y362008D01*
X450838D01*
Y361983D01*
X450889D01*
Y361957D01*
Y361932D01*
X450914D01*
Y361907D01*
X450965D01*
Y361881D01*
X450990D01*
Y361856D01*
Y361831D01*
X451015D01*
Y361806D01*
X451041D01*
Y361780D01*
X451066D01*
Y361755D01*
X451091D01*
Y361730D01*
X451117D01*
Y361704D01*
X451142D01*
Y361679D01*
X451167D01*
Y361654D01*
X451193D01*
Y361628D01*
X451218D01*
Y361603D01*
X451243D01*
Y361578D01*
Y361553D01*
X451268D01*
Y361527D01*
X451319D01*
Y361502D01*
Y361476D01*
X451344D01*
Y361451D01*
X451370D01*
Y361426D01*
X451395D01*
Y361401D01*
X451420D01*
Y361375D01*
X451446D01*
Y361350D01*
Y361325D01*
X451496D01*
Y361299D01*
Y361274D01*
X451521D01*
Y361249D01*
X451547D01*
Y361223D01*
X451572D01*
Y361198D01*
X451597D01*
Y361173D01*
Y361147D01*
X451623D01*
Y361122D01*
X451648D01*
Y361097D01*
X451673D01*
Y361072D01*
X451699D01*
Y361046D01*
Y361021D01*
X451724D01*
Y360996D01*
Y360970D01*
X451749D01*
Y360945D01*
X451775D01*
Y360920D01*
Y360894D01*
Y360869D01*
X451749D01*
Y360894D01*
X451724D01*
Y360920D01*
X451699D01*
Y360945D01*
X451673D01*
Y360970D01*
X451648D01*
Y360996D01*
X451623D01*
Y361021D01*
Y361046D01*
X451597D01*
Y361072D01*
X451547D01*
Y361097D01*
X451521D01*
Y361122D01*
Y361147D01*
X451496D01*
Y361173D01*
X451471D01*
Y361198D01*
X451420D01*
Y361223D01*
Y361249D01*
X451395D01*
Y361274D01*
X451370D01*
Y361299D01*
X451344D01*
Y361325D01*
X451319D01*
Y361350D01*
X451268D01*
Y361375D01*
X451243D01*
Y361401D01*
X451218D01*
Y361426D01*
X451193D01*
Y361451D01*
X451167D01*
Y361476D01*
X451142D01*
Y361502D01*
X451117D01*
Y361527D01*
X451091D01*
Y361553D01*
X451041D01*
Y361578D01*
X451015D01*
Y361603D01*
X450990D01*
Y361628D01*
X450965D01*
Y361654D01*
X450939D01*
Y361679D01*
X450914D01*
Y361704D01*
X450889D01*
Y361730D01*
X450863D01*
Y361755D01*
X450838D01*
Y361780D01*
X450813D01*
Y361806D01*
X450787D01*
Y361831D01*
X450737D01*
Y361856D01*
X450712D01*
Y361881D01*
X450686D01*
Y361907D01*
X450661D01*
Y361932D01*
X450636D01*
Y361957D01*
X450610D01*
Y361983D01*
X450534D01*
Y362008D01*
Y362033D01*
X450509D01*
Y362059D01*
X450458D01*
Y362084D01*
X450433D01*
Y362109D01*
X450408D01*
Y362135D01*
X450357D01*
Y362160D01*
X450332D01*
Y362185D01*
X450307D01*
Y362211D01*
X450281D01*
Y362236D01*
X450231D01*
Y362261D01*
X450205D01*
Y362286D01*
X450180D01*
Y362312D01*
X450129D01*
Y362337D01*
X450104D01*
Y362362D01*
X450079D01*
Y362388D01*
X450028D01*
Y362413D01*
X449978D01*
Y362438D01*
X449952D01*
Y362464D01*
X449927D01*
Y362489D01*
X449876D01*
Y362514D01*
X449851D01*
Y362540D01*
X449800D01*
Y362565D01*
X449750D01*
Y362590D01*
X449724D01*
Y362615D01*
X449699D01*
Y362641D01*
X449649D01*
Y362666D01*
X449623D01*
Y362691D01*
X449547D01*
Y362717D01*
X449522D01*
Y362742D01*
X449471D01*
Y362767D01*
X449446D01*
Y362793D01*
X449395D01*
Y362818D01*
X449320D01*
Y362843D01*
X449294D01*
Y362869D01*
X449244D01*
Y362894D01*
X449168D01*
Y362919D01*
X449142D01*
Y362945D01*
X449092D01*
Y362970D01*
X449041D01*
Y362995D01*
X449016D01*
Y363020D01*
X448940D01*
Y363046D01*
X448889D01*
Y363071D01*
X448839D01*
Y363096D01*
X448763D01*
Y363122D01*
X448712D01*
Y363147D01*
X448636D01*
Y363172D01*
X448560D01*
Y363198D01*
X448535D01*
Y363223D01*
X448408D01*
Y363248D01*
X448358D01*
Y363274D01*
X448332D01*
Y363299D01*
X448206D01*
Y363324D01*
X448130D01*
Y363350D01*
X448054D01*
Y363375D01*
X447927D01*
Y363400D01*
X447852D01*
Y363425D01*
X447700D01*
Y363451D01*
X447497D01*
Y363476D01*
X447345D01*
Y363501D01*
X446383D01*
Y363527D01*
X446333D01*
Y363552D01*
X446308D01*
Y363577D01*
Y363603D01*
X446257D01*
Y363628D01*
Y363653D01*
X446232D01*
Y363679D01*
X446181D01*
Y363704D01*
X446156D01*
Y363729D01*
X446130D01*
Y363755D01*
X446105D01*
Y363780D01*
X446080D01*
Y363805D01*
X446029D01*
Y363830D01*
Y363856D01*
X445978D01*
Y363881D01*
X445953D01*
Y363906D01*
X445928D01*
Y363932D01*
X445903D01*
Y363957D01*
X445877D01*
Y363982D01*
X445827D01*
Y364008D01*
Y364033D01*
X445776D01*
Y364058D01*
X445751D01*
Y364084D01*
X445725D01*
Y364109D01*
X445700D01*
Y364134D01*
X445649D01*
Y364159D01*
X445624D01*
Y364185D01*
X445574D01*
Y364210D01*
X445548D01*
Y364235D01*
X445523D01*
Y364261D01*
X445472D01*
Y364286D01*
X445422D01*
Y364311D01*
X445396D01*
Y364337D01*
X445371D01*
Y364362D01*
X445320D01*
Y364387D01*
X445295D01*
Y364413D01*
X445270D01*
Y364438D01*
X445194D01*
Y364463D01*
X445168D01*
Y364489D01*
X445143D01*
Y364514D01*
X445093D01*
Y364539D01*
X445042D01*
Y364564D01*
X445017D01*
Y364590D01*
X444966D01*
Y364615D01*
X444915D01*
Y364640D01*
X444865D01*
Y364666D01*
X444814D01*
Y364691D01*
X444764D01*
Y364716D01*
X444713D01*
Y364742D01*
X444662D01*
Y364767D01*
X444586D01*
Y364792D01*
X444561D01*
Y364818D01*
X444536D01*
Y364843D01*
X444485D01*
Y364868D01*
Y364894D01*
Y364919D01*
X445194D01*
Y364894D01*
D02*
G37*
G36*
X441701Y363906D02*
X441752D01*
Y363881D01*
X441853D01*
Y363856D01*
X441954D01*
Y363830D01*
X441979D01*
Y363805D01*
X442081D01*
Y363780D01*
X442131D01*
Y363755D01*
X442233D01*
Y363729D01*
X442283D01*
Y363704D01*
X442334D01*
Y363679D01*
X442410D01*
Y363653D01*
X442460D01*
Y363628D01*
X442511D01*
Y363603D01*
X442587D01*
Y363577D01*
X442663D01*
Y363552D01*
X442688D01*
Y363527D01*
X442764D01*
Y363501D01*
X442815D01*
Y363476D01*
X442840D01*
Y363451D01*
X442891D01*
Y363425D01*
X442967D01*
Y363400D01*
X442992D01*
Y363375D01*
X443068D01*
Y363350D01*
X443093D01*
Y363324D01*
X443144D01*
Y363299D01*
X443194D01*
Y363274D01*
X443220D01*
Y363248D01*
X443270D01*
Y363223D01*
X443321D01*
Y363198D01*
X443371D01*
Y363172D01*
X443422D01*
Y363147D01*
X443447D01*
Y363122D01*
X443498D01*
Y363096D01*
X443549D01*
Y363071D01*
X443574D01*
Y363046D01*
X443625D01*
Y363020D01*
X443650D01*
Y362995D01*
X443701D01*
Y362970D01*
X443751D01*
Y362945D01*
X443777D01*
Y362919D01*
X443802D01*
Y362894D01*
X443878D01*
Y362869D01*
X443903D01*
Y362843D01*
X443928D01*
Y362818D01*
X443979D01*
Y362793D01*
X444030D01*
Y362767D01*
X444055D01*
Y362742D01*
X444080D01*
Y362717D01*
X444131D01*
Y362691D01*
X444156D01*
Y362666D01*
X444207D01*
Y362641D01*
X444232D01*
Y362615D01*
X444257D01*
Y362590D01*
X444308D01*
Y362565D01*
X444333D01*
Y362540D01*
X444384D01*
Y362514D01*
X444409D01*
Y362489D01*
Y362464D01*
X444460D01*
Y362438D01*
X444485D01*
Y362413D01*
X444511D01*
Y362388D01*
X444561D01*
Y362362D01*
Y362337D01*
X444612D01*
Y362312D01*
X444662D01*
Y362286D01*
Y362261D01*
X444713D01*
Y362236D01*
X444738D01*
Y362211D01*
X444764D01*
Y362185D01*
X444789D01*
Y362160D01*
X444839D01*
Y362135D01*
X444865D01*
Y362109D01*
X444890D01*
Y362084D01*
X444915D01*
Y362059D01*
X444941D01*
Y362033D01*
X444966D01*
Y362008D01*
X444991D01*
Y361983D01*
X445042D01*
Y361957D01*
X445067D01*
Y361932D01*
X445093D01*
Y361907D01*
X445118D01*
Y361881D01*
X445143D01*
Y361856D01*
X445168D01*
Y361831D01*
X445219D01*
Y361806D01*
Y361780D01*
X445245D01*
Y361755D01*
X445295D01*
Y361730D01*
X445320D01*
Y361704D01*
X445346D01*
Y361679D01*
X445371D01*
Y361654D01*
X445396D01*
Y361628D01*
X445422D01*
Y361603D01*
X445447D01*
Y361578D01*
X445472D01*
Y361553D01*
Y361527D01*
X445523D01*
Y361502D01*
X445548D01*
Y361476D01*
X445574D01*
Y361451D01*
Y361426D01*
X445624D01*
Y361401D01*
X445649D01*
Y361375D01*
X445675D01*
Y361350D01*
X445700D01*
Y361325D01*
X445725D01*
Y361299D01*
X445751D01*
Y361274D01*
X445776D01*
Y361249D01*
X445801D01*
Y361223D01*
X445827D01*
Y361198D01*
X445852D01*
Y361173D01*
X445877D01*
Y361147D01*
X445903D01*
Y361122D01*
X445928D01*
Y361097D01*
X445953D01*
Y361072D01*
Y361046D01*
X446004D01*
Y361021D01*
X446029D01*
Y360996D01*
Y360970D01*
X446054D01*
Y360945D01*
X446080D01*
Y360920D01*
X446105D01*
Y360894D01*
Y360869D01*
X446130D01*
Y360844D01*
X446156D01*
Y360819D01*
X446181D01*
Y360793D01*
Y360768D01*
X446206D01*
Y360742D01*
Y360717D01*
X446257D01*
Y360692D01*
Y360667D01*
Y360641D01*
X446282D01*
Y360616D01*
X446308D01*
Y360591D01*
Y360565D01*
X446333D01*
Y360540D01*
Y360515D01*
X446358D01*
Y360489D01*
Y360464D01*
X446383D01*
Y360439D01*
Y360414D01*
Y360388D01*
X446358D01*
Y360363D01*
X446333D01*
Y360388D01*
X446282D01*
Y360414D01*
X446257D01*
Y360439D01*
X446232D01*
Y360464D01*
X446181D01*
Y360489D01*
X446156D01*
Y360515D01*
X446130D01*
Y360540D01*
X446105D01*
Y360565D01*
X446054D01*
Y360591D01*
X446029D01*
Y360616D01*
X446004D01*
Y360641D01*
X445978D01*
Y360667D01*
X445953D01*
Y360692D01*
X445928D01*
Y360717D01*
X445903D01*
Y360742D01*
X445877D01*
Y360768D01*
X445852D01*
Y360793D01*
X445827D01*
Y360819D01*
X445801D01*
Y360844D01*
X445751D01*
Y360869D01*
X445725D01*
Y360894D01*
X445700D01*
Y360920D01*
X445675D01*
Y360945D01*
X445649D01*
Y360970D01*
X445624D01*
Y360996D01*
X445599D01*
Y361021D01*
X445574D01*
Y361046D01*
X445548D01*
Y361072D01*
X445523D01*
Y361097D01*
X445498D01*
Y361122D01*
X445472D01*
Y361147D01*
X445422D01*
Y361173D01*
Y361198D01*
X445396D01*
Y361223D01*
X445371D01*
Y361249D01*
X445346D01*
Y361274D01*
X445320D01*
Y361299D01*
X445295D01*
Y361325D01*
X445270D01*
Y361350D01*
X445219D01*
Y361375D01*
X445194D01*
Y361401D01*
X445143D01*
Y361426D01*
X445118D01*
Y361451D01*
X445093D01*
Y361476D01*
X445067D01*
Y361502D01*
X445017D01*
Y361527D01*
X444991D01*
Y361553D01*
X444966D01*
Y361578D01*
X444941D01*
Y361603D01*
X444890D01*
Y361628D01*
X444865D01*
Y361654D01*
X444814D01*
Y361679D01*
X444789D01*
Y361704D01*
X444738D01*
Y361730D01*
X444713D01*
Y361755D01*
X444637D01*
Y361780D01*
X444612D01*
Y361806D01*
X444586D01*
Y361831D01*
X444561D01*
Y361856D01*
X444485D01*
Y361881D01*
X444460D01*
Y361907D01*
X444409D01*
Y361932D01*
X444384D01*
Y361957D01*
X444333D01*
Y361983D01*
X444308D01*
Y362008D01*
X444283D01*
Y361983D01*
X444257D01*
Y362008D01*
X444232D01*
Y362033D01*
X444207D01*
Y362059D01*
X444131D01*
Y362084D01*
X444055D01*
Y362109D01*
X444030D01*
Y362135D01*
X443979D01*
Y362160D01*
X443928D01*
Y362185D01*
X443878D01*
Y362211D01*
X443827D01*
Y362236D01*
X443751D01*
Y362261D01*
X443701D01*
Y362286D01*
X443650D01*
Y362312D01*
X443574D01*
Y362337D01*
X443523D01*
Y362362D01*
X443447D01*
Y362388D01*
X443371D01*
Y362413D01*
X443346D01*
Y362438D01*
X443245D01*
Y362464D01*
X443144D01*
Y362489D01*
X443068D01*
Y362514D01*
X442992D01*
Y362540D01*
X442891D01*
Y362565D01*
X442840D01*
Y362590D01*
X442688D01*
Y362615D01*
X442587D01*
Y362641D01*
X442536D01*
Y362666D01*
X442384D01*
Y362691D01*
X442283D01*
Y362717D01*
X442182D01*
Y362742D01*
X442005D01*
Y362767D01*
X441929D01*
Y362793D01*
X441752D01*
Y362818D01*
X441397D01*
Y362843D01*
X441347D01*
Y362869D01*
X441271D01*
Y362894D01*
X441245D01*
Y362919D01*
Y362945D01*
Y362970D01*
Y362995D01*
X441271D01*
Y363020D01*
Y363046D01*
X441296D01*
Y363071D01*
Y363096D01*
X441321D01*
Y363122D01*
X441347D01*
Y363147D01*
X441372D01*
Y363172D01*
Y363198D01*
X441397D01*
Y363223D01*
X441423D01*
Y363248D01*
Y363274D01*
X441448D01*
Y363299D01*
X441473D01*
Y363324D01*
X441499D01*
Y363350D01*
Y363375D01*
Y363400D01*
Y363425D01*
X441524D01*
Y363451D01*
Y363476D01*
X441499D01*
Y363501D01*
X441524D01*
Y363527D01*
Y363552D01*
X441549D01*
Y363577D01*
Y363603D01*
X441524D01*
Y363628D01*
Y363653D01*
X441549D01*
Y363679D01*
Y363704D01*
Y363729D01*
Y363755D01*
Y363780D01*
Y363805D01*
X441574D01*
Y363830D01*
Y363856D01*
X441600D01*
Y363881D01*
Y363906D01*
X441625D01*
Y363932D01*
X441701D01*
Y363906D01*
D02*
G37*
G36*
X446586Y363172D02*
X446940D01*
Y363147D01*
X447067D01*
Y363122D01*
X447118D01*
Y363147D01*
X447143D01*
Y363122D01*
X447244D01*
Y363096D01*
X447371D01*
Y363071D01*
X447446D01*
Y363046D01*
X447573D01*
Y363020D01*
X447649D01*
Y362995D01*
X447700D01*
Y362970D01*
X447801D01*
Y362945D01*
X447902D01*
Y362919D01*
X447927D01*
Y362894D01*
X448003D01*
Y362869D01*
X448079D01*
Y362843D01*
X448130D01*
Y362818D01*
X448180D01*
Y362793D01*
X448231D01*
Y362767D01*
X448282D01*
Y362742D01*
X448332D01*
Y362717D01*
X448383D01*
Y362691D01*
X448408D01*
Y362666D01*
X448484D01*
Y362641D01*
X448510D01*
Y362615D01*
X448560D01*
Y362590D01*
X448611D01*
Y362565D01*
X448636D01*
Y362540D01*
X448687D01*
Y362514D01*
X448737D01*
Y362489D01*
X448763D01*
Y362464D01*
X448813D01*
Y362438D01*
X448839D01*
Y362413D01*
X448864D01*
Y362388D01*
X448914D01*
Y362362D01*
X448940D01*
Y362337D01*
X448965D01*
Y362312D01*
X449016D01*
Y362286D01*
X449041D01*
Y362261D01*
X449092D01*
Y362236D01*
X449117D01*
Y362211D01*
X449142D01*
Y362185D01*
X449168D01*
Y362160D01*
X449218D01*
Y362135D01*
X449244D01*
Y362109D01*
X449269D01*
Y362084D01*
X449294D01*
Y362059D01*
X449320D01*
Y362033D01*
X449370D01*
Y362008D01*
X449395D01*
Y361983D01*
X449421D01*
Y361957D01*
X449446D01*
Y361932D01*
X449471D01*
Y361907D01*
X449522D01*
Y361881D01*
X449547D01*
Y361856D01*
X449573D01*
Y361831D01*
X449598D01*
Y361806D01*
X449623D01*
Y361780D01*
Y361755D01*
X449674D01*
Y361730D01*
X449699D01*
Y361704D01*
Y361679D01*
X449724D01*
Y361654D01*
X449750D01*
Y361628D01*
X449775D01*
Y361603D01*
X449800D01*
Y361578D01*
X449826D01*
Y361553D01*
X449851D01*
Y361527D01*
X449876D01*
Y361502D01*
X449902D01*
Y361476D01*
X449927D01*
Y361451D01*
Y361426D01*
X449952D01*
Y361401D01*
X449978D01*
Y361375D01*
X450003D01*
Y361350D01*
X450028D01*
Y361325D01*
X450054D01*
Y361299D01*
X450079D01*
Y361274D01*
X450104D01*
Y361249D01*
Y361223D01*
X450129D01*
Y361198D01*
X450155D01*
Y361173D01*
X450180D01*
Y361147D01*
X450205D01*
Y361122D01*
Y361097D01*
X450231D01*
Y361072D01*
X450256D01*
Y361046D01*
X450281D01*
Y361021D01*
X450307D01*
Y360996D01*
Y360970D01*
X450332D01*
Y360945D01*
X450357D01*
Y360920D01*
X450383D01*
Y360894D01*
Y360869D01*
X450408D01*
Y360844D01*
X450433D01*
Y360819D01*
Y360793D01*
X450458D01*
Y360768D01*
X450484D01*
Y360742D01*
Y360717D01*
X450509D01*
Y360692D01*
X450534D01*
Y360667D01*
Y360641D01*
X450560D01*
Y360616D01*
X450585D01*
Y360591D01*
X450610D01*
Y360565D01*
Y360540D01*
X450636D01*
Y360515D01*
X450661D01*
Y360489D01*
X450686D01*
Y360464D01*
X450712D01*
Y360439D01*
Y360414D01*
X450737D01*
Y360388D01*
X450762D01*
Y360363D01*
Y360338D01*
X450787D01*
Y360312D01*
Y360287D01*
Y360262D01*
Y360236D01*
X450712D01*
Y360262D01*
X450686D01*
Y360287D01*
X450661D01*
Y360312D01*
X450636D01*
Y360338D01*
X450610D01*
Y360363D01*
Y360388D01*
X450585D01*
Y360414D01*
X450560D01*
Y360439D01*
Y360464D01*
X450534D01*
Y360489D01*
X450509D01*
Y360515D01*
Y360540D01*
X450484D01*
Y360565D01*
X450458D01*
Y360591D01*
X450433D01*
Y360616D01*
X450408D01*
Y360641D01*
X450383D01*
Y360667D01*
Y360692D01*
X450357D01*
Y360717D01*
X450332D01*
Y360742D01*
X450307D01*
Y360768D01*
X450281D01*
Y360793D01*
X450256D01*
Y360819D01*
Y360844D01*
X450205D01*
Y360869D01*
X450180D01*
Y360894D01*
Y360920D01*
X450155D01*
Y360945D01*
X450104D01*
Y360970D01*
Y360996D01*
X450079D01*
Y361021D01*
X450028D01*
Y361046D01*
X450003D01*
Y361072D01*
X449978D01*
Y361097D01*
X449952D01*
Y361122D01*
X449927D01*
Y361147D01*
X449902D01*
Y361173D01*
X449851D01*
Y361198D01*
Y361223D01*
X449826D01*
Y361249D01*
X449775D01*
Y361274D01*
X449750D01*
Y361299D01*
X449699D01*
Y361325D01*
X449674D01*
Y361350D01*
X449623D01*
Y361375D01*
X449598D01*
Y361401D01*
X449573D01*
Y361426D01*
X449522D01*
Y361451D01*
X449497D01*
Y361476D01*
X449471D01*
Y361502D01*
X449421D01*
Y361527D01*
X449370D01*
Y361553D01*
X449345D01*
Y361578D01*
X449320D01*
Y361603D01*
X449269D01*
Y361628D01*
X449218D01*
Y361654D01*
X449168D01*
Y361679D01*
X449117D01*
Y361704D01*
X449066D01*
Y361730D01*
X449041D01*
Y361755D01*
X448990D01*
Y361780D01*
X448940D01*
Y361806D01*
X448889D01*
Y361831D01*
X448839D01*
Y361856D01*
X448788D01*
Y361881D01*
X448712D01*
Y361907D01*
X448636D01*
Y361932D01*
X448586D01*
Y361957D01*
X448510D01*
Y361983D01*
X448434D01*
Y362008D01*
X448383D01*
Y362033D01*
X448307D01*
Y362059D01*
X448231D01*
Y362084D01*
X448206D01*
Y362059D01*
X448180D01*
Y362084D01*
X448105D01*
Y362109D01*
X447978D01*
Y362135D01*
X447877D01*
Y362160D01*
X447750D01*
Y362185D01*
X447674D01*
Y362211D01*
X447624D01*
Y362236D01*
X447522D01*
Y362261D01*
X447472D01*
Y362286D01*
X447421D01*
Y362312D01*
X447371D01*
Y362337D01*
X447295D01*
Y362362D01*
X447269D01*
Y362388D01*
X447219D01*
Y362413D01*
X447168D01*
Y362438D01*
X447143D01*
Y362464D01*
X447067D01*
Y362489D01*
X447042D01*
Y362514D01*
X446991D01*
Y362540D01*
X446940D01*
Y362565D01*
X446915D01*
Y362590D01*
X446839D01*
Y362615D01*
X446814D01*
Y362641D01*
X446788D01*
Y362666D01*
X446712D01*
Y362691D01*
X446687D01*
Y362717D01*
X446662D01*
Y362742D01*
X446611D01*
Y362767D01*
X446586D01*
Y362793D01*
X446535D01*
Y362818D01*
X446510D01*
Y362843D01*
X446459D01*
Y362869D01*
X446409D01*
Y362894D01*
X446383D01*
Y362919D01*
X446333D01*
Y362945D01*
X446308D01*
Y362970D01*
X446232D01*
Y362995D01*
X446181D01*
Y363020D01*
X446156D01*
Y363046D01*
X446105D01*
Y363071D01*
Y363096D01*
Y363122D01*
Y363147D01*
X446181D01*
Y363172D01*
X446282D01*
Y363198D01*
X446586D01*
Y363172D01*
D02*
G37*
D34*
X453875Y361428D02*
X453830Y362428D01*
X453696Y363420D01*
X453473Y364396D01*
X453164Y365348D01*
X452770Y366268D01*
X452296Y367150D01*
X451744Y367985D01*
X451120Y368768D01*
X450428Y369492D01*
X449675Y370150D01*
X448865Y370739D01*
X448005Y371252D01*
X447103Y371687D01*
X446166Y372038D01*
X445201Y372305D01*
X444216Y372483D01*
X443219Y372573D01*
X442218D01*
X441221Y372483D01*
X440236Y372305D01*
X439271Y372038D01*
X438334Y371687D01*
X437432Y371252D01*
X436572Y370739D01*
X435763Y370150D01*
X435009Y369492D01*
X434317Y368768D01*
X433693Y367985D01*
X433141Y367150D01*
X432667Y366268D01*
X432273Y365348D01*
X431964Y364396D01*
X431741Y363420D01*
X431607Y362428D01*
X431562Y361428D01*
X431607Y360428D01*
X431741Y359436D01*
X431964Y358460D01*
X432273Y357508D01*
X432667Y356587D01*
X433141Y355706D01*
X433693Y354870D01*
X434317Y354087D01*
X435009Y353364D01*
X435763Y352705D01*
X436572Y352117D01*
X437432Y351603D01*
X438334Y351169D01*
X439271Y350817D01*
X440236Y350551D01*
X441221Y350372D01*
X442218Y350282D01*
X443219D01*
X444216Y350372D01*
X445201Y350551D01*
X446166Y350817D01*
X447103Y351169D01*
X448005Y351603D01*
X448865Y352117D01*
X449675Y352705D01*
X450428Y353364D01*
X451120Y354087D01*
X451744Y354870D01*
X452296Y355705D01*
X452770Y356587D01*
X453164Y357508D01*
X453473Y358460D01*
X453696Y359436D01*
X453830Y360428D01*
X453875Y361428D01*
D35*
X290803Y231449D02*
D03*
Y251134D02*
D03*
X260292D02*
D03*
Y231449D02*
D03*
D36*
X320866Y261811D02*
D03*
X332677D02*
D03*
D37*
X551181Y385827D02*
D03*
Y397638D02*
D03*
X519459Y345003D02*
D03*
Y356814D02*
D03*
D38*
X194347Y371410D02*
D03*
Y410386D02*
D03*
D39*
X286756Y380606D02*
D03*
D40*
X277782Y287050D02*
D03*
Y282050D02*
D03*
Y277050D02*
D03*
Y272050D02*
D03*
X299239Y287050D02*
D03*
Y282050D02*
D03*
Y277050D02*
D03*
Y272050D02*
D03*
D41*
X288511Y279550D02*
D03*
D42*
X540803Y377217D02*
D03*
Y388831D02*
D03*
X503402Y298476D02*
D03*
Y310090D02*
D03*
X438441Y335681D02*
D03*
Y324067D02*
D03*
X263244Y273870D02*
D03*
Y285484D02*
D03*
D43*
X515213Y274165D02*
D03*
Y291094D02*
D03*
X440410Y409205D02*
D03*
Y392276D02*
D03*
Y272787D02*
D03*
Y289717D02*
D03*
D44*
X388993Y234677D02*
D03*
Y227197D02*
D03*
X397654Y230937D02*
D03*
D45*
X322890Y229480D02*
D03*
X330173D02*
D03*
X350055D02*
D03*
X342772D02*
D03*
X411040Y251606D02*
D03*
X403756D02*
D03*
X411040Y242748D02*
D03*
X403756D02*
D03*
D46*
X332677Y253642D02*
D03*
Y246358D02*
D03*
X324803Y253642D02*
D03*
Y246358D02*
D03*
X395134Y274461D02*
D03*
Y267177D02*
D03*
X410882Y274461D02*
D03*
Y267177D02*
D03*
X403008Y274461D02*
D03*
Y267177D02*
D03*
X245528Y275740D02*
D03*
Y283024D02*
D03*
X253402D02*
D03*
Y275740D02*
D03*
D47*
X364622Y229480D02*
D03*
X357733D02*
D03*
X395784Y251606D02*
D03*
X388894D02*
D03*
D48*
X343953Y248102D02*
D03*
Y258102D02*
D03*
X379386D02*
D03*
Y248102D02*
D03*
D49*
X475843Y272590D02*
D03*
Y300543D02*
D03*
Y379087D02*
D03*
Y407039D02*
D03*
X515213Y378890D02*
D03*
Y406843D02*
D03*
X475843Y327906D02*
D03*
Y355858D02*
D03*
D50*
X540803Y399264D02*
D03*
Y410090D02*
D03*
X448284Y324461D02*
D03*
Y335287D02*
D03*
D51*
X281453Y334795D02*
D03*
X292280D02*
D03*
X292280Y344638D02*
D03*
X281453D02*
D03*
D52*
X241591Y408614D02*
D03*
Y346606D02*
D03*
X251433Y314126D02*
D03*
X180567Y341685D02*
D03*
D53*
X241591Y388929D02*
D03*
Y366291D02*
D03*
D54*
X430961Y231291D02*
D03*
X440961D02*
D03*
X450961D02*
D03*
X460961D02*
D03*
X470961D02*
D03*
X480961D02*
D03*
X430961Y241291D02*
D03*
X440961D02*
D03*
X450961D02*
D03*
X460961D02*
D03*
X470961D02*
D03*
X271008Y393599D02*
D03*
Y385724D02*
D03*
Y377851D02*
D03*
Y369976D02*
D03*
X278882Y393599D02*
D03*
Y385724D02*
D03*
Y377851D02*
D03*
Y369976D02*
D03*
X286756Y393599D02*
D03*
Y385724D02*
D03*
Y377851D02*
D03*
Y369976D02*
D03*
X294630Y393599D02*
D03*
Y385724D02*
D03*
Y377851D02*
D03*
Y369976D02*
D03*
X302504Y393599D02*
D03*
Y385724D02*
D03*
Y377851D02*
D03*
Y369976D02*
D03*
X220567Y241291D02*
D03*
X210567D02*
D03*
X200567D02*
D03*
X190567D02*
D03*
X180567D02*
D03*
X230567Y231291D02*
D03*
X220567D02*
D03*
X210567D02*
D03*
X200567D02*
D03*
X190567D02*
D03*
X180567D02*
D03*
X540646Y241291D02*
D03*
X530646D02*
D03*
X520646D02*
D03*
X510646D02*
D03*
X500646D02*
D03*
X550646Y231291D02*
D03*
X540646D02*
D03*
X530646D02*
D03*
X520646D02*
D03*
X510646D02*
D03*
X500646D02*
D03*
D55*
X480961Y241291D02*
D03*
X230567D02*
D03*
X550646D02*
D03*
D56*
X316756Y407957D02*
D03*
D57*
Y392957D02*
D03*
Y377957D02*
D03*
Y347957D02*
D03*
Y332957D02*
D03*
Y317957D02*
D03*
X416756Y407957D02*
D03*
Y392957D02*
D03*
Y377957D02*
D03*
Y347957D02*
D03*
Y332957D02*
D03*
Y317957D02*
D03*
D58*
X198835Y283606D02*
D03*
D59*
X178756D02*
D03*
X198835Y253606D02*
D03*
X178756D02*
D03*
D60*
X284574Y283487D02*
D03*
X288511D02*
D03*
Y279550D02*
D03*
Y275613D02*
D03*
X284574D02*
D03*
X292448D02*
D03*
Y279550D02*
D03*
X284574D02*
D03*
X520990Y305866D02*
D03*
X515213Y272787D02*
D03*
Y290504D02*
D03*
X517181Y305866D02*
D03*
X513410D02*
D03*
X515213Y296409D02*
D03*
Y276724D02*
D03*
D61*
X231748Y280662D02*
D03*
D62*
Y314126D02*
D03*
X200252Y341685D02*
D03*
D63*
X460630Y299213D02*
D03*
X456693D02*
D03*
X452756D02*
D03*
X448819D02*
D03*
X465229Y293307D02*
D03*
X454724Y275590D02*
D03*
Y279528D02*
D03*
Y283465D02*
D03*
Y287402D02*
D03*
X386073Y388159D02*
D03*
X475579Y297512D02*
D03*
Y301849D02*
D03*
Y306264D02*
D03*
X343953Y258102D02*
D03*
X295528Y313831D02*
D03*
X297756Y345106D02*
D03*
X342875Y229476D02*
D03*
X379386Y248102D02*
D03*
D64*
X176426Y407480D02*
D03*
X332677Y261811D02*
D03*
X332677Y253642D02*
D03*
X551181Y397232D02*
D03*
X519685Y356409D02*
D03*
X350051Y229476D02*
D03*
X540803Y399264D02*
D03*
Y388831D02*
D03*
X263385Y285217D02*
D03*
X277071Y344976D02*
D03*
X288756Y295606D02*
D03*
D65*
X515213Y379087D02*
D03*
X475843D02*
D03*
M02*
