M48
;Layer_Color=9474304
;FILE_FORMAT=2:4
INCH,TZ
;TYPE=PLATED
T1F00S00C0.0118
T2F00S00C0.0157
T3F00S00C0.0197
T4F00S00C0.0276
T5F00S00C0.0280
T6F00S00C0.0300
T7F00S00C0.0354
T8F00S00C0.0394
%
T01
X47717Y23465
Y24882
X48189
X47717Y25354
X51024
X51496
Y24882
Y24409
Y23937
Y23465
X51024Y24882
Y29134
X50551
Y28661
X47558Y29751
Y30185
Y30626
X46063Y29921
X45669
X45276
X44882
X45472Y28740
Y28346
Y27953
Y27559
X46523Y29331
X43465Y26299
Y25827
Y25354
Y24882
X42992
Y25354
Y25827
Y26299
Y26772
X42520
Y27244
X42047
Y27717
X41575
Y28189
X41102
Y28661
X40630
Y29134
X40157
Y28661
Y28189
X40630
X41575Y27244
Y26772
X42047
Y26299
X42520
Y25827
Y25354
Y24882
X42047
Y25354
Y25827
X41575
Y26299
Y25354
Y24882
Y24409
X42047
Y23937
Y23465
Y22992
Y22520
X41575
Y22992
Y23465
Y23937
X41102Y22992
Y22520
X40630
X40157Y23465
X39685
Y23937
X37939Y24810
X38268Y22520
X34288Y22948
X34395Y25810
X31299Y25984
Y26575
Y27165
X31890Y27756
Y28346
Y28937
X32480
Y29528
Y30118
Y30709
X31890Y30118
Y29528
X31299Y25394
Y24803
Y24213
X40630Y25827
X30709Y25984
Y26575
X30118
Y25984
X30709Y25394
X30118Y24803
X28346
Y25394
X27756
Y24803
X27165
Y25394
X26575
Y25984
Y26575
X27756
X28346
X28937
X29528
X28937Y27165
X28346
Y28937
X28937
X25984Y30118
Y30709
X25394
Y30118
Y29528
X24803
Y30118
Y30709
X24213Y30118
Y29528
Y28937
X24803
X23622
Y29528
X23031
Y28937
X22441
Y29528
X21850
Y28937
Y28346
X22441
Y27756
Y27165
X23031
X23622
X24803Y26575
X25394
Y25984
Y25394
Y24803
X26575
X21850Y27165
Y27756
X21260
Y28346
Y28937
Y29528
Y27165
X18898
X18307
Y27756
X17717
Y27165
Y28937
X18307
Y29528
Y30118
Y30709
X17717
Y30118
Y29528
Y31299
X18307
Y31890
Y32480
Y33071
Y33661
X17717
Y33071
Y32480
Y31890
Y34843
X18307
X23031
X23622
X24803
X25394
Y34252
Y33661
Y33071
Y32480
Y31890
X24803
Y32480
Y33071
Y33661
Y34252
X24213
X25984Y31299
X29553Y31383
X29776Y34511
X32480Y31299
X38607Y38816
X48569Y33578
Y33184
Y32791
X48962
X49356
Y33184
Y33578
X48962
Y33184
Y32397
X49356
X49750
Y32791
X50143
X50537
Y33184
Y33578
X50143
Y33184
X49750
Y33578
X50143Y32397
X50537
X48569
T02
X51521Y27279
Y27672
Y29050
Y29641
X51341Y30587
X51718
X52099
X28851Y28349
X28457
Y27955
X28851
Y27561
X28457
X29245
Y27955
T03
X35005Y22948
X33268Y25364
X33268Y26181
X29071Y23145
X28490Y23145
X27899Y23145
X27309Y23145
X26620Y23145
X26029
X26338Y28522
X28876Y29561
X27707Y34498
X17643Y40748
X54080Y39926
Y38883
X55118Y39723
X51968Y35641
T04
X18057Y34169
X20025
X24159Y34661
Y36629
Y38893
Y40861
X23175Y31413
X25143
T05
X47584Y37909
X51521
T06
X27101Y36998
Y37785
X27888
Y36998
X28676
Y37785
Y38572
X27888
X27101
Y39360
X27888
X28676
X29463
X30250
Y38572
X29463
Y37785
Y36998
X30250
Y37785
T07
X47096Y23129
X48096
Y24129
X47096
X50065
X51065
X52065
X53065
X54065
X55065
Y23129
X54065
X53065
X52065
X51065
X50065
X46096
X45096
X44096
X43096
Y24129
X44096
X45096
X46096
X23057
X22057
X21057
X20057
X19057
X18057
Y23129
X19057
X20057
X21057
X22057
X23057
X23175Y28066
X19884Y28361
X17876
Y25361
X19884
T08
X31676Y31796
Y33296
Y34796
Y37796
Y39296
Y40796
X41676
Y39296
Y37796
Y34796
Y33296
Y31796
M30
