G04*
G04 #@! TF.GenerationSoftware,Altium Limited,Altium Designer,20.2.6 (244)*
G04*
G04 Layer_Color=255*
%FSLAX24Y24*%
%MOIN*%
G70*
G04*
G04 #@! TF.SameCoordinates,31C55898-3F01-4FA6-8909-C42763FC29AA*
G04*
G04*
G04 #@! TF.FilePolarity,Positive*
G04*
G01*
G75*
%ADD15R,0.0728X0.0492*%
%ADD16R,0.0787X0.1575*%
%ADD17R,0.0689X0.0492*%
%ADD18R,0.0630X0.1102*%
%ADD19O,0.0571X0.0236*%
G04:AMPARAMS|DCode=20|XSize=118.1mil|YSize=118.1mil|CornerRadius=29.5mil|HoleSize=0mil|Usage=FLASHONLY|Rotation=0.000|XOffset=0mil|YOffset=0mil|HoleType=Round|Shape=RoundedRectangle|*
%AMROUNDEDRECTD20*
21,1,0.1181,0.0591,0,0,0.0*
21,1,0.0591,0.1181,0,0,0.0*
1,1,0.0591,0.0295,-0.0295*
1,1,0.0591,-0.0295,-0.0295*
1,1,0.0591,-0.0295,0.0295*
1,1,0.0591,0.0295,0.0295*
%
%ADD20ROUNDEDRECTD20*%
%ADD21R,0.4016X0.3583*%
%ADD22R,0.0492X0.0689*%
%ADD23R,0.0531X0.0413*%
%ADD24R,0.0413X0.0531*%
%ADD25R,0.0630X0.1260*%
%ADD26R,0.2126X0.1142*%
%ADD27R,0.0512X0.0591*%
G04:AMPARAMS|DCode=28|XSize=21.7mil|YSize=31.5mil|CornerRadius=1.9mil|HoleSize=0mil|Usage=FLASHONLY|Rotation=90.000|XOffset=0mil|YOffset=0mil|HoleType=Round|Shape=RoundedRectangle|*
%AMROUNDEDRECTD28*
21,1,0.0217,0.0276,0,0,90.0*
21,1,0.0178,0.0315,0,0,90.0*
1,1,0.0039,0.0138,0.0089*
1,1,0.0039,0.0138,-0.0089*
1,1,0.0039,-0.0138,-0.0089*
1,1,0.0039,-0.0138,0.0089*
%
%ADD28ROUNDEDRECTD28*%
%ADD29R,0.0492X0.0591*%
%ADD68C,0.0315*%
%ADD69C,0.0600*%
%ADD70R,0.0787X0.0787*%
G04:AMPARAMS|DCode=71|XSize=78.7mil|YSize=78.7mil|CornerRadius=19.7mil|HoleSize=0mil|Usage=FLASHONLY|Rotation=90.000|XOffset=0mil|YOffset=0mil|HoleType=Round|Shape=RoundedRectangle|*
%AMROUNDEDRECTD71*
21,1,0.0787,0.0394,0,0,90.0*
21,1,0.0394,0.0787,0,0,90.0*
1,1,0.0394,0.0197,0.0197*
1,1,0.0394,0.0197,-0.0197*
1,1,0.0394,-0.0197,-0.0197*
1,1,0.0394,-0.0197,0.0197*
%
%ADD71ROUNDEDRECTD71*%
%ADD72C,0.0472*%
G04:AMPARAMS|DCode=73|XSize=47.2mil|YSize=47.2mil|CornerRadius=11.8mil|HoleSize=0mil|Usage=FLASHONLY|Rotation=180.000|XOffset=0mil|YOffset=0mil|HoleType=Round|Shape=RoundedRectangle|*
%AMROUNDEDRECTD73*
21,1,0.0472,0.0236,0,0,180.0*
21,1,0.0236,0.0472,0,0,180.0*
1,1,0.0236,-0.0118,0.0118*
1,1,0.0236,0.0118,0.0118*
1,1,0.0236,0.0118,-0.0118*
1,1,0.0236,-0.0118,-0.0118*
%
%ADD73ROUNDEDRECTD73*%
G04:AMPARAMS|DCode=74|XSize=47.2mil|YSize=47.2mil|CornerRadius=11.8mil|HoleSize=0mil|Usage=FLASHONLY|Rotation=90.000|XOffset=0mil|YOffset=0mil|HoleType=Round|Shape=RoundedRectangle|*
%AMROUNDEDRECTD74*
21,1,0.0472,0.0236,0,0,90.0*
21,1,0.0236,0.0472,0,0,90.0*
1,1,0.0236,0.0118,0.0118*
1,1,0.0236,0.0118,-0.0118*
1,1,0.0236,-0.0118,-0.0118*
1,1,0.0236,-0.0118,0.0118*
%
%ADD74ROUNDEDRECTD74*%
%ADD75R,0.0600X0.0600*%
%ADD76R,0.0591X0.0591*%
%ADD77R,0.0591X0.0591*%
%ADD78C,0.0591*%
D15*
X33465Y-11998D02*
D03*
Y-10837D02*
D03*
X37205Y-4124D02*
D03*
Y-2963D02*
D03*
X26969Y-8278D02*
D03*
Y-9439D02*
D03*
X9449Y-13297D02*
D03*
Y-14459D02*
D03*
D16*
X30709Y-11791D02*
D03*
Y-14587D02*
D03*
Y-1142D02*
D03*
Y-3937D02*
D03*
X34646Y-1161D02*
D03*
Y-3957D02*
D03*
X30709Y-6260D02*
D03*
Y-9055D02*
D03*
D17*
X37205Y-1919D02*
D03*
Y-837D02*
D03*
X27953Y-9400D02*
D03*
Y-8317D02*
D03*
D18*
X34646Y-12736D02*
D03*
Y-14429D02*
D03*
X27165Y-12874D02*
D03*
Y-14567D02*
D03*
Y-2618D02*
D03*
Y-925D02*
D03*
D19*
X10903Y-13141D02*
D03*
Y-13641D02*
D03*
Y-14141D02*
D03*
Y-14641D02*
D03*
X13048Y-13141D02*
D03*
Y-13641D02*
D03*
Y-14141D02*
D03*
Y-14641D02*
D03*
D20*
X11975Y-13891D02*
D03*
D21*
X11800Y-3785D02*
D03*
D22*
X11270Y-7382D02*
D03*
X12352D02*
D03*
X12352Y-8366D02*
D03*
X11270D02*
D03*
D23*
X7677Y-13543D02*
D03*
Y-14272D02*
D03*
X24213Y-15128D02*
D03*
Y-14400D02*
D03*
X8465Y-14272D02*
D03*
Y-13543D02*
D03*
X22638Y-15128D02*
D03*
Y-14400D02*
D03*
X23425Y-15128D02*
D03*
Y-14400D02*
D03*
D24*
X23500Y-16685D02*
D03*
X24228D02*
D03*
X16142Y-18898D02*
D03*
X15413D02*
D03*
X23500Y-17571D02*
D03*
X24228D02*
D03*
X17402Y-18898D02*
D03*
X18130D02*
D03*
X15413Y-18110D02*
D03*
X16142D02*
D03*
Y-17323D02*
D03*
X15413D02*
D03*
D25*
X9154Y-18701D02*
D03*
Y-16732D02*
D03*
X12205Y-18701D02*
D03*
Y-16732D02*
D03*
D26*
X2559Y-4705D02*
D03*
Y-807D02*
D03*
D27*
X17520Y-17035D02*
D03*
Y-16035D02*
D03*
X21063D02*
D03*
Y-17035D02*
D03*
D28*
X22890Y-18752D02*
D03*
X22024Y-19126D02*
D03*
Y-18378D02*
D03*
D29*
X18898Y-18898D02*
D03*
X19587D02*
D03*
X22014Y-16685D02*
D03*
X22703D02*
D03*
D68*
X11582Y-13497D02*
D03*
X11975D02*
D03*
Y-13891D02*
D03*
Y-14284D02*
D03*
X11582D02*
D03*
X12369D02*
D03*
Y-13891D02*
D03*
X11582D02*
D03*
D69*
X10225Y-2486D02*
D03*
Y-3273D02*
D03*
Y-4061D02*
D03*
Y-4848D02*
D03*
X11013Y-2486D02*
D03*
Y-3273D02*
D03*
Y-4061D02*
D03*
Y-4848D02*
D03*
X11800Y-2486D02*
D03*
Y-3273D02*
D03*
Y-4061D02*
D03*
Y-4848D02*
D03*
X12587Y-2486D02*
D03*
Y-3273D02*
D03*
Y-4061D02*
D03*
Y-4848D02*
D03*
X13375Y-2486D02*
D03*
Y-3273D02*
D03*
Y-4061D02*
D03*
Y-4848D02*
D03*
X33189Y-18717D02*
D03*
X34189D02*
D03*
X35189D02*
D03*
X36189D02*
D03*
X37189D02*
D03*
X38189D02*
D03*
X33189Y-17717D02*
D03*
X34189D02*
D03*
X35189D02*
D03*
X36189D02*
D03*
X37189D02*
D03*
X1181Y-18717D02*
D03*
X2181D02*
D03*
X3181D02*
D03*
X4181D02*
D03*
X5181D02*
D03*
X6181D02*
D03*
X1181Y-17717D02*
D03*
X2181D02*
D03*
X3181D02*
D03*
X4181D02*
D03*
X5181D02*
D03*
X26220Y-18717D02*
D03*
X27220D02*
D03*
X28220D02*
D03*
X29220D02*
D03*
X30220D02*
D03*
X31220D02*
D03*
X26220Y-17717D02*
D03*
X27220D02*
D03*
X28220D02*
D03*
X29220D02*
D03*
X30220D02*
D03*
D70*
X14800Y-1050D02*
D03*
D71*
Y-2550D02*
D03*
Y-4050D02*
D03*
Y-7050D02*
D03*
Y-8550D02*
D03*
Y-10050D02*
D03*
X24800Y-1050D02*
D03*
Y-2550D02*
D03*
Y-4050D02*
D03*
Y-7050D02*
D03*
Y-8550D02*
D03*
Y-10050D02*
D03*
D72*
X1181Y-7677D02*
D03*
X8268Y-10433D02*
D03*
X7283Y-984D02*
D03*
Y-7185D02*
D03*
D73*
X3150Y-7677D02*
D03*
X6299Y-10433D02*
D03*
D74*
X7283Y-2953D02*
D03*
Y-5217D02*
D03*
D75*
X38189Y-17717D02*
D03*
X6181D02*
D03*
X31220D02*
D03*
D76*
X6299Y-13780D02*
D03*
D77*
X3008Y-13485D02*
D03*
D78*
X1000D02*
D03*
X3008Y-16485D02*
D03*
X1000D02*
D03*
M02*
