G04*
G04 #@! TF.GenerationSoftware,Altium Limited,Altium Designer,20.2.6 (244)*
G04*
G04 Layer_Color=16711935*
%FSLAX24Y24*%
%MOIN*%
G70*
G04*
G04 #@! TF.SameCoordinates,31C55898-3F01-4FA6-8909-C42763FC29AA*
G04*
G04*
G04 #@! TF.FilePolarity,Positive*
G04*
G01*
G75*
%ADD14C,0.0100*%
%ADD106C,0.0039*%
%ADD107R,0.1555X0.0252*%
%ADD108R,0.0244X0.1150*%
%ADD109R,0.0244X0.1150*%
%ADD110R,0.1150X0.0244*%
D14*
X38889Y-19417D02*
Y-17017D01*
X32489Y-19417D02*
X38889D01*
X32489D02*
Y-17017D01*
X38889D01*
X6881Y-19417D02*
Y-17017D01*
X481Y-19417D02*
X6881D01*
X481D02*
Y-17017D01*
X6881D01*
X31920Y-19417D02*
Y-17017D01*
X25520Y-19417D02*
X31920D01*
X25520D02*
Y-17017D01*
X31920D01*
X34475Y-9252D02*
X34540Y-9186D01*
Y-9055D01*
X34475Y-8990D01*
X34212D01*
X34147Y-9055D01*
Y-9186D01*
X34212Y-9252D01*
X34147Y-9646D02*
Y-9383D01*
X34409Y-9646D01*
X34475D01*
X34540Y-9580D01*
Y-9449D01*
X34475Y-9383D01*
Y-9777D02*
X34540Y-9842D01*
Y-9974D01*
X34475Y-10039D01*
X34409D01*
X34344Y-9974D01*
Y-9908D01*
Y-9974D01*
X34278Y-10039D01*
X34212D01*
X34147Y-9974D01*
Y-9842D01*
X34212Y-9777D01*
X27736Y-14210D02*
X27671Y-14276D01*
X27539D01*
X27474Y-14210D01*
Y-13948D01*
X27539Y-13882D01*
X27671D01*
X27736Y-13948D01*
X28130Y-13882D02*
X27867D01*
X28130Y-14145D01*
Y-14210D01*
X28064Y-14276D01*
X27933D01*
X27867Y-14210D01*
X28261Y-13882D02*
X28392D01*
X28327D01*
Y-14276D01*
X28261Y-14210D01*
X30669Y-11637D02*
X30603Y-11702D01*
X30472D01*
X30407Y-11637D01*
Y-11375D01*
X30472Y-11309D01*
X30603D01*
X30669Y-11375D01*
X31063Y-11309D02*
X30800D01*
X31063Y-11571D01*
Y-11637D01*
X30997Y-11702D01*
X30866D01*
X30800Y-11637D01*
X31391Y-11309D02*
Y-11702D01*
X31194Y-11506D01*
X31456D01*
X34646Y-10801D02*
X34711Y-10735D01*
X34842D01*
X34908Y-10801D01*
Y-11063D01*
X34842Y-11129D01*
X34711D01*
X34646Y-11063D01*
X34252Y-11129D02*
X34514D01*
X34252Y-10867D01*
Y-10801D01*
X34318Y-10735D01*
X34449D01*
X34514Y-10801D01*
X34121D02*
X34055Y-10735D01*
X33924D01*
X33858Y-10801D01*
Y-10867D01*
X33924Y-10932D01*
X33858Y-10998D01*
Y-11063D01*
X33924Y-11129D01*
X34055D01*
X34121Y-11063D01*
Y-10998D01*
X34055Y-10932D01*
X34121Y-10867D01*
Y-10801D01*
X34055Y-10932D02*
X33924D01*
X28618Y-13073D02*
X28224D01*
Y-13270D01*
X28290Y-13336D01*
X28421D01*
X28486Y-13270D01*
Y-13073D01*
Y-13204D02*
X28618Y-13336D01*
Y-13729D02*
Y-13467D01*
X28355Y-13729D01*
X28290D01*
X28224Y-13664D01*
Y-13532D01*
X28290Y-13467D01*
X28618Y-14123D02*
Y-13860D01*
X28355Y-14123D01*
X28290D01*
X28224Y-14057D01*
Y-13926D01*
X28290Y-13860D01*
X36195Y-5709D02*
X36129Y-5774D01*
Y-5905D01*
X36195Y-5971D01*
X36457D01*
X36523Y-5905D01*
Y-5774D01*
X36457Y-5709D01*
X36129Y-5315D02*
X36195Y-5446D01*
X36326Y-5577D01*
X36457D01*
X36523Y-5512D01*
Y-5381D01*
X36457Y-5315D01*
X36391D01*
X36326Y-5381D01*
Y-5577D01*
X35805Y1222D02*
X36198D01*
Y1025D01*
X36133Y960D01*
X36002D01*
X35936Y1025D01*
Y1222D01*
Y1091D02*
X35805Y960D01*
Y566D02*
Y828D01*
X36067Y566D01*
X36133D01*
X36198Y632D01*
Y763D01*
X36133Y828D01*
X27979Y-6693D02*
X28044Y-6627D01*
Y-6496D01*
X27979Y-6431D01*
X27716D01*
X27651Y-6496D01*
Y-6627D01*
X27716Y-6693D01*
Y-6824D02*
X27651Y-6890D01*
Y-7021D01*
X27716Y-7087D01*
X27979D01*
X28044Y-7021D01*
Y-6890D01*
X27979Y-6824D01*
X27913D01*
X27847Y-6890D01*
Y-7087D01*
X26553Y-6258D02*
X26946D01*
Y-6455D01*
X26881Y-6521D01*
X26750D01*
X26684Y-6455D01*
Y-6258D01*
Y-6389D02*
X26553Y-6521D01*
Y-6849D02*
X26946D01*
X26750Y-6652D01*
Y-6914D01*
X20748Y-1628D02*
X20814Y-1562D01*
X20945D01*
X21010Y-1628D01*
Y-1890D01*
X20945Y-1956D01*
X20814D01*
X20748Y-1890D01*
X20354Y-1562D02*
X20617D01*
Y-1759D01*
X20486Y-1693D01*
X20420D01*
X20354Y-1759D01*
Y-1890D01*
X20420Y-1956D01*
X20551D01*
X20617Y-1890D01*
X21143Y-5061D02*
Y-4668D01*
X20947D01*
X20881Y-4733D01*
Y-4865D01*
X20947Y-4930D01*
X21143D01*
X21012D02*
X20881Y-5061D01*
X20750D02*
X20619D01*
X20684D01*
Y-4668D01*
X20750Y-4733D01*
X19282Y-18088D02*
X19347Y-18022D01*
X19479D01*
X19544Y-18088D01*
Y-18350D01*
X19479Y-18415D01*
X19347D01*
X19282Y-18350D01*
X19151Y-18415D02*
X19019D01*
X19085D01*
Y-18022D01*
X19151Y-18088D01*
X18823Y-18350D02*
X18757Y-18415D01*
X18626D01*
X18560Y-18350D01*
Y-18088D01*
X18626Y-18022D01*
X18757D01*
X18823Y-18088D01*
Y-18153D01*
X18757Y-18219D01*
X18560D01*
X21479Y-431D02*
X21085D01*
Y-628D01*
X21151Y-694D01*
X21282D01*
X21348Y-628D01*
Y-431D01*
Y-563D02*
X21479Y-694D01*
X21151Y-825D02*
X21085Y-891D01*
Y-1022D01*
X21151Y-1087D01*
X21216D01*
X21282Y-1022D01*
Y-956D01*
Y-1022D01*
X21348Y-1087D01*
X21413D01*
X21479Y-1022D01*
Y-891D01*
X21413Y-825D01*
X11277Y-12521D02*
X11671D01*
Y-12324D01*
X11605Y-12259D01*
X11474D01*
X11408Y-12324D01*
Y-12521D01*
Y-12390D02*
X11277Y-12259D01*
X11671Y-11865D02*
Y-12128D01*
X11474D01*
X11540Y-11996D01*
Y-11931D01*
X11474Y-11865D01*
X11343D01*
X11277Y-11931D01*
Y-12062D01*
X11343Y-12128D01*
X15250Y-16735D02*
X15644D01*
Y-16538D01*
X15578Y-16473D01*
X15447D01*
X15381Y-16538D01*
Y-16735D01*
Y-16604D02*
X15250Y-16473D01*
Y-16341D02*
Y-16210D01*
Y-16276D01*
X15644D01*
X15578Y-16341D01*
X15250Y-15751D02*
Y-16013D01*
X15512Y-15751D01*
X15578D01*
X15644Y-15817D01*
Y-15948D01*
X15578Y-16013D01*
X25848Y-15120D02*
X26241D01*
Y-14923D01*
X26175Y-14857D01*
X26044D01*
X25979Y-14923D01*
Y-15120D01*
Y-14989D02*
X25848Y-14857D01*
Y-14464D02*
Y-14726D01*
X26110Y-14464D01*
X26175D01*
X26241Y-14529D01*
Y-14661D01*
X26175Y-14726D01*
X25848Y-14136D02*
X26241D01*
X26044Y-14333D01*
Y-14070D01*
X30966Y-15120D02*
X31359D01*
Y-14923D01*
X31294Y-14857D01*
X31162D01*
X31097Y-14923D01*
Y-15120D01*
Y-14989D02*
X30966Y-14857D01*
Y-14464D02*
Y-14726D01*
X31228Y-14464D01*
X31294D01*
X31359Y-14529D01*
Y-14661D01*
X31294Y-14726D01*
X31359Y-14070D02*
X31294Y-14201D01*
X31162Y-14333D01*
X31031D01*
X30966Y-14267D01*
Y-14136D01*
X31031Y-14070D01*
X31097D01*
X31162Y-14136D01*
Y-14333D01*
X29271Y-10865D02*
X28877D01*
Y-11061D01*
X28943Y-11127D01*
X29074D01*
X29139Y-11061D01*
Y-10865D01*
Y-10996D02*
X29271Y-11127D01*
Y-11520D02*
Y-11258D01*
X29008Y-11520D01*
X28943D01*
X28877Y-11455D01*
Y-11324D01*
X28943Y-11258D01*
Y-11652D02*
X28877Y-11717D01*
Y-11848D01*
X28943Y-11914D01*
X29008D01*
X29074Y-11848D01*
X29139Y-11914D01*
X29205D01*
X29271Y-11848D01*
Y-11717D01*
X29205Y-11652D01*
X29139D01*
X29074Y-11717D01*
X29008Y-11652D01*
X28943D01*
X29074Y-11717D02*
Y-11848D01*
X32814Y-10865D02*
X32420D01*
Y-11061D01*
X32486Y-11127D01*
X32617D01*
X32683Y-11061D01*
Y-10865D01*
Y-10996D02*
X32814Y-11127D01*
X32486Y-11258D02*
X32420Y-11324D01*
Y-11455D01*
X32486Y-11520D01*
X32552D01*
X32617Y-11455D01*
Y-11389D01*
Y-11455D01*
X32683Y-11520D01*
X32748D01*
X32814Y-11455D01*
Y-11324D01*
X32748Y-11258D01*
X32486Y-11652D02*
X32420Y-11717D01*
Y-11848D01*
X32486Y-11914D01*
X32748D01*
X32814Y-11848D01*
Y-11717D01*
X32748Y-11652D01*
X32486D01*
X23188Y-1970D02*
X23254Y-1904D01*
X23385D01*
X23451Y-1970D01*
Y-2232D01*
X23385Y-2298D01*
X23254D01*
X23188Y-2232D01*
X23057Y-1970D02*
X22992Y-1904D01*
X22860D01*
X22795Y-1970D01*
Y-2036D01*
X22860Y-2101D01*
X22926D01*
X22860D01*
X22795Y-2167D01*
Y-2232D01*
X22860Y-2298D01*
X22992D01*
X23057Y-2232D01*
X22401Y-2298D02*
X22664D01*
X22401Y-2036D01*
Y-1970D01*
X22467Y-1904D01*
X22598D01*
X22664Y-1970D01*
X24331Y-6352D02*
X24396Y-6286D01*
X24527D01*
X24593Y-6352D01*
Y-6614D01*
X24527Y-6680D01*
X24396D01*
X24331Y-6614D01*
X24199Y-6352D02*
X24134Y-6286D01*
X24003D01*
X23937Y-6352D01*
Y-6418D01*
X24003Y-6483D01*
X24068D01*
X24003D01*
X23937Y-6549D01*
Y-6614D01*
X24003Y-6680D01*
X24134D01*
X24199Y-6614D01*
X23609Y-6680D02*
Y-6286D01*
X23806Y-6483D01*
X23543D01*
X33371Y-13842D02*
X33471Y-13942D01*
Y-14142D01*
X33371Y-14242D01*
X32971D01*
X32871Y-14142D01*
Y-13942D01*
X32971Y-13842D01*
X33371Y-13642D02*
X33471Y-13542D01*
Y-13342D01*
X33371Y-13242D01*
X33271D01*
X33171Y-13342D01*
Y-13442D01*
Y-13342D01*
X33071Y-13242D01*
X32971D01*
X32871Y-13342D01*
Y-13542D01*
X32971Y-13642D01*
X33471Y-12643D02*
X33371Y-12843D01*
X33171Y-13043D01*
X32971D01*
X32871Y-12943D01*
Y-12743D01*
X32971Y-12643D01*
X33071D01*
X33171Y-12743D01*
Y-13043D01*
X9211Y-8782D02*
Y-8388D01*
X9408D01*
X9473Y-8454D01*
Y-8585D01*
X9408Y-8651D01*
X9211D01*
X9342D02*
X9473Y-8782D01*
X9605Y-8454D02*
X9670Y-8388D01*
X9801D01*
X9867Y-8454D01*
Y-8519D01*
X9801Y-8585D01*
X9867Y-8651D01*
Y-8716D01*
X9801Y-8782D01*
X9670D01*
X9605Y-8716D01*
Y-8651D01*
X9670Y-8585D01*
X9605Y-8519D01*
Y-8454D01*
X9670Y-8585D02*
X9801D01*
X14411Y-6966D02*
Y-7360D01*
X14214D01*
X14149Y-7294D01*
Y-7163D01*
X14214Y-7097D01*
X14411D01*
X14280D02*
X14149Y-6966D01*
X14017Y-7032D02*
X13952Y-6966D01*
X13821D01*
X13755Y-7032D01*
Y-7294D01*
X13821Y-7360D01*
X13952D01*
X14017Y-7294D01*
Y-7229D01*
X13952Y-7163D01*
X13755D01*
X6359Y-11780D02*
X6753D01*
Y-11977D01*
X6687Y-12042D01*
X6556D01*
X6491Y-11977D01*
Y-11780D01*
Y-11911D02*
X6359Y-12042D01*
Y-12173D02*
Y-12305D01*
Y-12239D01*
X6753D01*
X6687Y-12173D01*
Y-12501D02*
X6753Y-12567D01*
Y-12698D01*
X6687Y-12764D01*
X6425D01*
X6359Y-12698D01*
Y-12567D01*
X6425Y-12501D01*
X6687D01*
X21737Y-18003D02*
Y-17609D01*
X21933D01*
X21999Y-17675D01*
Y-17806D01*
X21933Y-17872D01*
X21737D01*
X21868D02*
X21999Y-18003D01*
X22130D02*
X22261D01*
X22196D01*
Y-17609D01*
X22130Y-17675D01*
X22720Y-17609D02*
X22458D01*
Y-17806D01*
X22589Y-17740D01*
X22655D01*
X22720Y-17806D01*
Y-17937D01*
X22655Y-18003D01*
X22524D01*
X22458Y-17937D01*
X17905Y-17580D02*
Y-17973D01*
X17708D01*
X17643Y-17908D01*
Y-17777D01*
X17708Y-17711D01*
X17905D01*
X17774D02*
X17643Y-17580D01*
X17512D02*
X17380D01*
X17446D01*
Y-17973D01*
X17512Y-17908D01*
X17184Y-17645D02*
X17118Y-17580D01*
X16987D01*
X16921Y-17645D01*
Y-17908D01*
X16987Y-17973D01*
X17118D01*
X17184Y-17908D01*
Y-17842D01*
X17118Y-17777D01*
X16921D01*
X25530Y-16891D02*
X25137D01*
Y-16695D01*
X25202Y-16629D01*
X25334D01*
X25399Y-16695D01*
Y-16891D01*
Y-16760D02*
X25530Y-16629D01*
Y-16235D02*
Y-16498D01*
X25268Y-16235D01*
X25202D01*
X25137Y-16301D01*
Y-16432D01*
X25202Y-16498D01*
Y-16104D02*
X25137Y-16039D01*
Y-15907D01*
X25202Y-15842D01*
X25465D01*
X25530Y-15907D01*
Y-16039D01*
X25465Y-16104D01*
X25202D01*
X21737Y-18889D02*
Y-18495D01*
X21933D01*
X21999Y-18561D01*
Y-18692D01*
X21933Y-18758D01*
X21737D01*
X21868D02*
X21999Y-18889D01*
X22393D02*
X22130D01*
X22393Y-18626D01*
Y-18561D01*
X22327Y-18495D01*
X22196D01*
X22130Y-18561D01*
X22524Y-18889D02*
X22655D01*
X22589D01*
Y-18495D01*
X22524Y-18561D01*
X5379Y-10468D02*
X5444Y-10534D01*
X5575D01*
X5641Y-10468D01*
Y-10206D01*
X5575Y-10140D01*
X5444D01*
X5379Y-10206D01*
X5247Y-10140D02*
X5116D01*
X5182D01*
Y-10534D01*
X5247Y-10468D01*
X4070Y-7642D02*
X4005Y-7576D01*
X3873D01*
X3808Y-7642D01*
Y-7904D01*
X3873Y-7970D01*
X4005D01*
X4070Y-7904D01*
X4464Y-7970D02*
X4201D01*
X4464Y-7707D01*
Y-7642D01*
X4398Y-7576D01*
X4267D01*
X4201Y-7642D01*
X4492Y-5182D02*
X4427Y-5247D01*
Y-5379D01*
X4492Y-5444D01*
X4755D01*
X4820Y-5379D01*
Y-5247D01*
X4755Y-5182D01*
X4492Y-5051D02*
X4427Y-4985D01*
Y-4854D01*
X4492Y-4788D01*
X4558D01*
X4623Y-4854D01*
Y-4919D01*
Y-4854D01*
X4689Y-4788D01*
X4755D01*
X4820Y-4854D01*
Y-4985D01*
X4755Y-5051D01*
X10075Y-2988D02*
X10140Y-2922D01*
Y-2791D01*
X10075Y-2725D01*
X9812D01*
X9747Y-2791D01*
Y-2922D01*
X9812Y-2988D01*
X9747Y-3315D02*
X10140D01*
X9944Y-3119D01*
Y-3381D01*
X17230Y-18335D02*
Y-17941D01*
X17427D01*
X17492Y-18007D01*
Y-18138D01*
X17427Y-18204D01*
X17230D01*
X17361D02*
X17492Y-18335D01*
X17624D02*
X17755D01*
X17689D01*
Y-17941D01*
X17624Y-18007D01*
X17952D02*
X18017Y-17941D01*
X18148D01*
X18214Y-18007D01*
Y-18073D01*
X18148Y-18138D01*
X18214Y-18204D01*
Y-18269D01*
X18148Y-18335D01*
X18017D01*
X17952Y-18269D01*
Y-18204D01*
X18017Y-18138D01*
X17952Y-18073D01*
Y-18007D01*
X18017Y-18138D02*
X18148D01*
X32189Y-16617D02*
Y-16223D01*
X32386D01*
X32451Y-16289D01*
Y-16420D01*
X32386Y-16485D01*
X32189D01*
X32583Y-16617D02*
X32714D01*
X32648D01*
Y-16223D01*
X32583Y-16289D01*
X8439Y-16043D02*
X8373Y-16109D01*
Y-16240D01*
X8439Y-16306D01*
X8701D01*
X8767Y-16240D01*
Y-16109D01*
X8701Y-16043D01*
X8767Y-15912D02*
Y-15781D01*
Y-15846D01*
X8373D01*
X8439Y-15912D01*
X8373Y-15322D02*
X8439Y-15453D01*
X8570Y-15584D01*
X8701D01*
X8767Y-15518D01*
Y-15387D01*
X8701Y-15322D01*
X8636D01*
X8570Y-15387D01*
Y-15584D01*
X9782Y-16035D02*
X9389D01*
Y-15838D01*
X9454Y-15773D01*
X9586D01*
X9651Y-15838D01*
Y-16035D01*
Y-15904D02*
X9782Y-15773D01*
X9389Y-15379D02*
X9454Y-15510D01*
X9586Y-15642D01*
X9717D01*
X9782Y-15576D01*
Y-15445D01*
X9717Y-15379D01*
X9651D01*
X9586Y-15445D01*
Y-15642D01*
X13650Y-19428D02*
Y-19035D01*
X13847D01*
X13912Y-19100D01*
Y-19231D01*
X13847Y-19297D01*
X13650D01*
X13781D02*
X13912Y-19428D01*
X14044D02*
X14175D01*
X14109D01*
Y-19035D01*
X14044Y-19100D01*
X14372D02*
X14437Y-19035D01*
X14568D01*
X14634Y-19100D01*
Y-19166D01*
X14568Y-19231D01*
X14503D01*
X14568D01*
X14634Y-19297D01*
Y-19362D01*
X14568Y-19428D01*
X14437D01*
X14372Y-19362D01*
X23956Y-16891D02*
X23562D01*
Y-16695D01*
X23628Y-16629D01*
X23759D01*
X23824Y-16695D01*
Y-16891D01*
Y-16760D02*
X23956Y-16629D01*
Y-16498D02*
Y-16367D01*
Y-16432D01*
X23562D01*
X23628Y-16498D01*
X23956Y-15973D02*
X23562D01*
X23759Y-16170D01*
Y-15907D01*
X17905Y-16005D02*
Y-16399D01*
X17708D01*
X17643Y-16333D01*
Y-16202D01*
X17708Y-16136D01*
X17905D01*
X17774D02*
X17643Y-16005D01*
X17512D02*
X17380D01*
X17446D01*
Y-16399D01*
X17512Y-16333D01*
X16921Y-16399D02*
X17052Y-16333D01*
X17184Y-16202D01*
Y-16071D01*
X17118Y-16005D01*
X16987D01*
X16921Y-16071D01*
Y-16136D01*
X16987Y-16202D01*
X17184D01*
X24743Y-16891D02*
X24349D01*
Y-16695D01*
X24415Y-16629D01*
X24546D01*
X24612Y-16695D01*
Y-16891D01*
Y-16760D02*
X24743Y-16629D01*
Y-16498D02*
Y-16367D01*
Y-16432D01*
X24349D01*
X24415Y-16498D01*
X24349Y-16170D02*
Y-15907D01*
X24415D01*
X24677Y-16170D01*
X24743D01*
X17677Y-18088D02*
X17611Y-18022D01*
X17480D01*
X17415Y-18088D01*
Y-18350D01*
X17480Y-18415D01*
X17611D01*
X17677Y-18350D01*
X17808Y-18415D02*
X17939D01*
X17874D01*
Y-18022D01*
X17808Y-18088D01*
X18136D02*
X18202Y-18022D01*
X18333D01*
X18398Y-18088D01*
Y-18153D01*
X18333Y-18219D01*
X18398Y-18284D01*
Y-18350D01*
X18333Y-18415D01*
X18202D01*
X18136Y-18350D01*
Y-18284D01*
X18202Y-18219D01*
X18136Y-18153D01*
Y-18088D01*
X18202Y-18219D02*
X18333D01*
X20793Y-15875D02*
X20727Y-15809D01*
X20596D01*
X20531Y-15875D01*
Y-16137D01*
X20596Y-16203D01*
X20727D01*
X20793Y-16137D01*
X21187Y-16203D02*
X20924D01*
X21187Y-15941D01*
Y-15875D01*
X21121Y-15809D01*
X20990D01*
X20924Y-15875D01*
X21318D02*
X21383Y-15809D01*
X21515D01*
X21580Y-15875D01*
Y-16137D01*
X21515Y-16203D01*
X21383D01*
X21318Y-16137D01*
Y-15875D01*
X181Y-16617D02*
Y-16223D01*
X378D01*
X443Y-16289D01*
Y-16420D01*
X378Y-16485D01*
X181D01*
X575Y-16289D02*
X640Y-16223D01*
X771D01*
X837Y-16289D01*
Y-16354D01*
X771Y-16420D01*
X706D01*
X771D01*
X837Y-16485D01*
Y-16551D01*
X771Y-16617D01*
X640D01*
X575Y-16551D01*
X25220Y-16617D02*
Y-16223D01*
X25417D01*
X25483Y-16289D01*
Y-16420D01*
X25417Y-16485D01*
X25220D01*
X25876Y-16617D02*
X25614D01*
X25876Y-16354D01*
Y-16289D01*
X25811Y-16223D01*
X25680D01*
X25614Y-16289D01*
D106*
X11739Y-13261D02*
G03*
X11739Y-13261I-197J0D01*
G01*
X3520Y-14060D02*
G03*
X3520Y-14060I-197J0D01*
G01*
X33110Y-12087D02*
Y-10748D01*
X33819Y-12087D02*
Y-10748D01*
X33110Y-12087D02*
X33819D01*
X33110Y-10748D02*
X33819D01*
X28237Y-817D02*
X31780D01*
X28237Y-4754D02*
X31780D01*
Y-817D01*
X28237Y-4754D02*
Y-817D01*
Y-9843D02*
Y-5906D01*
X31780Y-9843D02*
Y-5906D01*
X28237Y-9843D02*
X31780D01*
X28237Y-5906D02*
X31780D01*
X17000Y-7109D02*
Y-4661D01*
X19800Y-7109D02*
Y-4661D01*
X17000Y-7109D02*
X19800D01*
X17000Y-4661D02*
X19800D01*
X28848Y-13425D02*
Y-12559D01*
X29419Y-13425D02*
Y-12559D01*
X28848D02*
X29419D01*
X28848Y-13425D02*
X29419D01*
X31801Y-10541D02*
X32667D01*
X31801Y-11112D02*
X32667D01*
Y-10541D01*
X31801Y-11112D02*
Y-10541D01*
X33150Y-12165D02*
Y-11457D01*
X31811Y-12165D02*
Y-11457D01*
X33150D01*
X31811Y-12165D02*
X33150D01*
X29104Y-13907D02*
X29951D01*
X29104Y-14439D02*
X29951D01*
Y-13907D01*
X29104Y-14439D02*
Y-13907D01*
X31742Y-11516D02*
X32382Y-12156D01*
Y-14862D02*
Y-12156D01*
X29035Y-14862D02*
X32382D01*
X29035D02*
Y-12156D01*
X29675Y-11516D01*
X31742D01*
X30915Y-13337D02*
Y-12648D01*
X29715Y-13337D02*
Y-12648D01*
Y-13337D02*
X30915D01*
X29715Y-12648D02*
X30915D01*
X36850Y-4213D02*
X37559D01*
X36850Y-2874D02*
X37559D01*
X36850Y-4213D02*
Y-2874D01*
X37559Y-4213D02*
Y-2874D01*
X36860Y-2018D02*
Y-738D01*
X37549Y-2018D02*
Y-738D01*
X36860Y-2018D02*
X37549D01*
X36860Y-738D02*
X37549D01*
X26614Y-8189D02*
X27323D01*
X26614Y-9528D02*
X27323D01*
Y-8189D01*
X26614Y-9528D02*
Y-8189D01*
X27608Y-9498D02*
Y-8219D01*
X28297Y-9498D02*
Y-8219D01*
X27608Y-9498D02*
X28297D01*
X27608Y-8219D02*
X28297D01*
X33947Y-14665D02*
X35344D01*
X35728Y-14282D01*
Y-12500D01*
X33563D02*
X35728D01*
X33563Y-14282D02*
Y-12500D01*
Y-14282D02*
X33947Y-14665D01*
X11188Y-14875D02*
Y-12906D01*
X12763Y-14875D02*
Y-12906D01*
X11188D02*
X12763D01*
X11188Y-14875D02*
X12763D01*
X9832Y-6305D02*
X13769D01*
X9832Y-2761D02*
X13769D01*
Y-6305D02*
Y-2761D01*
X9832Y-6305D02*
Y-2761D01*
X17913Y-2992D02*
X19252D01*
X17913Y-2283D02*
X19252D01*
X17913Y-2992D02*
Y-2283D01*
X19252Y-2992D02*
Y-2283D01*
X19183Y-4006D02*
Y-3317D01*
X17904Y-4006D02*
Y-3317D01*
X19183D01*
X17904Y-4006D02*
X19183D01*
X18150Y-19183D02*
Y-18612D01*
X17283Y-19183D02*
Y-18612D01*
X18150D01*
X17283Y-19183D02*
X18150D01*
X17478Y-2820D02*
Y-950D01*
X15922Y-2820D02*
Y-950D01*
Y-2820D02*
X17478D01*
X15922Y-950D02*
X17478D01*
X17000Y-7461D02*
X19800D01*
X17000Y-9909D02*
X19800D01*
Y-7461D01*
X17000Y-9909D02*
Y-7461D01*
X18694Y-15360D02*
X20506D01*
X18694Y-14210D02*
X20506D01*
X18694Y-15360D02*
Y-14210D01*
X20506Y-15360D02*
Y-14210D01*
X18682Y-13910D02*
X20493D01*
X18682Y-12760D02*
X20493D01*
X18682Y-13910D02*
Y-12760D01*
X20493Y-13910D02*
Y-12760D01*
X19734Y-2392D02*
X20423D01*
X19734Y-3671D02*
X20423D01*
X19734D02*
Y-2392D01*
X20423Y-3671D02*
Y-2392D01*
X12333Y-10561D02*
X13022D01*
X12333Y-9281D02*
X13022D01*
Y-10561D02*
Y-9281D01*
X12333Y-10561D02*
Y-9281D01*
X9525Y-11784D02*
X10875D01*
X9525Y-9186D02*
X10875D01*
Y-11784D02*
Y-9186D01*
X9525Y-11784D02*
Y-9186D01*
X16306Y-14775D02*
X16995D01*
X16306Y-13495D02*
X16995D01*
Y-14775D02*
Y-13495D01*
X16306Y-14775D02*
Y-13495D01*
X26900Y-13415D02*
X27431D01*
X26900Y-12569D02*
X27431D01*
Y-13415D02*
Y-12569D01*
X26900Y-13415D02*
Y-12569D01*
X32018Y-13415D02*
X32549D01*
X32018Y-12569D02*
X32549D01*
Y-13415D02*
Y-12569D01*
X32018Y-13415D02*
Y-12569D01*
X27687Y-12569D02*
X28219D01*
X27687Y-13415D02*
X28219D01*
X27687D02*
Y-12569D01*
X28219Y-13415D02*
Y-12569D01*
X31230D02*
X31762D01*
X31230Y-13415D02*
X31762D01*
X31230D02*
Y-12569D01*
X31762Y-13415D02*
Y-12569D01*
X21654Y-2835D02*
X22992D01*
X21654Y-2126D02*
X22992D01*
X21654Y-2835D02*
Y-2126D01*
X22992Y-2835D02*
Y-2126D01*
X21496Y-7717D02*
X22835D01*
X21496Y-7008D02*
X22835D01*
X21496Y-7717D02*
Y-7008D01*
X22835Y-7717D02*
Y-7008D01*
X21146Y-3717D02*
X22296D01*
X21146Y-5528D02*
X22296D01*
X21146D02*
Y-3717D01*
X22296Y-5528D02*
Y-3717D01*
X22746Y-3705D02*
X23896D01*
X22746Y-5516D02*
X23896D01*
X22746D02*
Y-3705D01*
X23896Y-5516D02*
Y-3705D01*
X22625Y-8380D02*
X23775D01*
X22625Y-10191D02*
X23775D01*
X22625D02*
Y-8380D01*
X23775Y-10191D02*
Y-8380D01*
X21025D02*
X22175D01*
X21025Y-10191D02*
X22175D01*
X21025D02*
Y-8380D01*
X22175Y-10191D02*
Y-8380D01*
X38484Y-14468D02*
Y-9547D01*
X33563Y-14468D02*
Y-9547D01*
Y-14468D02*
X38484D01*
X33563Y-9547D02*
X38484D01*
X32785Y-13425D02*
Y-12559D01*
X33356Y-13425D02*
Y-12559D01*
X32785D02*
X33356D01*
X32785Y-13425D02*
X33356D01*
X11171Y-7726D02*
Y-7037D01*
X12451Y-7726D02*
Y-7037D01*
X11171D02*
X12451D01*
X11171Y-7726D02*
X12451D01*
X12451Y-8711D02*
Y-8022D01*
X11171Y-8711D02*
Y-8022D01*
Y-8711D02*
X12451D01*
X11171Y-8022D02*
X12451D01*
X7411Y-13484D02*
X7943D01*
X7411Y-14331D02*
X7943D01*
Y-13484D01*
X7411Y-14331D02*
Y-13484D01*
X23441Y-16951D02*
Y-16419D01*
X24287Y-16951D02*
Y-16419D01*
X23441D02*
X24287D01*
X23441Y-16951D02*
X24287D01*
X16201Y-19163D02*
Y-18632D01*
X15354Y-19163D02*
Y-18632D01*
Y-19163D02*
X16201D01*
X15354Y-18632D02*
X16201D01*
X23947Y-15187D02*
X24478D01*
X23947Y-14341D02*
X24478D01*
X23947Y-15187D02*
Y-14341D01*
X24478Y-15187D02*
Y-14341D01*
X23441Y-17837D02*
Y-17305D01*
X24287Y-17837D02*
Y-17305D01*
X23441D02*
X24287D01*
X23441Y-17837D02*
X24287D01*
X7815Y-18543D02*
X8327Y-19055D01*
X7815Y-18543D02*
Y-16378D01*
X10492D01*
Y-18543D02*
Y-16378D01*
X9980Y-19055D02*
X10492Y-18543D01*
X8327Y-19055D02*
X9980D01*
X10866Y-18543D02*
X11378Y-19055D01*
X10866Y-18543D02*
Y-16378D01*
X13543D01*
Y-18543D02*
Y-16378D01*
X13032Y-19055D02*
X13543Y-18543D01*
X11378Y-19055D02*
X13032D01*
X197Y-5118D02*
X4921D01*
Y-394D01*
X197Y-5118D02*
Y-394D01*
X4921D01*
X17343Y-19163D02*
Y-18632D01*
X18189Y-19163D02*
Y-18632D01*
X17343D02*
X18189D01*
X17343Y-19163D02*
X18189D01*
X17913Y-15531D02*
X20669D01*
X17913Y-17539D02*
X20669D01*
X17913D02*
Y-15531D01*
X20669Y-17539D02*
Y-15531D01*
X22181Y-19350D02*
X22732D01*
X22181Y-18154D02*
X22732D01*
Y-19350D02*
Y-18154D01*
X22181Y-19350D02*
Y-18154D01*
X331Y-13706D02*
X3677D01*
X331Y-16265D02*
X3677D01*
Y-13706D01*
X331Y-16265D02*
Y-13706D01*
X26467Y-14803D02*
X27864D01*
X28248Y-14419D01*
Y-12638D01*
X26083D02*
X28248D01*
X26083Y-14419D02*
Y-12638D01*
Y-14419D02*
X26467Y-14803D01*
X9803Y-14547D02*
Y-13209D01*
X9094Y-14547D02*
Y-13209D01*
X9803D01*
X9094Y-14547D02*
X9803D01*
X8199Y-14331D02*
X8730D01*
X8199Y-13484D02*
X8730D01*
X8199Y-14331D02*
Y-13484D01*
X8730Y-14331D02*
Y-13484D01*
X15354Y-18376D02*
Y-17844D01*
X16201Y-18376D02*
Y-17844D01*
X15354D02*
X16201D01*
X15354Y-18376D02*
X16201D01*
X22372Y-15187D02*
X22904D01*
X22372Y-14341D02*
X22904D01*
X22372Y-15187D02*
Y-14341D01*
X22904Y-15187D02*
Y-14341D01*
X16201Y-17589D02*
Y-17057D01*
X15354Y-17589D02*
Y-17057D01*
Y-17589D02*
X16201D01*
X15354Y-17057D02*
X16201D01*
X23159Y-15187D02*
X23691D01*
X23159Y-14341D02*
X23691D01*
X23159Y-15187D02*
Y-14341D01*
X23691Y-15187D02*
Y-14341D01*
X18809Y-19183D02*
Y-18612D01*
X19675Y-19183D02*
Y-18612D01*
X18809D02*
X19675D01*
X18809Y-19183D02*
X19675D01*
X21925Y-16970D02*
Y-16400D01*
X22791Y-16970D02*
Y-16400D01*
X21925D02*
X22791D01*
X21925Y-16970D02*
X22791D01*
X29675Y-4213D02*
X31742D01*
X32382Y-3573D01*
Y-866D01*
X29035D02*
X32382D01*
X29035Y-3573D02*
Y-866D01*
Y-3573D02*
X29675Y-4213D01*
X33612Y-4232D02*
X35679D01*
X36319Y-3593D01*
Y-886D01*
X32972D02*
X36319D01*
X32972Y-3593D02*
Y-886D01*
Y-3593D02*
X33612Y-4232D01*
X29675Y-9331D02*
X31742D01*
X32382Y-8691D01*
Y-5984D01*
X29035D02*
X32382D01*
X29035Y-8691D02*
Y-5984D01*
Y-8691D02*
X29675Y-9331D01*
X26467Y-689D02*
X27864D01*
X26083Y-1073D02*
X26467Y-689D01*
X26083Y-2854D02*
Y-1073D01*
Y-2854D02*
X28248D01*
Y-1073D01*
X27864Y-689D02*
X28248Y-1073D01*
D107*
X16700Y-2694D02*
D03*
D108*
X18816Y-14785D02*
D03*
D109*
X18804Y-13335D02*
D03*
D110*
X21721Y-5407D02*
D03*
X23321Y-5394D02*
D03*
X23200Y-10069D02*
D03*
X21600Y-10069D02*
D03*
M02*
