G04*
G04 #@! TF.GenerationSoftware,Altium Limited,Altium Designer,20.2.6 (244)*
G04*
G04 Layer_Physical_Order=2*
G04 Layer_Color=16711680*
%FSLAX24Y24*%
%MOIN*%
G70*
G04*
G04 #@! TF.SameCoordinates,8AECF8CF-BE68-462B-8B6A-8B8B687A0D7D*
G04*
G04*
G04 #@! TF.FilePolarity,Positive*
G04*
G01*
G75*
%ADD12C,0.0100*%
%ADD17C,0.0120*%
%ADD22C,0.0472*%
%ADD23R,0.0800X0.0600*%
%ADD24R,0.0492X0.0276*%
%ADD27R,0.0276X0.0492*%
%ADD28R,0.0600X0.0800*%
%ADD32R,0.0787X0.0965*%
%ADD33R,0.0236X0.0394*%
%ADD34R,0.0335X0.0630*%
%ADD35R,0.0630X0.0335*%
%ADD36R,0.0400X0.0600*%
%ADD38R,0.0600X0.0400*%
%ADD40R,0.0394X0.0236*%
%ADD43R,0.0354X0.0315*%
G04:AMPARAMS|DCode=49|XSize=25.6mil|YSize=47.2mil|CornerRadius=1.9mil|HoleSize=0mil|Usage=FLASHONLY|Rotation=270.000|XOffset=0mil|YOffset=0mil|HoleType=Round|Shape=RoundedRectangle|*
%AMROUNDEDRECTD49*
21,1,0.0256,0.0434,0,0,270.0*
21,1,0.0218,0.0472,0,0,270.0*
1,1,0.0038,-0.0217,-0.0109*
1,1,0.0038,-0.0217,0.0109*
1,1,0.0038,0.0217,0.0109*
1,1,0.0038,0.0217,-0.0109*
%
%ADD49ROUNDEDRECTD49*%
%ADD50O,0.0236X0.0571*%
%ADD52R,0.0630X0.1378*%
%ADD53R,0.0394X0.1260*%
%ADD54R,0.1260X0.0394*%
%ADD55C,0.0200*%
%ADD90C,0.0630*%
%ADD91C,0.1102*%
%ADD106R,0.0630X0.0630*%
%ADD113C,0.0984*%
%ADD126C,0.0150*%
%ADD127C,0.0250*%
%ADD128C,0.0300*%
%ADD130C,0.0500*%
%ADD131R,0.0591X0.0591*%
%ADD132C,0.0591*%
%ADD133C,0.1063*%
%ADD134R,0.1063X0.1063*%
G04:AMPARAMS|DCode=135|XSize=551.2mil|YSize=126mil|CornerRadius=31.5mil|HoleSize=0mil|Usage=FLASHONLY|Rotation=270.000|XOffset=0mil|YOffset=0mil|HoleType=Round|Shape=RoundedRectangle|*
%AMROUNDEDRECTD135*
21,1,0.5512,0.0630,0,0,270.0*
21,1,0.4882,0.1260,0,0,270.0*
1,1,0.0630,-0.0315,-0.2441*
1,1,0.0630,-0.0315,0.2441*
1,1,0.0630,0.0315,0.2441*
1,1,0.0630,0.0315,-0.2441*
%
%ADD135ROUNDEDRECTD135*%
G04:AMPARAMS|DCode=136|XSize=354.3mil|YSize=126mil|CornerRadius=31.5mil|HoleSize=0mil|Usage=FLASHONLY|Rotation=270.000|XOffset=0mil|YOffset=0mil|HoleType=Round|Shape=RoundedRectangle|*
%AMROUNDEDRECTD136*
21,1,0.3543,0.0630,0,0,270.0*
21,1,0.2913,0.1260,0,0,270.0*
1,1,0.0630,-0.0315,-0.1457*
1,1,0.0630,-0.0315,0.1457*
1,1,0.0630,0.0315,0.1457*
1,1,0.0630,0.0315,-0.1457*
%
%ADD136ROUNDEDRECTD136*%
G04:AMPARAMS|DCode=137|XSize=354.3mil|YSize=236.2mil|CornerRadius=59.1mil|HoleSize=0mil|Usage=FLASHONLY|Rotation=180.000|XOffset=0mil|YOffset=0mil|HoleType=Round|Shape=RoundedRectangle|*
%AMROUNDEDRECTD137*
21,1,0.3543,0.1181,0,0,180.0*
21,1,0.2362,0.2362,0,0,180.0*
1,1,0.1181,-0.1181,0.0591*
1,1,0.1181,0.1181,0.0591*
1,1,0.1181,0.1181,-0.0591*
1,1,0.1181,-0.1181,-0.0591*
%
%ADD137ROUNDEDRECTD137*%
G04:AMPARAMS|DCode=138|XSize=59.1mil|YSize=59.1mil|CornerRadius=14.8mil|HoleSize=0mil|Usage=FLASHONLY|Rotation=180.000|XOffset=0mil|YOffset=0mil|HoleType=Round|Shape=RoundedRectangle|*
%AMROUNDEDRECTD138*
21,1,0.0591,0.0295,0,0,180.0*
21,1,0.0295,0.0591,0,0,180.0*
1,1,0.0295,-0.0148,0.0148*
1,1,0.0295,0.0148,0.0148*
1,1,0.0295,0.0148,-0.0148*
1,1,0.0295,-0.0148,-0.0148*
%
%ADD138ROUNDEDRECTD138*%
G04:AMPARAMS|DCode=139|XSize=59.1mil|YSize=59.1mil|CornerRadius=14.8mil|HoleSize=0mil|Usage=FLASHONLY|Rotation=90.000|XOffset=0mil|YOffset=0mil|HoleType=Round|Shape=RoundedRectangle|*
%AMROUNDEDRECTD139*
21,1,0.0591,0.0295,0,0,90.0*
21,1,0.0295,0.0591,0,0,90.0*
1,1,0.0295,0.0148,0.0148*
1,1,0.0295,0.0148,-0.0148*
1,1,0.0295,-0.0148,-0.0148*
1,1,0.0295,-0.0148,0.0148*
%
%ADD139ROUNDEDRECTD139*%
G04:AMPARAMS|DCode=140|XSize=354.3mil|YSize=236.2mil|CornerRadius=59.1mil|HoleSize=0mil|Usage=FLASHONLY|Rotation=90.000|XOffset=0mil|YOffset=0mil|HoleType=Round|Shape=RoundedRectangle|*
%AMROUNDEDRECTD140*
21,1,0.3543,0.1181,0,0,90.0*
21,1,0.2362,0.2362,0,0,90.0*
1,1,0.1181,0.0591,0.1181*
1,1,0.1181,0.0591,-0.1181*
1,1,0.1181,-0.0591,-0.1181*
1,1,0.1181,-0.0591,0.1181*
%
%ADD140ROUNDEDRECTD140*%
%ADD141C,0.1732*%
%ADD142C,0.1378*%
%ADD143C,0.1496*%
G04:AMPARAMS|DCode=144|XSize=196.9mil|YSize=196.9mil|CornerRadius=49.2mil|HoleSize=0mil|Usage=FLASHONLY|Rotation=90.000|XOffset=0mil|YOffset=0mil|HoleType=Round|Shape=RoundedRectangle|*
%AMROUNDEDRECTD144*
21,1,0.1969,0.0984,0,0,90.0*
21,1,0.0984,0.1969,0,0,90.0*
1,1,0.0984,0.0492,0.0492*
1,1,0.0984,0.0492,-0.0492*
1,1,0.0984,-0.0492,-0.0492*
1,1,0.0984,-0.0492,0.0492*
%
%ADD144ROUNDEDRECTD144*%
%ADD145C,0.0650*%
%ADD146R,0.0591X0.0591*%
%ADD147C,0.0787*%
G04:AMPARAMS|DCode=148|XSize=196.9mil|YSize=196.9mil|CornerRadius=49.2mil|HoleSize=0mil|Usage=FLASHONLY|Rotation=0.000|XOffset=0mil|YOffset=0mil|HoleType=Round|Shape=RoundedRectangle|*
%AMROUNDEDRECTD148*
21,1,0.1969,0.0984,0,0,0.0*
21,1,0.0984,0.1969,0,0,0.0*
1,1,0.0984,0.0492,-0.0492*
1,1,0.0984,-0.0492,-0.0492*
1,1,0.0984,-0.0492,0.0492*
1,1,0.0984,0.0492,0.0492*
%
%ADD148ROUNDEDRECTD148*%
G04:AMPARAMS|DCode=149|XSize=315mil|YSize=315mil|CornerRadius=78.7mil|HoleSize=0mil|Usage=FLASHONLY|Rotation=90.000|XOffset=0mil|YOffset=0mil|HoleType=Round|Shape=RoundedRectangle|*
%AMROUNDEDRECTD149*
21,1,0.3150,0.1575,0,0,90.0*
21,1,0.1575,0.3150,0,0,90.0*
1,1,0.1575,0.0787,0.0787*
1,1,0.1575,0.0787,-0.0787*
1,1,0.1575,-0.0787,-0.0787*
1,1,0.1575,-0.0787,0.0787*
%
%ADD149ROUNDEDRECTD149*%
%ADD150C,0.0866*%
%ADD151C,0.0945*%
G04:AMPARAMS|DCode=152|XSize=157.5mil|YSize=157.5mil|CornerRadius=39.4mil|HoleSize=0mil|Usage=FLASHONLY|Rotation=180.000|XOffset=0mil|YOffset=0mil|HoleType=Round|Shape=RoundedRectangle|*
%AMROUNDEDRECTD152*
21,1,0.1575,0.0787,0,0,180.0*
21,1,0.0787,0.1575,0,0,180.0*
1,1,0.0787,-0.0394,0.0394*
1,1,0.0787,0.0394,0.0394*
1,1,0.0787,0.0394,-0.0394*
1,1,0.0787,-0.0394,-0.0394*
%
%ADD152ROUNDEDRECTD152*%
G04:AMPARAMS|DCode=153|XSize=157.5mil|YSize=126mil|CornerRadius=31.5mil|HoleSize=0mil|Usage=FLASHONLY|Rotation=90.000|XOffset=0mil|YOffset=0mil|HoleType=Round|Shape=RoundedRectangle|*
%AMROUNDEDRECTD153*
21,1,0.1575,0.0630,0,0,90.0*
21,1,0.0945,0.1260,0,0,90.0*
1,1,0.0630,0.0315,0.0472*
1,1,0.0630,0.0315,-0.0472*
1,1,0.0630,-0.0315,-0.0472*
1,1,0.0630,-0.0315,0.0472*
%
%ADD153ROUNDEDRECTD153*%
%ADD154C,0.0709*%
%ADD155R,0.0709X0.0709*%
%ADD156R,0.0709X0.0709*%
%ADD157C,0.1181*%
%ADD158C,0.1260*%
G04:AMPARAMS|DCode=159|XSize=118.1mil|YSize=118.1mil|CornerRadius=29.5mil|HoleSize=0mil|Usage=FLASHONLY|Rotation=0.000|XOffset=0mil|YOffset=0mil|HoleType=Round|Shape=RoundedRectangle|*
%AMROUNDEDRECTD159*
21,1,0.1181,0.0591,0,0,0.0*
21,1,0.0591,0.1181,0,0,0.0*
1,1,0.0591,0.0295,-0.0295*
1,1,0.0591,-0.0295,-0.0295*
1,1,0.0591,-0.0295,0.0295*
1,1,0.0591,0.0295,0.0295*
%
%ADD159ROUNDEDRECTD159*%
%ADD160C,0.0394*%
%ADD161R,0.0394X0.0394*%
%ADD162C,0.0315*%
%ADD163C,0.0500*%
%ADD164R,0.1378X0.0630*%
G04:AMPARAMS|DCode=165|XSize=35.4mil|YSize=57.1mil|CornerRadius=1.9mil|HoleSize=0mil|Usage=FLASHONLY|Rotation=0.000|XOffset=0mil|YOffset=0mil|HoleType=Round|Shape=RoundedRectangle|*
%AMROUNDEDRECTD165*
21,1,0.0354,0.0532,0,0,0.0*
21,1,0.0315,0.0571,0,0,0.0*
1,1,0.0039,0.0158,-0.0266*
1,1,0.0039,-0.0158,-0.0266*
1,1,0.0039,-0.0158,0.0266*
1,1,0.0039,0.0158,0.0266*
%
%ADD165ROUNDEDRECTD165*%
G04:AMPARAMS|DCode=166|XSize=124mil|YSize=57.1mil|CornerRadius=2mil|HoleSize=0mil|Usage=FLASHONLY|Rotation=0.000|XOffset=0mil|YOffset=0mil|HoleType=Round|Shape=RoundedRectangle|*
%AMROUNDEDRECTD166*
21,1,0.1240,0.0531,0,0,0.0*
21,1,0.1200,0.0571,0,0,0.0*
1,1,0.0040,0.0600,-0.0265*
1,1,0.0040,-0.0600,-0.0265*
1,1,0.0040,-0.0600,0.0265*
1,1,0.0040,0.0600,0.0265*
%
%ADD166ROUNDEDRECTD166*%
%ADD167R,0.0965X0.0787*%
%ADD168R,0.0846X0.0394*%
%ADD169R,0.0846X0.1280*%
%ADD170C,0.0350*%
G36*
X64764Y55512D02*
X64370Y55118D01*
X57480D01*
X57283Y54921D01*
Y51968D01*
X53346D01*
Y60039D01*
X53740Y60433D01*
X58213D01*
X58258Y60243D01*
X58333Y60062D01*
X58436Y59894D01*
X58564Y59745D01*
X58713Y59617D01*
X58880Y59514D01*
X59062Y59439D01*
X59253Y59393D01*
X59449Y59378D01*
X59645Y59393D01*
X59836Y59439D01*
X60017Y59514D01*
X60185Y59617D01*
X60334Y59745D01*
X60462Y59894D01*
X60564Y60062D01*
X60639Y60243D01*
X60685Y60433D01*
X64764D01*
Y55512D01*
D02*
G37*
G36*
X23228Y59843D02*
X22835Y59449D01*
X19291D01*
X18590Y58748D01*
Y57874D01*
Y57087D01*
Y54485D01*
X18436Y54331D01*
X16142D01*
X15748Y54724D01*
X14961Y55512D01*
Y61811D01*
X15748Y62598D01*
X23228D01*
Y59843D01*
D02*
G37*
G36*
X23118Y52362D02*
Y52252D01*
X22835Y51968D01*
X11811D01*
X9843Y50000D01*
Y46654D01*
X9584Y46395D01*
X3801D01*
X3543Y46654D01*
Y49213D01*
X3839Y49508D01*
X6791D01*
X7099Y49815D01*
Y51267D01*
X10162Y54331D01*
X15354D01*
X15859Y53826D01*
X18787D01*
X19291Y54331D01*
X23118D01*
Y52362D01*
D02*
G37*
G36*
X123906Y62315D02*
Y53839D01*
Y53433D01*
X123430Y52957D01*
X119803D01*
X119599Y53162D01*
Y55130D01*
X119107Y55622D01*
X116646D01*
X116031Y55008D01*
Y54724D01*
Y51894D01*
Y51685D01*
X116179Y51538D01*
X117679Y50037D01*
X117827Y49889D01*
X132677D01*
X132677Y49889D01*
X132677Y49889D01*
X132960D01*
X133969Y50898D01*
Y54331D01*
X134595Y54957D01*
X136079D01*
X136775Y54957D01*
X137598Y54134D01*
Y49803D01*
X136220Y48425D01*
X110630D01*
X110347Y48708D01*
Y55008D01*
X109732Y55622D01*
X107591D01*
X107087Y55102D01*
X102473D01*
Y58157D01*
X101070Y59559D01*
X92630D01*
X90945Y57874D01*
X75984D01*
X73228Y55118D01*
X67323D01*
X66929Y55512D01*
Y62992D01*
X123228D01*
X123906Y62315D01*
D02*
G37*
G36*
X101968Y57874D02*
Y55102D01*
Y52756D01*
X101575Y52362D01*
X100000D01*
X99606Y52756D01*
Y54441D01*
Y55512D01*
X96063D01*
X95276Y54724D01*
Y40945D01*
X94882Y40551D01*
X91339D01*
X90403Y39616D01*
X90403Y39616D01*
X89518Y38730D01*
X89518Y38730D01*
X89370Y38583D01*
Y38374D01*
Y32886D01*
Y32677D01*
X89518Y32529D01*
X89616Y32431D01*
X89764Y32283D01*
X94094D01*
X94488Y32677D01*
Y35039D01*
X95276Y35827D01*
X96850D01*
X97244Y35433D01*
Y31779D01*
Y31102D01*
X97441Y30906D01*
X98150D01*
Y29872D01*
X99094D01*
Y30251D01*
X99610D01*
X99621Y30239D01*
Y29744D01*
X99478D01*
Y29311D01*
X100128D01*
Y29342D01*
X100212D01*
Y29243D01*
X100969D01*
Y29342D01*
X101053D01*
Y29311D01*
X101703D01*
Y29744D01*
X101053D01*
Y29707D01*
X100969D01*
Y29800D01*
X100212D01*
Y29707D01*
X100128D01*
Y29744D01*
X99985D01*
Y30315D01*
X99985Y30315D01*
X99972Y30385D01*
X99932Y30444D01*
X99932Y30444D01*
X99814Y30562D01*
X99755Y30601D01*
X99685Y30615D01*
X99685Y30615D01*
X99094D01*
Y30906D01*
X101968D01*
X102165Y30709D01*
Y30531D01*
X101841D01*
Y30497D01*
X101703D01*
Y30531D01*
X101053D01*
Y30098D01*
X101703D01*
Y30133D01*
X101841D01*
Y30098D01*
X102165D01*
X102411Y29852D01*
Y29244D01*
X102090Y28922D01*
X101772D01*
X101772Y28922D01*
X101772Y28922D01*
X100128D01*
Y28957D01*
X99478D01*
Y28922D01*
X99094D01*
Y29577D01*
X98150D01*
Y28922D01*
X97229D01*
X96457Y28150D01*
X87992D01*
X86614Y29528D01*
Y48032D01*
X88487Y49905D01*
X90456D01*
X91732Y51181D01*
Y57874D01*
X92913Y59055D01*
X100787D01*
X101968Y57874D01*
D02*
G37*
G36*
X49213Y54724D02*
Y52362D01*
X48819Y51968D01*
X42913D01*
X42520Y52362D01*
Y54724D01*
X42913Y55118D01*
X48819D01*
X49213Y54724D01*
D02*
G37*
G36*
X37795D02*
Y52362D01*
X37402Y51968D01*
X31496D01*
X31102Y52362D01*
Y54724D01*
X31496Y55118D01*
X37402D01*
X37795Y54724D01*
D02*
G37*
G36*
X25984Y58661D02*
Y52362D01*
X25591Y51968D01*
X24016D01*
X23622Y52362D01*
Y55906D01*
X23118Y56410D01*
X19181D01*
X19094Y56496D01*
Y58539D01*
X19500Y58945D01*
X25701D01*
X25984Y58661D01*
D02*
G37*
G36*
X86614Y50000D02*
X83563Y46949D01*
X78470D01*
X78346Y46961D01*
X78223Y46949D01*
X77067D01*
X76280Y46161D01*
X68997D01*
X68963Y46198D01*
X68968Y46260D01*
X68955Y46425D01*
X68916Y46586D01*
X68853Y46739D01*
X68766Y46880D01*
X68659Y47005D01*
X68533Y47113D01*
X68392Y47199D01*
X68239Y47263D01*
X68078Y47301D01*
X67913Y47314D01*
X67748Y47301D01*
X67588Y47263D01*
X67435Y47199D01*
X67294Y47113D01*
X67168Y47005D01*
X67060Y46880D01*
X66974Y46739D01*
X66911Y46586D01*
X66872Y46425D01*
X66859Y46260D01*
X66864Y46198D01*
X66830Y46161D01*
X64194D01*
X64160Y46198D01*
X64165Y46260D01*
X64152Y46425D01*
X64113Y46586D01*
X64050Y46739D01*
X63963Y46880D01*
X63856Y47005D01*
X63730Y47113D01*
X63589Y47199D01*
X63436Y47263D01*
X63275Y47301D01*
X63110Y47314D01*
X62945Y47301D01*
X62784Y47263D01*
X62632Y47199D01*
X62490Y47113D01*
X62365Y47005D01*
X62257Y46880D01*
X62171Y46739D01*
X62107Y46586D01*
X62069Y46425D01*
X62056Y46260D01*
X62061Y46198D01*
X62027Y46161D01*
X53642D01*
X53346Y46457D01*
Y51464D01*
X57763D01*
X58268Y51968D01*
X63444D01*
X63461Y51921D01*
X63396Y51868D01*
X63274Y51720D01*
X63184Y51551D01*
X63128Y51368D01*
X63109Y51177D01*
X63128Y50987D01*
X63184Y50803D01*
X63274Y50634D01*
X63396Y50486D01*
X63544Y50365D01*
X63713Y50274D01*
X63896Y50219D01*
X64087Y50200D01*
X64277Y50219D01*
X64461Y50274D01*
X64629Y50365D01*
X64778Y50486D01*
X64899Y50634D01*
X64989Y50803D01*
X65045Y50987D01*
X65064Y51177D01*
X65045Y51368D01*
X64989Y51551D01*
X64899Y51720D01*
X64778Y51868D01*
X64713Y51921D01*
X64729Y51968D01*
X66732D01*
X66732Y51968D01*
X67444D01*
X67461Y51921D01*
X67396Y51868D01*
X67274Y51720D01*
X67184Y51551D01*
X67128Y51368D01*
X67109Y51177D01*
X67128Y50987D01*
X67184Y50803D01*
X67274Y50634D01*
X67396Y50486D01*
X67544Y50365D01*
X67713Y50274D01*
X67896Y50219D01*
X68087Y50200D01*
X68277Y50219D01*
X68461Y50274D01*
X68629Y50365D01*
X68778Y50486D01*
X68899Y50634D01*
X68989Y50803D01*
X69045Y50987D01*
X69064Y51177D01*
X69045Y51368D01*
X68989Y51551D01*
X68899Y51720D01*
X68778Y51868D01*
X68713Y51921D01*
X68729Y51968D01*
X76772Y51968D01*
X77165Y51575D01*
X79921D01*
X80709Y52362D01*
X80709Y56693D01*
X86614D01*
Y50000D01*
D02*
G37*
G36*
X119094Y54921D02*
Y52953D01*
X119598Y52449D01*
X129221D01*
X129921Y53150D01*
Y54331D01*
X130315Y54724D01*
X132677D01*
X133465Y53937D01*
Y51181D01*
X132677Y50394D01*
X118036D01*
X116535Y51894D01*
Y54724D01*
X116929Y55118D01*
X118898D01*
X119094Y54921D01*
D02*
G37*
G36*
X11024Y62205D02*
Y55906D01*
X6594Y51476D01*
Y50591D01*
X6398Y50394D01*
X3740D01*
X3543Y50591D01*
Y53937D01*
X3937Y54331D01*
X5315D01*
X5512Y54528D01*
Y62402D01*
X5709Y62598D01*
X10630D01*
X11024Y62205D01*
D02*
G37*
G36*
X26378Y51181D02*
Y48425D01*
X26344Y48391D01*
X23656D01*
X23228Y48819D01*
X19882D01*
X19685Y48622D01*
Y47441D01*
X18701Y46457D01*
X14567D01*
X13976Y47047D01*
Y48425D01*
X14370Y48819D01*
X17520D01*
X18307Y49606D01*
Y50984D01*
X18787Y51464D01*
X26095D01*
X26378Y51181D01*
D02*
G37*
G36*
X66425Y55512D02*
X66442Y55381D01*
X66492Y55260D01*
X66573Y55155D01*
X66966Y54762D01*
X67071Y54681D01*
X67192Y54631D01*
X67323Y54614D01*
X73228D01*
X73359Y54631D01*
X73481Y54681D01*
X73585Y54762D01*
X76193Y57370D01*
X79921D01*
Y52288D01*
X79712Y52079D01*
X77374D01*
X77128Y52325D01*
X77128Y52325D01*
X77024Y52405D01*
X76902Y52456D01*
X76772Y52473D01*
X68729Y52473D01*
X68684Y52467D01*
X68639Y52465D01*
X68619Y52458D01*
X68599Y52456D01*
X68557Y52438D01*
X68514Y52424D01*
X68496Y52413D01*
X68477Y52405D01*
X68441Y52378D01*
X68403Y52353D01*
X68389Y52338D01*
X68373Y52325D01*
X68345Y52289D01*
X68315Y52256D01*
X68305Y52237D01*
X68293Y52221D01*
X68275Y52179D01*
X68255Y52138D01*
X68254Y52138D01*
X68087Y52154D01*
X67919Y52138D01*
X67919Y52138D01*
X67898Y52179D01*
X67881Y52221D01*
X67868Y52237D01*
X67858Y52256D01*
X67828Y52289D01*
X67800Y52325D01*
X67784Y52338D01*
X67770Y52353D01*
X67732Y52378D01*
X67696Y52405D01*
X67677Y52413D01*
X67659Y52424D01*
X67616Y52438D01*
X67574Y52456D01*
X67554Y52458D01*
X67534Y52465D01*
X67489Y52467D01*
X67444Y52473D01*
X66732D01*
X66732Y52473D01*
X64729D01*
X64684Y52467D01*
X64639Y52465D01*
X64619Y52458D01*
X64599Y52456D01*
X64557Y52438D01*
X64514Y52424D01*
X64496Y52413D01*
X64477Y52405D01*
X64441Y52378D01*
X64403Y52353D01*
X64389Y52338D01*
X64373Y52325D01*
X64345Y52289D01*
X64315Y52256D01*
X64305Y52237D01*
X64293Y52221D01*
X64275Y52179D01*
X64255Y52138D01*
X64254Y52138D01*
X64087Y52154D01*
X63919Y52138D01*
X63919Y52138D01*
X63898Y52179D01*
X63881Y52221D01*
X63868Y52237D01*
X63858Y52256D01*
X63828Y52289D01*
X63800Y52325D01*
X63784Y52338D01*
X63770Y52353D01*
X63732Y52378D01*
X63696Y52405D01*
X63677Y52413D01*
X63659Y52424D01*
X63616Y52438D01*
X63574Y52456D01*
X63554Y52458D01*
X63534Y52465D01*
X63489Y52467D01*
X63444Y52473D01*
X60793D01*
X60765Y52547D01*
X60764Y52573D01*
X60899Y52683D01*
X61016Y52826D01*
X61102Y52988D01*
X61156Y53164D01*
X61174Y53346D01*
X61156Y53529D01*
X61102Y53705D01*
X61016Y53867D01*
X60899Y54009D01*
X60757Y54126D01*
X60595Y54213D01*
X60419Y54266D01*
X60236Y54284D01*
X60053Y54266D01*
X59877Y54213D01*
X59715Y54126D01*
X59573Y54009D01*
X59457Y53867D01*
X59370Y53705D01*
X59317Y53529D01*
X59302Y53383D01*
X59202D01*
X59187Y53529D01*
X59134Y53705D01*
X59047Y53867D01*
X58931Y54009D01*
X58789Y54126D01*
X58627Y54213D01*
X58451Y54266D01*
X58268Y54284D01*
X58085Y54266D01*
X57909Y54213D01*
X57874Y54194D01*
X57788Y54245D01*
Y54614D01*
X64370D01*
X64501Y54631D01*
X64622Y54681D01*
X64727Y54762D01*
X65120Y55155D01*
X65201Y55260D01*
X65251Y55381D01*
X65268Y55512D01*
Y60433D01*
X65251Y60564D01*
X65201Y60685D01*
X65120Y60790D01*
X65016Y60870D01*
X64894Y60920D01*
X64764Y60937D01*
X60685D01*
X60678Y60937D01*
X60672Y60937D01*
X60659Y60935D01*
X60639Y61017D01*
X60564Y61198D01*
X60462Y61366D01*
X60334Y61515D01*
X60185Y61643D01*
X60017Y61745D01*
X59836Y61821D01*
X59645Y61866D01*
X59449Y61882D01*
X59253Y61866D01*
X59062Y61821D01*
X58880Y61745D01*
X58713Y61643D01*
X58564Y61515D01*
X58436Y61366D01*
X58333Y61198D01*
X58258Y61017D01*
X58239Y60935D01*
X58226Y60937D01*
X58219Y60937D01*
X58213Y60937D01*
X53740D01*
X53610Y60920D01*
X53488Y60870D01*
X53384Y60790D01*
X52990Y60396D01*
X52910Y60292D01*
X52859Y60170D01*
X52842Y60039D01*
Y54336D01*
X52205D01*
X52058Y54322D01*
X51916Y54279D01*
X51786Y54209D01*
X51672Y54116D01*
X51042Y53486D01*
X50948Y53371D01*
X50879Y53241D01*
X50836Y53100D01*
X50821Y52953D01*
Y49640D01*
X49809Y48628D01*
X49717Y48666D01*
Y50787D01*
X49700Y50918D01*
X49649Y51040D01*
X49569Y51144D01*
X49205Y51508D01*
X49186Y51575D01*
X49205Y51641D01*
X49569Y52006D01*
X49649Y52110D01*
X49700Y52232D01*
X49717Y52362D01*
Y54724D01*
X49700Y54855D01*
X49649Y54977D01*
X49569Y55081D01*
X49176Y55475D01*
X49071Y55555D01*
X48949Y55605D01*
X48819Y55622D01*
X42913D01*
X42783Y55605D01*
X42661Y55555D01*
X42557Y55475D01*
X42163Y55081D01*
X42083Y54977D01*
X42033Y54855D01*
X42015Y54724D01*
Y52362D01*
X42033Y52232D01*
X42083Y52110D01*
X42163Y52006D01*
X42527Y51641D01*
X42546Y51575D01*
X42527Y51508D01*
X42163Y51144D01*
X42083Y51040D01*
X42033Y50918D01*
X42015Y50787D01*
Y50360D01*
X41339D01*
X41192Y50345D01*
X41050Y50303D01*
X40920Y50233D01*
X40806Y50139D01*
X40412Y49745D01*
X40318Y49631D01*
X40249Y49501D01*
X40206Y49360D01*
X40191Y49213D01*
Y40643D01*
X40115Y40501D01*
X40064Y40333D01*
X40047Y40157D01*
X40064Y39982D01*
X40115Y39814D01*
X40198Y39659D01*
X40310Y39522D01*
X40446Y39411D01*
X40601Y39328D01*
X40770Y39277D01*
X40945Y39259D01*
X41120Y39277D01*
X41289Y39328D01*
X41444Y39411D01*
X41580Y39522D01*
X41692Y39659D01*
X41775Y39814D01*
X41826Y39982D01*
X41843Y40157D01*
X41826Y40333D01*
X41775Y40501D01*
X41699Y40643D01*
Y48853D01*
X42015D01*
Y48425D01*
X42033Y48295D01*
X42083Y48173D01*
X42163Y48069D01*
X42557Y47675D01*
X42661Y47595D01*
X42783Y47544D01*
X42913Y47527D01*
X48578D01*
X48616Y47435D01*
X44708Y43526D01*
Y36899D01*
X43471Y35663D01*
X43471Y35663D01*
X43471Y35663D01*
X43330Y35521D01*
X38802D01*
X37639Y34358D01*
X28379D01*
X28346Y34363D01*
X0D01*
Y62992D01*
X5248D01*
X5289Y62892D01*
X5155Y62758D01*
X5075Y62654D01*
X5025Y62532D01*
X5008Y62402D01*
Y54835D01*
X3937D01*
X3806Y54818D01*
X3685Y54767D01*
X3580Y54687D01*
X3187Y54294D01*
X3107Y54189D01*
X3056Y54068D01*
X3039Y53937D01*
Y50591D01*
X3056Y50460D01*
X3107Y50338D01*
X3187Y50234D01*
X3384Y50037D01*
X3463Y49976D01*
X3478Y49889D01*
X3473Y49855D01*
X3187Y49569D01*
X3107Y49465D01*
X3056Y49343D01*
X3039Y49213D01*
Y46654D01*
X3056Y46523D01*
X3107Y46401D01*
X3187Y46297D01*
X3445Y46039D01*
X3549Y45959D01*
X3671Y45908D01*
X3801Y45891D01*
X9584D01*
X9715Y45908D01*
X9837Y45959D01*
X9941Y46039D01*
X10199Y46297D01*
X10279Y46401D01*
X10330Y46523D01*
X10347Y46654D01*
Y49791D01*
X10538Y49983D01*
X10642Y49945D01*
X10656Y49809D01*
X10711Y49626D01*
X10802Y49457D01*
X10923Y49309D01*
X11071Y49188D01*
X11240Y49097D01*
X11424Y49042D01*
X11614Y49023D01*
X11805Y49042D01*
X11983Y49096D01*
X12001Y49100D01*
X12083Y49051D01*
Y48193D01*
X12001Y48144D01*
X11983Y48148D01*
X11805Y48202D01*
X11614Y48221D01*
X11424Y48202D01*
X11240Y48147D01*
X11071Y48057D01*
X10923Y47935D01*
X10802Y47787D01*
X10711Y47618D01*
X10656Y47435D01*
X10637Y47244D01*
X10656Y47053D01*
X10711Y46870D01*
X10802Y46701D01*
X10923Y46553D01*
X11071Y46432D01*
X11240Y46341D01*
X11424Y46286D01*
X11614Y46267D01*
X11805Y46286D01*
X11983Y46340D01*
X12001Y46344D01*
X12083Y46295D01*
Y41339D01*
Y38346D01*
X11499Y37761D01*
X11068D01*
X11046Y37774D01*
X10890Y37821D01*
X10728Y37837D01*
X10567Y37821D01*
X10411Y37774D01*
X10268Y37697D01*
X10142Y37594D01*
X10039Y37468D01*
X9963Y37325D01*
X9915Y37170D01*
X9900Y37008D01*
X9915Y36846D01*
X9963Y36691D01*
X10039Y36547D01*
X10142Y36422D01*
X10268Y36319D01*
X10411Y36242D01*
X10567Y36195D01*
X10728Y36179D01*
X10890Y36195D01*
X11046Y36242D01*
X11068Y36254D01*
X11811D01*
X11958Y36269D01*
X12099Y36312D01*
X12230Y36381D01*
X12344Y36475D01*
X13370Y37501D01*
X13463Y37615D01*
X13533Y37745D01*
X13576Y37886D01*
X13590Y38033D01*
Y40585D01*
X16578D01*
X16725Y40599D01*
X16866Y40642D01*
X16997Y40712D01*
X17111Y40806D01*
X17559Y41254D01*
X17648Y41201D01*
X17623Y41120D01*
X17606Y40945D01*
X17623Y40770D01*
X17674Y40601D01*
X17757Y40446D01*
X17869Y40310D01*
X18005Y40198D01*
X18160Y40115D01*
X18329Y40064D01*
X18504Y40047D01*
X18679Y40064D01*
X18848Y40115D01*
X19003Y40198D01*
X19139Y40310D01*
X19251Y40446D01*
X19334Y40601D01*
X19385Y40770D01*
X19402Y40945D01*
X19385Y41120D01*
X19334Y41289D01*
X19251Y41444D01*
X19139Y41580D01*
X19003Y41692D01*
X18848Y41775D01*
X18679Y41826D01*
X18504Y41843D01*
X18329Y41826D01*
X18248Y41801D01*
X18195Y41890D01*
X20255Y43950D01*
X20349Y44064D01*
X20349Y44065D01*
X20445Y44094D01*
X20522Y44052D01*
X20691Y44001D01*
X20866Y43984D01*
X21041Y44001D01*
X21210Y44052D01*
X21352Y44128D01*
X21587D01*
Y41114D01*
X18234Y37761D01*
X16580D01*
X16557Y37774D01*
X16402Y37821D01*
X16240Y37837D01*
X16078Y37821D01*
X15923Y37774D01*
X15780Y37697D01*
X15654Y37594D01*
X15551Y37468D01*
X15474Y37325D01*
X15427Y37170D01*
X15411Y37008D01*
X15427Y36846D01*
X15474Y36691D01*
X15551Y36547D01*
X15654Y36422D01*
X15780Y36319D01*
X15923Y36242D01*
X16078Y36195D01*
X16240Y36179D01*
X16402Y36195D01*
X16557Y36242D01*
X16580Y36254D01*
X18547D01*
X18694Y36269D01*
X18835Y36312D01*
X18965Y36381D01*
X19079Y36475D01*
X22873Y40269D01*
X22967Y40383D01*
X23036Y40513D01*
X23079Y40654D01*
X23094Y40801D01*
Y44128D01*
X28150D01*
X28297Y44143D01*
X28438Y44186D01*
X28568Y44255D01*
X28682Y44349D01*
X30454Y46121D01*
X30548Y46235D01*
X30618Y46365D01*
X30660Y46507D01*
X30675Y46654D01*
Y47998D01*
X30775Y48039D01*
X31139Y47675D01*
X31244Y47595D01*
X31366Y47544D01*
X31496Y47527D01*
X37402D01*
X37532Y47544D01*
X37654Y47595D01*
X37758Y47675D01*
X38152Y48069D01*
X38232Y48173D01*
X38282Y48295D01*
X38300Y48425D01*
Y50787D01*
X38282Y50918D01*
X38232Y51040D01*
X38152Y51144D01*
X37788Y51508D01*
X37769Y51575D01*
X37788Y51641D01*
X38152Y52006D01*
X38232Y52110D01*
X38282Y52232D01*
X38300Y52362D01*
Y54724D01*
X38282Y54855D01*
X38232Y54977D01*
X38152Y55081D01*
X37758Y55475D01*
X37654Y55555D01*
X37532Y55605D01*
X37402Y55622D01*
X31496D01*
X31366Y55605D01*
X31244Y55555D01*
X31139Y55475D01*
X30746Y55081D01*
X30666Y54977D01*
X30615Y54855D01*
X30598Y54724D01*
Y54297D01*
X30512D01*
X30365Y54282D01*
X30223Y54240D01*
X30093Y54170D01*
X29979Y54076D01*
X29388Y53486D01*
X29311Y53392D01*
X29196Y53366D01*
X28486Y54076D01*
X28371Y54170D01*
X28241Y54240D01*
X28100Y54282D01*
X27953Y54297D01*
X26489D01*
Y58661D01*
X26471Y58792D01*
X26421Y58914D01*
X26341Y59018D01*
X26058Y59301D01*
X25953Y59381D01*
X25832Y59432D01*
X25701Y59449D01*
X23683D01*
X23633Y59549D01*
X23665Y59590D01*
X23715Y59712D01*
X23733Y59843D01*
Y62598D01*
X23715Y62729D01*
X23665Y62851D01*
X23633Y62892D01*
X23683Y62992D01*
X66425D01*
Y55512D01*
D02*
G37*
G36*
X49213Y50787D02*
Y48425D01*
X48819Y48032D01*
X42913D01*
X42520Y48425D01*
Y50787D01*
X42913Y51181D01*
X48819D01*
X49213Y50787D01*
D02*
G37*
G36*
X37795D02*
Y48425D01*
X37402Y48032D01*
X31496D01*
X31102Y48425D01*
Y50787D01*
X31496Y51181D01*
X37402D01*
X37795Y50787D01*
D02*
G37*
G36*
X109843Y54724D02*
Y48425D01*
X110630Y47638D01*
X135827D01*
Y44094D01*
X135433Y43701D01*
X127559D01*
X126882Y44378D01*
Y45473D01*
X126772Y45584D01*
X126735Y45632D01*
X126341Y46026D01*
X126293Y46063D01*
X126025Y46330D01*
X122740D01*
X122126Y45716D01*
Y45464D01*
X122112Y45407D01*
X122099Y45236D01*
Y44055D01*
X122112Y43884D01*
X122126Y43828D01*
Y43780D01*
X121811Y43465D01*
X120533D01*
X120508Y43515D01*
X120559Y43581D01*
X120615Y43715D01*
X120633Y43858D01*
Y45276D01*
X120615Y45419D01*
X120559Y45553D01*
X120471Y45668D01*
X120356Y45756D01*
X120222Y45811D01*
X120079Y45830D01*
X119935Y45811D01*
X119801Y45756D01*
X119686Y45668D01*
X119598Y45553D01*
X119543Y45419D01*
X119524Y45276D01*
Y43858D01*
X119543Y43715D01*
X119598Y43581D01*
X119649Y43515D01*
X119625Y43465D01*
X104099D01*
X103528Y44036D01*
X103543Y44051D01*
Y47638D01*
X103937Y48032D01*
X105906D01*
X106299Y48425D01*
X107480Y49606D01*
Y54724D01*
X107874Y55118D01*
X109449D01*
X109843Y54724D01*
D02*
G37*
G36*
X14210Y46100D02*
X14315Y46020D01*
X14436Y45970D01*
X14567Y45952D01*
X18701D01*
X18831Y45970D01*
X18869Y45985D01*
X18969Y45918D01*
Y44795D01*
X16266Y42092D01*
X13590D01*
Y46579D01*
X13690Y46620D01*
X14210Y46100D01*
D02*
G37*
G36*
X86417Y35039D02*
X86024Y34646D01*
Y32603D01*
X85716Y32296D01*
Y31582D01*
X84843Y30709D01*
X71850D01*
X71457Y30315D01*
Y25787D01*
X74606D01*
X74803Y25591D01*
Y24626D01*
X74675D01*
Y24193D01*
X74803D01*
Y24016D01*
X74606Y23819D01*
X74537D01*
Y23839D01*
X73888D01*
Y23819D01*
X71457D01*
Y15354D01*
X71143Y15041D01*
X53543D01*
X53543Y15041D01*
X53543Y15041D01*
X53510D01*
X53487Y15017D01*
X53487Y15017D01*
X53487Y15017D01*
X51912Y13443D01*
X51912Y13443D01*
X51888Y13419D01*
Y13386D01*
Y4644D01*
X51870Y4626D01*
X43884D01*
X43861Y4602D01*
X43782Y4523D01*
X43758Y4500D01*
Y4467D01*
Y2026D01*
X43521Y1788D01*
X35253D01*
X35236Y1772D01*
X35039Y1969D01*
Y5315D01*
X35039Y9252D01*
Y9449D01*
X37008D01*
Y6299D01*
X37205Y6102D01*
X39880D01*
X39889Y6030D01*
X39917Y5963D01*
X39961Y5906D01*
X40019Y5862D01*
X40086Y5834D01*
X40157Y5824D01*
X40229Y5834D01*
X40296Y5862D01*
X40354Y5906D01*
X40398Y5963D01*
X40426Y6030D01*
X40435Y6102D01*
X44291D01*
X45079Y6890D01*
X45669Y7480D01*
Y20276D01*
X43110Y22835D01*
X37992D01*
X37795Y22638D01*
Y21260D01*
X37008D01*
Y26772D01*
X37795D01*
Y25000D01*
X38189Y24606D01*
X45276D01*
X48425Y21457D01*
Y20276D01*
X49163Y19537D01*
X49803Y18898D01*
X51181D01*
X51378Y19094D01*
Y20472D01*
X52165D01*
Y19094D01*
X52362Y18898D01*
X57455D01*
X57566Y18787D01*
X57612Y18741D01*
X66969D01*
X68307Y20079D01*
Y21446D01*
X68716D01*
X68759Y21413D01*
X68826Y21385D01*
X68898Y21376D01*
X68970Y21385D01*
X69037Y21413D01*
X69094Y21457D01*
X69138Y21515D01*
X69166Y21582D01*
X69176Y21654D01*
X69166Y21725D01*
X69138Y21793D01*
X69094Y21850D01*
X69037Y21894D01*
X68970Y21922D01*
X68898Y21932D01*
X68826Y21922D01*
X68759Y21894D01*
X68716Y21861D01*
X68307D01*
Y25657D01*
X68333Y25695D01*
X68351Y25787D01*
X68333Y25880D01*
X68307Y25918D01*
Y33071D01*
X68898Y33661D01*
X82677D01*
X83071Y34055D01*
Y40591D01*
X84615D01*
X84646Y40551D01*
X84704Y40507D01*
X84771Y40480D01*
X84843Y40470D01*
X84914Y40480D01*
X84981Y40507D01*
X85039Y40551D01*
X85083Y40609D01*
X85111Y40676D01*
X85120Y40748D01*
X85111Y40820D01*
X85083Y40887D01*
X85039Y40945D01*
X84981Y40989D01*
X84914Y41017D01*
X84843Y41026D01*
X84771Y41017D01*
X84704Y40989D01*
X84646Y40945D01*
X84615Y40905D01*
X83071D01*
Y43307D01*
X83661Y43898D01*
X86417D01*
Y35039D01*
D02*
G37*
G36*
X99102Y54441D02*
Y52547D01*
X99791Y51858D01*
X101364D01*
X102079Y51858D01*
X103024Y50913D01*
Y49134D01*
Y43827D01*
X103937Y42913D01*
X122441D01*
X122835Y43307D01*
Y45276D01*
X123228Y45669D01*
X125984D01*
X126378Y45276D01*
Y40157D01*
X125591Y39370D01*
X102288D01*
X101894Y39764D01*
X96457D01*
X96063Y40157D01*
Y51732D01*
X96583Y52252D01*
X96938D01*
X97441Y52755D01*
Y54528D01*
X97638Y54724D01*
X98819D01*
X99102Y54441D01*
D02*
G37*
G36*
X49374Y33623D02*
X49365Y33579D01*
X49384Y33487D01*
X49436Y33409D01*
X49514Y33356D01*
X49606Y33338D01*
X49698Y33356D01*
X49721Y33371D01*
X53073D01*
X53088Y33335D01*
X53090Y33321D01*
X53053Y33285D01*
X53036Y33259D01*
X53030Y33228D01*
Y31830D01*
X52736D01*
Y31870D01*
X52202D01*
Y31872D01*
X52184Y31961D01*
X52133Y32036D01*
X51958Y32212D01*
X51882Y32263D01*
X51793Y32280D01*
X47008D01*
X46919Y32263D01*
X46843Y32212D01*
X46685Y32055D01*
X46635Y31979D01*
X46617Y31890D01*
Y31514D01*
X46142D01*
Y31395D01*
X45979D01*
Y31514D01*
X45432D01*
Y32598D01*
X45434Y32599D01*
X45500Y32649D01*
X45551Y32715D01*
X45582Y32792D01*
X45593Y32874D01*
X45582Y32956D01*
X45551Y33033D01*
X45500Y33099D01*
X45434Y33149D01*
X45358Y33181D01*
X45276Y33192D01*
X45193Y33181D01*
X45117Y33149D01*
X45051Y33099D01*
X45000Y33033D01*
X44969Y32956D01*
X44958Y32874D01*
X44969Y32792D01*
X45000Y32715D01*
X45051Y32649D01*
X45117Y32599D01*
X45119Y32598D01*
Y31514D01*
X44561D01*
Y30962D01*
X45979D01*
Y31081D01*
X46142D01*
Y30962D01*
X47559D01*
Y31514D01*
X47084D01*
Y31793D01*
X47104Y31814D01*
X51696D01*
X51735Y31775D01*
Y31278D01*
X51753Y31189D01*
X51804Y31113D01*
X51979Y30937D01*
X52055Y30887D01*
X52144Y30869D01*
X53447D01*
X53507Y30809D01*
Y29567D01*
X53032D01*
Y29016D01*
X53583D01*
Y28608D01*
X53478Y28503D01*
X51575D01*
X51515Y28491D01*
X51464Y28457D01*
X51070Y28064D01*
X51036Y28013D01*
X51024Y27953D01*
Y27406D01*
X50940Y27322D01*
X50280D01*
X50256Y27362D01*
X50256Y27372D01*
Y27599D01*
X50394D01*
X50454Y27611D01*
X50505Y27645D01*
X51489Y28629D01*
X51523Y28680D01*
X51535Y28740D01*
Y29142D01*
X51674D01*
X51712Y29149D01*
X51744Y29171D01*
X51759Y29194D01*
X51881D01*
X51941Y29206D01*
X51991Y29240D01*
X52079Y29327D01*
X52113Y29378D01*
X52125Y29438D01*
Y30621D01*
X52113Y30681D01*
X52079Y30732D01*
X51991Y30819D01*
X51941Y30853D01*
X51881Y30865D01*
X51535D01*
Y31102D01*
X51654D01*
Y31496D01*
X51102D01*
Y31102D01*
X51221D01*
Y30865D01*
X51063D01*
X51063Y30868D01*
X51012Y30933D01*
X50946Y30984D01*
X50870Y31016D01*
X50787Y31026D01*
X50705Y31016D01*
X50629Y30984D01*
X50563Y30933D01*
X50512Y30868D01*
X50481Y30791D01*
X50470Y30709D01*
X50481Y30626D01*
X50512Y30550D01*
X50563Y30484D01*
X50629Y30434D01*
X50705Y30402D01*
X50787Y30391D01*
X50870Y30402D01*
X50946Y30434D01*
X51012Y30484D01*
X51063Y30550D01*
X51063Y30552D01*
X51812D01*
Y30260D01*
X51786Y30252D01*
X51762Y30252D01*
X51744Y30278D01*
X51712Y30299D01*
X51674Y30307D01*
X51240D01*
X51201Y30299D01*
X51169Y30278D01*
X51154Y30255D01*
X50875D01*
X50815Y30243D01*
X50764Y30209D01*
X50677Y30121D01*
X50643Y30071D01*
X50631Y30011D01*
Y28805D01*
X50526Y28700D01*
X49079D01*
X49055Y28740D01*
Y29528D01*
X48966D01*
Y29836D01*
X49238D01*
Y30794D01*
X48966D01*
Y30906D01*
X49055D01*
Y31693D01*
X48563D01*
Y30906D01*
X48652D01*
Y30794D01*
X48481D01*
Y29836D01*
X48652D01*
Y29528D01*
X48563D01*
Y29291D01*
X48425D01*
X48365Y29279D01*
X48314Y29245D01*
X48118Y29048D01*
X48084Y28997D01*
X48072Y28937D01*
Y26732D01*
X47126D01*
X47126Y26734D01*
X47075Y26799D01*
X47009Y26850D01*
X46933Y26882D01*
X46850Y26892D01*
X46768Y26882D01*
X46692Y26850D01*
X46626Y26799D01*
X46575Y26734D01*
X46544Y26657D01*
X46533Y26575D01*
X46544Y26493D01*
X46575Y26416D01*
X46626Y26350D01*
X46692Y26300D01*
X46768Y26268D01*
X46850Y26257D01*
X46933Y26268D01*
X47009Y26300D01*
X47075Y26350D01*
X47126Y26416D01*
X47126Y26418D01*
X48563D01*
Y26181D01*
X49055D01*
Y26969D01*
X48563D01*
Y26732D01*
X48385D01*
Y28872D01*
X48490Y28977D01*
X48563D01*
Y28740D01*
X48652D01*
Y28631D01*
X48664Y28571D01*
X48698Y28520D01*
X48786Y28432D01*
X48837Y28398D01*
X48897Y28387D01*
X50591D01*
X50651Y28398D01*
X50701Y28432D01*
X50898Y28629D01*
X50932Y28680D01*
X50944Y28740D01*
Y29942D01*
X51154D01*
X51169Y29919D01*
X51201Y29897D01*
X51240Y29890D01*
X51674D01*
X51712Y29897D01*
X51744Y29919D01*
X51762Y29945D01*
X51786Y29945D01*
X51812Y29937D01*
Y29507D01*
X51759D01*
X51744Y29530D01*
X51712Y29551D01*
X51674Y29559D01*
X51240D01*
X51201Y29551D01*
X51169Y29530D01*
X51147Y29497D01*
X51140Y29459D01*
Y29242D01*
X51147Y29203D01*
X51169Y29171D01*
X51201Y29149D01*
X51221Y29145D01*
Y28805D01*
X50329Y27913D01*
X50256D01*
Y28150D01*
X49764D01*
Y27372D01*
X49764Y27362D01*
X49740Y27322D01*
X49566D01*
Y27668D01*
X49554Y27728D01*
X49520Y27779D01*
X49432Y27867D01*
X49382Y27901D01*
X49322Y27913D01*
X49055D01*
Y28150D01*
X48563D01*
Y27362D01*
X49055D01*
Y27599D01*
X49253D01*
Y27253D01*
X49265Y27193D01*
X49299Y27142D01*
X49386Y27055D01*
X49437Y27021D01*
X49497Y27009D01*
X49740D01*
X49764Y26969D01*
X49764Y26959D01*
Y26181D01*
X50256D01*
Y26418D01*
X51171D01*
X51231Y26430D01*
X51282Y26464D01*
X51905Y27087D01*
X52805D01*
Y28031D01*
X51683D01*
Y27308D01*
X51106Y26732D01*
X50256D01*
Y26959D01*
X50256Y26969D01*
X50280Y27009D01*
X51005D01*
X51065Y27021D01*
X51116Y27055D01*
X51292Y27230D01*
X51326Y27281D01*
X51338Y27341D01*
Y27888D01*
X51640Y28190D01*
X53543D01*
X53603Y28202D01*
X53654Y28236D01*
X53851Y28432D01*
X53885Y28483D01*
X53897Y28543D01*
Y29016D01*
X54449D01*
Y29567D01*
X53973D01*
Y30906D01*
X53956Y30995D01*
X53905Y31070D01*
X53708Y31267D01*
X53633Y31318D01*
X53543Y31336D01*
X52241D01*
X52202Y31375D01*
Y31476D01*
X52736D01*
Y31516D01*
X53032D01*
Y31457D01*
X53075D01*
X53093Y31439D01*
X53119Y31422D01*
X53150Y31416D01*
X54739D01*
Y27752D01*
X54729Y27741D01*
X54222D01*
Y28031D01*
X53100D01*
Y27087D01*
X53330D01*
Y26654D01*
X53100D01*
Y25709D01*
X53071Y25671D01*
X52835D01*
X52805Y25709D01*
X52805Y25721D01*
Y26654D01*
X51683D01*
Y25930D01*
X51500Y25747D01*
X50256D01*
Y25984D01*
X49764D01*
Y25197D01*
X50256D01*
Y25434D01*
X51565D01*
X51625Y25446D01*
X51676Y25480D01*
X51905Y25709D01*
X52314D01*
X52316Y25703D01*
X52322Y25659D01*
X52305Y25647D01*
X51321Y24663D01*
X51304Y24637D01*
X51298Y24606D01*
Y20866D01*
X51304Y20835D01*
X51321Y20809D01*
X51347Y20792D01*
X51378Y20786D01*
X51765D01*
X51772Y20785D01*
X51778Y20786D01*
X52165D01*
X52196Y20792D01*
X52222Y20809D01*
X52240Y20835D01*
X52246Y20866D01*
Y24179D01*
X52789Y24723D01*
X54134D01*
X54134Y24723D01*
X54165Y24729D01*
X54191Y24746D01*
X54191Y24746D01*
X55234Y25790D01*
X55252Y25816D01*
X55258Y25847D01*
Y26601D01*
X56159Y27502D01*
X56177Y27528D01*
X56183Y27559D01*
Y28313D01*
X56332Y28463D01*
X61581D01*
X61928Y28116D01*
Y25033D01*
X61778Y24883D01*
X60630D01*
X60599Y24877D01*
X60573Y24860D01*
X60573Y24860D01*
X60545Y24831D01*
X60527Y24805D01*
X60521Y24775D01*
Y23847D01*
X60521Y23847D01*
X60527Y23817D01*
X60545Y23791D01*
X60672Y23664D01*
X60698Y23646D01*
X60728Y23640D01*
X62894D01*
X62894Y23640D01*
X62924Y23646D01*
X62950Y23664D01*
X63049Y23762D01*
X63049Y23762D01*
X63066Y23788D01*
X63072Y23819D01*
Y24424D01*
X63410D01*
Y23934D01*
X63803D01*
Y24424D01*
X64158D01*
Y23934D01*
X64551D01*
Y24029D01*
X64833D01*
Y23996D01*
X64975D01*
Y23657D01*
X64389Y23070D01*
X64349Y23011D01*
X64335Y22942D01*
X64335Y22942D01*
Y21437D01*
X64242D01*
Y21422D01*
X62776D01*
X62776Y21422D01*
X62706Y21409D01*
X62647Y21369D01*
X62647Y21369D01*
X61932Y20655D01*
X61398D01*
Y21043D01*
X61253D01*
X61230Y21079D01*
X60196Y22112D01*
Y25140D01*
X60210Y25149D01*
X60262Y25227D01*
X60280Y25319D01*
X60262Y25411D01*
X60210Y25489D01*
X60132Y25541D01*
X60039Y25560D01*
X59947Y25541D01*
X59869Y25489D01*
X59817Y25411D01*
X59799Y25319D01*
X59817Y25227D01*
X59869Y25149D01*
X59883Y25140D01*
Y22204D01*
X59468D01*
Y22372D01*
X59035D01*
Y21722D01*
X59468D01*
Y21890D01*
X59974D01*
X60846Y21018D01*
Y20655D01*
X60315D01*
Y20669D01*
X59764D01*
Y20276D01*
X60315D01*
Y20290D01*
X62008D01*
X62008Y20290D01*
X62078Y20304D01*
X62137Y20344D01*
X62851Y21058D01*
X63159D01*
Y20669D01*
X63297D01*
X63340Y20640D01*
X63432Y20622D01*
X63524Y20640D01*
X63567Y20669D01*
X63711D01*
Y21058D01*
X64242D01*
Y21043D01*
X64793D01*
Y21332D01*
X64819Y21372D01*
X64994D01*
Y21245D01*
X64872D01*
Y20487D01*
X64998D01*
Y20404D01*
X64941D01*
Y19754D01*
X64892Y19751D01*
X64870D01*
Y19054D01*
X57742D01*
X57440Y19356D01*
Y20639D01*
X57480Y20670D01*
X57524Y20727D01*
X57552Y20794D01*
X57561Y20866D01*
X57552Y20938D01*
X57524Y21005D01*
X57480Y21063D01*
X57422Y21107D01*
X57355Y21135D01*
X57283Y21144D01*
X57212Y21135D01*
X57144Y21107D01*
X57087Y21063D01*
X57043Y21005D01*
X57015Y20938D01*
X57006Y20866D01*
X57015Y20794D01*
X57043Y20727D01*
X57087Y20670D01*
X57127Y20639D01*
Y19291D01*
X57139Y19231D01*
X57173Y19181D01*
X57329Y19024D01*
X57310Y18978D01*
X52395D01*
X52246Y19128D01*
Y20068D01*
X53543D01*
X53623Y20084D01*
X53690Y20129D01*
X53887Y20326D01*
X53887Y20326D01*
X53932Y20393D01*
X53948Y20472D01*
Y21567D01*
X54220Y21840D01*
X58248D01*
Y21722D01*
X58681D01*
Y22372D01*
X58672D01*
Y22799D01*
X58697Y22824D01*
X59220D01*
X59300Y22840D01*
X59367Y22885D01*
X59514Y23031D01*
X59514Y23031D01*
X59559Y23098D01*
X59575Y23178D01*
Y27641D01*
X59559Y27720D01*
X59514Y27788D01*
X59202Y28100D01*
X59135Y28145D01*
X59055Y28160D01*
X57087D01*
X57007Y28145D01*
X56940Y28100D01*
X56743Y27903D01*
X56698Y27835D01*
X56682Y27756D01*
Y27490D01*
X56673D01*
Y26841D01*
X57106D01*
Y27490D01*
X57098D01*
Y27670D01*
X57173Y27745D01*
X58969D01*
X59159Y27555D01*
Y25088D01*
X59041D01*
Y25787D01*
X59041Y25787D01*
X59027Y25857D01*
X58987Y25916D01*
X58790Y26113D01*
X58731Y26153D01*
X58661Y26166D01*
X58661Y26166D01*
X58297D01*
Y26181D01*
X58204D01*
Y26713D01*
X58190Y26782D01*
X58151Y26841D01*
X58151Y26841D01*
X57894Y27098D01*
Y27490D01*
X57461D01*
Y26841D01*
X57636D01*
X57839Y26637D01*
Y26181D01*
X57746D01*
Y25787D01*
X58297D01*
Y25802D01*
X58586D01*
X58676Y25712D01*
Y25088D01*
X58480D01*
Y24941D01*
X56899D01*
X56880Y24987D01*
X57050Y25156D01*
X57084Y25207D01*
X57096Y25267D01*
Y25413D01*
X57215D01*
Y25807D01*
X56663D01*
Y25413D01*
X56782D01*
Y25332D01*
X56619Y25169D01*
X55327D01*
X55267Y25157D01*
X55216Y25123D01*
X54804Y24711D01*
X54770Y24660D01*
X54758Y24600D01*
Y23224D01*
X54770Y23164D01*
X54804Y23113D01*
X55061Y22856D01*
X55112Y22822D01*
X55172Y22810D01*
X56469D01*
X56478Y22797D01*
X56556Y22745D01*
X56648Y22726D01*
X56740Y22745D01*
X56818Y22797D01*
X56871Y22875D01*
X56889Y22967D01*
X56871Y23059D01*
X56818Y23137D01*
X56740Y23190D01*
X56648Y23208D01*
X56556Y23190D01*
X56478Y23137D01*
X56469Y23124D01*
X55237D01*
X55198Y23162D01*
X55217Y23209D01*
X55640D01*
Y23278D01*
X55876D01*
Y23248D01*
X56427D01*
Y23642D01*
X55876D01*
Y23592D01*
X55640D01*
Y23642D01*
X55072D01*
Y23996D01*
X55640D01*
Y24429D01*
X55497D01*
Y24566D01*
X55508Y24576D01*
X58480D01*
Y24531D01*
X59159D01*
Y24288D01*
X58480D01*
Y24166D01*
X58068D01*
X58008Y24154D01*
X57958Y24120D01*
X57813Y23976D01*
X57510D01*
Y24016D01*
X57365D01*
X57326Y24041D01*
X57234Y24060D01*
X57142Y24041D01*
X57104Y24016D01*
X56959D01*
Y23622D01*
X57104D01*
X57142Y23596D01*
X57234Y23578D01*
X57326Y23596D01*
X57365Y23622D01*
X57510D01*
Y23662D01*
X57878D01*
X57938Y23674D01*
X57989Y23708D01*
X58133Y23853D01*
X58480D01*
Y23731D01*
X59159D01*
Y23264D01*
X59134Y23239D01*
X58611D01*
X58532Y23223D01*
X58464Y23178D01*
X58464Y23178D01*
X58318Y23032D01*
X58273Y22965D01*
X58257Y22885D01*
Y22372D01*
X58248D01*
Y22255D01*
X54134D01*
X54054Y22239D01*
X53987Y22194D01*
X53987Y22194D01*
X53593Y21800D01*
X53548Y21733D01*
X53532Y21654D01*
Y20558D01*
X53457Y20483D01*
X52243D01*
X52240Y20503D01*
X52222Y20529D01*
X52196Y20547D01*
X52165Y20553D01*
X51378D01*
X51347Y20547D01*
X51321Y20529D01*
X51304Y20503D01*
X51298Y20472D01*
Y19128D01*
X51148Y18978D01*
X49836D01*
X49220Y19594D01*
X49220Y19594D01*
X48505Y20309D01*
Y21457D01*
X48505Y21457D01*
X48499Y21487D01*
X48482Y21513D01*
X48482Y21513D01*
X45332Y24663D01*
X45306Y24680D01*
X45276Y24687D01*
X38222D01*
X37876Y25033D01*
Y26772D01*
X37869Y26802D01*
X37852Y26828D01*
X37826Y26846D01*
X37795Y26852D01*
X37008D01*
X36977Y26846D01*
X36951Y26828D01*
X36934Y26802D01*
X36928Y26772D01*
Y21260D01*
X36934Y21229D01*
X36951Y21203D01*
X36977Y21186D01*
X37008Y21180D01*
X37795D01*
X37826Y21186D01*
X37852Y21203D01*
X37869Y21229D01*
X37876Y21260D01*
Y22605D01*
X38025Y22754D01*
X43077D01*
X45589Y20242D01*
Y16175D01*
Y7514D01*
X44258Y6183D01*
X43382D01*
X43377Y6231D01*
X43377Y6233D01*
Y6330D01*
X43461D01*
Y6299D01*
X44111D01*
Y6732D01*
X43461D01*
Y6695D01*
X43377D01*
Y6788D01*
X42620D01*
Y6675D01*
X42057D01*
Y6712D01*
X41407D01*
Y6279D01*
X42057D01*
Y6311D01*
X42620D01*
Y6233D01*
X42620Y6231D01*
X42615Y6183D01*
X40435D01*
X40425Y6181D01*
X40423Y6180D01*
X40398Y6241D01*
X40354Y6299D01*
X40340Y6310D01*
Y7011D01*
X40430Y7101D01*
X40620D01*
Y7067D01*
X41270D01*
Y7101D01*
X41407D01*
Y7067D01*
X42057D01*
Y7104D01*
X42620D01*
Y7031D01*
X43377D01*
Y7588D01*
X43202D01*
X43179Y7638D01*
X43184Y7646D01*
X43191Y7677D01*
Y9843D01*
X43184Y9873D01*
X43167Y9899D01*
X43141Y9917D01*
X43110Y9923D01*
X40354D01*
X40324Y9917D01*
X40298Y9899D01*
X40280Y9873D01*
X40274Y9843D01*
Y9746D01*
X39647D01*
Y9843D01*
X39641Y9873D01*
X39624Y9899D01*
X39598Y9917D01*
X39567Y9923D01*
X38386D01*
X38355Y9917D01*
X38329Y9899D01*
X38312Y9873D01*
X38306Y9843D01*
Y8465D01*
X38306Y8465D01*
X38312Y8434D01*
X38329Y8408D01*
X38526Y8211D01*
X38552Y8194D01*
X38583Y8187D01*
X38896D01*
Y6693D01*
X38902Y6662D01*
X38920Y6636D01*
X38946Y6619D01*
X38976Y6613D01*
X39961D01*
X39975Y6601D01*
Y6310D01*
X39961Y6299D01*
X39917Y6241D01*
X39892Y6180D01*
X39890Y6181D01*
X39880Y6183D01*
X37238D01*
X37088Y6332D01*
Y9449D01*
X37482D01*
X37482Y9449D01*
X37513Y9455D01*
X37539Y9472D01*
X38049Y9983D01*
X38066Y10009D01*
X38072Y10039D01*
Y11482D01*
X38124Y11534D01*
X40945D01*
X40976Y11540D01*
X41002Y11557D01*
X41019Y11583D01*
X41025Y11614D01*
Y12430D01*
X43182D01*
X43578Y12034D01*
Y7520D01*
X43461D01*
Y7087D01*
X44111D01*
Y7520D01*
X43994D01*
Y12120D01*
X43978Y12199D01*
X43933Y12267D01*
X43415Y12785D01*
X43347Y12830D01*
X43268Y12846D01*
X41025D01*
Y13386D01*
X41025Y13386D01*
X41019Y13417D01*
X41002Y13443D01*
X40805Y13639D01*
X40779Y13657D01*
X40748Y13663D01*
X40388D01*
X40238Y13813D01*
Y14731D01*
X40388Y14880D01*
X41699D01*
X41849Y14731D01*
X41849Y13780D01*
X41849Y13780D01*
X41855Y13749D01*
X41872Y13723D01*
X41872Y13723D01*
X42069Y13526D01*
X42095Y13508D01*
X42126Y13502D01*
X42224Y13502D01*
X43504D01*
X43535Y13509D01*
X43561Y13526D01*
X43561Y13526D01*
X43954Y13920D01*
X43972Y13946D01*
X43978Y13976D01*
Y19291D01*
X43972Y19322D01*
X43954Y19348D01*
X43954Y19348D01*
X43758Y19545D01*
X43732Y19562D01*
X43701Y19568D01*
X36451D01*
X36301Y19718D01*
Y28904D01*
X36844Y29447D01*
X45833D01*
X45983Y29297D01*
Y29121D01*
X45979Y29073D01*
X45933Y29073D01*
X44561D01*
Y29030D01*
X39087D01*
Y29065D01*
X39079Y29103D01*
X39057Y29136D01*
X39024Y29158D01*
X38986Y29165D01*
X37786D01*
X37747Y29158D01*
X37715Y29136D01*
X37693Y29103D01*
X37685Y29065D01*
Y28534D01*
X37693Y28495D01*
X37715Y28463D01*
X37747Y28441D01*
X37786Y28433D01*
X38153D01*
Y26708D01*
X38136Y26682D01*
X38128Y26644D01*
Y26112D01*
X38136Y26074D01*
X38153Y26048D01*
Y25591D01*
X38170Y25501D01*
X38221Y25426D01*
X38418Y25229D01*
X38493Y25178D01*
X38583Y25160D01*
X41339D01*
X41428Y25178D01*
X41504Y25229D01*
X41554Y25304D01*
X41557Y25318D01*
X41682Y25444D01*
X41727Y25511D01*
X41743Y25591D01*
Y25984D01*
X41791D01*
Y26772D01*
X41299D01*
Y25984D01*
X41328D01*
Y25677D01*
X41278Y25627D01*
X38679D01*
X38619Y25687D01*
Y26048D01*
X38636Y26074D01*
X38644Y26112D01*
Y26644D01*
X38636Y26682D01*
X38619Y26708D01*
Y28433D01*
X38986D01*
X39024Y28441D01*
X39057Y28463D01*
X39079Y28495D01*
X39087Y28534D01*
Y28564D01*
X44561D01*
Y28521D01*
X45940D01*
X45982Y28514D01*
X46006Y28487D01*
X46010Y28484D01*
X46032Y28469D01*
X46063Y28463D01*
X47638D01*
X47669Y28469D01*
X47695Y28487D01*
X47712Y28513D01*
X47718Y28543D01*
Y30315D01*
X47712Y30346D01*
X47695Y30372D01*
X47695Y30372D01*
X47498Y30569D01*
X47472Y30586D01*
X47441Y30592D01*
X43959D01*
Y33357D01*
X44264Y33661D01*
X49342D01*
X49374Y33623D01*
D02*
G37*
G36*
X28346Y33858D02*
Y33661D01*
Y31217D01*
X27441D01*
Y31260D01*
X26437D01*
Y31217D01*
X25138D01*
Y31682D01*
X26437D01*
Y31614D01*
X26921D01*
X26939Y31612D01*
X26957Y31614D01*
X27441D01*
Y32165D01*
X26957D01*
X26939Y32168D01*
X26921Y32165D01*
X26437D01*
Y32097D01*
X25138D01*
Y32608D01*
X24134D01*
Y31217D01*
X21081D01*
X19653Y32645D01*
X19577Y32696D01*
X19488Y32714D01*
X10236D01*
X10147Y32696D01*
X10071Y32645D01*
X9874Y32448D01*
X9824Y32373D01*
X9806Y32283D01*
Y32235D01*
X9799Y32226D01*
X9771Y32159D01*
X9761Y32087D01*
X9771Y32015D01*
X9799Y31948D01*
X9806Y31938D01*
Y31645D01*
X9799Y31635D01*
X9771Y31568D01*
X9761Y31496D01*
X9771Y31424D01*
X9799Y31357D01*
X9843Y31300D01*
X9900Y31255D01*
X9967Y31228D01*
X10039Y31218D01*
X10111Y31228D01*
X10178Y31255D01*
X10236Y31300D01*
X10280Y31357D01*
X10308Y31424D01*
X10317Y31496D01*
X10308Y31568D01*
X10280Y31635D01*
X10273Y31645D01*
Y31938D01*
X10280Y31948D01*
X10308Y32015D01*
X10317Y32087D01*
X10308Y32159D01*
X10289Y32204D01*
X10333Y32247D01*
X19392D01*
X20819Y30819D01*
X20895Y30769D01*
X20984Y30751D01*
X26437D01*
Y30709D01*
X27441D01*
Y30751D01*
X28346D01*
Y25197D01*
X28150Y25000D01*
X8892D01*
X8892Y25000D01*
X8892Y25000D01*
X8858D01*
X8705Y24846D01*
X8575Y24716D01*
X8291Y24433D01*
X8291Y24433D01*
X8268Y24409D01*
Y24207D01*
X8199D01*
Y24291D01*
X7549D01*
Y24232D01*
X7411D01*
Y24291D01*
X6762D01*
Y24232D01*
X6624D01*
Y24291D01*
X5974D01*
Y24232D01*
X5837D01*
Y24291D01*
X5187D01*
Y23858D01*
X5837D01*
Y23918D01*
X5974D01*
Y23858D01*
X6624D01*
Y23918D01*
X6762D01*
Y23858D01*
X7411D01*
Y23918D01*
X7549D01*
Y23858D01*
X8199D01*
Y23893D01*
X8268D01*
Y23476D01*
X8199D01*
Y23504D01*
X7549D01*
Y23071D01*
X8199D01*
Y23162D01*
X8268D01*
Y21113D01*
X8045D01*
X7243Y21915D01*
Y23071D01*
X7411D01*
Y23504D01*
X6762D01*
Y23071D01*
X6930D01*
Y21906D01*
X6880Y21885D01*
X6456Y22309D01*
Y23071D01*
X6624D01*
Y23504D01*
X5974D01*
Y23071D01*
X6142D01*
Y22364D01*
X6096Y22345D01*
X5669Y22773D01*
Y23071D01*
X5837D01*
Y23504D01*
X5187D01*
Y23071D01*
X5355D01*
Y22829D01*
X5309Y22810D01*
X5103Y23015D01*
Y25318D01*
X5981Y26196D01*
X20846D01*
Y26053D01*
X21280D01*
Y26277D01*
X21286Y26286D01*
X21304Y26378D01*
X21286Y26470D01*
X21280Y26479D01*
Y26703D01*
X21242D01*
Y26787D01*
X21335D01*
Y27544D01*
X20778D01*
Y26787D01*
X20878D01*
Y26703D01*
X20846D01*
Y26560D01*
X5906D01*
X5906Y26560D01*
X5836Y26546D01*
X5777Y26507D01*
X5777Y26507D01*
X4792Y25523D01*
X4753Y25463D01*
X4739Y25394D01*
X4739Y25394D01*
Y22940D01*
X4739Y22940D01*
X4753Y22870D01*
X4792Y22811D01*
X8085Y19518D01*
Y6890D01*
X8085Y6890D01*
X8099Y6820D01*
X8139Y6761D01*
X10501Y4399D01*
X10501Y4399D01*
X10560Y4359D01*
X10630Y4345D01*
X15673D01*
X16054Y3964D01*
Y3319D01*
X16038Y3312D01*
X15955Y3249D01*
X15892Y3167D01*
X15853Y3071D01*
X15839Y2968D01*
X15853Y2866D01*
X15892Y2770D01*
X15955Y2688D01*
X16038Y2625D01*
X16133Y2585D01*
X16236Y2571D01*
X16339Y2585D01*
X16435Y2625D01*
X16517Y2688D01*
X16580Y2770D01*
X16620Y2866D01*
X16633Y2968D01*
X16620Y3071D01*
X16580Y3167D01*
X16517Y3249D01*
X16435Y3312D01*
X16418Y3319D01*
Y4039D01*
X16405Y4109D01*
X16365Y4168D01*
X16365Y4168D01*
X15877Y4656D01*
X15818Y4696D01*
X15748Y4710D01*
X15748Y4710D01*
X10705D01*
X8965Y6450D01*
X8984Y6496D01*
X19882D01*
X20079Y6299D01*
X20079Y6299D01*
X20276Y6102D01*
X20276Y6102D01*
Y0D01*
X17797D01*
Y2165D01*
X17797Y2165D01*
X17791Y2196D01*
X17773Y2222D01*
X17773Y2222D01*
X17576Y2419D01*
X17550Y2436D01*
X17520Y2442D01*
X14961D01*
X14961Y2442D01*
X14930Y2436D01*
X14904Y2419D01*
X14707Y2222D01*
X14690Y2196D01*
X14684Y2165D01*
Y1411D01*
X14534Y1261D01*
X6136D01*
X4805Y2592D01*
Y5856D01*
X4799Y5887D01*
X4781Y5913D01*
X4781Y5913D01*
X4732Y5962D01*
X4706Y5980D01*
X4675Y5986D01*
X1261D01*
Y14731D01*
X2002Y15471D01*
X2362D01*
X2362Y15471D01*
X2393Y15477D01*
X2419Y15494D01*
X2616Y15691D01*
X2633Y15717D01*
X2639Y15748D01*
Y16535D01*
X2639Y16535D01*
X2633Y16566D01*
X2616Y16592D01*
X2419Y16789D01*
X2393Y16806D01*
X2362Y16813D01*
X2054D01*
X2045Y16839D01*
X2041Y16863D01*
X2098Y16937D01*
X2136Y17028D01*
X2149Y17126D01*
X2136Y17224D01*
X2098Y17315D01*
X2038Y17393D01*
X1960Y17453D01*
X1869Y17490D01*
X1772Y17503D01*
X1674Y17490D01*
X1583Y17453D01*
X1505Y17393D01*
X1445Y17315D01*
X1407Y17224D01*
X1394Y17126D01*
X1407Y17028D01*
X1445Y16937D01*
X1502Y16863D01*
X1498Y16839D01*
X1489Y16813D01*
X0D01*
Y33858D01*
X28346D01*
D02*
G37*
G36*
X101931Y39013D02*
X102756Y38189D01*
Y32677D01*
X101575Y31496D01*
X98032D01*
X97748Y31779D01*
Y35716D01*
X97133Y36331D01*
X94993D01*
X93820Y35159D01*
X92045Y35164D01*
X91559Y34677D01*
Y34648D01*
X91559Y32850D01*
X91496Y32788D01*
X89973D01*
X89874Y32886D01*
Y38374D01*
X90760Y39259D01*
X101685D01*
X101931Y39013D01*
D02*
G37*
G36*
X54331Y33268D02*
X55315Y32283D01*
Y31496D01*
X53150D01*
X53110Y31535D01*
Y33228D01*
X53150Y33268D01*
X53839D01*
X54331Y33268D01*
D02*
G37*
G36*
X43494Y33611D02*
X43462Y33564D01*
X43442Y33465D01*
Y30592D01*
X38642D01*
Y31299D01*
X38133D01*
Y33042D01*
X38752Y33661D01*
X43467D01*
X43494Y33611D01*
D02*
G37*
G36*
X135197Y37334D02*
Y30422D01*
X134736Y29961D01*
X132508D01*
X132047Y30422D01*
Y37334D01*
X132508Y37795D01*
X134736D01*
X135197Y37334D01*
D02*
G37*
G36*
X47638Y30315D02*
Y28543D01*
X46063D01*
Y29331D01*
X45866Y29528D01*
X36811D01*
X36220Y28937D01*
Y19685D01*
X36417Y19488D01*
X43701D01*
X43898Y19291D01*
Y13976D01*
X43504Y13583D01*
X42224D01*
X42126Y13583D01*
X41929Y13780D01*
X41929Y14764D01*
X41732Y14961D01*
X40354D01*
X40164Y14770D01*
X40157D01*
Y13780D01*
X40354Y13583D01*
X40748D01*
X40945Y13386D01*
Y11614D01*
X38091D01*
X37992Y11516D01*
Y10039D01*
X37482Y9529D01*
X35006D01*
X34959Y9482D01*
Y5432D01*
X34843Y5315D01*
X28740D01*
X28543Y5512D01*
Y6890D01*
X28740Y7087D01*
X33268D01*
X33858Y7677D01*
Y11220D01*
X35039Y12402D01*
Y20866D01*
X31299D01*
X30906Y20472D01*
Y19095D01*
X31111Y18890D01*
Y13000D01*
X31102Y12992D01*
Y12553D01*
X30968Y12419D01*
X30754Y12205D01*
X17520D01*
X17520Y18584D01*
X16535Y19568D01*
X16074Y20030D01*
X14813D01*
X14788Y20054D01*
Y20645D01*
X14567Y20866D01*
X13681D01*
X13484Y21063D01*
Y23031D01*
X15748D01*
X18898Y19882D01*
Y14370D01*
X19488Y13780D01*
X28740D01*
X28937Y13976D01*
Y21989D01*
X30058Y23110D01*
X35276D01*
Y24528D01*
Y29961D01*
X35827Y30512D01*
X47441D01*
X47638Y30315D01*
D02*
G37*
G36*
X66847Y27616D02*
X66828Y27570D01*
X65768D01*
Y27687D01*
X65759D01*
Y27825D01*
X65768D01*
Y28474D01*
X65335D01*
Y27825D01*
X65343D01*
Y27687D01*
X65335D01*
Y27037D01*
X65768D01*
Y27154D01*
X66843D01*
X67312Y26686D01*
Y24803D01*
X67328Y24724D01*
X67373Y24656D01*
X67766Y24263D01*
X67766Y24263D01*
X67834Y24218D01*
X67913Y24202D01*
X68227D01*
Y21861D01*
X67913D01*
X67834Y21845D01*
X67766Y21800D01*
X67570Y21604D01*
X67525Y21536D01*
X67509Y21457D01*
Y21245D01*
X67476Y21202D01*
X67448Y21135D01*
X67439Y21063D01*
X67448Y20991D01*
X67476Y20924D01*
X67520Y20866D01*
X67560Y20836D01*
Y19947D01*
X66667Y19054D01*
X65427D01*
Y19751D01*
X65423D01*
X65374Y19754D01*
Y20404D01*
X65311D01*
Y20487D01*
X65430D01*
Y21245D01*
X65308D01*
Y21372D01*
X65577D01*
Y22329D01*
X65355D01*
Y22613D01*
X65419Y22678D01*
X66947D01*
X66956Y22664D01*
X67034Y22612D01*
X67126Y22594D01*
X67218Y22612D01*
X67296Y22664D01*
X67305Y22678D01*
X67392D01*
Y22618D01*
X68041D01*
Y23051D01*
X67392D01*
Y22991D01*
X67305D01*
X67296Y23005D01*
X67218Y23057D01*
X67126Y23075D01*
X67034Y23057D01*
X66956Y23005D01*
X66947Y22991D01*
X65354D01*
X65294Y22979D01*
X65243Y22945D01*
X65087Y22789D01*
X65053Y22738D01*
X65041Y22678D01*
Y22329D01*
X64819D01*
Y21476D01*
X64793Y21437D01*
X64700D01*
Y22866D01*
X65286Y23453D01*
X65286Y23453D01*
X65326Y23512D01*
X65340Y23581D01*
X65340Y23581D01*
Y23996D01*
X65482D01*
Y24389D01*
X65496Y24435D01*
X65496Y24435D01*
X65513Y24438D01*
X65525Y24446D01*
X65525Y24446D01*
X65540Y24456D01*
X65572Y24477D01*
X65878Y24783D01*
X66270D01*
Y25217D01*
X65620D01*
Y25041D01*
X65528Y24950D01*
X65482Y24969D01*
Y25217D01*
X65314D01*
Y25526D01*
X65419Y25631D01*
X66750D01*
X66759Y25617D01*
X66837Y25565D01*
X66929Y25547D01*
X67021Y25565D01*
X67099Y25617D01*
X67152Y25695D01*
X67170Y25787D01*
X67152Y25880D01*
X67099Y25958D01*
X67021Y26010D01*
X66929Y26028D01*
X66837Y26010D01*
X66759Y25958D01*
X66750Y25944D01*
X65354D01*
X65294Y25932D01*
X65243Y25898D01*
X65047Y25701D01*
X65013Y25651D01*
X65001Y25591D01*
Y25217D01*
X64833D01*
Y24789D01*
X63072D01*
Y28671D01*
X63118Y28681D01*
Y28681D01*
X63866D01*
Y28873D01*
X65590D01*
X66847Y27616D01*
D02*
G37*
G36*
X98228Y27125D02*
X89370D01*
X89310Y27113D01*
X89259Y27079D01*
X88008Y25828D01*
X87992Y25831D01*
X87900Y25813D01*
X87822Y25761D01*
X87770Y25683D01*
X87751Y25591D01*
X87770Y25498D01*
X87822Y25420D01*
X87900Y25368D01*
X87992Y25350D01*
X88084Y25368D01*
X88162Y25420D01*
X88215Y25498D01*
X88233Y25591D01*
X88230Y25607D01*
X89435Y26812D01*
X98228D01*
Y26772D01*
X98425Y26575D01*
Y24801D01*
X98379Y24782D01*
X97177Y25983D01*
X97110Y26028D01*
X97030Y26044D01*
X94517D01*
X94437Y26028D01*
X94370Y25983D01*
X94370Y25983D01*
X94223Y25837D01*
X94178Y25769D01*
X94162Y25690D01*
Y25394D01*
X93602D01*
Y25332D01*
X92224D01*
Y25394D01*
X90689D01*
Y24606D01*
X92224D01*
Y24668D01*
X93602D01*
Y24606D01*
X95138D01*
Y25394D01*
X94578D01*
Y25604D01*
X94603Y25629D01*
X96944D01*
X98136Y24438D01*
Y23640D01*
X98151Y23561D01*
X98196Y23493D01*
X98425Y23264D01*
Y22441D01*
X97047D01*
Y21850D01*
X96850Y21654D01*
X94882D01*
X94488Y22047D01*
Y23228D01*
X94291Y23425D01*
X93426D01*
Y23560D01*
X93458Y23584D01*
X93508Y23650D01*
X93540Y23727D01*
X93551Y23809D01*
X93540Y23891D01*
X93508Y23968D01*
X93458Y24034D01*
X93392Y24084D01*
X93315Y24116D01*
X93233Y24127D01*
X93151Y24116D01*
X93074Y24084D01*
X93009Y24034D01*
X92958Y23968D01*
X92926Y23891D01*
X92916Y23809D01*
X92926Y23727D01*
X92958Y23650D01*
X93009Y23584D01*
X93061Y23544D01*
Y23425D01*
X87402D01*
X87219Y23607D01*
Y27301D01*
X87477Y27559D01*
X98228D01*
Y27125D01*
D02*
G37*
G36*
X37582Y33615D02*
X33181Y29215D01*
X33141Y29155D01*
X33128Y29086D01*
X33128Y29086D01*
Y26696D01*
X27087Y20655D01*
X19499D01*
X19488Y20669D01*
X19430Y20713D01*
X19363Y20741D01*
X19291Y20750D01*
X19219Y20741D01*
X19152Y20713D01*
X19095Y20669D01*
X19051Y20611D01*
X19023Y20544D01*
X19013Y20472D01*
X19023Y20401D01*
X19051Y20333D01*
X19095Y20276D01*
X19152Y20232D01*
X19219Y20204D01*
X19291Y20194D01*
X19363Y20204D01*
X19430Y20232D01*
X19488Y20276D01*
X19499Y20290D01*
X27162D01*
X27162Y20290D01*
X27232Y20304D01*
X27291Y20344D01*
X28811Y21863D01*
X28857Y21844D01*
Y18540D01*
X24534Y14217D01*
X21393D01*
X18978Y16632D01*
Y19882D01*
X18978Y19882D01*
X18972Y19913D01*
X18954Y19939D01*
X18954Y19939D01*
X15805Y23088D01*
X15779Y23106D01*
X15748Y23112D01*
X13484D01*
X13454Y23106D01*
X13427Y23088D01*
X13410Y23062D01*
X13404Y23033D01*
X12629D01*
X12598Y23071D01*
X12593Y23117D01*
X12587Y23148D01*
X12570Y23174D01*
X12458Y23285D01*
X12432Y23303D01*
X12402Y23309D01*
X10827D01*
X10796Y23303D01*
X10770Y23285D01*
X10753Y23259D01*
X10746Y23228D01*
Y21850D01*
X10746Y21850D01*
X10753Y21820D01*
X10770Y21794D01*
X11164Y21400D01*
X11190Y21383D01*
X11220Y21376D01*
X12368D01*
X12419Y21326D01*
X12400Y21280D01*
X11880D01*
Y21220D01*
X10892D01*
X10590Y21522D01*
Y23893D01*
X10827D01*
Y23780D01*
X11614D01*
Y23869D01*
X11811D01*
Y23780D01*
X12598D01*
Y24272D01*
X11811D01*
Y24182D01*
X11614D01*
Y24272D01*
X10827D01*
Y24207D01*
X8348D01*
Y24376D01*
X8762Y24790D01*
X8892Y24920D01*
X28183D01*
X28427Y25164D01*
Y30751D01*
X29380D01*
X29469Y30769D01*
X29544Y30819D01*
X29691Y30966D01*
X29741Y31041D01*
X29759Y31131D01*
Y31745D01*
X29768Y31757D01*
X29796Y31824D01*
X29806Y31896D01*
X29796Y31968D01*
X29768Y32035D01*
X29724Y32093D01*
X29667Y32137D01*
X29599Y32165D01*
X29528Y32174D01*
X29456Y32165D01*
X29389Y32137D01*
X29331Y32093D01*
X29287Y32035D01*
X29259Y31968D01*
X29250Y31896D01*
X29259Y31824D01*
X29287Y31757D01*
X29293Y31749D01*
Y31227D01*
X29283Y31217D01*
X28427D01*
Y33661D01*
X37563D01*
X37582Y33615D01*
D02*
G37*
G36*
X62992Y23819D02*
X62894Y23720D01*
X60728D01*
X60601Y23847D01*
Y24775D01*
X60630Y24803D01*
X61811D01*
X62008Y25000D01*
Y28150D01*
X61614Y28543D01*
X56299D01*
X56102Y28346D01*
Y27559D01*
X55177Y26634D01*
Y25847D01*
X54134Y24803D01*
X52756D01*
X52165Y24213D01*
Y20866D01*
X51378D01*
Y24606D01*
X52362Y25591D01*
X54134D01*
X54528Y25984D01*
Y26969D01*
X55118Y27559D01*
Y29134D01*
X55512Y29528D01*
X62992D01*
Y23819D01*
D02*
G37*
G36*
X83298Y23728D02*
Y23159D01*
X83263D01*
Y22543D01*
X83263Y22510D01*
X83221Y22493D01*
X82952D01*
X82909Y22510D01*
X82909Y22543D01*
Y22734D01*
X82915Y22742D01*
X82933Y22835D01*
X82915Y22927D01*
X82909Y22936D01*
Y23159D01*
X82476D01*
Y22936D01*
X82470Y22927D01*
X82452Y22835D01*
X82470Y22742D01*
X82476Y22734D01*
X82476Y22510D01*
X82433Y22493D01*
X82149D01*
X82106Y22510D01*
X82106Y22543D01*
Y22734D01*
X82112Y22742D01*
X82131Y22835D01*
X82112Y22927D01*
X82106Y22936D01*
Y23159D01*
X81673D01*
Y22936D01*
X81667Y22927D01*
X81649Y22835D01*
X81667Y22742D01*
X81673Y22734D01*
X81673Y22510D01*
X81630Y22493D01*
X81362D01*
X81319Y22510D01*
X81319Y22543D01*
Y23159D01*
X81310D01*
Y23834D01*
X83192D01*
X83298Y23728D01*
D02*
G37*
G36*
X92913Y20472D02*
X91929D01*
Y21260D01*
X92913D01*
Y20472D01*
D02*
G37*
G36*
X12513Y23117D02*
X12494Y23071D01*
X11811D01*
Y22579D01*
X12598D01*
Y22617D01*
X13013D01*
X13386Y22244D01*
Y21048D01*
X13648Y20786D01*
X14450D01*
X14468Y20768D01*
Y20600D01*
X14350D01*
Y20407D01*
X13670D01*
X13620Y20397D01*
X13578Y20368D01*
X13526Y20317D01*
X13524Y20318D01*
X13432Y20336D01*
X13340Y20318D01*
X13262Y20266D01*
X13209Y20187D01*
X13191Y20095D01*
X13209Y20003D01*
X13262Y19925D01*
X13340Y19873D01*
X13432Y19854D01*
X13524Y19873D01*
X13602Y19925D01*
X13654Y20003D01*
X13672Y20092D01*
X13725Y20144D01*
X14350D01*
Y19951D01*
X14436D01*
Y19813D01*
X14350D01*
Y19163D01*
X14468D01*
Y18829D01*
X14350D01*
Y18179D01*
X14436D01*
Y18041D01*
X14350D01*
Y17864D01*
X13628D01*
X13602Y17903D01*
X13524Y17956D01*
X13432Y17974D01*
X13340Y17956D01*
X13262Y17903D01*
X13209Y17825D01*
X13191Y17733D01*
X13209Y17641D01*
X13262Y17563D01*
X13340Y17511D01*
X13432Y17492D01*
X13524Y17511D01*
X13602Y17563D01*
X13628Y17602D01*
X14350D01*
Y17392D01*
X14468D01*
Y17126D01*
X15551D01*
X15748Y17323D01*
Y18110D01*
X15157D01*
Y19882D01*
X16108D01*
X16479Y19512D01*
X17439Y18551D01*
X17439Y12205D01*
X17396Y12165D01*
X14213D01*
X14173Y12125D01*
Y10236D01*
X13780Y9843D01*
X12992D01*
Y10630D01*
X13583D01*
Y13780D01*
X13780Y13976D01*
X14961D01*
Y12727D01*
X15138Y12550D01*
X15700D01*
X15748Y12598D01*
Y14764D01*
X12992D01*
X12598Y15157D01*
Y21260D01*
X12402Y21457D01*
X11220D01*
X10827Y21850D01*
Y23228D01*
X12402D01*
X12513Y23117D01*
D02*
G37*
G36*
X136110Y17532D02*
X134043Y15465D01*
X111700D01*
X110630Y16535D01*
Y23031D01*
X115157Y27559D01*
X136110D01*
Y17532D01*
D02*
G37*
G36*
X149606Y0D02*
X20356D01*
Y6136D01*
X20332Y6159D01*
X20332Y6159D01*
X20332Y6159D01*
X20136Y6356D01*
X20136Y6356D01*
X19939Y6553D01*
X19939Y6553D01*
X19915Y6576D01*
X8892D01*
X8450Y7018D01*
Y19593D01*
X8450Y19593D01*
X8436Y19663D01*
X8397Y19722D01*
X8397Y19722D01*
X8348Y19771D01*
Y20342D01*
X9034D01*
X9571Y19805D01*
Y16583D01*
X9583Y16523D01*
X9617Y16472D01*
X9807Y16282D01*
X9801Y16232D01*
X9810Y16160D01*
X9838Y16093D01*
X9882Y16036D01*
X9940Y15992D01*
X10007Y15964D01*
X10079Y15954D01*
X10151Y15964D01*
X10218Y15992D01*
X10275Y16036D01*
X10319Y16093D01*
X10347Y16160D01*
X10357Y16232D01*
X10347Y16304D01*
X10319Y16371D01*
X10275Y16429D01*
X10218Y16473D01*
X10151Y16501D01*
X10079Y16510D01*
X10029Y16504D01*
X9885Y16648D01*
Y18339D01*
X9930Y18361D01*
X9940Y18354D01*
X10007Y18326D01*
X10079Y18317D01*
X10151Y18326D01*
X10218Y18354D01*
X10275Y18398D01*
X10319Y18455D01*
X10347Y18523D01*
X10357Y18594D01*
X10347Y18666D01*
X10319Y18733D01*
X10275Y18791D01*
X10218Y18835D01*
X10196Y18844D01*
Y19882D01*
X10184Y19942D01*
X10150Y19993D01*
X9389Y20754D01*
X9408Y20800D01*
X9852D01*
X9882Y20760D01*
X9922Y20730D01*
Y20433D01*
X9934Y20373D01*
X9968Y20322D01*
X10718Y19572D01*
X10717Y19570D01*
X10706Y19488D01*
X10717Y19406D01*
X10749Y19329D01*
X10799Y19264D01*
X10865Y19213D01*
X10941Y19181D01*
X11024Y19171D01*
X11106Y19181D01*
X11182Y19213D01*
X11248Y19264D01*
X11299Y19329D01*
X11330Y19406D01*
X11341Y19488D01*
X11330Y19570D01*
X11299Y19647D01*
X11248Y19713D01*
X11182Y19763D01*
X11106Y19795D01*
X11024Y19806D01*
X10941Y19795D01*
X10939Y19794D01*
X10235Y20498D01*
Y20730D01*
X10275Y20760D01*
X10319Y20818D01*
X10347Y20885D01*
X10357Y20957D01*
X10347Y21029D01*
X10319Y21096D01*
X10275Y21153D01*
X10218Y21197D01*
X10151Y21225D01*
X10079Y21235D01*
X10007Y21225D01*
X9940Y21197D01*
X9882Y21153D01*
X9852Y21113D01*
X8348D01*
Y23162D01*
X9852D01*
X9882Y23122D01*
X9940Y23078D01*
X10007Y23050D01*
X10079Y23041D01*
X10151Y23050D01*
X10218Y23078D01*
X10226Y23085D01*
X10276Y23060D01*
Y21457D01*
X10288Y21397D01*
X10322Y21346D01*
X10716Y20952D01*
X10767Y20918D01*
X10827Y20906D01*
X11880D01*
Y20846D01*
X12048D01*
Y15965D01*
X11880D01*
Y15532D01*
X12518D01*
Y15177D01*
X12237D01*
X12214Y15182D01*
X12190Y15177D01*
X11880D01*
Y14744D01*
X12083D01*
X12122Y14718D01*
X12214Y14700D01*
X12306Y14718D01*
X12344Y14744D01*
X12530D01*
Y15042D01*
X12580Y15063D01*
X12935Y14707D01*
X12961Y14690D01*
X12992Y14684D01*
X15668D01*
Y12632D01*
X15666Y12630D01*
X15571D01*
Y12744D01*
X15597Y12783D01*
X15615Y12875D01*
X15597Y12967D01*
X15571Y13005D01*
Y13200D01*
X15138D01*
Y12898D01*
X15133Y12875D01*
X15138Y12852D01*
Y12729D01*
X15092Y12710D01*
X15041Y12760D01*
Y13976D01*
X15084Y14016D01*
X15198D01*
Y13907D01*
X15138D01*
Y13258D01*
X15571D01*
Y13907D01*
X15511D01*
Y14085D01*
X15499Y14145D01*
X15465Y14196D01*
X15377Y14284D01*
X15326Y14318D01*
X15266Y14330D01*
X11676D01*
X11616Y14318D01*
X11565Y14284D01*
X11477Y14196D01*
X11443Y14145D01*
X11431Y14085D01*
Y13071D01*
X11312D01*
Y13031D01*
X10512D01*
X10452Y13019D01*
X10401Y12985D01*
X10083Y12667D01*
X10037Y12686D01*
Y13399D01*
X10063Y13410D01*
X10128Y13460D01*
X10179Y13526D01*
X10211Y13602D01*
X10222Y13685D01*
X10211Y13767D01*
X10179Y13844D01*
X10128Y13909D01*
X10063Y13960D01*
X9986Y13992D01*
X9904Y14002D01*
X9822Y13992D01*
X9745Y13960D01*
X9679Y13909D01*
X9629Y13844D01*
X9597Y13767D01*
X9586Y13685D01*
X9597Y13602D01*
X9629Y13526D01*
X9679Y13460D01*
X9723Y13426D01*
Y12242D01*
Y11202D01*
X9694Y11159D01*
X9679Y11083D01*
Y10748D01*
X9694Y10671D01*
X9738Y10606D01*
X9803Y10563D01*
X9880Y10547D01*
X9957Y10563D01*
X10022Y10606D01*
X10065Y10671D01*
X10081Y10748D01*
Y11083D01*
X10065Y11159D01*
X10037Y11202D01*
Y12177D01*
X10576Y12717D01*
X11312D01*
Y12677D01*
X11457D01*
X11496Y12651D01*
X11588Y12633D01*
X11680Y12651D01*
X11719Y12677D01*
X11864D01*
Y13071D01*
X11745D01*
Y14016D01*
X13641D01*
X13660Y13970D01*
X13526Y13836D01*
X13509Y13810D01*
X13502Y13780D01*
Y10710D01*
X12992D01*
X12961Y10704D01*
X12935Y10687D01*
X12918Y10661D01*
X12912Y10630D01*
Y9843D01*
X12918Y9812D01*
X12935Y9786D01*
X12961Y9768D01*
X12972Y9766D01*
Y9124D01*
X13406D01*
Y9292D01*
X14370D01*
X14430Y9304D01*
X14481Y9338D01*
X14875Y9732D01*
X14909Y9783D01*
X14921Y9843D01*
Y10207D01*
X14961D01*
Y10326D01*
X15945D01*
Y10207D01*
X16339D01*
Y10758D01*
X15945D01*
Y10639D01*
X14961D01*
Y10758D01*
X14567D01*
Y10207D01*
X14607D01*
Y9907D01*
X14305Y9606D01*
X13406D01*
Y9762D01*
X13780D01*
X13780Y9762D01*
X13810Y9768D01*
X13836Y9786D01*
X14230Y10179D01*
X14247Y10206D01*
X14254Y10236D01*
Y11289D01*
X14587D01*
Y11619D01*
X14819Y11851D01*
X14895D01*
X14941Y11841D01*
X14941Y11801D01*
Y11289D01*
X15335D01*
X15335Y11841D01*
X15380Y11851D01*
X15525D01*
X15571Y11841D01*
Y11289D01*
X15743D01*
X16119Y10913D01*
X16170Y10879D01*
X16230Y10867D01*
X17323D01*
X17383Y10879D01*
X17434Y10913D01*
X18143Y11622D01*
X30874D01*
X30934Y11634D01*
X30984Y11668D01*
X31607Y12291D01*
X31641Y12342D01*
X31653Y12402D01*
Y18439D01*
X32197Y18984D01*
X32231Y19035D01*
X32243Y19094D01*
Y19655D01*
X32283Y19685D01*
X32327Y19743D01*
X32355Y19810D01*
X32365Y19882D01*
X32355Y19954D01*
X32327Y20021D01*
X32320Y20030D01*
X32343Y20075D01*
X34159D01*
X34959Y19275D01*
Y12435D01*
X33802Y11277D01*
X33784Y11251D01*
X33778Y11220D01*
Y7710D01*
X33234Y7167D01*
X28740D01*
X28740Y7167D01*
X28709Y7161D01*
X28683Y7143D01*
X28487Y6947D01*
X28469Y6920D01*
X28463Y6890D01*
Y5512D01*
X28463Y5512D01*
X28469Y5481D01*
X28487Y5455D01*
X28683Y5258D01*
X28709Y5241D01*
X28740Y5235D01*
X34843D01*
X34873Y5241D01*
X34899Y5258D01*
X34899Y5258D01*
X34909Y5268D01*
X34959Y5247D01*
Y1969D01*
X34965Y1938D01*
X34983Y1912D01*
X34983Y1912D01*
X35179Y1715D01*
X35206Y1697D01*
X35236Y1691D01*
X35267Y1697D01*
X35283Y1708D01*
X43521D01*
X43521Y1708D01*
X43521Y1708D01*
X43637D01*
X43839Y1909D01*
Y4467D01*
X43917Y4545D01*
X51968D01*
Y13386D01*
X53543Y14961D01*
X72835D01*
Y16142D01*
X71654D01*
X71537Y16258D01*
Y23702D01*
X71573Y23739D01*
X73888D01*
Y23406D01*
X73912Y23381D01*
X75300D01*
X75394Y23474D01*
Y24016D01*
X74883D01*
Y24989D01*
X80623D01*
X80895Y24717D01*
Y24016D01*
Y23159D01*
X80886D01*
Y22543D01*
X80886Y22510D01*
X80843Y22493D01*
X79635D01*
X79581Y22482D01*
X79535Y22451D01*
X79428Y22344D01*
X79397Y22298D01*
X79386Y22244D01*
Y20669D01*
X79397Y20615D01*
X79428Y20569D01*
X79624Y20372D01*
X79670Y20342D01*
X79724Y20331D01*
X80492D01*
Y20148D01*
X80925D01*
Y20797D01*
X80492D01*
Y20614D01*
X79783D01*
X79669Y20728D01*
Y21910D01*
X79719Y21925D01*
X79751Y21877D01*
X79780Y21858D01*
Y21457D01*
X79791Y21403D01*
X79821Y21357D01*
X79998Y21179D01*
X80044Y21149D01*
X80098Y21138D01*
X80482D01*
Y21083D01*
X81033D01*
Y21118D01*
X81241D01*
X81361Y20998D01*
Y20797D01*
X81280D01*
Y20148D01*
X81713D01*
Y20797D01*
X81644D01*
Y21057D01*
X81633Y21111D01*
X81602Y21157D01*
X81399Y21360D01*
X81353Y21391D01*
X81299Y21401D01*
X81033D01*
Y21476D01*
X80482D01*
Y21421D01*
X80157D01*
X80063Y21515D01*
Y21858D01*
X80092Y21877D01*
X80144Y21955D01*
X80162Y22047D01*
X80144Y22139D01*
X80126Y22166D01*
X80150Y22210D01*
X80482D01*
Y21831D01*
X81033D01*
Y22210D01*
X81699D01*
Y21850D01*
X81565D01*
Y21457D01*
X82116D01*
X82127Y21411D01*
Y20669D01*
X82139Y20609D01*
X82173Y20558D01*
X82301Y20430D01*
X82269Y20392D01*
X82261Y20397D01*
X82169Y20415D01*
X82077Y20397D01*
X81999Y20344D01*
X81947Y20266D01*
X81928Y20174D01*
X81947Y20082D01*
X81999Y20004D01*
X82077Y19952D01*
X82169Y19933D01*
X82261Y19952D01*
X82339Y20004D01*
X82348Y20017D01*
X82697D01*
X82752Y19962D01*
X82803Y19928D01*
X82863Y19916D01*
X84281D01*
X84341Y19928D01*
X84392Y19962D01*
X84724Y20294D01*
X84770Y20275D01*
Y19614D01*
X83740Y18584D01*
X83706Y18533D01*
X83694Y18473D01*
Y17895D01*
X83469D01*
Y16938D01*
X84227D01*
Y17895D01*
X84007D01*
Y18408D01*
X85038Y19439D01*
X85072Y19489D01*
X85084Y19549D01*
Y21355D01*
X85422Y21694D01*
X85647D01*
X85656Y21680D01*
X85735Y21628D01*
X85827Y21610D01*
X85919Y21628D01*
X85997Y21680D01*
X86049Y21758D01*
X86068Y21850D01*
X86049Y21943D01*
X85997Y22021D01*
X85972Y22037D01*
X85987Y22087D01*
X86261D01*
Y21083D01*
X86093D01*
Y20650D01*
X86742D01*
Y21083D01*
X86574D01*
Y22087D01*
X89045D01*
Y22028D01*
X89695D01*
Y22461D01*
X89045D01*
Y22401D01*
X85454D01*
X85433Y22451D01*
X85549Y22567D01*
X85580Y22613D01*
X85591Y22667D01*
Y29708D01*
X85580Y29762D01*
X85549Y29808D01*
X85336Y30021D01*
X85290Y30052D01*
X85236Y30063D01*
X84245D01*
X84225Y30092D01*
X84147Y30144D01*
X84055Y30162D01*
X83963Y30144D01*
X83885Y30092D01*
X83833Y30013D01*
X83814Y29921D01*
X83833Y29829D01*
X83885Y29751D01*
X83963Y29699D01*
X84055Y29680D01*
X84147Y29699D01*
X84225Y29751D01*
X84245Y29780D01*
X85178D01*
X85308Y29650D01*
Y29437D01*
X85282Y29429D01*
X85258Y29429D01*
X85210Y29501D01*
X85132Y29553D01*
X85039Y29572D01*
X84947Y29553D01*
X84869Y29501D01*
X84817Y29423D01*
X84799Y29331D01*
X84817Y29239D01*
X84869Y29160D01*
X84898Y29141D01*
Y29134D01*
X84909Y29080D01*
X84939Y29034D01*
X85109Y28864D01*
Y22808D01*
X84794Y22493D01*
X83740D01*
X83697Y22510D01*
X83697Y22543D01*
Y23159D01*
X83662D01*
Y23803D01*
X83662Y23803D01*
X83648Y23873D01*
X83609Y23932D01*
X83397Y24145D01*
X83337Y24184D01*
X83268Y24198D01*
X83268Y24198D01*
X83056D01*
Y24694D01*
X82298D01*
Y24694D01*
X82268D01*
Y24694D01*
X81511D01*
Y24198D01*
X81310D01*
Y24803D01*
X81294Y24883D01*
X81249Y24950D01*
X81249Y24950D01*
X80866Y25333D01*
X80882Y25383D01*
X84044D01*
Y23736D01*
X84029Y23714D01*
X84011Y23622D01*
X84029Y23530D01*
X84082Y23452D01*
X84160Y23400D01*
X84252Y23381D01*
X84344Y23400D01*
X84422Y23452D01*
X84474Y23530D01*
X84493Y23622D01*
X84474Y23714D01*
X84460Y23736D01*
Y25591D01*
Y25984D01*
X84460Y25984D01*
X84444Y26064D01*
X84399Y26131D01*
X84399Y26131D01*
X83475Y27055D01*
Y28429D01*
X83490Y28451D01*
X83509Y28543D01*
X83490Y28635D01*
X83438Y28714D01*
X83360Y28766D01*
X83268Y28784D01*
X83176Y28766D01*
X83097Y28714D01*
X83045Y28635D01*
X83027Y28543D01*
X83045Y28451D01*
X83060Y28429D01*
Y26969D01*
X83076Y26889D01*
X83121Y26822D01*
X84044Y25898D01*
Y25798D01*
X77055D01*
X76979Y25873D01*
Y26053D01*
X76988D01*
Y26703D01*
X76555D01*
Y26586D01*
X73511D01*
X73436Y26661D01*
Y27377D01*
X73469Y27420D01*
X73497Y27487D01*
X73506Y27559D01*
X73497Y27631D01*
X73469Y27698D01*
X73425Y27756D01*
X73367Y27800D01*
X73300Y27828D01*
X73228Y27837D01*
X73156Y27828D01*
X73089Y27800D01*
X73032Y27756D01*
X72988Y27698D01*
X72960Y27631D01*
X72950Y27559D01*
X72960Y27487D01*
X72988Y27420D01*
X73021Y27377D01*
Y26575D01*
X73036Y26495D01*
X73081Y26428D01*
X73278Y26231D01*
X73346Y26186D01*
X73425Y26170D01*
X76555D01*
Y26053D01*
X76564D01*
Y25787D01*
X76580Y25708D01*
X76625Y25640D01*
X76811Y25455D01*
X76797Y25412D01*
X76792Y25405D01*
X74883D01*
Y25624D01*
X74640Y25868D01*
X71537D01*
Y30198D01*
X71850Y30512D01*
X80447D01*
X80490Y30495D01*
Y30062D01*
X81140D01*
Y30122D01*
X81232D01*
Y29995D01*
X81989D01*
Y30512D01*
X82101D01*
Y29992D01*
X82859D01*
Y30110D01*
X82938D01*
Y30047D01*
X83588D01*
Y30480D01*
X83625Y30512D01*
X85433D01*
X85827Y30118D01*
Y29331D01*
X87469Y27688D01*
X87452Y27634D01*
X87447Y27633D01*
X87421Y27616D01*
X87421Y27616D01*
X87163Y27358D01*
X87145Y27332D01*
X87139Y27301D01*
Y23607D01*
X87145Y23577D01*
X87163Y23551D01*
X87345Y23368D01*
X87371Y23351D01*
X87402Y23345D01*
X92997D01*
X93037Y23321D01*
Y23214D01*
X92648D01*
Y23248D01*
X91998D01*
Y22815D01*
X92648D01*
Y22849D01*
X93037D01*
Y22672D01*
X93068D01*
Y22548D01*
X92969D01*
Y21790D01*
X93068D01*
Y21585D01*
X93037D01*
Y21296D01*
X92988Y21291D01*
X92970Y21317D01*
X92944Y21334D01*
X92913Y21340D01*
X91929D01*
X91898Y21334D01*
X91872Y21317D01*
X91855Y21291D01*
X91849Y21260D01*
Y20472D01*
X91855Y20442D01*
X91872Y20416D01*
X91898Y20398D01*
X91929Y20392D01*
X92913D01*
X92944Y20398D01*
X92970Y20416D01*
X92988Y20442D01*
X92994Y20472D01*
Y20920D01*
X93037Y20935D01*
X93044Y20935D01*
X93213D01*
X93359Y20789D01*
Y20416D01*
X93356Y20411D01*
X93341Y20335D01*
Y20000D01*
X93356Y19923D01*
X93399Y19858D01*
X93465Y19815D01*
X93541Y19799D01*
X93618Y19815D01*
X93683Y19858D01*
X93727Y19923D01*
X93742Y20000D01*
Y20335D01*
X93727Y20411D01*
X93724Y20416D01*
Y20864D01*
X93724Y20864D01*
X93710Y20934D01*
X93670Y20993D01*
X93470Y21193D01*
Y21585D01*
X93433D01*
Y21790D01*
X93526D01*
Y22548D01*
X93433D01*
Y22672D01*
X93470D01*
Y23321D01*
X93511Y23345D01*
X94258D01*
X94408Y23195D01*
Y22014D01*
X94431Y21990D01*
X94431Y21990D01*
X94431Y21990D01*
X94825Y21597D01*
X94825Y21597D01*
X94849Y21573D01*
X95650D01*
Y21442D01*
X94258D01*
Y21585D01*
X94227D01*
Y21790D01*
X94326D01*
Y22548D01*
X93769D01*
Y21790D01*
X93862D01*
Y21585D01*
X93825D01*
Y20935D01*
X93859D01*
Y20416D01*
X93856Y20411D01*
X93841Y20335D01*
Y20000D01*
X93856Y19923D01*
X93899Y19858D01*
X93965Y19815D01*
X94041Y19799D01*
X94118Y19815D01*
X94183Y19858D01*
X94227Y19923D01*
X94242Y20000D01*
Y20335D01*
X94227Y20411D01*
X94224Y20416D01*
Y20935D01*
X94258D01*
Y21078D01*
X95650D01*
Y20935D01*
X96078D01*
Y20745D01*
X95682Y20350D01*
X95239D01*
X95227Y20411D01*
X95183Y20477D01*
X95118Y20520D01*
X95041Y20535D01*
X94965Y20520D01*
X94899Y20477D01*
X94856Y20411D01*
X94841Y20335D01*
Y20000D01*
X94856Y19923D01*
X94899Y19858D01*
X94965Y19815D01*
X95041Y19799D01*
X95118Y19815D01*
X95183Y19858D01*
X95227Y19923D01*
X95239Y19985D01*
X95758D01*
X95758Y19985D01*
X95828Y19999D01*
X95887Y20038D01*
X96389Y20540D01*
X96428Y20600D01*
X96442Y20669D01*
X96442Y20669D01*
Y20935D01*
X96870D01*
Y21078D01*
X97156D01*
Y20881D01*
X97252D01*
Y20284D01*
X97252Y20284D01*
X97266Y20215D01*
X97306Y20156D01*
X97423Y20038D01*
X97423Y20038D01*
X97482Y19999D01*
X97552Y19985D01*
X98068D01*
X98080Y19923D01*
X98124Y19858D01*
X98189Y19815D01*
X98266Y19799D01*
X98343Y19815D01*
X98408Y19858D01*
X98451Y19923D01*
X98466Y20000D01*
Y20335D01*
X98451Y20411D01*
X98408Y20477D01*
X98343Y20520D01*
X98266Y20535D01*
X98189Y20520D01*
X98124Y20477D01*
X98080Y20411D01*
X98068Y20350D01*
X97627D01*
X97617Y20360D01*
Y20881D01*
X97713D01*
Y21639D01*
X97620D01*
Y21722D01*
X97657D01*
Y22361D01*
X98012D01*
Y21722D01*
X98049D01*
Y21639D01*
X97956D01*
Y20881D01*
X98513D01*
Y21006D01*
X98563Y21031D01*
X98584Y21016D01*
Y20416D01*
X98580Y20411D01*
X98565Y20335D01*
Y20000D01*
X98580Y19923D01*
X98584Y19918D01*
Y19707D01*
X98547Y19670D01*
X97766D01*
Y19705D01*
X97116D01*
Y19272D01*
X97766D01*
Y19306D01*
X98622D01*
X98622Y19306D01*
X98692Y19320D01*
X98751Y19359D01*
X98895Y19503D01*
X98895Y19503D01*
X98934Y19562D01*
X98948Y19632D01*
X98948Y19632D01*
Y19918D01*
X98951Y19923D01*
X98966Y20000D01*
Y20335D01*
X98951Y20411D01*
X98948Y20416D01*
Y21116D01*
X98948Y21116D01*
X98934Y21186D01*
X98895Y21245D01*
X98895Y21245D01*
X98751Y21389D01*
X98692Y21428D01*
X98622Y21442D01*
X98622Y21442D01*
X98513D01*
Y21639D01*
X98414D01*
Y21722D01*
X98445D01*
Y22365D01*
X98456Y22367D01*
X98482Y22384D01*
X98499Y22410D01*
X98505Y22441D01*
X98816D01*
X99584Y21674D01*
Y20416D01*
X99580Y20411D01*
X99565Y20335D01*
Y20000D01*
X99580Y19923D01*
X99624Y19858D01*
X99689Y19815D01*
X99766Y19799D01*
X99843Y19815D01*
X99908Y19858D01*
X99951Y19923D01*
X99966Y20000D01*
Y20335D01*
X99951Y20411D01*
X99948Y20416D01*
Y21673D01*
X99957Y21681D01*
X99998Y21696D01*
X100054Y21658D01*
X100133Y21643D01*
X101979D01*
X102165Y21457D01*
X103333D01*
X103364Y21418D01*
X103361Y21401D01*
X103361Y21401D01*
Y19837D01*
X103321Y19777D01*
X103302Y19685D01*
X103321Y19593D01*
X103373Y19515D01*
X103412Y19489D01*
X103397Y19439D01*
X102327D01*
X102327Y19439D01*
X102257Y19425D01*
X102198Y19385D01*
X102198Y19385D01*
X102000Y19187D01*
X101954Y19206D01*
Y19997D01*
X102150D01*
Y20554D01*
X101393D01*
Y19997D01*
X101589D01*
Y18701D01*
X101589Y18701D01*
X101589Y18701D01*
Y18383D01*
X101411Y18204D01*
X99963D01*
X99951Y18266D01*
X99908Y18331D01*
X99843Y18374D01*
X99766Y18390D01*
X99689Y18374D01*
X99624Y18331D01*
X99580Y18266D01*
X99565Y18189D01*
Y17854D01*
X99580Y17778D01*
X99624Y17712D01*
X99689Y17669D01*
X99766Y17654D01*
X99843Y17669D01*
X99908Y17712D01*
X99951Y17778D01*
X99963Y17839D01*
X101486D01*
X101486Y17839D01*
X101556Y17853D01*
X101615Y17893D01*
X101901Y18178D01*
X101901Y18178D01*
X101940Y18237D01*
X101954Y18307D01*
Y18625D01*
X102403Y19074D01*
X103721D01*
X103721Y19074D01*
X103791Y19088D01*
X103850Y19127D01*
X104101Y19379D01*
X104101Y19379D01*
X104140Y19438D01*
X104154Y19507D01*
X104154Y19507D01*
Y20387D01*
X104472D01*
Y20727D01*
X104921D01*
Y16236D01*
X104871Y16211D01*
X104863Y16217D01*
X104796Y16245D01*
X104724Y16255D01*
X104652Y16245D01*
X104585Y16217D01*
X104528Y16173D01*
X104504Y16142D01*
X103346D01*
Y14961D01*
X108661D01*
Y17459D01*
X109272Y18069D01*
Y22116D01*
Y22766D01*
X108895D01*
Y23622D01*
X109646D01*
X110433Y24409D01*
X110433Y24409D01*
X110630Y24213D01*
Y23745D01*
X110126Y23240D01*
Y15465D01*
X110630Y14961D01*
X134252D01*
X136614Y17323D01*
Y48032D01*
X139874Y51291D01*
Y54614D01*
X138976Y55512D01*
X129528D01*
X129214Y55199D01*
Y53156D01*
X129012Y52953D01*
X126316D01*
X126094Y53175D01*
Y62315D01*
X126772Y62992D01*
X149606D01*
Y0D01*
D02*
G37*
G36*
X43110Y7677D02*
X41339D01*
X40748Y8268D01*
X39961D01*
Y6693D01*
X38976D01*
Y8268D01*
X38583D01*
X38386Y8465D01*
Y9843D01*
X39567D01*
Y9665D01*
X40354D01*
Y9843D01*
X43110D01*
Y7677D01*
D02*
G37*
G36*
X2559Y16535D02*
Y15748D01*
X2362Y15551D01*
X1969D01*
X1181Y14764D01*
Y5906D01*
X4675D01*
X4724Y5856D01*
Y2559D01*
X6102Y1181D01*
X14567D01*
X14764Y1378D01*
Y2165D01*
X14961Y2362D01*
X17520D01*
X17717Y2165D01*
Y0D01*
X0D01*
Y16732D01*
X2362D01*
X2559Y16535D01*
D02*
G37*
%LPC*%
G36*
X69980Y61469D02*
X69193D01*
X69018Y61452D01*
X68849Y61401D01*
X68694Y61318D01*
X68558Y61206D01*
X68446Y61070D01*
X68363Y60915D01*
X68312Y60746D01*
X68295Y60571D01*
Y59783D01*
X68312Y59608D01*
X68363Y59440D01*
X68446Y59285D01*
X68558Y59148D01*
X68694Y59037D01*
X68849Y58954D01*
X69018Y58903D01*
X69193Y58885D01*
X69980D01*
X70156Y58903D01*
X70324Y58954D01*
X70479Y59037D01*
X70615Y59148D01*
X70727Y59285D01*
X70810Y59440D01*
X70861Y59608D01*
X70878Y59783D01*
Y60571D01*
X70861Y60746D01*
X70810Y60915D01*
X70727Y61070D01*
X70615Y61206D01*
X70479Y61318D01*
X70324Y61401D01*
X70156Y61452D01*
X69980Y61469D01*
D02*
G37*
G36*
X60236Y50938D02*
X60053Y50920D01*
X59877Y50866D01*
X59715Y50780D01*
X59573Y50663D01*
X59457Y50521D01*
X59370Y50359D01*
X59317Y50183D01*
X59299Y50000D01*
X59317Y49817D01*
X59370Y49641D01*
X59457Y49479D01*
X59573Y49337D01*
X59715Y49220D01*
X59877Y49134D01*
X60053Y49080D01*
X60236Y49062D01*
X60419Y49080D01*
X60595Y49134D01*
X60757Y49220D01*
X60899Y49337D01*
X61016Y49479D01*
X61102Y49641D01*
X61156Y49817D01*
X61174Y50000D01*
X61156Y50183D01*
X61102Y50359D01*
X61016Y50521D01*
X60899Y50663D01*
X60757Y50780D01*
X60595Y50866D01*
X60419Y50920D01*
X60236Y50938D01*
D02*
G37*
G36*
X58268D02*
X58085Y50920D01*
X57909Y50866D01*
X57747Y50780D01*
X57605Y50663D01*
X57488Y50521D01*
X57401Y50359D01*
X57348Y50183D01*
X57330Y50000D01*
X57348Y49817D01*
X57401Y49641D01*
X57488Y49479D01*
X57605Y49337D01*
X57747Y49220D01*
X57909Y49134D01*
X58085Y49080D01*
X58268Y49062D01*
X58451Y49080D01*
X58627Y49134D01*
X58789Y49220D01*
X58931Y49337D01*
X59047Y49479D01*
X59134Y49641D01*
X59187Y49817D01*
X59205Y50000D01*
X59187Y50183D01*
X59134Y50359D01*
X59047Y50521D01*
X58931Y50663D01*
X58789Y50780D01*
X58627Y50866D01*
X58451Y50920D01*
X58268Y50938D01*
D02*
G37*
G36*
X2362Y61882D02*
X2166Y61866D01*
X1975Y61821D01*
X1794Y61745D01*
X1626Y61643D01*
X1477Y61515D01*
X1349Y61366D01*
X1247Y61198D01*
X1172Y61017D01*
X1126Y60826D01*
X1110Y60630D01*
X1126Y60434D01*
X1172Y60243D01*
X1247Y60062D01*
X1349Y59894D01*
X1477Y59745D01*
X1626Y59617D01*
X1794Y59514D01*
X1975Y59439D01*
X2166Y59393D01*
X2362Y59378D01*
X2558Y59393D01*
X2749Y59439D01*
X2931Y59514D01*
X3098Y59617D01*
X3247Y59745D01*
X3375Y59894D01*
X3478Y60062D01*
X3553Y60243D01*
X3599Y60434D01*
X3614Y60630D01*
X3599Y60826D01*
X3553Y61017D01*
X3478Y61198D01*
X3375Y61366D01*
X3247Y61515D01*
X3098Y61643D01*
X2931Y61745D01*
X2749Y61821D01*
X2558Y61866D01*
X2362Y61882D01*
D02*
G37*
G36*
X9843Y44834D02*
X9665Y44820D01*
X9492Y44779D01*
X9328Y44711D01*
X9176Y44618D01*
X9041Y44502D01*
X8926Y44367D01*
X8833Y44215D01*
X8765Y44051D01*
X8723Y43878D01*
X8709Y43701D01*
X8723Y43523D01*
X8765Y43351D01*
X8833Y43186D01*
X8926Y43035D01*
X9041Y42899D01*
X9176Y42784D01*
X9328Y42691D01*
X9492Y42623D01*
X9665Y42581D01*
X9843Y42567D01*
X10020Y42581D01*
X10193Y42623D01*
X10357Y42691D01*
X10509Y42784D01*
X10644Y42899D01*
X10759Y43035D01*
X10852Y43186D01*
X10920Y43351D01*
X10962Y43523D01*
X10976Y43701D01*
X10962Y43878D01*
X10920Y44051D01*
X10852Y44215D01*
X10759Y44367D01*
X10644Y44502D01*
X10509Y44618D01*
X10357Y44711D01*
X10193Y44779D01*
X10020Y44820D01*
X9843Y44834D01*
D02*
G37*
G36*
X43307Y41056D02*
X43132Y41038D01*
X42963Y40987D01*
X42808Y40904D01*
X42672Y40792D01*
X42560Y40656D01*
X42477Y40501D01*
X42426Y40333D01*
X42409Y40157D01*
X42426Y39982D01*
X42477Y39814D01*
X42560Y39659D01*
X42672Y39522D01*
X42808Y39411D01*
X42963Y39328D01*
X43132Y39277D01*
X43307Y39259D01*
X43482Y39277D01*
X43651Y39328D01*
X43806Y39411D01*
X43942Y39522D01*
X44054Y39659D01*
X44137Y39814D01*
X44188Y39982D01*
X44205Y40157D01*
X44188Y40333D01*
X44137Y40501D01*
X44054Y40656D01*
X43942Y40792D01*
X43806Y40904D01*
X43651Y40987D01*
X43482Y41038D01*
X43307Y41056D01*
D02*
G37*
G36*
X37500Y37837D02*
X37338Y37821D01*
X37183Y37774D01*
X37040Y37697D01*
X36914Y37594D01*
X36811Y37468D01*
X36734Y37325D01*
X36687Y37170D01*
X36671Y37008D01*
X36687Y36846D01*
X36734Y36691D01*
X36811Y36547D01*
X36914Y36422D01*
X37040Y36319D01*
X37183Y36242D01*
X37338Y36195D01*
X37500Y36179D01*
X37662Y36195D01*
X37817Y36242D01*
X37960Y36319D01*
X38086Y36422D01*
X38189Y36547D01*
X38266Y36691D01*
X38313Y36846D01*
X38329Y37008D01*
X38313Y37170D01*
X38266Y37325D01*
X38189Y37468D01*
X38086Y37594D01*
X37960Y37697D01*
X37817Y37774D01*
X37662Y37821D01*
X37500Y37837D01*
D02*
G37*
G36*
X28642D02*
X28480Y37821D01*
X28325Y37774D01*
X28181Y37697D01*
X28056Y37594D01*
X27953Y37468D01*
X27876Y37325D01*
X27829Y37170D01*
X27813Y37008D01*
X27829Y36846D01*
X27876Y36691D01*
X27953Y36547D01*
X28056Y36422D01*
X28181Y36319D01*
X28325Y36242D01*
X28480Y36195D01*
X28642Y36179D01*
X28803Y36195D01*
X28959Y36242D01*
X29102Y36319D01*
X29228Y36422D01*
X29331Y36547D01*
X29407Y36691D01*
X29455Y36846D01*
X29471Y37008D01*
X29455Y37170D01*
X29407Y37325D01*
X29331Y37468D01*
X29228Y37594D01*
X29102Y37697D01*
X28959Y37774D01*
X28803Y37821D01*
X28642Y37837D01*
D02*
G37*
G36*
X25098D02*
X24937Y37821D01*
X24781Y37774D01*
X24638Y37697D01*
X24512Y37594D01*
X24409Y37468D01*
X24333Y37325D01*
X24286Y37170D01*
X24270Y37008D01*
X24286Y36846D01*
X24333Y36691D01*
X24409Y36547D01*
X24512Y36422D01*
X24638Y36319D01*
X24781Y36242D01*
X24937Y36195D01*
X25098Y36179D01*
X25260Y36195D01*
X25416Y36242D01*
X25559Y36319D01*
X25684Y36422D01*
X25788Y36547D01*
X25864Y36691D01*
X25911Y36846D01*
X25927Y37008D01*
X25911Y37170D01*
X25864Y37325D01*
X25788Y37468D01*
X25684Y37594D01*
X25559Y37697D01*
X25416Y37774D01*
X25260Y37821D01*
X25098Y37837D01*
D02*
G37*
G36*
X1870D02*
X1708Y37821D01*
X1553Y37774D01*
X1410Y37697D01*
X1284Y37594D01*
X1181Y37468D01*
X1104Y37325D01*
X1057Y37170D01*
X1041Y37008D01*
X1057Y36846D01*
X1104Y36691D01*
X1181Y36547D01*
X1284Y36422D01*
X1410Y36319D01*
X1553Y36242D01*
X1708Y36195D01*
X1870Y36179D01*
X2032Y36195D01*
X2187Y36242D01*
X2331Y36319D01*
X2456Y36422D01*
X2559Y36547D01*
X2636Y36691D01*
X2683Y36846D01*
X2699Y37008D01*
X2683Y37170D01*
X2636Y37325D01*
X2559Y37468D01*
X2456Y37594D01*
X2331Y37697D01*
X2187Y37774D01*
X2032Y37821D01*
X1870Y37837D01*
D02*
G37*
G36*
X133071Y47405D02*
X132927Y47386D01*
X132793Y47331D01*
X132679Y47243D01*
X132590Y47128D01*
X132535Y46994D01*
X132516Y46850D01*
X132535Y46707D01*
X132590Y46573D01*
X132679Y46458D01*
X133466Y45671D01*
X133581Y45583D01*
X133715Y45527D01*
X133858Y45508D01*
X134002Y45527D01*
X134136Y45583D01*
X134251Y45671D01*
X134339Y45786D01*
X134394Y45919D01*
X134413Y46063D01*
X134394Y46207D01*
X134339Y46340D01*
X134251Y46455D01*
X133463Y47243D01*
X133348Y47331D01*
X133214Y47386D01*
X133071Y47405D01*
D02*
G37*
G36*
X50256Y31693D02*
X49764D01*
Y31425D01*
X49741Y31371D01*
X49732Y31299D01*
X49741Y31227D01*
X49764Y31173D01*
Y30906D01*
X50256D01*
Y31173D01*
X50278Y31227D01*
X50288Y31299D01*
X50278Y31371D01*
X50256Y31425D01*
Y31693D01*
D02*
G37*
G36*
X40591Y27756D02*
X40098D01*
Y26969D01*
X40137D01*
Y26772D01*
X40098D01*
Y26586D01*
X39549D01*
Y26644D01*
X39542Y26682D01*
X39520Y26715D01*
X39487Y26736D01*
X39449Y26744D01*
X39134D01*
X39095Y26736D01*
X39063Y26715D01*
X39041Y26682D01*
X39034Y26644D01*
Y26112D01*
X39041Y26074D01*
X39063Y26041D01*
X39095Y26019D01*
X39134Y26012D01*
X39449D01*
X39487Y26019D01*
X39520Y26041D01*
X39542Y26074D01*
X39549Y26112D01*
Y26170D01*
X40098D01*
Y25984D01*
X40591D01*
Y26772D01*
X40552D01*
Y26969D01*
X40591D01*
Y27756D01*
D02*
G37*
G36*
X57215Y26555D02*
X56663D01*
Y26161D01*
X57215D01*
Y26555D01*
D02*
G37*
G36*
X56427Y24390D02*
X55876D01*
Y23996D01*
X56427D01*
Y24390D01*
D02*
G37*
G36*
X60315Y21417D02*
X59764D01*
Y21024D01*
X60315D01*
Y21417D01*
D02*
G37*
G36*
X64793Y20689D02*
X64242D01*
Y20295D01*
X64793D01*
Y20689D01*
D02*
G37*
G36*
X59537Y21639D02*
X58980D01*
Y20881D01*
X59088D01*
Y20754D01*
X58892D01*
Y19797D01*
X59076D01*
Y19650D01*
X59029Y19580D01*
X59011Y19488D01*
X59029Y19396D01*
X59082Y19318D01*
X59160Y19266D01*
X59252Y19247D01*
X59344Y19266D01*
X59422Y19318D01*
X59474Y19396D01*
X59493Y19488D01*
X59474Y19580D01*
X59441Y19631D01*
Y19797D01*
X59649D01*
Y20754D01*
X59453D01*
Y20881D01*
X59537D01*
Y21639D01*
D02*
G37*
G36*
X17681Y31870D02*
X16933D01*
Y31122D01*
X17681D01*
Y31870D01*
D02*
G37*
G36*
X18307Y31873D02*
X18209Y31860D01*
X18118Y31823D01*
X18040Y31763D01*
X17980Y31685D01*
X17943Y31594D01*
X17930Y31496D01*
X17943Y31398D01*
X17980Y31307D01*
X18040Y31229D01*
X18118Y31169D01*
X18209Y31132D01*
X18307Y31119D01*
X18405Y31132D01*
X18496Y31169D01*
X18574Y31229D01*
X18634Y31307D01*
X18671Y31398D01*
X18684Y31496D01*
X18671Y31594D01*
X18634Y31685D01*
X18574Y31763D01*
X18496Y31823D01*
X18405Y31860D01*
X18307Y31873D01*
D02*
G37*
G36*
X20531Y30118D02*
X18996D01*
Y29661D01*
X18909Y29574D01*
X18834D01*
X18773Y29599D01*
X18701Y29609D01*
X18629Y29599D01*
X18562Y29571D01*
X18504Y29527D01*
X18460Y29470D01*
X18432Y29403D01*
X18423Y29331D01*
X18432Y29259D01*
X18460Y29192D01*
X18504Y29134D01*
X18562Y29090D01*
X18629Y29062D01*
X18701Y29053D01*
X18773Y29062D01*
X18840Y29090D01*
X18862Y29107D01*
X19006D01*
X19095Y29125D01*
X19171Y29176D01*
X19326Y29331D01*
X20531D01*
Y30118D01*
D02*
G37*
G36*
X23372Y30018D02*
X23280Y30000D01*
X23202Y29948D01*
X23150Y29870D01*
X23131Y29778D01*
X23150Y29685D01*
X23202Y29607D01*
X23280Y29555D01*
X23372Y29537D01*
X23464Y29555D01*
X23524Y29595D01*
X24414D01*
X24424Y29585D01*
Y29089D01*
X24384Y29029D01*
X24365Y28937D01*
X24384Y28845D01*
X24436Y28767D01*
X24514Y28714D01*
X24606Y28696D01*
X24698Y28714D01*
X24777Y28767D01*
X24829Y28845D01*
X24847Y28937D01*
X24829Y29029D01*
X24789Y29089D01*
Y29660D01*
X24775Y29730D01*
X24735Y29789D01*
X24735Y29789D01*
X24618Y29906D01*
X24559Y29946D01*
X24489Y29960D01*
X24489Y29960D01*
X23524D01*
X23464Y30000D01*
X23372Y30018D01*
D02*
G37*
G36*
X4724Y18898D02*
X4642Y18887D01*
X4566Y18855D01*
X4500Y18805D01*
X4449Y18739D01*
X4418Y18662D01*
X4407Y18580D01*
X4418Y18498D01*
X4449Y18421D01*
X4500Y18355D01*
X4566Y18305D01*
X4642Y18273D01*
X4724Y18262D01*
X4807Y18273D01*
X4883Y18305D01*
X4949Y18355D01*
X5000Y18421D01*
X5031Y18498D01*
X5042Y18580D01*
X5031Y18662D01*
X5000Y18739D01*
X4949Y18805D01*
X4883Y18855D01*
X4807Y18887D01*
X4724Y18898D01*
D02*
G37*
G36*
X5512Y11735D02*
X5430Y11724D01*
X5353Y11692D01*
X5287Y11642D01*
X5237Y11576D01*
X5205Y11500D01*
X5194Y11417D01*
X5205Y11335D01*
X5237Y11258D01*
X5287Y11193D01*
X5353Y11142D01*
X5430Y11110D01*
X5512Y11100D01*
X5594Y11110D01*
X5671Y11142D01*
X5736Y11193D01*
X5787Y11258D01*
X5819Y11335D01*
X5829Y11417D01*
X5819Y11500D01*
X5787Y11576D01*
X5736Y11642D01*
X5671Y11692D01*
X5594Y11724D01*
X5512Y11735D01*
D02*
G37*
G36*
Y9373D02*
X5430Y9362D01*
X5353Y9330D01*
X5287Y9280D01*
X5237Y9214D01*
X5205Y9137D01*
X5194Y9055D01*
X5205Y8973D01*
X5237Y8896D01*
X5287Y8830D01*
X5353Y8780D01*
X5430Y8748D01*
X5512Y8737D01*
X5594Y8748D01*
X5671Y8780D01*
X5736Y8830D01*
X5787Y8896D01*
X5819Y8973D01*
X5829Y9055D01*
X5819Y9137D01*
X5787Y9214D01*
X5736Y9280D01*
X5671Y9330D01*
X5594Y9362D01*
X5512Y9373D01*
D02*
G37*
G36*
X15236Y3366D02*
X15133Y3352D01*
X15038Y3312D01*
X14955Y3249D01*
X14892Y3167D01*
X14853Y3071D01*
X14839Y2968D01*
X14853Y2866D01*
X14892Y2770D01*
X14955Y2688D01*
X15038Y2625D01*
X15133Y2585D01*
X15236Y2571D01*
X15339Y2585D01*
X15435Y2625D01*
X15517Y2688D01*
X15580Y2770D01*
X15620Y2866D01*
X15633Y2968D01*
X15620Y3071D01*
X15580Y3167D01*
X15517Y3249D01*
X15435Y3312D01*
X15339Y3352D01*
X15236Y3366D01*
D02*
G37*
G36*
X14236D02*
X14133Y3352D01*
X14038Y3312D01*
X13955Y3249D01*
X13892Y3167D01*
X13853Y3071D01*
X13839Y2968D01*
X13853Y2866D01*
X13892Y2770D01*
X13955Y2688D01*
X14038Y2625D01*
X14133Y2585D01*
X14236Y2571D01*
X14339Y2585D01*
X14435Y2625D01*
X14517Y2688D01*
X14580Y2770D01*
X14620Y2866D01*
X14633Y2968D01*
X14620Y3071D01*
X14580Y3167D01*
X14517Y3249D01*
X14435Y3312D01*
X14339Y3352D01*
X14236Y3366D01*
D02*
G37*
G36*
X13236D02*
X13133Y3352D01*
X13038Y3312D01*
X12955Y3249D01*
X12892Y3167D01*
X12853Y3071D01*
X12839Y2968D01*
X12853Y2866D01*
X12892Y2770D01*
X12955Y2688D01*
X13038Y2625D01*
X13133Y2585D01*
X13236Y2571D01*
X13339Y2585D01*
X13435Y2625D01*
X13517Y2688D01*
X13580Y2770D01*
X13620Y2866D01*
X13633Y2968D01*
X13620Y3071D01*
X13580Y3167D01*
X13517Y3249D01*
X13435Y3312D01*
X13339Y3352D01*
X13236Y3366D01*
D02*
G37*
G36*
X12236D02*
X12133Y3352D01*
X12038Y3312D01*
X11955Y3249D01*
X11892Y3167D01*
X11853Y3071D01*
X11839Y2968D01*
X11853Y2866D01*
X11892Y2770D01*
X11955Y2688D01*
X12038Y2625D01*
X12133Y2585D01*
X12236Y2571D01*
X12339Y2585D01*
X12435Y2625D01*
X12517Y2688D01*
X12580Y2770D01*
X12620Y2866D01*
X12633Y2968D01*
X12620Y3071D01*
X12580Y3167D01*
X12517Y3249D01*
X12435Y3312D01*
X12339Y3352D01*
X12236Y3366D01*
D02*
G37*
G36*
X11236D02*
X11133Y3352D01*
X11038Y3312D01*
X10955Y3249D01*
X10892Y3167D01*
X10853Y3071D01*
X10839Y2968D01*
X10853Y2866D01*
X10892Y2770D01*
X10955Y2688D01*
X11038Y2625D01*
X11133Y2585D01*
X11236Y2571D01*
X11339Y2585D01*
X11435Y2625D01*
X11517Y2688D01*
X11580Y2770D01*
X11620Y2866D01*
X11633Y2968D01*
X11620Y3071D01*
X11580Y3167D01*
X11517Y3249D01*
X11435Y3312D01*
X11339Y3352D01*
X11236Y3366D01*
D02*
G37*
G36*
X10236D02*
X10133Y3352D01*
X10038Y3312D01*
X9955Y3249D01*
X9892Y3167D01*
X9853Y3071D01*
X9839Y2968D01*
X9853Y2866D01*
X9892Y2770D01*
X9955Y2688D01*
X10038Y2625D01*
X10133Y2585D01*
X10236Y2571D01*
X10339Y2585D01*
X10435Y2625D01*
X10517Y2688D01*
X10580Y2770D01*
X10620Y2866D01*
X10633Y2968D01*
X10620Y3071D01*
X10580Y3167D01*
X10517Y3249D01*
X10435Y3312D01*
X10339Y3352D01*
X10236Y3366D01*
D02*
G37*
G36*
X9236D02*
X9133Y3352D01*
X9038Y3312D01*
X8955Y3249D01*
X8892Y3167D01*
X8853Y3071D01*
X8839Y2968D01*
X8853Y2866D01*
X8892Y2770D01*
X8955Y2688D01*
X9038Y2625D01*
X9133Y2585D01*
X9236Y2571D01*
X9339Y2585D01*
X9435Y2625D01*
X9517Y2688D01*
X9580Y2770D01*
X9620Y2866D01*
X9633Y2968D01*
X9620Y3071D01*
X9580Y3167D01*
X9517Y3249D01*
X9435Y3312D01*
X9339Y3352D01*
X9236Y3366D01*
D02*
G37*
G36*
X8236D02*
X8133Y3352D01*
X8038Y3312D01*
X7955Y3249D01*
X7892Y3167D01*
X7853Y3071D01*
X7839Y2968D01*
X7853Y2866D01*
X7892Y2770D01*
X7955Y2688D01*
X8038Y2625D01*
X8133Y2585D01*
X8236Y2571D01*
X8339Y2585D01*
X8435Y2625D01*
X8517Y2688D01*
X8580Y2770D01*
X8620Y2866D01*
X8633Y2968D01*
X8620Y3071D01*
X8580Y3167D01*
X8517Y3249D01*
X8435Y3312D01*
X8339Y3352D01*
X8236Y3366D01*
D02*
G37*
G36*
X10236Y2366D02*
X10133Y2352D01*
X10038Y2312D01*
X9955Y2249D01*
X9892Y2167D01*
X9853Y2071D01*
X9839Y1969D01*
X9853Y1866D01*
X9892Y1770D01*
X9955Y1688D01*
X10038Y1625D01*
X10133Y1585D01*
X10236Y1571D01*
X10339Y1585D01*
X10435Y1625D01*
X10517Y1688D01*
X10580Y1770D01*
X10620Y1866D01*
X10633Y1969D01*
X10620Y2071D01*
X10580Y2167D01*
X10517Y2249D01*
X10435Y2312D01*
X10339Y2352D01*
X10236Y2366D01*
D02*
G37*
G36*
X9236D02*
X9133Y2352D01*
X9038Y2312D01*
X8955Y2249D01*
X8892Y2167D01*
X8853Y2071D01*
X8839Y1969D01*
X8853Y1866D01*
X8892Y1770D01*
X8955Y1688D01*
X9038Y1625D01*
X9133Y1585D01*
X9236Y1571D01*
X9339Y1585D01*
X9435Y1625D01*
X9517Y1688D01*
X9580Y1770D01*
X9620Y1866D01*
X9633Y1969D01*
X9620Y2071D01*
X9580Y2167D01*
X9517Y2249D01*
X9435Y2312D01*
X9339Y2352D01*
X9236Y2366D01*
D02*
G37*
G36*
X8236D02*
X8133Y2352D01*
X8038Y2312D01*
X7955Y2249D01*
X7892Y2167D01*
X7853Y2071D01*
X7839Y1969D01*
X7853Y1866D01*
X7892Y1770D01*
X7955Y1688D01*
X8038Y1625D01*
X8133Y1585D01*
X8236Y1571D01*
X8339Y1585D01*
X8435Y1625D01*
X8517Y1688D01*
X8580Y1770D01*
X8620Y1866D01*
X8633Y1969D01*
X8620Y2071D01*
X8580Y2167D01*
X8517Y2249D01*
X8435Y2312D01*
X8339Y2352D01*
X8236Y2366D01*
D02*
G37*
G36*
X100882Y35150D02*
X100252D01*
X100092Y35134D01*
X99939Y35087D01*
X99797Y35012D01*
X99673Y34910D01*
X99571Y34786D01*
X99495Y34644D01*
X99449Y34490D01*
X99433Y34331D01*
Y33386D01*
X99449Y33226D01*
X99495Y33072D01*
X99571Y32931D01*
X99673Y32807D01*
X99797Y32705D01*
X99939Y32629D01*
X100092Y32583D01*
X100252Y32567D01*
X100882D01*
X101042Y32583D01*
X101195Y32629D01*
X101337Y32705D01*
X101461Y32807D01*
X101563Y32931D01*
X101638Y33072D01*
X101685Y33226D01*
X101701Y33386D01*
Y34331D01*
X101685Y34490D01*
X101638Y34644D01*
X101563Y34786D01*
X101461Y34910D01*
X101337Y35012D01*
X101195Y35087D01*
X101042Y35134D01*
X100882Y35150D01*
D02*
G37*
G36*
X64980Y28474D02*
X64547D01*
Y28332D01*
X64326D01*
X64256Y28318D01*
X64197Y28278D01*
X64197Y28278D01*
X63372Y27453D01*
X63332Y27394D01*
X63319Y27324D01*
X63319Y27324D01*
Y26449D01*
X63278Y26388D01*
X63260Y26296D01*
X63278Y26204D01*
X63330Y26126D01*
X63409Y26074D01*
X63501Y26055D01*
X63593Y26074D01*
X63671Y26126D01*
X63723Y26204D01*
X63742Y26296D01*
X63723Y26388D01*
X63683Y26449D01*
Y27249D01*
X64401Y27967D01*
X64547D01*
Y27825D01*
X64980D01*
Y28474D01*
D02*
G37*
G36*
Y27687D02*
X64547D01*
Y27519D01*
X64173D01*
X64113Y27507D01*
X64062Y27473D01*
X63866Y27276D01*
X63832Y27225D01*
X63820Y27165D01*
Y26853D01*
X63806Y26844D01*
X63754Y26765D01*
X63736Y26673D01*
X63754Y26581D01*
X63806Y26503D01*
X63822Y26493D01*
Y25568D01*
X63784D01*
Y25017D01*
X64177D01*
Y25568D01*
X64135D01*
Y26495D01*
X64147Y26503D01*
X64199Y26581D01*
X64217Y26673D01*
X64199Y26765D01*
X64147Y26844D01*
X64133Y26853D01*
Y27100D01*
X64238Y27205D01*
X64547D01*
Y27037D01*
X64980D01*
Y27687D01*
D02*
G37*
G36*
X66339Y26892D02*
X66256Y26882D01*
X66180Y26850D01*
X66114Y26799D01*
X66063Y26734D01*
X66032Y26657D01*
X66021Y26575D01*
X66032Y26493D01*
X66063Y26416D01*
X66114Y26350D01*
X66180Y26300D01*
X66256Y26268D01*
X66339Y26257D01*
X66421Y26268D01*
X66497Y26300D01*
X66563Y26350D01*
X66614Y26416D01*
X66645Y26493D01*
X66656Y26575D01*
X66645Y26657D01*
X66614Y26734D01*
X66563Y26799D01*
X66497Y26850D01*
X66421Y26882D01*
X66339Y26892D01*
D02*
G37*
G36*
X67111Y24485D02*
X66354D01*
Y24341D01*
X66270D01*
Y24429D01*
X65620D01*
Y23996D01*
X66270D01*
Y24078D01*
X66354D01*
Y23928D01*
X67111D01*
Y24485D01*
D02*
G37*
G36*
X66230Y21245D02*
X65672D01*
Y20487D01*
X65791D01*
Y20404D01*
X65728D01*
Y19754D01*
X66161D01*
Y20404D01*
X66105D01*
Y20487D01*
X66230D01*
Y21245D01*
D02*
G37*
G36*
X32480Y33152D02*
X32408Y33143D01*
X32341Y33115D01*
X32284Y33071D01*
X32261Y33041D01*
X32199D01*
X32177Y33071D01*
X32119Y33115D01*
X32052Y33143D01*
X31980Y33152D01*
X31908Y33143D01*
X31841Y33115D01*
X31784Y33071D01*
X31740Y33013D01*
X31712Y32946D01*
X31702Y32874D01*
X31712Y32802D01*
X31740Y32735D01*
X31784Y32677D01*
X31841Y32633D01*
X31908Y32606D01*
X31980Y32596D01*
X32052Y32606D01*
X32119Y32633D01*
X32177Y32677D01*
X32199Y32707D01*
X32261D01*
X32284Y32677D01*
X32341Y32633D01*
X32408Y32606D01*
X32480Y32596D01*
X32552Y32606D01*
X32619Y32633D01*
X32677Y32677D01*
X32721Y32735D01*
X32749Y32802D01*
X32758Y32874D01*
X32749Y32946D01*
X32721Y33013D01*
X32677Y33071D01*
X32619Y33115D01*
X32552Y33143D01*
X32480Y33152D01*
D02*
G37*
G36*
X30965Y27362D02*
X29429D01*
Y26575D01*
X30965D01*
Y27362D01*
D02*
G37*
G36*
X12214Y22111D02*
X12122Y22093D01*
X12083Y22067D01*
X11880D01*
Y21634D01*
X12190D01*
X12214Y21629D01*
X12237Y21634D01*
X12530D01*
Y22067D01*
X12344D01*
X12306Y22093D01*
X12214Y22111D01*
D02*
G37*
G36*
X114409Y20464D02*
X113228D01*
X113057Y20451D01*
X112890Y20410D01*
X112732Y20345D01*
X112585Y20255D01*
X112455Y20144D01*
X112343Y20013D01*
X112254Y19867D01*
X112188Y19708D01*
X112148Y19541D01*
X112134Y19370D01*
Y17008D01*
X112148Y16837D01*
X112188Y16670D01*
X112254Y16511D01*
X112343Y16365D01*
X112455Y16234D01*
X112585Y16123D01*
X112732Y16033D01*
X112890Y15967D01*
X113057Y15927D01*
X113228Y15914D01*
X114409D01*
X114581Y15927D01*
X114747Y15967D01*
X114906Y16033D01*
X115052Y16123D01*
X115183Y16234D01*
X115294Y16365D01*
X115384Y16511D01*
X115450Y16670D01*
X115490Y16837D01*
X115503Y17008D01*
Y19370D01*
X115490Y19541D01*
X115450Y19708D01*
X115384Y19867D01*
X115294Y20013D01*
X115183Y20144D01*
X115052Y20255D01*
X114906Y20345D01*
X114747Y20410D01*
X114581Y20451D01*
X114409Y20464D01*
D02*
G37*
G36*
X147244Y61461D02*
X147082Y61445D01*
X146926Y61397D01*
X146783Y61321D01*
X146657Y61217D01*
X146553Y61091D01*
X146477Y60948D01*
X146429Y60792D01*
X146413Y60630D01*
X146429Y60468D01*
X146477Y60312D01*
X146553Y60168D01*
X146657Y60042D01*
X146783Y59939D01*
X146926Y59862D01*
X147082Y59815D01*
X147244Y59799D01*
X147406Y59815D01*
X147562Y59862D01*
X147706Y59939D01*
X147832Y60042D01*
X147935Y60168D01*
X148012Y60312D01*
X148059Y60468D01*
X148075Y60630D01*
X148059Y60792D01*
X148012Y60948D01*
X147935Y61091D01*
X147832Y61217D01*
X147706Y61321D01*
X147562Y61397D01*
X147406Y61445D01*
X147244Y61461D01*
D02*
G37*
G36*
X147047Y57030D02*
X146886Y57014D01*
X146730Y56966D01*
X146587Y56890D01*
X146461Y56787D01*
X146358Y56661D01*
X146282Y56518D01*
X146234Y56362D01*
X146218Y56201D01*
X146234Y56039D01*
X146282Y55884D01*
X146358Y55740D01*
X146461Y55615D01*
X146587Y55512D01*
X146730Y55435D01*
X146886Y55388D01*
X147047Y55372D01*
X147209Y55388D01*
X147364Y55435D01*
X147508Y55512D01*
X147633Y55615D01*
X147736Y55740D01*
X147813Y55884D01*
X147860Y56039D01*
X147876Y56201D01*
X147860Y56362D01*
X147813Y56518D01*
X147736Y56661D01*
X147633Y56787D01*
X147508Y56890D01*
X147364Y56966D01*
X147209Y57014D01*
X147047Y57030D01*
D02*
G37*
G36*
Y36557D02*
X146886Y36541D01*
X146730Y36494D01*
X146587Y36417D01*
X146461Y36314D01*
X146358Y36189D01*
X146282Y36046D01*
X146234Y35890D01*
X146218Y35728D01*
X146234Y35567D01*
X146282Y35411D01*
X146358Y35268D01*
X146461Y35142D01*
X146587Y35039D01*
X146730Y34963D01*
X146886Y34915D01*
X147047Y34900D01*
X147209Y34915D01*
X147364Y34963D01*
X147508Y35039D01*
X147633Y35142D01*
X147736Y35268D01*
X147813Y35411D01*
X147860Y35567D01*
X147876Y35728D01*
X147860Y35890D01*
X147813Y36046D01*
X147736Y36189D01*
X147633Y36314D01*
X147508Y36417D01*
X147364Y36494D01*
X147209Y36541D01*
X147047Y36557D01*
D02*
G37*
G36*
X147031Y34323D02*
X146864Y34307D01*
X146703Y34258D01*
X146555Y34178D01*
X146424Y34072D01*
X146318Y33942D01*
X146238Y33793D01*
X146190Y33632D01*
X146173Y33465D01*
X146190Y33297D01*
X146238Y33136D01*
X146318Y32988D01*
X146337Y32965D01*
X146318Y32942D01*
X146238Y32793D01*
X146190Y32632D01*
X146173Y32465D01*
X146190Y32297D01*
X146238Y32136D01*
X146318Y31988D01*
X146424Y31858D01*
X146555Y31751D01*
X146650Y31700D01*
X146653Y31683D01*
X146610Y31578D01*
X146595Y31465D01*
X146610Y31352D01*
X146653Y31246D01*
X146723Y31156D01*
X146813Y31086D01*
X146918Y31043D01*
X147031Y31028D01*
X147145Y31043D01*
X147250Y31086D01*
X147340Y31156D01*
X147410Y31246D01*
X147453Y31352D01*
X147468Y31465D01*
X147453Y31578D01*
X147410Y31683D01*
X147413Y31700D01*
X147508Y31751D01*
X147531Y31770D01*
X147555Y31751D01*
X147650Y31700D01*
X147653Y31683D01*
X147610Y31578D01*
X147595Y31465D01*
X147610Y31352D01*
X147653Y31246D01*
X147723Y31156D01*
X147813Y31086D01*
X147918Y31043D01*
X148032Y31028D01*
X148145Y31043D01*
X148250Y31086D01*
X148340Y31156D01*
X148410Y31246D01*
X148453Y31352D01*
X148468Y31465D01*
X148453Y31578D01*
X148410Y31683D01*
X148413Y31700D01*
X148508Y31751D01*
X148639Y31858D01*
X148745Y31988D01*
X148825Y32136D01*
X148873Y32297D01*
X148890Y32465D01*
X148877Y32600D01*
X148886Y32610D01*
X148886D01*
Y34319D01*
X147177D01*
Y34319D01*
X147167Y34310D01*
X147031Y34323D01*
D02*
G37*
G36*
X148032Y30901D02*
X147918Y30886D01*
X147813Y30843D01*
X147723Y30773D01*
X147653Y30683D01*
X147610Y30578D01*
X147595Y30465D01*
X147610Y30352D01*
X147653Y30246D01*
X147723Y30156D01*
X147813Y30086D01*
X147918Y30043D01*
X148032Y30028D01*
X148145Y30043D01*
X148250Y30086D01*
X148340Y30156D01*
X148410Y30246D01*
X148453Y30352D01*
X148468Y30465D01*
X148453Y30578D01*
X148410Y30683D01*
X148340Y30773D01*
X148250Y30843D01*
X148145Y30886D01*
X148032Y30901D01*
D02*
G37*
G36*
X147031D02*
X146918Y30886D01*
X146813Y30843D01*
X146723Y30773D01*
X146653Y30683D01*
X146610Y30578D01*
X146595Y30465D01*
X146610Y30352D01*
X146653Y30246D01*
X146723Y30156D01*
X146813Y30086D01*
X146918Y30043D01*
X147031Y30028D01*
X147145Y30043D01*
X147250Y30086D01*
X147340Y30156D01*
X147410Y30246D01*
X147453Y30352D01*
X147468Y30465D01*
X147453Y30578D01*
X147410Y30683D01*
X147340Y30773D01*
X147250Y30843D01*
X147145Y30886D01*
X147031Y30901D01*
D02*
G37*
G36*
X77165Y30042D02*
X77083Y30031D01*
X77007Y30000D01*
X76941Y29949D01*
X76890Y29883D01*
X76859Y29807D01*
X76848Y29724D01*
X76859Y29642D01*
X76890Y29566D01*
X76941Y29500D01*
X77007Y29449D01*
X77083Y29418D01*
X77165Y29407D01*
X77248Y29418D01*
X77324Y29449D01*
X77390Y29500D01*
X77440Y29566D01*
X77472Y29642D01*
X77483Y29724D01*
X77472Y29807D01*
X77440Y29883D01*
X77390Y29949D01*
X77324Y30000D01*
X77248Y30031D01*
X77165Y30042D01*
D02*
G37*
G36*
X81989Y29753D02*
X81232D01*
Y29195D01*
X81454D01*
Y27722D01*
X81404Y27678D01*
X81387Y27680D01*
X81305Y27669D01*
X81228Y27637D01*
X81162Y27587D01*
X81112Y27521D01*
X81080Y27444D01*
X81069Y27362D01*
X81080Y27280D01*
X81112Y27203D01*
X81162Y27138D01*
X81228Y27087D01*
X81305Y27055D01*
X81387Y27045D01*
X81469Y27055D01*
X81546Y27087D01*
X81612Y27138D01*
X81662Y27203D01*
X81694Y27280D01*
X81705Y27362D01*
X81694Y27444D01*
X81686Y27465D01*
X81721Y27500D01*
X81755Y27551D01*
X81767Y27611D01*
Y29195D01*
X81989D01*
Y29753D01*
D02*
G37*
G36*
X82859Y29749D02*
X82101D01*
Y29192D01*
X82323D01*
Y27638D01*
X82321Y27637D01*
X82256Y27587D01*
X82205Y27521D01*
X82173Y27444D01*
X82163Y27362D01*
X82173Y27280D01*
X82205Y27203D01*
X82256Y27138D01*
X82321Y27087D01*
X82398Y27055D01*
X82480Y27045D01*
X82563Y27055D01*
X82639Y27087D01*
X82705Y27138D01*
X82755Y27203D01*
X82787Y27280D01*
X82798Y27362D01*
X82787Y27444D01*
X82755Y27521D01*
X82705Y27587D01*
X82639Y27637D01*
X82637Y27638D01*
Y29192D01*
X82859D01*
Y29749D01*
D02*
G37*
G36*
X77844Y27544D02*
X77287D01*
Y26787D01*
X77844D01*
Y27544D01*
D02*
G37*
G36*
X76988Y28278D02*
X76555D01*
Y27628D01*
X76612D01*
Y27544D01*
X76487D01*
Y26787D01*
X77044D01*
Y27544D01*
X76925D01*
Y27628D01*
X76988D01*
Y28278D01*
D02*
G37*
G36*
X72244Y30396D02*
X72172Y30387D01*
X72105Y30359D01*
X72048Y30315D01*
X72003Y30257D01*
X71976Y30190D01*
X71966Y30118D01*
X71976Y30046D01*
X72003Y29979D01*
X72036Y29936D01*
Y27223D01*
X72010Y27203D01*
X71957Y27134D01*
X71924Y27054D01*
X71913Y26969D01*
X71924Y26883D01*
X71957Y26803D01*
X72010Y26734D01*
X72078Y26681D01*
X72158Y26648D01*
X72244Y26637D01*
X72330Y26648D01*
X72410Y26681D01*
X72479Y26734D01*
X72531Y26803D01*
X72564Y26883D01*
X72576Y26969D01*
X72564Y27054D01*
X72531Y27134D01*
X72479Y27203D01*
X72452Y27223D01*
Y29936D01*
X72485Y29979D01*
X72513Y30046D01*
X72522Y30118D01*
X72513Y30190D01*
X72485Y30257D01*
X72441Y30315D01*
X72383Y30359D01*
X72316Y30387D01*
X72244Y30396D01*
D02*
G37*
G36*
X78740Y26892D02*
X78658Y26882D01*
X78581Y26850D01*
X78516Y26799D01*
X78465Y26734D01*
X78433Y26657D01*
X78422Y26575D01*
X78433Y26493D01*
X78465Y26416D01*
X78516Y26350D01*
X78581Y26300D01*
X78658Y26268D01*
X78740Y26257D01*
X78822Y26268D01*
X78899Y26300D01*
X78965Y26350D01*
X79015Y26416D01*
X79047Y26493D01*
X79058Y26575D01*
X79047Y26657D01*
X79015Y26734D01*
X78965Y26799D01*
X78899Y26850D01*
X78822Y26882D01*
X78740Y26892D01*
D02*
G37*
G36*
X77776Y26703D02*
X77343D01*
Y26469D01*
X77325Y26378D01*
X77343Y26287D01*
Y26053D01*
X77776D01*
Y26268D01*
X77788Y26286D01*
X77806Y26378D01*
X77788Y26470D01*
X77776Y26488D01*
Y26703D01*
D02*
G37*
G36*
X78543Y24650D02*
X78451Y24632D01*
X78442Y24626D01*
X78218D01*
Y24193D01*
X78442D01*
X78451Y24187D01*
X78543Y24169D01*
X78635Y24187D01*
X78644Y24193D01*
X78868D01*
Y24626D01*
X78644D01*
X78635Y24632D01*
X78543Y24650D01*
D02*
G37*
G36*
X78868Y23839D02*
X78218D01*
Y23804D01*
X77866D01*
X77866Y23804D01*
X77797Y23790D01*
X77738Y23751D01*
X77738Y23751D01*
X76807Y22820D01*
X72516D01*
X72438Y22899D01*
X72440Y22954D01*
X72479Y22984D01*
X72531Y23053D01*
X72564Y23132D01*
X72576Y23218D01*
X72564Y23304D01*
X72531Y23384D01*
X72479Y23453D01*
X72410Y23505D01*
X72330Y23539D01*
X72244Y23550D01*
X72158Y23539D01*
X72078Y23505D01*
X72010Y23453D01*
X71957Y23384D01*
X71924Y23304D01*
X71913Y23218D01*
X71924Y23132D01*
X71957Y23053D01*
X72010Y22984D01*
X72062Y22944D01*
Y22835D01*
X72062Y22835D01*
X72076Y22765D01*
X72115Y22706D01*
X72312Y22509D01*
X72312Y22509D01*
X72371Y22469D01*
X72441Y22456D01*
X76882D01*
X76882Y22456D01*
X76952Y22469D01*
X77011Y22509D01*
X77942Y23440D01*
X78218D01*
Y23406D01*
X78336D01*
Y23287D01*
X78150D01*
Y22795D01*
X78937D01*
Y23287D01*
X78751D01*
Y23406D01*
X78868D01*
Y23839D01*
D02*
G37*
G36*
X76363Y23894D02*
X75606D01*
Y23337D01*
X76363D01*
X76378Y23366D01*
X77165D01*
Y23858D01*
X76378D01*
X76363Y23894D01*
D02*
G37*
G36*
X91073Y23248D02*
X90423D01*
Y23214D01*
X89695D01*
Y23248D01*
X89045D01*
Y22815D01*
X89695D01*
Y22849D01*
X89877D01*
Y21660D01*
X89555Y21339D01*
X88691D01*
Y20394D01*
X89070D01*
Y18622D01*
X89070Y18622D01*
X89084Y18552D01*
X89123Y18493D01*
X89975Y17641D01*
Y17046D01*
X89975Y17046D01*
X89989Y16977D01*
X90029Y16917D01*
X90146Y16800D01*
X90146Y16800D01*
X90195Y16768D01*
X90185Y16718D01*
X89892D01*
Y17146D01*
X89668D01*
X89659Y17152D01*
X89567Y17170D01*
X89475Y17152D01*
X89466Y17146D01*
X89242D01*
Y16718D01*
X88209D01*
Y16860D01*
X88174D01*
Y16998D01*
X88209D01*
Y17648D01*
X87805D01*
X87776Y17648D01*
X87755Y17689D01*
Y17744D01*
X87776Y17785D01*
X88209D01*
Y18435D01*
X88174D01*
Y18622D01*
X88474D01*
Y19567D01*
X87352D01*
Y18622D01*
X87810D01*
Y18435D01*
X87776D01*
Y18267D01*
X87686D01*
X87626Y18255D01*
X87575Y18221D01*
X87488Y18133D01*
X87471Y18109D01*
X87421Y18124D01*
Y18435D01*
X86988D01*
Y18292D01*
X86689D01*
X86678Y18303D01*
Y18622D01*
X87057D01*
Y19567D01*
X86600D01*
Y19862D01*
X86742D01*
Y20295D01*
X86093D01*
Y19862D01*
X86235D01*
Y19567D01*
X85935D01*
Y18622D01*
X86314D01*
Y18227D01*
X86314Y18227D01*
X86328Y18158D01*
X86367Y18099D01*
X86484Y17981D01*
X86484Y17981D01*
X86543Y17942D01*
X86613Y17928D01*
X86988D01*
Y17785D01*
X87392D01*
X87421Y17785D01*
X87442Y17744D01*
Y16902D01*
X87421Y16860D01*
X86988D01*
Y16718D01*
X86899D01*
Y16914D01*
X86342D01*
Y16192D01*
X86342Y16157D01*
X86298Y16142D01*
X82677D01*
Y14961D01*
X101968D01*
Y16142D01*
X100526D01*
X100482Y16157D01*
Y16914D01*
X100373D01*
Y17018D01*
X100373Y17018D01*
X100359Y17088D01*
X100319Y17147D01*
X100319Y17147D01*
X100212Y17255D01*
X100153Y17294D01*
X100083Y17308D01*
X100083Y17308D01*
X99485D01*
X99448Y17345D01*
Y17773D01*
X99451Y17778D01*
X99466Y17854D01*
Y18189D01*
X99451Y18266D01*
X99441Y18281D01*
Y18458D01*
X99441Y18458D01*
X99427Y18527D01*
X99388Y18587D01*
X99388Y18587D01*
X99145Y18830D01*
X99085Y18869D01*
X99016Y18883D01*
X99016Y18883D01*
X97766D01*
Y18917D01*
X97116D01*
Y18484D01*
X97766D01*
Y18519D01*
X98940D01*
X99077Y18382D01*
Y18247D01*
X99065Y18189D01*
Y17854D01*
X99080Y17778D01*
X99084Y17773D01*
Y17270D01*
X99084Y17270D01*
X99097Y17200D01*
X99137Y17141D01*
X99281Y16997D01*
X99281Y16997D01*
X99330Y16964D01*
X99321Y16914D01*
X99124D01*
Y16718D01*
X98948D01*
Y17773D01*
X98951Y17778D01*
X98966Y17854D01*
Y18189D01*
X98951Y18266D01*
X98908Y18331D01*
X98843Y18374D01*
X98766Y18390D01*
X98689Y18374D01*
X98624Y18331D01*
X98580Y18266D01*
X98565Y18189D01*
Y17854D01*
X98580Y17778D01*
X98584Y17773D01*
Y16718D01*
X97657D01*
Y16860D01*
X97224D01*
Y16211D01*
X97657D01*
Y16353D01*
X98903D01*
X98903Y16353D01*
X99124D01*
Y16157D01*
X99081Y16142D01*
X95238D01*
X95210Y16189D01*
X95210Y16192D01*
X95224Y16259D01*
Y17773D01*
X95227Y17778D01*
X95242Y17854D01*
Y18189D01*
X95227Y18266D01*
X95183Y18331D01*
X95118Y18374D01*
X95041Y18390D01*
X94965Y18374D01*
X94899Y18331D01*
X94856Y18266D01*
X94841Y18189D01*
Y17854D01*
X94856Y17778D01*
X94859Y17773D01*
Y16334D01*
X94849Y16324D01*
X92610D01*
X92600Y16374D01*
X92649Y16407D01*
X92792Y16550D01*
X93090D01*
Y16407D01*
X93524D01*
Y16631D01*
X93530Y16640D01*
X93548Y16732D01*
X93530Y16825D01*
X93524Y16834D01*
Y17057D01*
X93489D01*
Y17130D01*
X93500Y17141D01*
X93924D01*
X93924Y17141D01*
X93994Y17154D01*
X94053Y17194D01*
X94170Y17311D01*
X94170Y17311D01*
X94210Y17370D01*
X94224Y17440D01*
Y17773D01*
X94227Y17778D01*
X94242Y17854D01*
Y18189D01*
X94227Y18266D01*
X94183Y18331D01*
X94118Y18374D01*
X94041Y18390D01*
X93965Y18374D01*
X93899Y18331D01*
X93856Y18266D01*
X93841Y18189D01*
Y17854D01*
X93856Y17778D01*
X93859Y17773D01*
Y17515D01*
X93849Y17505D01*
X93424D01*
X93355Y17491D01*
X93295Y17452D01*
X93295Y17452D01*
X93178Y17335D01*
X93139Y17275D01*
X93125Y17206D01*
X93125Y17206D01*
Y17057D01*
X93090D01*
Y16915D01*
X92717D01*
X92717Y16915D01*
X92647Y16901D01*
X92588Y16861D01*
X92588Y16861D01*
X92444Y16718D01*
X92057D01*
Y17146D01*
X91915D01*
Y17500D01*
X92057D01*
Y17933D01*
X91407D01*
Y17899D01*
X91270D01*
Y17933D01*
X90620D01*
Y17500D01*
X91270D01*
Y17534D01*
X91407D01*
Y17500D01*
X91550D01*
Y17146D01*
X91407D01*
Y16718D01*
X91270D01*
Y17146D01*
X90620D01*
Y17111D01*
X90350D01*
X90340Y17122D01*
Y17717D01*
X90340Y17717D01*
X90326Y17786D01*
X90286Y17845D01*
X89434Y18698D01*
Y20394D01*
X89813D01*
Y21081D01*
X90058Y21326D01*
X90108Y21305D01*
Y20394D01*
X91230D01*
Y21339D01*
X90930D01*
Y22028D01*
X91073D01*
Y22059D01*
X91157D01*
Y21959D01*
X91914D01*
Y22059D01*
X91998D01*
Y22028D01*
X92648D01*
Y22461D01*
X91998D01*
Y22423D01*
X91914D01*
Y22517D01*
X91157D01*
Y22423D01*
X91073D01*
Y22461D01*
X90423D01*
Y22028D01*
X90566D01*
Y21339D01*
X90141D01*
X90121Y21389D01*
X90188Y21456D01*
X90188Y21456D01*
X90227Y21515D01*
X90241Y21585D01*
X90241Y21585D01*
Y22849D01*
X90423D01*
Y22815D01*
X91073D01*
Y23248D01*
D02*
G37*
G36*
X77953Y22106D02*
X77165D01*
Y21614D01*
X77953D01*
Y21643D01*
X78150D01*
Y21594D01*
X78937D01*
Y22087D01*
X78150D01*
Y22058D01*
X77953D01*
Y22106D01*
D02*
G37*
G36*
X94541Y20535D02*
X94465Y20520D01*
X94399Y20477D01*
X94356Y20411D01*
X94341Y20335D01*
Y20000D01*
X94356Y19923D01*
X94359Y19918D01*
Y19552D01*
X94359Y19552D01*
X94365Y19524D01*
X94324Y19474D01*
X92792D01*
X92505Y19761D01*
Y19862D01*
X92648D01*
Y20295D01*
X91998D01*
Y19862D01*
X92141D01*
Y19685D01*
X92141Y19685D01*
X92154Y19615D01*
X92194Y19556D01*
X92588Y19162D01*
X92588Y19162D01*
X92647Y19123D01*
X92717Y19109D01*
X92717Y19109D01*
X94802D01*
X94802Y19109D01*
X94802Y19109D01*
X95397D01*
X95487Y19019D01*
Y16732D01*
X95487Y16732D01*
X95501Y16663D01*
X95540Y16603D01*
X95737Y16407D01*
X95737Y16407D01*
X95796Y16367D01*
X95866Y16353D01*
X95866Y16353D01*
X96437D01*
Y16211D01*
X96870D01*
Y16860D01*
X96437D01*
Y16718D01*
X95942D01*
X95852Y16808D01*
Y19094D01*
X95852Y19094D01*
X95838Y19164D01*
X95798Y19223D01*
X95601Y19420D01*
X95542Y19460D01*
X95472Y19474D01*
X95472Y19474D01*
X94878D01*
X94724Y19628D01*
Y19918D01*
X94727Y19923D01*
X94742Y20000D01*
Y20335D01*
X94727Y20411D01*
X94683Y20477D01*
X94618Y20520D01*
X94541Y20535D01*
D02*
G37*
G36*
X77953Y20906D02*
X77165D01*
Y20413D01*
X77351D01*
Y19744D01*
X77165D01*
Y19252D01*
X77953D01*
Y19744D01*
X77767D01*
Y20413D01*
X77953D01*
Y20906D01*
D02*
G37*
G36*
X101166Y20548D02*
X100409D01*
Y19991D01*
X100605D01*
Y18883D01*
X99682D01*
X99448Y19117D01*
Y19918D01*
X99451Y19923D01*
X99466Y20000D01*
Y20335D01*
X99451Y20411D01*
X99408Y20477D01*
X99343Y20520D01*
X99266Y20535D01*
X99189Y20520D01*
X99124Y20477D01*
X99080Y20411D01*
X99065Y20335D01*
Y20000D01*
X99080Y19923D01*
X99084Y19918D01*
Y19041D01*
X99084Y19041D01*
X99097Y18972D01*
X99137Y18912D01*
X99477Y18572D01*
X99477Y18572D01*
X99537Y18532D01*
X99606Y18519D01*
X100635D01*
X100695Y18478D01*
X100787Y18460D01*
X100880Y18478D01*
X100958Y18530D01*
X101010Y18609D01*
X101028Y18701D01*
X101010Y18793D01*
X100970Y18853D01*
Y19991D01*
X101166D01*
Y20548D01*
D02*
G37*
G36*
X90157Y19138D02*
X90065Y19120D01*
X89987Y19068D01*
X89935Y18990D01*
X89917Y18898D01*
X89935Y18805D01*
X89987Y18727D01*
X90065Y18675D01*
X90136Y18661D01*
X90415Y18382D01*
X90415Y18382D01*
X90474Y18343D01*
X90544Y18329D01*
X90620D01*
Y18287D01*
X91270D01*
Y18720D01*
X90620D01*
Y18720D01*
X90577Y18736D01*
X90394Y18919D01*
X90380Y18990D01*
X90328Y19068D01*
X90250Y19120D01*
X90157Y19138D01*
D02*
G37*
G36*
X98266Y18390D02*
X98189Y18374D01*
X98124Y18331D01*
X98098Y18292D01*
X97714D01*
X97645Y18279D01*
X97586Y18239D01*
X97586Y18239D01*
X97468Y18122D01*
X97429Y18063D01*
X97416Y17998D01*
X97219D01*
Y17041D01*
X97976D01*
Y17928D01*
X98065D01*
Y17854D01*
X98080Y17778D01*
X98124Y17712D01*
X98189Y17669D01*
X98266Y17654D01*
X98343Y17669D01*
X98408Y17712D01*
X98451Y17778D01*
X98466Y17854D01*
Y18189D01*
X98451Y18266D01*
X98408Y18331D01*
X98343Y18374D01*
X98266Y18390D01*
D02*
G37*
G36*
X93541D02*
X93465Y18374D01*
X93399Y18331D01*
X93356Y18266D01*
X93341Y18189D01*
Y18146D01*
X93319Y18114D01*
X93300Y18022D01*
X93319Y17929D01*
X93341Y17897D01*
Y17854D01*
X93356Y17778D01*
X93399Y17712D01*
X93465Y17669D01*
X93541Y17654D01*
X93618Y17669D01*
X93683Y17712D01*
X93727Y17778D01*
X93742Y17854D01*
Y17897D01*
X93764Y17929D01*
X93782Y18022D01*
X93764Y18114D01*
X93742Y18146D01*
Y18189D01*
X93727Y18266D01*
X93683Y18331D01*
X93618Y18374D01*
X93541Y18390D01*
D02*
G37*
G36*
X92520Y17957D02*
X92428Y17939D01*
X92419Y17933D01*
X92195D01*
Y17500D01*
X92419D01*
X92428Y17494D01*
X92520Y17476D01*
X92612Y17494D01*
X92621Y17500D01*
X92844D01*
Y17933D01*
X92621D01*
X92612Y17939D01*
X92520Y17957D01*
D02*
G37*
G36*
X96876Y17998D02*
X96118D01*
Y17041D01*
X96876D01*
Y17998D01*
D02*
G37*
G36*
X146260Y19685D02*
X139764D01*
Y16732D01*
X146654D01*
Y19291D01*
X146260Y19685D01*
D02*
G37*
G36*
X94541Y18390D02*
X94465Y18374D01*
X94399Y18331D01*
X94356Y18266D01*
X94341Y18189D01*
Y17854D01*
X94356Y17778D01*
X94359Y17773D01*
Y17062D01*
X94311Y17057D01*
Y17057D01*
X93878D01*
Y16833D01*
X93872Y16824D01*
X93854Y16732D01*
X93872Y16640D01*
X93878Y16631D01*
Y16407D01*
X94311D01*
Y16550D01*
X94371D01*
X94371Y16550D01*
X94441Y16564D01*
X94500Y16603D01*
X94670Y16774D01*
X94670Y16774D01*
X94710Y16833D01*
X94724Y16903D01*
X94724Y16903D01*
Y17773D01*
X94727Y17778D01*
X94742Y17854D01*
Y18189D01*
X94727Y18266D01*
X94683Y18331D01*
X94618Y18374D01*
X94541Y18390D01*
D02*
G37*
G36*
X135433Y14520D02*
X135258Y14503D01*
X135089Y14452D01*
X134934Y14369D01*
X134798Y14257D01*
X134686Y14121D01*
X134603Y13966D01*
X134552Y13797D01*
X134535Y13622D01*
X134552Y13447D01*
X134603Y13278D01*
X134686Y13123D01*
X134798Y12987D01*
X134934Y12875D01*
X135089Y12792D01*
X135258Y12741D01*
X135433Y12724D01*
X135608Y12741D01*
X135777Y12792D01*
X135932Y12875D01*
X136068Y12987D01*
X136180Y13123D01*
X136263Y13278D01*
X136314Y13447D01*
X136331Y13622D01*
X136314Y13797D01*
X136263Y13966D01*
X136180Y14121D01*
X136068Y14257D01*
X135932Y14369D01*
X135777Y14452D01*
X135608Y14503D01*
X135433Y14520D01*
D02*
G37*
G36*
X137913Y14481D02*
X137738Y14463D01*
X137570Y14412D01*
X137414Y14329D01*
X137278Y14218D01*
X137167Y14082D01*
X137084Y13926D01*
X137033Y13758D01*
X137015Y13583D01*
X137033Y13407D01*
X137084Y13239D01*
X137167Y13084D01*
X137278Y12948D01*
X137414Y12836D01*
X137570Y12753D01*
X137738Y12702D01*
X137913Y12685D01*
X138089Y12702D01*
X138257Y12753D01*
X138412Y12836D01*
X138548Y12948D01*
X138660Y13084D01*
X138743Y13239D01*
X138794Y13407D01*
X138811Y13583D01*
X138794Y13758D01*
X138743Y13926D01*
X138660Y14082D01*
X138548Y14218D01*
X138412Y14329D01*
X138257Y14412D01*
X138089Y14463D01*
X137913Y14481D01*
D02*
G37*
G36*
X12946Y12697D02*
X12395D01*
Y12303D01*
X12946D01*
Y12697D01*
D02*
G37*
G36*
Y13445D02*
X12395D01*
Y13051D01*
X12946D01*
Y13091D01*
X13032D01*
Y12136D01*
X12972D01*
Y11486D01*
X13406D01*
Y12136D01*
X13346D01*
Y13160D01*
X13334Y13220D01*
X13300Y13271D01*
X13212Y13359D01*
X13161Y13393D01*
X13101Y13405D01*
X12946D01*
Y13445D01*
D02*
G37*
G36*
X78374Y18965D02*
X76744D01*
Y17630D01*
X76931D01*
Y16142D01*
X74213D01*
Y14961D01*
X76931D01*
Y11481D01*
X76795Y11344D01*
X76592Y11393D01*
X76378Y11410D01*
X76164Y11393D01*
X75954Y11343D01*
X75756Y11260D01*
X75572Y11148D01*
X75409Y11008D01*
X75269Y10845D01*
X75157Y10661D01*
X75075Y10463D01*
X75024Y10254D01*
X75008Y10039D01*
X75024Y9825D01*
X75075Y9616D01*
X75157Y9417D01*
X75269Y9234D01*
X75409Y9070D01*
X75572Y8931D01*
X75756Y8818D01*
X75954Y8736D01*
X76164Y8686D01*
X76378Y8669D01*
X76592Y8686D01*
X76801Y8736D01*
X77000Y8818D01*
X77183Y8931D01*
X77347Y9070D01*
X77487Y9234D01*
X77599Y9417D01*
X77681Y9616D01*
X77731Y9825D01*
X77748Y10039D01*
X77731Y10254D01*
X77683Y10456D01*
X78003Y10776D01*
X78081Y10872D01*
X78139Y10980D01*
X78175Y11098D01*
X78187Y11220D01*
Y14961D01*
X80906D01*
Y16142D01*
X78187D01*
Y17630D01*
X78374D01*
Y18965D01*
D02*
G37*
G36*
X12618Y12136D02*
X12185D01*
Y11968D01*
X10968D01*
X10908Y11956D01*
X10857Y11922D01*
X10769Y11834D01*
X10735Y11783D01*
X10723Y11723D01*
Y11202D01*
X10694Y11159D01*
X10679Y11083D01*
Y10748D01*
X10694Y10671D01*
X10738Y10606D01*
X10803Y10563D01*
X10880Y10547D01*
X10957Y10563D01*
X11022Y10606D01*
X11065Y10671D01*
X11081Y10748D01*
Y11083D01*
X11065Y11159D01*
X11037Y11202D01*
Y11654D01*
X12185D01*
Y11486D01*
X12245D01*
Y11348D01*
X12185D01*
Y10699D01*
X12245D01*
Y10561D01*
X12185D01*
Y9911D01*
X12618D01*
Y10561D01*
X12558D01*
Y10699D01*
X12618D01*
Y11348D01*
X12558D01*
Y11486D01*
X12618D01*
Y12136D01*
D02*
G37*
G36*
X125984Y11410D02*
X125770Y11393D01*
X125561Y11343D01*
X125362Y11260D01*
X125179Y11148D01*
X125015Y11008D01*
X124876Y10845D01*
X124763Y10661D01*
X124681Y10463D01*
X124631Y10254D01*
X124614Y10039D01*
X124631Y9825D01*
X124681Y9616D01*
X124763Y9417D01*
X124876Y9234D01*
X125015Y9070D01*
X125179Y8931D01*
X125362Y8818D01*
X125561Y8736D01*
X125770Y8686D01*
X125984Y8669D01*
X126199Y8686D01*
X126408Y8736D01*
X126606Y8818D01*
X126790Y8931D01*
X126953Y9070D01*
X127093Y9234D01*
X127205Y9417D01*
X127288Y9616D01*
X127338Y9825D01*
X127355Y10039D01*
X127338Y10254D01*
X127288Y10463D01*
X127205Y10661D01*
X127093Y10845D01*
X126953Y11008D01*
X126790Y11148D01*
X126606Y11260D01*
X126408Y11343D01*
X126199Y11393D01*
X125984Y11410D01*
D02*
G37*
G36*
X109449D02*
X109234Y11393D01*
X109025Y11343D01*
X108827Y11260D01*
X108643Y11148D01*
X108480Y11008D01*
X108340Y10845D01*
X108228Y10661D01*
X108146Y10463D01*
X108095Y10254D01*
X108078Y10039D01*
X108095Y9825D01*
X108146Y9616D01*
X108228Y9417D01*
X108340Y9234D01*
X108480Y9070D01*
X108643Y8931D01*
X108827Y8818D01*
X109025Y8736D01*
X109234Y8686D01*
X109449Y8669D01*
X109663Y8686D01*
X109872Y8736D01*
X110071Y8818D01*
X110254Y8931D01*
X110418Y9070D01*
X110557Y9234D01*
X110670Y9417D01*
X110752Y9616D01*
X110802Y9825D01*
X110819Y10039D01*
X110802Y10254D01*
X110752Y10463D01*
X110670Y10661D01*
X110557Y10845D01*
X110418Y11008D01*
X110254Y11148D01*
X110071Y11260D01*
X109872Y11343D01*
X109663Y11393D01*
X109449Y11410D01*
D02*
G37*
G36*
X92913D02*
X92699Y11393D01*
X92490Y11343D01*
X92291Y11260D01*
X92108Y11148D01*
X91944Y11008D01*
X91805Y10845D01*
X91692Y10661D01*
X91610Y10463D01*
X91560Y10254D01*
X91543Y10039D01*
X91560Y9825D01*
X91610Y9616D01*
X91692Y9417D01*
X91805Y9234D01*
X91944Y9070D01*
X92108Y8931D01*
X92291Y8818D01*
X92490Y8736D01*
X92699Y8686D01*
X92913Y8669D01*
X93128Y8686D01*
X93337Y8736D01*
X93536Y8818D01*
X93719Y8931D01*
X93882Y9070D01*
X94022Y9234D01*
X94134Y9417D01*
X94217Y9616D01*
X94267Y9825D01*
X94284Y10039D01*
X94267Y10254D01*
X94217Y10463D01*
X94134Y10661D01*
X94022Y10845D01*
X93882Y11008D01*
X93719Y11148D01*
X93536Y11260D01*
X93337Y11343D01*
X93128Y11393D01*
X92913Y11410D01*
D02*
G37*
G36*
X59843D02*
X59628Y11393D01*
X59419Y11343D01*
X59220Y11260D01*
X59037Y11148D01*
X58874Y11008D01*
X58734Y10845D01*
X58622Y10661D01*
X58539Y10463D01*
X58489Y10254D01*
X58472Y10039D01*
X58489Y9825D01*
X58539Y9616D01*
X58622Y9417D01*
X58734Y9234D01*
X58874Y9070D01*
X59037Y8931D01*
X59220Y8818D01*
X59419Y8736D01*
X59628Y8686D01*
X59843Y8669D01*
X60057Y8686D01*
X60266Y8736D01*
X60465Y8818D01*
X60648Y8931D01*
X60812Y9070D01*
X60951Y9234D01*
X61064Y9417D01*
X61146Y9616D01*
X61196Y9825D01*
X61213Y10039D01*
X61196Y10254D01*
X61146Y10463D01*
X61064Y10661D01*
X60951Y10845D01*
X60812Y11008D01*
X60648Y11148D01*
X60465Y11260D01*
X60266Y11343D01*
X60057Y11393D01*
X59843Y11410D01*
D02*
G37*
G36*
X11380Y9138D02*
X11303Y9122D01*
X11238Y9079D01*
X11194Y9014D01*
X11179Y8937D01*
Y8602D01*
X11194Y8526D01*
X11238Y8460D01*
X11303Y8417D01*
X11380Y8402D01*
X11457Y8417D01*
X11522Y8460D01*
X11565Y8526D01*
X11581Y8602D01*
Y8937D01*
X11565Y9014D01*
X11522Y9079D01*
X11457Y9122D01*
X11380Y9138D01*
D02*
G37*
G36*
X10880D02*
X10803Y9122D01*
X10738Y9079D01*
X10694Y9014D01*
X10679Y8937D01*
Y8602D01*
X10694Y8526D01*
X10738Y8460D01*
X10803Y8417D01*
X10880Y8402D01*
X10957Y8417D01*
X11022Y8460D01*
X11065Y8526D01*
X11081Y8602D01*
Y8937D01*
X11065Y9014D01*
X11022Y9079D01*
X10957Y9122D01*
X10880Y9138D01*
D02*
G37*
G36*
X10380D02*
X10303Y9122D01*
X10238Y9079D01*
X10194Y9014D01*
X10179Y8937D01*
Y8602D01*
X10194Y8526D01*
X10238Y8460D01*
X10303Y8417D01*
X10380Y8402D01*
X10457Y8417D01*
X10522Y8460D01*
X10565Y8526D01*
X10581Y8602D01*
Y8937D01*
X10565Y9014D01*
X10522Y9079D01*
X10457Y9122D01*
X10380Y9138D01*
D02*
G37*
G36*
X10039Y10120D02*
X8858D01*
X8828Y10114D01*
X8802Y10096D01*
X8784Y10070D01*
X8778Y10039D01*
Y8268D01*
X8778Y8268D01*
X8784Y8237D01*
X8802Y8211D01*
X8802Y8211D01*
X9786Y7227D01*
X9812Y7209D01*
X9843Y7203D01*
X10039D01*
X10070Y7209D01*
X10096Y7227D01*
X10114Y7253D01*
X10120Y7283D01*
Y10039D01*
X10114Y10070D01*
X10096Y10096D01*
X10070Y10114D01*
X10039Y10120D01*
D02*
G37*
G36*
X10380Y11283D02*
X10303Y11268D01*
X10238Y11225D01*
X10194Y11159D01*
X10179Y11083D01*
Y10748D01*
X10194Y10671D01*
X10223Y10628D01*
Y9896D01*
X10235Y9836D01*
X10269Y9785D01*
X10716Y9338D01*
X10767Y9304D01*
X10827Y9292D01*
X12185D01*
Y9124D01*
X12245D01*
Y8986D01*
X12185D01*
Y8356D01*
X12023D01*
Y7798D01*
X12559D01*
X12791Y7566D01*
X12842Y7532D01*
X12902Y7520D01*
X13244D01*
Y7198D01*
X14002D01*
Y8156D01*
X13244D01*
Y7834D01*
X12967D01*
X12780Y8020D01*
Y8356D01*
X12618D01*
Y8986D01*
X12558D01*
Y9124D01*
X12618D01*
Y9774D01*
X12185D01*
Y9606D01*
X10892D01*
X10537Y9961D01*
Y10628D01*
X10565Y10671D01*
X10581Y10748D01*
Y11083D01*
X10565Y11159D01*
X10522Y11225D01*
X10457Y11268D01*
X10380Y11283D01*
D02*
G37*
G36*
X124114Y8173D02*
X123964Y8158D01*
X123819Y8114D01*
X123686Y8043D01*
X123569Y7947D01*
X123473Y7830D01*
X123401Y7697D01*
X123358Y7552D01*
X123343Y7402D01*
X123358Y7251D01*
X123401Y7106D01*
X123473Y6973D01*
X123569Y6856D01*
X123686Y6760D01*
X123819Y6689D01*
X123964Y6645D01*
X124114Y6630D01*
X124265Y6645D01*
X124409Y6689D01*
X124543Y6760D01*
X124660Y6856D01*
X124756Y6973D01*
X124827Y7106D01*
X124871Y7251D01*
X124886Y7402D01*
X124871Y7552D01*
X124827Y7697D01*
X124756Y7830D01*
X124660Y7947D01*
X124543Y8043D01*
X124409Y8114D01*
X124265Y8158D01*
X124114Y8173D01*
D02*
G37*
G36*
X107579D02*
X107428Y8158D01*
X107284Y8114D01*
X107150Y8043D01*
X107033Y7947D01*
X106937Y7830D01*
X106866Y7697D01*
X106822Y7552D01*
X106807Y7402D01*
X106822Y7251D01*
X106866Y7106D01*
X106937Y6973D01*
X107033Y6856D01*
X107150Y6760D01*
X107284Y6689D01*
X107428Y6645D01*
X107579Y6630D01*
X107729Y6645D01*
X107874Y6689D01*
X108007Y6760D01*
X108124Y6856D01*
X108220Y6973D01*
X108291Y7106D01*
X108335Y7251D01*
X108350Y7402D01*
X108335Y7552D01*
X108291Y7697D01*
X108220Y7830D01*
X108124Y7947D01*
X108007Y8043D01*
X107874Y8114D01*
X107729Y8158D01*
X107579Y8173D01*
D02*
G37*
G36*
X91043D02*
X90893Y8158D01*
X90748Y8114D01*
X90615Y8043D01*
X90498Y7947D01*
X90402Y7830D01*
X90331Y7697D01*
X90287Y7552D01*
X90272Y7402D01*
X90287Y7251D01*
X90331Y7106D01*
X90402Y6973D01*
X90498Y6856D01*
X90615Y6760D01*
X90748Y6689D01*
X90893Y6645D01*
X91043Y6630D01*
X91194Y6645D01*
X91339Y6689D01*
X91472Y6760D01*
X91589Y6856D01*
X91685Y6973D01*
X91756Y7106D01*
X91800Y7251D01*
X91815Y7402D01*
X91800Y7552D01*
X91756Y7697D01*
X91685Y7830D01*
X91589Y7947D01*
X91472Y8043D01*
X91339Y8114D01*
X91194Y8158D01*
X91043Y8173D01*
D02*
G37*
G36*
X74508D02*
X74357Y8158D01*
X74213Y8114D01*
X74079Y8043D01*
X73962Y7947D01*
X73866Y7830D01*
X73795Y7697D01*
X73751Y7552D01*
X73736Y7402D01*
X73751Y7251D01*
X73795Y7106D01*
X73866Y6973D01*
X73962Y6856D01*
X74079Y6760D01*
X74213Y6689D01*
X74357Y6645D01*
X74508Y6630D01*
X74658Y6645D01*
X74803Y6689D01*
X74936Y6760D01*
X75053Y6856D01*
X75149Y6973D01*
X75221Y7106D01*
X75264Y7251D01*
X75279Y7402D01*
X75264Y7552D01*
X75221Y7697D01*
X75149Y7830D01*
X75053Y7947D01*
X74936Y8043D01*
X74803Y8114D01*
X74658Y8158D01*
X74508Y8173D01*
D02*
G37*
G36*
X57972D02*
X57822Y8158D01*
X57677Y8114D01*
X57544Y8043D01*
X57427Y7947D01*
X57331Y7830D01*
X57260Y7697D01*
X57216Y7552D01*
X57201Y7402D01*
X57216Y7251D01*
X57260Y7106D01*
X57331Y6973D01*
X57427Y6856D01*
X57544Y6760D01*
X57677Y6689D01*
X57822Y6645D01*
X57972Y6630D01*
X58123Y6645D01*
X58268Y6689D01*
X58401Y6760D01*
X58518Y6856D01*
X58614Y6973D01*
X58685Y7106D01*
X58729Y7251D01*
X58744Y7402D01*
X58729Y7552D01*
X58685Y7697D01*
X58614Y7830D01*
X58518Y7947D01*
X58401Y8043D01*
X58268Y8114D01*
X58123Y8158D01*
X57972Y8173D01*
D02*
G37*
G36*
X138976Y7915D02*
X138815Y7899D01*
X138659Y7852D01*
X138516Y7776D01*
X138390Y7673D01*
X138287Y7547D01*
X138211Y7404D01*
X138164Y7248D01*
X138148Y7087D01*
X138164Y6925D01*
X138211Y6769D01*
X138287Y6626D01*
X138390Y6501D01*
X138516Y6398D01*
X138659Y6321D01*
X138815Y6274D01*
X138976Y6258D01*
X139138Y6274D01*
X139294Y6321D01*
X139437Y6398D01*
X139562Y6501D01*
X139665Y6626D01*
X139742Y6769D01*
X139789Y6925D01*
X139805Y7087D01*
X139789Y7248D01*
X139742Y7404D01*
X139665Y7547D01*
X139562Y7673D01*
X139437Y7776D01*
X139294Y7852D01*
X139138Y7899D01*
X138976Y7915D01*
D02*
G37*
G36*
X24433Y6804D02*
X24313Y6792D01*
X24198Y6757D01*
X24092Y6701D01*
X23999Y6625D01*
X23923Y6532D01*
X23867Y6426D01*
X23832Y6311D01*
X23820Y6191D01*
X23832Y6071D01*
X23867Y5956D01*
X23923Y5850D01*
X23999Y5757D01*
X24092Y5681D01*
X24198Y5624D01*
X24313Y5590D01*
X24433Y5578D01*
X24553Y5590D01*
X24668Y5624D01*
X24774Y5681D01*
X24867Y5757D01*
X24943Y5850D01*
X25000Y5956D01*
X25034Y6071D01*
X25046Y6191D01*
X25034Y6311D01*
X25000Y6426D01*
X24943Y6532D01*
X24867Y6625D01*
X24774Y6701D01*
X24668Y6757D01*
X24553Y6792D01*
X24433Y6804D01*
D02*
G37*
G36*
X22874D02*
X22754Y6792D01*
X22639Y6757D01*
X22533Y6701D01*
X22440Y6625D01*
X22364Y6532D01*
X22308Y6426D01*
X22273Y6311D01*
X22261Y6191D01*
X22273Y6071D01*
X22308Y5956D01*
X22364Y5850D01*
X22440Y5757D01*
X22533Y5681D01*
X22639Y5624D01*
X22754Y5590D01*
X22874Y5578D01*
X22994Y5590D01*
X23109Y5624D01*
X23215Y5681D01*
X23308Y5757D01*
X23384Y5850D01*
X23441Y5956D01*
X23475Y6071D01*
X23487Y6191D01*
X23475Y6311D01*
X23441Y6426D01*
X23384Y6532D01*
X23308Y6625D01*
X23215Y6701D01*
X23109Y6757D01*
X22994Y6792D01*
X22874Y6804D01*
D02*
G37*
G36*
X144783Y7985D02*
X143799D01*
X143605Y7966D01*
X143418Y7909D01*
X143245Y7817D01*
X143094Y7693D01*
X142970Y7542D01*
X142878Y7370D01*
X142821Y7183D01*
X142802Y6988D01*
Y6004D01*
X142821Y5809D01*
X142878Y5622D01*
X142970Y5450D01*
X143094Y5299D01*
X143245Y5175D01*
X143418Y5083D01*
X143605Y5026D01*
X143799Y5007D01*
X144783D01*
X144978Y5026D01*
X145165Y5083D01*
X145337Y5175D01*
X145488Y5299D01*
X145612Y5450D01*
X145705Y5622D01*
X145761Y5809D01*
X145780Y6004D01*
Y6988D01*
X145761Y7183D01*
X145705Y7370D01*
X145612Y7542D01*
X145488Y7693D01*
X145337Y7817D01*
X145165Y7909D01*
X144978Y7966D01*
X144783Y7985D01*
D02*
G37*
G36*
X147244Y3193D02*
X147082Y3177D01*
X146926Y3130D01*
X146783Y3053D01*
X146657Y2950D01*
X146553Y2824D01*
X146477Y2680D01*
X146429Y2524D01*
X146413Y2362D01*
X146429Y2200D01*
X146477Y2044D01*
X146553Y1901D01*
X146657Y1775D01*
X146783Y1671D01*
X146926Y1595D01*
X147082Y1547D01*
X147244Y1531D01*
X147406Y1547D01*
X147562Y1595D01*
X147706Y1671D01*
X147832Y1775D01*
X147935Y1901D01*
X148012Y2044D01*
X148059Y2200D01*
X148075Y2362D01*
X148059Y2524D01*
X148012Y2680D01*
X147935Y2824D01*
X147832Y2950D01*
X147706Y3053D01*
X147562Y3130D01*
X147406Y3177D01*
X147244Y3193D01*
D02*
G37*
G36*
X68110D02*
X67948Y3177D01*
X67792Y3130D01*
X67649Y3053D01*
X67523Y2950D01*
X67419Y2824D01*
X67343Y2680D01*
X67295Y2524D01*
X67279Y2362D01*
X67295Y2200D01*
X67343Y2044D01*
X67419Y1901D01*
X67523Y1775D01*
X67649Y1671D01*
X67792Y1595D01*
X67948Y1547D01*
X68110Y1531D01*
X68272Y1547D01*
X68428Y1595D01*
X68572Y1671D01*
X68698Y1775D01*
X68801Y1901D01*
X68878Y2044D01*
X68925Y2200D01*
X68941Y2362D01*
X68925Y2524D01*
X68878Y2680D01*
X68801Y2824D01*
X68698Y2950D01*
X68572Y3053D01*
X68428Y3130D01*
X68272Y3177D01*
X68110Y3193D01*
D02*
G37*
G36*
X135748Y2010D02*
X135586Y1994D01*
X135431Y1947D01*
X135288Y1870D01*
X135162Y1767D01*
X135059Y1642D01*
X134982Y1498D01*
X134935Y1343D01*
X134919Y1181D01*
X134935Y1019D01*
X134982Y864D01*
X135059Y721D01*
X135162Y595D01*
X135288Y492D01*
X135431Y415D01*
X135586Y368D01*
X135748Y352D01*
X135910Y368D01*
X136065Y415D01*
X136208Y492D01*
X136334Y595D01*
X136437Y721D01*
X136514Y864D01*
X136561Y1019D01*
X136577Y1181D01*
X136561Y1343D01*
X136514Y1498D01*
X136437Y1642D01*
X136334Y1767D01*
X136208Y1870D01*
X136065Y1947D01*
X135910Y1994D01*
X135748Y2010D01*
D02*
G37*
%LPD*%
G36*
X10039Y7283D02*
X9843D01*
X8858Y8268D01*
Y10039D01*
X10039D01*
Y7283D01*
D02*
G37*
%LPC*%
G36*
X2362Y3193D02*
X2200Y3177D01*
X2044Y3130D01*
X1901Y3053D01*
X1775Y2950D01*
X1671Y2824D01*
X1595Y2680D01*
X1547Y2524D01*
X1531Y2362D01*
X1547Y2200D01*
X1595Y2044D01*
X1671Y1901D01*
X1775Y1775D01*
X1901Y1671D01*
X2044Y1595D01*
X2200Y1547D01*
X2362Y1531D01*
X2524Y1547D01*
X2680Y1595D01*
X2824Y1671D01*
X2950Y1775D01*
X3053Y1901D01*
X3130Y2044D01*
X3177Y2200D01*
X3193Y2362D01*
X3177Y2524D01*
X3130Y2680D01*
X3053Y2824D01*
X2950Y2950D01*
X2824Y3053D01*
X2680Y3130D01*
X2524Y3177D01*
X2362Y3193D01*
D02*
G37*
%LPD*%
D12*
X90551Y36614D02*
X91339Y37402D01*
X98425Y33858D02*
Y35433D01*
X91339Y37402D02*
X96457D01*
X90551Y33858D02*
Y36614D01*
X96457Y37402D02*
X98425Y35433D01*
X81299Y17520D02*
X82362D01*
X82503Y17661D01*
X82748Y17416D01*
X131496Y51575D02*
X131890Y51968D01*
X118110Y53543D02*
X120079Y51575D01*
X131496D01*
X13490Y20095D02*
X13670Y20276D01*
X14567D01*
X13432Y20095D02*
X13490D01*
X14567Y19488D02*
Y20183D01*
Y20276D01*
X14550Y17733D02*
X14567Y17717D01*
X13432Y17733D02*
X14550D01*
X14567Y17717D02*
Y18504D01*
X65945Y24213D02*
X65948Y24209D01*
X66729D01*
X66732Y24206D01*
X114449Y22047D02*
X133858D01*
X113508D02*
X114449D01*
X113150Y22406D02*
X113508Y22047D01*
X120079Y43858D02*
Y45276D01*
X133071Y46850D02*
X133858Y46063D01*
X141732Y51968D02*
Y59390D01*
X82677Y22819D02*
X82693Y22835D01*
X140701Y50937D02*
X141732Y51968D01*
X141674Y59449D02*
X141732Y59390D01*
X128740Y59449D02*
X141674D01*
X127953Y53543D02*
Y58661D01*
X128740Y59449D01*
X112205Y51575D02*
Y59843D01*
X114173Y49606D02*
X133858D01*
X112205Y51575D02*
X114173Y49606D01*
X122047Y53543D02*
Y58268D01*
X112205Y59843D02*
X120472D01*
X122047Y58268D01*
X78346Y59843D02*
X112205D01*
X135433Y53543D02*
X135433Y53543D01*
X104157Y35827D02*
Y37795D01*
X131890Y51968D02*
Y53543D01*
X135827Y51575D02*
Y53543D01*
X96283Y33858D02*
X96457Y33685D01*
X135582Y53298D02*
X135827Y53543D01*
X133858Y49606D02*
X135827Y51575D01*
D17*
X62007Y37919D02*
X62089Y37837D01*
X58588Y37919D02*
X62007D01*
X58268Y37598D02*
X58588Y37919D01*
X96260Y33835D02*
X96283Y33858D01*
X84055Y29921D02*
X85236D01*
X85039Y29134D02*
Y29331D01*
Y29134D02*
X85250Y28923D01*
X81841Y21654D02*
Y22351D01*
X84853D01*
X79635D02*
X81841D01*
X79724Y20472D02*
X80709D01*
X79528Y20669D02*
Y22244D01*
Y20669D02*
X79724Y20472D01*
X79528Y22244D02*
X79635Y22351D01*
X84436Y21654D02*
X85449Y22667D01*
Y29708D01*
X85250Y22749D02*
Y28923D01*
X84853Y22351D02*
X85250Y22749D01*
X85236Y29921D02*
X85449Y29708D01*
X84379Y20472D02*
X84449Y20543D01*
Y21654D01*
X83852Y20472D02*
X84379D01*
X82726Y21654D02*
X84449D01*
X81502Y20472D02*
Y21057D01*
X80758Y21280D02*
X80778Y21260D01*
X81299D01*
X81502Y21057D01*
X80098Y21280D02*
X80758D01*
X79921Y21457D02*
X80098Y21280D01*
X79921Y21457D02*
Y22047D01*
X102756Y28150D02*
Y28740D01*
X102953Y28937D02*
X105315D01*
X102756Y28740D02*
X102953Y28937D01*
X105474Y28258D02*
Y28778D01*
X105315Y28937D02*
X105474Y28778D01*
X104528Y24086D02*
Y25323D01*
X103881Y24016D02*
X104457D01*
X104528Y24086D01*
X104598Y25394D02*
X104921D01*
X104528Y25323D02*
X104598Y25394D01*
X103346Y24450D02*
X103446D01*
X103881Y24016D01*
X102165Y29528D02*
Y29851D01*
X102095Y29921D02*
X102165Y29851D01*
X100661Y29921D02*
X102095D01*
X100591Y29992D02*
X100661Y29921D01*
X100591Y29992D02*
Y30321D01*
D22*
X5512Y9055D02*
D03*
Y11417D02*
D03*
X9904Y13685D02*
D03*
X4724Y18580D02*
D03*
X11024Y19488D02*
D03*
X115748Y29921D02*
D03*
X111811Y27362D02*
D03*
X102756Y31102D02*
D03*
X93233Y23809D02*
D03*
X66339Y26575D02*
D03*
X81387Y27362D02*
D03*
X82480D02*
D03*
X77165Y29724D02*
D03*
X78740Y26575D02*
D03*
X45276Y32874D02*
D03*
X46850Y26575D02*
D03*
X50787Y30709D02*
D03*
X58268Y37598D02*
D03*
D23*
X103346Y25550D02*
D03*
Y24450D02*
D03*
X61001Y23222D02*
D03*
Y24322D02*
D03*
X125591Y37361D02*
D03*
Y36261D02*
D03*
X124409Y37361D02*
D03*
Y36261D02*
D03*
D24*
X107283Y29724D02*
D03*
Y28937D02*
D03*
X51772Y20276D02*
D03*
Y21063D02*
D03*
X12205D02*
D03*
Y21850D02*
D03*
X65157Y24213D02*
D03*
Y25000D02*
D03*
X59055Y30315D02*
D03*
Y31102D02*
D03*
X65945Y24213D02*
D03*
Y25000D02*
D03*
X57874Y30315D02*
D03*
Y31102D02*
D03*
X55512D02*
D03*
Y30315D02*
D03*
X67717Y22835D02*
D03*
Y22047D02*
D03*
X55315Y24213D02*
D03*
Y23425D02*
D03*
X56693Y30315D02*
D03*
Y31102D02*
D03*
X12205Y14961D02*
D03*
Y15748D02*
D03*
X6299Y23287D02*
D03*
Y24075D02*
D03*
X5512D02*
D03*
Y23287D02*
D03*
X7087Y24075D02*
D03*
Y23287D02*
D03*
X7874Y24075D02*
D03*
Y23287D02*
D03*
X98622Y27756D02*
D03*
Y26969D02*
D03*
X91732Y17717D02*
D03*
Y18504D02*
D03*
X90945Y17717D02*
D03*
Y18504D02*
D03*
X89567Y16929D02*
D03*
Y16142D02*
D03*
X89370Y23031D02*
D03*
Y22244D02*
D03*
X99803Y28740D02*
D03*
Y29528D02*
D03*
X107283Y25394D02*
D03*
Y24606D02*
D03*
X108465Y29724D02*
D03*
Y28937D02*
D03*
X78543Y23622D02*
D03*
Y24409D02*
D03*
X83263Y29476D02*
D03*
Y30264D02*
D03*
X80815Y29491D02*
D03*
Y30278D02*
D03*
X75000Y23622D02*
D03*
Y24409D02*
D03*
X74213D02*
D03*
Y23622D02*
D03*
X40945Y6496D02*
D03*
Y7283D02*
D03*
X62598Y39173D02*
D03*
Y38386D02*
D03*
X105717Y26173D02*
D03*
Y26960D02*
D03*
X101378Y30315D02*
D03*
Y29528D02*
D03*
X102165Y30315D02*
D03*
Y29528D02*
D03*
X92520Y17717D02*
D03*
Y18504D02*
D03*
X41732Y7283D02*
D03*
Y6496D02*
D03*
X43786Y6516D02*
D03*
Y7303D02*
D03*
X90945Y16142D02*
D03*
Y16929D02*
D03*
X91732Y16142D02*
D03*
Y16929D02*
D03*
X97441Y18701D02*
D03*
Y19488D02*
D03*
X61220Y38386D02*
D03*
Y39173D02*
D03*
X90748Y22244D02*
D03*
Y23031D02*
D03*
X92323Y20866D02*
D03*
Y20079D02*
D03*
X86417Y20866D02*
D03*
Y20079D02*
D03*
X92323Y23031D02*
D03*
Y22244D02*
D03*
D27*
X14567Y12875D02*
D03*
X15354D02*
D03*
Y13583D02*
D03*
X14567D02*
D03*
X12402Y8661D02*
D03*
X13189D02*
D03*
Y9449D02*
D03*
X12402D02*
D03*
X12402Y10236D02*
D03*
X13189D02*
D03*
X13189Y11024D02*
D03*
X12402D02*
D03*
X13189Y11811D02*
D03*
X12402D02*
D03*
X107283Y26378D02*
D03*
X108071D02*
D03*
X65551Y27362D02*
D03*
X64764D02*
D03*
Y28150D02*
D03*
X65551D02*
D03*
X56890Y27165D02*
D03*
X57677D02*
D03*
X65945Y20079D02*
D03*
X65157D02*
D03*
X58465Y22047D02*
D03*
X59252D02*
D03*
X14567Y19488D02*
D03*
X15354D02*
D03*
X14567Y20276D02*
D03*
X15354D02*
D03*
Y17717D02*
D03*
X14567D02*
D03*
X15354Y18504D02*
D03*
X14567D02*
D03*
X21850Y26378D02*
D03*
X21063D02*
D03*
X96654Y16535D02*
D03*
X97441D02*
D03*
X112795Y29134D02*
D03*
X113583D02*
D03*
X94094Y16732D02*
D03*
X93307D02*
D03*
X94041Y21260D02*
D03*
X93254D02*
D03*
X102559Y23425D02*
D03*
X101772D02*
D03*
X103426Y22408D02*
D03*
X104213D02*
D03*
X104448Y32283D02*
D03*
X103661D02*
D03*
X107283Y31496D02*
D03*
X108071D02*
D03*
X110039Y25591D02*
D03*
X109252D02*
D03*
X108858Y32283D02*
D03*
X109646D02*
D03*
X82693Y22835D02*
D03*
X83480D02*
D03*
X83065Y20472D02*
D03*
X83852D02*
D03*
X81496D02*
D03*
X80709D02*
D03*
X81890Y22835D02*
D03*
X81102D02*
D03*
X76772Y26378D02*
D03*
X77559D02*
D03*
X77559Y27953D02*
D03*
X76772D02*
D03*
X93254Y22997D02*
D03*
X94041D02*
D03*
X108268Y22441D02*
D03*
X109055D02*
D03*
Y23228D02*
D03*
X108268D02*
D03*
X104196Y26923D02*
D03*
X104983D02*
D03*
X104134Y24606D02*
D03*
X104921D02*
D03*
X104134Y25394D02*
D03*
X104921D02*
D03*
X102756Y28150D02*
D03*
X101968D02*
D03*
X100787Y26378D02*
D03*
X101575D02*
D03*
X102756Y27165D02*
D03*
X101968D02*
D03*
X102756Y26378D02*
D03*
X101968D02*
D03*
X95866Y21260D02*
D03*
X96654D02*
D03*
X99409Y15748D02*
D03*
X100197D02*
D03*
X87992Y17323D02*
D03*
X87205D02*
D03*
X87992Y16535D02*
D03*
X87205D02*
D03*
X87992Y18110D02*
D03*
X87205D02*
D03*
X98228Y22047D02*
D03*
X97441D02*
D03*
X100787Y25591D02*
D03*
X101575D02*
D03*
D28*
X13623Y7677D02*
D03*
X14723D02*
D03*
X121613Y34646D02*
D03*
X120513D02*
D03*
X104277Y18121D02*
D03*
X105377D02*
D03*
X104259Y16908D02*
D03*
X105359D02*
D03*
X82748Y17416D02*
D03*
X83848D02*
D03*
X38542Y21850D02*
D03*
X37442D02*
D03*
X107874Y28150D02*
D03*
X106774D02*
D03*
X97597Y17520D02*
D03*
X96497D02*
D03*
X65198Y21850D02*
D03*
X66298D02*
D03*
X59270Y20276D02*
D03*
X58170D02*
D03*
X102993Y20866D02*
D03*
X104093D02*
D03*
X39804Y14370D02*
D03*
X40904D02*
D03*
X48859Y30315D02*
D03*
X49959D02*
D03*
D32*
X98622Y30433D02*
D03*
Y29016D02*
D03*
D33*
X14764Y10482D02*
D03*
X15138Y11565D02*
D03*
X14390D02*
D03*
X16142Y10482D02*
D03*
X16516Y11565D02*
D03*
X15768D02*
D03*
X63980Y25293D02*
D03*
X63606Y24210D02*
D03*
X64355D02*
D03*
D34*
X41545Y26378D02*
D03*
X40344D02*
D03*
Y27362D02*
D03*
X41545D02*
D03*
X70659Y36417D02*
D03*
X71860D02*
D03*
Y35433D02*
D03*
X70659D02*
D03*
X69892D02*
D03*
X68691D02*
D03*
X48809Y27756D02*
D03*
X50010D02*
D03*
X59439Y41535D02*
D03*
X60640D02*
D03*
X50010Y26575D02*
D03*
X48809D02*
D03*
X74026Y39567D02*
D03*
X72825D02*
D03*
X48809Y31299D02*
D03*
X50010D02*
D03*
X48809Y25591D02*
D03*
X50010D02*
D03*
Y29134D02*
D03*
X48809D02*
D03*
X60640Y40157D02*
D03*
X59439D02*
D03*
D35*
X12205Y22825D02*
D03*
Y24026D02*
D03*
X11220Y22825D02*
D03*
Y24026D02*
D03*
X78543Y23041D02*
D03*
Y21841D02*
D03*
X77559Y21860D02*
D03*
Y20659D02*
D03*
Y19498D02*
D03*
Y18297D02*
D03*
X76772Y24813D02*
D03*
Y23612D02*
D03*
X36417Y10049D02*
D03*
Y8848D02*
D03*
X35630Y8858D02*
D03*
Y10059D02*
D03*
D36*
X86620Y16535D02*
D03*
X85820D02*
D03*
X65948Y19373D02*
D03*
X65148D02*
D03*
X65151Y20866D02*
D03*
X65951D02*
D03*
X59258Y21260D02*
D03*
X58458D02*
D03*
X21057Y27165D02*
D03*
X21857D02*
D03*
X104454Y31487D02*
D03*
X103654D02*
D03*
X109246Y26378D02*
D03*
X110046D02*
D03*
X109652Y31496D02*
D03*
X108852D02*
D03*
X113595Y29971D02*
D03*
X112795D02*
D03*
X113983Y31496D02*
D03*
X113183D02*
D03*
X77565Y27165D02*
D03*
X76765D02*
D03*
X104170Y26181D02*
D03*
X104970D02*
D03*
X93247Y22169D02*
D03*
X94047D02*
D03*
X97435Y21260D02*
D03*
X98235D02*
D03*
X100203Y16535D02*
D03*
X99403D02*
D03*
D38*
X12402Y8077D02*
D03*
Y7277D02*
D03*
X66732Y24206D02*
D03*
Y25006D02*
D03*
X58858Y24009D02*
D03*
Y24809D02*
D03*
X81890Y23616D02*
D03*
Y24416D02*
D03*
X82677Y23616D02*
D03*
Y24416D02*
D03*
X82480Y29471D02*
D03*
Y30271D02*
D03*
X81611Y29474D02*
D03*
Y30274D02*
D03*
X75984Y24416D02*
D03*
Y23616D02*
D03*
X42998Y7309D02*
D03*
Y6509D02*
D03*
X100591Y29521D02*
D03*
Y30321D02*
D03*
X91535Y22238D02*
D03*
Y23038D02*
D03*
X105885Y22407D02*
D03*
Y23207D02*
D03*
X100787Y20269D02*
D03*
Y21069D02*
D03*
X101772Y20276D02*
D03*
Y21076D02*
D03*
D40*
X12671Y13248D02*
D03*
Y12500D02*
D03*
X11588Y12874D02*
D03*
X64518Y21240D02*
D03*
Y20492D02*
D03*
X63435Y20866D02*
D03*
X56939Y25610D02*
D03*
Y26358D02*
D03*
X58022Y25984D02*
D03*
X56152Y23445D02*
D03*
Y24193D02*
D03*
X57234Y23819D02*
D03*
X60039Y20472D02*
D03*
Y21220D02*
D03*
X61122Y20846D02*
D03*
X82726Y21654D02*
D03*
X83809Y21280D02*
D03*
Y22028D02*
D03*
X81841Y21654D02*
D03*
X80758Y22028D02*
D03*
Y21280D02*
D03*
X51378Y31299D02*
D03*
Y32047D02*
D03*
X52461Y31673D02*
D03*
D43*
X59646Y38780D02*
D03*
X60433Y38406D02*
D03*
Y39154D02*
D03*
D49*
X52480Y29724D02*
D03*
X51457Y30098D02*
D03*
Y29350D02*
D03*
D50*
X103974Y30404D02*
D03*
X104474D02*
D03*
X104974D02*
D03*
X105474D02*
D03*
X103974Y28258D02*
D03*
X104474D02*
D03*
X104974D02*
D03*
X105474D02*
D03*
X11380Y8770D02*
D03*
X10880D02*
D03*
X10380D02*
D03*
X9880D02*
D03*
X11380Y10915D02*
D03*
X10880D02*
D03*
X10380D02*
D03*
X9880D02*
D03*
X109683Y30404D02*
D03*
X110183D02*
D03*
X110683D02*
D03*
X111183D02*
D03*
X109683Y28258D02*
D03*
X110183D02*
D03*
X110683D02*
D03*
X111183D02*
D03*
X95041Y18022D02*
D03*
X94541D02*
D03*
X94041D02*
D03*
X93541D02*
D03*
X95041Y20167D02*
D03*
X94541D02*
D03*
X94041D02*
D03*
X93541D02*
D03*
X99766Y18022D02*
D03*
X99266D02*
D03*
X98766D02*
D03*
X98266D02*
D03*
X99766Y20167D02*
D03*
X99266D02*
D03*
X98766D02*
D03*
X98266D02*
D03*
D52*
X39961Y12638D02*
D03*
Y10433D02*
D03*
D53*
X35000Y23819D02*
D03*
X37441D02*
D03*
D54*
X45270Y31238D02*
D03*
Y28797D02*
D03*
X53740Y29291D02*
D03*
Y31732D02*
D03*
X46850Y31238D02*
D03*
Y28797D02*
D03*
D55*
X33310Y29086D02*
X38673Y34449D01*
X43110D01*
X43858Y35196D01*
X62089Y37919D02*
Y39173D01*
Y36667D02*
Y37919D01*
X43858Y35196D02*
X60618D01*
X33310Y26620D02*
Y29086D01*
X27162Y20472D02*
X33310Y26620D01*
X60618Y35196D02*
X62089Y36667D01*
X109252Y26384D02*
Y26894D01*
X110183Y27825D02*
Y28258D01*
X109252Y26894D02*
X110183Y27825D01*
X109246Y26378D02*
X109252Y26384D01*
X110183Y28258D02*
X110183Y28258D01*
X102756Y30315D02*
X103958D01*
X102165D02*
X102756D01*
Y31102D01*
X115748Y29134D02*
X121063D01*
X113583D02*
X115748D01*
Y29921D01*
X100787Y18701D02*
Y20269D01*
X93251Y22173D02*
Y22997D01*
X93244Y23007D02*
X93254Y22997D01*
X93244Y23007D02*
Y23799D01*
X93233Y23809D02*
X93244Y23799D01*
X19291Y20472D02*
X27162D01*
X54921Y27676D02*
Y31586D01*
X53661Y27559D02*
X54804D01*
X54921Y27676D01*
X54804Y31703D02*
X54921Y31586D01*
X53711Y31703D02*
X54804D01*
X53711D02*
X53740Y31732D01*
X75394Y24409D02*
X75978D01*
X62089Y39173D02*
X62598D01*
X61220D02*
X62089D01*
X100394Y22480D02*
X100787Y22873D01*
Y25591D01*
X99960Y22976D02*
Y26732D01*
X100394Y27165D01*
X101280Y21072D02*
X101769D01*
X105906Y25394D02*
X106299D01*
X104921D02*
X105906D01*
X105885Y23207D02*
Y25373D01*
X105906Y25394D01*
X106774Y27009D02*
Y28150D01*
Y25868D02*
Y27009D01*
X105717Y26960D02*
X106725D01*
X106774Y27009D01*
X55315Y24213D02*
Y24641D01*
X55432Y24758D01*
X58807D01*
X58858Y24809D01*
X66535Y19488D02*
X67126Y20079D01*
X72244Y22835D02*
Y23218D01*
X21865Y26393D02*
X22614D01*
X22638Y26417D01*
X21850Y26378D02*
X21865Y26393D01*
X8268Y6890D02*
Y19593D01*
X4921Y22940D02*
X8268Y19593D01*
Y6890D02*
X10630Y4528D01*
X4921Y22940D02*
Y25394D01*
X5906Y26378D01*
X21063D01*
X100787Y18701D02*
Y18701D01*
X99606D02*
X100787D01*
X99266Y19041D02*
X99606Y18701D01*
X67411Y21850D02*
X67608Y22047D01*
X67126Y21850D02*
X67411D01*
X87519Y27362D02*
X100000D01*
X100287Y27649D02*
X102245D01*
X100000Y27362D02*
X100287Y27649D01*
X87519Y25000D02*
X89252D01*
X87402Y25117D02*
X87519Y25000D01*
X87402Y27245D02*
X87519Y27362D01*
X87402Y25117D02*
Y27245D01*
X23372Y29778D02*
X24489D01*
X24606Y28937D02*
Y29660D01*
X24489Y29778D02*
X24606Y29660D01*
X58858Y38503D02*
Y41418D01*
X58975Y41535D02*
X59439D01*
X58858Y41418D02*
X58975Y41535D01*
Y38386D02*
X60413D01*
X58858Y38503D02*
X58975Y38386D01*
X60413D02*
X60433Y38406D01*
X121063Y29134D02*
X121613Y29684D01*
Y34646D01*
X67126Y20079D02*
Y21850D01*
X104724Y15977D02*
X104756Y15945D01*
X106890D01*
X40157Y6102D02*
Y7087D01*
X40354Y7283D01*
X36412Y10054D02*
X36417Y10049D01*
X35635Y10054D02*
X36412D01*
X35630Y10059D02*
X35635Y10054D01*
X42976Y7287D02*
X42998Y7309D01*
X41735Y7287D02*
X42976D01*
X41732Y7283D02*
X41735Y7287D01*
X42982Y6493D02*
X43002Y6513D01*
X41735Y6493D02*
X42982D01*
X41732Y6496D02*
X41735Y6493D01*
X96260Y22638D02*
X98877D01*
X90157Y18898D02*
X90544Y18511D01*
X90938D02*
X90945Y18504D01*
X90544Y18511D02*
X90938D01*
X99409Y17126D02*
X100083D01*
X100191Y16542D02*
X100200Y16532D01*
X100191Y16542D02*
Y17018D01*
X100083Y17126D02*
X100191Y17018D01*
X100394Y27165D02*
X101968D01*
X102362Y27767D02*
Y28937D01*
X102245Y27649D02*
X102362Y27767D01*
X98877Y22638D02*
X99766Y21749D01*
Y20167D02*
Y21749D01*
X104846Y22407D02*
X105885D01*
X104214D02*
X104846D01*
X104843Y22411D02*
Y23425D01*
Y22411D02*
X104846Y22407D01*
X59258Y21260D02*
X59270Y21248D01*
Y20276D02*
Y21248D01*
X59252Y19488D02*
X59258Y19494D01*
Y20263D01*
X59270Y20276D01*
X105474Y29331D02*
X106693D01*
X105474D02*
Y30404D01*
X102756Y29331D02*
X105474D01*
X102362Y28937D02*
X102756Y29331D01*
X98622Y27756D02*
Y28740D01*
X99803D01*
X102756Y27165D02*
Y28150D01*
Y26378D02*
Y27165D01*
X101968Y28150D02*
Y28543D01*
X101772Y28740D02*
X101968Y28543D01*
X99803Y28740D02*
X101772D01*
X40354Y7283D02*
X40945D01*
X99266Y19041D02*
Y20167D01*
X109055Y18110D02*
Y22441D01*
X106890Y15945D02*
X109055Y18110D01*
X104277Y16925D02*
Y18121D01*
X103660Y21518D02*
X107148D01*
X107283Y21654D02*
Y24606D01*
X107148Y21518D02*
X107283Y21654D01*
X106299Y25394D02*
X106774Y25868D01*
X63501Y26296D02*
Y27324D01*
X87992Y16535D02*
X92520D01*
X10630Y4528D02*
X15748D01*
X16236Y2968D02*
Y4039D01*
X15748Y4528D02*
X16236Y4039D01*
X68110Y25787D02*
Y26611D01*
X65666Y29055D02*
X68110Y26611D01*
X63492Y29055D02*
X65666D01*
X57677Y27057D02*
Y27165D01*
Y27057D02*
X58022Y26713D01*
Y25984D02*
Y26713D01*
X65443Y24606D02*
X65837Y25000D01*
X62008Y24606D02*
X65443D01*
X65837Y25000D02*
X65945D01*
X62008Y24606D02*
X62492Y25091D01*
X61738Y24336D02*
X62008Y24606D01*
X61001Y24336D02*
X61738D01*
X62492Y25091D02*
Y29055D01*
X89252Y18622D02*
X90157Y17717D01*
Y17046D02*
X90275Y16929D01*
X90945D01*
X90157Y17046D02*
Y17717D01*
X89252Y18622D02*
Y20866D01*
X104331Y18175D02*
Y19882D01*
X104606Y20157D02*
X105394D01*
X104331Y19882D02*
X104606Y20157D01*
X103543Y21401D02*
X103660Y21518D01*
X103543Y19685D02*
Y21401D01*
X104277Y18121D02*
X104331Y18175D01*
X103972Y19507D02*
Y20745D01*
X103721Y19256D02*
X103972Y19507D01*
Y20745D02*
X104137Y20909D01*
X101772Y18701D02*
X102327Y19256D01*
X103721D01*
X102165Y21850D02*
Y24469D01*
X96201Y25000D02*
X96850D01*
X96260Y20669D02*
Y22638D01*
X106693Y29331D02*
X110630D01*
X106693Y28231D02*
Y29331D01*
X95758Y20167D02*
X96260Y20669D01*
X95041Y20167D02*
X95758D01*
X110630Y29331D02*
X111176Y29877D01*
X63501Y27324D02*
X64326Y28150D01*
X64764D01*
X104196Y26923D02*
Y27031D01*
X104474Y27309D01*
Y28258D01*
X104183Y26910D02*
X104196Y26923D01*
X104974Y26932D02*
Y28258D01*
X104977Y26188D02*
Y26916D01*
X104983Y26923D01*
X104974Y26932D02*
X104983Y26923D01*
X103346Y25550D02*
Y26969D01*
X103974Y27596D02*
Y28258D01*
X103346Y26969D02*
X103974Y27596D01*
X104474Y30404D02*
Y31466D01*
X104451Y31490D02*
Y32281D01*
X104454Y31496D02*
X107283D01*
X104454Y31487D02*
X104474Y31466D01*
X111176Y30397D02*
X111183Y30404D01*
X111176Y29877D02*
Y30397D01*
X103974Y30332D02*
Y30404D01*
X103958Y30315D02*
X103974Y30332D01*
X103654Y31387D02*
Y31487D01*
Y31387D02*
X103974Y31066D01*
Y30404D02*
Y31066D01*
X103246Y25550D02*
X103346D01*
X102165Y24469D02*
X103246Y25550D01*
X108071Y26378D02*
X108627D01*
X108627Y26378D02*
X109246D01*
X108627Y26378D02*
X108627Y26378D01*
X107283Y25394D02*
X107283Y25394D01*
X107283Y25394D02*
Y26378D01*
X112795Y29134D02*
Y29971D01*
X112795Y29134D02*
X112795Y29134D01*
X104213Y22408D02*
X104214Y22407D01*
X103425Y23425D02*
X103426Y23424D01*
Y22408D02*
Y23424D01*
X102559Y23425D02*
X103425D01*
X104259Y7355D02*
X105512Y6102D01*
X109449D01*
X101772Y21076D02*
X103103D01*
X26939Y31890D02*
X26939Y31890D01*
X24636Y31890D02*
X24830Y31696D01*
X86620Y16535D02*
X87205D01*
X97714Y18110D02*
X98249D01*
X97597Y17520D02*
Y17993D01*
X97714Y18110D01*
X98266Y18022D02*
Y18094D01*
X98249Y18110D02*
X98266Y18094D01*
X95669Y16732D02*
Y19094D01*
X95866Y16535D02*
X96654D01*
X95669Y16732D02*
X95866Y16535D01*
X95472Y19291D02*
X95669Y19094D01*
X68696Y36609D02*
X68701Y36614D01*
X68696Y35438D02*
Y36609D01*
X71860Y35433D02*
Y36417D01*
X69892Y35433D02*
X70659D01*
X61211Y38396D02*
X61220Y38386D01*
X60443Y38396D02*
X61211D01*
X60433Y38406D02*
X60443Y38396D01*
X60443Y39163D02*
X61211D01*
X72441Y22638D02*
X76882D01*
X72244Y22835D02*
X72441Y22638D01*
X76882D02*
X77866Y23622D01*
X78543D01*
X15354Y18504D02*
Y19488D01*
X21060Y26381D02*
X21063Y26378D01*
X21060Y26381D02*
Y27162D01*
X21057Y27165D02*
X21060Y27162D01*
X21850Y26378D02*
X21854Y26381D01*
Y27162D01*
X21857Y27165D01*
X66298Y21850D02*
X67126D01*
X58858Y24809D02*
Y25787D01*
Y24803D02*
Y24809D01*
X58022Y25984D02*
X58661D01*
X58858Y25787D01*
X67608Y22047D02*
X67717D01*
X65157Y23581D02*
Y24213D01*
X64518Y21240D02*
Y22942D01*
X65157Y23581D01*
X64355Y24210D02*
X64356Y24211D01*
X65156D01*
X65157Y24213D01*
X60039Y20472D02*
X62008D01*
X62776Y21240D02*
X64518D01*
X62008Y20472D02*
X62776Y21240D01*
X58458Y21160D02*
Y21260D01*
X58358Y21060D02*
X58458Y21160D01*
X58288Y21060D02*
X58358D01*
X58170Y20943D02*
X58288Y21060D01*
X58170Y20276D02*
Y20943D01*
X75978Y24409D02*
X75984Y24416D01*
X75000Y24409D02*
X75394D01*
X81102Y24016D02*
X83268D01*
X83480Y22835D02*
Y23803D01*
X83268Y24016D02*
X83480Y23803D01*
X81890Y23616D02*
X82677D01*
X86417Y19173D02*
Y20079D01*
Y19173D02*
X86496Y19094D01*
Y18227D02*
Y19094D01*
X86613Y18110D02*
X87205D01*
X86496Y18227D02*
X86613Y18110D01*
X87992D02*
Y19016D01*
X87913Y19094D02*
X87992Y19016D01*
Y16535D02*
Y17323D01*
X92717Y16732D02*
X93307D01*
X92520Y16535D02*
X92717Y16732D01*
X95041Y16259D02*
Y18022D01*
X94924Y16142D02*
X95041Y16259D01*
X91732Y16142D02*
X94924D01*
X90945D02*
X91732D01*
X93307Y17206D02*
X93424Y17323D01*
X93924D01*
X93307Y16732D02*
Y17206D01*
X91732Y18504D02*
X92520D01*
X94041Y17440D02*
Y18022D01*
X93924Y17323D02*
X94041Y17440D01*
X94094Y16732D02*
X94371D01*
X94541Y16903D02*
Y18022D01*
X94371Y16732D02*
X94541Y16903D01*
X90256Y16142D02*
X90945D01*
X89567Y16142D02*
X90256D01*
X90256Y16142D01*
X91732Y16929D02*
Y17717D01*
X90945D02*
X91732D01*
X90669Y20866D02*
X90748Y20945D01*
Y22244D01*
X90059Y21585D02*
Y23031D01*
X89341Y20866D02*
X90059Y21585D01*
X89252Y20866D02*
X89341D01*
X90748Y22244D02*
X90751Y22241D01*
X91532D01*
X91535Y22238D01*
X90059Y23031D02*
X90748D01*
X89370D02*
X90059D01*
X91535Y22238D02*
X91539Y22241D01*
X92320D01*
X92323Y22244D01*
Y23031D02*
X93216D01*
X93251Y22997D01*
X93247Y22169D02*
X93251Y22173D01*
X92323Y19685D02*
Y20079D01*
Y19685D02*
X92717Y19291D01*
X94802D01*
X93251Y21263D02*
X93254Y21260D01*
X93251Y21263D02*
Y22166D01*
X93247Y22169D02*
X93251Y22166D01*
X93541Y20167D02*
Y20864D01*
X93254Y21152D02*
X93541Y20864D01*
X93254Y21152D02*
Y21260D01*
X94041Y21260D02*
X94044Y21263D01*
X94041Y21260D02*
X94041Y21260D01*
X94044Y21263D02*
Y22166D01*
X94047Y22169D01*
X94041Y20167D02*
X94041Y20167D01*
X94041Y20167D02*
Y21260D01*
X94041Y21260D02*
X94041Y21260D01*
X95866Y21260D02*
X95866Y21260D01*
X94041Y21260D02*
X95866D01*
X96654D02*
X97435D01*
X94802Y19291D02*
X95472D01*
X94541Y19552D02*
Y20167D01*
Y19552D02*
X94802Y19291D01*
X98766Y16535D02*
Y18022D01*
X97441Y16535D02*
X98766D01*
X98903D01*
X99259Y18029D02*
X99266Y18022D01*
X99259Y18029D02*
Y18458D01*
X99016Y18701D02*
X99259Y18458D01*
X97441Y18701D02*
X99016D01*
X98766Y19632D02*
Y20167D01*
X98622Y19488D02*
X98766Y19632D01*
X97441Y19488D02*
X98622D01*
X99266Y17270D02*
Y18022D01*
Y17270D02*
X99409Y17126D01*
X98903Y16535D02*
X99403D01*
X100197Y15748D02*
X100200Y15751D01*
Y16532D01*
X99406Y15751D02*
X99409Y15748D01*
X99406Y15751D02*
Y16532D01*
X99403Y16535D02*
X99406Y16532D01*
X97552Y20167D02*
X98266D01*
X97435Y20284D02*
Y21260D01*
Y20284D02*
X97552Y20167D01*
X97438Y22044D02*
X97441Y22047D01*
X97438Y21263D02*
Y22044D01*
X97435Y21260D02*
X97438Y21263D01*
X98228Y22047D02*
X98231Y22044D01*
Y21263D02*
Y22044D01*
Y21263D02*
X98235Y21260D01*
X98622D01*
X98766Y20167D02*
Y21116D01*
X98622Y21260D02*
X98766Y21116D01*
X101769Y21072D02*
X101772Y21076D01*
Y18701D02*
Y20276D01*
Y18307D02*
Y18701D01*
X101486Y18022D02*
X101772Y18307D01*
X111194Y31496D02*
X113183D01*
X110683Y30985D02*
X111194Y31496D01*
X110683Y30404D02*
Y30985D01*
X111183Y28258D02*
Y28820D01*
X111497Y29134D02*
X112795D01*
X111183Y28820D02*
X111497Y29134D01*
X110433Y26378D02*
X110683Y26628D01*
Y28820D01*
X110046Y26378D02*
X110433D01*
X99766Y18022D02*
X101486D01*
X104137Y20909D02*
X105394D01*
X104259Y16908D02*
X104277Y16925D01*
X104921Y23504D02*
Y24606D01*
X104843Y23425D02*
X104921Y23504D01*
X108465Y29724D02*
X110066D01*
X110183Y29842D01*
Y30404D01*
Y31352D01*
X104134Y24606D02*
Y25394D01*
X104152Y25412D01*
Y26163D01*
X104170Y26181D01*
X104970D02*
X104979Y26173D01*
X105717D01*
X104183Y26194D02*
Y26910D01*
X104170Y26181D02*
X104183Y26194D01*
X104970Y26181D02*
X104977Y26188D01*
X101575Y25591D02*
Y26378D01*
X101968D01*
X99803Y29528D02*
Y30315D01*
X98622Y30433D02*
X99685D01*
X99803Y30315D01*
X100587Y29524D02*
X100591Y29521D01*
X99806Y29524D02*
X100587D01*
X99803Y29528D02*
X99806Y29524D01*
X101375D02*
X101378Y29528D01*
X100594Y29524D02*
X101375D01*
X100591Y29521D02*
X100594Y29524D01*
X101378Y30315D02*
X102165D01*
X103654Y31487D02*
X103657Y31490D01*
Y32280D02*
X103661Y32283D01*
X103657Y31490D02*
Y32280D01*
X104454Y31487D02*
Y31496D01*
X104448Y32283D02*
X104451Y32281D01*
Y31490D02*
X104454Y31487D01*
X108071Y31496D02*
X108852D01*
X110039D02*
X110183Y31352D01*
X109652Y31496D02*
X110039D01*
X110566Y28937D02*
X110683Y28820D01*
X108465Y28937D02*
X110566D01*
X109249Y25594D02*
X109252Y25591D01*
X109249Y25594D02*
Y26375D01*
X109246Y26378D02*
X109249Y26375D01*
X110039Y25591D02*
X110043Y25594D01*
Y26375D01*
X110046Y26378D01*
X108855Y32280D02*
X108858Y32283D01*
X108855Y31499D02*
Y32280D01*
X108852Y31496D02*
X108855Y31499D01*
X108969Y30404D02*
X109683D01*
X108852Y30521D02*
Y31496D01*
Y30521D02*
X108969Y30404D01*
X109646Y32283D02*
X109649Y32280D01*
Y31499D02*
Y32280D01*
Y31499D02*
X109652Y31496D01*
X76772Y24527D02*
Y24813D01*
X75984Y24416D02*
X75991Y24409D01*
X76655D01*
X76772Y24527D01*
X40945Y7283D02*
X40945Y7283D01*
X41732D01*
X41732Y7283D01*
X43783Y6513D02*
X43786Y6516D01*
X43002Y6513D02*
X43783D01*
D90*
X11236Y1969D02*
D03*
Y2968D02*
D03*
X12236Y1969D02*
D03*
X13236D02*
D03*
X12236Y2968D02*
D03*
X13236D02*
D03*
X14236Y1969D02*
D03*
Y2968D02*
D03*
X15236Y1969D02*
D03*
Y2968D02*
D03*
X16236Y1969D02*
D03*
Y2968D02*
D03*
X17236Y1969D02*
D03*
X10236Y2968D02*
D03*
X9236D02*
D03*
X8236D02*
D03*
X10236Y1969D02*
D03*
X9236D02*
D03*
X8236D02*
D03*
D91*
X62323Y43898D02*
D03*
X63110Y46260D02*
D03*
Y41535D02*
D03*
X67913D02*
D03*
Y46260D02*
D03*
D106*
X17236Y2968D02*
D03*
D113*
X112031Y33858D02*
D03*
X116315Y37795D02*
D03*
Y33858D02*
D03*
X114173Y35827D02*
D03*
Y33858D02*
D03*
X112031Y37795D02*
D03*
X108441Y49606D02*
D03*
X106299Y53543D02*
D03*
Y51575D02*
D03*
X104157Y53543D02*
D03*
Y49606D02*
D03*
X108441Y53543D02*
D03*
X104157Y33858D02*
D03*
X108441Y37795D02*
D03*
Y33858D02*
D03*
X106299Y35827D02*
D03*
Y33858D02*
D03*
X104157Y37795D02*
D03*
D126*
X9880Y12242D02*
Y13661D01*
X9904Y13685D01*
X10079Y20433D02*
Y20957D01*
Y20433D02*
X11024Y19488D01*
X9193Y20728D02*
X10039Y19882D01*
X7815Y20728D02*
X9193D01*
X9728Y16583D02*
Y19870D01*
X10039Y18634D02*
Y19882D01*
X7721Y20499D02*
X9099D01*
X9728Y19870D01*
X100248Y22129D02*
X101460D01*
X101772Y22441D02*
Y23425D01*
X101460Y22129D02*
X101772Y22441D01*
X111821Y26565D02*
X113189Y27934D01*
X110255Y25000D02*
X111821Y26565D01*
X111811Y27362D02*
X111821Y27353D01*
Y26565D02*
Y27353D01*
X65354Y25787D02*
X66929D01*
X81611Y27611D02*
Y29474D01*
X81387Y27388D02*
X81611Y27611D01*
X81387Y27362D02*
Y27388D01*
X82480Y27362D02*
X82480Y27362D01*
X82480Y27362D02*
Y29471D01*
X45276Y31243D02*
Y32874D01*
X45270Y31238D02*
X45276Y31243D01*
X48228Y26575D02*
Y28937D01*
Y26575D02*
X48809D01*
X46850D02*
X48228D01*
X50787Y30709D02*
X50787Y30709D01*
X51466D01*
X98622Y23756D02*
Y26969D01*
Y23756D02*
X100248Y22129D01*
X60039Y22047D02*
X61119Y20968D01*
Y20843D02*
Y20968D01*
X55172Y22967D02*
X56648D01*
X54915Y23224D02*
X55172Y22967D01*
X54915Y23224D02*
Y24600D01*
X55327Y25012D01*
X56684D01*
X56939Y25267D01*
Y25610D01*
X32087Y19094D02*
Y19882D01*
X108268Y24016D02*
X109252Y25000D01*
X110255D01*
X108268Y23228D02*
Y24016D01*
X113189Y27934D02*
Y31490D01*
X100482Y26378D02*
X100787D01*
X100394Y26290D02*
X100482Y26378D01*
X100394Y23228D02*
Y26290D01*
X60039Y25319D02*
X60039Y25319D01*
X60039Y22047D02*
Y25319D01*
X59252Y22047D02*
X60039D01*
X96260Y30512D02*
Y33835D01*
X97047Y29724D02*
X99125D01*
X96260Y30512D02*
X97047Y29724D01*
X99213Y29222D02*
Y29637D01*
X99125Y29724D02*
X99213Y29637D01*
Y29222D02*
X99300Y29134D01*
X102165Y29204D02*
Y29528D01*
X102095Y29134D02*
X102165Y29204D01*
X99300Y29134D02*
X102095D01*
X82874Y40748D02*
X84843D01*
X31496Y18504D02*
X32087Y19094D01*
X50875Y30098D02*
X51457D01*
X50787Y30011D02*
X50875Y30098D01*
X50787Y28740D02*
Y30011D01*
X50591Y28543D02*
X50787Y28740D01*
X48897Y28543D02*
X50591D01*
X48809Y28631D02*
X48897Y28543D01*
X59646Y38780D02*
Y39173D01*
X59439Y39380D02*
Y39572D01*
Y39380D02*
X59646Y39173D01*
X59439Y39572D02*
X63981D01*
X64567Y40157D02*
X74715D01*
X59439Y39572D02*
Y40157D01*
X63981Y39572D02*
X64567Y40157D01*
X31267Y12496D02*
Y19063D01*
X31299Y19094D01*
X67717Y19882D02*
Y21063D01*
X57677Y18898D02*
X66732D01*
X67717Y19882D01*
X57283Y19291D02*
Y20866D01*
Y19291D02*
X57677Y18898D01*
X82677Y40945D02*
Y45079D01*
X83071Y45472D01*
X86220D01*
X82677Y40945D02*
X82874Y40748D01*
X85427Y22244D02*
X86417D01*
X84698Y21515D02*
X85427Y22244D01*
X84698Y20490D02*
Y21515D01*
X84281Y20073D02*
X84698Y20490D01*
X82863Y20073D02*
X84281D01*
X82762Y20174D02*
X82863Y20073D01*
X82169Y20174D02*
X82762D01*
X87992Y25591D02*
X89370Y26969D01*
X98622D01*
X84927Y19549D02*
Y21420D01*
X85357Y21850D02*
X85827D01*
X84927Y21420D02*
X85357Y21850D01*
X83850Y18473D02*
X84927Y19549D01*
X83850Y17410D02*
Y18473D01*
X86417Y22244D02*
X89370D01*
X86417Y20866D02*
Y22244D01*
X82283Y20669D02*
X82480Y20472D01*
X83065D01*
X82283Y20669D02*
Y21850D01*
X82461Y22028D01*
X83809D01*
X18078Y11779D02*
X30874D01*
X16230Y11024D02*
X17323D01*
X18078Y11779D01*
X15768Y11486D02*
X16230Y11024D01*
X15768Y11486D02*
Y11565D01*
X31496Y12402D02*
Y18504D01*
X30874Y11779D02*
X31496Y12402D01*
X30779Y12008D02*
X31267Y12496D01*
X14754Y12008D02*
X30779D01*
X14390Y11644D02*
X14754Y12008D01*
X14390Y11565D02*
Y11644D01*
X74715Y40157D02*
X74803Y40070D01*
Y39567D02*
Y40070D01*
X11676Y14173D02*
X15266D01*
X11588Y14085D02*
X11676Y14173D01*
X11588Y12874D02*
Y14085D01*
X15266Y14173D02*
X15354Y14085D01*
Y13583D02*
Y14085D01*
X9880Y12242D02*
X10512Y12874D01*
X11588D01*
X9880Y10915D02*
Y12242D01*
X48228Y28937D02*
X48425Y29134D01*
X45270Y31238D02*
X46850D01*
X83065Y20472D02*
X83071Y20479D01*
X75984Y23616D02*
X76768D01*
X76772Y23612D01*
X87686Y18110D02*
X87992D01*
X87598Y18022D02*
X87686Y18110D01*
X87598Y16623D02*
Y18022D01*
X87205Y16535D02*
X87511D01*
X87598Y16623D01*
X48809Y27756D02*
X49322D01*
X49409Y27668D01*
Y27253D02*
Y27668D01*
Y27253D02*
X49497Y27165D01*
X51005D01*
X51181Y27341D02*
Y27953D01*
X51005Y27165D02*
X51181Y27341D01*
X50394Y27756D02*
X51378Y28740D01*
X50010Y27756D02*
X50394D01*
X51378Y28740D02*
Y29297D01*
X51181Y27953D02*
X51575Y28346D01*
X53543D01*
X51881Y29350D02*
X51968Y29438D01*
X51431Y29350D02*
X51881D01*
X51968Y29438D02*
Y30621D01*
X51881Y30709D02*
X51968Y30621D01*
X51466Y30709D02*
X51881D01*
X51378Y30797D02*
Y31299D01*
Y30797D02*
X51466Y30709D01*
X53740Y28543D02*
Y29291D01*
X53543Y28346D02*
X53740Y28543D01*
X101772Y23425D02*
X101772Y23425D01*
X108268Y22441D02*
Y23228D01*
X113183Y31496D02*
X113189Y31490D01*
X63978Y25295D02*
Y26573D01*
Y25295D02*
X63980Y25293D01*
X64173Y27362D02*
X64764D01*
X63976Y27165D02*
X64173Y27362D01*
X63976Y26673D02*
Y27165D01*
Y26575D02*
X63978Y26573D01*
X63976Y26575D02*
Y26673D01*
X107283Y29724D02*
Y30520D01*
X105062Y31002D02*
X106802D01*
X107283Y30520D01*
X107283Y28937D02*
X107283Y28937D01*
X107283Y26378D02*
Y28937D01*
X104974Y30914D02*
X105062Y31002D01*
X104974Y30404D02*
Y30914D01*
X68691Y35433D02*
X68696Y35438D01*
X10380Y9896D02*
Y10915D01*
X10827Y9449D02*
X12402D01*
X10380Y9896D02*
X10827Y9449D01*
X12402Y8077D02*
X12502D01*
X12902Y7677D01*
X13623D01*
X12402Y8077D02*
Y8661D01*
Y9449D01*
X14764Y10482D02*
X16142D01*
X14764Y9843D02*
Y10482D01*
X14370Y9449D02*
X14764Y9843D01*
X13189Y9449D02*
X14370D01*
X12402Y11024D02*
Y11811D01*
X12402Y10236D02*
X12402Y10236D01*
Y11024D01*
X12671Y13248D02*
X13101D01*
X13189Y11811D02*
Y13160D01*
X13101Y13248D02*
X13189Y13160D01*
X10880Y11723D02*
X10968Y11811D01*
X10880Y10915D02*
Y11723D01*
X10968Y11811D02*
X12402D01*
X12205Y15748D02*
Y21063D01*
X10433Y21457D02*
Y24050D01*
Y21457D02*
X10827Y21063D01*
X12205D01*
X60433Y39154D02*
X60443Y39163D01*
X61211D02*
X61220Y39173D01*
X60640Y40157D02*
Y41535D01*
X5512Y22708D02*
X7721Y20499D01*
X6299Y22244D02*
X7815Y20728D01*
X7980Y20957D02*
X10079D01*
X7087Y21850D02*
X7980Y20957D01*
X53681Y31673D02*
X53740Y31732D01*
X52461Y31673D02*
X53681D01*
X50010Y25591D02*
X51565D01*
X52156Y26181D01*
X52244D01*
X48425Y29134D02*
X48809D01*
X50010Y26575D02*
X51171D01*
X52156Y27559D01*
X52244D01*
X53661Y26181D02*
X53661Y26181D01*
X48809Y28631D02*
Y29134D01*
X51378Y29297D02*
X51431Y29350D01*
X48809Y30265D02*
X48859Y30315D01*
X48809Y29134D02*
Y30265D01*
Y30365D02*
Y31299D01*
Y30365D02*
X48859Y30315D01*
X9728Y16583D02*
X10079Y16232D01*
X7087Y21850D02*
Y23287D01*
X5512Y22708D02*
Y23287D01*
X6299Y22244D02*
Y23287D01*
X15049Y17717D02*
X15354D01*
X14961Y17804D02*
Y20188D01*
Y17804D02*
X15049Y17717D01*
X15049Y20276D02*
X15354D01*
X14961Y20188D02*
X15049Y20276D01*
X10433Y24050D02*
X11196D01*
X7899D02*
X10433D01*
X11220Y24026D02*
X12205D01*
X7874Y24075D02*
X7899Y24050D01*
X11196D02*
X11220Y24026D01*
X10039Y18634D02*
X10079Y18594D01*
X7874Y23287D02*
X7906Y23319D01*
X10079D01*
X5512Y24075D02*
X6299D01*
X7087D01*
X7874D01*
X65153Y19377D02*
Y20081D01*
X65154Y20082D01*
X65148Y19373D02*
X65153Y19377D01*
X67126Y22835D02*
X67779D01*
X65157Y25591D02*
X65354Y25787D01*
X65157Y25000D02*
Y25591D01*
X65198Y22678D02*
X65354Y22835D01*
X67126D01*
X65198Y21850D02*
Y22678D01*
X65151Y21804D02*
X65198Y21850D01*
X60039Y20472D02*
X60039Y20472D01*
X65948Y20863D02*
X65950Y20865D01*
X65945Y20079D02*
X65948Y20082D01*
Y20863D01*
X65154Y20082D02*
Y20863D01*
X65151Y20866D02*
X65154Y20863D01*
X65151Y20866D02*
Y21804D01*
X58068Y24009D02*
X58858D01*
X57878Y23819D02*
X58068Y24009D01*
X57234Y23819D02*
X57878D01*
X55315Y23425D02*
X55325Y23435D01*
X56142D01*
X56152Y23445D01*
X75000Y23622D02*
X75020D01*
X74213D02*
X75000D01*
X76765Y27165D02*
X76768Y27169D01*
Y27950D01*
X76772Y27953D01*
X76768Y27956D02*
X76772Y27953D01*
X82480Y30271D02*
X82484Y30267D01*
X83259D01*
X83263Y30264D01*
X80815Y30278D02*
X81606D01*
X81611Y30274D01*
D127*
X35767Y21937D02*
X35827D01*
X33268Y24436D02*
X35767Y21937D01*
X33268Y24436D02*
Y25787D01*
X55512Y27165D02*
Y28150D01*
X56417Y29055D01*
X62492D01*
X64567Y31102D02*
X71260Y24409D01*
X59055Y31102D02*
X64567D01*
X71260Y24409D02*
X74213D01*
X67913D02*
X71260D01*
X17913Y17403D02*
Y17913D01*
Y17403D02*
X21307Y14009D01*
X24620D01*
X30893Y20282D01*
X34245D01*
X17913Y17913D02*
X18520D01*
X18523Y17916D01*
X17126Y15157D02*
Y17913D01*
X17913D02*
Y18898D01*
X34245Y20282D02*
X35612Y18916D01*
X35630Y18898D02*
X35630D01*
X35648Y18916D01*
X35827Y18737D01*
Y13780D02*
Y18737D01*
X100133Y21850D02*
X102165D01*
X98343Y23640D02*
X100133Y21850D01*
X98343Y23640D02*
Y24524D01*
X54413Y33579D02*
X56299Y31693D01*
X49606Y33579D02*
X54413D01*
X56299Y31693D02*
X64961D01*
X54134Y32126D02*
Y33071D01*
X53740Y31732D02*
X54134Y32126D01*
X15354Y21457D02*
Y22047D01*
Y20276D02*
Y21457D01*
X17126Y19685D02*
X17913Y18898D01*
X15354Y21457D02*
X17126Y19685D01*
Y19685D02*
Y19685D01*
X14577Y22825D02*
X15354Y22047D01*
X109055Y23228D02*
X109449D01*
X102165Y21850D02*
X106435D01*
X106581Y21997D01*
Y24854D01*
X54331Y25197D02*
X54724Y25591D01*
Y26378D02*
X55512Y27165D01*
X54724Y25591D02*
Y26378D01*
X52559Y25197D02*
X54331D01*
X59055Y27953D02*
X59367Y27641D01*
X58611Y23031D02*
X59220D01*
X59367Y23178D02*
Y27641D01*
X59220Y23031D02*
X59367Y23178D01*
X35827Y27118D02*
Y29134D01*
X57087Y27953D02*
X59055D01*
X56890Y27756D02*
X57087Y27953D01*
X63316Y38386D02*
X64694Y39764D01*
X71260D01*
X62598Y38386D02*
X63316D01*
X71260Y39764D02*
X72205Y38819D01*
X74026D01*
X75984Y39173D02*
Y42323D01*
X75630Y38819D02*
X75984Y39173D01*
X74026Y38819D02*
X75630D01*
X17126Y12992D02*
Y15157D01*
X64961Y31693D02*
X67913Y28740D01*
X57874Y31102D02*
X59055D01*
X56693D02*
X57874D01*
X55512D02*
X56693D01*
X16339Y12992D02*
X17028D01*
X16192Y15157D02*
X17126D01*
X73228Y26575D02*
Y27559D01*
X73425Y26378D02*
X76772D01*
X73228Y26575D02*
X73425Y26378D01*
X53740Y20472D02*
Y21654D01*
X54134Y22047D02*
X58465D01*
X53740Y21654D02*
X54134Y22047D01*
X53543Y20276D02*
X53740Y20472D01*
X67717Y21063D02*
Y21457D01*
X67913Y21654D02*
X68898D01*
X67717Y21457D02*
X67913Y21654D01*
X13780Y12255D02*
X13926Y12402D01*
X13780Y10383D02*
Y12255D01*
X13926Y12402D02*
X14567D01*
X15748D01*
X16339Y12992D01*
X14567Y12402D02*
Y12875D01*
X39961Y12638D02*
X43268D01*
X43786Y7303D02*
Y12120D01*
X29526Y31894D02*
X29528Y31896D01*
X72417Y42685D02*
X75622D01*
X75984Y42323D01*
X74026Y38819D02*
Y39567D01*
X74026Y38819D02*
X74026Y38819D01*
X80166Y29491D02*
X80815D01*
X80077Y29402D02*
X80166Y29491D01*
X80038Y29402D02*
X80077D01*
X35827Y29134D02*
X36614Y29921D01*
X43877D01*
X13139Y15157D02*
X16192D01*
X16192Y15157D02*
X16192Y15157D01*
X16535Y18504D02*
X17126Y17913D01*
X14567Y12875D02*
Y13583D01*
X12992Y15304D02*
Y21850D01*
Y15304D02*
X13139Y15157D01*
X12520Y22323D02*
X12992Y21850D01*
X11220Y22469D02*
X11367Y22323D01*
X11220Y22469D02*
Y22825D01*
X11367Y22323D02*
X12520D01*
X13189Y10236D02*
X13633D01*
X13780Y10383D01*
X15354Y18504D02*
X16535D01*
X12205Y22825D02*
X14577D01*
X37369Y23819D02*
X37480Y23930D01*
Y26378D01*
X37442Y21851D02*
X37442Y21850D01*
X37442Y21851D02*
Y23818D01*
X37441Y23819D02*
X37442Y23818D01*
X43268Y12638D02*
X43786Y12120D01*
X97030Y25836D02*
X98343Y24524D01*
X94517Y25836D02*
X97030D01*
X94370Y25690D02*
X94517Y25836D01*
X94370Y25000D02*
Y25690D01*
X107729Y28005D02*
X107874Y28150D01*
X107982Y28258D01*
X58465Y22047D02*
Y22885D01*
X58611Y23031D01*
X38386Y28799D02*
X38388Y28797D01*
X39291Y26378D02*
X40344D01*
Y27362D01*
X41535Y26368D02*
X41545Y26378D01*
X41535Y25591D02*
Y26368D01*
X41339Y25394D02*
X41535Y25591D01*
X51772Y20276D02*
X53543D01*
X56890Y27165D02*
Y27756D01*
X67520Y24803D02*
X67913Y24409D01*
X67520Y24803D02*
Y26772D01*
X65551Y27362D02*
X66929D01*
X67520Y26772D01*
X67913Y28740D02*
Y28740D01*
X72244Y26969D02*
Y30118D01*
X51772Y24409D02*
X52559Y25197D01*
X51772Y21063D02*
Y24409D01*
X74213Y25050D02*
X74359Y25197D01*
X74213Y24409D02*
Y25050D01*
X74359Y25197D02*
X80709D01*
X106728Y25000D02*
X107587D01*
X106581Y24854D02*
X106728Y25000D01*
X107729Y26047D02*
Y28005D01*
X107733Y25146D02*
Y26044D01*
X107729Y26047D02*
X107733Y26044D01*
X107587Y25000D02*
X107733Y25146D01*
X76378Y10039D02*
X77559Y11220D01*
Y18297D01*
X24636Y31890D02*
X26939D01*
X107982Y28258D02*
X109683D01*
X60640Y41535D02*
X63110D01*
X63110Y41535D01*
X80709Y25197D02*
X81102Y24803D01*
X65551Y27362D02*
Y28150D01*
X81102Y24016D02*
Y24803D01*
Y22835D02*
Y24016D01*
X76772Y25787D02*
X76968Y25591D01*
X84252D01*
X76772Y25787D02*
Y26378D01*
X84252Y23622D02*
Y25591D01*
X105385Y19397D02*
X105394Y19406D01*
X105385Y18130D02*
Y19397D01*
X105377Y18121D02*
X105385Y18130D01*
X124409Y36261D02*
X125591D01*
X123178Y36241D02*
X124389D01*
X124409Y36261D01*
X123157Y36220D02*
X123178Y36241D01*
X121633Y34666D02*
Y36200D01*
X121613Y34646D02*
X121633Y34666D01*
Y36200D02*
X121654Y36220D01*
X84252Y25591D02*
Y25984D01*
X83268Y26969D02*
Y28543D01*
Y26969D02*
X84252Y25984D01*
X78533Y21850D02*
X78543Y21841D01*
X77569Y21850D02*
X78533D01*
X77559Y21860D02*
X77569Y21850D01*
X78543Y23041D02*
Y23622D01*
X77559Y19498D02*
Y20659D01*
D128*
X10039Y32087D02*
Y32283D01*
X109449Y23228D02*
Y23228D01*
X114567Y28346D02*
X121654D01*
X109449Y23228D02*
X114567Y28346D01*
X108661Y23980D02*
X109288Y24606D01*
X108661Y18701D02*
Y23980D01*
X109288Y24606D02*
X110291D01*
X122406Y36220D02*
Y37361D01*
X121022D02*
X122406D01*
X124409D01*
X126772Y33465D02*
Y37008D01*
X121654Y28346D02*
X126772Y33465D01*
X110291Y24606D02*
X114425Y28740D01*
X121457D01*
X113595Y30524D02*
X113976Y30906D01*
Y31490D01*
X113983Y31496D01*
X113595Y29971D02*
Y30524D01*
X121457Y28740D02*
X123157Y30441D01*
Y36220D01*
X19006Y29340D02*
X19390Y29724D01*
X19764D01*
X18711Y29340D02*
X19006D01*
X18701Y29331D02*
X18711Y29340D01*
X35630Y13583D02*
X35827Y13780D01*
X35630Y10059D02*
Y13583D01*
X10236Y32480D02*
X19488D01*
X20984Y30984D02*
X26939D01*
X19488Y32480D02*
X20984Y30984D01*
X10039Y31496D02*
Y32087D01*
Y32283D02*
X10236Y32480D01*
X35827Y13780D02*
X36417Y14370D01*
X39804D01*
X26939Y30984D02*
X29380D01*
X29526Y31131D02*
Y31894D01*
X29380Y30984D02*
X29526Y31131D01*
X125591Y37361D02*
X126419D01*
X126772Y37008D01*
X113983Y31496D02*
X119882D01*
X120513Y32127D01*
Y34646D01*
X51378Y32047D02*
X51793D01*
X47008D02*
X51378D01*
X52144Y31102D02*
X53543D01*
X51968Y31278D02*
X52144Y31102D01*
X51793Y32047D02*
X51968Y31872D01*
Y31278D02*
Y31872D01*
X53543Y31102D02*
X53740Y30906D01*
Y29291D02*
Y30906D01*
X105359Y16908D02*
X105368Y16917D01*
Y18113D01*
X105377Y18121D01*
X105387Y18110D01*
X108071D01*
X108661Y18701D01*
X46850Y31238D02*
Y31890D01*
X47008Y32047D01*
X38388Y28797D02*
X45270D01*
X38386Y26378D02*
Y28799D01*
X38583Y25394D02*
X41339D01*
X38386Y25591D02*
Y26378D01*
Y25591D02*
X38583Y25394D01*
X76496Y35433D02*
X78346D01*
X124409Y37361D02*
X125591D01*
X120513Y34646D02*
Y36852D01*
X121022Y37361D01*
D130*
X52362Y43898D02*
X62323D01*
X77559D02*
X78346Y44685D01*
X62323Y43898D02*
X77559D01*
X16578Y41339D02*
X19722Y44483D01*
X12837Y41339D02*
X16578D01*
X12837Y38033D02*
Y41339D01*
Y49707D01*
X19722Y46100D02*
X21260Y47638D01*
X19722Y44483D02*
Y46100D01*
X21260Y47638D02*
X27953D01*
X53661Y26181D02*
Y27559D01*
X93701Y25000D02*
X94370D01*
X92992D02*
X93701D01*
X92323D02*
X92992D01*
X91457D02*
X92323D01*
X78346Y48819D02*
X79331D01*
X80906Y36220D02*
Y47244D01*
X79331Y48819D02*
X80906Y47244D01*
X11614Y50000D02*
X12544D01*
X12837Y49707D01*
X22340Y40801D02*
Y44882D01*
X20866D02*
X22340D01*
X28150D01*
X51575Y52953D02*
X52205Y53583D01*
X51575Y44685D02*
X52362Y43898D01*
X52205Y53583D02*
X55472D01*
X51575Y44685D02*
Y52953D01*
X78346Y44685D02*
Y46063D01*
X55472Y53583D02*
X55512Y53543D01*
X78346Y35433D02*
X80118D01*
X80906Y36220D01*
X10728Y37008D02*
X11811D01*
X12837Y38033D01*
X18547Y37008D02*
X22340Y40801D01*
X16240Y37008D02*
X18547D01*
X18307Y47244D02*
X18348Y47285D01*
Y48467D01*
X19882Y50000D01*
X14567Y47638D02*
X17793D01*
X18187Y47244D01*
X18307D01*
X28740Y48425D02*
Y52756D01*
X24803Y53543D02*
X27953D01*
X28740Y52756D01*
X27953Y47638D02*
X28740Y48425D01*
X30512Y53543D02*
X32677D01*
X29921Y52953D02*
X30512Y53543D01*
X28150Y44882D02*
X29921Y46654D01*
Y52953D01*
X40945Y40157D02*
Y49213D01*
X41339Y49606D02*
X44094D01*
X40945Y49213D02*
X41339Y49606D01*
D131*
X1772Y19094D02*
D03*
D132*
Y18110D02*
D03*
Y17126D02*
D03*
Y16142D02*
D03*
X121654Y36220D02*
D03*
X122406D02*
D03*
X105394Y20157D02*
D03*
Y20909D02*
D03*
X62492Y29055D02*
D03*
X18307Y31496D02*
D03*
D133*
X22874Y6191D02*
D03*
X24433D02*
D03*
X25992D02*
D03*
X27551D02*
D03*
X29110D02*
D03*
D134*
X30669D02*
D03*
D135*
X116315Y35827D02*
D03*
X112031D02*
D03*
X108441Y51575D02*
D03*
X104157D02*
D03*
X108441Y35827D02*
D03*
X104157D02*
D03*
D136*
X114173Y34843D02*
D03*
X106299Y52559D02*
D03*
Y34843D02*
D03*
D137*
X120437Y44646D02*
D03*
X124374D02*
D03*
D138*
X123157Y36220D02*
D03*
D139*
X105394Y19406D02*
D03*
D140*
X113819Y18189D02*
D03*
Y22126D02*
D03*
D141*
X92913Y10039D02*
D03*
Y6102D02*
D03*
X59843Y10039D02*
D03*
Y6102D02*
D03*
X125984D02*
D03*
Y10039D02*
D03*
X109449Y6102D02*
D03*
Y10039D02*
D03*
X76378Y6102D02*
D03*
Y10039D02*
D03*
D142*
X91043Y7402D02*
D03*
X57972D02*
D03*
X124114D02*
D03*
X107579D02*
D03*
X74508D02*
D03*
D143*
X147244Y60630D02*
D03*
X68110Y2362D02*
D03*
X59449Y60630D02*
D03*
X147244Y2362D02*
D03*
X2362Y60630D02*
D03*
Y2362D02*
D03*
D144*
X144291Y6496D02*
D03*
Y10246D02*
D03*
X5315Y47825D02*
D03*
Y44075D02*
D03*
Y51575D02*
D03*
D145*
X52264Y37008D02*
D03*
X61122D02*
D03*
X1870D02*
D03*
X10728D02*
D03*
X37500D02*
D03*
X28642D02*
D03*
X147047Y44587D02*
D03*
Y35728D02*
D03*
Y47343D02*
D03*
Y56201D02*
D03*
X74409Y60335D02*
D03*
Y51476D02*
D03*
X16240Y37008D02*
D03*
X25098D02*
D03*
X138976Y1181D02*
D03*
Y7087D02*
D03*
X135748D02*
D03*
Y1181D02*
D03*
D146*
X63492Y29055D02*
D03*
X17307Y31496D02*
D03*
D147*
X78346Y39370D02*
D03*
Y35433D02*
D03*
X20866Y40945D02*
D03*
Y44882D02*
D03*
X43307Y36220D02*
D03*
Y40157D02*
D03*
X78346Y42126D02*
D03*
Y46063D02*
D03*
X78346Y55906D02*
D03*
Y59843D02*
D03*
X18504Y40945D02*
D03*
Y44882D02*
D03*
X40945Y40157D02*
D03*
Y36220D02*
D03*
X78346Y48819D02*
D03*
Y52756D02*
D03*
X137913Y9646D02*
D03*
Y13583D02*
D03*
X135433Y9685D02*
D03*
Y13622D02*
D03*
D148*
X47638Y49606D02*
D03*
X55512D02*
D03*
Y53543D02*
D03*
X47638D02*
D03*
X24803D02*
D03*
X32677D02*
D03*
Y49606D02*
D03*
X24803D02*
D03*
X36220D02*
D03*
X44094D02*
D03*
Y53543D02*
D03*
X36220D02*
D03*
D149*
X133622Y46063D02*
D03*
Y36220D02*
D03*
Y21693D02*
D03*
Y31535D02*
D03*
D150*
X60236Y50000D02*
D03*
X58268D02*
D03*
X60236Y53346D02*
D03*
X58268D02*
D03*
D151*
X68087Y51177D02*
D03*
X64087D02*
D03*
X21260Y47638D02*
D03*
X18307Y47244D02*
D03*
X14567Y47638D02*
D03*
X11614Y47244D02*
D03*
Y50000D02*
D03*
X14567Y50394D02*
D03*
D152*
X69587Y60177D02*
D03*
Y57177D02*
D03*
X62587Y56177D02*
D03*
X3740Y56299D02*
D03*
X1772D02*
D03*
X19882Y60630D02*
D03*
X21850D02*
D03*
X19882Y57480D02*
D03*
X21850D02*
D03*
X21850Y50000D02*
D03*
X19882D02*
D03*
X21850Y53150D02*
D03*
X19882D02*
D03*
D153*
X96283Y53543D02*
D03*
X98425D02*
D03*
X100567D02*
D03*
X88409D02*
D03*
X90551D02*
D03*
X92693D02*
D03*
Y33858D02*
D03*
X90551D02*
D03*
X88409D02*
D03*
X100567D02*
D03*
X98425D02*
D03*
X96283D02*
D03*
D154*
X147031Y30465D02*
D03*
X148032D02*
D03*
X147031Y31465D02*
D03*
X148032D02*
D03*
X147031Y33465D02*
D03*
X148032Y32465D02*
D03*
X147031D02*
D03*
X148032Y29465D02*
D03*
Y28465D02*
D03*
X147031Y29465D02*
D03*
Y28465D02*
D03*
X44339Y2937D02*
D03*
Y3937D02*
D03*
X43339Y2937D02*
D03*
Y3937D02*
D03*
X41339Y2937D02*
D03*
X42339Y3937D02*
D03*
Y2937D02*
D03*
X45339Y3937D02*
D03*
X46339D02*
D03*
X45339Y2937D02*
D03*
X46339D02*
D03*
X142669Y18717D02*
D03*
Y17717D02*
D03*
X143669Y18717D02*
D03*
Y17717D02*
D03*
X145669Y18717D02*
D03*
X144669Y17717D02*
D03*
Y18717D02*
D03*
X141669Y17717D02*
D03*
X140669D02*
D03*
X141669Y18717D02*
D03*
X140669D02*
D03*
X142669Y14780D02*
D03*
Y13780D02*
D03*
X143669Y14780D02*
D03*
Y13780D02*
D03*
X145669Y14780D02*
D03*
X144669Y13780D02*
D03*
Y14780D02*
D03*
X141669Y13780D02*
D03*
X140669D02*
D03*
X141669Y14780D02*
D03*
X140669D02*
D03*
D155*
X148032Y33465D02*
D03*
D156*
X41339Y3937D02*
D03*
X145669Y17717D02*
D03*
Y13780D02*
D03*
D157*
X9115Y59548D02*
D03*
X17973D02*
D03*
X9115Y55348D02*
D03*
X17973D02*
D03*
D158*
X9843Y43701D02*
D03*
X15354D02*
D03*
D159*
X127953Y53543D02*
D03*
X125000D02*
D03*
X122047D02*
D03*
X118110D02*
D03*
X141732D02*
D03*
X138780D02*
D03*
X135827D02*
D03*
X131890D02*
D03*
D160*
X31980Y32874D02*
D03*
X32480D02*
D03*
X5512Y9055D02*
D03*
Y11417D02*
D03*
X4724Y18580D02*
D03*
X33268Y25787D02*
D03*
X18523Y17916D02*
D03*
X36417Y3937D02*
D03*
X37205D02*
D03*
X39567D02*
D03*
X38780D02*
D03*
X37992D02*
D03*
X16929Y17126D02*
D03*
X19291Y20472D02*
D03*
X50010Y31299D02*
D03*
X54134Y33071D02*
D03*
X53543D02*
D03*
X32087Y19882D02*
D03*
X100394Y23228D02*
D03*
Y22480D02*
D03*
X101280Y21072D02*
D03*
X99960Y22976D02*
D03*
X84843Y40748D02*
D03*
X80315Y22835D02*
D03*
X22638Y26417D02*
D03*
X35630Y18898D02*
D03*
X18701Y29331D02*
D03*
X17028Y15354D02*
D03*
X31299Y19094D02*
D03*
X17028Y13583D02*
D03*
Y12992D02*
D03*
Y14764D02*
D03*
Y14173D02*
D03*
X56693Y19685D02*
D03*
X57283Y20866D02*
D03*
X68898Y21654D02*
D03*
X67717Y21063D02*
D03*
X73228Y27559D02*
D03*
X85039Y37795D02*
D03*
Y38386D02*
D03*
Y39567D02*
D03*
Y37205D02*
D03*
Y38976D02*
D03*
X84843Y42913D02*
D03*
X85433Y43504D02*
D03*
Y42913D02*
D03*
X89764Y44285D02*
D03*
X85039Y36024D02*
D03*
X36220Y17126D02*
D03*
X35630Y16535D02*
D03*
X39764Y17717D02*
D03*
X42717Y15354D02*
D03*
X26939Y32795D02*
D03*
X10039Y32087D02*
D03*
Y31496D02*
D03*
X1772Y4921D02*
D03*
X2362D02*
D03*
X2953D02*
D03*
X3543D02*
D03*
Y5512D02*
D03*
X2953D02*
D03*
X2362D02*
D03*
X1772D02*
D03*
X34449Y15354D02*
D03*
X38780Y3150D02*
D03*
X39567D02*
D03*
Y2362D02*
D03*
X38780D02*
D03*
X35630Y2362D02*
D03*
X36417D02*
D03*
X37205D02*
D03*
X37992D02*
D03*
Y3150D02*
D03*
X37205D02*
D03*
X36417D02*
D03*
X35630D02*
D03*
X40551Y17717D02*
D03*
X38976D02*
D03*
X38189D02*
D03*
X37402D02*
D03*
X36811Y18307D02*
D03*
Y17717D02*
D03*
Y17126D02*
D03*
X36220Y17717D02*
D03*
Y18307D02*
D03*
X35630Y17126D02*
D03*
Y17717D02*
D03*
Y18307D02*
D03*
X41535Y15354D02*
D03*
X42126D02*
D03*
Y15945D02*
D03*
X41535D02*
D03*
Y16535D02*
D03*
X42126D02*
D03*
Y17126D02*
D03*
X41535D02*
D03*
Y17717D02*
D03*
X42126D02*
D03*
Y18307D02*
D03*
X41535D02*
D03*
Y18898D02*
D03*
X42126D02*
D03*
X42717D02*
D03*
Y18307D02*
D03*
Y17717D02*
D03*
Y17126D02*
D03*
Y16535D02*
D03*
Y15945D02*
D03*
Y14764D02*
D03*
Y14173D02*
D03*
X43307D02*
D03*
Y14764D02*
D03*
Y15354D02*
D03*
Y15945D02*
D03*
Y16535D02*
D03*
Y17126D02*
D03*
Y17717D02*
D03*
Y18307D02*
D03*
Y18898D02*
D03*
X29528Y31896D02*
D03*
X72417Y42685D02*
D03*
X37874Y30906D02*
D03*
X38386Y28799D02*
D03*
X88583Y47041D02*
D03*
X100787Y17323D02*
D03*
X103937Y17904D02*
D03*
X93898Y46104D02*
D03*
X91339Y42520D02*
D03*
Y43110D02*
D03*
X88976Y44285D02*
D03*
X60039Y19882D02*
D03*
X91535Y21654D02*
D03*
X80038Y29402D02*
D03*
X9449Y8661D02*
D03*
Y9252D02*
D03*
X104724Y15977D02*
D03*
X63583Y37598D02*
D03*
X40157Y6102D02*
D03*
X96497Y17520D02*
D03*
X85630Y36024D02*
D03*
X85039Y36614D02*
D03*
X85630D02*
D03*
Y37205D02*
D03*
Y37795D02*
D03*
Y38386D02*
D03*
Y38976D02*
D03*
Y39567D02*
D03*
X84843Y43504D02*
D03*
X86024Y42913D02*
D03*
Y43504D02*
D03*
X95079Y22638D02*
D03*
X92333Y20866D02*
D03*
X92992Y25000D02*
D03*
X92323D02*
D03*
X93701D02*
D03*
X95669Y22638D02*
D03*
X95079Y23228D02*
D03*
X95669D02*
D03*
X96260Y22638D02*
D03*
X96850D02*
D03*
Y23228D02*
D03*
X96260D02*
D03*
X83465Y31299D02*
D03*
X82874D02*
D03*
X82283D02*
D03*
X81693D02*
D03*
X83465Y32480D02*
D03*
Y31890D02*
D03*
X82874D02*
D03*
Y32480D02*
D03*
X82283D02*
D03*
Y31890D02*
D03*
X81693D02*
D03*
Y32480D02*
D03*
X26939Y31890D02*
D03*
X51772Y21063D02*
D03*
X61001Y24336D02*
D03*
X97597Y17520D02*
D03*
X83465Y51968D02*
D03*
X83858Y50787D02*
D03*
X83071D02*
D03*
X85039Y50000D02*
D03*
X84252Y49606D02*
D03*
X83465D02*
D03*
X82677D02*
D03*
X81890Y50000D02*
D03*
X85433Y50787D02*
D03*
Y51575D02*
D03*
Y52362D02*
D03*
X84646Y50787D02*
D03*
Y51575D02*
D03*
Y52362D02*
D03*
X81496Y50787D02*
D03*
X82283D02*
D03*
Y51575D02*
D03*
Y52362D02*
D03*
X81496Y51575D02*
D03*
Y52362D02*
D03*
Y53150D02*
D03*
X82283D02*
D03*
X83071D02*
D03*
X83858D02*
D03*
X84646D02*
D03*
X85433D02*
D03*
Y53937D02*
D03*
X84646D02*
D03*
X83858D02*
D03*
X83071D02*
D03*
X82283D02*
D03*
X81496D02*
D03*
Y54724D02*
D03*
X82283D02*
D03*
X83071D02*
D03*
X83858D02*
D03*
X84646D02*
D03*
X85433D02*
D03*
Y55512D02*
D03*
X84646D02*
D03*
X83858D02*
D03*
X83071D02*
D03*
X82283D02*
D03*
X81496D02*
D03*
X75984Y47244D02*
D03*
X75197D02*
D03*
X74409D02*
D03*
X73622D02*
D03*
X72835D02*
D03*
X72047D02*
D03*
Y48032D02*
D03*
X72835D02*
D03*
X73622D02*
D03*
X74409D02*
D03*
X75197D02*
D03*
X75984D02*
D03*
Y48819D02*
D03*
X75197D02*
D03*
X74409D02*
D03*
X73622D02*
D03*
X72835D02*
D03*
X72047D02*
D03*
Y49606D02*
D03*
X72835D02*
D03*
X73622D02*
D03*
X74409D02*
D03*
X75197D02*
D03*
X75984D02*
D03*
Y50394D02*
D03*
X75197D02*
D03*
X74409D02*
D03*
X73622D02*
D03*
X72835D02*
D03*
X72047D02*
D03*
X72244Y30118D02*
D03*
X10079Y23319D02*
D03*
Y20957D02*
D03*
Y18594D02*
D03*
Y16232D02*
D03*
D161*
X32980Y32874D02*
D03*
D162*
X66339Y26575D02*
D03*
X63976Y26673D02*
D03*
X59055Y30118D02*
D03*
X66929Y25787D02*
D03*
X79921Y19882D02*
D03*
X79528D02*
D03*
X77165Y29724D02*
D03*
X78740Y26575D02*
D03*
X58465Y21260D02*
D03*
X60630Y25787D02*
D03*
X61024D02*
D03*
X21457Y17913D02*
D03*
X22047D02*
D03*
X22638D02*
D03*
Y17323D02*
D03*
X22047D02*
D03*
X21457D02*
D03*
X60443Y38396D02*
D03*
X61216Y38391D02*
D03*
X44094Y26969D02*
D03*
X44685D02*
D03*
X45276D02*
D03*
Y27559D02*
D03*
X44685D02*
D03*
X44094D02*
D03*
X21457Y14961D02*
D03*
X22047D02*
D03*
X22638D02*
D03*
X21457Y10433D02*
D03*
X22047D02*
D03*
X22638D02*
D03*
X22638Y11024D02*
D03*
X22047D02*
D03*
X21457D02*
D03*
X22638Y14370D02*
D03*
X22047D02*
D03*
X21457D02*
D03*
X41545Y27362D02*
D03*
X60039Y25319D02*
D03*
X88583Y45866D02*
D03*
Y46457D02*
D03*
X44685Y7874D02*
D03*
X40945Y6496D02*
D03*
X39764Y32087D02*
D03*
X40157D02*
D03*
X40551D02*
D03*
Y31496D02*
D03*
X40157D02*
D03*
X39764D02*
D03*
X40551Y30906D02*
D03*
X39764D02*
D03*
X40157D02*
D03*
X94488Y42126D02*
D03*
Y42520D02*
D03*
Y42913D02*
D03*
X93898D02*
D03*
Y42520D02*
D03*
Y42085D02*
D03*
X55709Y25984D02*
D03*
X56102D02*
D03*
X57480Y26575D02*
D03*
Y26181D02*
D03*
Y25787D02*
D03*
X58661Y20276D02*
D03*
X35433Y31890D02*
D03*
X35039Y31545D02*
D03*
X33268Y31102D02*
D03*
Y31496D02*
D03*
Y31890D02*
D03*
X83858Y28543D02*
D03*
Y28937D02*
D03*
Y29331D02*
D03*
X84055Y29921D02*
D03*
X85039Y29331D02*
D03*
X82087Y28937D02*
D03*
X12008Y11417D02*
D03*
X11614D02*
D03*
Y11024D02*
D03*
X12008D02*
D03*
X82283Y22835D02*
D03*
Y23228D02*
D03*
X75394Y24803D02*
D03*
Y24409D02*
D03*
X84252Y22835D02*
D03*
Y23228D02*
D03*
X80315Y19882D02*
D03*
X56648Y22967D02*
D03*
X66535Y19488D02*
D03*
X49606Y33579D02*
D03*
X57874Y30118D02*
D03*
X56693D02*
D03*
X55512D02*
D03*
X86220Y45472D02*
D03*
X82169Y20174D02*
D03*
X85827Y21850D02*
D03*
X87992Y25591D02*
D03*
X58858Y23425D02*
D03*
X90157Y18898D02*
D03*
X100787Y18701D02*
D03*
X79921Y22047D02*
D03*
X59252Y19488D02*
D03*
X57234Y23819D02*
D03*
X30108Y26969D02*
D03*
X63501Y26296D02*
D03*
X89567Y16929D02*
D03*
X83850Y17410D02*
D03*
X68110Y25787D02*
D03*
X67913Y28740D02*
D03*
X103543Y19685D02*
D03*
X92520Y17717D02*
D03*
X93541Y18022D02*
D03*
X15374Y12875D02*
D03*
X11588Y12874D02*
D03*
X12214Y21870D02*
D03*
X62598Y38386D02*
D03*
X74803Y39567D02*
D03*
X72825D02*
D03*
X75591Y48425D02*
D03*
Y49213D02*
D03*
X74803D02*
D03*
Y48425D02*
D03*
X74016D02*
D03*
Y49213D02*
D03*
X73228D02*
D03*
Y48425D02*
D03*
X72441D02*
D03*
Y49213D02*
D03*
X75020Y23622D02*
D03*
X13432Y17733D02*
D03*
Y20095D02*
D03*
X12214Y14941D02*
D03*
X21063Y26378D02*
D03*
X23372Y29778D02*
D03*
X24606Y28937D02*
D03*
X67126Y22835D02*
D03*
X66732Y24206D02*
D03*
X63432Y20863D02*
D03*
X65950Y20865D02*
D03*
X61119Y20843D02*
D03*
X58858Y24803D02*
D03*
X84252Y23622D02*
D03*
X94094Y16732D02*
D03*
X93307Y16732D02*
D03*
X83071Y20479D02*
D03*
X82693Y22835D02*
D03*
X81890D02*
D03*
X82677Y24416D02*
D03*
X81890Y24409D02*
D03*
X76772Y23612D02*
D03*
X78543Y24409D02*
D03*
X77565Y26378D02*
D03*
X83268Y28543D02*
D03*
X77565Y27165D02*
D03*
X82480Y29471D02*
D03*
X81611Y29474D02*
D03*
D163*
X121618Y44146D02*
D03*
X121224Y44016D02*
D03*
X120701D02*
D03*
X120177D02*
D03*
X119654D02*
D03*
X119256Y44146D02*
D03*
X118941Y44390D02*
D03*
Y44803D02*
D03*
X119197Y45157D02*
D03*
X119654Y45276D02*
D03*
X120177D02*
D03*
X120701D02*
D03*
X121224D02*
D03*
X121618Y45157D02*
D03*
X125870Y44803D02*
D03*
Y44390D02*
D03*
X125555Y44146D02*
D03*
X125161Y44016D02*
D03*
X124638D02*
D03*
X124114D02*
D03*
X123591D02*
D03*
X123193Y44146D02*
D03*
X123134Y45157D02*
D03*
X123591Y45276D02*
D03*
X124114D02*
D03*
X124638D02*
D03*
X125161D02*
D03*
X125555Y45157D02*
D03*
X114331Y17008D02*
D03*
X114449Y17402D02*
D03*
Y17925D02*
D03*
Y18449D02*
D03*
Y18972D02*
D03*
X114331Y19429D02*
D03*
X113319Y19370D02*
D03*
X113189Y18972D02*
D03*
Y18449D02*
D03*
Y17925D02*
D03*
Y17402D02*
D03*
X113319Y17008D02*
D03*
X113563Y16693D02*
D03*
X113976D02*
D03*
X114331Y20945D02*
D03*
X114449Y21339D02*
D03*
Y21862D02*
D03*
Y22386D02*
D03*
Y22909D02*
D03*
X114331Y23366D02*
D03*
X113976Y23622D02*
D03*
X113563D02*
D03*
X113319Y23307D02*
D03*
X113189Y22909D02*
D03*
Y22386D02*
D03*
Y21862D02*
D03*
Y21339D02*
D03*
X113319Y20945D02*
D03*
X72244Y23218D02*
D03*
X75079Y35433D02*
D03*
X72244Y26969D02*
D03*
X68701Y36614D02*
D03*
X70659Y36417D02*
D03*
D164*
X96575Y25000D02*
D03*
X94370D02*
D03*
X40079Y30906D02*
D03*
X37874D02*
D03*
X91457Y25000D02*
D03*
X89252D02*
D03*
X19764Y29724D02*
D03*
X21969D02*
D03*
X30197Y26969D02*
D03*
X32402D02*
D03*
D165*
X39291Y26378D02*
D03*
X38386D02*
D03*
X37480D02*
D03*
D166*
X38386Y28799D02*
D03*
D167*
X53661Y27559D02*
D03*
X52244D02*
D03*
X52244Y26181D02*
D03*
X53661D02*
D03*
X75079Y35433D02*
D03*
X76496D02*
D03*
X104843Y23425D02*
D03*
X103425D02*
D03*
X86496Y19094D02*
D03*
X87913D02*
D03*
X89252Y20866D02*
D03*
X90669D02*
D03*
D168*
X26939Y32795D02*
D03*
Y31890D02*
D03*
Y30984D02*
D03*
D169*
X24636Y31890D02*
D03*
D170*
X37874Y33150D02*
X38720Y33996D01*
X43355D01*
X44201Y34843D01*
X35000Y23819D02*
Y30276D01*
X35630Y30906D01*
X44201Y34843D02*
X61811D01*
X62598Y35630D01*
X37874Y30906D02*
Y33150D01*
X44488Y34252D02*
X62008D01*
X63583Y35827D02*
Y37598D01*
X62008Y34252D02*
X63583Y35827D01*
X62598Y35630D02*
Y38386D01*
X43701Y33465D02*
X44488Y34252D01*
X43701Y30097D02*
Y33465D01*
X46850Y28797D02*
Y29528D01*
X43701Y30097D02*
X43877Y29921D01*
X46457D01*
X46850Y29528D01*
X35630Y30906D02*
X37874D01*
M02*
