G04*
G04 #@! TF.GenerationSoftware,Altium Limited,Altium Designer,20.2.6 (244)*
G04*
G04 Layer_Color=255*
%FSLAX24Y24*%
%MOIN*%
G70*
G04*
G04 #@! TF.SameCoordinates,8AECF8CF-BE68-462B-8B6A-8B8B687A0D7D*
G04*
G04*
G04 #@! TF.FilePolarity,Positive*
G04*
G01*
G75*
%ADD22C,0.0472*%
%ADD23R,0.0800X0.0600*%
%ADD24R,0.0492X0.0276*%
%ADD25R,0.1102X0.0630*%
%ADD26R,0.0433X0.0866*%
%ADD27R,0.0276X0.0492*%
%ADD28R,0.0600X0.0800*%
G04:AMPARAMS|DCode=29|XSize=25.6mil|YSize=47.2mil|CornerRadius=1.9mil|HoleSize=0mil|Usage=FLASHONLY|Rotation=0.000|XOffset=0mil|YOffset=0mil|HoleType=Round|Shape=RoundedRectangle|*
%AMROUNDEDRECTD29*
21,1,0.0256,0.0434,0,0,0.0*
21,1,0.0218,0.0472,0,0,0.0*
1,1,0.0038,0.0109,-0.0217*
1,1,0.0038,-0.0109,-0.0217*
1,1,0.0038,-0.0109,0.0217*
1,1,0.0038,0.0109,0.0217*
%
%ADD29ROUNDEDRECTD29*%
%ADD30R,0.0472X0.0433*%
%ADD31R,0.2126X0.1142*%
%ADD32R,0.0787X0.0965*%
%ADD33R,0.0236X0.0394*%
%ADD34R,0.0335X0.0630*%
%ADD35R,0.0630X0.0335*%
%ADD36R,0.0400X0.0600*%
%ADD37R,0.0551X0.0591*%
%ADD38R,0.0600X0.0400*%
%ADD39R,0.0630X0.1102*%
%ADD40R,0.0394X0.0236*%
%ADD41R,0.0433X0.0472*%
%ADD42O,0.0571X0.0236*%
%ADD43R,0.0354X0.0315*%
%ADD44R,0.0512X0.0591*%
%ADD45R,0.0787X0.0512*%
%ADD46R,0.0787X0.0787*%
%ADD47R,0.0315X0.0354*%
%ADD48O,0.0177X0.0591*%
G04:AMPARAMS|DCode=49|XSize=25.6mil|YSize=47.2mil|CornerRadius=1.9mil|HoleSize=0mil|Usage=FLASHONLY|Rotation=270.000|XOffset=0mil|YOffset=0mil|HoleType=Round|Shape=RoundedRectangle|*
%AMROUNDEDRECTD49*
21,1,0.0256,0.0434,0,0,270.0*
21,1,0.0218,0.0472,0,0,270.0*
1,1,0.0038,-0.0217,-0.0109*
1,1,0.0038,-0.0217,0.0109*
1,1,0.0038,0.0217,0.0109*
1,1,0.0038,0.0217,-0.0109*
%
%ADD49ROUNDEDRECTD49*%
%ADD50O,0.0236X0.0571*%
%ADD51R,0.0157X0.0315*%
%ADD52R,0.0630X0.1378*%
%ADD53R,0.0394X0.1260*%
%ADD54R,0.1260X0.0394*%
%ADD90C,0.0630*%
%ADD91C,0.1102*%
%ADD106R,0.0630X0.0630*%
%ADD113C,0.0984*%
%ADD131R,0.0591X0.0591*%
%ADD132C,0.0591*%
%ADD133C,0.1063*%
%ADD134R,0.1063X0.1063*%
G04:AMPARAMS|DCode=135|XSize=551.2mil|YSize=126mil|CornerRadius=31.5mil|HoleSize=0mil|Usage=FLASHONLY|Rotation=270.000|XOffset=0mil|YOffset=0mil|HoleType=Round|Shape=RoundedRectangle|*
%AMROUNDEDRECTD135*
21,1,0.5512,0.0630,0,0,270.0*
21,1,0.4882,0.1260,0,0,270.0*
1,1,0.0630,-0.0315,-0.2441*
1,1,0.0630,-0.0315,0.2441*
1,1,0.0630,0.0315,0.2441*
1,1,0.0630,0.0315,-0.2441*
%
%ADD135ROUNDEDRECTD135*%
G04:AMPARAMS|DCode=136|XSize=354.3mil|YSize=126mil|CornerRadius=31.5mil|HoleSize=0mil|Usage=FLASHONLY|Rotation=270.000|XOffset=0mil|YOffset=0mil|HoleType=Round|Shape=RoundedRectangle|*
%AMROUNDEDRECTD136*
21,1,0.3543,0.0630,0,0,270.0*
21,1,0.2913,0.1260,0,0,270.0*
1,1,0.0630,-0.0315,-0.1457*
1,1,0.0630,-0.0315,0.1457*
1,1,0.0630,0.0315,0.1457*
1,1,0.0630,0.0315,-0.1457*
%
%ADD136ROUNDEDRECTD136*%
G04:AMPARAMS|DCode=137|XSize=354.3mil|YSize=236.2mil|CornerRadius=59.1mil|HoleSize=0mil|Usage=FLASHONLY|Rotation=180.000|XOffset=0mil|YOffset=0mil|HoleType=Round|Shape=RoundedRectangle|*
%AMROUNDEDRECTD137*
21,1,0.3543,0.1181,0,0,180.0*
21,1,0.2362,0.2362,0,0,180.0*
1,1,0.1181,-0.1181,0.0591*
1,1,0.1181,0.1181,0.0591*
1,1,0.1181,0.1181,-0.0591*
1,1,0.1181,-0.1181,-0.0591*
%
%ADD137ROUNDEDRECTD137*%
G04:AMPARAMS|DCode=138|XSize=59.1mil|YSize=59.1mil|CornerRadius=14.8mil|HoleSize=0mil|Usage=FLASHONLY|Rotation=180.000|XOffset=0mil|YOffset=0mil|HoleType=Round|Shape=RoundedRectangle|*
%AMROUNDEDRECTD138*
21,1,0.0591,0.0295,0,0,180.0*
21,1,0.0295,0.0591,0,0,180.0*
1,1,0.0295,-0.0148,0.0148*
1,1,0.0295,0.0148,0.0148*
1,1,0.0295,0.0148,-0.0148*
1,1,0.0295,-0.0148,-0.0148*
%
%ADD138ROUNDEDRECTD138*%
G04:AMPARAMS|DCode=139|XSize=59.1mil|YSize=59.1mil|CornerRadius=14.8mil|HoleSize=0mil|Usage=FLASHONLY|Rotation=90.000|XOffset=0mil|YOffset=0mil|HoleType=Round|Shape=RoundedRectangle|*
%AMROUNDEDRECTD139*
21,1,0.0591,0.0295,0,0,90.0*
21,1,0.0295,0.0591,0,0,90.0*
1,1,0.0295,0.0148,0.0148*
1,1,0.0295,0.0148,-0.0148*
1,1,0.0295,-0.0148,-0.0148*
1,1,0.0295,-0.0148,0.0148*
%
%ADD139ROUNDEDRECTD139*%
G04:AMPARAMS|DCode=140|XSize=354.3mil|YSize=236.2mil|CornerRadius=59.1mil|HoleSize=0mil|Usage=FLASHONLY|Rotation=90.000|XOffset=0mil|YOffset=0mil|HoleType=Round|Shape=RoundedRectangle|*
%AMROUNDEDRECTD140*
21,1,0.3543,0.1181,0,0,90.0*
21,1,0.2362,0.2362,0,0,90.0*
1,1,0.1181,0.0591,0.1181*
1,1,0.1181,0.0591,-0.1181*
1,1,0.1181,-0.0591,-0.1181*
1,1,0.1181,-0.0591,0.1181*
%
%ADD140ROUNDEDRECTD140*%
%ADD141C,0.1732*%
%ADD142C,0.1378*%
%ADD143C,0.1496*%
G04:AMPARAMS|DCode=144|XSize=196.9mil|YSize=196.9mil|CornerRadius=49.2mil|HoleSize=0mil|Usage=FLASHONLY|Rotation=90.000|XOffset=0mil|YOffset=0mil|HoleType=Round|Shape=RoundedRectangle|*
%AMROUNDEDRECTD144*
21,1,0.1969,0.0984,0,0,90.0*
21,1,0.0984,0.1969,0,0,90.0*
1,1,0.0984,0.0492,0.0492*
1,1,0.0984,0.0492,-0.0492*
1,1,0.0984,-0.0492,-0.0492*
1,1,0.0984,-0.0492,0.0492*
%
%ADD144ROUNDEDRECTD144*%
%ADD145C,0.0650*%
%ADD146R,0.0591X0.0591*%
%ADD147C,0.0787*%
G04:AMPARAMS|DCode=148|XSize=196.9mil|YSize=196.9mil|CornerRadius=49.2mil|HoleSize=0mil|Usage=FLASHONLY|Rotation=0.000|XOffset=0mil|YOffset=0mil|HoleType=Round|Shape=RoundedRectangle|*
%AMROUNDEDRECTD148*
21,1,0.1969,0.0984,0,0,0.0*
21,1,0.0984,0.1969,0,0,0.0*
1,1,0.0984,0.0492,-0.0492*
1,1,0.0984,-0.0492,-0.0492*
1,1,0.0984,-0.0492,0.0492*
1,1,0.0984,0.0492,0.0492*
%
%ADD148ROUNDEDRECTD148*%
G04:AMPARAMS|DCode=149|XSize=315mil|YSize=315mil|CornerRadius=78.7mil|HoleSize=0mil|Usage=FLASHONLY|Rotation=90.000|XOffset=0mil|YOffset=0mil|HoleType=Round|Shape=RoundedRectangle|*
%AMROUNDEDRECTD149*
21,1,0.3150,0.1575,0,0,90.0*
21,1,0.1575,0.3150,0,0,90.0*
1,1,0.1575,0.0787,0.0787*
1,1,0.1575,0.0787,-0.0787*
1,1,0.1575,-0.0787,-0.0787*
1,1,0.1575,-0.0787,0.0787*
%
%ADD149ROUNDEDRECTD149*%
%ADD150C,0.0866*%
%ADD151C,0.0945*%
G04:AMPARAMS|DCode=152|XSize=157.5mil|YSize=157.5mil|CornerRadius=39.4mil|HoleSize=0mil|Usage=FLASHONLY|Rotation=180.000|XOffset=0mil|YOffset=0mil|HoleType=Round|Shape=RoundedRectangle|*
%AMROUNDEDRECTD152*
21,1,0.1575,0.0787,0,0,180.0*
21,1,0.0787,0.1575,0,0,180.0*
1,1,0.0787,-0.0394,0.0394*
1,1,0.0787,0.0394,0.0394*
1,1,0.0787,0.0394,-0.0394*
1,1,0.0787,-0.0394,-0.0394*
%
%ADD152ROUNDEDRECTD152*%
G04:AMPARAMS|DCode=153|XSize=157.5mil|YSize=126mil|CornerRadius=31.5mil|HoleSize=0mil|Usage=FLASHONLY|Rotation=90.000|XOffset=0mil|YOffset=0mil|HoleType=Round|Shape=RoundedRectangle|*
%AMROUNDEDRECTD153*
21,1,0.1575,0.0630,0,0,90.0*
21,1,0.0945,0.1260,0,0,90.0*
1,1,0.0630,0.0315,0.0472*
1,1,0.0630,0.0315,-0.0472*
1,1,0.0630,-0.0315,-0.0472*
1,1,0.0630,-0.0315,0.0472*
%
%ADD153ROUNDEDRECTD153*%
%ADD154C,0.0709*%
%ADD155R,0.0709X0.0709*%
%ADD156R,0.0709X0.0709*%
%ADD157C,0.1181*%
%ADD158C,0.1260*%
G04:AMPARAMS|DCode=159|XSize=118.1mil|YSize=118.1mil|CornerRadius=29.5mil|HoleSize=0mil|Usage=FLASHONLY|Rotation=0.000|XOffset=0mil|YOffset=0mil|HoleType=Round|Shape=RoundedRectangle|*
%AMROUNDEDRECTD159*
21,1,0.1181,0.0591,0,0,0.0*
21,1,0.0591,0.1181,0,0,0.0*
1,1,0.0591,0.0295,-0.0295*
1,1,0.0591,-0.0295,-0.0295*
1,1,0.0591,-0.0295,0.0295*
1,1,0.0591,0.0295,0.0295*
%
%ADD159ROUNDEDRECTD159*%
%ADD160C,0.0394*%
%ADD161R,0.0394X0.0394*%
D22*
X3543Y13780D02*
D03*
X13431Y13963D02*
D03*
X3543Y14764D02*
D03*
X12008Y17126D02*
D03*
X3613Y20941D02*
D03*
X3117Y23314D02*
D03*
X84252Y46260D02*
D03*
X101378Y17323D02*
D03*
X102693Y21176D02*
D03*
X35827Y28543D02*
D03*
X18307Y26378D02*
D03*
X23373Y31444D02*
D03*
X35433Y787D02*
D03*
X87992Y16535D02*
D03*
X104724Y16929D02*
D03*
X93504Y45276D02*
D03*
X86024Y47835D02*
D03*
X99409Y42717D02*
D03*
X99016Y39567D02*
D03*
X47441Y17323D02*
D03*
X54921Y28150D02*
D03*
X60039Y30315D02*
D03*
X54921Y27165D02*
D03*
X60039Y28937D02*
D03*
X79528Y20472D02*
D03*
X77874Y20492D02*
D03*
X75984Y22638D02*
D03*
X72441Y31102D02*
D03*
X75787Y27953D02*
D03*
X73622Y31102D02*
D03*
X73228Y25197D02*
D03*
X84055Y26575D02*
D03*
X76181Y33071D02*
D03*
X75394Y41732D02*
D03*
X92913Y50591D02*
D03*
X95472Y37008D02*
D03*
X65551Y35433D02*
D03*
X74409Y27559D02*
D03*
X45866Y39370D02*
D03*
D23*
X62598Y21416D02*
D03*
Y20316D02*
D03*
X93898Y42085D02*
D03*
Y40985D02*
D03*
X89567Y24369D02*
D03*
Y23269D02*
D03*
X88189D02*
D03*
Y24369D02*
D03*
X85866Y18117D02*
D03*
Y17017D02*
D03*
X82333D02*
D03*
Y18117D02*
D03*
X93898Y47204D02*
D03*
Y46104D02*
D03*
X38189Y6537D02*
D03*
Y7637D02*
D03*
D24*
X77165Y29724D02*
D03*
Y30512D02*
D03*
X44094Y5512D02*
D03*
Y6299D02*
D03*
X44685Y7087D02*
D03*
Y7874D02*
D03*
X100787Y18701D02*
D03*
Y17913D02*
D03*
Y19879D02*
D03*
Y19091D02*
D03*
X86770Y17014D02*
D03*
Y17802D02*
D03*
X27756Y31102D02*
D03*
Y31890D02*
D03*
X51772Y20276D02*
D03*
Y21063D02*
D03*
X67520Y24213D02*
D03*
Y25000D02*
D03*
X66339Y26575D02*
D03*
Y27362D02*
D03*
X66732Y24213D02*
D03*
Y25000D02*
D03*
X58858Y23425D02*
D03*
Y24213D02*
D03*
X58071D02*
D03*
Y23425D02*
D03*
X56102Y25787D02*
D03*
Y25000D02*
D03*
X58071Y22850D02*
D03*
Y22063D02*
D03*
X72441Y42717D02*
D03*
Y43504D02*
D03*
X73228D02*
D03*
Y42717D02*
D03*
X71654Y43504D02*
D03*
Y42717D02*
D03*
X16929Y18169D02*
D03*
Y18957D02*
D03*
X15354Y18169D02*
D03*
Y18957D02*
D03*
X16142Y18169D02*
D03*
Y18957D02*
D03*
X15354Y20472D02*
D03*
Y19685D02*
D03*
X16142D02*
D03*
Y20472D02*
D03*
X15354Y14567D02*
D03*
Y15354D02*
D03*
X76772Y23622D02*
D03*
Y24409D02*
D03*
X81890Y23622D02*
D03*
Y24409D02*
D03*
X84252Y23622D02*
D03*
Y24409D02*
D03*
X83465Y23622D02*
D03*
Y24409D02*
D03*
X81102D02*
D03*
Y23622D02*
D03*
X77756Y23616D02*
D03*
Y24403D02*
D03*
X76378Y30512D02*
D03*
Y29724D02*
D03*
X82677Y24409D02*
D03*
Y23622D02*
D03*
X28740Y31890D02*
D03*
Y31102D02*
D03*
D25*
X80887Y32474D02*
D03*
X79194D02*
D03*
D26*
X22760Y19331D02*
D03*
X21760D02*
D03*
X20760D02*
D03*
X19760D02*
D03*
Y22795D02*
D03*
X21760D02*
D03*
X22760D02*
D03*
X20760D02*
D03*
D27*
X19291Y17913D02*
D03*
X20079D02*
D03*
X19291Y17126D02*
D03*
X20079D02*
D03*
X65676Y21734D02*
D03*
X66463D02*
D03*
X68504Y22835D02*
D03*
X67717D02*
D03*
X58858Y20276D02*
D03*
X58071D02*
D03*
X56890D02*
D03*
X56102D02*
D03*
X60846Y22313D02*
D03*
X60059D02*
D03*
X11614Y18504D02*
D03*
X10827D02*
D03*
X86220Y45472D02*
D03*
X85433D02*
D03*
X86220Y46260D02*
D03*
X85433D02*
D03*
X11574Y17520D02*
D03*
X10786D02*
D03*
Y19882D02*
D03*
X11574D02*
D03*
Y8150D02*
D03*
X10786D02*
D03*
X11574Y10507D02*
D03*
X10786D02*
D03*
Y12875D02*
D03*
X11574D02*
D03*
X4724Y12992D02*
D03*
X5512D02*
D03*
X4724Y10630D02*
D03*
X5512D02*
D03*
X4724Y8268D02*
D03*
X5512D02*
D03*
X4724Y20941D02*
D03*
X5512D02*
D03*
X4724Y16235D02*
D03*
X5512D02*
D03*
X4724Y18580D02*
D03*
X5512D02*
D03*
X4724Y23314D02*
D03*
X5512D02*
D03*
X4724Y13780D02*
D03*
X5512D02*
D03*
X4724Y11417D02*
D03*
X5512D02*
D03*
Y9055D02*
D03*
X4724D02*
D03*
X11614Y20866D02*
D03*
X10827D02*
D03*
X74803Y28740D02*
D03*
X75591D02*
D03*
X82693Y22835D02*
D03*
X83480D02*
D03*
X81102D02*
D03*
X81890D02*
D03*
X42795Y7303D02*
D03*
X43583D02*
D03*
X17323Y29528D02*
D03*
X18110D02*
D03*
Y28740D02*
D03*
X17323D02*
D03*
X21063Y27953D02*
D03*
X20276D02*
D03*
X22638D02*
D03*
X21850D02*
D03*
X32480Y31890D02*
D03*
X33268D02*
D03*
X25394Y30118D02*
D03*
X24606D02*
D03*
X25394Y28937D02*
D03*
X24606D02*
D03*
X25394Y30906D02*
D03*
X24606D02*
D03*
X21850Y26378D02*
D03*
X21063D02*
D03*
D28*
X97597Y17520D02*
D03*
X96497D02*
D03*
X86655Y22047D02*
D03*
X87755D02*
D03*
X86655Y21063D02*
D03*
X87755D02*
D03*
X85867Y19685D02*
D03*
X86967D02*
D03*
X88936Y19685D02*
D03*
X87836D02*
D03*
X79765Y30512D02*
D03*
X80865D02*
D03*
X40314Y15354D02*
D03*
X39214D02*
D03*
X40314Y14370D02*
D03*
X39214D02*
D03*
D29*
X89193Y21220D02*
D03*
X88819Y22244D02*
D03*
X89567D02*
D03*
D30*
X55512Y29744D02*
D03*
Y28917D02*
D03*
X56693Y29744D02*
D03*
Y28917D02*
D03*
X57874Y29744D02*
D03*
Y28917D02*
D03*
X59055Y29744D02*
D03*
Y28917D02*
D03*
D31*
X39764Y12972D02*
D03*
Y9075D02*
D03*
D32*
X47244Y44016D02*
D03*
Y42598D02*
D03*
X48819D02*
D03*
Y44016D02*
D03*
D33*
X65532Y27313D02*
D03*
X64783D02*
D03*
X65157Y26230D02*
D03*
D34*
X91132Y22835D02*
D03*
X92333D02*
D03*
Y20866D02*
D03*
X91132D02*
D03*
X92333Y21850D02*
D03*
X91132D02*
D03*
X71831Y44882D02*
D03*
X73032D02*
D03*
X74203Y45669D02*
D03*
X75404D02*
D03*
X74203Y44685D02*
D03*
X75404D02*
D03*
X11802Y31890D02*
D03*
X10601D02*
D03*
X11802Y31066D02*
D03*
X10601D02*
D03*
X76762Y25394D02*
D03*
X77963D02*
D03*
X30108Y26969D02*
D03*
X31309D02*
D03*
X34439Y32874D02*
D03*
X35640D02*
D03*
Y31890D02*
D03*
X34439D02*
D03*
D35*
X103150Y17904D02*
D03*
Y19104D02*
D03*
X103937Y17904D02*
D03*
Y19104D02*
D03*
X102362Y17904D02*
D03*
Y19104D02*
D03*
X5315Y6506D02*
D03*
Y5305D02*
D03*
X4331Y6506D02*
D03*
Y5305D02*
D03*
X62598Y39577D02*
D03*
Y38376D02*
D03*
X63583Y39577D02*
D03*
Y38376D02*
D03*
X77953Y30925D02*
D03*
Y29724D02*
D03*
X93307Y23809D02*
D03*
Y25010D02*
D03*
X97047Y20069D02*
D03*
Y21270D02*
D03*
X96260Y20069D02*
D03*
Y21270D02*
D03*
X92520Y23809D02*
D03*
Y25010D02*
D03*
D36*
X35243Y30709D02*
D03*
X34443D02*
D03*
X19585Y27953D02*
D03*
X18785D02*
D03*
X19577Y27176D02*
D03*
X18777D02*
D03*
X94101Y16732D02*
D03*
X93301D02*
D03*
X80038Y29402D02*
D03*
X80838D02*
D03*
X77565Y26378D02*
D03*
X76765D02*
D03*
X77565Y27165D02*
D03*
X76765D02*
D03*
X83865Y20472D02*
D03*
X83065D02*
D03*
X80702D02*
D03*
X81502D02*
D03*
X42789Y8878D02*
D03*
X43589D02*
D03*
X21844Y27165D02*
D03*
X22644D02*
D03*
X20269D02*
D03*
X21069D02*
D03*
X42789Y8091D02*
D03*
X43589D02*
D03*
D37*
X71850Y36417D02*
D03*
X70669D02*
D03*
X71850Y39567D02*
D03*
X70669D02*
D03*
X74016D02*
D03*
X72835D02*
D03*
D38*
X89961Y47041D02*
D03*
Y47841D02*
D03*
X88583Y47041D02*
D03*
Y47841D02*
D03*
X87795Y47041D02*
D03*
Y47841D02*
D03*
X93542Y18840D02*
D03*
Y18040D02*
D03*
X94541Y18840D02*
D03*
Y18040D02*
D03*
X58071Y24994D02*
D03*
Y25794D02*
D03*
X57283D02*
D03*
Y24994D02*
D03*
X29528Y31896D02*
D03*
Y31096D02*
D03*
X26969Y31896D02*
D03*
Y31096D02*
D03*
X81611Y29474D02*
D03*
Y30274D02*
D03*
X83263Y29470D02*
D03*
Y30270D02*
D03*
X78740Y29718D02*
D03*
Y30518D02*
D03*
X78543Y24409D02*
D03*
Y23609D02*
D03*
X82480Y29471D02*
D03*
Y30271D02*
D03*
X75591Y29718D02*
D03*
Y30518D02*
D03*
X96260Y50781D02*
D03*
Y51581D02*
D03*
X100571Y36837D02*
D03*
Y36037D02*
D03*
X93701Y38195D02*
D03*
Y37395D02*
D03*
X96705Y44107D02*
D03*
Y43307D02*
D03*
X88976Y45085D02*
D03*
Y44285D02*
D03*
X89764Y45085D02*
D03*
Y44285D02*
D03*
X88386Y51581D02*
D03*
Y50781D02*
D03*
X92717Y36620D02*
D03*
Y35820D02*
D03*
X99409Y36817D02*
D03*
Y36017D02*
D03*
X30906Y27946D02*
D03*
Y28746D02*
D03*
X99016Y40348D02*
D03*
Y41148D02*
D03*
X97835Y40348D02*
D03*
Y41148D02*
D03*
X98622Y44101D02*
D03*
Y43301D02*
D03*
X100000Y40348D02*
D03*
Y41148D02*
D03*
X88189Y45085D02*
D03*
Y44285D02*
D03*
X94882Y40939D02*
D03*
Y41739D02*
D03*
X92913Y46450D02*
D03*
Y47250D02*
D03*
X94979Y50017D02*
D03*
Y49217D02*
D03*
X97244Y51581D02*
D03*
Y50781D02*
D03*
X100591Y38392D02*
D03*
Y37592D02*
D03*
X97638Y44101D02*
D03*
Y43301D02*
D03*
X89370Y51581D02*
D03*
Y50781D02*
D03*
X87598Y49809D02*
D03*
Y49009D02*
D03*
X91732Y36620D02*
D03*
Y35820D02*
D03*
X30118Y27946D02*
D03*
Y28746D02*
D03*
D39*
X53543Y21909D02*
D03*
Y20217D02*
D03*
D40*
X14518Y14587D02*
D03*
Y15335D02*
D03*
X13435Y14961D02*
D03*
X57234Y23819D02*
D03*
X56152Y23445D02*
D03*
Y24193D02*
D03*
X56841Y21654D02*
D03*
X55758Y21280D02*
D03*
Y22028D02*
D03*
X64518Y20492D02*
D03*
Y21240D02*
D03*
X63435Y20866D02*
D03*
X61122Y20846D02*
D03*
X60039Y20472D02*
D03*
Y21220D02*
D03*
X13435Y18484D02*
D03*
Y17736D02*
D03*
X14518Y18110D02*
D03*
Y20472D02*
D03*
X13435Y20098D02*
D03*
Y20846D02*
D03*
X82726Y21654D02*
D03*
X83809Y22028D02*
D03*
Y21280D02*
D03*
X81841Y21654D02*
D03*
X80758Y21280D02*
D03*
Y22028D02*
D03*
X39092Y7281D02*
D03*
Y6907D02*
D03*
Y6533D02*
D03*
X40174D02*
D03*
Y6907D02*
D03*
Y7281D02*
D03*
D41*
X14547Y12875D02*
D03*
X15374D02*
D03*
D42*
X64065Y22319D02*
D03*
Y22819D02*
D03*
Y23319D02*
D03*
Y23819D02*
D03*
Y24319D02*
D03*
Y24819D02*
D03*
Y25319D02*
D03*
X61919Y22319D02*
D03*
Y22819D02*
D03*
Y23319D02*
D03*
Y23819D02*
D03*
Y24319D02*
D03*
Y24819D02*
D03*
Y25319D02*
D03*
X27077Y30278D02*
D03*
Y29778D02*
D03*
Y29278D02*
D03*
Y28778D02*
D03*
X29222Y30278D02*
D03*
Y29778D02*
D03*
Y29278D02*
D03*
Y28778D02*
D03*
X21742D02*
D03*
Y29278D02*
D03*
Y29778D02*
D03*
Y30278D02*
D03*
X19596Y28778D02*
D03*
Y29278D02*
D03*
Y29778D02*
D03*
Y30278D02*
D03*
D43*
X75197Y43110D02*
D03*
X74409Y42736D02*
D03*
Y43484D02*
D03*
X12214Y21870D02*
D03*
X11426Y21496D02*
D03*
Y22244D02*
D03*
X12214Y14941D02*
D03*
X11426Y14567D02*
D03*
Y15315D02*
D03*
D44*
X10079Y22319D02*
D03*
Y23319D02*
D03*
X6457Y22319D02*
D03*
Y23319D02*
D03*
X6457Y9146D02*
D03*
Y8146D02*
D03*
X10079Y9146D02*
D03*
Y8146D02*
D03*
X6457Y18594D02*
D03*
Y17594D02*
D03*
X10079Y18594D02*
D03*
Y17594D02*
D03*
X6457Y20957D02*
D03*
Y19957D02*
D03*
X10079Y20957D02*
D03*
Y19957D02*
D03*
X6457Y16232D02*
D03*
Y15232D02*
D03*
X10079Y16232D02*
D03*
Y15232D02*
D03*
X10079Y12870D02*
D03*
Y13870D02*
D03*
X6457Y12870D02*
D03*
Y13870D02*
D03*
X10079Y10508D02*
D03*
Y11508D02*
D03*
X6457Y10508D02*
D03*
Y11508D02*
D03*
D45*
X14370Y31043D02*
D03*
Y31949D02*
D03*
D46*
X15945Y31496D02*
D03*
D47*
X75394Y24409D02*
D03*
X75768Y23622D02*
D03*
X75020D02*
D03*
D48*
X79557Y26024D02*
D03*
X79813D02*
D03*
X80069D02*
D03*
X80325D02*
D03*
X80581D02*
D03*
X80837D02*
D03*
X81093D02*
D03*
X81348D02*
D03*
X81604D02*
D03*
X81860D02*
D03*
X79557Y28307D02*
D03*
X79813D02*
D03*
X80069D02*
D03*
X80325D02*
D03*
X80581D02*
D03*
X80837D02*
D03*
X81093D02*
D03*
X81348D02*
D03*
X81604D02*
D03*
X81860D02*
D03*
D49*
X84685Y17037D02*
D03*
Y17411D02*
D03*
Y17785D02*
D03*
X83524D02*
D03*
Y17037D02*
D03*
D50*
X97207Y42411D02*
D03*
X96707D02*
D03*
X96207D02*
D03*
X95707D02*
D03*
X97207Y40266D02*
D03*
X96707D02*
D03*
X96207D02*
D03*
X95707D02*
D03*
X90785Y45778D02*
D03*
X91285D02*
D03*
X91785D02*
D03*
X92285D02*
D03*
X90785Y47923D02*
D03*
X91285D02*
D03*
X91785D02*
D03*
X92285D02*
D03*
D51*
X94990Y51565D02*
D03*
Y50659D02*
D03*
X87605Y51573D02*
D03*
Y50668D02*
D03*
X93700Y35831D02*
D03*
Y36737D02*
D03*
X101382Y36032D02*
D03*
Y36937D02*
D03*
D52*
X35630Y7520D02*
D03*
Y5315D02*
D03*
X96260Y45945D02*
D03*
Y48150D02*
D03*
X91339Y40630D02*
D03*
Y42835D02*
D03*
D53*
X49646Y36614D02*
D03*
X47205D02*
D03*
Y38386D02*
D03*
X49646D02*
D03*
Y40157D02*
D03*
X47205D02*
D03*
D54*
X51575Y51142D02*
D03*
Y53583D02*
D03*
X28740Y50433D02*
D03*
Y47992D02*
D03*
Y53583D02*
D03*
Y51142D02*
D03*
X51575Y50433D02*
D03*
Y47992D02*
D03*
D90*
X11236Y1969D02*
D03*
Y2968D02*
D03*
X12236Y1969D02*
D03*
X13236D02*
D03*
X12236Y2968D02*
D03*
X13236D02*
D03*
X14236Y1969D02*
D03*
Y2968D02*
D03*
X15236Y1969D02*
D03*
Y2968D02*
D03*
X16236Y1969D02*
D03*
Y2968D02*
D03*
X17236Y1969D02*
D03*
X10236Y2968D02*
D03*
X9236D02*
D03*
X8236D02*
D03*
X10236Y1969D02*
D03*
X9236D02*
D03*
X8236D02*
D03*
D91*
X62323Y43898D02*
D03*
X63110Y46260D02*
D03*
Y41535D02*
D03*
X67913D02*
D03*
Y46260D02*
D03*
D106*
X17236Y2968D02*
D03*
D113*
X112031Y33858D02*
D03*
X116315Y37795D02*
D03*
Y33858D02*
D03*
X114173Y35827D02*
D03*
Y33858D02*
D03*
X112031Y37795D02*
D03*
X108441Y49606D02*
D03*
X106299Y53543D02*
D03*
Y51575D02*
D03*
X104157Y53543D02*
D03*
Y49606D02*
D03*
X108441Y53543D02*
D03*
X104157Y33858D02*
D03*
X108441Y37795D02*
D03*
Y33858D02*
D03*
X106299Y35827D02*
D03*
Y33858D02*
D03*
X104157Y37795D02*
D03*
D131*
X1772Y19094D02*
D03*
D132*
Y18110D02*
D03*
Y17126D02*
D03*
Y16142D02*
D03*
X121654Y36220D02*
D03*
X122406D02*
D03*
X105394Y20157D02*
D03*
Y20909D02*
D03*
X62492Y29055D02*
D03*
X18307Y31496D02*
D03*
D133*
X22874Y6191D02*
D03*
X24433D02*
D03*
X25992D02*
D03*
X27551D02*
D03*
X29110D02*
D03*
D134*
X30669D02*
D03*
D135*
X116315Y35827D02*
D03*
X112031D02*
D03*
X108441Y51575D02*
D03*
X104157D02*
D03*
X108441Y35827D02*
D03*
X104157D02*
D03*
D136*
X114173Y34843D02*
D03*
X106299Y52559D02*
D03*
Y34843D02*
D03*
D137*
X120437Y44646D02*
D03*
X124374D02*
D03*
D138*
X123157Y36220D02*
D03*
D139*
X105394Y19406D02*
D03*
D140*
X113819Y18189D02*
D03*
Y22126D02*
D03*
D141*
X92913Y10039D02*
D03*
Y6102D02*
D03*
X59843Y10039D02*
D03*
Y6102D02*
D03*
X125984D02*
D03*
Y10039D02*
D03*
X109449Y6102D02*
D03*
Y10039D02*
D03*
X76378Y6102D02*
D03*
Y10039D02*
D03*
D142*
X91043Y7402D02*
D03*
X57972D02*
D03*
X124114D02*
D03*
X107579D02*
D03*
X74508D02*
D03*
D143*
X147244Y60630D02*
D03*
X68110Y2362D02*
D03*
X59449Y60630D02*
D03*
X147244Y2362D02*
D03*
X2362Y60630D02*
D03*
Y2362D02*
D03*
D144*
X144291Y6496D02*
D03*
Y10246D02*
D03*
X5315Y47825D02*
D03*
Y44075D02*
D03*
Y51575D02*
D03*
D145*
X52264Y37008D02*
D03*
X61122D02*
D03*
X1870D02*
D03*
X10728D02*
D03*
X37500D02*
D03*
X28642D02*
D03*
X147047Y44587D02*
D03*
Y35728D02*
D03*
Y47343D02*
D03*
Y56201D02*
D03*
X74409Y60335D02*
D03*
Y51476D02*
D03*
X16240Y37008D02*
D03*
X25098D02*
D03*
X138976Y1181D02*
D03*
Y7087D02*
D03*
X135748D02*
D03*
Y1181D02*
D03*
D146*
X63492Y29055D02*
D03*
X17307Y31496D02*
D03*
D147*
X78346Y39370D02*
D03*
Y35433D02*
D03*
X20866Y40945D02*
D03*
Y44882D02*
D03*
X43307Y36220D02*
D03*
Y40157D02*
D03*
X78346Y42126D02*
D03*
Y46063D02*
D03*
X78346Y55906D02*
D03*
Y59843D02*
D03*
X18504Y40945D02*
D03*
Y44882D02*
D03*
X40945Y40157D02*
D03*
Y36220D02*
D03*
X78346Y48819D02*
D03*
Y52756D02*
D03*
X137913Y9646D02*
D03*
Y13583D02*
D03*
X135433Y9685D02*
D03*
Y13622D02*
D03*
D148*
X47638Y49606D02*
D03*
X55512D02*
D03*
Y53543D02*
D03*
X47638D02*
D03*
X24803D02*
D03*
X32677D02*
D03*
Y49606D02*
D03*
X24803D02*
D03*
X36220D02*
D03*
X44094D02*
D03*
Y53543D02*
D03*
X36220D02*
D03*
D149*
X133622Y46063D02*
D03*
Y36220D02*
D03*
Y21693D02*
D03*
Y31535D02*
D03*
D150*
X60236Y50000D02*
D03*
X58268D02*
D03*
X60236Y53346D02*
D03*
X58268D02*
D03*
D151*
X68087Y51177D02*
D03*
X64087D02*
D03*
X21260Y47638D02*
D03*
X18307Y47244D02*
D03*
X14567Y47638D02*
D03*
X11614Y47244D02*
D03*
Y50000D02*
D03*
X14567Y50394D02*
D03*
D152*
X69587Y60177D02*
D03*
Y57177D02*
D03*
X62587Y56177D02*
D03*
X3740Y56299D02*
D03*
X1772D02*
D03*
X19882Y60630D02*
D03*
X21850D02*
D03*
X19882Y57480D02*
D03*
X21850D02*
D03*
X21850Y50000D02*
D03*
X19882D02*
D03*
X21850Y53150D02*
D03*
X19882D02*
D03*
D153*
X96283Y53543D02*
D03*
X98425D02*
D03*
X100567D02*
D03*
X88409D02*
D03*
X90551D02*
D03*
X92693D02*
D03*
Y33858D02*
D03*
X90551D02*
D03*
X88409D02*
D03*
X100567D02*
D03*
X98425D02*
D03*
X96283D02*
D03*
D154*
X147031Y30465D02*
D03*
X148032D02*
D03*
X147031Y31465D02*
D03*
X148032D02*
D03*
X147031Y33465D02*
D03*
X148032Y32465D02*
D03*
X147031D02*
D03*
X148032Y29465D02*
D03*
Y28465D02*
D03*
X147031Y29465D02*
D03*
Y28465D02*
D03*
X44339Y2937D02*
D03*
Y3937D02*
D03*
X43339Y2937D02*
D03*
Y3937D02*
D03*
X41339Y2937D02*
D03*
X42339Y3937D02*
D03*
Y2937D02*
D03*
X45339Y3937D02*
D03*
X46339D02*
D03*
X45339Y2937D02*
D03*
X46339D02*
D03*
X142669Y18717D02*
D03*
Y17717D02*
D03*
X143669Y18717D02*
D03*
Y17717D02*
D03*
X145669Y18717D02*
D03*
X144669Y17717D02*
D03*
Y18717D02*
D03*
X141669Y17717D02*
D03*
X140669D02*
D03*
X141669Y18717D02*
D03*
X140669D02*
D03*
X142669Y14780D02*
D03*
Y13780D02*
D03*
X143669Y14780D02*
D03*
Y13780D02*
D03*
X145669Y14780D02*
D03*
X144669Y13780D02*
D03*
Y14780D02*
D03*
X141669Y13780D02*
D03*
X140669D02*
D03*
X141669Y14780D02*
D03*
X140669D02*
D03*
D155*
X148032Y33465D02*
D03*
D156*
X41339Y3937D02*
D03*
X145669Y17717D02*
D03*
Y13780D02*
D03*
D157*
X9115Y59548D02*
D03*
X17973D02*
D03*
X9115Y55348D02*
D03*
X17973D02*
D03*
D158*
X9843Y43701D02*
D03*
X15354D02*
D03*
D159*
X127953Y53543D02*
D03*
X125000D02*
D03*
X122047D02*
D03*
X118110D02*
D03*
X141732D02*
D03*
X138780D02*
D03*
X135827D02*
D03*
X131890D02*
D03*
D160*
X31980Y32874D02*
D03*
X32480D02*
D03*
D161*
X32980D02*
D03*
M02*
