M48
;Layer_Color=9474304
;FILE_FORMAT=2:4
INCH,TZ
;TYPE=PLATED
T1F00S00C0.0157
T2F00S00C0.0197
T3F00S00C0.0236
T4F00S00C0.0280
T5F00S00C0.0315
T6F00S00C0.0394
T7F00S00C0.0394
T8F00S00C0.0433
T9F00S00C0.0472
T10F00S00C0.0512
T11F00S00C0.0551
T12F00S00C0.0591
T13F00S00C0.0709
T14F00S00C0.0787
T16F00S00C0.0866
T17F00S00C0.0882
T18F00S00C0.0945
T19F00S00C0.0984
T20F00S00C0.1260
T21F00S00C0.1496
%
T01
X7638Y3858
X8898
Y5118
X7638
X12677
X13937
X15197
X16457
X17717
X18976
Y3858
Y2598
Y1339
X17717Y3858
X26417Y4764
X27402
X28386
X29370
X30354
X31339
X32323
X33307
X34291
X44134Y1811
X45118
X46102
X47087
X48071
X49055
X50039
Y2795
Y3780
X49055
Y2795
X48071
Y3780
Y827
X49055
X50039
X47087
X46102
X45118
X44134
X100787Y18701
X103543Y19685
X93541Y18022
X92520Y17717
X93307Y16732
X94094Y16732
X89567Y16929
X88504Y18346
Y20472
Y21181
X85669
Y20472
X84961Y18346
X83850Y17410
X90157Y18898
X90630Y19055
Y19764
X83071Y20479
X82169Y20174
X80315Y19882
X79921
X79528
X78583Y21181
X77874
X77165
X76457
Y20472
X75748
Y21181
X75039
Y20472
X74331
Y21181
X73622
Y20472
X72913
X81417Y18346
Y17638
X66535Y19488
X66535Y20472
X67244
Y21181
X66535
X65950Y20865
X63432Y20863
X63701Y20472
Y19764
X64409
X61575
X60866
X61119Y20843
X61575Y21181
X58661Y20276
X59252Y19488
X54488Y19764
Y20472
Y21181
X50039Y20512
X49055
X44134
X43150
X42165
X41181
X40197
X39213
X38228
X37244
X45118Y14606
Y13622
Y12638
Y11654
Y10669
Y9685
Y8701
X44685Y7874
X43150Y10669
X40945Y6496
X33307Y7717
Y8701
Y9685
Y10669
Y11654
Y12638
X34291
Y13622
Y14606
Y15591
Y16575
Y17559
Y18543
Y19528
Y20512
X33307
Y19528
Y18543
Y17559
Y16575
Y15591
Y14606
Y13622
X32323
Y14606
Y15591
Y16575
Y17559
Y18543
X28386
Y19528
Y20512
X27402
Y19528
Y18543
Y17559
X28386
Y15591
Y14606
X27402
Y15591
X26417
Y14606
X25433
Y15591
X24449
Y14606
X23465
Y15591
X22480
Y14606
X21496
Y15591
Y17559
X22480
X23465
X24449
X25433
X26417
Y18543
Y19528
X25433
Y18543
X24449
Y19528
X23465
Y18543
Y10669
X24449
X25433
X26417
X27402
X28386
X29370
X30354
X31339
X32323
Y11654
Y12638
X31339Y11654
Y9685
X32323
Y8701
Y7717
X31339
Y8701
X30354
Y9685
X29370
Y8701
Y7717
X30354
X28386
Y8701
Y9685
X27402
Y8701
Y7717
X26417
Y8701
Y9685
X25433
Y8701
X24449Y9685
X23465
X22480
Y10669
X21496
Y9685
X20512
Y10669
X19528
Y9685
X18543Y10669
X19528Y14606
X20512
Y15591
X19528
X20512Y17559
X19528Y18543
X13394Y17747
X13386Y16752
X11654Y16575
X10669
Y14606
Y13622
X11588Y12874
X11614Y11417
X12008
Y11024
X11614
X11417Y15335
X12205Y14961
X9685Y14606
X7638Y15197
Y16457
Y17717
Y18976
Y6378
X15374Y12875
X3858Y12677
Y11417
Y10157
X5118
Y7638
X3858
Y8898
X2598
Y10157
Y11417
Y12677
Y13937
Y15197
X3858
X5118
Y17717
Y18976
X3858
Y20236
X2598
Y18976
Y17717
X3858
Y16457
Y6378
X2598
Y7638
Y21496
X3858
X5118
X3858Y22756
Y24016
Y25276
Y26535
X2598
Y27795
Y29055
Y30315
X3858
Y31575
X5118
X2598
X1811Y34882
X4173
X2598Y25276
Y24016
Y22756
X6378Y25276
X7638
X8898
X10157
X11417
X11654Y24449
X10669
X9685
X13622
X14606
X15591
X16575
X17559
X18543
Y23465
Y22480
X17559
Y23465
X16575
X20512Y24449
X21063Y26378
X20236Y30315
X18976
X17717
X16457
Y29055
X15197
Y30315
Y31575
X13937Y30315
Y29055
Y27795
X12677Y30315
Y31575
X8898
Y30315
X7638
Y31575
X6378
X6535Y34882
X8898
X11260
X13622
X15984
X18346
X20709
X20236Y32835
X7638Y29055
Y27795
X12205Y21850
X23465Y21496
X24449
X25433
X26417
Y22480
X27402
X28386Y21496
Y24449
X29370
X30354
X31339
X30108Y26969
X32323Y28386
X33307
Y30354
X33268Y31102
Y31496
Y31890
X35039Y31545
X35433Y31890
X36260Y33307
X34882Y34882
X32520
X30157
X30354Y33307
X31339
Y32323
Y31339
Y30354
X26535Y30315
Y27795
Y26535
X25276
Y27795
X24016
Y26535
X24449Y24449
X25433
X26417
X27402
X25433Y22480
X24449
X23465
Y24449
X22480
X21496
X22756Y30315
X23372Y29778
X24016Y30315
X24606Y28937
X24016Y32835
X25276
X25433Y34882
X27795
X29370Y33307
X22756Y32835
Y31575
X21496
Y32835
X23071Y34882
X37244
X39213Y32323
X40197
X41181
X42165
X43150
Y31339
X42165
X41181
X40551Y30906
X40157
X39764
X39213Y27402
X37244
Y28386
X41545Y27362
X42165Y27402
X43150
X44134
X45118
X46102
X47087
Y28386
X46102Y26417
X45118
X44134
X43150
X42165
Y21496
X43150
X41181
X40197
X39213
X49055
X50039
X48071Y24449
X47087
X46102
X49055Y33307
X49606Y33579
X56614Y33228
X57323
X58031
X58740
X59449
X60157
X60866
X61575
X62283
X62992
X63701
X64409
X65118
X65827
X66535
X67244
X67953
Y32520
Y31811
Y31102
Y30394
Y29685
X67913Y28740
X67953Y28268
X68110Y25787
X66929
X66339Y26575
X64409Y26142
X63976Y26673
X63501Y26296
X63701Y28268
Y29685
X64409
X65118
X64409Y30394
X63701
X62992
X62283
X61575
X60866
X59055Y30118
X57874
X56693
X55512
X56614Y32520
X57323
X58031
X58740
X59449
X60157
X60866
X61575
X62283
X62992
X63701
X64409
X65118
X65827
X66535
X67244
Y31811
Y31102
X66535Y31811
X65827
X66535Y35354
X67244
Y36063
Y36772
X66535
Y36063
X65827
Y36772
X65118
Y36063
X64409
Y36772
Y35354
X61575Y27559
X60866
Y28268
X60157
Y27559
X59449Y28268
X60039Y25319
X60630Y25787
X61024
X58858Y24803
Y23425
X57234Y23819
X56614Y24016
X56648Y22967
X58465Y21260
X61575Y21890
X63701
X67126Y22835
X66732Y24206
X57480Y25787
Y26181
Y26575
X56102Y25984
X55709
X55197Y25433
X53071Y26850
X73622
X74331
X75039
X75748
X75039Y27559
X74331Y28268
X73622
X72913
Y29685
X74331
X77165Y29724
X77565Y27165
X77565Y26378
X78740Y26575
X78543Y24409
X79291Y24016
X80709
X81890Y24409
X82677Y24416
X82283Y23228
Y22835
X81890
X82693
X79921Y22047
X78583Y22598
X77874
X76772Y23612
X75020Y23622
X75394Y24409
Y24803
X75748Y21890
X76457
X75039
X74331
X73622Y23307
X72913
X72205Y21890
Y34646
X72913
X73622
X74331
X75039
X74331Y35354
X73622
X72913
X71496Y34646
X70787
X70079
X75039Y36772
X76457
X81611Y29474
X82480Y29471
X82087Y28937
X83268Y28543
X83858
Y28937
Y29331
X84055Y29921
X85039Y29331
X84252Y23622
Y23228
Y22835
X85827Y21850
X86378Y23307
X87992Y25591
X87795Y36063
X88504
Y36772
X87795
X87087
Y36063
X87795Y37480
X88504
Y38189
X89213Y38898
X92047Y42441
Y43150
X93898Y42913
Y42520
Y42085
X94488Y42126
Y42520
Y42913
X94882Y43150
X94173Y45276
X92756Y45984
X92047Y49528
Y50236
Y50945
X91339Y50236
Y49528
X90630
X89921
X89213
X88583Y46457
Y45866
X87795Y45984
X87087Y46693
Y47402
Y45276
X86220Y45472
X93465Y50236
X94173
X75591Y49213
Y48425
X74803
Y49213
X74016
Y48425
X73228
Y49213
X72441
Y48425
X72825Y39567
X72913Y38189
X73622
X74331
X75039
Y37480
X74331
X73622
X72913
X72205
Y38189
X71496
Y38898
X70787
Y38189
Y37480
X71496
X76457
Y38189
Y38898
Y39606
X74803Y39567
X67953Y38898
Y38189
Y37480
X67244
Y38189
Y38898
X66535
Y38189
Y37480
X65827
Y38189
Y38898
X65118
Y38189
Y37480
X64409
Y38189
Y38898
X61216Y38391
X60443Y38396
X44331Y37244
Y39606
Y41969
Y44331
Y46693
X41969
Y44331
X39606
Y41969
X37244
Y44331
X39606Y49055
Y51417
X41969
Y39606
Y37244
X39606
X34882
Y39606
Y41969
X32520Y39606
Y37244
X30157
Y44331
X27795Y41969
X25433
Y39606
X23071
X20709Y41969
X15984Y39606
X13622Y37244
X11260Y39606
X8898Y41969
X6535
Y39606
X8898Y37244
X4173Y39606
Y41969
X1811
Y44331
Y46693
Y49055
Y51417
Y39606
Y53780
Y58504
X4173
Y60866
X25433
X27795
X30157
X32520
X34882
Y58504
Y56142
X32520
Y58504
X30157
Y56142
X27795
Y58504
X37244
X39606
X41969
X44331
X46693
X49055
Y60866
X51417
X46693
X44331
X41969
X39606
X37244
Y56142
X39606
X41969
X44331
X46693
X49055
X39606Y53780
X63228
X65591
X67953
X65591Y56142
Y60866
X70315Y53780
X72677
X75039
X77402
Y56142
T02
X1772Y4921
X2362
X2953
X3543
Y5512
X2953
X2362
X1772
X5945Y2953
X35630Y3150
Y2362
X36417
Y3150
Y3937
X37205
X37992
X38780
X39567
X39567Y3150
X38780
Y2362
X39567
X37992Y2362
X37205
Y3150
X37992
X37598Y787
X142323Y394
X143991Y1181
X143972Y3150
X114252Y16713
X113809
X113366
X113071Y17008
Y17402
Y17795
Y18189
Y18583
Y18976
Y19370
X114547
Y18976
Y18583
Y18189
Y17795
Y17402
Y17008
Y20945
X113071
X101280Y21072
X100787Y17323
X103937Y17904
X104724Y15977
X97597Y17520
X96497
X92333Y20866
X87795Y14961
X87205
X86614
X86024
X85433
X67717Y21063
X60039Y19882
X56693Y19685
X57283Y20866
X51772Y21063
X43307Y18898
Y18307
X42717
X42126
X41535
Y18898
X42126
X42717
Y17717
X42126
Y17126
Y16535
Y15945
Y15354
X42717
Y15945
Y16535
Y17126
X43307
Y16535
Y15945
Y15354
Y14764
X42717
Y14173
X43307
X41535Y15354
Y15945
Y16535
Y17126
Y17717
X40551
X39764
X38976
X38189
X37402
X39035Y18859
X43307Y17717
X40157Y6102
X36811Y17126
Y17717
Y18307
X36220
X35630
Y18898
Y17717
X36220
Y17126
X35630
Y16535
X31306Y19094
X32087Y19882
X19291Y20472
X18523Y17916
X16929Y17126
X17028Y15354
Y14764
Y14173
Y13583
Y12992
X10079Y16232
Y18594
Y20957
X13432Y20095
X9449Y9252
Y8661
X5512Y9055
Y11417
X4724Y18580
X10079Y23319
X10039Y31496
Y32087
X18701Y29331
X22638Y26417
X26939Y31890
X26939Y32795
X29528Y31896
X33268Y25787
X38386Y28799
X37874Y30906
X46260Y32874
X46850
X47441
X48032
X50010Y31299
X49409Y25591
X48809
X48819Y24606
X49409
X50000
X50591
X52559Y29134
X53150
X52559Y29724
X53543Y33071
X54134
X61001Y24336
X68898Y21654
X73228Y27559
X72244Y30118
X80038Y29402
X81693Y31299
Y31890
Y32480
X82283
X82874
X83465
Y31890
Y31299
X82874
X82283
Y31890
X82874
X82264Y36220
X80315Y22835
X91535Y21654
X92657Y25000
X94000
X95079Y23228
Y22638
X95669
Y23228
X96260
Y22638
X96850
Y23228
X85630Y36024
X85039
Y36614
X85630
X99960Y22976
X100394Y23228
Y22480
X113071Y22520
Y22126
Y21732
Y21339
X114547
Y21732
Y22126
Y22520
Y22913
Y23307
X114252Y23602
X113809
X113366
X113071Y23307
Y22913
X119256Y43898
X119650
X120043
X120437
X120831
X121224
X121618
Y45374
X121224
X120831
X120437
X120043
X119650
X119256
X118961Y45079
Y44636
Y44193
X123193Y43898
X123587
X123980
X124374
X124768
X125161
X125555
X125850Y44193
Y44636
Y45079
X125555Y45374
X125161
X124768
X124374
X123980
X123587
X123193
X93898Y46104
X91339Y43110
Y42520
X89764Y44285
X88976
X88583Y47041
X86024Y43504
X85433
Y42913
X84843
Y43504
X86024Y42913
X84843Y40748
X85039Y39567
Y38976
Y38386
Y37795
X85630
Y38386
Y38976
Y39567
Y37205
X85039
Y50000
X84252Y49606
X84646Y50787
X83858
X84646Y51575
X85433
Y50787
Y52362
X84646
X83465Y51968
X83071Y50787
X82283
Y51575
Y52362
X81496
Y51575
Y50787
X81890Y50000
X82677Y49606
X83465
X75984
Y48819
Y48032
Y47244
X75197
X74409
X73622
X72835
X72047
Y48032
X72835
X73622
X74409
X75197
Y48819
X74409
Y49606
X75197
Y50394
X74409
X73622
X72835
Y49606
Y48819
X73622
Y49606
X72047
Y48819
Y50394
X75984
X72417Y42685
X63583Y37598
X62598Y38386
X81496Y53150
X82283
X83071
Y53937
X82283
Y54724
X83071
Y55512
X82283
X81496
Y54724
Y53937
X83858
X84646
Y54724
X83858
Y55512
X84646
X85433
Y54724
Y53937
Y53150
X84646
X83858
X149016Y58465
T03
X31980Y32874
X32480
X32980
T04
X72244Y23218
Y26969
X70659Y36417
X68701Y36614
X75079Y35433
T05
X135433Y9685
X137913Y9646
Y13583
X135433Y13622
X105394Y19406
Y20157
Y20909
X43307Y36220
X40945
X78346Y35433
X121654Y36220
X122406
X123157
X78346Y39370
Y42126
Y46063
X78346Y48819
X43307Y40157
X40945
X20866Y40945
X18504
Y44882
X20866
X78346Y52756
Y55906
Y59843
T06
X1772Y16142
Y17126
Y18110
Y19094
T07
X17307Y31496
X18307
X62492Y29055
X63492
X60236Y50000
X58268
X21260Y47638
X18307Y47244
X14567Y47638
Y50394
X11614Y50000
Y47244
X58268Y53346
X60236
T08
X8236Y1969
X9236
X10236
Y2968
X9236
X8236
X11236
X12236
X13236
X14236
X15236
X16236
X17236
Y1969
X16236
X15236
X14236
X13236
X12236
X11236
X41339Y2937
Y3937
X42339
X43339
X44339
Y2937
X43339
X42339
X45339
X46339
Y3937
X45339
X135748Y1181
X138976
Y7087
X135748
X140669Y13780
X141669
X142669
Y14780
X143669
Y13780
X144669
X145669
Y14780
X144669
Y17717
Y18717
X145669
Y17717
X143669
Y18717
X142669
X141669
X140669
Y17717
X141669
X142669
X141669Y14780
X140669
X147031Y28465
X148032
Y29465
Y30465
X147031
Y31465
X148032
Y32465
Y33465
X147031
Y32465
Y29465
X147047Y35728
Y44587
Y47343
X74409Y51476
X61122Y37008
X52264
X37500
X28642
X25098
X16240
X10728
X1870
X74409Y60335
X147047Y56201
T09
X64087Y51177
X68087
T10
X63110Y41535
X62323Y43898
X63110Y46260
X67913
Y41535
T11
X9843Y43701
X15354
T12
X9115Y55348
X9115Y59548
X17973
X17973Y55348
X118110Y53543
X122047
X125000
X127953
X131890
X135827
X138780
X141732
T13
X22874Y6191
X24433
X25992
X27551
X29110
X30669
T14
X144291Y6496
Y10246
X98425Y33858
X96283
X92693
X90551
X88409
X100567
X21850Y50000
X19882
X5315Y51575
Y47825
Y44075
X3740Y56299
X1772
X19882Y57480
Y60630
X19882Y53150
X21850
X21850Y57480
Y60630
X88409Y53543
X90551
X92693
X96283
X98425
X100567
T16
X125984Y6102
Y10039
X109449
Y6102
X92913
Y10039
X76378
Y6102
X59843
Y10039
X104157Y33858
Y35827
X106299
Y33858
X108441
Y35827
X112031
Y33858
X114173
Y35827
X116315
Y33858
Y37795
X112031
X108441
X104157
Y49606
Y51575
X106299
X108441
Y49606
Y53543
X106299
X104157
T17
X62587Y56177
X69587Y57177
Y60177
T18
X55512Y49606
X47638
X44094
X36220
X32677
X24803
Y53543
X32677
X36220
X44094
X47638
X55512
T19
X124114Y7402
X107579
X91043
X74508
X57972
T20
X2362Y2362
X68110
X147244
X2362Y60630
X59449
X147244
T21
X133622Y21693
Y31535
Y36220
Y46063
M30
