G04*
G04 #@! TF.GenerationSoftware,Altium Limited,Altium Designer,20.2.6 (244)*
G04*
G04 Layer_Color=32768*
%FSLAX24Y24*%
%MOIN*%
G70*
G04*
G04 #@! TF.SameCoordinates,8AECF8CF-BE68-462B-8B6A-8B8B687A0D7D*
G04*
G04*
G04 #@! TF.FilePolarity,Positive*
G04*
G01*
G75*
%ADD14C,0.0039*%
%ADD183C,0.0020*%
D14*
X14567Y11024D02*
X14961D01*
X14764Y10827D02*
Y11220D01*
X15945Y11024D02*
X16339D01*
X16142Y10827D02*
Y11220D01*
X79844Y32474D02*
X80237D01*
X80041Y32277D02*
Y32670D01*
X88996Y21732D02*
X89390D01*
X89193Y21535D02*
Y21929D01*
X114173Y33661D02*
Y34055D01*
X113976Y33858D02*
X114370D01*
X106102Y53543D02*
X106496D01*
X106299Y53346D02*
Y53740D01*
Y33661D02*
Y34055D01*
X106102Y33858D02*
X106496D01*
X55315Y29331D02*
X55709D01*
X55512Y29134D02*
Y29528D01*
X55846Y28652D02*
Y30010D01*
X55177Y28652D02*
Y30010D01*
X55846D01*
X55177Y28652D02*
X55846D01*
X56496Y29331D02*
X56890D01*
X56693Y29134D02*
Y29528D01*
X57028Y28652D02*
Y30010D01*
X56358Y28652D02*
Y30010D01*
X57028D01*
X56358Y28652D02*
X57028D01*
X57677Y29331D02*
X58071D01*
X57874Y29134D02*
Y29528D01*
X58209Y28652D02*
Y30010D01*
X57539Y28652D02*
Y30010D01*
X58209D01*
X57539Y28652D02*
X58209D01*
X58858Y29331D02*
X59252D01*
X59055Y29134D02*
Y29528D01*
X59390Y28652D02*
Y30010D01*
X58720Y28652D02*
Y30010D01*
X59390D01*
X58720Y28652D02*
X59390D01*
X39567Y11024D02*
X39961D01*
X39764Y10827D02*
Y11220D01*
X42323Y8268D02*
Y13780D01*
X37205Y8268D02*
Y13780D01*
X42323D01*
X37205Y8268D02*
X42323D01*
X47047Y43307D02*
X47441D01*
X47244Y43110D02*
Y43504D01*
X65157Y26575D02*
Y26969D01*
X64961Y26772D02*
X65354D01*
X104724Y29134D02*
Y29528D01*
X104528Y29331D02*
X104921D01*
X38386Y27392D02*
Y27785D01*
X38189Y27589D02*
X38583D01*
X72165Y36024D02*
Y36811D01*
X70354Y36024D02*
Y36811D01*
Y36024D02*
X72165D01*
X70354Y36811D02*
X72165D01*
X71063Y36417D02*
X71457D01*
X71260Y36220D02*
Y36614D01*
X52953Y27362D02*
Y27756D01*
X52756Y27559D02*
X53150D01*
X52953Y25984D02*
Y26378D01*
X52756Y26181D02*
X53150D01*
X53346Y21063D02*
X53740D01*
X53543Y20866D02*
Y21260D01*
X75787Y35236D02*
Y35630D01*
X75591Y35433D02*
X75984D01*
X13780Y14961D02*
X14173D01*
X13976Y14764D02*
Y15157D01*
X14282Y12540D02*
Y13209D01*
X15640Y12540D02*
Y13209D01*
X14282D02*
X15640D01*
X14282Y12540D02*
X15640D01*
X14764Y12875D02*
X15157D01*
X14961Y12678D02*
Y13072D01*
X11933Y12874D02*
X12326D01*
X12129Y12677D02*
Y13071D01*
X10433Y9843D02*
X10827D01*
X10630Y9646D02*
Y10039D01*
X72165Y39173D02*
Y39961D01*
X70354Y39173D02*
Y39961D01*
Y39173D02*
X72165D01*
X70354Y39961D02*
X72165D01*
X71063Y39567D02*
X71457D01*
X71260Y39370D02*
Y39764D01*
X62992Y23622D02*
Y24016D01*
X62795Y23819D02*
X63189D01*
X63784Y24751D02*
X64177D01*
X63980Y24555D02*
Y24948D01*
X63780Y20866D02*
X64173D01*
X63976Y20669D02*
Y21063D01*
X57283Y25984D02*
X57677D01*
X57480Y25787D02*
Y26181D01*
X56693Y23622D02*
Y24016D01*
X56496Y23819D02*
X56890D01*
X56299Y21457D02*
Y21850D01*
X56102Y21654D02*
X56496D01*
X63780Y20866D02*
X64173D01*
X63976Y20669D02*
Y21063D01*
X56496Y23819D02*
X56890D01*
X56693Y23622D02*
Y24016D01*
X60384Y20846D02*
X60778D01*
X60581Y20650D02*
Y21043D01*
Y20650D02*
Y21043D01*
X60384Y20846D02*
X60778D01*
X74803Y42913D02*
Y43307D01*
X74606Y43110D02*
X75000D01*
X74331Y39173D02*
Y39961D01*
X72520Y39173D02*
Y39961D01*
Y39173D02*
X74331D01*
X72520Y39961D02*
X74331D01*
X73228Y39567D02*
X73622D01*
X73425Y39370D02*
Y39764D01*
X13780Y18110D02*
X14173D01*
X13976Y17913D02*
Y18307D01*
X11820Y21673D02*
Y22067D01*
X11623Y21870D02*
X12017D01*
X11820Y14744D02*
Y15138D01*
X11623Y14941D02*
X12017D01*
X8268Y22622D02*
Y23016D01*
X8071Y22819D02*
X8465D01*
X8268Y8449D02*
Y8843D01*
X8071Y8646D02*
X8465D01*
X28150Y29331D02*
Y29724D01*
X27953Y29528D02*
X28346D01*
X20472D02*
X20866D01*
X20669Y29331D02*
Y29724D01*
X8071Y18094D02*
X8465D01*
X8268Y17898D02*
Y18291D01*
X8071Y20457D02*
X8465D01*
X8268Y20260D02*
Y20654D01*
X8071Y15732D02*
X8465D01*
X8268Y15535D02*
Y15929D01*
X8071Y13370D02*
X8465D01*
X8268Y13173D02*
Y13567D01*
X8071Y11008D02*
X8465D01*
X8268Y10811D02*
Y11205D01*
X13976Y20276D02*
Y20669D01*
X13780Y20472D02*
X14173D01*
X15157Y31299D02*
Y31693D01*
X14961Y31496D02*
X15354D01*
X25591Y31890D02*
X25984D01*
X25787Y31693D02*
Y32087D01*
X104134Y23228D02*
Y23622D01*
X103937Y23425D02*
X104331D01*
X98425Y29724D02*
X98819D01*
X98622Y29528D02*
Y29921D01*
X110433Y29134D02*
Y29528D01*
X110236Y29331D02*
X110630D01*
X83268Y21457D02*
Y21850D01*
X83071Y21654D02*
X83465D01*
X81299Y21457D02*
Y21850D01*
X81102Y21654D02*
X81496D01*
X75197Y24016D02*
X75591D01*
X75394Y23819D02*
Y24213D01*
X80709Y26969D02*
Y27362D01*
X80512Y27165D02*
X80906D01*
X83268Y21457D02*
Y21850D01*
X83071Y21654D02*
X83465D01*
X81299Y21457D02*
Y21850D01*
X81102Y21654D02*
X81496D01*
X83907Y17411D02*
X84301D01*
X84104Y17214D02*
Y17608D01*
X96457Y41142D02*
Y41535D01*
X96260Y41339D02*
X96654D01*
X91535Y46654D02*
Y47047D01*
X91339Y46850D02*
X91732D01*
X94094Y19094D02*
X94488D01*
X94291Y18898D02*
Y19291D01*
X98819Y19094D02*
X99213D01*
X99016Y18898D02*
Y19291D01*
X98425Y53346D02*
Y53740D01*
X98228Y53543D02*
X98622D01*
X90551Y53346D02*
Y53740D01*
X90354Y53543D02*
X90748D01*
X90551Y33661D02*
Y34055D01*
X90354Y33858D02*
X90748D01*
X98425Y33661D02*
Y34055D01*
X98228Y33858D02*
X98622D01*
X39436Y6907D02*
X39830D01*
X39633Y6710D02*
Y7103D01*
X51722Y31673D02*
X52116D01*
X51919Y31476D02*
Y31870D01*
X94990Y50915D02*
Y51309D01*
X94793Y51112D02*
X95187D01*
X87605Y50924D02*
Y51317D01*
X87408Y51120D02*
X87802D01*
X93700Y36087D02*
Y36481D01*
X93504Y36284D02*
X93897D01*
X101382Y36287D02*
Y36681D01*
X101186Y36484D02*
X101579D01*
X87008Y19094D02*
X87402D01*
X87205Y18898D02*
Y19291D01*
X89764Y20866D02*
X90157D01*
X89961Y20669D02*
Y21063D01*
X48819Y43110D02*
Y43504D01*
X48622Y43307D02*
X49016D01*
X60039Y38583D02*
Y38976D01*
X59843Y38780D02*
X60236D01*
X51968Y29528D02*
Y29921D01*
X51772Y29724D02*
X52165D01*
D183*
X15472Y10187D02*
Y11860D01*
X14055Y10187D02*
Y11860D01*
Y10187D02*
X15472D01*
X14055Y11860D02*
X15472D01*
X16850Y10187D02*
Y11860D01*
X15433Y10187D02*
Y11860D01*
Y10187D02*
X16850D01*
X15433Y11860D02*
X16850D01*
X14961Y12678D02*
Y13072D01*
X14764Y12875D02*
X15157D01*
X14350Y12530D02*
X15571D01*
Y13219D01*
X14350D02*
X15571D01*
X14350Y12530D02*
Y13219D01*
Y13238D02*
Y13927D01*
X15571D01*
Y13238D02*
Y13927D01*
X14350Y13238D02*
X15571D01*
X14764Y13583D02*
X15157D01*
X14961Y13386D02*
Y13780D01*
X12795Y8465D02*
Y8858D01*
X12598Y8661D02*
X12992D01*
X12185Y8317D02*
X13406D01*
Y9006D01*
X12185D02*
X13406D01*
X12185Y8317D02*
Y9006D01*
X12795Y9252D02*
Y9646D01*
X12598Y9449D02*
X12992D01*
X12185Y9793D02*
X13406D01*
X12185Y9104D02*
Y9793D01*
Y9104D02*
X13406D01*
Y9793D01*
X12795Y10039D02*
Y10433D01*
X12598Y10236D02*
X12992D01*
X12185Y9892D02*
X13406D01*
Y10581D01*
X12185D02*
X13406D01*
X12185Y9892D02*
Y10581D01*
X12795Y10827D02*
Y11220D01*
X12598Y11024D02*
X12992D01*
X12185Y11368D02*
X13406D01*
X12185Y10679D02*
Y11368D01*
Y10679D02*
X13406D01*
Y11368D01*
X12795Y11614D02*
Y12008D01*
X12598Y11811D02*
X12992D01*
X12185Y12156D02*
X13406D01*
X12185Y11467D02*
Y12156D01*
Y11467D02*
X13406D01*
Y12156D01*
X106939Y28720D02*
X107628D01*
X106939D02*
Y29941D01*
X107628D01*
Y28720D02*
Y29941D01*
X107283Y29134D02*
Y29528D01*
X107087Y29331D02*
X107480D01*
X76968Y30118D02*
X77362D01*
X77165Y29921D02*
Y30315D01*
X76821Y29508D02*
Y30728D01*
X77510D01*
Y29508D02*
Y30728D01*
X76821Y29508D02*
X77510D01*
X81537Y31293D02*
Y33655D01*
X78545Y31293D02*
Y33655D01*
Y31293D02*
X81537D01*
X78545Y33655D02*
X81537D01*
X1457Y17618D02*
X1850D01*
X1654Y17421D02*
Y17815D01*
X787Y20217D02*
X2520D01*
X787Y15020D02*
Y20217D01*
Y15020D02*
X2520D01*
Y20217D01*
X26772Y5906D02*
Y6299D01*
X26575Y6102D02*
X26969D01*
X21947Y3878D02*
Y8327D01*
Y3878D02*
X31596D01*
Y8327D01*
X21947D02*
X31596D01*
X21260Y20866D02*
Y21260D01*
X21063Y21063D02*
X21457D01*
X23524Y18819D02*
Y23307D01*
X18996D02*
X23524D01*
X18996Y18819D02*
Y23307D01*
Y18819D02*
X23524D01*
X19685Y17717D02*
Y18110D01*
X19488Y17913D02*
X19882D01*
X19075Y18258D02*
X20295D01*
Y17569D02*
Y18258D01*
X19075Y17569D02*
X20295D01*
X19075D02*
Y18258D01*
X19685Y16929D02*
Y17323D01*
X19488Y17126D02*
X19882D01*
X19075Y17470D02*
X20295D01*
Y16782D02*
Y17470D01*
X19075Y16782D02*
X20295D01*
X19075D02*
Y17470D01*
X88406Y20797D02*
Y22667D01*
X89980Y20797D02*
Y22667D01*
X88406Y20797D02*
X89980D01*
X88406Y22667D02*
X89980D01*
X110896Y34953D02*
X117451D01*
X110896Y32689D02*
X117451D01*
Y34953D01*
X110896Y32689D02*
Y34953D01*
X109577Y52449D02*
Y54713D01*
X103022Y52449D02*
Y54713D01*
X109577D01*
X103022Y52449D02*
X109577D01*
X103022Y34953D02*
X109577D01*
X103022Y32689D02*
X109577D01*
Y34953D01*
X103022Y32689D02*
Y34953D01*
X119551Y35827D02*
X125260D01*
X119551D02*
Y43661D01*
X118567D02*
X119551D01*
X118567D02*
Y45630D01*
X126244D01*
Y43661D02*
Y45630D01*
X125260Y43661D02*
X126244D01*
X125260Y35827D02*
Y43661D01*
X105000Y17303D02*
X112835D01*
Y16319D02*
Y17303D01*
Y16319D02*
X114803D01*
Y23996D01*
X112835D02*
X114803D01*
X112835Y23012D02*
Y23996D01*
X105000Y23012D02*
X112835D01*
X105000Y17303D02*
Y23012D01*
X43750Y6516D02*
X44439D01*
X43750Y5295D02*
Y6516D01*
Y5295D02*
X44439D01*
Y6516D01*
X44094Y5709D02*
Y6102D01*
X43898Y5906D02*
X44291D01*
X44341Y8091D02*
X45030D01*
X44341Y6870D02*
Y8091D01*
Y6870D02*
X45030D01*
Y8091D01*
X44685Y7283D02*
Y7677D01*
X44488Y7480D02*
X44882D01*
X100443Y17697D02*
X101132D01*
Y18917D01*
X100443D02*
X101132D01*
X100443Y17697D02*
Y18917D01*
X100787Y18110D02*
Y18504D01*
X100591Y18307D02*
X100984D01*
X100443Y18875D02*
X101132D01*
Y20095D01*
X100443D02*
X101132D01*
X100443Y18875D02*
Y20095D01*
X100787Y19288D02*
Y19682D01*
X100591Y19485D02*
X100984D01*
X47894Y42018D02*
Y44596D01*
X46594Y42018D02*
Y44596D01*
X47894D01*
X46594Y42018D02*
X47894D01*
X64449Y27608D02*
X65866D01*
X64449Y25935D02*
X65866D01*
Y27608D01*
X64449Y25935D02*
Y27608D01*
X86573Y17408D02*
X86967D01*
X86770Y17211D02*
Y17605D01*
X86426Y16798D02*
Y18018D01*
X87115D01*
Y16798D02*
Y18018D01*
X86426Y16798D02*
X87115D01*
X91732Y22638D02*
Y23031D01*
X91535Y22835D02*
X91929D01*
X90886Y23258D02*
X92579D01*
Y22411D02*
Y23258D01*
X90886Y22411D02*
X92579D01*
X90886D02*
Y23258D01*
X102953Y18504D02*
X103346D01*
X103150Y18307D02*
Y18701D01*
X102726Y17657D02*
Y19350D01*
X103573D01*
Y17657D02*
Y19350D01*
X102726Y17657D02*
X103573D01*
X103740Y18504D02*
X104134D01*
X103937Y18307D02*
Y18701D01*
X103514Y17657D02*
Y19350D01*
X104360D01*
Y17657D02*
Y19350D01*
X103514Y17657D02*
X104360D01*
X102165Y18504D02*
X102559D01*
X102362Y18307D02*
Y18701D01*
X101939Y17657D02*
Y19350D01*
X102785D01*
Y17657D02*
Y19350D01*
X101939Y17657D02*
X102785D01*
X103642Y30787D02*
X105807D01*
X103642Y27874D02*
X105807D01*
X103642D02*
Y30787D01*
X105807Y27874D02*
Y30787D01*
X107677Y26181D02*
Y26575D01*
X107480Y26378D02*
X107874D01*
X107067Y26033D02*
X108287D01*
Y26722D01*
X107067D02*
X108287D01*
X107067Y26033D02*
Y26722D01*
X95472Y24803D02*
Y25197D01*
X95276Y25000D02*
X95669D01*
X97343Y23583D02*
Y26417D01*
X93602Y23583D02*
X97343D01*
X93602D02*
Y26417D01*
X97343D01*
X27411Y32106D02*
X28100D01*
X27411Y30886D02*
Y32106D01*
Y30886D02*
X28100D01*
Y32106D01*
X27756Y31299D02*
Y31693D01*
X27559Y31496D02*
X27953D01*
X40098Y25955D02*
Y26801D01*
X41791D01*
Y25955D02*
Y26801D01*
X40098Y25955D02*
X41791D01*
X40748Y26378D02*
X41142D01*
X40945Y26181D02*
Y26575D01*
X41791Y26939D02*
Y27785D01*
X40098Y26939D02*
X41791D01*
X40098D02*
Y27785D01*
X41791D01*
X40748Y27362D02*
X41142D01*
X40945Y27165D02*
Y27559D01*
X37028Y26053D02*
X39744D01*
X37028Y29124D02*
X39744D01*
Y26053D02*
Y29124D01*
X37028Y26053D02*
Y29124D01*
X37106Y32323D02*
X40846D01*
X37106Y29488D02*
Y32323D01*
Y29488D02*
X40846D01*
Y32323D01*
X38976Y30709D02*
Y31102D01*
X38780Y30906D02*
X39173D01*
X37717Y23081D02*
Y24557D01*
X34724Y23081D02*
X37717D01*
X34724D02*
Y24557D01*
X37717D01*
X36024Y23819D02*
X36417D01*
X36220Y23622D02*
Y24016D01*
X72106Y35994D02*
Y36841D01*
X70413Y35994D02*
X72106D01*
X70413D02*
Y36841D01*
X72106D01*
X71063Y36417D02*
X71457D01*
X71260Y36220D02*
Y36614D01*
X70413Y35010D02*
Y35856D01*
X72106D01*
Y35010D02*
Y35856D01*
X70413Y35010D02*
X72106D01*
X71063Y35433D02*
X71457D01*
X71260Y35236D02*
Y35630D01*
X68445Y35010D02*
Y35856D01*
X70138D01*
Y35010D02*
Y35856D01*
X68445Y35010D02*
X70138D01*
X69094Y35433D02*
X69488D01*
X69291Y35236D02*
Y35630D01*
X51663Y28209D02*
X54242D01*
X51663Y26909D02*
X54242D01*
Y28209D01*
X51663Y26909D02*
Y28209D01*
Y25531D02*
X54242D01*
X51663Y26831D02*
X54242D01*
X51663Y25531D02*
Y26831D01*
X54242Y25531D02*
Y26831D01*
X88484Y23583D02*
X92224D01*
Y26417D01*
X88484D02*
X92224D01*
X88484Y23583D02*
Y26417D01*
X90157Y25000D02*
X90551D01*
X90354Y24803D02*
Y25197D01*
X54724Y19567D02*
Y22559D01*
X52362Y19567D02*
Y22559D01*
X54724D01*
X52362Y19567D02*
X54724D01*
X51427Y21280D02*
X52116D01*
X51427Y20059D02*
Y21280D01*
Y20059D02*
X52116D01*
Y21280D01*
X51772Y20472D02*
Y20866D01*
X51575Y20669D02*
X51968D01*
X51427Y21280D02*
X52116D01*
Y20059D02*
Y21280D01*
X51427Y20059D02*
X52116D01*
X51427D02*
Y21280D01*
X51772Y20472D02*
Y20866D01*
X51575Y20669D02*
X51968D01*
X90886Y20443D02*
Y21289D01*
Y20443D02*
X92579D01*
Y21289D01*
X90886D02*
X92579D01*
X91535Y20866D02*
X91929D01*
X91732Y20669D02*
Y21063D01*
X90886Y21427D02*
Y22274D01*
Y21427D02*
X92579D01*
Y22274D01*
X90886D02*
X92579D01*
X91535Y21850D02*
X91929D01*
X91732Y21654D02*
Y22047D01*
X74498Y34783D02*
X77077D01*
X74498Y36083D02*
X77077D01*
X74498Y34783D02*
Y36083D01*
X77077Y34783D02*
Y36083D01*
X14813Y14252D02*
Y15669D01*
X13140Y14252D02*
Y15669D01*
Y14252D02*
X14813D01*
X13140Y15669D02*
X14813D01*
X5118Y5906D02*
X5512D01*
X5315Y5709D02*
Y6102D01*
X5738Y5059D02*
Y6752D01*
X4892Y5059D02*
X5738D01*
X4892D02*
Y6752D01*
X5738D01*
X4134Y5906D02*
X4528D01*
X4331Y5709D02*
Y6102D01*
X4754Y5059D02*
Y6752D01*
X3907Y5059D02*
X4754D01*
X3907D02*
Y6752D01*
X4754D01*
X12966Y12165D02*
Y13582D01*
X11293Y12165D02*
Y13582D01*
X12966D01*
X11293Y12165D02*
X12966D01*
X11713Y8386D02*
Y11299D01*
X9547Y8386D02*
Y11299D01*
Y8386D02*
X11713D01*
X9547Y11299D02*
X11713D01*
X11860Y22067D02*
X12549D01*
Y20846D02*
Y22067D01*
X11860Y20846D02*
X12549D01*
X11860D02*
Y22067D01*
X12205Y21260D02*
Y21654D01*
X12008Y21457D02*
X12402D01*
X56496Y37008D02*
X56890D01*
X56693Y36811D02*
Y37205D01*
X51398Y34665D02*
Y39350D01*
Y34665D02*
X61988D01*
Y39350D01*
X51398D02*
X61988D01*
X6102Y37008D02*
X6496D01*
X6299Y36811D02*
Y37205D01*
X1004Y34665D02*
Y39350D01*
Y34665D02*
X11594D01*
Y39350D01*
X1004D02*
X11594D01*
X32874Y37008D02*
X33268D01*
X33071Y36811D02*
Y37205D01*
X38366Y34665D02*
Y39350D01*
X27776D02*
X38366D01*
X27776Y34665D02*
Y39350D01*
Y34665D02*
X38366D01*
X61535Y21988D02*
X64449D01*
X61535Y25650D02*
X64449D01*
Y21988D02*
Y25650D01*
X61535Y21988D02*
Y25650D01*
X64813Y25217D02*
X65502D01*
Y23996D02*
Y25217D01*
X64813Y23996D02*
X65502D01*
X64813D02*
Y25217D01*
X65157Y24409D02*
Y24803D01*
X64961Y24606D02*
X65354D01*
X58711Y31319D02*
X59400D01*
Y30098D02*
Y31319D01*
X58711Y30098D02*
X59400D01*
X58711D02*
Y31319D01*
X59055Y30512D02*
Y30906D01*
X58858Y30709D02*
X59252D01*
X67175Y25217D02*
X67864D01*
X67175Y23996D02*
Y25217D01*
Y23996D02*
X67864D01*
Y25217D01*
X67520Y24409D02*
Y24803D01*
X67323Y24606D02*
X67717D01*
X65994Y27579D02*
X66683D01*
X65994Y26358D02*
Y27579D01*
Y26358D02*
X66683D01*
Y27579D01*
X66339Y26772D02*
Y27165D01*
X66142Y26969D02*
X66535D01*
X66388Y25217D02*
X67077D01*
X66388Y23996D02*
Y25217D01*
Y23996D02*
X67077D01*
Y25217D01*
X66732Y24409D02*
Y24803D01*
X66535Y24606D02*
X66929D01*
X65157Y27165D02*
Y27559D01*
X64961Y27362D02*
X65354D01*
X64547Y27707D02*
X65768D01*
X64547Y27018D02*
Y27707D01*
Y27018D02*
X65768D01*
Y27707D01*
X65748Y24606D02*
X66142D01*
X65945Y24409D02*
Y24803D01*
X66289Y23996D02*
Y25217D01*
X65600D02*
X66289D01*
X65600Y23996D02*
Y25217D01*
Y23996D02*
X66289D01*
X57530Y31319D02*
X58218D01*
Y30098D02*
Y31319D01*
X57530Y30098D02*
X58218D01*
X57530D02*
Y31319D01*
X57874Y30512D02*
Y30906D01*
X57677Y30709D02*
X58071D01*
X55315D02*
X55709D01*
X55512Y30512D02*
Y30906D01*
X55167Y30098D02*
Y31319D01*
Y30098D02*
X55856D01*
Y31319D01*
X55167D02*
X55856D01*
X58514Y24429D02*
X59203D01*
X58514Y23209D02*
Y24429D01*
Y23209D02*
X59203D01*
Y24429D01*
X58858Y23622D02*
Y24016D01*
X58661Y23819D02*
X59055D01*
X57726Y23209D02*
X58415D01*
Y24429D01*
X57726D02*
X58415D01*
X57726Y23209D02*
Y24429D01*
X58071Y23622D02*
Y24016D01*
X57874Y23819D02*
X58268D01*
X66069Y21538D02*
Y21931D01*
X65873Y21734D02*
X66266D01*
X65459Y22079D02*
X66680D01*
Y21390D02*
Y22079D01*
X65459Y21390D02*
X66680D01*
X65459D02*
Y22079D01*
X65768Y27805D02*
Y28494D01*
X64547Y27805D02*
X65768D01*
X64547D02*
Y28494D01*
X65768D01*
X64961Y28150D02*
X65354D01*
X65157Y27953D02*
Y28346D01*
X67520Y22441D02*
X67913D01*
X67717Y22244D02*
Y22638D01*
X67372Y21831D02*
Y23051D01*
Y21831D02*
X68061D01*
Y23051D01*
X67372D02*
X68061D01*
X57283Y26969D02*
Y27362D01*
X57087Y27165D02*
X57480D01*
X56673Y26821D02*
X57894D01*
Y27510D01*
X56673D02*
X57894D01*
X56673Y26821D02*
Y27510D01*
X55758Y24783D02*
X56447D01*
Y26004D01*
X55758D02*
X56447D01*
X55758Y24783D02*
Y26004D01*
X56102Y25197D02*
Y25591D01*
X55906Y25394D02*
X56299D01*
X68110Y22638D02*
Y23031D01*
X67913Y22835D02*
X68307D01*
X67500Y22490D02*
X68720D01*
X67500D02*
Y23179D01*
X68720D01*
Y22490D02*
Y23179D01*
X65551Y19882D02*
Y20276D01*
X65354Y20079D02*
X65748D01*
X64941Y20423D02*
X66161D01*
X64941Y19734D02*
Y20423D01*
Y19734D02*
X66161D01*
Y20423D01*
X55118Y23819D02*
X55512D01*
X55315Y23622D02*
Y24016D01*
X54970Y23209D02*
Y24429D01*
Y23209D02*
X55659D01*
Y24429D01*
X54970D02*
X55659D01*
X56348Y31319D02*
X57037D01*
Y30098D02*
Y31319D01*
X56348Y30098D02*
X57037D01*
X56348D02*
Y31319D01*
X56693Y30512D02*
Y30906D01*
X56496Y30709D02*
X56890D01*
X57854Y19931D02*
Y20620D01*
Y19931D02*
X59075D01*
Y20620D01*
X57854D02*
X59075D01*
X58268Y20276D02*
X58661D01*
X58465Y20079D02*
Y20472D01*
X58858Y21850D02*
Y22244D01*
X58661Y22047D02*
X59055D01*
X58248Y21703D02*
X59468D01*
Y22392D01*
X58248D02*
X59468D01*
X58248Y21703D02*
Y22392D01*
X55886Y19931D02*
Y20620D01*
Y19931D02*
X57106D01*
Y20620D01*
X55886D02*
X57106D01*
X56299Y20276D02*
X56693D01*
X56496Y20079D02*
Y20472D01*
X57726Y21846D02*
X58415D01*
Y23067D01*
X57726D02*
X58415D01*
X57726Y21846D02*
Y23067D01*
X58071Y22260D02*
Y22654D01*
X57874Y22457D02*
X58268D01*
X59842Y21968D02*
Y22657D01*
Y21968D02*
X61063D01*
Y22657D01*
X59842D02*
X61063D01*
X60256Y22313D02*
X60650D01*
X60453Y22116D02*
Y22510D01*
X62992Y28740D02*
Y29134D01*
X62795Y28937D02*
X63189D01*
X61846Y27687D02*
Y30187D01*
Y27687D02*
X64138D01*
Y30187D01*
X61846D02*
X64138D01*
X63272Y23915D02*
Y25588D01*
X64689Y23915D02*
Y25588D01*
X63272D02*
X64689D01*
X63272Y23915D02*
X64689D01*
X64813Y20157D02*
Y21575D01*
X63140Y20157D02*
Y21575D01*
X64813D01*
X63140Y20157D02*
X64813D01*
X56644Y25276D02*
Y26693D01*
X58317Y25276D02*
Y26693D01*
X56644Y25276D02*
X58317D01*
X56644Y26693D02*
X58317D01*
X55856Y23110D02*
X57530D01*
X55856Y24528D02*
X57530D01*
Y23110D02*
Y24528D01*
X55856Y23110D02*
Y24528D01*
X55463Y20945D02*
X57136D01*
X55463Y22362D02*
X57136D01*
Y20945D02*
Y22362D01*
X55463Y20945D02*
Y22362D01*
X64813Y20157D02*
Y21575D01*
X63140Y20157D02*
Y21575D01*
Y20157D02*
X64813D01*
X63140Y21575D02*
X64813D01*
X55856Y23110D02*
Y24528D01*
X57530Y23110D02*
Y24528D01*
X55856Y23110D02*
X57530D01*
X55856Y24528D02*
X57530D01*
X59744Y20138D02*
Y21555D01*
X61417Y20138D02*
Y21555D01*
X59744Y20138D02*
X61417D01*
X59744Y21555D02*
X61417D01*
X59744Y20138D02*
X61417D01*
X59744Y21555D02*
X61417D01*
Y20138D02*
Y21555D01*
X59744Y20138D02*
Y21555D01*
X74193Y42480D02*
X75413D01*
X74193Y43740D02*
X75413D01*
Y42480D02*
Y43740D01*
X74193Y42480D02*
Y43740D01*
X62175Y38130D02*
X63022D01*
Y39823D01*
X62175D02*
X63022D01*
X62175Y38130D02*
Y39823D01*
X62598Y38780D02*
Y39173D01*
X62402Y38976D02*
X62795D01*
X63159Y38130D02*
X64006D01*
Y39823D01*
X63159D02*
X64006D01*
X63159Y38130D02*
Y39823D01*
X63583Y38780D02*
Y39173D01*
X63386Y38976D02*
X63780D01*
X72431Y44685D02*
Y45079D01*
X72234Y44882D02*
X72628D01*
X71585Y45305D02*
X73278D01*
Y44459D02*
Y45305D01*
X71585Y44459D02*
X73278D01*
X71585D02*
Y45305D01*
X75650Y45246D02*
Y46093D01*
X73957D02*
X75650D01*
X73957Y45246D02*
Y46093D01*
Y45246D02*
X75650D01*
X74606Y45669D02*
X75000D01*
X74803Y45472D02*
Y45866D01*
X72096Y43720D02*
X72785D01*
X72096Y42500D02*
Y43720D01*
Y42500D02*
X72785D01*
Y43720D01*
X72441Y42913D02*
Y43307D01*
X72244Y43110D02*
X72638D01*
X72884Y42500D02*
X73573D01*
Y43720D01*
X72884D02*
X73573D01*
X72884Y42500D02*
Y43720D01*
X73228Y42913D02*
Y43307D01*
X73032Y43110D02*
X73425D01*
X75650Y44262D02*
Y45108D01*
X73957D02*
X75650D01*
X73957Y44262D02*
Y45108D01*
Y44262D02*
X75650D01*
X74606Y44685D02*
X75000D01*
X74803Y44488D02*
Y44882D01*
X71309Y42500D02*
X71998D01*
Y43720D01*
X71309D02*
X71998D01*
X71309Y42500D02*
Y43720D01*
X71654Y42913D02*
Y43307D01*
X71457Y43110D02*
X71850D01*
X50256Y27333D02*
Y28179D01*
X48563Y27333D02*
X50256D01*
X48563D02*
Y28179D01*
X50256D01*
X49213Y27756D02*
X49606D01*
X49409Y27559D02*
Y27953D01*
X15571Y19144D02*
Y19833D01*
X14350Y19144D02*
X15571D01*
X14350D02*
Y19833D01*
X15571D01*
X14764Y19488D02*
X15157D01*
X14961Y19291D02*
Y19685D01*
X15571Y19931D02*
Y20620D01*
X14350Y19931D02*
X15571D01*
X14350D02*
Y20620D01*
X15571D01*
X14764Y20276D02*
X15157D01*
X14961Y20079D02*
Y20472D01*
Y17520D02*
Y17913D01*
X14764Y17717D02*
X15157D01*
X14350Y18061D02*
X15571D01*
X14350Y17372D02*
Y18061D01*
Y17372D02*
X15571D01*
Y18061D01*
X14961Y18307D02*
Y18701D01*
X14764Y18504D02*
X15157D01*
X14350Y18848D02*
X15571D01*
X14350Y18159D02*
Y18848D01*
Y18159D02*
X15571D01*
Y18848D01*
X13140Y17402D02*
Y18819D01*
X14813Y17402D02*
Y18819D01*
X13140D02*
X14813D01*
X13140Y17402D02*
X14813D01*
X10610Y18159D02*
Y18848D01*
Y18159D02*
X11831D01*
Y18848D01*
X10610D02*
X11831D01*
X11024Y18504D02*
X11417D01*
X11220Y18307D02*
Y18701D01*
X16732Y18563D02*
X17126D01*
X16929Y18366D02*
Y18760D01*
X16585Y17953D02*
Y19173D01*
X17274D01*
Y17953D02*
Y19173D01*
X16585Y17953D02*
X17274D01*
X15157Y18563D02*
X15551D01*
X15354Y18366D02*
Y18760D01*
X15010Y17953D02*
Y19173D01*
X15699D01*
Y17953D02*
Y19173D01*
X15010Y17953D02*
X15699D01*
X15945Y18563D02*
X16339D01*
X16142Y18366D02*
Y18760D01*
X15797Y17953D02*
Y19173D01*
X16486D01*
Y17953D02*
Y19173D01*
X15797Y17953D02*
X16486D01*
X85827Y45276D02*
Y45669D01*
X85630Y45472D02*
X86024D01*
X85217Y45128D02*
X86437D01*
X85217D02*
Y45817D01*
X86437D01*
Y45128D02*
Y45817D01*
X85827Y46063D02*
Y46457D01*
X85630Y46260D02*
X86024D01*
X85217Y45915D02*
X86437D01*
X85217D02*
Y46604D01*
X86437D01*
Y45915D02*
Y46604D01*
X12008Y15354D02*
X12402D01*
X12205Y15157D02*
Y15551D01*
X12549Y14744D02*
Y15965D01*
X11860D02*
X12549D01*
X11860Y14744D02*
Y15965D01*
Y14744D02*
X12549D01*
X11210Y21240D02*
X12430D01*
X11210Y22500D02*
X12430D01*
Y21240D02*
Y22500D01*
X11210Y21240D02*
Y22500D01*
X11180Y17323D02*
Y17717D01*
X10983Y17520D02*
X11377D01*
X10570Y17175D02*
X11790D01*
X10570D02*
Y17864D01*
X11790D01*
Y17175D02*
Y17864D01*
Y19537D02*
Y20226D01*
X10570D02*
X11790D01*
X10570Y19537D02*
Y20226D01*
Y19537D02*
X11790D01*
X10983Y19882D02*
X11377D01*
X11180Y19685D02*
Y20079D01*
X11210Y14311D02*
X12430D01*
X11210Y15571D02*
X12430D01*
Y14311D02*
Y15571D01*
X11210Y14311D02*
Y15571D01*
X11782Y24272D02*
X12628D01*
Y22579D02*
Y24272D01*
X11782Y22579D02*
X12628D01*
X11782D02*
Y24272D01*
X12205Y23228D02*
Y23622D01*
X12008Y23425D02*
X12402D01*
X10797Y24272D02*
X11644D01*
Y22579D02*
Y24272D01*
X10797Y22579D02*
X11644D01*
X10797D02*
Y24272D01*
X11220Y23228D02*
Y23622D01*
X11024Y23425D02*
X11417D01*
X6102Y23681D02*
X6496D01*
X6299Y23484D02*
Y23878D01*
X6644Y23071D02*
Y24291D01*
X5955D02*
X6644D01*
X5955Y23071D02*
Y24291D01*
Y23071D02*
X6644D01*
X11180Y7953D02*
Y8346D01*
X10983Y8150D02*
X11377D01*
X10570Y7805D02*
X11790D01*
X10570D02*
Y8494D01*
X11790D01*
Y7805D02*
Y8494D01*
X11180Y10310D02*
Y10704D01*
X10983Y10507D02*
X11377D01*
X10570Y10163D02*
X11790D01*
X10570D02*
Y10852D01*
X11790D01*
Y10163D02*
Y10852D01*
Y12530D02*
Y13219D01*
X10570D02*
X11790D01*
X10570Y12530D02*
Y13219D01*
Y12530D02*
X11790D01*
X10983Y12875D02*
X11377D01*
X11180Y12678D02*
Y13072D01*
X6161Y21874D02*
X10374D01*
X6161Y23764D02*
X10374D01*
Y21874D02*
Y23764D01*
X6161Y21874D02*
Y23764D01*
X19362Y559D02*
Y4319D01*
X6110D02*
X19362D01*
X6110Y559D02*
Y4319D01*
Y559D02*
X19362D01*
X12539Y2468D02*
X12933D01*
X12736Y2272D02*
Y2665D01*
X6161Y9591D02*
X10374D01*
X6161Y7701D02*
X10374D01*
X6161D02*
Y9591D01*
X10374Y7701D02*
Y9591D01*
X11201Y31693D02*
Y32087D01*
X11005Y31890D02*
X11398D01*
X10355Y31467D02*
X12048D01*
X10355D02*
Y32313D01*
X12048D01*
Y31467D02*
Y32313D01*
X11201Y30869D02*
Y31263D01*
X11005Y31066D02*
X11398D01*
X10355Y30643D02*
X12048D01*
X10355D02*
Y31490D01*
X12048D01*
Y30643D02*
Y31490D01*
X26693Y30610D02*
X29606D01*
X26693Y28445D02*
X29606D01*
X26693D02*
Y30610D01*
X29606Y28445D02*
Y30610D01*
X22126Y28445D02*
Y30610D01*
X19213Y28445D02*
Y30610D01*
Y28445D02*
X22126D01*
X19213Y30610D02*
X22126D01*
X5728Y12648D02*
Y13337D01*
X4508D02*
X5728D01*
X4508Y12648D02*
Y13337D01*
Y12648D02*
X5728D01*
X4921Y12992D02*
X5315D01*
X5118Y12795D02*
Y13189D01*
X5728Y10285D02*
Y10974D01*
X4508D02*
X5728D01*
X4508Y10285D02*
Y10974D01*
Y10285D02*
X5728D01*
X4921Y10630D02*
X5315D01*
X5118Y10433D02*
Y10827D01*
Y8071D02*
Y8465D01*
X4921Y8268D02*
X5315D01*
X4508Y8612D02*
X5728D01*
Y7923D02*
Y8612D01*
X4508Y7923D02*
X5728D01*
X4508D02*
Y8612D01*
X5728Y20596D02*
Y21285D01*
X4508D02*
X5728D01*
X4508Y20596D02*
Y21285D01*
Y20596D02*
X5728D01*
X4921Y20941D02*
X5315D01*
X5118Y20744D02*
Y21138D01*
X5728Y15891D02*
Y16580D01*
X4508D02*
X5728D01*
X4508Y15891D02*
Y16580D01*
Y15891D02*
X5728D01*
X4921Y16235D02*
X5315D01*
X5118Y16038D02*
Y16432D01*
X5728Y18235D02*
Y18924D01*
X4508D02*
X5728D01*
X4508Y18235D02*
Y18924D01*
Y18235D02*
X5728D01*
X4921Y18580D02*
X5315D01*
X5118Y18383D02*
Y18777D01*
X5728Y22970D02*
Y23659D01*
X4508D02*
X5728D01*
X4508Y22970D02*
Y23659D01*
Y22970D02*
X5728D01*
X4921Y23314D02*
X5315D01*
X5118Y23118D02*
Y23511D01*
X6161Y17150D02*
Y19039D01*
X10374Y17150D02*
Y19039D01*
X6161D02*
X10374D01*
X6161Y17150D02*
X10374D01*
X6161Y19512D02*
Y21402D01*
X10374Y19512D02*
Y21402D01*
X6161D02*
X10374D01*
X6161Y19512D02*
X10374D01*
X6161Y14787D02*
Y16677D01*
X10374Y14787D02*
Y16677D01*
X6161D02*
X10374D01*
X6161Y14787D02*
X10374D01*
Y12425D02*
Y14315D01*
X6161Y12425D02*
Y14315D01*
Y12425D02*
X10374D01*
X6161Y14315D02*
X10374D01*
Y10063D02*
Y11953D01*
X6161Y10063D02*
Y11953D01*
Y10063D02*
X10374D01*
X6161Y11953D02*
X10374D01*
X13140Y19764D02*
X14813D01*
X13140Y21181D02*
X14813D01*
Y19764D02*
Y21181D01*
X13140Y19764D02*
Y21181D01*
X5728Y13435D02*
Y14124D01*
X4508D02*
X5728D01*
X4508Y13435D02*
Y14124D01*
Y13435D02*
X5728D01*
X4921Y13780D02*
X5315D01*
X5118Y13583D02*
Y13976D01*
Y11220D02*
Y11614D01*
X4921Y11417D02*
X5315D01*
X4508Y11762D02*
X5728D01*
Y11073D02*
Y11762D01*
X4508Y11073D02*
X5728D01*
X4508D02*
Y11762D01*
Y8711D02*
Y9400D01*
Y8711D02*
X5728D01*
Y9400D01*
X4508D02*
X5728D01*
X4921Y9055D02*
X5315D01*
X5118Y8858D02*
Y9252D01*
X15157Y20079D02*
X15551D01*
X15354Y19882D02*
Y20276D01*
X15699Y19468D02*
Y20689D01*
X15010Y19468D02*
X15699D01*
X15010D02*
Y20689D01*
X15699D01*
X15797D02*
X16486D01*
X15797Y19468D02*
Y20689D01*
Y19468D02*
X16486D01*
Y20689D01*
X16142Y19882D02*
Y20276D01*
X15945Y20079D02*
X16339D01*
X10610Y20522D02*
Y21211D01*
Y20522D02*
X11831D01*
Y21211D01*
X10610D02*
X11831D01*
X11024Y20866D02*
X11417D01*
X11220Y20669D02*
Y21063D01*
X15010Y15571D02*
X15699D01*
X15010Y14350D02*
Y15571D01*
Y14350D02*
X15699D01*
Y15571D01*
X15354Y14764D02*
Y15157D01*
X15157Y14961D02*
X15551D01*
X5167Y23071D02*
X5856D01*
X5167D02*
Y24291D01*
X5856D01*
Y23071D02*
Y24291D01*
X5512Y23484D02*
Y23878D01*
X5315Y23681D02*
X5709D01*
X6742Y23071D02*
X7431D01*
X6742D02*
Y24291D01*
X7431D01*
Y23071D02*
Y24291D01*
X7087Y23484D02*
Y23878D01*
X6890Y23681D02*
X7283D01*
X7530Y23071D02*
X8219D01*
X7530D02*
Y24291D01*
X8219D01*
Y23071D02*
Y24291D01*
X7874Y23484D02*
Y23878D01*
X7677Y23681D02*
X8071D01*
X18996Y31142D02*
X22736D01*
X18996Y28307D02*
Y31142D01*
Y28307D02*
X22736D01*
Y31142D01*
X20669Y29724D02*
X21063D01*
X20866Y29528D02*
Y29921D01*
X20846Y26033D02*
Y26722D01*
X22067D01*
Y26033D02*
Y26722D01*
X20846Y26033D02*
X22067D01*
X21260Y26378D02*
X21654D01*
X21457Y26181D02*
Y26575D01*
X13937Y32421D02*
X16378D01*
Y30571D02*
Y32421D01*
X13937Y30571D02*
X16378D01*
X13937D02*
Y32421D01*
X27461Y30472D02*
Y33307D01*
X24114Y30472D02*
Y33307D01*
X27461D01*
X24114Y30472D02*
X27461D01*
X29429Y28386D02*
X33169D01*
X29429Y25551D02*
Y28386D01*
Y25551D02*
X33169D01*
Y28386D01*
X31102Y26969D02*
X31496D01*
X31299Y26772D02*
Y27165D01*
X97047Y16339D02*
Y16732D01*
X96850Y16535D02*
X97244D01*
X96437Y16191D02*
X97657D01*
Y16880D01*
X96437D02*
X97657D01*
X96437Y16191D02*
Y16880D01*
X113189Y28937D02*
Y29331D01*
X112992Y29134D02*
X113386D01*
X112579Y28789D02*
X113799D01*
Y29478D01*
X112579D02*
X113799D01*
X112579Y28789D02*
Y29478D01*
X147047Y39961D02*
Y40354D01*
X146850Y40157D02*
X147244D01*
X144705Y45453D02*
X149390D01*
Y34862D02*
Y45453D01*
X144705Y34862D02*
X149390D01*
X144705D02*
Y45453D01*
X147047Y51575D02*
Y51968D01*
X146850Y51772D02*
X147244D01*
X144705Y46476D02*
X149390D01*
X144705D02*
Y57067D01*
X149390D01*
Y46476D02*
Y57067D01*
X93090Y16388D02*
Y17077D01*
X94311D01*
Y16388D02*
Y17077D01*
X93090Y16388D02*
X94311D01*
X93504Y16732D02*
X93898D01*
X93701Y16535D02*
Y16929D01*
X91388Y18720D02*
X92077D01*
Y17500D02*
Y18720D01*
X91388Y17500D02*
X92077D01*
X91388D02*
Y18720D01*
X91732Y17913D02*
Y18307D01*
X91535Y18110D02*
X91929D01*
X90600Y18720D02*
X91289D01*
Y17500D02*
Y18720D01*
X90600Y17500D02*
X91289D01*
X90600D02*
Y18720D01*
X90945Y17913D02*
Y18307D01*
X90748Y18110D02*
X91142D01*
X89222Y15925D02*
X89911D01*
X89222D02*
Y17146D01*
X89911D01*
Y15925D02*
Y17146D01*
X89567Y16339D02*
Y16732D01*
X89370Y16535D02*
X89764D01*
X89026Y22028D02*
X89715D01*
X89026D02*
Y23248D01*
X89715D01*
Y22028D02*
Y23248D01*
X89370Y22441D02*
Y22835D01*
X89173Y22638D02*
X89567D01*
X93037Y20915D02*
Y21604D01*
X94258D01*
Y20915D02*
Y21604D01*
X93037Y20915D02*
X94258D01*
X93451Y21260D02*
X93844D01*
X93648Y21063D02*
Y21457D01*
X101555Y23081D02*
Y23770D01*
X102776D01*
Y23081D02*
Y23770D01*
X101555Y23081D02*
X102776D01*
X101968Y23425D02*
X102362D01*
X102165Y23228D02*
Y23622D01*
X104430Y22063D02*
Y22752D01*
X103209Y22063D02*
X104430D01*
X103209D02*
Y22752D01*
X104430D01*
X103623Y22408D02*
X104017D01*
X103820Y22211D02*
Y22605D01*
X102844Y24075D02*
X105423D01*
X102844Y22776D02*
X105423D01*
Y24075D01*
X102844Y22776D02*
Y24075D01*
X99459Y29744D02*
X100148D01*
Y28524D02*
Y29744D01*
X99459Y28524D02*
X100148D01*
X99459D02*
Y29744D01*
X99803Y28937D02*
Y29331D01*
X99606Y29134D02*
X100000D01*
X97972Y28435D02*
Y31014D01*
X99272Y28435D02*
Y31014D01*
X97972D02*
X99272D01*
X97972Y28435D02*
X99272D01*
X98278Y26752D02*
X98967D01*
X98278D02*
Y27972D01*
X98967D01*
Y26752D02*
Y27972D01*
X98622Y27165D02*
Y27559D01*
X98425Y27362D02*
X98819D01*
X106939Y24390D02*
X107628D01*
X106939D02*
Y25610D01*
X107628D01*
Y24390D02*
Y25610D01*
X107283Y24803D02*
Y25197D01*
X107087Y25000D02*
X107480D01*
X103444Y31939D02*
Y32628D01*
X104665D01*
Y31939D02*
Y32628D01*
X103444Y31939D02*
X104665D01*
X103858Y32283D02*
X104251D01*
X104054Y32087D02*
Y32480D01*
X107677Y31299D02*
Y31693D01*
X107480Y31496D02*
X107874D01*
X107067Y31152D02*
X108287D01*
Y31841D01*
X107067D02*
X108287D01*
X107067Y31152D02*
Y31841D01*
X109035Y25246D02*
Y25935D01*
X110256D01*
Y25246D02*
Y25935D01*
X109035Y25246D02*
X110256D01*
X109449Y25591D02*
X109843D01*
X109646Y25394D02*
Y25787D01*
X108120Y28720D02*
X108809D01*
X108120D02*
Y29941D01*
X108809D01*
Y28720D02*
Y29941D01*
X108465Y29134D02*
Y29528D01*
X108268Y29331D02*
X108661D01*
X109862Y31939D02*
Y32628D01*
X108642Y31939D02*
X109862D01*
X108642D02*
Y32628D01*
X109862D01*
X109055Y32283D02*
X109449D01*
X109252Y32087D02*
Y32480D01*
X109350Y30787D02*
X111516D01*
X109350Y27874D02*
X111516D01*
X109350D02*
Y30787D01*
X111516Y27874D02*
Y30787D01*
X78346Y22441D02*
X78740D01*
X78543Y22244D02*
Y22638D01*
X78120Y21594D02*
Y23287D01*
Y21594D02*
X78967D01*
Y23287D01*
X78120D02*
X78967D01*
X77362Y21260D02*
X77756D01*
X77559Y21063D02*
Y21457D01*
X77136Y20413D02*
Y22106D01*
Y20413D02*
X77982D01*
Y22106D01*
X77136D02*
X77982D01*
X77362Y18898D02*
X77756D01*
X77559Y18701D02*
Y19094D01*
X77136Y18051D02*
Y19744D01*
Y18051D02*
X77982D01*
Y19744D01*
X77136D02*
X77982D01*
X83086Y22638D02*
Y23031D01*
X82889Y22835D02*
X83283D01*
X82476Y22490D02*
X83697D01*
Y23179D01*
X82476D02*
X83697D01*
X82476Y22490D02*
Y23179D01*
X84068Y20128D02*
Y20817D01*
X82848Y20128D02*
X84068D01*
X82848D02*
Y20817D01*
X84068D01*
X83261Y20472D02*
X83655D01*
X83458Y20276D02*
Y20669D01*
X82431Y20945D02*
X84104D01*
X82431Y22362D02*
X84104D01*
X82431Y20945D02*
Y22362D01*
X84104Y20945D02*
Y22362D01*
X80492Y20128D02*
Y20817D01*
X81713D01*
Y20128D02*
Y20817D01*
X80492Y20128D02*
X81713D01*
X80906Y20472D02*
X81299D01*
X81102Y20276D02*
Y20669D01*
X80463Y22362D02*
X82136D01*
X80463Y20945D02*
X82136D01*
Y22362D01*
X80463Y20945D02*
Y22362D01*
X80886Y22490D02*
Y23179D01*
X82106D01*
Y22490D02*
Y23179D01*
X80886Y22490D02*
X82106D01*
X81299Y22835D02*
X81693D01*
X81496Y22638D02*
Y23031D01*
X76024Y23406D02*
Y24626D01*
X74764Y23406D02*
Y24626D01*
X76024D01*
X74764Y23406D02*
X76024D01*
X76575Y24016D02*
X76968D01*
X76772Y23819D02*
Y24213D01*
X76427Y23406D02*
Y24626D01*
X77116D01*
Y23406D02*
Y24626D01*
X76427Y23406D02*
X77116D01*
X78199Y24626D02*
X78888D01*
Y23406D02*
Y24626D01*
X78199Y23406D02*
X78888D01*
X78199D02*
Y24626D01*
X78543Y23819D02*
Y24213D01*
X78346Y24016D02*
X78740D01*
X77776Y26033D02*
Y26722D01*
X76555Y26033D02*
X77776D01*
X76555D02*
Y26722D01*
X77776D01*
X76969Y26378D02*
X77362D01*
X77165Y26181D02*
Y26575D01*
X79311Y25630D02*
X82106D01*
X79311Y28701D02*
X82106D01*
X79311Y25630D02*
Y28701D01*
X82106Y25630D02*
Y28701D01*
X81545Y24626D02*
X82234D01*
X81545Y23406D02*
Y24626D01*
Y23406D02*
X82234D01*
Y24626D01*
X81890Y23819D02*
Y24213D01*
X81693Y24016D02*
X82087D01*
X84055D02*
X84449D01*
X84252Y23819D02*
Y24213D01*
X83907Y23406D02*
Y24626D01*
X84596D01*
Y23406D02*
Y24626D01*
X83907Y23406D02*
X84596D01*
X76555Y27608D02*
Y28297D01*
X77776D01*
Y27608D02*
Y28297D01*
X76555Y27608D02*
X77776D01*
X76968Y27953D02*
X77362D01*
X77165Y27756D02*
Y28150D01*
X82918Y30480D02*
X83607D01*
Y29260D02*
Y30480D01*
X82918Y29260D02*
X83607D01*
X82918D02*
Y30480D01*
X83263Y29673D02*
Y30067D01*
X83066Y29870D02*
X83460D01*
X80470Y30495D02*
X81159D01*
Y29274D02*
Y30495D01*
X80470Y29274D02*
X81159D01*
X80470D02*
Y30495D01*
X80815Y29688D02*
Y30082D01*
X80618Y29885D02*
X81012D01*
X83120Y24626D02*
X83809D01*
X83120Y23406D02*
Y24626D01*
Y23406D02*
X83809D01*
Y24626D01*
X83465Y23819D02*
Y24213D01*
X83268Y24016D02*
X83661D01*
X78209Y24970D02*
Y25817D01*
X76516D02*
X78209D01*
X76516Y24970D02*
Y25817D01*
Y24970D02*
X78209D01*
X77165Y25394D02*
X77559D01*
X77362Y25197D02*
Y25591D01*
X77530Y29478D02*
X78376D01*
Y31171D01*
X77530D02*
X78376D01*
X77530Y29478D02*
Y31171D01*
X77953Y30128D02*
Y30522D01*
X77756Y30325D02*
X78150D01*
X80758Y23406D02*
X81447D01*
Y24626D01*
X80758D02*
X81447D01*
X80758Y23406D02*
Y24626D01*
X81102Y23819D02*
Y24213D01*
X80906Y24016D02*
X81299D01*
X77411Y24620D02*
X78100D01*
X77411Y23399D02*
Y24620D01*
Y23399D02*
X78100D01*
Y24620D01*
X77756Y23813D02*
Y24206D01*
X77559Y24009D02*
X77953D01*
X76033Y29508D02*
X76722D01*
Y30728D01*
X76033D02*
X76722D01*
X76033Y29508D02*
Y30728D01*
X76378Y29921D02*
Y30315D01*
X76181Y30118D02*
X76575D01*
X82333Y23406D02*
X83022D01*
Y24626D01*
X82333D02*
X83022D01*
X82333Y23406D02*
Y24626D01*
X82677Y23819D02*
Y24213D01*
X82480Y24016D02*
X82874D01*
X75807Y28396D02*
Y29085D01*
X74587D02*
X75807D01*
X74587Y28396D02*
Y29085D01*
Y28396D02*
X75807D01*
X75000Y28740D02*
X75394D01*
X75197Y28543D02*
Y28937D01*
X74656Y24626D02*
X75344D01*
Y23406D02*
Y24626D01*
X74656Y23406D02*
X75344D01*
X74656D02*
Y24626D01*
X75000Y23819D02*
Y24213D01*
X74803Y24016D02*
X75197D01*
X83697Y22490D02*
Y23179D01*
X82476D02*
X83697D01*
X82476Y22490D02*
Y23179D01*
Y22490D02*
X83697D01*
X82889Y22835D02*
X83283D01*
X83086Y22638D02*
Y23031D01*
X82106Y22490D02*
Y23179D01*
X80886D02*
X82106D01*
X80886Y22490D02*
Y23179D01*
Y22490D02*
X82106D01*
X81299Y22835D02*
X81693D01*
X81496Y22638D02*
Y23031D01*
X73868Y23406D02*
X74557D01*
X73868D02*
Y24626D01*
X74557D01*
Y23406D02*
Y24626D01*
X74213Y23819D02*
Y24213D01*
X74016Y24016D02*
X74409D01*
X76575Y24213D02*
X76968D01*
X76772Y24016D02*
Y24409D01*
X76348Y23366D02*
Y25059D01*
Y23366D02*
X77195D01*
Y25059D01*
X76348D02*
X77195D01*
X82431Y22362D02*
X84104D01*
X82431Y20945D02*
X84104D01*
X82431D02*
Y22362D01*
X84104Y20945D02*
Y22362D01*
X80463Y20945D02*
X82136D01*
X80463Y22362D02*
X82136D01*
Y20945D02*
Y22362D01*
X80463Y20945D02*
Y22362D01*
X85108Y16604D02*
Y18218D01*
X83100Y16604D02*
Y18218D01*
Y16604D02*
X85108D01*
X83100Y18218D02*
X85108D01*
X43799Y6959D02*
Y7648D01*
X42579D02*
X43799D01*
X42579Y6959D02*
Y7648D01*
Y6959D02*
X43799D01*
X42992Y7303D02*
X43386D01*
X43189Y7106D02*
Y7500D01*
X41378Y9665D02*
Y13406D01*
X38543D02*
X41378D01*
X38543Y9665D02*
Y13406D01*
Y9665D02*
X41378D01*
X39961Y11339D02*
Y11732D01*
X39764Y11535D02*
X40157D01*
X40748Y6890D02*
X41142D01*
X40945Y6693D02*
Y7087D01*
X41289Y6280D02*
Y7500D01*
X40600D02*
X41289D01*
X40600Y6280D02*
Y7500D01*
Y6280D02*
X41289D01*
X95374Y42795D02*
X97539D01*
X95374Y39882D02*
X97539D01*
Y42795D01*
X95374Y39882D02*
Y42795D01*
X90453Y45394D02*
X92618D01*
X90453Y48307D02*
X92618D01*
X90453Y45394D02*
Y48307D01*
X92618Y45394D02*
Y48307D01*
X95374Y17638D02*
Y20551D01*
X93209Y17638D02*
Y20551D01*
Y17638D02*
X95374D01*
X93209Y20551D02*
X95374D01*
X100098Y17638D02*
Y20551D01*
X97933Y17638D02*
Y20551D01*
Y17638D02*
X100098D01*
X97933Y20551D02*
X100098D01*
X95148Y52449D02*
X101703D01*
X95148Y54713D02*
X101703D01*
X95148Y52449D02*
Y54713D01*
X101703Y52449D02*
Y54713D01*
X87274Y52449D02*
X93829D01*
X87274Y54713D02*
X93829D01*
X87274Y52449D02*
Y54713D01*
X93829Y52449D02*
Y54713D01*
X87274Y34953D02*
X93829D01*
X87274Y32689D02*
X93829D01*
Y34953D01*
X87274Y32689D02*
Y34953D01*
X95148D02*
X101703D01*
X95148Y32689D02*
X101703D01*
Y34953D01*
X95148Y32689D02*
Y34953D01*
X38797Y6198D02*
Y7615D01*
X40470Y6198D02*
Y7615D01*
X38797D02*
X40470D01*
X38797Y6198D02*
X40470D01*
X51083Y30965D02*
Y32382D01*
X52756Y30965D02*
Y32382D01*
X51083Y30965D02*
X52756D01*
X51083Y32382D02*
X52756D01*
X94655Y51781D02*
X95325D01*
X94655Y50443D02*
X95325D01*
Y51781D01*
X94655Y50443D02*
Y51781D01*
X87270Y51790D02*
X87940D01*
X87270Y50451D02*
X87940D01*
Y51790D01*
X87270Y50451D02*
Y51790D01*
X93366Y35615D02*
X94035D01*
X93366Y36954D02*
X94035D01*
X93366Y35615D02*
Y36954D01*
X94035Y35615D02*
Y36954D01*
X101048Y35815D02*
X101717D01*
X101048Y37154D02*
X101717D01*
X101048Y35815D02*
Y37154D01*
X101717Y35815D02*
Y37154D01*
X147531Y30768D02*
Y31161D01*
X147335Y30965D02*
X147728D01*
X146423Y34102D02*
X148640D01*
Y27827D02*
Y34102D01*
X146423Y27827D02*
X148640D01*
X146423D02*
Y34102D01*
X43642Y3437D02*
X44035D01*
X43839Y3240D02*
Y3634D01*
X40701Y2329D02*
Y4545D01*
X46976D01*
Y2329D02*
Y4545D01*
X40701Y2329D02*
X46976D01*
X142972Y18217D02*
X143366D01*
X143169Y18020D02*
Y18413D01*
X146307Y17108D02*
Y19325D01*
X140031Y17108D02*
X146307D01*
X140031D02*
Y19325D01*
X146307D01*
X142972Y14280D02*
X143366D01*
X143169Y14083D02*
Y14476D01*
X146307Y13171D02*
Y15388D01*
X140031Y13171D02*
X146307D01*
X140031D02*
Y15388D01*
X146307D01*
X85915Y18445D02*
Y19744D01*
X88494Y18445D02*
Y19744D01*
X85915Y18445D02*
X88494D01*
X85915Y19744D02*
X88494D01*
X88671Y20217D02*
Y21516D01*
X91250Y20217D02*
Y21516D01*
X88671Y20217D02*
X91250D01*
X88671Y21516D02*
X91250D01*
X48169Y42018D02*
X49468D01*
X48169Y44596D02*
X49468D01*
X48169Y42018D02*
Y44596D01*
X49468Y42018D02*
Y44596D01*
X8652Y61516D02*
X18436D01*
Y57579D02*
Y61516D01*
X8652Y57579D02*
X18436D01*
X8652D02*
Y61516D01*
X13347Y59548D02*
X13741D01*
X13544Y59351D02*
Y59744D01*
X8652Y57316D02*
X18436D01*
Y53379D02*
Y57316D01*
X8652Y53379D02*
X18436D01*
X8652D02*
Y57316D01*
X13347Y55348D02*
X13741D01*
X13544Y55151D02*
Y55544D01*
X35994Y8602D02*
X36841D01*
X35994D02*
Y10295D01*
X36841D01*
Y8602D02*
Y10295D01*
X36417Y9252D02*
Y9646D01*
X36220Y9449D02*
X36614D01*
X60039Y41339D02*
Y41732D01*
X59843Y41535D02*
X60236D01*
X59193Y41112D02*
X60886D01*
Y41959D01*
X59193D02*
X60886D01*
X59193Y41112D02*
Y41959D01*
X62402Y38780D02*
X62795D01*
X62598Y38583D02*
Y38976D01*
X62254Y38169D02*
Y39390D01*
Y38169D02*
X62943D01*
Y39390D01*
X62254D02*
X62943D01*
X49409Y26378D02*
Y26772D01*
X49213Y26575D02*
X49606D01*
X48563Y26998D02*
X50256D01*
X48563Y26152D02*
Y26998D01*
Y26152D02*
X50256D01*
Y26998D01*
X93648Y22800D02*
Y23194D01*
X93451Y22997D02*
X93844D01*
X93037Y22652D02*
X94258D01*
Y23341D01*
X93037D02*
X94258D01*
X93037Y22652D02*
Y23341D01*
X59429Y38150D02*
X60650D01*
X59429Y39409D02*
X60650D01*
X59429Y38150D02*
Y39409D01*
X60650Y38150D02*
Y39409D01*
X73425Y39370D02*
Y39764D01*
X73228Y39567D02*
X73622D01*
X72579Y39990D02*
X74272D01*
X72579Y39144D02*
Y39990D01*
Y39144D02*
X74272D01*
Y39990D01*
X51033Y30512D02*
X52904D01*
X51033Y28937D02*
X52904D01*
Y30512D01*
X51033Y28937D02*
Y30512D01*
X49409Y31102D02*
Y31496D01*
X49213Y31299D02*
X49606D01*
X48563Y30876D02*
X50256D01*
Y31722D01*
X48563D02*
X50256D01*
X48563Y30876D02*
Y31722D01*
X49409Y25394D02*
Y25787D01*
X49213Y25591D02*
X49606D01*
X48563Y25167D02*
X50256D01*
Y26014D01*
X48563D02*
X50256D01*
X48563Y25167D02*
Y26014D01*
X49409Y28937D02*
Y29331D01*
X49213Y29134D02*
X49606D01*
X48563Y29557D02*
X50256D01*
X48563Y28711D02*
Y29557D01*
Y28711D02*
X50256D01*
Y29557D01*
X108661Y22244D02*
Y22638D01*
X108465Y22441D02*
X108858D01*
X108051Y22096D02*
X109272D01*
Y22785D01*
X108051D02*
X109272D01*
X108051Y22096D02*
Y22785D01*
X108661Y23031D02*
Y23425D01*
X108465Y23228D02*
X108858D01*
X108051Y23573D02*
X109272D01*
X108051Y22884D02*
Y23573D01*
Y22884D02*
X109272D01*
Y23573D01*
X104590Y26726D02*
Y27120D01*
X104393Y26923D02*
X104787D01*
X103980Y26578D02*
X105200D01*
Y27267D01*
X103980D02*
X105200D01*
X103980Y26578D02*
Y27267D01*
X105520Y26566D02*
X105914D01*
X105717Y26370D02*
Y26763D01*
X106062Y25956D02*
Y27177D01*
X105373D02*
X106062D01*
X105373Y25956D02*
Y27177D01*
Y25956D02*
X106062D01*
X104528Y24409D02*
Y24803D01*
X104331Y24606D02*
X104724D01*
X103917Y24262D02*
X105138D01*
Y24951D01*
X103917D02*
X105138D01*
X103917Y24262D02*
Y24951D01*
X101181Y29921D02*
X101575D01*
X101378Y29724D02*
Y30118D01*
X101033Y29311D02*
Y30531D01*
Y29311D02*
X101722D01*
Y30531D01*
X101033D02*
X101722D01*
X104528Y25197D02*
Y25591D01*
X104331Y25394D02*
X104724D01*
X103917Y25049D02*
X105138D01*
Y25738D01*
X103917D02*
X105138D01*
X103917Y25049D02*
Y25738D01*
X101968Y29921D02*
X102362D01*
X102165Y29724D02*
Y30118D01*
X101821Y29311D02*
Y30531D01*
Y29311D02*
X102510D01*
Y30531D01*
X101821D02*
X102510D01*
X92323Y18110D02*
X92717D01*
X92520Y17913D02*
Y18307D01*
X92864Y17500D02*
Y18720D01*
X92175D02*
X92864D01*
X92175Y17500D02*
Y18720D01*
Y17500D02*
X92864D01*
X41535Y6890D02*
X41929D01*
X41732Y6693D02*
Y7087D01*
X41388Y6279D02*
Y7500D01*
Y6279D02*
X42077D01*
Y7500D01*
X41388D02*
X42077D01*
X43589Y6909D02*
X43983D01*
X43786Y6713D02*
Y7106D01*
X44130Y6299D02*
Y7520D01*
X43441D02*
X44130D01*
X43441Y6299D02*
Y7520D01*
Y6299D02*
X44130D01*
X35433Y9459D02*
X35827D01*
X35630Y9262D02*
Y9656D01*
X36053Y8612D02*
Y10305D01*
X35207D02*
X36053D01*
X35207Y8612D02*
Y10305D01*
Y8612D02*
X36053D01*
X60039Y39961D02*
Y40354D01*
X59843Y40157D02*
X60236D01*
X59193Y40581D02*
X60886D01*
X59193Y39734D02*
Y40581D01*
Y39734D02*
X60886D01*
Y40581D01*
X102362Y27953D02*
Y28346D01*
X102165Y28150D02*
X102559D01*
X101752Y28494D02*
X102972D01*
X101752Y27805D02*
Y28494D01*
Y27805D02*
X102972D01*
Y28494D01*
X101181Y26181D02*
Y26575D01*
X100984Y26378D02*
X101378D01*
X100571Y26033D02*
X101791D01*
Y26722D01*
X100571D02*
X101791D01*
X100571Y26033D02*
Y26722D01*
X102362Y26969D02*
Y27362D01*
X102165Y27165D02*
X102559D01*
X101752Y27510D02*
X102972D01*
X101752Y26821D02*
Y27510D01*
Y26821D02*
X102972D01*
Y27510D01*
X102362Y26181D02*
Y26575D01*
X102165Y26378D02*
X102559D01*
X101752Y26722D02*
X102972D01*
X101752Y26033D02*
Y26722D01*
Y26033D02*
X102972D01*
Y26722D01*
X90748Y16535D02*
X91142D01*
X90945Y16339D02*
Y16732D01*
X91289Y15925D02*
Y17146D01*
X90600D02*
X91289D01*
X90600Y15925D02*
Y17146D01*
Y15925D02*
X91289D01*
X91535Y16535D02*
X91929D01*
X91732Y16339D02*
Y16732D01*
X92077Y15925D02*
Y17146D01*
X91388D02*
X92077D01*
X91388Y15925D02*
Y17146D01*
Y15925D02*
X92077D01*
X96260Y21063D02*
Y21457D01*
X96063Y21260D02*
X96457D01*
X95650Y20915D02*
X96870D01*
Y21604D01*
X95650D02*
X96870D01*
X95650Y20915D02*
Y21604D01*
X97244Y19094D02*
X97638D01*
X97441Y18898D02*
Y19291D01*
X97785Y18484D02*
Y19705D01*
X97096D02*
X97785D01*
X97096Y18484D02*
Y19705D01*
Y18484D02*
X97785D01*
X99803Y15551D02*
Y15945D01*
X99606Y15748D02*
X100000D01*
X99193Y15404D02*
X100413D01*
Y16093D01*
X99193D02*
X100413D01*
X99193Y15404D02*
Y16093D01*
X61024Y38780D02*
X61417D01*
X61220Y38583D02*
Y38976D01*
X61565Y38169D02*
Y39390D01*
X60876D02*
X61565D01*
X60876Y38169D02*
Y39390D01*
Y38169D02*
X61565D01*
X45073Y30017D02*
X45467D01*
X45270Y29821D02*
Y30214D01*
X44532Y28521D02*
Y31514D01*
Y28521D02*
X46008D01*
Y31514D01*
X44532D02*
X46008D01*
X53543Y30512D02*
X53937D01*
X53740Y30315D02*
Y30709D01*
X54478Y29016D02*
Y32008D01*
X53002D02*
X54478D01*
X53002Y29016D02*
Y32008D01*
Y29016D02*
X54478D01*
X87598Y17126D02*
Y17520D01*
X87402Y17323D02*
X87795D01*
X86988Y17667D02*
X88209D01*
X86988Y16978D02*
Y17667D01*
Y16978D02*
X88209D01*
Y17667D01*
X90551Y22638D02*
X90945D01*
X90748Y22441D02*
Y22835D01*
X91093Y22028D02*
Y23248D01*
X90404D02*
X91093D01*
X90404Y22028D02*
Y23248D01*
Y22028D02*
X91093D01*
X92126Y20472D02*
X92520D01*
X92323Y20276D02*
Y20669D01*
X91978Y19862D02*
Y21083D01*
Y19862D02*
X92667D01*
Y21083D01*
X91978D02*
X92667D01*
X87598Y16339D02*
Y16732D01*
X87402Y16535D02*
X87795D01*
X86988Y16880D02*
X88209D01*
X86988Y16191D02*
Y16880D01*
Y16191D02*
X88209D01*
Y16880D01*
X86220Y20472D02*
X86614D01*
X86417Y20276D02*
Y20669D01*
X86073Y19862D02*
Y21083D01*
Y19862D02*
X86762D01*
Y21083D01*
X86073D02*
X86762D01*
X92126Y22638D02*
X92520D01*
X92323Y22441D02*
Y22835D01*
X91978Y22028D02*
Y23248D01*
Y22028D02*
X92667D01*
Y23248D01*
X91978D02*
X92667D01*
X87598Y17913D02*
Y18307D01*
X87402Y18110D02*
X87795D01*
X86988Y18455D02*
X88209D01*
X86988Y17766D02*
Y18455D01*
Y17766D02*
X88209D01*
Y18455D01*
X97835Y21850D02*
Y22244D01*
X97638Y22047D02*
X98032D01*
X97224Y22392D02*
X98445D01*
X97224Y21703D02*
Y22392D01*
Y21703D02*
X98445D01*
Y22392D01*
X101181Y25394D02*
Y25787D01*
X100984Y25591D02*
X101378D01*
X100571Y25246D02*
X101791D01*
Y25935D01*
X100571D02*
X101791D01*
X100571Y25246D02*
Y25935D01*
X46654Y30017D02*
X47047D01*
X46850Y29821D02*
Y30214D01*
X46112Y28521D02*
Y31514D01*
Y28521D02*
X47589D01*
Y31514D01*
X46112D02*
X47589D01*
X30709Y26772D02*
Y27165D01*
X30512Y26969D02*
X30906D01*
X29862Y27392D02*
X31555D01*
Y26545D02*
Y27392D01*
X29862Y26545D02*
X31555D01*
X29862D02*
Y27392D01*
X28543Y31496D02*
X28937D01*
X28740Y31299D02*
Y31693D01*
X29085Y30886D02*
Y32106D01*
X28396Y30886D02*
X29085D01*
X28396D02*
Y32106D01*
X29085D01*
X93110Y24409D02*
X93504D01*
X93307Y24213D02*
Y24606D01*
X92884Y23563D02*
Y25256D01*
X93730D01*
Y23563D02*
Y25256D01*
X92884Y23563D02*
X93730D01*
X17717Y29331D02*
Y29724D01*
X17520Y29528D02*
X17913D01*
X17106Y29872D02*
X18327D01*
Y29183D02*
Y29872D01*
X17106Y29183D02*
X18327D01*
X17106D02*
Y29872D01*
X17717Y28543D02*
Y28937D01*
X17520Y28740D02*
X17913D01*
X17106Y28396D02*
X18327D01*
X17106D02*
Y29085D01*
X18327D01*
Y28396D02*
Y29085D01*
X20669Y27756D02*
Y28150D01*
X20472Y27953D02*
X20866D01*
X20059Y27608D02*
X21280D01*
X20059D02*
Y28297D01*
X21280D01*
Y27608D02*
Y28297D01*
X96850Y20669D02*
X97244D01*
X97047Y20472D02*
Y20866D01*
X96624Y19823D02*
Y21516D01*
X97470D01*
Y19823D02*
Y21516D01*
X96624Y19823D02*
X97470D01*
X22244Y27756D02*
Y28150D01*
X22047Y27953D02*
X22441D01*
X21634Y27608D02*
X22854D01*
X21634D02*
Y28297D01*
X22854D01*
Y27608D02*
Y28297D01*
X35039Y32677D02*
Y33071D01*
X34843Y32874D02*
X35236D01*
X34193Y33297D02*
X35886D01*
Y32451D02*
Y33297D01*
X34193Y32451D02*
X35886D01*
X34193D02*
Y33297D01*
X32874Y31693D02*
Y32087D01*
X32677Y31890D02*
X33071D01*
X32264Y32234D02*
X33484D01*
Y31545D02*
Y32234D01*
X32264Y31545D02*
X33484D01*
X32264D02*
Y32234D01*
X25000Y29921D02*
Y30315D01*
X24803Y30118D02*
X25197D01*
X24390Y29774D02*
X25610D01*
X24390D02*
Y30463D01*
X25610D01*
Y29774D02*
Y30463D01*
X25000Y28740D02*
Y29134D01*
X24803Y28937D02*
X25197D01*
X24390Y28593D02*
X25610D01*
X24390D02*
Y29281D01*
X25610D01*
Y28593D02*
Y29281D01*
X25000Y30709D02*
Y31102D01*
X24803Y30906D02*
X25197D01*
X24390Y30561D02*
X25610D01*
X24390D02*
Y31250D01*
X25610D01*
Y30561D02*
Y31250D01*
X96063Y20669D02*
X96457D01*
X96260Y20472D02*
Y20866D01*
X95837Y19823D02*
Y21516D01*
X96683D01*
Y19823D02*
Y21516D01*
X95837Y19823D02*
X96683D01*
X35433Y6417D02*
X35827D01*
X35630Y6220D02*
Y6614D01*
X34213Y8287D02*
X37047D01*
X34213Y4547D02*
Y8287D01*
Y4547D02*
X37047D01*
Y8287D01*
X48425Y36417D02*
Y36811D01*
X48228Y36614D02*
X48622D01*
X46929Y35876D02*
X49921D01*
X46929D02*
Y37352D01*
X49921D01*
Y35876D02*
Y37352D01*
X48425Y38189D02*
Y38583D01*
X48228Y38386D02*
X48622D01*
X46929Y39124D02*
X49921D01*
Y37648D02*
Y39124D01*
X46929Y37648D02*
X49921D01*
X46929D02*
Y39124D01*
X48425Y39961D02*
Y40354D01*
X48228Y40157D02*
X48622D01*
X46929Y39419D02*
X49921D01*
X46929D02*
Y40896D01*
X49921D01*
Y39419D02*
Y40896D01*
X96260Y46850D02*
Y47244D01*
X96063Y47047D02*
X96457D01*
X94843Y45177D02*
X97677D01*
Y48917D01*
X94843D02*
X97677D01*
X94843Y45177D02*
Y48917D01*
X92756Y39862D02*
Y43602D01*
X89921Y39862D02*
X92756D01*
X89921D02*
Y43602D01*
X92756D01*
X91142Y41732D02*
X91535D01*
X91339Y41535D02*
Y41929D01*
X35039Y31693D02*
Y32087D01*
X34843Y31890D02*
X35236D01*
X34193Y31467D02*
X35886D01*
X34193D02*
Y32313D01*
X35886D01*
Y31467D02*
Y32313D01*
X21457Y26181D02*
Y26575D01*
X21260Y26378D02*
X21654D01*
X20846Y26033D02*
X22067D01*
X20846D02*
Y26722D01*
X22067D01*
Y26033D02*
Y26722D01*
X92323Y24409D02*
X92717D01*
X92520Y24213D02*
Y24606D01*
X92096Y23563D02*
Y25256D01*
X92943D01*
Y23563D02*
Y25256D01*
X92096Y23563D02*
X92943D01*
X50837Y53858D02*
X52313D01*
X50837Y50866D02*
Y53858D01*
Y50866D02*
X52313D01*
Y53858D01*
X51575Y52165D02*
Y52559D01*
X51378Y52362D02*
X51772D01*
X28543Y49213D02*
X28937D01*
X28740Y49016D02*
Y49409D01*
X29478Y47717D02*
Y50709D01*
X28002Y47717D02*
X29478D01*
X28002D02*
Y50709D01*
X29478D01*
X28543Y52362D02*
X28937D01*
X28740Y52165D02*
Y52559D01*
X29478Y50866D02*
Y53858D01*
X28002Y50866D02*
X29478D01*
X28002D02*
Y53858D01*
X29478D01*
X51378Y49213D02*
X51772D01*
X51575Y49016D02*
Y49409D01*
X52313Y47717D02*
Y50709D01*
X50837Y47717D02*
X52313D01*
X50837D02*
Y50709D01*
X52313D01*
X72067Y50610D02*
Y61201D01*
X76752D01*
Y50610D02*
Y61201D01*
X72067Y50610D02*
X76752D01*
X74213Y55906D02*
X74606D01*
X74409Y55709D02*
Y56102D01*
X16661Y30364D02*
X18953D01*
X16661D02*
Y32864D01*
X18953D01*
Y30364D02*
Y32864D01*
X17610Y31614D02*
X18004D01*
X17807Y31417D02*
Y31811D01*
X15374Y34665D02*
X25965D01*
X15374D02*
Y39350D01*
X25965D01*
Y34665D02*
Y39350D01*
X20669Y36811D02*
Y37205D01*
X20472Y37008D02*
X20866D01*
X137520Y217D02*
Y8051D01*
X140433D01*
Y217D02*
Y8051D01*
X137520Y217D02*
X140433D01*
X138780Y4134D02*
X139173D01*
X138976Y3937D02*
Y4331D01*
X137205Y217D02*
Y8051D01*
X134291Y217D02*
X137205D01*
X134291D02*
Y8051D01*
X137205D01*
X135551Y4134D02*
X135945D01*
X135748Y3937D02*
Y4331D01*
M02*
