G04*
G04 #@! TF.GenerationSoftware,Altium Limited,Altium Designer,20.2.6 (244)*
G04*
G04 Layer_Color=16711935*
%FSLAX24Y24*%
%MOIN*%
G70*
G04*
G04 #@! TF.SameCoordinates,8AECF8CF-BE68-462B-8B6A-8B8B687A0D7D*
G04*
G04*
G04 #@! TF.FilePolarity,Positive*
G04*
G01*
G75*
%ADD14C,0.0039*%
%ADD18C,0.0050*%
%ADD180R,0.1079X0.0211*%
%ADD181R,0.0211X0.1079*%
%ADD182R,0.1772X0.0285*%
D14*
X104291Y29764D02*
G03*
X104291Y29764I-197J0D01*
G01*
X10197Y10276D02*
G03*
X10197Y10276I-197J0D01*
G01*
X62756Y25197D02*
G03*
X62756Y25197I-197J0D01*
G01*
X7539Y23370D02*
G03*
X7539Y23370I-197J0D01*
G01*
X9390Y8094D02*
G03*
X9390Y8094I-197J0D01*
G01*
X28780Y28898D02*
G03*
X28780Y28898I-197J0D01*
G01*
X21299D02*
G03*
X21299Y28898I-197J0D01*
G01*
X7539Y18646D02*
G03*
X7539Y18646I-197J0D01*
G01*
Y21008D02*
G03*
X7539Y21008I-197J0D01*
G01*
Y16283D02*
G03*
X7539Y16283I-197J0D01*
G01*
X9390Y12819D02*
G03*
X9390Y12819I-197J0D01*
G01*
Y10457D02*
G03*
X9390Y10457I-197J0D01*
G01*
X110000Y29764D02*
G03*
X110000Y29764I-197J0D01*
G01*
X79961Y26673D02*
G03*
X79961Y26673I-197J0D01*
G01*
X97283Y41772D02*
G03*
X97283Y41772I-197J0D01*
G01*
X91102Y46417D02*
G03*
X91102Y46417I-197J0D01*
G01*
X93858Y19528D02*
G03*
X93858Y19528I-197J0D01*
G01*
X98583D02*
G03*
X98583Y19528I-197J0D01*
G01*
X15364Y10679D02*
Y11368D01*
X14163Y10679D02*
Y11368D01*
Y10679D02*
X15364D01*
X14163Y11368D02*
X15364D01*
X16742Y10679D02*
Y11368D01*
X15541Y10679D02*
Y11368D01*
Y10679D02*
X16742D01*
X15541Y11368D02*
X16742D01*
X14567Y12629D02*
X15354D01*
Y13121D01*
X14567D02*
X15354D01*
X14567Y12629D02*
Y13121D01*
Y13337D02*
Y13829D01*
X15354D01*
Y13337D02*
Y13829D01*
X14567Y13337D02*
X15354D01*
X12402Y8415D02*
X13189D01*
Y8907D01*
X12402D02*
X13189D01*
X12402Y8415D02*
Y8907D01*
Y9695D02*
X13189D01*
X12402Y9203D02*
Y9695D01*
Y9203D02*
X13189D01*
Y9695D01*
X12402Y9990D02*
X13189D01*
Y10482D01*
X12402D02*
X13189D01*
X12402Y9990D02*
Y10482D01*
X12402Y11270D02*
X13189D01*
X12402Y10778D02*
Y11270D01*
Y10778D02*
X13189D01*
Y11270D01*
X12402Y12057D02*
X13189D01*
X12402Y11565D02*
Y12057D01*
Y11565D02*
X13189D01*
Y12057D01*
X107037Y28937D02*
X107530D01*
X107037D02*
Y29724D01*
X107530D01*
Y28937D02*
Y29724D01*
X76919Y29724D02*
Y30512D01*
X77411D01*
Y29724D02*
Y30512D01*
X76919Y29724D02*
X77411D01*
X80739Y31391D02*
X81123Y31775D01*
X78958Y31391D02*
X80739D01*
X78958D02*
Y33556D01*
X80739D01*
X81123Y33172D01*
Y31775D02*
Y33172D01*
X2402Y15157D02*
Y20079D01*
X906Y15157D02*
X2402D01*
X906D02*
Y20079D01*
X906Y20079D02*
X2402D01*
X24028Y3986D02*
X29516D01*
X23280D02*
Y4183D01*
X24028D01*
Y3986D02*
Y4183D01*
X29516Y3986D02*
Y4183D01*
X30264D01*
Y3986D02*
Y4183D01*
X22094Y3986D02*
Y8219D01*
X31449D01*
Y3986D02*
Y8219D01*
X30264Y3986D02*
X31449D01*
X22094D02*
X23280D01*
X19858Y19134D02*
Y19293D01*
X19957Y19370D01*
X19563D02*
X19661Y19293D01*
Y19134D02*
X19858D01*
X19661D02*
Y19293D01*
X19563Y19370D02*
Y19843D01*
X19957Y19370D02*
Y19843D01*
Y22283D02*
Y22756D01*
X19563Y22283D02*
Y22756D01*
X19661Y22833D02*
Y22992D01*
X19858D01*
X19563Y22756D02*
X19661Y22833D01*
X19858D02*
X19957Y22756D01*
X19858Y22833D02*
Y22992D01*
X22563Y19370D02*
Y19843D01*
X22957Y19370D02*
Y19843D01*
X22858Y19134D02*
Y19293D01*
X22661Y19134D02*
X22858D01*
Y19293D02*
X22957Y19370D01*
X22563D02*
X22661Y19293D01*
Y19134D02*
Y19293D01*
X21858Y19134D02*
Y19293D01*
X21957Y19370D01*
X21563D02*
X21661Y19293D01*
Y19134D02*
X21858D01*
X21661D02*
Y19293D01*
X21563Y19370D02*
Y19843D01*
X21957Y19370D02*
Y19843D01*
Y22283D02*
Y22756D01*
X21563Y22283D02*
Y22756D01*
X21661Y22833D02*
Y22992D01*
X21858D01*
X21563Y22756D02*
X21661Y22833D01*
X21858D02*
X21957Y22756D01*
X21858Y22833D02*
Y22992D01*
X22563Y22283D02*
Y22756D01*
X22957Y22283D02*
Y22756D01*
X22858Y22833D02*
Y22992D01*
X22661D02*
X22858D01*
Y22833D02*
X22957Y22756D01*
X22563D02*
X22661Y22833D01*
Y22992D01*
X20858Y22833D02*
Y22992D01*
Y22833D02*
X20957Y22756D01*
X20563D02*
X20661Y22833D01*
Y22992D02*
X20858D01*
X20661Y22833D02*
Y22992D01*
X20563Y22283D02*
Y22756D01*
X20957Y22283D02*
Y22756D01*
Y19370D02*
Y19843D01*
X20563Y19370D02*
Y19843D01*
X20661Y19134D02*
Y19293D01*
Y19134D02*
X20858D01*
X20563Y19370D02*
X20661Y19293D01*
X20858D02*
X20957Y19370D01*
X20858Y19134D02*
Y19293D01*
X23445Y19843D02*
Y22283D01*
X19075D02*
X23445D01*
X19075Y19843D02*
Y22283D01*
Y19843D02*
X23445D01*
X19291Y18159D02*
X20079D01*
Y17667D02*
Y18159D01*
X19291Y17667D02*
X20079D01*
X19291D02*
Y18159D01*
Y17372D02*
X20079D01*
Y16880D02*
Y17372D01*
X19291Y16880D02*
X20079D01*
X19291D02*
Y17372D01*
X88594Y21457D02*
Y22008D01*
X89791Y21457D02*
Y22008D01*
X88594Y21457D02*
X89791D01*
X88594Y22008D02*
X89791D01*
X110994Y32787D02*
X117352D01*
Y34854D01*
X110994Y32787D02*
Y34854D01*
Y33594D02*
X117352D01*
X110994Y34854D02*
X117352D01*
X103120Y52547D02*
X109478D01*
X103120Y53807D02*
X109478D01*
Y52547D02*
Y54614D01*
X103120Y52547D02*
Y54614D01*
X109478D01*
X103120Y32787D02*
X109478D01*
Y34854D01*
X103120Y32787D02*
Y34854D01*
Y33594D02*
X109478D01*
X103120Y34854D02*
X109478D01*
X55778Y28917D02*
Y29744D01*
X55246Y28917D02*
Y29744D01*
X55778D01*
X55246Y28917D02*
X55778D01*
X56959D02*
Y29744D01*
X56427Y28917D02*
Y29744D01*
X56959D01*
X56427Y28917D02*
X56959D01*
X58140D02*
Y29744D01*
X57608Y28917D02*
Y29744D01*
X58140D01*
X57608Y28917D02*
X58140D01*
X59321D02*
Y29744D01*
X58789Y28917D02*
Y29744D01*
X59321D01*
X58789Y28917D02*
X59321D01*
X43848Y6299D02*
X44341D01*
X43848Y5512D02*
Y6299D01*
Y5512D02*
X44341D01*
Y6299D01*
X44439Y7874D02*
X44931D01*
X44439Y7087D02*
Y7874D01*
Y7087D02*
X44931D01*
Y7874D01*
X42224Y8563D02*
Y13484D01*
X37303Y8563D02*
Y13484D01*
X42224D01*
X37303Y8563D02*
X42224D01*
X100541Y17913D02*
X101033D01*
Y18701D01*
X100541D02*
X101033D01*
X100541Y17913D02*
Y18701D01*
Y19091D02*
X101033D01*
Y19879D01*
X100541D02*
X101033D01*
X100541Y19091D02*
Y19879D01*
X47783Y42522D02*
Y44093D01*
X46705Y42522D02*
Y44093D01*
X47783D01*
X46705Y42522D02*
X47783D01*
X64557Y27116D02*
X65758D01*
X64557Y26427D02*
X65758D01*
Y27116D01*
X64557Y26427D02*
Y27116D01*
X86524Y17014D02*
Y17802D01*
X87016D01*
Y17014D02*
Y17802D01*
X86524Y17014D02*
X87016D01*
X91122Y23150D02*
X92343D01*
Y22520D02*
Y23150D01*
X91122Y22520D02*
X92343D01*
X91122D02*
Y23150D01*
X102835Y17894D02*
Y19114D01*
X103465D01*
Y17894D02*
Y19114D01*
X102835Y17894D02*
X103465D01*
X103622D02*
Y19114D01*
X104252D01*
Y17894D02*
Y19114D01*
X103622Y17894D02*
X104252D01*
X102047D02*
Y19114D01*
X102677D01*
Y17894D02*
Y19114D01*
X102047Y17894D02*
X102677D01*
X103740Y30118D02*
X105709D01*
X103740Y28543D02*
X105709D01*
X103740D02*
Y30118D01*
X105709Y28543D02*
Y30118D01*
X107283Y26132D02*
X108071D01*
Y26624D01*
X107283D02*
X108071D01*
X107283Y26132D02*
Y26624D01*
X94784Y23701D02*
X96772D01*
X94173Y24311D02*
X94784Y23701D01*
X94173Y25689D02*
X94784Y26299D01*
X94173Y24311D02*
Y25689D01*
X94784Y26299D02*
X96772D01*
Y23701D02*
Y26299D01*
X27510Y31890D02*
X28002D01*
X27510Y31102D02*
Y31890D01*
Y31102D02*
X28002D01*
Y31890D01*
X40335Y26063D02*
Y26693D01*
X41555D01*
Y26063D02*
Y26693D01*
X40335Y26063D02*
X41555D01*
Y27047D02*
Y27677D01*
X40335Y27047D02*
X41555D01*
X40335D02*
Y27677D01*
X41555D01*
X37067Y26860D02*
X39705D01*
X37067Y28317D02*
X39705D01*
Y26860D02*
Y28317D01*
X37067Y26860D02*
Y28317D01*
X37677Y31595D02*
X38287Y32205D01*
X37677Y30217D02*
Y31595D01*
X38287Y29606D02*
X40276D01*
X37677Y30217D02*
X38287Y29606D01*
Y32205D02*
X40276D01*
Y29606D02*
Y32205D01*
X37461Y23189D02*
Y24449D01*
X34980Y23189D02*
X37461D01*
X34980D02*
Y24449D01*
X37461D01*
X71890Y36083D02*
Y36752D01*
X70630Y36083D02*
Y36752D01*
Y36083D02*
X71890D01*
X70630Y36752D02*
X71890D01*
X71870Y36102D02*
Y36732D01*
X70650Y36102D02*
X71870D01*
X70650D02*
Y36732D01*
X71870D01*
X70650Y35118D02*
Y35748D01*
X71870D01*
Y35118D02*
Y35748D01*
X70650Y35118D02*
X71870D01*
X68681D02*
Y35748D01*
X69902D01*
Y35118D02*
Y35748D01*
X68681Y35118D02*
X69902D01*
X52167Y28098D02*
X53738D01*
X52167Y27020D02*
X53738D01*
Y28098D01*
X52167Y27020D02*
Y28098D01*
Y25642D02*
X53738D01*
X52167Y26720D02*
X53738D01*
X52167Y25642D02*
Y26720D01*
X53738Y25642D02*
Y26720D01*
X89055Y23701D02*
Y26299D01*
Y23701D02*
X91043D01*
X91653Y24311D02*
Y25689D01*
X91043Y23701D02*
X91653Y24311D01*
X91043Y26299D02*
X91653Y25689D01*
X89055Y26299D02*
X91043D01*
X52844Y19980D02*
X54242D01*
X54626Y20364D01*
Y22146D01*
X52461D02*
X54626D01*
X52461Y20364D02*
Y22146D01*
Y20364D02*
X52844Y19980D01*
X51526Y21063D02*
X52018D01*
X51526Y20276D02*
Y21063D01*
Y20276D02*
X52018D01*
Y21063D01*
X51526D02*
X52018D01*
Y20276D02*
Y21063D01*
X51526Y20276D02*
X52018D01*
X51526D02*
Y21063D01*
X91122Y20551D02*
Y21181D01*
Y20551D02*
X92343D01*
Y21181D01*
X91122D02*
X92343D01*
X91122Y21535D02*
Y22165D01*
Y21535D02*
X92343D01*
Y22165D01*
X91122D02*
X92343D01*
X75002Y34894D02*
X76573D01*
X75002Y35972D02*
X76573D01*
X75002Y34894D02*
Y35972D01*
X76573Y34894D02*
Y35972D01*
X14321Y14360D02*
Y15561D01*
X13632Y14360D02*
Y15561D01*
Y14360D02*
X14321D01*
X13632Y15561D02*
X14321D01*
X5630Y5295D02*
Y6516D01*
X5000Y5295D02*
X5630D01*
X5000D02*
Y6516D01*
X5630D01*
X4646Y5295D02*
Y6516D01*
X4016Y5295D02*
X4646D01*
X4016D02*
Y6516D01*
X4646D01*
X14547Y12609D02*
Y13141D01*
X15374Y12609D02*
Y13141D01*
X14547D02*
X15374D01*
X14547Y12609D02*
X15374D01*
X12474Y12273D02*
Y13474D01*
X11785Y12273D02*
Y13474D01*
X12474D01*
X11785Y12273D02*
X12474D01*
X11614Y9055D02*
Y10630D01*
X9646Y9055D02*
Y10630D01*
Y9055D02*
X11614D01*
X9646Y10630D02*
X11614D01*
X71890Y39232D02*
Y39902D01*
X70630Y39232D02*
Y39902D01*
Y39232D02*
X71890D01*
X70630Y39902D02*
X71890D01*
X11959Y21850D02*
X12451D01*
Y21063D02*
Y21850D01*
X11959Y21063D02*
X12451D01*
X11959D02*
Y21850D01*
X51575Y39173D02*
X61811D01*
Y34843D02*
Y39173D01*
X51575Y34843D02*
X61811D01*
X51575D02*
Y39173D01*
X1181D02*
X11417D01*
Y34843D02*
Y39173D01*
X1181Y34843D02*
X11417D01*
X1181D02*
Y39173D01*
X27953Y34843D02*
X38189D01*
X27953D02*
Y39173D01*
X38189D01*
Y34843D02*
Y39173D01*
X62205Y22087D02*
X63780D01*
X62205Y25551D02*
X63780D01*
Y22087D02*
Y25551D01*
X62205Y22087D02*
Y25551D01*
X64911Y25000D02*
X65404D01*
Y24213D02*
Y25000D01*
X64911Y24213D02*
X65404D01*
X64911D02*
Y25000D01*
X58809Y31102D02*
X59301D01*
Y30315D02*
Y31102D01*
X58809Y30315D02*
X59301D01*
X58809D02*
Y31102D01*
X67274Y25000D02*
X67766D01*
X67274Y24213D02*
Y25000D01*
Y24213D02*
X67766D01*
Y25000D01*
X66093Y27362D02*
X66585D01*
X66093Y26575D02*
Y27362D01*
Y26575D02*
X66585D01*
Y27362D01*
X66486Y25000D02*
X66978D01*
X66486Y24213D02*
Y25000D01*
Y24213D02*
X66978D01*
Y25000D01*
X64764Y27608D02*
X65551D01*
X64764Y27116D02*
Y27608D01*
Y27116D02*
X65551D01*
Y27608D01*
X66191Y24213D02*
Y25000D01*
X65699D02*
X66191D01*
X65699Y24213D02*
Y25000D01*
Y24213D02*
X66191D01*
X57628Y31102D02*
X58120D01*
Y30315D02*
Y31102D01*
X57628Y30315D02*
X58120D01*
X57628D02*
Y31102D01*
X55266Y30315D02*
Y31102D01*
Y30315D02*
X55758D01*
Y31102D01*
X55266D02*
X55758D01*
X58612Y24213D02*
X59104D01*
X58612Y23425D02*
Y24213D01*
Y23425D02*
X59104D01*
Y24213D01*
X57825Y23425D02*
X58317D01*
Y24213D01*
X57825D02*
X58317D01*
X57825Y23425D02*
Y24213D01*
X65676Y21980D02*
X66463D01*
Y21488D02*
Y21980D01*
X65676Y21488D02*
X66463D01*
X65676D02*
Y21980D01*
X65551Y27904D02*
Y28396D01*
X64764Y27904D02*
X65551D01*
X64764D02*
Y28396D01*
X65551D01*
X67470Y22047D02*
Y22835D01*
Y22047D02*
X67963D01*
Y22835D01*
X67470D02*
X67963D01*
X56890Y26919D02*
X57677D01*
Y27411D01*
X56890D02*
X57677D01*
X56890Y26919D02*
Y27411D01*
X55856Y25000D02*
X56348D01*
Y25787D01*
X55856D02*
X56348D01*
X55856Y25000D02*
Y25787D01*
X67717Y22589D02*
X68504D01*
X67717D02*
Y23081D01*
X68504D01*
Y22589D02*
Y23081D01*
X65157Y20325D02*
X65945D01*
X65157Y19833D02*
Y20325D01*
Y19833D02*
X65945D01*
Y20325D01*
X55069Y23425D02*
Y24213D01*
Y23425D02*
X55561D01*
Y24213D01*
X55069D02*
X55561D01*
X56447Y31102D02*
X56939D01*
Y30315D02*
Y31102D01*
X56447Y30315D02*
X56939D01*
X56447D02*
Y31102D01*
X58071Y20030D02*
Y20522D01*
Y20030D02*
X58858D01*
Y20522D01*
X58071D02*
X58858D01*
X58465Y21801D02*
X59252D01*
Y22293D01*
X58465D02*
X59252D01*
X58465Y21801D02*
Y22293D01*
X56102Y20030D02*
Y20522D01*
Y20030D02*
X56890D01*
Y20522D01*
X56102D02*
X56890D01*
X57825Y22063D02*
X58317D01*
Y22850D01*
X57825D02*
X58317D01*
X57825Y22063D02*
Y22850D01*
X60059Y22067D02*
Y22559D01*
Y22067D02*
X60846D01*
Y22559D01*
X60059D02*
X60846D01*
X61984Y27795D02*
Y30079D01*
X64000D01*
Y27795D02*
Y30079D01*
X61984Y27795D02*
X64000D01*
X63380Y24407D02*
Y25096D01*
X64581Y24407D02*
Y25096D01*
X63380D02*
X64581D01*
X63380Y24407D02*
X64581D01*
X64321Y20266D02*
Y21467D01*
X63632Y20266D02*
Y21467D01*
X64321D01*
X63632Y20266D02*
X64321D01*
X57136Y25384D02*
Y26585D01*
X57825Y25384D02*
Y26585D01*
X57136Y25384D02*
X57825D01*
X57136Y26585D02*
X57825D01*
X56348Y23219D02*
X57037D01*
X56348Y24419D02*
X57037D01*
Y23219D02*
Y24419D01*
X56348Y23219D02*
Y24419D01*
X55955Y21053D02*
X56644D01*
X55955Y22254D02*
X56644D01*
Y21053D02*
Y22254D01*
X55955Y21053D02*
Y22254D01*
X64321Y20266D02*
Y21467D01*
X63632Y20266D02*
Y21467D01*
Y20266D02*
X64321D01*
X63632Y21467D02*
X64321D01*
X56348Y23219D02*
Y24419D01*
X57037Y23219D02*
Y24419D01*
X56348Y23219D02*
X57037D01*
X56348Y24419D02*
X57037D01*
X60236Y20246D02*
Y21447D01*
X60925Y20246D02*
Y21447D01*
X60236Y20246D02*
X60925D01*
X60236Y21447D02*
X60925D01*
X60236Y20246D02*
X60925D01*
X60236Y21447D02*
X60925D01*
Y20246D02*
Y21447D01*
X60236Y20246D02*
Y21447D01*
X74528Y42520D02*
X75079D01*
X74528Y43701D02*
X75079D01*
Y42520D02*
Y43701D01*
X74528Y42520D02*
Y43701D01*
X74055Y39232D02*
Y39902D01*
X72795Y39232D02*
Y39902D01*
Y39232D02*
X74055D01*
X72795Y39902D02*
X74055D01*
X62283Y38366D02*
X62913D01*
Y39587D01*
X62283D02*
X62913D01*
X62283Y38366D02*
Y39587D01*
X63268Y38366D02*
X63898D01*
Y39587D01*
X63268D02*
X63898D01*
X63268Y38366D02*
Y39587D01*
X71821Y45197D02*
X73041D01*
Y44567D02*
Y45197D01*
X71821Y44567D02*
X73041D01*
X71821D02*
Y45197D01*
X75413Y45354D02*
Y45984D01*
X74193D02*
X75413D01*
X74193Y45354D02*
Y45984D01*
Y45354D02*
X75413D01*
X72195Y43504D02*
X72687D01*
X72195Y42717D02*
Y43504D01*
Y42717D02*
X72687D01*
Y43504D01*
X72982Y42717D02*
X73474D01*
Y43504D01*
X72982D02*
X73474D01*
X72982Y42717D02*
Y43504D01*
X75413Y44370D02*
Y45000D01*
X74193D02*
X75413D01*
X74193Y44370D02*
Y45000D01*
Y44370D02*
X75413D01*
X71407Y42717D02*
X71900D01*
Y43504D01*
X71407D02*
X71900D01*
X71407Y42717D02*
Y43504D01*
X50020Y27441D02*
Y28071D01*
X48799Y27441D02*
X50020D01*
X48799D02*
Y28071D01*
X50020D01*
X15354Y19242D02*
Y19734D01*
X14567Y19242D02*
X15354D01*
X14567D02*
Y19734D01*
X15354D01*
Y20030D02*
Y20522D01*
X14567Y20030D02*
X15354D01*
X14567D02*
Y20522D01*
X15354D01*
X14567Y17963D02*
X15354D01*
X14567Y17470D02*
Y17963D01*
Y17470D02*
X15354D01*
Y17963D01*
X14567Y18750D02*
X15354D01*
X14567Y18258D02*
Y18750D01*
Y18258D02*
X15354D01*
Y18750D01*
X13632Y17510D02*
Y18711D01*
X14321Y17510D02*
Y18711D01*
X13632D02*
X14321D01*
X13632Y17510D02*
X14321D01*
X10827Y18258D02*
Y18750D01*
Y18258D02*
X11614D01*
Y18750D01*
X10827D02*
X11614D01*
X16683Y18169D02*
Y18957D01*
X17175D01*
Y18169D02*
Y18957D01*
X16683Y18169D02*
X17175D01*
X15108D02*
Y18957D01*
X15600D01*
Y18169D02*
Y18957D01*
X15108Y18169D02*
X15600D01*
X15896D02*
Y18957D01*
X16388D01*
Y18169D02*
Y18957D01*
X15896Y18169D02*
X16388D01*
X85433Y45226D02*
X86220D01*
X85433D02*
Y45718D01*
X86220D01*
Y45226D02*
Y45718D01*
X85433Y46014D02*
X86220D01*
X85433D02*
Y46506D01*
X86220D01*
Y46014D02*
Y46506D01*
X12451Y14961D02*
Y15748D01*
X11959D02*
X12451D01*
X11959Y14961D02*
Y15748D01*
Y14961D02*
X12451D01*
X11544Y21280D02*
X12096D01*
X11544Y22461D02*
X12096D01*
Y21280D02*
Y22461D01*
X11544Y21280D02*
Y22461D01*
X10786Y17274D02*
X11574D01*
X10786D02*
Y17766D01*
X11574D01*
Y17274D02*
Y17766D01*
Y19636D02*
Y20128D01*
X10786D02*
X11574D01*
X10786Y19636D02*
Y20128D01*
Y19636D02*
X11574D01*
X11544Y14350D02*
X12096D01*
X11544Y15531D02*
X12096D01*
Y14350D02*
Y15531D01*
X11544Y14350D02*
Y15531D01*
X11890Y24035D02*
X12520D01*
Y22815D02*
Y24035D01*
X11890Y22815D02*
X12520D01*
X11890D02*
Y24035D01*
X10906D02*
X11535D01*
Y22815D02*
Y24035D01*
X10906Y22815D02*
X11535D01*
X10906D02*
Y24035D01*
X6545Y23287D02*
Y24075D01*
X6053D02*
X6545D01*
X6053Y23287D02*
Y24075D01*
Y23287D02*
X6545D01*
X10786Y7904D02*
X11574D01*
X10786D02*
Y8396D01*
X11574D01*
Y7904D02*
Y8396D01*
X10786Y10261D02*
X11574D01*
X10786D02*
Y10753D01*
X11574D01*
Y10261D02*
Y10753D01*
Y12629D02*
Y13121D01*
X10786D02*
X11574D01*
X10786Y12629D02*
Y13121D01*
Y12629D02*
X11574D01*
X6988Y21913D02*
X9547D01*
X6988Y23724D02*
X9547D01*
Y21913D02*
Y23724D01*
X6988Y21913D02*
Y23724D01*
X6228Y726D02*
X19244D01*
X6228D02*
Y4211D01*
X19244D01*
Y726D02*
Y4211D01*
X6988Y9551D02*
X9547D01*
X6988Y7740D02*
X9547D01*
X6988D02*
Y9551D01*
X9547Y7740D02*
Y9551D01*
X10591Y31575D02*
X11812D01*
X10591D02*
Y32205D01*
X11812D01*
Y31575D02*
Y32205D01*
X10591Y30751D02*
X11812D01*
X10591D02*
Y31381D01*
X11812D01*
Y30751D02*
Y31381D01*
X27362Y30512D02*
X28937D01*
X27362Y28543D02*
X28937D01*
X27362D02*
Y30512D01*
X28937Y28543D02*
Y30512D01*
X21457Y28543D02*
Y30512D01*
X19882Y28543D02*
Y30512D01*
Y28543D02*
X21457D01*
X19882Y30512D02*
X21457D01*
X5512Y12746D02*
Y13238D01*
X4724D02*
X5512D01*
X4724Y12746D02*
Y13238D01*
Y12746D02*
X5512D01*
Y10384D02*
Y10876D01*
X4724D02*
X5512D01*
X4724Y10384D02*
Y10876D01*
Y10384D02*
X5512D01*
X4724Y8514D02*
X5512D01*
Y8022D02*
Y8514D01*
X4724Y8022D02*
X5512D01*
X4724D02*
Y8514D01*
X5512Y20695D02*
Y21187D01*
X4724D02*
X5512D01*
X4724Y20695D02*
Y21187D01*
Y20695D02*
X5512D01*
Y15989D02*
Y16481D01*
X4724D02*
X5512D01*
X4724Y15989D02*
Y16481D01*
Y15989D02*
X5512D01*
Y18334D02*
Y18826D01*
X4724D02*
X5512D01*
X4724Y18334D02*
Y18826D01*
Y18334D02*
X5512D01*
Y23068D02*
Y23560D01*
X4724D02*
X5512D01*
X4724Y23068D02*
Y23560D01*
Y23068D02*
X5512D01*
X6988Y17189D02*
Y19000D01*
X9547Y17189D02*
Y19000D01*
X6988D02*
X9547D01*
X6988Y17189D02*
X9547D01*
X6988Y19551D02*
Y21362D01*
X9547Y19551D02*
Y21362D01*
X6988D02*
X9547D01*
X6988Y19551D02*
X9547D01*
X6988Y14827D02*
Y16638D01*
X9547Y14827D02*
Y16638D01*
X6988D02*
X9547D01*
X6988Y14827D02*
X9547D01*
X9547Y12465D02*
Y14276D01*
X6988Y12465D02*
Y14276D01*
Y12465D02*
X9547D01*
X6988Y14276D02*
X9547D01*
Y10102D02*
Y11913D01*
X6988Y10102D02*
Y11913D01*
Y10102D02*
X9547D01*
X6988Y11913D02*
X9547D01*
X13632Y19872D02*
X14321D01*
X13632Y21073D02*
X14321D01*
Y19872D02*
Y21073D01*
X13632Y19872D02*
Y21073D01*
X5512Y13533D02*
Y14026D01*
X4724D02*
X5512D01*
X4724Y13533D02*
Y14026D01*
Y13533D02*
X5512D01*
X4724Y11663D02*
X5512D01*
Y11171D02*
Y11663D01*
X4724Y11171D02*
X5512D01*
X4724D02*
Y11663D01*
Y8809D02*
Y9301D01*
Y8809D02*
X5512D01*
Y9301D01*
X4724D02*
X5512D01*
X15600Y19685D02*
Y20472D01*
X15108Y19685D02*
X15600D01*
X15108D02*
Y20472D01*
X15600D01*
X15896D02*
X16388D01*
X15896Y19685D02*
Y20472D01*
Y19685D02*
X16388D01*
Y20472D01*
X10827Y20620D02*
Y21112D01*
Y20620D02*
X11614D01*
Y21112D01*
X10827D02*
X11614D01*
X15108Y15354D02*
X15600D01*
X15108Y14567D02*
Y15354D01*
Y14567D02*
X15600D01*
Y15354D01*
X5266Y23287D02*
X5758D01*
X5266D02*
Y24075D01*
X5758D01*
Y23287D02*
Y24075D01*
X6841Y23287D02*
X7333D01*
X6841D02*
Y24075D01*
X7333D01*
Y23287D02*
Y24075D01*
X7628Y23287D02*
X8120D01*
X7628D02*
Y24075D01*
X8120D01*
Y23287D02*
Y24075D01*
X22165Y28425D02*
Y31024D01*
X20177D02*
X22165D01*
X19567Y29035D02*
Y30413D01*
X20177Y31024D01*
X19567Y29035D02*
X20177Y28425D01*
X22165D01*
X21063Y26132D02*
Y26624D01*
X21850D01*
Y26132D02*
Y26624D01*
X21063Y26132D02*
X21850D01*
X14272Y30610D02*
Y32382D01*
Y30610D02*
X16043D01*
Y32382D01*
X14272D02*
X16043D01*
X26516Y30571D02*
Y33209D01*
X25059Y30571D02*
Y33209D01*
X26516D01*
X25059Y30571D02*
X26516D01*
X32598Y25669D02*
Y28268D01*
X30610D02*
X32598D01*
X30000Y26280D02*
Y27657D01*
X30610Y28268D01*
X30000Y26280D02*
X30610Y25669D01*
X32598D01*
X96654Y16289D02*
X97441D01*
Y16782D01*
X96654D02*
X97441D01*
X96654Y16289D02*
Y16782D01*
X112795Y28888D02*
X113583D01*
Y29380D01*
X112795D02*
X113583D01*
X112795Y28888D02*
Y29380D01*
X144882Y35039D02*
Y45276D01*
Y35039D02*
X149213D01*
Y45276D01*
X144882D02*
X149213D01*
Y46654D02*
Y56890D01*
X144882D02*
X149213D01*
X144882Y46654D02*
Y56890D01*
Y46654D02*
X149213D01*
X93307Y16486D02*
Y16978D01*
X94094D01*
Y16486D02*
Y16978D01*
X93307Y16486D02*
X94094D01*
X91486Y18504D02*
X91978D01*
Y17717D02*
Y18504D01*
X91486Y17717D02*
X91978D01*
X91486D02*
Y18504D01*
X90699D02*
X91191D01*
Y17717D02*
Y18504D01*
X90699Y17717D02*
X91191D01*
X90699D02*
Y18504D01*
X89321Y16142D02*
X89813D01*
X89321D02*
Y16929D01*
X89813D01*
Y16142D02*
Y16929D01*
X89124Y22244D02*
X89616D01*
X89124D02*
Y23031D01*
X89616D01*
Y22244D02*
Y23031D01*
X93254Y21014D02*
Y21506D01*
X94041D01*
Y21014D02*
Y21506D01*
X93254Y21014D02*
X94041D01*
X101772Y23179D02*
Y23671D01*
X102559D01*
Y23179D02*
Y23671D01*
X101772Y23179D02*
X102559D01*
X104213Y22162D02*
Y22654D01*
X103426Y22162D02*
X104213D01*
X103426D02*
Y22654D01*
X104213D01*
X103348Y23965D02*
X104919D01*
X103348Y22886D02*
X104919D01*
Y23965D01*
X103348Y22886D02*
Y23965D01*
X99557Y29528D02*
X100049D01*
Y28740D02*
Y29528D01*
X99557Y28740D02*
X100049D01*
X99557D02*
Y29528D01*
X98083Y28939D02*
Y30510D01*
X99161Y28939D02*
Y30510D01*
X98083D02*
X99161D01*
X98083Y28939D02*
X99161D01*
X98376Y26969D02*
X98868D01*
X98376D02*
Y27756D01*
X98868D01*
Y26969D02*
Y27756D01*
X107037Y24606D02*
X107530D01*
X107037D02*
Y25394D01*
X107530D01*
Y24606D02*
Y25394D01*
X103661Y32037D02*
Y32530D01*
X104448D01*
Y32037D02*
Y32530D01*
X103661Y32037D02*
X104448D01*
X107283Y31250D02*
X108071D01*
Y31742D01*
X107283D02*
X108071D01*
X107283Y31250D02*
Y31742D01*
X109252Y25344D02*
Y25837D01*
X110039D01*
Y25344D02*
Y25837D01*
X109252Y25344D02*
X110039D01*
X108218Y28937D02*
X108711D01*
X108218D02*
Y29724D01*
X108711D01*
Y28937D02*
Y29724D01*
X109646Y32037D02*
Y32530D01*
X108858Y32037D02*
X109646D01*
X108858D02*
Y32530D01*
X109646D01*
X109449Y30118D02*
X111417D01*
X109449Y28543D02*
X111417D01*
X109449D02*
Y30118D01*
X111417Y28543D02*
Y30118D01*
X78228Y21831D02*
Y23051D01*
Y21831D02*
X78858D01*
Y23051D01*
X78228D02*
X78858D01*
X77244Y20650D02*
Y21870D01*
Y20650D02*
X77874D01*
Y21870D01*
X77244D02*
X77874D01*
X77244Y18287D02*
Y19508D01*
Y18287D02*
X77874D01*
Y19508D01*
X77244D02*
X77874D01*
X82693Y22589D02*
X83480D01*
Y23081D01*
X82693D02*
X83480D01*
X82693Y22589D02*
Y23081D01*
X83852Y20226D02*
Y20719D01*
X83065Y20226D02*
X83852D01*
X83065D02*
Y20719D01*
X83852D01*
X82923Y21053D02*
X83612D01*
X82923Y22254D02*
X83612D01*
X82923Y21053D02*
Y22254D01*
X83612Y21053D02*
Y22254D01*
X80709Y20226D02*
Y20719D01*
X81496D01*
Y20226D02*
Y20719D01*
X80709Y20226D02*
X81496D01*
X80955Y22254D02*
X81644D01*
X80955Y21053D02*
X81644D01*
Y22254D01*
X80955Y21053D02*
Y22254D01*
X81102Y22589D02*
Y23081D01*
X81890D01*
Y22589D02*
Y23081D01*
X81102Y22589D02*
X81890D01*
X75984Y23740D02*
Y24291D01*
X74803Y23740D02*
Y24291D01*
X75984D01*
X74803Y23740D02*
X75984D01*
X76526Y23622D02*
Y24409D01*
X77018D01*
Y23622D02*
Y24409D01*
X76526Y23622D02*
X77018D01*
X78297Y24409D02*
X78789D01*
Y23622D02*
Y24409D01*
X78297Y23622D02*
X78789D01*
X78297D02*
Y24409D01*
X77559Y26132D02*
Y26624D01*
X76772Y26132D02*
X77559D01*
X76772D02*
Y26624D01*
X77559D01*
X79409Y26319D02*
X82008D01*
X79409Y28012D02*
X82008D01*
X79409Y26319D02*
Y28012D01*
X82008Y26319D02*
Y28012D01*
X81644Y24409D02*
X82136D01*
X81644Y23622D02*
Y24409D01*
Y23622D02*
X82136D01*
Y24409D01*
X84006Y23622D02*
Y24409D01*
X84498D01*
Y23622D02*
Y24409D01*
X84006Y23622D02*
X84498D01*
X76772Y27707D02*
Y28199D01*
X77559D01*
Y27707D02*
Y28199D01*
X76772Y27707D02*
X77559D01*
X83017Y30264D02*
X83509D01*
Y29476D02*
Y30264D01*
X83017Y29476D02*
X83509D01*
X83017D02*
Y30264D01*
X80569Y30278D02*
X81061D01*
Y29491D02*
Y30278D01*
X80569Y29491D02*
X81061D01*
X80569D02*
Y30278D01*
X83218Y24409D02*
X83711D01*
X83218Y23622D02*
Y24409D01*
Y23622D02*
X83711D01*
Y24409D01*
X77972Y25079D02*
Y25709D01*
X76752D02*
X77972D01*
X76752Y25079D02*
Y25709D01*
Y25079D02*
X77972D01*
X77638Y29715D02*
X78268D01*
Y30935D01*
X77638D02*
X78268D01*
X77638Y29715D02*
Y30935D01*
X80856Y23622D02*
X81348D01*
Y24409D01*
X80856D02*
X81348D01*
X80856Y23622D02*
Y24409D01*
X77510Y24403D02*
X78002D01*
X77510Y23616D02*
Y24403D01*
Y23616D02*
X78002D01*
Y24403D01*
X76132Y29724D02*
X76624D01*
Y30512D01*
X76132D02*
X76624D01*
X76132Y29724D02*
Y30512D01*
X82431Y23622D02*
X82923D01*
Y24409D01*
X82431D02*
X82923D01*
X82431Y23622D02*
Y24409D01*
X75591Y28494D02*
Y28986D01*
X74803D02*
X75591D01*
X74803Y28494D02*
Y28986D01*
Y28494D02*
X75591D01*
X74754Y24409D02*
X75246D01*
Y23622D02*
Y24409D01*
X74754Y23622D02*
X75246D01*
X74754D02*
Y24409D01*
X83480Y22589D02*
Y23081D01*
X82693D02*
X83480D01*
X82693Y22589D02*
Y23081D01*
Y22589D02*
X83480D01*
X81890D02*
Y23081D01*
X81102D02*
X81890D01*
X81102Y22589D02*
Y23081D01*
Y22589D02*
X81890D01*
X73967Y23622D02*
X74459D01*
X73967D02*
Y24409D01*
X74459D01*
Y23622D02*
Y24409D01*
X76457Y23602D02*
Y24823D01*
Y23602D02*
X77087D01*
Y24823D01*
X76457D02*
X77087D01*
X82923Y22254D02*
X83612D01*
X82923Y21053D02*
X83612D01*
X82923D02*
Y22254D01*
X83612Y21053D02*
Y22254D01*
X80955Y21053D02*
X81644D01*
X80955Y22254D02*
X81644D01*
Y21053D02*
Y22254D01*
X80955Y21053D02*
Y22254D01*
X84449Y16811D02*
Y18011D01*
X83760Y16811D02*
Y18011D01*
Y16811D02*
X84449D01*
X83760Y18011D02*
X84449D01*
X43583Y7057D02*
Y7549D01*
X42795D02*
X43583D01*
X42795Y7057D02*
Y7549D01*
Y7057D02*
X43583D01*
X38661Y10236D02*
X41260D01*
Y12224D01*
X39272Y12835D02*
X40650D01*
X41260Y12224D01*
X38661D02*
X39272Y12835D01*
X38661Y10236D02*
Y12224D01*
X41191Y6496D02*
Y7283D01*
X40699D02*
X41191D01*
X40699Y6496D02*
Y7283D01*
Y6496D02*
X41191D01*
X95472Y42126D02*
X97441D01*
X95472Y40551D02*
X97441D01*
Y42126D01*
X95472Y40551D02*
Y42126D01*
X90551Y46063D02*
X92520D01*
X90551Y47638D02*
X92520D01*
X90551Y46063D02*
Y47638D01*
X92520Y46063D02*
Y47638D01*
X95276Y18307D02*
Y19882D01*
X93307Y18307D02*
Y19882D01*
Y18307D02*
X95276D01*
X93307Y19882D02*
X95276D01*
X100000Y18307D02*
Y19882D01*
X98032Y18307D02*
Y19882D01*
Y18307D02*
X100000D01*
X98032Y19882D02*
X100000D01*
X95246Y52547D02*
X101604D01*
X95246Y54614D02*
X101604D01*
X95246Y52547D02*
Y54614D01*
X101604Y52547D02*
Y54614D01*
X95246Y53807D02*
X101604D01*
X87372Y52547D02*
X93730D01*
X87372Y54614D02*
X93730D01*
X87372Y52547D02*
Y54614D01*
X93730Y52547D02*
Y54614D01*
X87372Y53807D02*
X93730D01*
X87372Y34854D02*
X93730D01*
X87372Y32787D02*
X93730D01*
Y34854D01*
X87372Y32787D02*
Y34854D01*
Y33594D02*
X93730D01*
X95246Y34854D02*
X101604D01*
X95246Y32787D02*
X101604D01*
Y34854D01*
X95246Y32787D02*
Y34854D01*
Y33594D02*
X101604D01*
X39289Y6306D02*
Y7507D01*
X39978Y6306D02*
Y7507D01*
X39289D02*
X39978D01*
X39289Y6306D02*
X39978D01*
X51575Y31073D02*
Y32274D01*
X52264Y31073D02*
Y32274D01*
X51575Y31073D02*
X52264D01*
X51575Y32274D02*
X52264D01*
X94714Y51466D02*
X95265D01*
X94714Y50758D02*
X95265D01*
Y51466D01*
X94714Y50758D02*
Y51466D01*
X87329Y51475D02*
X87880D01*
X87329Y50766D02*
X87880D01*
Y51475D01*
X87329Y50766D02*
Y51475D01*
X93425Y35930D02*
X93976D01*
X93425Y36639D02*
X93976D01*
X93425Y35930D02*
Y36639D01*
X93976Y35930D02*
Y36639D01*
X101107Y36130D02*
X101658D01*
X101107Y36839D02*
X101658D01*
X101107Y36130D02*
Y36839D01*
X101658Y36130D02*
Y36839D01*
X146531Y27965D02*
Y33965D01*
Y27965D02*
X148532D01*
Y33965D01*
X146531D02*
X148532D01*
X40839Y2437D02*
X46839D01*
Y4437D01*
X40839D02*
X46839D01*
X40839Y2437D02*
Y4437D01*
X140169Y19217D02*
X146169D01*
X140169Y17217D02*
Y19217D01*
Y17217D02*
X146169D01*
Y19217D01*
X140169Y15280D02*
X146169D01*
X140169Y13280D02*
Y15280D01*
Y13280D02*
X146169D01*
Y15280D01*
X86419Y18555D02*
Y19634D01*
X87990Y18555D02*
Y19634D01*
X86419Y18555D02*
X87990D01*
X86419Y19634D02*
X87990D01*
X89175Y20327D02*
Y21406D01*
X90746Y20327D02*
Y21406D01*
X89175Y20327D02*
X90746D01*
X89175Y21406D02*
X90746D01*
X48280Y42522D02*
X49358D01*
X48280Y44093D02*
X49358D01*
X48280Y42522D02*
Y44093D01*
X49358Y42522D02*
Y44093D01*
X9135Y61437D02*
X17954D01*
Y57658D02*
Y61437D01*
X9135Y57658D02*
X17954D01*
X9135D02*
Y61437D01*
X9135Y57237D02*
X17954D01*
Y53458D02*
Y57237D01*
X9135Y53458D02*
X17954D01*
X9135D02*
Y57237D01*
X36102Y8839D02*
X36732D01*
X36102D02*
Y10059D01*
X36732D01*
Y8839D02*
Y10059D01*
X59429Y41220D02*
X60650D01*
Y41850D01*
X59429D02*
X60650D01*
X59429Y41220D02*
Y41850D01*
X62352Y38386D02*
Y39173D01*
Y38386D02*
X62844D01*
Y39173D01*
X62352D02*
X62844D01*
X48799Y26890D02*
X50020D01*
X48799Y26260D02*
Y26890D01*
Y26260D02*
X50020D01*
Y26890D01*
X93254Y22751D02*
X94041D01*
Y23243D01*
X93254D02*
X94041D01*
X93254Y22751D02*
Y23243D01*
X59764Y38189D02*
X60315D01*
X59764Y39370D02*
X60315D01*
X59764Y38189D02*
Y39370D01*
X60315Y38189D02*
Y39370D01*
X72815Y39882D02*
X74035D01*
X72815Y39252D02*
Y39882D01*
Y39252D02*
X74035D01*
Y39882D01*
X51693Y30323D02*
X52244D01*
X51693Y29126D02*
X52244D01*
Y30323D01*
X51693Y29126D02*
Y30323D01*
X48799Y30984D02*
X50020D01*
Y31614D01*
X48799D02*
X50020D01*
X48799Y30984D02*
Y31614D01*
Y25276D02*
X50020D01*
Y25906D01*
X48799D02*
X50020D01*
X48799Y25276D02*
Y25906D01*
Y29449D02*
X50020D01*
X48799Y28819D02*
Y29449D01*
Y28819D02*
X50020D01*
Y29449D01*
X108268Y22195D02*
X109055D01*
Y22687D01*
X108268D02*
X109055D01*
X108268Y22195D02*
Y22687D01*
Y23474D02*
X109055D01*
X108268Y22982D02*
Y23474D01*
Y22982D02*
X109055D01*
Y23474D01*
X104196Y26677D02*
X104983D01*
Y27169D01*
X104196D02*
X104983D01*
X104196Y26677D02*
Y27169D01*
X105963Y26173D02*
Y26960D01*
X105471D02*
X105963D01*
X105471Y26173D02*
Y26960D01*
Y26173D02*
X105963D01*
X104134Y24360D02*
X104921D01*
Y24852D01*
X104134D02*
X104921D01*
X104134Y24360D02*
Y24852D01*
X101132Y29528D02*
Y30315D01*
Y29528D02*
X101624D01*
Y30315D01*
X101132D02*
X101624D01*
X104134Y25148D02*
X104921D01*
Y25640D01*
X104134D02*
X104921D01*
X104134Y25148D02*
Y25640D01*
X101919Y29528D02*
Y30315D01*
Y29528D02*
X102411D01*
Y30315D01*
X101919D02*
X102411D01*
X92766Y17717D02*
Y18504D01*
X92274D02*
X92766D01*
X92274Y17717D02*
Y18504D01*
Y17717D02*
X92766D01*
X41486Y6496D02*
Y7283D01*
Y6496D02*
X41978D01*
Y7283D01*
X41486D02*
X41978D01*
X44032Y6516D02*
Y7303D01*
X43540D02*
X44032D01*
X43540Y6516D02*
Y7303D01*
Y6516D02*
X44032D01*
X35945Y8848D02*
Y10069D01*
X35315D02*
X35945D01*
X35315Y8848D02*
Y10069D01*
Y8848D02*
X35945D01*
X59429Y40472D02*
X60650D01*
X59429Y39843D02*
Y40472D01*
Y39843D02*
X60650D01*
Y40472D01*
X101968Y28396D02*
X102756D01*
X101968Y27904D02*
Y28396D01*
Y27904D02*
X102756D01*
Y28396D01*
X100787Y26132D02*
X101575D01*
Y26624D01*
X100787D02*
X101575D01*
X100787Y26132D02*
Y26624D01*
X101968Y27411D02*
X102756D01*
X101968Y26919D02*
Y27411D01*
Y26919D02*
X102756D01*
Y27411D01*
X101968Y26624D02*
X102756D01*
X101968Y26132D02*
Y26624D01*
Y26132D02*
X102756D01*
Y26624D01*
X91191Y16142D02*
Y16929D01*
X90699D02*
X91191D01*
X90699Y16142D02*
Y16929D01*
Y16142D02*
X91191D01*
X91978D02*
Y16929D01*
X91486D02*
X91978D01*
X91486Y16142D02*
Y16929D01*
Y16142D02*
X91978D01*
X95866Y21014D02*
X96654D01*
Y21506D01*
X95866D02*
X96654D01*
X95866Y21014D02*
Y21506D01*
X97687Y18701D02*
Y19488D01*
X97195D02*
X97687D01*
X97195Y18701D02*
Y19488D01*
Y18701D02*
X97687D01*
X99409Y15502D02*
X100197D01*
Y15994D01*
X99409D02*
X100197D01*
X99409Y15502D02*
Y15994D01*
X61467Y38386D02*
Y39173D01*
X60974D02*
X61467D01*
X60974Y38386D02*
Y39173D01*
Y38386D02*
X61467D01*
X44640Y28777D02*
Y31258D01*
Y28777D02*
X45900D01*
Y31258D01*
X44640D02*
X45900D01*
X54370Y29272D02*
Y31752D01*
X53110D02*
X54370D01*
X53110Y29272D02*
Y31752D01*
Y29272D02*
X54370D01*
X87205Y17569D02*
X87992D01*
X87205Y17077D02*
Y17569D01*
Y17077D02*
X87992D01*
Y17569D01*
X90994Y22244D02*
Y23031D01*
X90502D02*
X90994D01*
X90502Y22244D02*
Y23031D01*
Y22244D02*
X90994D01*
X92077Y20079D02*
Y20866D01*
Y20079D02*
X92569D01*
Y20866D01*
X92077D02*
X92569D01*
X87205Y16782D02*
X87992D01*
X87205Y16289D02*
Y16782D01*
Y16289D02*
X87992D01*
Y16782D01*
X86171Y20079D02*
Y20866D01*
Y20079D02*
X86663D01*
Y20866D01*
X86171D02*
X86663D01*
X92077Y22244D02*
Y23031D01*
Y22244D02*
X92569D01*
Y23031D01*
X92077D02*
X92569D01*
X87205Y18356D02*
X87992D01*
X87205Y17864D02*
Y18356D01*
Y17864D02*
X87992D01*
Y18356D01*
X97441Y22293D02*
X98228D01*
X97441Y21801D02*
Y22293D01*
Y21801D02*
X98228D01*
Y22293D01*
X100787Y25344D02*
X101575D01*
Y25837D01*
X100787D02*
X101575D01*
X100787Y25344D02*
Y25837D01*
X46220Y28777D02*
Y31258D01*
Y28777D02*
X47480D01*
Y31258D01*
X46220D02*
X47480D01*
X30098Y27283D02*
X31319D01*
Y26654D02*
Y27283D01*
X30098Y26654D02*
X31319D01*
X30098D02*
Y27283D01*
X28986Y31102D02*
Y31890D01*
X28494Y31102D02*
X28986D01*
X28494D02*
Y31890D01*
X28986D01*
X92992Y23799D02*
Y25020D01*
X93622D01*
Y23799D02*
Y25020D01*
X92992Y23799D02*
X93622D01*
X17323Y29774D02*
X18110D01*
Y29281D02*
Y29774D01*
X17323Y29281D02*
X18110D01*
X17323D02*
Y29774D01*
Y28494D02*
X18110D01*
X17323D02*
Y28986D01*
X18110D01*
Y28494D02*
Y28986D01*
X20276Y27707D02*
X21063D01*
X20276D02*
Y28199D01*
X21063D01*
Y27707D02*
Y28199D01*
X96732Y20059D02*
Y21280D01*
X97362D01*
Y20059D02*
Y21280D01*
X96732Y20059D02*
X97362D01*
X21850Y27707D02*
X22638D01*
X21850D02*
Y28199D01*
X22638D01*
Y27707D02*
Y28199D01*
X34429Y33189D02*
X35650D01*
Y32559D02*
Y33189D01*
X34429Y32559D02*
X35650D01*
X34429D02*
Y33189D01*
X32480Y32136D02*
X33268D01*
Y31644D02*
Y32136D01*
X32480Y31644D02*
X33268D01*
X32480D02*
Y32136D01*
X24606Y29872D02*
X25394D01*
X24606D02*
Y30364D01*
X25394D01*
Y29872D02*
Y30364D01*
X24606Y28691D02*
X25394D01*
X24606D02*
Y29183D01*
X25394D01*
Y28691D02*
Y29183D01*
X24606Y30659D02*
X25394D01*
X24606D02*
Y31152D01*
X25394D01*
Y30659D02*
Y31152D01*
X95945Y20059D02*
Y21280D01*
X96575D01*
Y20059D02*
Y21280D01*
X95945Y20059D02*
X96575D01*
X34331Y5728D02*
Y7717D01*
Y5728D02*
X34941Y5118D01*
X36319D02*
X36929Y5728D01*
X34941Y5118D02*
X36319D01*
X36929Y5728D02*
Y7717D01*
X34331D02*
X36929D01*
X47185Y35984D02*
X49665D01*
X47185D02*
Y37244D01*
X49665D01*
Y35984D02*
Y37244D01*
X47185Y39016D02*
X49665D01*
Y37756D02*
Y39016D01*
X47185Y37756D02*
X49665D01*
X47185D02*
Y39016D01*
Y39528D02*
X49665D01*
X47185D02*
Y40787D01*
X49665D01*
Y39528D02*
Y40787D01*
X94961Y45748D02*
X97559D01*
X94961D02*
Y47736D01*
X95571Y48346D01*
X96949D02*
X97559Y47736D01*
Y45748D02*
Y47736D01*
X95571Y48346D02*
X96949D01*
X90650Y40433D02*
X92028D01*
X90039Y41043D02*
Y43032D01*
Y41043D02*
X90650Y40433D01*
X92028D02*
X92638Y41043D01*
Y43032D01*
X90039D02*
X92638D01*
X34429Y31575D02*
X35650D01*
X34429D02*
Y32205D01*
X35650D01*
Y31575D02*
Y32205D01*
X21063Y26132D02*
X21850D01*
X21063D02*
Y26624D01*
X21850D01*
Y26132D02*
Y26624D01*
X92205Y23799D02*
Y25020D01*
X92835D01*
Y23799D02*
Y25020D01*
X92205Y23799D02*
X92835D01*
X50945Y53602D02*
X52205D01*
X50945Y51122D02*
Y53602D01*
Y51122D02*
X52205D01*
Y53602D01*
X29370Y47972D02*
Y50453D01*
X28110Y47972D02*
X29370D01*
X28110D02*
Y50453D01*
X29370D01*
Y51122D02*
Y53602D01*
X28110Y51122D02*
X29370D01*
X28110D02*
Y53602D01*
X29370D01*
X52205Y47972D02*
Y50453D01*
X50945Y47972D02*
X52205D01*
X50945D02*
Y50453D01*
X52205D01*
X72244Y50787D02*
X76575D01*
Y61024D01*
X72244D02*
X76575D01*
X72244Y50787D02*
Y61024D01*
X16799Y32756D02*
X18815D01*
X16799Y30472D02*
Y32756D01*
Y30472D02*
X18815D01*
Y32756D01*
X25787Y34843D02*
Y39173D01*
X15551D02*
X25787D01*
X15551Y34843D02*
Y39173D01*
Y34843D02*
X25787D01*
X137795Y591D02*
Y7677D01*
X140157D01*
Y591D02*
Y7677D01*
X137795Y591D02*
X140157D01*
X136929D02*
Y7677D01*
X134567Y591D02*
X136929D01*
X134567D02*
Y7677D01*
X136929D01*
D18*
X119650Y36220D02*
X125161D01*
X119650D02*
Y44622D01*
X125161D01*
Y36220D02*
Y44622D01*
X105394Y17402D02*
X113795D01*
Y22913D01*
X105394D02*
X113795D01*
X105394Y17402D02*
Y22913D01*
X22975Y20044D02*
X23008Y20060D01*
X23041Y20094D01*
X23058Y20127D01*
X23075Y20177D01*
Y20260D01*
X23058Y20310D01*
X23041Y20344D01*
X23008Y20377D01*
X22975Y20394D01*
X22908D01*
X22875Y20377D01*
X22842Y20344D01*
X22825Y20310D01*
X22808Y20260D01*
Y20177D01*
X22825Y20127D01*
X22842Y20094D01*
X22875Y20060D01*
X22908Y20044D01*
X22975D01*
X22727D02*
Y20394D01*
Y20044D02*
X22493Y20394D01*
Y20044D02*
Y20394D01*
D180*
X47244Y43987D02*
D03*
X98622Y30404D02*
D03*
X48819Y43987D02*
D03*
D181*
X53633Y27559D02*
D03*
X52273Y26181D02*
D03*
X75108Y35433D02*
D03*
X104814Y23425D02*
D03*
X87885Y19094D02*
D03*
X90640Y20866D02*
D03*
D182*
X12736Y4068D02*
D03*
M02*
