G04*
G04 #@! TF.GenerationSoftware,Altium Limited,Altium Designer,20.2.6 (244)*
G04*
G04 Layer_Color=16711935*
%FSLAX24Y24*%
%MOIN*%
G70*
G04*
G04 #@! TF.SameCoordinates,8AECF8CF-BE68-462B-8B6A-8B8B687A0D7D*
G04*
G04*
G04 #@! TF.FilePolarity,Negative*
G04*
G01*
G75*
%ADD56C,0.0512*%
%ADD57R,0.0839X0.0639*%
%ADD58R,0.0531X0.0315*%
%ADD61R,0.0315X0.0531*%
%ADD62R,0.0639X0.0839*%
%ADD66R,0.0827X0.1004*%
%ADD67R,0.0276X0.0433*%
%ADD68R,0.0374X0.0669*%
%ADD69R,0.0669X0.0374*%
%ADD70R,0.0439X0.0639*%
%ADD72R,0.0639X0.0439*%
%ADD74R,0.0433X0.0276*%
%ADD77R,0.0394X0.0354*%
G04:AMPARAMS|DCode=83|XSize=29.5mil|YSize=51.2mil|CornerRadius=3.9mil|HoleSize=0mil|Usage=FLASHONLY|Rotation=270.000|XOffset=0mil|YOffset=0mil|HoleType=Round|Shape=RoundedRectangle|*
%AMROUNDEDRECTD83*
21,1,0.0295,0.0434,0,0,270.0*
21,1,0.0218,0.0512,0,0,270.0*
1,1,0.0078,-0.0217,-0.0109*
1,1,0.0078,-0.0217,0.0109*
1,1,0.0078,0.0217,0.0109*
1,1,0.0078,0.0217,-0.0109*
%
%ADD83ROUNDEDRECTD83*%
%ADD84O,0.0276X0.0610*%
%ADD86R,0.0669X0.1417*%
%ADD87R,0.0433X0.1299*%
%ADD88R,0.1299X0.0433*%
%ADD89R,0.0630X0.0630*%
%ADD90C,0.0630*%
%ADD91C,0.1102*%
%ADD92R,0.1102X0.1102*%
G04:AMPARAMS|DCode=93|XSize=555.1mil|YSize=129.9mil|CornerRadius=33.5mil|HoleSize=0mil|Usage=FLASHONLY|Rotation=270.000|XOffset=0mil|YOffset=0mil|HoleType=Round|Shape=RoundedRectangle|*
%AMROUNDEDRECTD93*
21,1,0.5551,0.0630,0,0,270.0*
21,1,0.4882,0.1299,0,0,270.0*
1,1,0.0669,-0.0315,-0.2441*
1,1,0.0669,-0.0315,0.2441*
1,1,0.0669,0.0315,0.2441*
1,1,0.0669,0.0315,-0.2441*
%
%ADD93ROUNDEDRECTD93*%
%ADD94C,0.1024*%
G04:AMPARAMS|DCode=95|XSize=358.3mil|YSize=129.9mil|CornerRadius=33.5mil|HoleSize=0mil|Usage=FLASHONLY|Rotation=270.000|XOffset=0mil|YOffset=0mil|HoleType=Round|Shape=RoundedRectangle|*
%AMROUNDEDRECTD95*
21,1,0.3583,0.0630,0,0,270.0*
21,1,0.2913,0.1299,0,0,270.0*
1,1,0.0669,-0.0315,-0.1457*
1,1,0.0669,-0.0315,0.1457*
1,1,0.0669,0.0315,0.1457*
1,1,0.0669,0.0315,-0.1457*
%
%ADD95ROUNDEDRECTD95*%
G04:AMPARAMS|DCode=96|XSize=358.3mil|YSize=240.2mil|CornerRadius=61mil|HoleSize=0mil|Usage=FLASHONLY|Rotation=180.000|XOffset=0mil|YOffset=0mil|HoleType=Round|Shape=RoundedRectangle|*
%AMROUNDEDRECTD96*
21,1,0.3583,0.1181,0,0,180.0*
21,1,0.2362,0.2402,0,0,180.0*
1,1,0.1220,-0.1181,0.0591*
1,1,0.1220,0.1181,0.0591*
1,1,0.1220,0.1181,-0.0591*
1,1,0.1220,-0.1181,-0.0591*
%
%ADD96ROUNDEDRECTD96*%
G04:AMPARAMS|DCode=97|XSize=63mil|YSize=63mil|CornerRadius=16.7mil|HoleSize=0mil|Usage=FLASHONLY|Rotation=180.000|XOffset=0mil|YOffset=0mil|HoleType=Round|Shape=RoundedRectangle|*
%AMROUNDEDRECTD97*
21,1,0.0630,0.0295,0,0,180.0*
21,1,0.0295,0.0630,0,0,180.0*
1,1,0.0335,-0.0148,0.0148*
1,1,0.0335,0.0148,0.0148*
1,1,0.0335,0.0148,-0.0148*
1,1,0.0335,-0.0148,-0.0148*
%
%ADD97ROUNDEDRECTD97*%
G04:AMPARAMS|DCode=98|XSize=63mil|YSize=63mil|CornerRadius=16.7mil|HoleSize=0mil|Usage=FLASHONLY|Rotation=90.000|XOffset=0mil|YOffset=0mil|HoleType=Round|Shape=RoundedRectangle|*
%AMROUNDEDRECTD98*
21,1,0.0630,0.0295,0,0,90.0*
21,1,0.0295,0.0630,0,0,90.0*
1,1,0.0335,0.0148,0.0148*
1,1,0.0335,0.0148,-0.0148*
1,1,0.0335,-0.0148,-0.0148*
1,1,0.0335,-0.0148,0.0148*
%
%ADD98ROUNDEDRECTD98*%
G04:AMPARAMS|DCode=99|XSize=358.3mil|YSize=240.2mil|CornerRadius=61mil|HoleSize=0mil|Usage=FLASHONLY|Rotation=90.000|XOffset=0mil|YOffset=0mil|HoleType=Round|Shape=RoundedRectangle|*
%AMROUNDEDRECTD99*
21,1,0.3583,0.1181,0,0,90.0*
21,1,0.2362,0.2402,0,0,90.0*
1,1,0.1220,0.0591,0.1181*
1,1,0.1220,0.0591,-0.1181*
1,1,0.1220,-0.0591,-0.1181*
1,1,0.1220,-0.0591,0.1181*
%
%ADD99ROUNDEDRECTD99*%
%ADD100C,0.1772*%
%ADD101C,0.1417*%
%ADD102C,0.1535*%
G04:AMPARAMS|DCode=103|XSize=200.8mil|YSize=200.8mil|CornerRadius=51.2mil|HoleSize=0mil|Usage=FLASHONLY|Rotation=90.000|XOffset=0mil|YOffset=0mil|HoleType=Round|Shape=RoundedRectangle|*
%AMROUNDEDRECTD103*
21,1,0.2008,0.0984,0,0,90.0*
21,1,0.0984,0.2008,0,0,90.0*
1,1,0.1024,0.0492,0.0492*
1,1,0.1024,0.0492,-0.0492*
1,1,0.1024,-0.0492,-0.0492*
1,1,0.1024,-0.0492,0.0492*
%
%ADD103ROUNDEDRECTD103*%
%ADD104C,0.0689*%
%ADD105C,0.1142*%
%ADD106R,0.0630X0.0630*%
%ADD107C,0.0827*%
%ADD108C,0.0669*%
%ADD109R,0.0669X0.0669*%
G04:AMPARAMS|DCode=110|XSize=200.8mil|YSize=200.8mil|CornerRadius=51.2mil|HoleSize=0mil|Usage=FLASHONLY|Rotation=0.000|XOffset=0mil|YOffset=0mil|HoleType=Round|Shape=RoundedRectangle|*
%AMROUNDEDRECTD110*
21,1,0.2008,0.0984,0,0,0.0*
21,1,0.0984,0.2008,0,0,0.0*
1,1,0.1024,0.0492,-0.0492*
1,1,0.1024,-0.0492,-0.0492*
1,1,0.1024,-0.0492,0.0492*
1,1,0.1024,0.0492,0.0492*
%
%ADD110ROUNDEDRECTD110*%
G04:AMPARAMS|DCode=111|XSize=318.9mil|YSize=318.9mil|CornerRadius=80.7mil|HoleSize=0mil|Usage=FLASHONLY|Rotation=90.000|XOffset=0mil|YOffset=0mil|HoleType=Round|Shape=RoundedRectangle|*
%AMROUNDEDRECTD111*
21,1,0.3189,0.1575,0,0,90.0*
21,1,0.1575,0.3189,0,0,90.0*
1,1,0.1614,0.0787,0.0787*
1,1,0.1614,0.0787,-0.0787*
1,1,0.1614,-0.0787,-0.0787*
1,1,0.1614,-0.0787,0.0787*
%
%ADD111ROUNDEDRECTD111*%
%ADD112C,0.0906*%
%ADD113C,0.0984*%
G04:AMPARAMS|DCode=114|XSize=161.4mil|YSize=161.4mil|CornerRadius=41.3mil|HoleSize=0mil|Usage=FLASHONLY|Rotation=180.000|XOffset=0mil|YOffset=0mil|HoleType=Round|Shape=RoundedRectangle|*
%AMROUNDEDRECTD114*
21,1,0.1614,0.0787,0,0,180.0*
21,1,0.0787,0.1614,0,0,180.0*
1,1,0.0827,-0.0394,0.0394*
1,1,0.0827,0.0394,0.0394*
1,1,0.0827,0.0394,-0.0394*
1,1,0.0827,-0.0394,-0.0394*
%
%ADD114ROUNDEDRECTD114*%
G04:AMPARAMS|DCode=115|XSize=161.4mil|YSize=129.9mil|CornerRadius=33.5mil|HoleSize=0mil|Usage=FLASHONLY|Rotation=90.000|XOffset=0mil|YOffset=0mil|HoleType=Round|Shape=RoundedRectangle|*
%AMROUNDEDRECTD115*
21,1,0.1614,0.0630,0,0,90.0*
21,1,0.0945,0.1299,0,0,90.0*
1,1,0.0669,0.0315,0.0472*
1,1,0.0669,0.0315,-0.0472*
1,1,0.0669,-0.0315,-0.0472*
1,1,0.0669,-0.0315,0.0472*
%
%ADD115ROUNDEDRECTD115*%
%ADD116C,0.0748*%
%ADD117R,0.0748X0.0748*%
%ADD118R,0.0748X0.0748*%
%ADD119C,0.1220*%
%ADD120C,0.1299*%
G04:AMPARAMS|DCode=121|XSize=122mil|YSize=122mil|CornerRadius=31.5mil|HoleSize=0mil|Usage=FLASHONLY|Rotation=0.000|XOffset=0mil|YOffset=0mil|HoleType=Round|Shape=RoundedRectangle|*
%AMROUNDEDRECTD121*
21,1,0.1220,0.0591,0,0,0.0*
21,1,0.0591,0.1220,0,0,0.0*
1,1,0.0630,0.0295,-0.0295*
1,1,0.0630,-0.0295,-0.0295*
1,1,0.0630,-0.0295,0.0295*
1,1,0.0630,0.0295,0.0295*
%
%ADD121ROUNDEDRECTD121*%
%ADD122C,0.0433*%
%ADD123R,0.0433X0.0433*%
%ADD124C,0.0354*%
%ADD125C,0.0539*%
%ADD171R,0.1417X0.0669*%
G04:AMPARAMS|DCode=172|XSize=39.4mil|YSize=61mil|CornerRadius=3.9mil|HoleSize=0mil|Usage=FLASHONLY|Rotation=0.000|XOffset=0mil|YOffset=0mil|HoleType=Round|Shape=RoundedRectangle|*
%AMROUNDEDRECTD172*
21,1,0.0394,0.0532,0,0,0.0*
21,1,0.0315,0.0610,0,0,0.0*
1,1,0.0078,0.0158,-0.0266*
1,1,0.0078,-0.0158,-0.0266*
1,1,0.0078,-0.0158,0.0266*
1,1,0.0078,0.0158,0.0266*
%
%ADD172ROUNDEDRECTD172*%
G04:AMPARAMS|DCode=173|XSize=128mil|YSize=61mil|CornerRadius=4mil|HoleSize=0mil|Usage=FLASHONLY|Rotation=0.000|XOffset=0mil|YOffset=0mil|HoleType=Round|Shape=RoundedRectangle|*
%AMROUNDEDRECTD173*
21,1,0.1280,0.0531,0,0,0.0*
21,1,0.1200,0.0610,0,0,0.0*
1,1,0.0079,0.0600,-0.0265*
1,1,0.0079,-0.0600,-0.0265*
1,1,0.0079,-0.0600,0.0265*
1,1,0.0079,0.0600,0.0265*
%
%ADD173ROUNDEDRECTD173*%
%ADD174R,0.1004X0.0827*%
%ADD175R,0.0886X0.0433*%
%ADD176R,0.0886X0.1319*%
G36*
X23228Y59843D02*
X22835Y59449D01*
Y59449D01*
X19291D01*
X18564Y58721D01*
Y54784D01*
X18504Y54724D01*
X16339D01*
X14961Y56102D01*
Y61811D01*
X15748Y62598D01*
X23228D01*
Y59843D01*
D02*
G37*
G36*
X22441Y54331D02*
X22638Y54134D01*
Y52756D01*
X22638Y52756D01*
X22638Y52756D01*
Y52165D01*
X22441Y51968D01*
X11811D01*
X9843Y50000D01*
Y46654D01*
X9584Y46395D01*
X3801D01*
X3740Y46457D01*
Y49016D01*
X3937Y49213D01*
X6890D01*
X7283Y49606D01*
Y51181D01*
X10236Y54134D01*
X15157D01*
X15748Y53543D01*
X18504D01*
X19291Y54331D01*
X22441D01*
Y54331D01*
D02*
G37*
G36*
X123622Y61811D02*
Y53543D01*
X123032Y52953D01*
X120669D01*
Y55315D01*
X119685Y56299D01*
X115945D01*
X115354Y55709D01*
Y51181D01*
X117126Y49409D01*
X134055D01*
X135039Y50394D01*
Y54134D01*
X135236Y54331D01*
Y54331D01*
X136417D01*
X136614Y54134D01*
Y50197D01*
X135236Y48819D01*
X111614D01*
X111220Y49213D01*
Y54921D01*
X109252Y56890D01*
X104921D01*
X101772Y60039D01*
X92323D01*
X90551Y58268D01*
X75787D01*
X73032Y55512D01*
X67717D01*
X67323Y55906D01*
Y62402D01*
X67520Y62598D01*
X122835D01*
X123622Y61811D01*
D02*
G37*
G36*
X101575Y57874D02*
Y52953D01*
X101181Y52559D01*
X100197D01*
X99937Y52819D01*
Y55575D01*
X99606Y55906D01*
X95866D01*
X94882Y54921D01*
Y41339D01*
X94488Y40945D01*
X90945D01*
X89039Y39039D01*
Y32417D01*
X89567Y31890D01*
X94094D01*
X94882Y32677D01*
Y35039D01*
X95276Y35433D01*
X96654D01*
X96913Y35173D01*
Y29591D01*
X96457Y29134D01*
Y29134D01*
X87795D01*
X86614Y30315D01*
Y47638D01*
X86811Y47835D01*
X88583Y49606D01*
X90748D01*
X92063Y50921D01*
Y57614D01*
X93110Y58661D01*
X100787D01*
X101575Y57874D01*
D02*
G37*
G36*
X48622Y54239D02*
X48627Y53543D01*
Y52853D01*
X48334Y52559D01*
X43399D01*
X43110Y52847D01*
Y54239D01*
X43399Y54528D01*
X48334D01*
X48622Y54239D01*
D02*
G37*
G36*
X37205D02*
X37210Y53543D01*
Y52853D01*
X36916Y52559D01*
X31981D01*
X31693Y52847D01*
Y54239D01*
X31981Y54528D01*
X36916D01*
X37205Y54239D01*
D02*
G37*
G36*
X64764Y58465D02*
Y55512D01*
X64370Y55118D01*
X57480D01*
X57283Y54921D01*
Y52559D01*
X57087Y52362D01*
X53740D01*
X53346Y52756D01*
Y58465D01*
X53740Y58858D01*
X64370D01*
X64764Y58465D01*
D02*
G37*
G36*
X25984Y58661D02*
Y52362D01*
X25787Y52165D01*
X24016D01*
X23819Y52362D01*
Y55709D01*
X23118Y56410D01*
X19181D01*
X19094Y56496D01*
Y58539D01*
X19500Y58944D01*
X25701Y58945D01*
X25984Y58661D01*
D02*
G37*
G36*
X86417Y56299D02*
Y50000D01*
X83661Y47244D01*
X76968D01*
X76181Y46457D01*
X69291D01*
Y47244D01*
X69094Y47441D01*
X66929D01*
X66732Y47244D01*
Y46457D01*
X64173D01*
Y46850D01*
X63583Y47441D01*
X62598D01*
X62008Y46850D01*
Y46457D01*
X53937D01*
X53346Y47047D01*
Y51181D01*
X57874D01*
X58465Y51772D01*
X62795D01*
X62992Y51575D01*
Y50591D01*
X63583Y50000D01*
X64764D01*
X65354Y50591D01*
Y51575D01*
X65551Y51772D01*
X66732D01*
X66929Y51575D01*
Y50591D01*
X67520Y50000D01*
X68701D01*
X69291Y50591D01*
Y51575D01*
X69488Y51772D01*
X76575D01*
X76968Y51378D01*
X80118D01*
X80906Y52165D01*
Y56299D01*
X81102Y56496D01*
X86220D01*
X86417Y56299D01*
D02*
G37*
G36*
X118799Y54429D02*
Y52264D01*
X119291Y51772D01*
X129921D01*
X130906Y52756D01*
Y53937D01*
X131299Y54331D01*
X132480D01*
X132874Y53937D01*
Y51378D01*
X132283Y50787D01*
X118307D01*
X117126Y51968D01*
Y54331D01*
X117323Y54528D01*
X118701D01*
X118799Y54429D01*
D02*
G37*
G36*
X11024Y62205D02*
Y56299D01*
X6496Y51772D01*
Y50787D01*
X6299Y50591D01*
X6102D01*
X5906Y50591D01*
X4134D01*
X3937Y50787D01*
Y53740D01*
X4331Y54134D01*
X5709D01*
X5906Y54331D01*
Y62402D01*
X6102Y62598D01*
X10630D01*
X11024Y62205D01*
D02*
G37*
G36*
X48622Y50302D02*
X48627Y49606D01*
Y48916D01*
X48334Y48622D01*
X43399D01*
X43110Y48910D01*
Y50302D01*
X43399Y50591D01*
X48334D01*
X48622Y50302D01*
D02*
G37*
G36*
X37205D02*
X37210Y49606D01*
Y48916D01*
X36916Y48622D01*
X31981D01*
X31693Y48910D01*
Y50302D01*
X31981Y50591D01*
X36916D01*
X37205Y50302D01*
D02*
G37*
G36*
X26378Y50787D02*
Y48425D01*
X23622D01*
X23228Y48819D01*
X18898D01*
X18504Y49213D01*
Y50787D01*
X18504D01*
X18898Y51181D01*
X25984D01*
X26378Y50787D01*
D02*
G37*
G36*
X109071Y54146D02*
Y48244D01*
X110071Y47244D01*
X132087D01*
X132480Y47638D01*
X134736D01*
X135129Y47244D01*
X135827D01*
Y44094D01*
X135433Y43701D01*
X127953D01*
X127362Y44291D01*
Y46260D01*
X126968Y46654D01*
X122441D01*
X121850Y46063D01*
X121850Y43504D01*
X118898D01*
X118504Y43898D01*
Y44291D01*
X104528D01*
X104134Y44685D01*
Y47244D01*
X104331Y47441D01*
X106299D01*
X107811Y48953D01*
Y54146D01*
X107996Y54331D01*
X108886D01*
X109071Y54146D01*
D02*
G37*
G36*
X99016Y54134D02*
Y52165D01*
X99606Y51575D01*
X101968D01*
X102756Y50787D01*
Y43701D01*
X103937Y42520D01*
X122441D01*
X123032Y43110D01*
Y44685D01*
X123425Y45079D01*
X125984D01*
X126181Y44882D01*
Y40354D01*
X125394Y39567D01*
X102756D01*
X102165Y40157D01*
X96850D01*
X96457Y40551D01*
Y51575D01*
X96850Y51968D01*
X97047D01*
X97638Y52559D01*
Y54134D01*
X97835Y54331D01*
X98819D01*
X99016Y54134D01*
D02*
G37*
G36*
X102362Y37992D02*
Y32677D01*
X101378Y31693D01*
X98228D01*
X97835Y32087D01*
Y35827D01*
X97244Y36417D01*
X94882D01*
X93701Y35236D01*
X91929D01*
X91339Y34646D01*
Y33268D01*
X91142Y33071D01*
X90157D01*
X89921Y33307D01*
Y38150D01*
X90748Y38976D01*
X101378D01*
X102362Y37992D01*
D02*
G37*
G36*
X135197Y37334D02*
Y30422D01*
X134736Y29961D01*
X132508D01*
X132047Y30422D01*
Y37334D01*
X132508Y37795D01*
X134736D01*
X135197Y37334D01*
D02*
G37*
G36*
X135236Y17717D02*
X133661Y16142D01*
X112402D01*
X111417Y17126D01*
Y23228D01*
X114961Y26772D01*
X135236D01*
Y17717D01*
D02*
G37*
G36*
X149606Y38976D02*
X145669Y35039D01*
Y26575D01*
X149606Y22638D01*
Y1181D01*
X135433D01*
X135236Y1378D01*
Y7283D01*
X137795Y9843D01*
Y46850D01*
X140551Y49606D01*
Y56299D01*
X139370Y57480D01*
X130118D01*
X128937Y56299D01*
Y53150D01*
X128740Y52953D01*
X127165D01*
X126968Y53150D01*
Y62402D01*
X127559Y62992D01*
X149606D01*
Y38976D01*
D02*
G37*
%LPC*%
G36*
X146260Y19685D02*
X139764D01*
Y16732D01*
X146654D01*
Y19291D01*
X146260Y19685D01*
D02*
G37*
%LPD*%
D56*
X5512Y9055D02*
D03*
Y11417D02*
D03*
X9904Y13685D02*
D03*
X4724Y18580D02*
D03*
X11024Y19488D02*
D03*
X115748Y29921D02*
D03*
X111811Y27362D02*
D03*
X102756Y31102D02*
D03*
X93233Y23809D02*
D03*
X66339Y26575D02*
D03*
X81387Y27362D02*
D03*
X82480D02*
D03*
X77165Y29724D02*
D03*
X78740Y26575D02*
D03*
X45276Y32874D02*
D03*
X46850Y26575D02*
D03*
X50787Y30709D02*
D03*
X58268Y37598D02*
D03*
D57*
X103346Y25550D02*
D03*
Y24450D02*
D03*
X61001Y23222D02*
D03*
Y24322D02*
D03*
X125591Y37361D02*
D03*
Y36261D02*
D03*
X124409Y37361D02*
D03*
Y36261D02*
D03*
D58*
X107283Y29724D02*
D03*
Y28937D02*
D03*
X51772Y20276D02*
D03*
Y21063D02*
D03*
X12205D02*
D03*
Y21850D02*
D03*
X65157Y24213D02*
D03*
Y25000D02*
D03*
X59055Y30315D02*
D03*
Y31102D02*
D03*
X65945Y24213D02*
D03*
Y25000D02*
D03*
X57874Y30315D02*
D03*
Y31102D02*
D03*
X55512D02*
D03*
Y30315D02*
D03*
X67717Y22835D02*
D03*
Y22047D02*
D03*
X55315Y24213D02*
D03*
Y23425D02*
D03*
X56693Y30315D02*
D03*
Y31102D02*
D03*
X12205Y14961D02*
D03*
Y15748D02*
D03*
X6299Y23287D02*
D03*
Y24075D02*
D03*
X5512D02*
D03*
Y23287D02*
D03*
X7087Y24075D02*
D03*
Y23287D02*
D03*
X7874Y24075D02*
D03*
Y23287D02*
D03*
X98622Y27756D02*
D03*
Y26969D02*
D03*
X91732Y17717D02*
D03*
Y18504D02*
D03*
X90945Y17717D02*
D03*
Y18504D02*
D03*
X89567Y16929D02*
D03*
Y16142D02*
D03*
X89370Y23031D02*
D03*
Y22244D02*
D03*
X99803Y28740D02*
D03*
Y29528D02*
D03*
X107283Y25394D02*
D03*
Y24606D02*
D03*
X108465Y29724D02*
D03*
Y28937D02*
D03*
X78543Y23622D02*
D03*
Y24409D02*
D03*
X83263Y29476D02*
D03*
Y30264D02*
D03*
X80815Y29491D02*
D03*
Y30278D02*
D03*
X75000Y23622D02*
D03*
Y24409D02*
D03*
X74213D02*
D03*
Y23622D02*
D03*
X40945Y6496D02*
D03*
Y7283D02*
D03*
X62598Y39173D02*
D03*
Y38386D02*
D03*
X105717Y26173D02*
D03*
Y26960D02*
D03*
X101378Y30315D02*
D03*
Y29528D02*
D03*
X102165Y30315D02*
D03*
Y29528D02*
D03*
X92520Y17717D02*
D03*
Y18504D02*
D03*
X41732Y7283D02*
D03*
Y6496D02*
D03*
X43786Y6516D02*
D03*
Y7303D02*
D03*
X90945Y16142D02*
D03*
Y16929D02*
D03*
X91732Y16142D02*
D03*
Y16929D02*
D03*
X97441Y18701D02*
D03*
Y19488D02*
D03*
X61220Y38386D02*
D03*
Y39173D02*
D03*
X90748Y22244D02*
D03*
Y23031D02*
D03*
X92323Y20866D02*
D03*
Y20079D02*
D03*
X86417Y20866D02*
D03*
Y20079D02*
D03*
X92323Y23031D02*
D03*
Y22244D02*
D03*
D61*
X14567Y12875D02*
D03*
X15354D02*
D03*
Y13583D02*
D03*
X14567D02*
D03*
X12402Y8661D02*
D03*
X13189D02*
D03*
Y9449D02*
D03*
X12402D02*
D03*
X12402Y10236D02*
D03*
X13189D02*
D03*
X13189Y11024D02*
D03*
X12402D02*
D03*
X13189Y11811D02*
D03*
X12402D02*
D03*
X107283Y26378D02*
D03*
X108071D02*
D03*
X65551Y27362D02*
D03*
X64764D02*
D03*
Y28150D02*
D03*
X65551D02*
D03*
X56890Y27165D02*
D03*
X57677D02*
D03*
X65945Y20079D02*
D03*
X65157D02*
D03*
X58465Y22047D02*
D03*
X59252D02*
D03*
X14567Y19488D02*
D03*
X15354D02*
D03*
X14567Y20276D02*
D03*
X15354D02*
D03*
Y17717D02*
D03*
X14567D02*
D03*
X15354Y18504D02*
D03*
X14567D02*
D03*
X21850Y26378D02*
D03*
X21063D02*
D03*
X96654Y16535D02*
D03*
X97441D02*
D03*
X112795Y29134D02*
D03*
X113583D02*
D03*
X94094Y16732D02*
D03*
X93307D02*
D03*
X94041Y21260D02*
D03*
X93254D02*
D03*
X102559Y23425D02*
D03*
X101772D02*
D03*
X103426Y22408D02*
D03*
X104213D02*
D03*
X104448Y32283D02*
D03*
X103661D02*
D03*
X107283Y31496D02*
D03*
X108071D02*
D03*
X110039Y25591D02*
D03*
X109252D02*
D03*
X108858Y32283D02*
D03*
X109646D02*
D03*
X82693Y22835D02*
D03*
X83480D02*
D03*
X83065Y20472D02*
D03*
X83852D02*
D03*
X81496D02*
D03*
X80709D02*
D03*
X81890Y22835D02*
D03*
X81102D02*
D03*
X76772Y26378D02*
D03*
X77559D02*
D03*
X77559Y27953D02*
D03*
X76772D02*
D03*
X93254Y22997D02*
D03*
X94041D02*
D03*
X108268Y22441D02*
D03*
X109055D02*
D03*
Y23228D02*
D03*
X108268D02*
D03*
X104196Y26923D02*
D03*
X104983D02*
D03*
X104134Y24606D02*
D03*
X104921D02*
D03*
X104134Y25394D02*
D03*
X104921D02*
D03*
X102756Y28150D02*
D03*
X101968D02*
D03*
X100787Y26378D02*
D03*
X101575D02*
D03*
X102756Y27165D02*
D03*
X101968D02*
D03*
X102756Y26378D02*
D03*
X101968D02*
D03*
X95866Y21260D02*
D03*
X96654D02*
D03*
X99409Y15748D02*
D03*
X100197D02*
D03*
X87992Y17323D02*
D03*
X87205D02*
D03*
X87992Y16535D02*
D03*
X87205D02*
D03*
X87992Y18110D02*
D03*
X87205D02*
D03*
X98228Y22047D02*
D03*
X97441D02*
D03*
X100787Y25591D02*
D03*
X101575D02*
D03*
D62*
X13623Y7677D02*
D03*
X14723D02*
D03*
X121613Y34646D02*
D03*
X120513D02*
D03*
X104277Y18121D02*
D03*
X105377D02*
D03*
X104259Y16908D02*
D03*
X105359D02*
D03*
X82748Y17416D02*
D03*
X83848D02*
D03*
X38542Y21850D02*
D03*
X37442D02*
D03*
X107874Y28150D02*
D03*
X106774D02*
D03*
X97597Y17520D02*
D03*
X96497D02*
D03*
X65198Y21850D02*
D03*
X66298D02*
D03*
X59270Y20276D02*
D03*
X58170D02*
D03*
X102993Y20866D02*
D03*
X104093D02*
D03*
X39804Y14370D02*
D03*
X40904D02*
D03*
X48859Y30315D02*
D03*
X49959D02*
D03*
D66*
X98622Y30433D02*
D03*
Y29016D02*
D03*
D67*
X14764Y10482D02*
D03*
X15138Y11565D02*
D03*
X14390D02*
D03*
X16142Y10482D02*
D03*
X16516Y11565D02*
D03*
X15768D02*
D03*
X63980Y25293D02*
D03*
X63606Y24210D02*
D03*
X64355D02*
D03*
D68*
X41545Y26378D02*
D03*
X40344D02*
D03*
Y27362D02*
D03*
X41545D02*
D03*
X70659Y36417D02*
D03*
X71860D02*
D03*
Y35433D02*
D03*
X70659D02*
D03*
X69892D02*
D03*
X68691D02*
D03*
X48809Y27756D02*
D03*
X50010D02*
D03*
X59439Y41535D02*
D03*
X60640D02*
D03*
X50010Y26575D02*
D03*
X48809D02*
D03*
X74026Y39567D02*
D03*
X72825D02*
D03*
X48809Y31299D02*
D03*
X50010D02*
D03*
X48809Y25591D02*
D03*
X50010D02*
D03*
Y29134D02*
D03*
X48809D02*
D03*
X60640Y40157D02*
D03*
X59439D02*
D03*
D69*
X12205Y22825D02*
D03*
Y24026D02*
D03*
X11220Y22825D02*
D03*
Y24026D02*
D03*
X78543Y23041D02*
D03*
Y21841D02*
D03*
X77559Y21860D02*
D03*
Y20659D02*
D03*
Y19498D02*
D03*
Y18297D02*
D03*
X76772Y24813D02*
D03*
Y23612D02*
D03*
X36417Y10049D02*
D03*
Y8848D02*
D03*
X35630Y8858D02*
D03*
Y10059D02*
D03*
D70*
X86620Y16535D02*
D03*
X85820D02*
D03*
X65948Y19373D02*
D03*
X65148D02*
D03*
X65151Y20866D02*
D03*
X65951D02*
D03*
X59258Y21260D02*
D03*
X58458D02*
D03*
X21057Y27165D02*
D03*
X21857D02*
D03*
X104454Y31487D02*
D03*
X103654D02*
D03*
X109246Y26378D02*
D03*
X110046D02*
D03*
X109652Y31496D02*
D03*
X108852D02*
D03*
X113595Y29971D02*
D03*
X112795D02*
D03*
X113983Y31496D02*
D03*
X113183D02*
D03*
X77565Y27165D02*
D03*
X76765D02*
D03*
X104170Y26181D02*
D03*
X104970D02*
D03*
X93247Y22169D02*
D03*
X94047D02*
D03*
X97435Y21260D02*
D03*
X98235D02*
D03*
X100203Y16535D02*
D03*
X99403D02*
D03*
D72*
X12402Y8077D02*
D03*
Y7277D02*
D03*
X66732Y24206D02*
D03*
Y25006D02*
D03*
X58858Y24009D02*
D03*
Y24809D02*
D03*
X81890Y23616D02*
D03*
Y24416D02*
D03*
X82677Y23616D02*
D03*
Y24416D02*
D03*
X82480Y29471D02*
D03*
Y30271D02*
D03*
X81611Y29474D02*
D03*
Y30274D02*
D03*
X75984Y24416D02*
D03*
Y23616D02*
D03*
X42998Y7309D02*
D03*
Y6509D02*
D03*
X100591Y29521D02*
D03*
Y30321D02*
D03*
X91535Y22238D02*
D03*
Y23038D02*
D03*
X105885Y22407D02*
D03*
Y23207D02*
D03*
X100787Y20269D02*
D03*
Y21069D02*
D03*
X101772Y20276D02*
D03*
Y21076D02*
D03*
D74*
X12671Y13248D02*
D03*
Y12500D02*
D03*
X11588Y12874D02*
D03*
X64518Y21240D02*
D03*
Y20492D02*
D03*
X63435Y20866D02*
D03*
X56939Y25610D02*
D03*
Y26358D02*
D03*
X58022Y25984D02*
D03*
X56152Y23445D02*
D03*
Y24193D02*
D03*
X57234Y23819D02*
D03*
X60039Y20472D02*
D03*
Y21220D02*
D03*
X61122Y20846D02*
D03*
X82726Y21654D02*
D03*
X83809Y21280D02*
D03*
Y22028D02*
D03*
X81841Y21654D02*
D03*
X80758Y22028D02*
D03*
Y21280D02*
D03*
X51378Y31299D02*
D03*
Y32047D02*
D03*
X52461Y31673D02*
D03*
D77*
X59646Y38780D02*
D03*
X60433Y38406D02*
D03*
Y39154D02*
D03*
D83*
X52480Y29724D02*
D03*
X51457Y30098D02*
D03*
Y29350D02*
D03*
D84*
X103974Y30404D02*
D03*
X104474D02*
D03*
X104974D02*
D03*
X105474D02*
D03*
X103974Y28258D02*
D03*
X104474D02*
D03*
X104974D02*
D03*
X105474D02*
D03*
X11380Y8770D02*
D03*
X10880D02*
D03*
X10380D02*
D03*
X9880D02*
D03*
X11380Y10915D02*
D03*
X10880D02*
D03*
X10380D02*
D03*
X9880D02*
D03*
X109683Y30404D02*
D03*
X110183D02*
D03*
X110683D02*
D03*
X111183D02*
D03*
X109683Y28258D02*
D03*
X110183D02*
D03*
X110683D02*
D03*
X111183D02*
D03*
X95041Y18022D02*
D03*
X94541D02*
D03*
X94041D02*
D03*
X93541D02*
D03*
X95041Y20167D02*
D03*
X94541D02*
D03*
X94041D02*
D03*
X93541D02*
D03*
X99766Y18022D02*
D03*
X99266D02*
D03*
X98766D02*
D03*
X98266D02*
D03*
X99766Y20167D02*
D03*
X99266D02*
D03*
X98766D02*
D03*
X98266D02*
D03*
D86*
X39961Y12638D02*
D03*
Y10433D02*
D03*
D87*
X35000Y23819D02*
D03*
X37441D02*
D03*
D88*
X45270Y31238D02*
D03*
Y28797D02*
D03*
X53740Y29291D02*
D03*
Y31732D02*
D03*
X46850Y31238D02*
D03*
Y28797D02*
D03*
D89*
X1772Y19094D02*
D03*
D90*
Y18110D02*
D03*
Y17126D02*
D03*
Y16142D02*
D03*
X121654Y36220D02*
D03*
X122406D02*
D03*
X105394Y20157D02*
D03*
Y20909D02*
D03*
X62492Y29055D02*
D03*
X18307Y31496D02*
D03*
D91*
X22874Y6191D02*
D03*
X24433D02*
D03*
X25992D02*
D03*
X27551D02*
D03*
X29110D02*
D03*
D92*
X30669D02*
D03*
D93*
X116315Y35827D02*
D03*
X112031D02*
D03*
X108441Y51575D02*
D03*
X104157D02*
D03*
X108441Y35827D02*
D03*
X104157D02*
D03*
D94*
X112031Y33858D02*
D03*
X116315Y37795D02*
D03*
Y33858D02*
D03*
X114173Y35827D02*
D03*
Y33858D02*
D03*
X112031Y37795D02*
D03*
X108441Y49606D02*
D03*
X106299Y53543D02*
D03*
Y51575D02*
D03*
X104157Y53543D02*
D03*
Y49606D02*
D03*
X108441Y53543D02*
D03*
X104157Y33858D02*
D03*
X108441Y37795D02*
D03*
Y33858D02*
D03*
X106299Y35827D02*
D03*
Y33858D02*
D03*
X104157Y37795D02*
D03*
D95*
X114173Y34843D02*
D03*
X106299Y52559D02*
D03*
Y34843D02*
D03*
D96*
X120437Y44646D02*
D03*
X124374D02*
D03*
D97*
X123157Y36220D02*
D03*
D98*
X105394Y19406D02*
D03*
D99*
X113819Y18189D02*
D03*
Y22126D02*
D03*
D100*
X92913Y10039D02*
D03*
Y6102D02*
D03*
X59843Y10039D02*
D03*
Y6102D02*
D03*
X125984D02*
D03*
Y10039D02*
D03*
X109449Y6102D02*
D03*
Y10039D02*
D03*
X76378Y6102D02*
D03*
Y10039D02*
D03*
D101*
X91043Y7402D02*
D03*
X57972D02*
D03*
X124114D02*
D03*
X107579D02*
D03*
X74508D02*
D03*
D102*
X147244Y60630D02*
D03*
X68110Y2362D02*
D03*
X59449Y60630D02*
D03*
X147244Y2362D02*
D03*
X2362Y60630D02*
D03*
Y2362D02*
D03*
D103*
X144291Y6496D02*
D03*
Y10246D02*
D03*
X5315Y47825D02*
D03*
Y44075D02*
D03*
Y51575D02*
D03*
D104*
X52264Y37008D02*
D03*
X61122D02*
D03*
X1870D02*
D03*
X10728D02*
D03*
X37500D02*
D03*
X28642D02*
D03*
X147047Y44587D02*
D03*
Y35728D02*
D03*
Y47343D02*
D03*
Y56201D02*
D03*
X74409Y60335D02*
D03*
Y51476D02*
D03*
X16240Y37008D02*
D03*
X25098D02*
D03*
X138976Y1181D02*
D03*
Y7087D02*
D03*
X135748D02*
D03*
Y1181D02*
D03*
D105*
X62323Y43898D02*
D03*
X63110Y46260D02*
D03*
Y41535D02*
D03*
X67913D02*
D03*
Y46260D02*
D03*
D106*
X63492Y29055D02*
D03*
X17307Y31496D02*
D03*
D107*
X78346Y39370D02*
D03*
Y35433D02*
D03*
X20866Y40945D02*
D03*
Y44882D02*
D03*
X43307Y36220D02*
D03*
Y40157D02*
D03*
X78346Y42126D02*
D03*
Y46063D02*
D03*
X78346Y55906D02*
D03*
Y59843D02*
D03*
X18504Y40945D02*
D03*
Y44882D02*
D03*
X40945Y40157D02*
D03*
Y36220D02*
D03*
X78346Y48819D02*
D03*
Y52756D02*
D03*
X137913Y9646D02*
D03*
Y13583D02*
D03*
X135433Y9685D02*
D03*
Y13622D02*
D03*
D108*
X11236Y1969D02*
D03*
Y2968D02*
D03*
X12236Y1969D02*
D03*
X13236D02*
D03*
X12236Y2968D02*
D03*
X13236D02*
D03*
X14236Y1969D02*
D03*
Y2968D02*
D03*
X15236Y1969D02*
D03*
Y2968D02*
D03*
X16236Y1969D02*
D03*
Y2968D02*
D03*
X17236Y1969D02*
D03*
X10236Y2968D02*
D03*
X9236D02*
D03*
X8236D02*
D03*
X10236Y1969D02*
D03*
X9236D02*
D03*
X8236D02*
D03*
D109*
X17236Y2968D02*
D03*
D110*
X47638Y49606D02*
D03*
X55512D02*
D03*
Y53543D02*
D03*
X47638D02*
D03*
X24803D02*
D03*
X32677D02*
D03*
Y49606D02*
D03*
X24803D02*
D03*
X36220D02*
D03*
X44094D02*
D03*
Y53543D02*
D03*
X36220D02*
D03*
D111*
X133622Y46063D02*
D03*
Y36220D02*
D03*
Y21693D02*
D03*
Y31535D02*
D03*
D112*
X60236Y50000D02*
D03*
X58268D02*
D03*
X60236Y53346D02*
D03*
X58268D02*
D03*
D113*
X68087Y51177D02*
D03*
X64087D02*
D03*
X21260Y47638D02*
D03*
X18307Y47244D02*
D03*
X14567Y47638D02*
D03*
X11614Y47244D02*
D03*
Y50000D02*
D03*
X14567Y50394D02*
D03*
D114*
X69587Y60177D02*
D03*
Y57177D02*
D03*
X62587Y56177D02*
D03*
X3740Y56299D02*
D03*
X1772D02*
D03*
X19882Y60630D02*
D03*
X21850D02*
D03*
X19882Y57480D02*
D03*
X21850D02*
D03*
X21850Y50000D02*
D03*
X19882D02*
D03*
X21850Y53150D02*
D03*
X19882D02*
D03*
D115*
X96283Y53543D02*
D03*
X98425D02*
D03*
X100567D02*
D03*
X88409D02*
D03*
X90551D02*
D03*
X92693D02*
D03*
Y33858D02*
D03*
X90551D02*
D03*
X88409D02*
D03*
X100567D02*
D03*
X98425D02*
D03*
X96283D02*
D03*
D116*
X147031Y30465D02*
D03*
X148032D02*
D03*
X147031Y31465D02*
D03*
X148032D02*
D03*
X147031Y33465D02*
D03*
X148032Y32465D02*
D03*
X147031D02*
D03*
X148032Y29465D02*
D03*
Y28465D02*
D03*
X147031Y29465D02*
D03*
Y28465D02*
D03*
X44339Y2937D02*
D03*
Y3937D02*
D03*
X43339Y2937D02*
D03*
Y3937D02*
D03*
X41339Y2937D02*
D03*
X42339Y3937D02*
D03*
Y2937D02*
D03*
X45339Y3937D02*
D03*
X46339D02*
D03*
X45339Y2937D02*
D03*
X46339D02*
D03*
X142669Y18717D02*
D03*
Y17717D02*
D03*
X143669Y18717D02*
D03*
Y17717D02*
D03*
X145669Y18717D02*
D03*
X144669Y17717D02*
D03*
Y18717D02*
D03*
X141669Y17717D02*
D03*
X140669D02*
D03*
X141669Y18717D02*
D03*
X140669D02*
D03*
X142669Y14780D02*
D03*
Y13780D02*
D03*
X143669Y14780D02*
D03*
Y13780D02*
D03*
X145669Y14780D02*
D03*
X144669Y13780D02*
D03*
Y14780D02*
D03*
X141669Y13780D02*
D03*
X140669D02*
D03*
X141669Y14780D02*
D03*
X140669D02*
D03*
D117*
X148032Y33465D02*
D03*
D118*
X41339Y3937D02*
D03*
X145669Y17717D02*
D03*
Y13780D02*
D03*
D119*
X9115Y59548D02*
D03*
X17973D02*
D03*
X9115Y55348D02*
D03*
X17973D02*
D03*
D120*
X9843Y43701D02*
D03*
X15354D02*
D03*
D121*
X127953Y53543D02*
D03*
X125000D02*
D03*
X122047D02*
D03*
X118110D02*
D03*
X141732D02*
D03*
X138780D02*
D03*
X135827D02*
D03*
X131890D02*
D03*
D122*
X31980Y32874D02*
D03*
X32480D02*
D03*
X5512Y9055D02*
D03*
Y11417D02*
D03*
X4724Y18580D02*
D03*
X33268Y25787D02*
D03*
X18523Y17916D02*
D03*
X36417Y3937D02*
D03*
X37205D02*
D03*
X39567D02*
D03*
X38780D02*
D03*
X37992D02*
D03*
X16929Y17126D02*
D03*
X19291Y20472D02*
D03*
X50010Y31299D02*
D03*
X54134Y33071D02*
D03*
X53543D02*
D03*
X32087Y19882D02*
D03*
X100394Y23228D02*
D03*
Y22480D02*
D03*
X101280Y21072D02*
D03*
X99960Y22976D02*
D03*
X84843Y40748D02*
D03*
X80315Y22835D02*
D03*
X22638Y26417D02*
D03*
X35630Y18898D02*
D03*
X18701Y29331D02*
D03*
X17028Y15354D02*
D03*
X31299Y19094D02*
D03*
X17028Y13583D02*
D03*
Y12992D02*
D03*
Y14764D02*
D03*
Y14173D02*
D03*
X56693Y19685D02*
D03*
X57283Y20866D02*
D03*
X68898Y21654D02*
D03*
X67717Y21063D02*
D03*
X73228Y27559D02*
D03*
X85039Y37795D02*
D03*
Y38386D02*
D03*
Y39567D02*
D03*
Y37205D02*
D03*
Y38976D02*
D03*
X84843Y42913D02*
D03*
X85433Y43504D02*
D03*
Y42913D02*
D03*
X89764Y44285D02*
D03*
X85039Y36024D02*
D03*
X36220Y17126D02*
D03*
X35630Y16535D02*
D03*
X39764Y17717D02*
D03*
X42717Y15354D02*
D03*
X26939Y32795D02*
D03*
X10039Y32087D02*
D03*
Y31496D02*
D03*
X1772Y4921D02*
D03*
X2362D02*
D03*
X2953D02*
D03*
X3543D02*
D03*
Y5512D02*
D03*
X2953D02*
D03*
X2362D02*
D03*
X1772D02*
D03*
X34449Y15354D02*
D03*
X38780Y3150D02*
D03*
X39567D02*
D03*
Y2362D02*
D03*
X38780D02*
D03*
X35630Y2362D02*
D03*
X36417D02*
D03*
X37205D02*
D03*
X37992D02*
D03*
Y3150D02*
D03*
X37205D02*
D03*
X36417D02*
D03*
X35630D02*
D03*
X40551Y17717D02*
D03*
X38976D02*
D03*
X38189D02*
D03*
X37402D02*
D03*
X36811Y18307D02*
D03*
Y17717D02*
D03*
Y17126D02*
D03*
X36220Y17717D02*
D03*
Y18307D02*
D03*
X35630Y17126D02*
D03*
Y17717D02*
D03*
Y18307D02*
D03*
X41535Y15354D02*
D03*
X42126D02*
D03*
Y15945D02*
D03*
X41535D02*
D03*
Y16535D02*
D03*
X42126D02*
D03*
Y17126D02*
D03*
X41535D02*
D03*
Y17717D02*
D03*
X42126D02*
D03*
Y18307D02*
D03*
X41535D02*
D03*
Y18898D02*
D03*
X42126D02*
D03*
X42717D02*
D03*
Y18307D02*
D03*
Y17717D02*
D03*
Y17126D02*
D03*
Y16535D02*
D03*
Y15945D02*
D03*
Y14764D02*
D03*
Y14173D02*
D03*
X43307D02*
D03*
Y14764D02*
D03*
Y15354D02*
D03*
Y15945D02*
D03*
Y16535D02*
D03*
Y17126D02*
D03*
Y17717D02*
D03*
Y18307D02*
D03*
Y18898D02*
D03*
X29528Y31896D02*
D03*
X72417Y42685D02*
D03*
X37874Y30906D02*
D03*
X38386Y28799D02*
D03*
X88583Y47041D02*
D03*
X100787Y17323D02*
D03*
X103937Y17904D02*
D03*
X93898Y46104D02*
D03*
X91339Y42520D02*
D03*
Y43110D02*
D03*
X88976Y44285D02*
D03*
X60039Y19882D02*
D03*
X91535Y21654D02*
D03*
X80038Y29402D02*
D03*
X9449Y8661D02*
D03*
Y9252D02*
D03*
X104724Y15977D02*
D03*
X63583Y37598D02*
D03*
X40157Y6102D02*
D03*
X96497Y17520D02*
D03*
X85630Y36024D02*
D03*
X85039Y36614D02*
D03*
X85630D02*
D03*
Y37205D02*
D03*
Y37795D02*
D03*
Y38386D02*
D03*
Y38976D02*
D03*
Y39567D02*
D03*
X84843Y43504D02*
D03*
X86024Y42913D02*
D03*
Y43504D02*
D03*
X95079Y22638D02*
D03*
X92333Y20866D02*
D03*
X92992Y25000D02*
D03*
X92323D02*
D03*
X93701D02*
D03*
X95669Y22638D02*
D03*
X95079Y23228D02*
D03*
X95669D02*
D03*
X96260Y22638D02*
D03*
X96850D02*
D03*
Y23228D02*
D03*
X96260D02*
D03*
X83465Y31299D02*
D03*
X82874D02*
D03*
X82283D02*
D03*
X81693D02*
D03*
X83465Y32480D02*
D03*
Y31890D02*
D03*
X82874D02*
D03*
Y32480D02*
D03*
X82283D02*
D03*
Y31890D02*
D03*
X81693D02*
D03*
Y32480D02*
D03*
X26939Y31890D02*
D03*
X51772Y21063D02*
D03*
X61001Y24336D02*
D03*
X97597Y17520D02*
D03*
X83465Y51968D02*
D03*
X83858Y50787D02*
D03*
X83071D02*
D03*
X85039Y50000D02*
D03*
X84252Y49606D02*
D03*
X83465D02*
D03*
X82677D02*
D03*
X81890Y50000D02*
D03*
X85433Y50787D02*
D03*
Y51575D02*
D03*
Y52362D02*
D03*
X84646Y50787D02*
D03*
Y51575D02*
D03*
Y52362D02*
D03*
X81496Y50787D02*
D03*
X82283D02*
D03*
Y51575D02*
D03*
Y52362D02*
D03*
X81496Y51575D02*
D03*
Y52362D02*
D03*
Y53150D02*
D03*
X82283D02*
D03*
X83071D02*
D03*
X83858D02*
D03*
X84646D02*
D03*
X85433D02*
D03*
Y53937D02*
D03*
X84646D02*
D03*
X83858D02*
D03*
X83071D02*
D03*
X82283D02*
D03*
X81496D02*
D03*
Y54724D02*
D03*
X82283D02*
D03*
X83071D02*
D03*
X83858D02*
D03*
X84646D02*
D03*
X85433D02*
D03*
Y55512D02*
D03*
X84646D02*
D03*
X83858D02*
D03*
X83071D02*
D03*
X82283D02*
D03*
X81496D02*
D03*
X75984Y47244D02*
D03*
X75197D02*
D03*
X74409D02*
D03*
X73622D02*
D03*
X72835D02*
D03*
X72047D02*
D03*
Y48032D02*
D03*
X72835D02*
D03*
X73622D02*
D03*
X74409D02*
D03*
X75197D02*
D03*
X75984D02*
D03*
Y48819D02*
D03*
X75197D02*
D03*
X74409D02*
D03*
X73622D02*
D03*
X72835D02*
D03*
X72047D02*
D03*
Y49606D02*
D03*
X72835D02*
D03*
X73622D02*
D03*
X74409D02*
D03*
X75197D02*
D03*
X75984D02*
D03*
Y50394D02*
D03*
X75197D02*
D03*
X74409D02*
D03*
X73622D02*
D03*
X72835D02*
D03*
X72047D02*
D03*
X72244Y30118D02*
D03*
X10079Y23319D02*
D03*
Y20957D02*
D03*
Y18594D02*
D03*
Y16232D02*
D03*
D123*
X32980Y32874D02*
D03*
D124*
X66339Y26575D02*
D03*
X63976Y26673D02*
D03*
X59055Y30118D02*
D03*
X66929Y25787D02*
D03*
X79921Y19882D02*
D03*
X79528D02*
D03*
X77165Y29724D02*
D03*
X78740Y26575D02*
D03*
X58465Y21260D02*
D03*
X60630Y25787D02*
D03*
X61024D02*
D03*
X21457Y17913D02*
D03*
X22047D02*
D03*
X22638D02*
D03*
Y17323D02*
D03*
X22047D02*
D03*
X21457D02*
D03*
X60443Y38396D02*
D03*
X61216Y38391D02*
D03*
X44094Y26969D02*
D03*
X44685D02*
D03*
X45276D02*
D03*
Y27559D02*
D03*
X44685D02*
D03*
X44094D02*
D03*
X21457Y14961D02*
D03*
X22047D02*
D03*
X22638D02*
D03*
X21457Y10433D02*
D03*
X22047D02*
D03*
X22638D02*
D03*
X22638Y11024D02*
D03*
X22047D02*
D03*
X21457D02*
D03*
X22638Y14370D02*
D03*
X22047D02*
D03*
X21457D02*
D03*
X41545Y27362D02*
D03*
X60039Y25319D02*
D03*
X88583Y45866D02*
D03*
Y46457D02*
D03*
X44685Y7874D02*
D03*
X40945Y6496D02*
D03*
X39764Y32087D02*
D03*
X40157D02*
D03*
X40551D02*
D03*
Y31496D02*
D03*
X40157D02*
D03*
X39764D02*
D03*
X40551Y30906D02*
D03*
X39764D02*
D03*
X40157D02*
D03*
X94488Y42126D02*
D03*
Y42520D02*
D03*
Y42913D02*
D03*
X93898D02*
D03*
Y42520D02*
D03*
Y42085D02*
D03*
X55709Y25984D02*
D03*
X56102D02*
D03*
X57480Y26575D02*
D03*
Y26181D02*
D03*
Y25787D02*
D03*
X58661Y20276D02*
D03*
X35433Y31890D02*
D03*
X35039Y31545D02*
D03*
X33268Y31102D02*
D03*
Y31496D02*
D03*
Y31890D02*
D03*
X83858Y28543D02*
D03*
Y28937D02*
D03*
Y29331D02*
D03*
X84055Y29921D02*
D03*
X85039Y29331D02*
D03*
X82087Y28937D02*
D03*
X12008Y11417D02*
D03*
X11614D02*
D03*
Y11024D02*
D03*
X12008D02*
D03*
X82283Y22835D02*
D03*
Y23228D02*
D03*
X75394Y24803D02*
D03*
Y24409D02*
D03*
X84252Y22835D02*
D03*
Y23228D02*
D03*
X80315Y19882D02*
D03*
X56648Y22967D02*
D03*
X66535Y19488D02*
D03*
X49606Y33579D02*
D03*
X57874Y30118D02*
D03*
X56693D02*
D03*
X55512D02*
D03*
X86220Y45472D02*
D03*
X82169Y20174D02*
D03*
X85827Y21850D02*
D03*
X87992Y25591D02*
D03*
X58858Y23425D02*
D03*
X90157Y18898D02*
D03*
X100787Y18701D02*
D03*
X79921Y22047D02*
D03*
X59252Y19488D02*
D03*
X57234Y23819D02*
D03*
X30108Y26969D02*
D03*
X63501Y26296D02*
D03*
X89567Y16929D02*
D03*
X83850Y17410D02*
D03*
X68110Y25787D02*
D03*
X67913Y28740D02*
D03*
X103543Y19685D02*
D03*
X92520Y17717D02*
D03*
X93541Y18022D02*
D03*
X15374Y12875D02*
D03*
X11588Y12874D02*
D03*
X12214Y21870D02*
D03*
X62598Y38386D02*
D03*
X74803Y39567D02*
D03*
X72825D02*
D03*
X75591Y48425D02*
D03*
Y49213D02*
D03*
X74803D02*
D03*
Y48425D02*
D03*
X74016D02*
D03*
Y49213D02*
D03*
X73228D02*
D03*
Y48425D02*
D03*
X72441D02*
D03*
Y49213D02*
D03*
X75020Y23622D02*
D03*
X13432Y17733D02*
D03*
Y20095D02*
D03*
X12214Y14941D02*
D03*
X21063Y26378D02*
D03*
X23372Y29778D02*
D03*
X24606Y28937D02*
D03*
X67126Y22835D02*
D03*
X66732Y24206D02*
D03*
X63432Y20863D02*
D03*
X65950Y20865D02*
D03*
X61119Y20843D02*
D03*
X58858Y24803D02*
D03*
X84252Y23622D02*
D03*
X94094Y16732D02*
D03*
X93307Y16732D02*
D03*
X83071Y20479D02*
D03*
X82693Y22835D02*
D03*
X81890D02*
D03*
X82677Y24416D02*
D03*
X81890Y24409D02*
D03*
X76772Y23612D02*
D03*
X78543Y24409D02*
D03*
X77565Y26378D02*
D03*
X83268Y28543D02*
D03*
X77565Y27165D02*
D03*
X82480Y29471D02*
D03*
X81611Y29474D02*
D03*
D125*
X121618Y44146D02*
D03*
X121224Y44016D02*
D03*
X120701D02*
D03*
X120177D02*
D03*
X119654D02*
D03*
X119256Y44146D02*
D03*
X118941Y44390D02*
D03*
Y44803D02*
D03*
X119197Y45157D02*
D03*
X119654Y45276D02*
D03*
X120177D02*
D03*
X120701D02*
D03*
X121224D02*
D03*
X121618Y45157D02*
D03*
X125870Y44803D02*
D03*
Y44390D02*
D03*
X125555Y44146D02*
D03*
X125161Y44016D02*
D03*
X124638D02*
D03*
X124114D02*
D03*
X123591D02*
D03*
X123193Y44146D02*
D03*
X123134Y45157D02*
D03*
X123591Y45276D02*
D03*
X124114D02*
D03*
X124638D02*
D03*
X125161D02*
D03*
X125555Y45157D02*
D03*
X114331Y17008D02*
D03*
X114449Y17402D02*
D03*
Y17925D02*
D03*
Y18449D02*
D03*
Y18972D02*
D03*
X114331Y19429D02*
D03*
X113319Y19370D02*
D03*
X113189Y18972D02*
D03*
Y18449D02*
D03*
Y17925D02*
D03*
Y17402D02*
D03*
X113319Y17008D02*
D03*
X113563Y16693D02*
D03*
X113976D02*
D03*
X114331Y20945D02*
D03*
X114449Y21339D02*
D03*
Y21862D02*
D03*
Y22386D02*
D03*
Y22909D02*
D03*
X114331Y23366D02*
D03*
X113976Y23622D02*
D03*
X113563D02*
D03*
X113319Y23307D02*
D03*
X113189Y22909D02*
D03*
Y22386D02*
D03*
Y21862D02*
D03*
Y21339D02*
D03*
X113319Y20945D02*
D03*
X72244Y23218D02*
D03*
X75079Y35433D02*
D03*
X72244Y26969D02*
D03*
X68701Y36614D02*
D03*
X70659Y36417D02*
D03*
D171*
X96575Y25000D02*
D03*
X94370D02*
D03*
X40079Y30906D02*
D03*
X37874D02*
D03*
X91457Y25000D02*
D03*
X89252D02*
D03*
X19764Y29724D02*
D03*
X21969D02*
D03*
X30197Y26969D02*
D03*
X32402D02*
D03*
D172*
X39291Y26378D02*
D03*
X38386D02*
D03*
X37480D02*
D03*
D173*
X38386Y28799D02*
D03*
D174*
X53661Y27559D02*
D03*
X52244D02*
D03*
X52244Y26181D02*
D03*
X53661D02*
D03*
X75079Y35433D02*
D03*
X76496D02*
D03*
X104843Y23425D02*
D03*
X103425D02*
D03*
X86496Y19094D02*
D03*
X87913D02*
D03*
X89252Y20866D02*
D03*
X90669D02*
D03*
D175*
X26939Y32795D02*
D03*
Y31890D02*
D03*
Y30984D02*
D03*
D176*
X24636Y31890D02*
D03*
M02*
