G04*
G04 #@! TF.GenerationSoftware,Altium Limited,Altium Designer,20.2.6 (244)*
G04*
G04 Layer_Color=8421504*
%FSLAX24Y24*%
%MOIN*%
G70*
G04*
G04 #@! TF.SameCoordinates,8AECF8CF-BE68-462B-8B6A-8B8B687A0D7D*
G04*
G04*
G04 #@! TF.FilePolarity,Positive*
G04*
G01*
G75*
%ADD22C,0.0472*%
%ADD23R,0.0800X0.0600*%
%ADD24R,0.0492X0.0276*%
%ADD25R,0.1102X0.0630*%
%ADD26R,0.0433X0.0866*%
%ADD27R,0.0276X0.0492*%
%ADD28R,0.0600X0.0800*%
G04:AMPARAMS|DCode=29|XSize=25.6mil|YSize=47.2mil|CornerRadius=1.9mil|HoleSize=0mil|Usage=FLASHONLY|Rotation=0.000|XOffset=0mil|YOffset=0mil|HoleType=Round|Shape=RoundedRectangle|*
%AMROUNDEDRECTD29*
21,1,0.0256,0.0434,0,0,0.0*
21,1,0.0218,0.0472,0,0,0.0*
1,1,0.0038,0.0109,-0.0217*
1,1,0.0038,-0.0109,-0.0217*
1,1,0.0038,-0.0109,0.0217*
1,1,0.0038,0.0109,0.0217*
%
%ADD29ROUNDEDRECTD29*%
%ADD30R,0.0472X0.0433*%
%ADD31R,0.2126X0.1142*%
%ADD32R,0.0787X0.0965*%
%ADD33R,0.0236X0.0394*%
%ADD34R,0.0335X0.0630*%
%ADD35R,0.0630X0.0335*%
%ADD36R,0.0400X0.0600*%
%ADD37R,0.0551X0.0591*%
%ADD38R,0.0600X0.0400*%
%ADD39R,0.0630X0.1102*%
%ADD40R,0.0394X0.0236*%
%ADD41R,0.0433X0.0472*%
%ADD42O,0.0571X0.0236*%
%ADD43R,0.0354X0.0315*%
%ADD44R,0.0512X0.0591*%
%ADD45R,0.0787X0.0512*%
%ADD46R,0.0787X0.0787*%
%ADD47R,0.0315X0.0354*%
%ADD48O,0.0177X0.0591*%
G04:AMPARAMS|DCode=49|XSize=25.6mil|YSize=47.2mil|CornerRadius=1.9mil|HoleSize=0mil|Usage=FLASHONLY|Rotation=270.000|XOffset=0mil|YOffset=0mil|HoleType=Round|Shape=RoundedRectangle|*
%AMROUNDEDRECTD49*
21,1,0.0256,0.0434,0,0,270.0*
21,1,0.0218,0.0472,0,0,270.0*
1,1,0.0038,-0.0217,-0.0109*
1,1,0.0038,-0.0217,0.0109*
1,1,0.0038,0.0217,0.0109*
1,1,0.0038,0.0217,-0.0109*
%
%ADD49ROUNDEDRECTD49*%
%ADD50O,0.0236X0.0571*%
%ADD51R,0.0157X0.0315*%
%ADD52R,0.0630X0.1378*%
%ADD53R,0.0394X0.1260*%
%ADD54R,0.1260X0.0394*%
D22*
X3543Y13780D02*
D03*
X13431Y13963D02*
D03*
X3543Y14764D02*
D03*
X12008Y17126D02*
D03*
X3613Y20941D02*
D03*
X3117Y23314D02*
D03*
X84252Y46260D02*
D03*
X101378Y17323D02*
D03*
X102693Y21176D02*
D03*
X35827Y28543D02*
D03*
X18307Y26378D02*
D03*
X23373Y31444D02*
D03*
X35433Y787D02*
D03*
X87992Y16535D02*
D03*
X104724Y16929D02*
D03*
X93504Y45276D02*
D03*
X86024Y47835D02*
D03*
X99409Y42717D02*
D03*
X99016Y39567D02*
D03*
X47441Y17323D02*
D03*
X54921Y28150D02*
D03*
X60039Y30315D02*
D03*
X54921Y27165D02*
D03*
X60039Y28937D02*
D03*
X79528Y20472D02*
D03*
X77874Y20492D02*
D03*
X75984Y22638D02*
D03*
X72441Y31102D02*
D03*
X75787Y27953D02*
D03*
X73622Y31102D02*
D03*
X73228Y25197D02*
D03*
X84055Y26575D02*
D03*
X76181Y33071D02*
D03*
X75394Y41732D02*
D03*
X92913Y50591D02*
D03*
X95472Y37008D02*
D03*
X65551Y35433D02*
D03*
X74409Y27559D02*
D03*
X45866Y39370D02*
D03*
D23*
X62598Y21416D02*
D03*
Y20316D02*
D03*
X93898Y42085D02*
D03*
Y40985D02*
D03*
X89567Y24369D02*
D03*
Y23269D02*
D03*
X88189D02*
D03*
Y24369D02*
D03*
X85866Y18117D02*
D03*
Y17017D02*
D03*
X82333D02*
D03*
Y18117D02*
D03*
X93898Y47204D02*
D03*
Y46104D02*
D03*
X38189Y6537D02*
D03*
Y7637D02*
D03*
D24*
X77165Y29724D02*
D03*
Y30512D02*
D03*
X44094Y5512D02*
D03*
Y6299D02*
D03*
X44685Y7087D02*
D03*
Y7874D02*
D03*
X100787Y18701D02*
D03*
Y17913D02*
D03*
Y19879D02*
D03*
Y19091D02*
D03*
X86770Y17014D02*
D03*
Y17802D02*
D03*
X27756Y31102D02*
D03*
Y31890D02*
D03*
X51772Y20276D02*
D03*
Y21063D02*
D03*
X67520Y24213D02*
D03*
Y25000D02*
D03*
X66339Y26575D02*
D03*
Y27362D02*
D03*
X66732Y24213D02*
D03*
Y25000D02*
D03*
X58858Y23425D02*
D03*
Y24213D02*
D03*
X58071D02*
D03*
Y23425D02*
D03*
X56102Y25787D02*
D03*
Y25000D02*
D03*
X58071Y22850D02*
D03*
Y22063D02*
D03*
X72441Y42717D02*
D03*
Y43504D02*
D03*
X73228D02*
D03*
Y42717D02*
D03*
X71654Y43504D02*
D03*
Y42717D02*
D03*
X16929Y18169D02*
D03*
Y18957D02*
D03*
X15354Y18169D02*
D03*
Y18957D02*
D03*
X16142Y18169D02*
D03*
Y18957D02*
D03*
X15354Y20472D02*
D03*
Y19685D02*
D03*
X16142D02*
D03*
Y20472D02*
D03*
X15354Y14567D02*
D03*
Y15354D02*
D03*
X76772Y23622D02*
D03*
Y24409D02*
D03*
X81890Y23622D02*
D03*
Y24409D02*
D03*
X84252Y23622D02*
D03*
Y24409D02*
D03*
X83465Y23622D02*
D03*
Y24409D02*
D03*
X81102D02*
D03*
Y23622D02*
D03*
X77756Y23616D02*
D03*
Y24403D02*
D03*
X76378Y30512D02*
D03*
Y29724D02*
D03*
X82677Y24409D02*
D03*
Y23622D02*
D03*
X28740Y31890D02*
D03*
Y31102D02*
D03*
D25*
X80887Y32474D02*
D03*
X79194D02*
D03*
D26*
X22760Y19331D02*
D03*
X21760D02*
D03*
X20760D02*
D03*
X19760D02*
D03*
Y22795D02*
D03*
X21760D02*
D03*
X22760D02*
D03*
X20760D02*
D03*
D27*
X19291Y17913D02*
D03*
X20079D02*
D03*
X19291Y17126D02*
D03*
X20079D02*
D03*
X65676Y21734D02*
D03*
X66463D02*
D03*
X68504Y22835D02*
D03*
X67717D02*
D03*
X58858Y20276D02*
D03*
X58071D02*
D03*
X56890D02*
D03*
X56102D02*
D03*
X60846Y22313D02*
D03*
X60059D02*
D03*
X11614Y18504D02*
D03*
X10827D02*
D03*
X86220Y45472D02*
D03*
X85433D02*
D03*
X86220Y46260D02*
D03*
X85433D02*
D03*
X11574Y17520D02*
D03*
X10786D02*
D03*
Y19882D02*
D03*
X11574D02*
D03*
Y8150D02*
D03*
X10786D02*
D03*
X11574Y10507D02*
D03*
X10786D02*
D03*
Y12875D02*
D03*
X11574D02*
D03*
X4724Y12992D02*
D03*
X5512D02*
D03*
X4724Y10630D02*
D03*
X5512D02*
D03*
X4724Y8268D02*
D03*
X5512D02*
D03*
X4724Y20941D02*
D03*
X5512D02*
D03*
X4724Y16235D02*
D03*
X5512D02*
D03*
X4724Y18580D02*
D03*
X5512D02*
D03*
X4724Y23314D02*
D03*
X5512D02*
D03*
X4724Y13780D02*
D03*
X5512D02*
D03*
X4724Y11417D02*
D03*
X5512D02*
D03*
Y9055D02*
D03*
X4724D02*
D03*
X11614Y20866D02*
D03*
X10827D02*
D03*
X74803Y28740D02*
D03*
X75591D02*
D03*
X82693Y22835D02*
D03*
X83480D02*
D03*
X81102D02*
D03*
X81890D02*
D03*
X42795Y7303D02*
D03*
X43583D02*
D03*
X17323Y29528D02*
D03*
X18110D02*
D03*
Y28740D02*
D03*
X17323D02*
D03*
X21063Y27953D02*
D03*
X20276D02*
D03*
X22638D02*
D03*
X21850D02*
D03*
X32480Y31890D02*
D03*
X33268D02*
D03*
X25394Y30118D02*
D03*
X24606D02*
D03*
X25394Y28937D02*
D03*
X24606D02*
D03*
X25394Y30906D02*
D03*
X24606D02*
D03*
X21850Y26378D02*
D03*
X21063D02*
D03*
D28*
X97597Y17520D02*
D03*
X96497D02*
D03*
X86655Y22047D02*
D03*
X87755D02*
D03*
X86655Y21063D02*
D03*
X87755D02*
D03*
X85867Y19685D02*
D03*
X86967D02*
D03*
X88936Y19685D02*
D03*
X87836D02*
D03*
X79765Y30512D02*
D03*
X80865D02*
D03*
X40314Y15354D02*
D03*
X39214D02*
D03*
X40314Y14370D02*
D03*
X39214D02*
D03*
D29*
X89193Y21220D02*
D03*
X88819Y22244D02*
D03*
X89567D02*
D03*
D30*
X55512Y29744D02*
D03*
Y28917D02*
D03*
X56693Y29744D02*
D03*
Y28917D02*
D03*
X57874Y29744D02*
D03*
Y28917D02*
D03*
X59055Y29744D02*
D03*
Y28917D02*
D03*
D31*
X39764Y12972D02*
D03*
Y9075D02*
D03*
D32*
X47244Y44016D02*
D03*
Y42598D02*
D03*
X48819D02*
D03*
Y44016D02*
D03*
D33*
X65532Y27313D02*
D03*
X64783D02*
D03*
X65157Y26230D02*
D03*
D34*
X91132Y22835D02*
D03*
X92333D02*
D03*
Y20866D02*
D03*
X91132D02*
D03*
X92333Y21850D02*
D03*
X91132D02*
D03*
X71831Y44882D02*
D03*
X73032D02*
D03*
X74203Y45669D02*
D03*
X75404D02*
D03*
X74203Y44685D02*
D03*
X75404D02*
D03*
X11802Y31890D02*
D03*
X10601D02*
D03*
X11802Y31066D02*
D03*
X10601D02*
D03*
X76762Y25394D02*
D03*
X77963D02*
D03*
X30108Y26969D02*
D03*
X31309D02*
D03*
X34439Y32874D02*
D03*
X35640D02*
D03*
Y31890D02*
D03*
X34439D02*
D03*
D35*
X103150Y17904D02*
D03*
Y19104D02*
D03*
X103937Y17904D02*
D03*
Y19104D02*
D03*
X102362Y17904D02*
D03*
Y19104D02*
D03*
X5315Y6506D02*
D03*
Y5305D02*
D03*
X4331Y6506D02*
D03*
Y5305D02*
D03*
X62598Y39577D02*
D03*
Y38376D02*
D03*
X63583Y39577D02*
D03*
Y38376D02*
D03*
X77953Y30925D02*
D03*
Y29724D02*
D03*
X93307Y23809D02*
D03*
Y25010D02*
D03*
X97047Y20069D02*
D03*
Y21270D02*
D03*
X96260Y20069D02*
D03*
Y21270D02*
D03*
X92520Y23809D02*
D03*
Y25010D02*
D03*
D36*
X35243Y30709D02*
D03*
X34443D02*
D03*
X19585Y27953D02*
D03*
X18785D02*
D03*
X19577Y27176D02*
D03*
X18777D02*
D03*
X94101Y16732D02*
D03*
X93301D02*
D03*
X80038Y29402D02*
D03*
X80838D02*
D03*
X77565Y26378D02*
D03*
X76765D02*
D03*
X77565Y27165D02*
D03*
X76765D02*
D03*
X83865Y20472D02*
D03*
X83065D02*
D03*
X80702D02*
D03*
X81502D02*
D03*
X42789Y8878D02*
D03*
X43589D02*
D03*
X21844Y27165D02*
D03*
X22644D02*
D03*
X20269D02*
D03*
X21069D02*
D03*
X42789Y8091D02*
D03*
X43589D02*
D03*
D37*
X71850Y36417D02*
D03*
X70669D02*
D03*
X71850Y39567D02*
D03*
X70669D02*
D03*
X74016D02*
D03*
X72835D02*
D03*
D38*
X89961Y47041D02*
D03*
Y47841D02*
D03*
X88583Y47041D02*
D03*
Y47841D02*
D03*
X87795Y47041D02*
D03*
Y47841D02*
D03*
X93542Y18840D02*
D03*
Y18040D02*
D03*
X94541Y18840D02*
D03*
Y18040D02*
D03*
X58071Y24994D02*
D03*
Y25794D02*
D03*
X57283D02*
D03*
Y24994D02*
D03*
X29528Y31896D02*
D03*
Y31096D02*
D03*
X26969Y31896D02*
D03*
Y31096D02*
D03*
X81611Y29474D02*
D03*
Y30274D02*
D03*
X83263Y29470D02*
D03*
Y30270D02*
D03*
X78740Y29718D02*
D03*
Y30518D02*
D03*
X78543Y24409D02*
D03*
Y23609D02*
D03*
X82480Y29471D02*
D03*
Y30271D02*
D03*
X75591Y29718D02*
D03*
Y30518D02*
D03*
X96260Y50781D02*
D03*
Y51581D02*
D03*
X100571Y36837D02*
D03*
Y36037D02*
D03*
X93701Y38195D02*
D03*
Y37395D02*
D03*
X96705Y44107D02*
D03*
Y43307D02*
D03*
X88976Y45085D02*
D03*
Y44285D02*
D03*
X89764Y45085D02*
D03*
Y44285D02*
D03*
X88386Y51581D02*
D03*
Y50781D02*
D03*
X92717Y36620D02*
D03*
Y35820D02*
D03*
X99409Y36817D02*
D03*
Y36017D02*
D03*
X30906Y27946D02*
D03*
Y28746D02*
D03*
X99016Y40348D02*
D03*
Y41148D02*
D03*
X97835Y40348D02*
D03*
Y41148D02*
D03*
X98622Y44101D02*
D03*
Y43301D02*
D03*
X100000Y40348D02*
D03*
Y41148D02*
D03*
X88189Y45085D02*
D03*
Y44285D02*
D03*
X94882Y40939D02*
D03*
Y41739D02*
D03*
X92913Y46450D02*
D03*
Y47250D02*
D03*
X94979Y50017D02*
D03*
Y49217D02*
D03*
X97244Y51581D02*
D03*
Y50781D02*
D03*
X100591Y38392D02*
D03*
Y37592D02*
D03*
X97638Y44101D02*
D03*
Y43301D02*
D03*
X89370Y51581D02*
D03*
Y50781D02*
D03*
X87598Y49809D02*
D03*
Y49009D02*
D03*
X91732Y36620D02*
D03*
Y35820D02*
D03*
X30118Y27946D02*
D03*
Y28746D02*
D03*
D39*
X53543Y21909D02*
D03*
Y20217D02*
D03*
D40*
X14518Y14587D02*
D03*
Y15335D02*
D03*
X13435Y14961D02*
D03*
X57234Y23819D02*
D03*
X56152Y23445D02*
D03*
Y24193D02*
D03*
X56841Y21654D02*
D03*
X55758Y21280D02*
D03*
Y22028D02*
D03*
X64518Y20492D02*
D03*
Y21240D02*
D03*
X63435Y20866D02*
D03*
X61122Y20846D02*
D03*
X60039Y20472D02*
D03*
Y21220D02*
D03*
X13435Y18484D02*
D03*
Y17736D02*
D03*
X14518Y18110D02*
D03*
Y20472D02*
D03*
X13435Y20098D02*
D03*
Y20846D02*
D03*
X82726Y21654D02*
D03*
X83809Y22028D02*
D03*
Y21280D02*
D03*
X81841Y21654D02*
D03*
X80758Y21280D02*
D03*
Y22028D02*
D03*
X39092Y7281D02*
D03*
Y6907D02*
D03*
Y6533D02*
D03*
X40174D02*
D03*
Y6907D02*
D03*
Y7281D02*
D03*
D41*
X14547Y12875D02*
D03*
X15374D02*
D03*
D42*
X64065Y22319D02*
D03*
Y22819D02*
D03*
Y23319D02*
D03*
Y23819D02*
D03*
Y24319D02*
D03*
Y24819D02*
D03*
Y25319D02*
D03*
X61919Y22319D02*
D03*
Y22819D02*
D03*
Y23319D02*
D03*
Y23819D02*
D03*
Y24319D02*
D03*
Y24819D02*
D03*
Y25319D02*
D03*
X27077Y30278D02*
D03*
Y29778D02*
D03*
Y29278D02*
D03*
Y28778D02*
D03*
X29222Y30278D02*
D03*
Y29778D02*
D03*
Y29278D02*
D03*
Y28778D02*
D03*
X21742D02*
D03*
Y29278D02*
D03*
Y29778D02*
D03*
Y30278D02*
D03*
X19596Y28778D02*
D03*
Y29278D02*
D03*
Y29778D02*
D03*
Y30278D02*
D03*
D43*
X75197Y43110D02*
D03*
X74409Y42736D02*
D03*
Y43484D02*
D03*
X12214Y21870D02*
D03*
X11426Y21496D02*
D03*
Y22244D02*
D03*
X12214Y14941D02*
D03*
X11426Y14567D02*
D03*
Y15315D02*
D03*
D44*
X10079Y22319D02*
D03*
Y23319D02*
D03*
X6457Y22319D02*
D03*
Y23319D02*
D03*
X6457Y9146D02*
D03*
Y8146D02*
D03*
X10079Y9146D02*
D03*
Y8146D02*
D03*
X6457Y18594D02*
D03*
Y17594D02*
D03*
X10079Y18594D02*
D03*
Y17594D02*
D03*
X6457Y20957D02*
D03*
Y19957D02*
D03*
X10079Y20957D02*
D03*
Y19957D02*
D03*
X6457Y16232D02*
D03*
Y15232D02*
D03*
X10079Y16232D02*
D03*
Y15232D02*
D03*
X10079Y12870D02*
D03*
Y13870D02*
D03*
X6457Y12870D02*
D03*
Y13870D02*
D03*
X10079Y10508D02*
D03*
Y11508D02*
D03*
X6457Y10508D02*
D03*
Y11508D02*
D03*
D45*
X14370Y31043D02*
D03*
Y31949D02*
D03*
D46*
X15945Y31496D02*
D03*
D47*
X75394Y24409D02*
D03*
X75768Y23622D02*
D03*
X75020D02*
D03*
D48*
X79557Y26024D02*
D03*
X79813D02*
D03*
X80069D02*
D03*
X80325D02*
D03*
X80581D02*
D03*
X80837D02*
D03*
X81093D02*
D03*
X81348D02*
D03*
X81604D02*
D03*
X81860D02*
D03*
X79557Y28307D02*
D03*
X79813D02*
D03*
X80069D02*
D03*
X80325D02*
D03*
X80581D02*
D03*
X80837D02*
D03*
X81093D02*
D03*
X81348D02*
D03*
X81604D02*
D03*
X81860D02*
D03*
D49*
X84685Y17037D02*
D03*
Y17411D02*
D03*
Y17785D02*
D03*
X83524D02*
D03*
Y17037D02*
D03*
D50*
X97207Y42411D02*
D03*
X96707D02*
D03*
X96207D02*
D03*
X95707D02*
D03*
X97207Y40266D02*
D03*
X96707D02*
D03*
X96207D02*
D03*
X95707D02*
D03*
X90785Y45778D02*
D03*
X91285D02*
D03*
X91785D02*
D03*
X92285D02*
D03*
X90785Y47923D02*
D03*
X91285D02*
D03*
X91785D02*
D03*
X92285D02*
D03*
D51*
X94990Y51565D02*
D03*
Y50659D02*
D03*
X87605Y51573D02*
D03*
Y50668D02*
D03*
X93700Y35831D02*
D03*
Y36737D02*
D03*
X101382Y36032D02*
D03*
Y36937D02*
D03*
D52*
X35630Y7520D02*
D03*
Y5315D02*
D03*
X96260Y45945D02*
D03*
Y48150D02*
D03*
X91339Y40630D02*
D03*
Y42835D02*
D03*
D53*
X49646Y36614D02*
D03*
X47205D02*
D03*
Y38386D02*
D03*
X49646D02*
D03*
Y40157D02*
D03*
X47205D02*
D03*
D54*
X51575Y51142D02*
D03*
Y53583D02*
D03*
X28740Y50433D02*
D03*
Y47992D02*
D03*
Y53583D02*
D03*
Y51142D02*
D03*
X51575Y50433D02*
D03*
Y47992D02*
D03*
M02*
