G04*
G04 #@! TF.GenerationSoftware,Altium Limited,Altium Designer,21.0.8 (223)*
G04*
G04 Layer_Color=255*
%FSLAX25Y25*%
%MOIN*%
G70*
G04*
G04 #@! TF.SameCoordinates,62C4E7E2-AFE0-4541-AB1A-96B31376B225*
G04*
G04*
G04 #@! TF.FilePolarity,Positive*
G04*
G01*
G75*
%ADD22R,0.04000X0.06000*%
%ADD23R,0.04724X0.04331*%
%ADD24R,0.06299X0.13780*%
%ADD25R,0.06000X0.08000*%
%ADD26R,0.02756X0.04921*%
%ADD27R,0.04921X0.02756*%
%ADD28R,0.03543X0.03150*%
%ADD29R,0.03937X0.02362*%
%ADD30R,0.04331X0.04724*%
%ADD31R,0.04900X0.12500*%
%ADD32R,0.12500X0.04900*%
%ADD33R,0.03937X0.04724*%
%ADD34C,0.03937*%
%ADD35C,0.04724*%
%ADD36R,0.08000X0.06000*%
%ADD37R,0.11024X0.06299*%
%ADD38R,0.04331X0.08661*%
G04:AMPARAMS|DCode=39|XSize=25.59mil|YSize=47.24mil|CornerRadius=1.92mil|HoleSize=0mil|Usage=FLASHONLY|Rotation=0.000|XOffset=0mil|YOffset=0mil|HoleType=Round|Shape=RoundedRectangle|*
%AMROUNDEDRECTD39*
21,1,0.02559,0.04341,0,0,0.0*
21,1,0.02175,0.04724,0,0,0.0*
1,1,0.00384,0.01088,-0.02170*
1,1,0.00384,-0.01088,-0.02170*
1,1,0.00384,-0.01088,0.02170*
1,1,0.00384,0.01088,0.02170*
%
%ADD39ROUNDEDRECTD39*%
%ADD40R,0.21260X0.11417*%
%ADD41R,0.07874X0.09646*%
%ADD42R,0.02362X0.03937*%
%ADD43R,0.03347X0.06299*%
%ADD44R,0.06299X0.03347*%
%ADD45R,0.05512X0.05906*%
%ADD46R,0.06000X0.04000*%
%ADD47R,0.06299X0.11024*%
%ADD48O,0.05709X0.02362*%
%ADD49R,0.05118X0.05906*%
%ADD50R,0.07874X0.05118*%
%ADD51R,0.07874X0.07874*%
%ADD52R,0.03150X0.03543*%
%ADD53O,0.01772X0.05906*%
G04:AMPARAMS|DCode=54|XSize=25.59mil|YSize=47.24mil|CornerRadius=1.92mil|HoleSize=0mil|Usage=FLASHONLY|Rotation=270.000|XOffset=0mil|YOffset=0mil|HoleType=Round|Shape=RoundedRectangle|*
%AMROUNDEDRECTD54*
21,1,0.02559,0.04341,0,0,270.0*
21,1,0.02175,0.04724,0,0,270.0*
1,1,0.00384,-0.02170,-0.01088*
1,1,0.00384,-0.02170,0.01088*
1,1,0.00384,0.02170,0.01088*
1,1,0.00384,0.02170,-0.01088*
%
%ADD54ROUNDEDRECTD54*%
%ADD55O,0.02362X0.05709*%
%ADD56R,0.01575X0.03150*%
%ADD57R,0.03937X0.12598*%
%ADD58R,0.12598X0.03937*%
%ADD98C,0.06299*%
%ADD109C,0.11024*%
%ADD119R,0.06299X0.06299*%
%ADD123C,0.09843*%
%ADD138R,0.05906X0.05906*%
%ADD139C,0.05906*%
G04:AMPARAMS|DCode=140|XSize=59.06mil|YSize=59.06mil|CornerRadius=14.76mil|HoleSize=0mil|Usage=FLASHONLY|Rotation=180.000|XOffset=0mil|YOffset=0mil|HoleType=Round|Shape=RoundedRectangle|*
%AMROUNDEDRECTD140*
21,1,0.05906,0.02953,0,0,180.0*
21,1,0.02953,0.05906,0,0,180.0*
1,1,0.02953,-0.01476,0.01476*
1,1,0.02953,0.01476,0.01476*
1,1,0.02953,0.01476,-0.01476*
1,1,0.02953,-0.01476,-0.01476*
%
%ADD140ROUNDEDRECTD140*%
G04:AMPARAMS|DCode=141|XSize=354.33mil|YSize=236.22mil|CornerRadius=59.06mil|HoleSize=0mil|Usage=FLASHONLY|Rotation=180.000|XOffset=0mil|YOffset=0mil|HoleType=Round|Shape=RoundedRectangle|*
%AMROUNDEDRECTD141*
21,1,0.35433,0.11811,0,0,180.0*
21,1,0.23622,0.23622,0,0,180.0*
1,1,0.11811,-0.11811,0.05906*
1,1,0.11811,0.11811,0.05906*
1,1,0.11811,0.11811,-0.05906*
1,1,0.11811,-0.11811,-0.05906*
%
%ADD141ROUNDEDRECTD141*%
G04:AMPARAMS|DCode=142|XSize=354.33mil|YSize=236.22mil|CornerRadius=59.06mil|HoleSize=0mil|Usage=FLASHONLY|Rotation=90.000|XOffset=0mil|YOffset=0mil|HoleType=Round|Shape=RoundedRectangle|*
%AMROUNDEDRECTD142*
21,1,0.35433,0.11811,0,0,90.0*
21,1,0.23622,0.23622,0,0,90.0*
1,1,0.11811,0.05906,0.11811*
1,1,0.11811,0.05906,-0.11811*
1,1,0.11811,-0.05906,-0.11811*
1,1,0.11811,-0.05906,0.11811*
%
%ADD142ROUNDEDRECTD142*%
G04:AMPARAMS|DCode=143|XSize=59.06mil|YSize=59.06mil|CornerRadius=14.76mil|HoleSize=0mil|Usage=FLASHONLY|Rotation=90.000|XOffset=0mil|YOffset=0mil|HoleType=Round|Shape=RoundedRectangle|*
%AMROUNDEDRECTD143*
21,1,0.05906,0.02953,0,0,90.0*
21,1,0.02953,0.05906,0,0,90.0*
1,1,0.02953,0.01476,0.01476*
1,1,0.02953,0.01476,-0.01476*
1,1,0.02953,-0.01476,-0.01476*
1,1,0.02953,-0.01476,0.01476*
%
%ADD143ROUNDEDRECTD143*%
%ADD144C,0.14961*%
%ADD145C,0.07874*%
G04:AMPARAMS|DCode=146|XSize=196.85mil|YSize=196.85mil|CornerRadius=49.21mil|HoleSize=0mil|Usage=FLASHONLY|Rotation=90.000|XOffset=0mil|YOffset=0mil|HoleType=Round|Shape=RoundedRectangle|*
%AMROUNDEDRECTD146*
21,1,0.19685,0.09843,0,0,90.0*
21,1,0.09843,0.19685,0,0,90.0*
1,1,0.09843,0.04921,0.04921*
1,1,0.09843,0.04921,-0.04921*
1,1,0.09843,-0.04921,-0.04921*
1,1,0.09843,-0.04921,0.04921*
%
%ADD146ROUNDEDRECTD146*%
%ADD147C,0.10630*%
%ADD148R,0.10630X0.10630*%
%ADD149C,0.17323*%
%ADD150C,0.13780*%
G04:AMPARAMS|DCode=151|XSize=551.18mil|YSize=125.98mil|CornerRadius=31.5mil|HoleSize=0mil|Usage=FLASHONLY|Rotation=270.000|XOffset=0mil|YOffset=0mil|HoleType=Round|Shape=RoundedRectangle|*
%AMROUNDEDRECTD151*
21,1,0.55118,0.06299,0,0,270.0*
21,1,0.48819,0.12598,0,0,270.0*
1,1,0.06299,-0.03150,-0.24410*
1,1,0.06299,-0.03150,0.24410*
1,1,0.06299,0.03150,0.24410*
1,1,0.06299,0.03150,-0.24410*
%
%ADD151ROUNDEDRECTD151*%
G04:AMPARAMS|DCode=152|XSize=354.33mil|YSize=125.98mil|CornerRadius=31.5mil|HoleSize=0mil|Usage=FLASHONLY|Rotation=270.000|XOffset=0mil|YOffset=0mil|HoleType=Round|Shape=RoundedRectangle|*
%AMROUNDEDRECTD152*
21,1,0.35433,0.06299,0,0,270.0*
21,1,0.29134,0.12598,0,0,270.0*
1,1,0.06299,-0.03150,-0.14567*
1,1,0.06299,-0.03150,0.14567*
1,1,0.06299,0.03150,0.14567*
1,1,0.06299,0.03150,-0.14567*
%
%ADD152ROUNDEDRECTD152*%
%ADD153C,0.07087*%
%ADD154C,0.06496*%
%ADD155R,0.07087X0.07087*%
%ADD156R,0.05906X0.05906*%
G04:AMPARAMS|DCode=157|XSize=196.85mil|YSize=196.85mil|CornerRadius=49.21mil|HoleSize=0mil|Usage=FLASHONLY|Rotation=0.000|XOffset=0mil|YOffset=0mil|HoleType=Round|Shape=RoundedRectangle|*
%AMROUNDEDRECTD157*
21,1,0.19685,0.09843,0,0,0.0*
21,1,0.09843,0.19685,0,0,0.0*
1,1,0.09843,0.04921,-0.04921*
1,1,0.09843,-0.04921,-0.04921*
1,1,0.09843,-0.04921,0.04921*
1,1,0.09843,0.04921,0.04921*
%
%ADD157ROUNDEDRECTD157*%
G04:AMPARAMS|DCode=158|XSize=314.96mil|YSize=314.96mil|CornerRadius=78.74mil|HoleSize=0mil|Usage=FLASHONLY|Rotation=90.000|XOffset=0mil|YOffset=0mil|HoleType=Round|Shape=RoundedRectangle|*
%AMROUNDEDRECTD158*
21,1,0.31496,0.15748,0,0,90.0*
21,1,0.15748,0.31496,0,0,90.0*
1,1,0.15748,0.07874,0.07874*
1,1,0.15748,0.07874,-0.07874*
1,1,0.15748,-0.07874,-0.07874*
1,1,0.15748,-0.07874,0.07874*
%
%ADD158ROUNDEDRECTD158*%
%ADD159C,0.08661*%
%ADD160C,0.09449*%
G04:AMPARAMS|DCode=161|XSize=157.48mil|YSize=157.48mil|CornerRadius=39.37mil|HoleSize=0mil|Usage=FLASHONLY|Rotation=180.000|XOffset=0mil|YOffset=0mil|HoleType=Round|Shape=RoundedRectangle|*
%AMROUNDEDRECTD161*
21,1,0.15748,0.07874,0,0,180.0*
21,1,0.07874,0.15748,0,0,180.0*
1,1,0.07874,-0.03937,0.03937*
1,1,0.07874,0.03937,0.03937*
1,1,0.07874,0.03937,-0.03937*
1,1,0.07874,-0.03937,-0.03937*
%
%ADD161ROUNDEDRECTD161*%
G04:AMPARAMS|DCode=162|XSize=157.48mil|YSize=125.98mil|CornerRadius=31.5mil|HoleSize=0mil|Usage=FLASHONLY|Rotation=90.000|XOffset=0mil|YOffset=0mil|HoleType=Round|Shape=RoundedRectangle|*
%AMROUNDEDRECTD162*
21,1,0.15748,0.06299,0,0,90.0*
21,1,0.09449,0.12598,0,0,90.0*
1,1,0.06299,0.03150,0.04724*
1,1,0.06299,0.03150,-0.04724*
1,1,0.06299,-0.03150,-0.04724*
1,1,0.06299,-0.03150,0.04724*
%
%ADD162ROUNDEDRECTD162*%
%ADD163R,0.07087X0.07087*%
%ADD164C,0.11811*%
%ADD165C,0.12598*%
G04:AMPARAMS|DCode=166|XSize=118.11mil|YSize=118.11mil|CornerRadius=29.53mil|HoleSize=0mil|Usage=FLASHONLY|Rotation=0.000|XOffset=0mil|YOffset=0mil|HoleType=Round|Shape=RoundedRectangle|*
%AMROUNDEDRECTD166*
21,1,0.11811,0.05906,0,0,0.0*
21,1,0.05906,0.11811,0,0,0.0*
1,1,0.05906,0.02953,-0.02953*
1,1,0.05906,-0.02953,-0.02953*
1,1,0.05906,-0.02953,0.02953*
1,1,0.05906,0.02953,0.02953*
%
%ADD166ROUNDEDRECTD166*%
%ADD167R,0.03937X0.03937*%
D22*
X464630Y163386D02*
D03*
X456630D02*
D03*
X15811Y118110D02*
D03*
X7811D02*
D03*
X15811Y125984D02*
D03*
X7811D02*
D03*
X55181Y37402D02*
D03*
X47181D02*
D03*
X407543Y7874D02*
D03*
X399543D02*
D03*
X352425Y307087D02*
D03*
X344425D02*
D03*
X195849Y279528D02*
D03*
X187849D02*
D03*
X195766Y271759D02*
D03*
X187766D02*
D03*
X941008Y167323D02*
D03*
X933008D02*
D03*
X800379Y294018D02*
D03*
X808379D02*
D03*
X775654Y263779D02*
D03*
X767654D02*
D03*
X775655Y271654D02*
D03*
X767655D02*
D03*
X838646Y204724D02*
D03*
X830646D02*
D03*
X807024D02*
D03*
X815024D02*
D03*
X427890Y88779D02*
D03*
X435890D02*
D03*
X218441Y271654D02*
D03*
X226441D02*
D03*
X202693D02*
D03*
X210693D02*
D03*
X427890Y80905D02*
D03*
X435890D02*
D03*
D23*
X472441Y155512D02*
D03*
Y163779D02*
D03*
X133858Y167520D02*
D03*
Y159252D02*
D03*
X555118Y297441D02*
D03*
Y289173D02*
D03*
X566929Y297441D02*
D03*
Y289173D02*
D03*
X578740Y297441D02*
D03*
Y289173D02*
D03*
X590551Y297441D02*
D03*
Y289173D02*
D03*
D24*
X15748Y72835D02*
D03*
Y94882D02*
D03*
X356299Y75197D02*
D03*
Y53150D02*
D03*
X962598Y459449D02*
D03*
Y481496D02*
D03*
X913386Y406299D02*
D03*
Y428346D02*
D03*
D25*
X10248Y135827D02*
D03*
X21248D02*
D03*
X975972Y175197D02*
D03*
X964972D02*
D03*
X866547Y220472D02*
D03*
X877547D02*
D03*
X866547Y210630D02*
D03*
X877547D02*
D03*
X858673Y196850D02*
D03*
X869673D02*
D03*
X889358Y196850D02*
D03*
X878358D02*
D03*
X797650Y305118D02*
D03*
X808650D02*
D03*
X403138Y153543D02*
D03*
X392138D02*
D03*
X403138Y143701D02*
D03*
X392138D02*
D03*
D26*
X133858Y190945D02*
D03*
X141732D02*
D03*
X120079Y194882D02*
D03*
X127953D02*
D03*
X192913Y179134D02*
D03*
X200787D02*
D03*
X192913Y171260D02*
D03*
X200787D02*
D03*
X656758Y217344D02*
D03*
X664632D02*
D03*
X685039Y228346D02*
D03*
X677165D02*
D03*
X588583Y202756D02*
D03*
X580709D02*
D03*
X568898D02*
D03*
X561024D02*
D03*
X608464Y223128D02*
D03*
X600590D02*
D03*
X116142Y185039D02*
D03*
X108268D02*
D03*
X862205Y454724D02*
D03*
X854331D02*
D03*
X862205Y462598D02*
D03*
X854331D02*
D03*
X115737Y175197D02*
D03*
X107863D02*
D03*
Y198819D02*
D03*
X115737D02*
D03*
Y81496D02*
D03*
X107863D02*
D03*
X115737Y105071D02*
D03*
X107863D02*
D03*
Y128748D02*
D03*
X115737D02*
D03*
X47244Y129921D02*
D03*
X55118D02*
D03*
X47244Y106299D02*
D03*
X55118D02*
D03*
X47244Y82677D02*
D03*
X55118D02*
D03*
X47244Y209407D02*
D03*
X55118D02*
D03*
X47244Y162353D02*
D03*
X55118D02*
D03*
X47244Y185800D02*
D03*
X55118D02*
D03*
X47244Y233144D02*
D03*
X55118D02*
D03*
X47244Y137795D02*
D03*
X55118D02*
D03*
X47244Y114173D02*
D03*
X55118D02*
D03*
Y90551D02*
D03*
X47244D02*
D03*
X116142Y208661D02*
D03*
X108268D02*
D03*
X748032Y287402D02*
D03*
X755905D02*
D03*
X826926Y228346D02*
D03*
X834800D02*
D03*
X811024D02*
D03*
X818898D02*
D03*
X427953Y73032D02*
D03*
X435827D02*
D03*
X173228Y295276D02*
D03*
X181102D02*
D03*
Y287402D02*
D03*
X173228D02*
D03*
X210630Y279528D02*
D03*
X202756D02*
D03*
X226378D02*
D03*
X218504D02*
D03*
X324803Y318898D02*
D03*
X332677D02*
D03*
X253937Y301181D02*
D03*
X246063D02*
D03*
X253937Y289370D02*
D03*
X246063D02*
D03*
X253937Y309055D02*
D03*
X246063D02*
D03*
X218504Y263779D02*
D03*
X210630D02*
D03*
D27*
X110236Y236611D02*
D03*
Y228737D02*
D03*
X771654Y297244D02*
D03*
Y305118D02*
D03*
X440945Y55118D02*
D03*
Y62992D02*
D03*
X446850Y70866D02*
D03*
Y78740D02*
D03*
X1007874Y187008D02*
D03*
Y179134D02*
D03*
Y198787D02*
D03*
Y190913D02*
D03*
X867700Y170141D02*
D03*
Y178015D02*
D03*
X277559Y311024D02*
D03*
Y318898D02*
D03*
X675197Y242126D02*
D03*
Y250000D02*
D03*
X663386Y265748D02*
D03*
Y273622D02*
D03*
X667323Y242126D02*
D03*
Y250000D02*
D03*
X588583Y234252D02*
D03*
Y242126D02*
D03*
X580709D02*
D03*
Y234252D02*
D03*
X561024Y257874D02*
D03*
Y250000D02*
D03*
X580709Y228504D02*
D03*
Y220630D02*
D03*
X724409Y427165D02*
D03*
Y435039D02*
D03*
X732283D02*
D03*
Y427165D02*
D03*
X716535Y435039D02*
D03*
Y427165D02*
D03*
X169291Y181693D02*
D03*
Y189567D02*
D03*
X153543Y181693D02*
D03*
Y189567D02*
D03*
X161417Y181693D02*
D03*
Y189567D02*
D03*
X153543Y204724D02*
D03*
Y196850D02*
D03*
X161417D02*
D03*
Y204724D02*
D03*
X153543Y145669D02*
D03*
Y153543D02*
D03*
X767717Y236221D02*
D03*
Y244094D02*
D03*
X818898Y236221D02*
D03*
Y244094D02*
D03*
X842520Y236221D02*
D03*
Y244094D02*
D03*
X834646Y236221D02*
D03*
Y244094D02*
D03*
X811024D02*
D03*
Y236221D02*
D03*
X777559Y236157D02*
D03*
Y244032D02*
D03*
X763779Y305118D02*
D03*
Y297244D02*
D03*
X826772Y244094D02*
D03*
Y236221D02*
D03*
X287402Y318898D02*
D03*
Y311024D02*
D03*
D28*
X122007Y218577D02*
D03*
X114133Y214837D02*
D03*
Y222317D02*
D03*
X116124Y153347D02*
D03*
Y145866D02*
D03*
X123998Y149606D02*
D03*
X751968Y431102D02*
D03*
X744095Y427362D02*
D03*
Y434842D02*
D03*
D29*
X133967Y184983D02*
D03*
Y177502D02*
D03*
X144794Y181243D02*
D03*
X139272Y204724D02*
D03*
X128445Y200984D02*
D03*
Y208465D02*
D03*
X145177Y145866D02*
D03*
Y153347D02*
D03*
X134350Y149606D02*
D03*
X572342Y238189D02*
D03*
X561516Y234449D02*
D03*
Y241929D02*
D03*
X568405Y216535D02*
D03*
X557579Y212795D02*
D03*
Y220276D02*
D03*
X645177Y204921D02*
D03*
Y212402D02*
D03*
X634350Y208661D02*
D03*
X611221Y208465D02*
D03*
X600394Y204724D02*
D03*
Y212205D02*
D03*
X827264Y216535D02*
D03*
X838091Y220276D02*
D03*
Y212795D02*
D03*
X818406Y216535D02*
D03*
X807579Y212795D02*
D03*
Y220276D02*
D03*
X390918Y72806D02*
D03*
Y69065D02*
D03*
Y65325D02*
D03*
X401745D02*
D03*
Y69065D02*
D03*
Y72806D02*
D03*
D30*
X822638Y362205D02*
D03*
X830906D02*
D03*
X47047Y29528D02*
D03*
X55315D02*
D03*
X391732Y7874D02*
D03*
X383465D02*
D03*
X1431299Y11811D02*
D03*
X1423032D02*
D03*
X1476181Y584646D02*
D03*
X1484449D02*
D03*
X145472Y128748D02*
D03*
X153740D02*
D03*
D31*
X1414615Y31496D02*
D03*
X1439715D02*
D03*
X1424458Y594488D02*
D03*
X1449558D02*
D03*
D32*
X1427165Y556348D02*
D03*
Y581448D02*
D03*
X1444882Y556348D02*
D03*
Y581448D02*
D03*
D33*
X66929Y66929D02*
D03*
X53150D02*
D03*
X517602Y196850D02*
D03*
X635827Y391732D02*
D03*
X622047D02*
D03*
X940000Y244094D02*
D03*
X926575D02*
D03*
X954724Y204724D02*
D03*
X968701D02*
D03*
D34*
X66929Y61024D02*
D03*
X53150D02*
D03*
X517602Y202756D02*
D03*
X635827Y397638D02*
D03*
X622047D02*
D03*
X940000Y250000D02*
D03*
X926575D02*
D03*
X954724Y210630D02*
D03*
X968701D02*
D03*
X319803Y328740D02*
D03*
X324803D02*
D03*
D35*
X35433Y137795D02*
D03*
X124016Y139764D02*
D03*
X35433Y147638D02*
D03*
X120079Y171260D02*
D03*
X36129Y209407D02*
D03*
X31169Y233144D02*
D03*
X842520Y462598D02*
D03*
X1013780Y173228D02*
D03*
X1026933Y211762D02*
D03*
X358268Y285433D02*
D03*
X183071Y263779D02*
D03*
X233731Y314439D02*
D03*
X354331Y7874D02*
D03*
X879921Y165354D02*
D03*
X1047244Y169291D02*
D03*
X935039Y452756D02*
D03*
X860236Y478346D02*
D03*
X994094Y427165D02*
D03*
X990158Y395669D02*
D03*
X474409Y173228D02*
D03*
X549213Y281496D02*
D03*
X600394Y303150D02*
D03*
X549213Y271654D02*
D03*
X600394Y289370D02*
D03*
X795276Y204724D02*
D03*
X778740Y204921D02*
D03*
X759842Y226378D02*
D03*
X724409Y311024D02*
D03*
X757874Y279528D02*
D03*
X736221Y311024D02*
D03*
X732283Y251969D02*
D03*
X840551Y265748D02*
D03*
X761811Y330709D02*
D03*
X753937Y417323D02*
D03*
X929134Y505905D02*
D03*
X954724Y370079D02*
D03*
X655512Y354331D02*
D03*
X744095Y275590D02*
D03*
X458661Y393701D02*
D03*
D36*
X625984Y214161D02*
D03*
Y203161D02*
D03*
X938976Y420854D02*
D03*
Y409854D02*
D03*
X895669Y243689D02*
D03*
Y232689D02*
D03*
X881890D02*
D03*
Y243689D02*
D03*
X858658Y181172D02*
D03*
Y170172D02*
D03*
X823327D02*
D03*
Y181172D02*
D03*
X938976Y472035D02*
D03*
Y461035D02*
D03*
X381890Y65366D02*
D03*
Y76366D02*
D03*
D37*
X808871Y324736D02*
D03*
X791942D02*
D03*
D38*
X227598Y193307D02*
D03*
X217598D02*
D03*
X207598D02*
D03*
X197598D02*
D03*
Y227953D02*
D03*
X217598D02*
D03*
X227598D02*
D03*
X207598D02*
D03*
D39*
X891929Y212205D02*
D03*
X888189Y222441D02*
D03*
X895669D02*
D03*
D40*
X397638Y129724D02*
D03*
Y90748D02*
D03*
D41*
X472441Y440158D02*
D03*
Y425984D02*
D03*
X488189D02*
D03*
Y440158D02*
D03*
D42*
X655315Y273130D02*
D03*
X647835D02*
D03*
X651575Y262303D02*
D03*
D43*
X911319Y228346D02*
D03*
X923327D02*
D03*
Y208661D02*
D03*
X911319D02*
D03*
X923327Y218504D02*
D03*
X911319D02*
D03*
X718307Y448819D02*
D03*
X730315D02*
D03*
X742028Y456693D02*
D03*
X754035D02*
D03*
X742028Y446850D02*
D03*
X754035D02*
D03*
X118018Y318898D02*
D03*
X106010D02*
D03*
X118018Y310663D02*
D03*
X106010D02*
D03*
X767618Y253937D02*
D03*
X779626D02*
D03*
X301083Y269685D02*
D03*
X313090D02*
D03*
X344390Y328740D02*
D03*
X356398D02*
D03*
Y318898D02*
D03*
X344390D02*
D03*
D44*
X1031496Y179035D02*
D03*
Y191043D02*
D03*
X1039370Y179035D02*
D03*
Y191043D02*
D03*
X1023622Y179035D02*
D03*
Y191043D02*
D03*
X779528Y309252D02*
D03*
Y297244D02*
D03*
D45*
X718504Y364173D02*
D03*
X706693D02*
D03*
X718504Y395669D02*
D03*
X706693D02*
D03*
X740158D02*
D03*
X728346D02*
D03*
D46*
X899606Y470409D02*
D03*
Y478409D02*
D03*
X885827Y470409D02*
D03*
Y478409D02*
D03*
X877953Y470409D02*
D03*
Y478409D02*
D03*
X935417Y188399D02*
D03*
Y180399D02*
D03*
X945413Y188399D02*
D03*
Y180399D02*
D03*
X580709Y249937D02*
D03*
Y257937D02*
D03*
X572835D02*
D03*
Y249937D02*
D03*
X295276Y318961D02*
D03*
Y310961D02*
D03*
X269685Y318961D02*
D03*
Y310961D02*
D03*
X816107Y294742D02*
D03*
Y302742D02*
D03*
X832628Y294701D02*
D03*
Y302701D02*
D03*
X787402Y297181D02*
D03*
Y305181D02*
D03*
X785433Y244094D02*
D03*
Y236094D02*
D03*
X824802Y294708D02*
D03*
Y302708D02*
D03*
X755905Y297181D02*
D03*
Y305181D02*
D03*
X962598Y507811D02*
D03*
Y515811D02*
D03*
X1005713Y368370D02*
D03*
Y360370D02*
D03*
X937008Y381953D02*
D03*
Y373953D02*
D03*
X967052Y441070D02*
D03*
Y433070D02*
D03*
X889764Y450850D02*
D03*
Y442850D02*
D03*
X897638Y450850D02*
D03*
Y442850D02*
D03*
X883858Y515811D02*
D03*
Y507811D02*
D03*
X927165Y366205D02*
D03*
Y358205D02*
D03*
X994094Y368173D02*
D03*
Y360173D02*
D03*
X309055Y279465D02*
D03*
Y287465D02*
D03*
X990158Y403480D02*
D03*
Y411480D02*
D03*
X978347Y403480D02*
D03*
Y411480D02*
D03*
X986220Y441008D02*
D03*
Y433008D02*
D03*
X1000000Y403480D02*
D03*
Y411480D02*
D03*
X881890Y450850D02*
D03*
Y442850D02*
D03*
X948819Y409386D02*
D03*
Y417386D02*
D03*
X929134Y464504D02*
D03*
Y472504D02*
D03*
X949790Y500165D02*
D03*
Y492165D02*
D03*
X972441Y515811D02*
D03*
Y507811D02*
D03*
X1005906Y383921D02*
D03*
Y375921D02*
D03*
X976378Y441008D02*
D03*
Y433008D02*
D03*
X893701Y515811D02*
D03*
Y507811D02*
D03*
X875984Y498095D02*
D03*
Y490095D02*
D03*
X917323Y366205D02*
D03*
Y358205D02*
D03*
X301181Y279465D02*
D03*
Y287465D02*
D03*
D47*
X535433Y219094D02*
D03*
Y202165D02*
D03*
D48*
X640650Y223189D02*
D03*
Y228189D02*
D03*
Y233189D02*
D03*
Y238189D02*
D03*
Y243189D02*
D03*
Y248189D02*
D03*
Y253189D02*
D03*
X619193Y223189D02*
D03*
Y228189D02*
D03*
Y233189D02*
D03*
Y238189D02*
D03*
Y243189D02*
D03*
Y248189D02*
D03*
Y253189D02*
D03*
X270768Y302776D02*
D03*
Y297776D02*
D03*
Y292776D02*
D03*
Y287776D02*
D03*
X292224Y302776D02*
D03*
Y297776D02*
D03*
Y292776D02*
D03*
Y287776D02*
D03*
X217421D02*
D03*
Y292776D02*
D03*
Y297776D02*
D03*
Y302776D02*
D03*
X195965Y287776D02*
D03*
Y292776D02*
D03*
Y297776D02*
D03*
Y302776D02*
D03*
D49*
X100787Y223189D02*
D03*
Y233189D02*
D03*
X64567Y223189D02*
D03*
Y233189D02*
D03*
X64567Y91457D02*
D03*
Y81457D02*
D03*
X100787Y91457D02*
D03*
Y81457D02*
D03*
X64567Y185945D02*
D03*
Y175945D02*
D03*
X100787Y185945D02*
D03*
Y175945D02*
D03*
X64567Y209567D02*
D03*
Y199567D02*
D03*
X100787Y209567D02*
D03*
Y199567D02*
D03*
X64567Y162323D02*
D03*
Y152323D02*
D03*
X100787Y162323D02*
D03*
Y152323D02*
D03*
X100787Y128701D02*
D03*
Y138701D02*
D03*
X64567Y128701D02*
D03*
Y138701D02*
D03*
X100787Y105079D02*
D03*
Y115079D02*
D03*
X64567Y105079D02*
D03*
Y115079D02*
D03*
D50*
X143701Y310433D02*
D03*
Y319488D02*
D03*
D51*
X159449Y314961D02*
D03*
D52*
X753937Y244094D02*
D03*
X757677Y236221D02*
D03*
X750197D02*
D03*
D53*
X795571Y260236D02*
D03*
X798130D02*
D03*
X800689D02*
D03*
X803248D02*
D03*
X805807D02*
D03*
X808366D02*
D03*
X810925D02*
D03*
X813484D02*
D03*
X816043D02*
D03*
X818602D02*
D03*
X795571Y283071D02*
D03*
X798130D02*
D03*
X800689D02*
D03*
X803248D02*
D03*
X805807D02*
D03*
X808366D02*
D03*
X810925D02*
D03*
X813484D02*
D03*
X816043D02*
D03*
X818602D02*
D03*
D54*
X846850Y170369D02*
D03*
Y174109D02*
D03*
Y177849D02*
D03*
X835236D02*
D03*
Y170369D02*
D03*
D55*
X972067Y424114D02*
D03*
X967067D02*
D03*
X962067D02*
D03*
X957067D02*
D03*
X972067Y402658D02*
D03*
X967067D02*
D03*
X962067D02*
D03*
X957067D02*
D03*
X907854Y457776D02*
D03*
X912854D02*
D03*
X917854D02*
D03*
X922854D02*
D03*
X907854Y479232D02*
D03*
X912854D02*
D03*
X917854D02*
D03*
X922854D02*
D03*
D56*
X949899Y515649D02*
D03*
Y506594D02*
D03*
X876049Y515731D02*
D03*
Y506676D02*
D03*
X937005Y358315D02*
D03*
Y367370D02*
D03*
X1013825Y360316D02*
D03*
Y369371D02*
D03*
D57*
X496457Y366142D02*
D03*
X472047D02*
D03*
Y383858D02*
D03*
X496457D02*
D03*
Y401575D02*
D03*
X472047D02*
D03*
D58*
X515748Y511417D02*
D03*
Y535827D02*
D03*
X287402Y504331D02*
D03*
Y479921D02*
D03*
Y535827D02*
D03*
Y511417D02*
D03*
X515748Y504331D02*
D03*
Y479921D02*
D03*
D98*
X82362Y19685D02*
D03*
X92362D02*
D03*
X102362D02*
D03*
X82362Y29685D02*
D03*
X92362D02*
D03*
X102362D02*
D03*
X172362Y19685D02*
D03*
X162362Y29685D02*
D03*
Y19685D02*
D03*
X152362Y29685D02*
D03*
Y19685D02*
D03*
X142362Y29685D02*
D03*
Y19685D02*
D03*
X132362Y29685D02*
D03*
X122362D02*
D03*
X132362Y19685D02*
D03*
X122362D02*
D03*
X112362Y29685D02*
D03*
Y19685D02*
D03*
D109*
X623228Y438976D02*
D03*
X631102Y462598D02*
D03*
Y415354D02*
D03*
X679134D02*
D03*
Y462598D02*
D03*
D119*
X172362Y29685D02*
D03*
D123*
X1120315Y377953D02*
D03*
X1141732Y338583D02*
D03*
Y358268D02*
D03*
X1163150Y338583D02*
D03*
Y377953D02*
D03*
X1120315Y338583D02*
D03*
X1084409Y535433D02*
D03*
X1041575Y496063D02*
D03*
Y535433D02*
D03*
X1062992Y515748D02*
D03*
Y535433D02*
D03*
X1084409Y496063D02*
D03*
X1041575Y377953D02*
D03*
X1062992Y338583D02*
D03*
Y358268D02*
D03*
X1084409Y338583D02*
D03*
Y377953D02*
D03*
X1041575Y338583D02*
D03*
D138*
X17717Y190945D02*
D03*
D139*
Y181102D02*
D03*
Y171260D02*
D03*
Y161417D02*
D03*
X1224055Y362205D02*
D03*
X1216535D02*
D03*
X1053937Y209095D02*
D03*
Y201575D02*
D03*
X624921Y290551D02*
D03*
X183071Y314961D02*
D03*
D140*
X1231575Y362205D02*
D03*
D141*
X1243740Y446457D02*
D03*
X1204370D02*
D03*
D142*
X1138189Y221260D02*
D03*
Y181890D02*
D03*
D143*
X1053937Y194055D02*
D03*
D144*
X23622Y23622D02*
D03*
X1472441Y606299D02*
D03*
X681102Y23622D02*
D03*
X594488Y606299D02*
D03*
X1472441Y23622D02*
D03*
X23622Y606299D02*
D03*
D145*
X783464Y527559D02*
D03*
Y488189D02*
D03*
X1354331Y136221D02*
D03*
X1379134Y135827D02*
D03*
X783465Y393701D02*
D03*
Y354331D02*
D03*
X208661Y409449D02*
D03*
Y448819D02*
D03*
X433071Y362205D02*
D03*
Y401575D02*
D03*
X783465Y421260D02*
D03*
Y460630D02*
D03*
X783464Y559055D02*
D03*
Y598425D02*
D03*
X185039Y409449D02*
D03*
Y448819D02*
D03*
X409449Y401575D02*
D03*
Y362205D02*
D03*
X1379134Y96457D02*
D03*
X1354331Y96850D02*
D03*
D146*
X1442913Y102461D02*
D03*
Y64961D02*
D03*
X53150Y478248D02*
D03*
Y440748D02*
D03*
Y515748D02*
D03*
D147*
X291102Y61910D02*
D03*
X275512D02*
D03*
X259921D02*
D03*
X244331D02*
D03*
X228740D02*
D03*
D148*
X306693D02*
D03*
D149*
X1259842Y61024D02*
D03*
Y100394D02*
D03*
X763779D02*
D03*
X1094488D02*
D03*
X598425D02*
D03*
X929134D02*
D03*
Y61024D02*
D03*
X598425D02*
D03*
X1094488D02*
D03*
X763779D02*
D03*
D150*
X1241142Y74016D02*
D03*
X910433D02*
D03*
X579724D02*
D03*
X1075787D02*
D03*
X745079D02*
D03*
D151*
X1120315Y358268D02*
D03*
X1163150D02*
D03*
X1041575Y515748D02*
D03*
X1084409D02*
D03*
X1041575Y358268D02*
D03*
X1084409D02*
D03*
D152*
X1141732Y348425D02*
D03*
X1062992Y525591D02*
D03*
Y348425D02*
D03*
D153*
X463386Y29370D02*
D03*
Y39370D02*
D03*
X1406693Y187165D02*
D03*
X1416693D02*
D03*
X1406693Y177165D02*
D03*
X1416693D02*
D03*
X1446693Y187165D02*
D03*
Y177165D02*
D03*
X1456693Y187165D02*
D03*
X1436693Y177165D02*
D03*
Y187165D02*
D03*
X1426693Y177165D02*
D03*
Y187165D02*
D03*
X1470315Y304646D02*
D03*
X1480315D02*
D03*
X1470315Y314646D02*
D03*
X1480315D02*
D03*
X1470315Y334646D02*
D03*
X1480315Y324646D02*
D03*
X1470315D02*
D03*
X1480315Y294646D02*
D03*
Y284646D02*
D03*
X1470315Y294646D02*
D03*
Y284646D02*
D03*
X443386Y29370D02*
D03*
Y39370D02*
D03*
X433386Y29370D02*
D03*
Y39370D02*
D03*
X413386Y29370D02*
D03*
X423386Y39370D02*
D03*
Y29370D02*
D03*
X453386Y39370D02*
D03*
Y29370D02*
D03*
X1426693Y147795D02*
D03*
Y137795D02*
D03*
X1436693Y147795D02*
D03*
Y137795D02*
D03*
X1456693Y147795D02*
D03*
X1446693Y137795D02*
D03*
Y147795D02*
D03*
X1416693Y137795D02*
D03*
X1406693D02*
D03*
X1416693Y147795D02*
D03*
X1406693D02*
D03*
D154*
X1357480Y11811D02*
D03*
X1389764Y70866D02*
D03*
X522638Y370079D02*
D03*
X611221D02*
D03*
X18701D02*
D03*
X107283D02*
D03*
X375000D02*
D03*
X286417D02*
D03*
X1470472Y445866D02*
D03*
Y357283D02*
D03*
Y473425D02*
D03*
Y562008D02*
D03*
X744095Y603346D02*
D03*
Y514764D02*
D03*
X162402Y370079D02*
D03*
X250984D02*
D03*
X1389764Y11811D02*
D03*
X1357480Y70866D02*
D03*
D155*
X1456693Y177165D02*
D03*
X413386Y39370D02*
D03*
X1456693Y137795D02*
D03*
D156*
X634921Y290551D02*
D03*
X173071Y314961D02*
D03*
D157*
X476378Y496063D02*
D03*
X555118D02*
D03*
Y535433D02*
D03*
X476378D02*
D03*
X248031D02*
D03*
X326772D02*
D03*
Y496063D02*
D03*
X248031D02*
D03*
X362205D02*
D03*
X440945D02*
D03*
Y535433D02*
D03*
X362205D02*
D03*
D158*
X1336220Y460630D02*
D03*
Y362205D02*
D03*
Y216929D02*
D03*
Y315354D02*
D03*
D159*
X602362Y500000D02*
D03*
X582677D02*
D03*
X602362Y533465D02*
D03*
X582677D02*
D03*
D160*
X680866Y511772D02*
D03*
X640866D02*
D03*
X212598Y476378D02*
D03*
X183071Y472441D02*
D03*
X145669Y476378D02*
D03*
X116142Y472441D02*
D03*
Y500000D02*
D03*
X145669Y503937D02*
D03*
D161*
X695866Y601772D02*
D03*
Y571772D02*
D03*
X625866Y561772D02*
D03*
X37402Y562992D02*
D03*
X17717D02*
D03*
X198819Y606299D02*
D03*
X218504D02*
D03*
X198819Y574803D02*
D03*
X218504D02*
D03*
X218504Y500000D02*
D03*
X198819D02*
D03*
X218504Y531496D02*
D03*
X198819D02*
D03*
D162*
X962835Y535433D02*
D03*
X984252D02*
D03*
X1005669D02*
D03*
X884095D02*
D03*
X905512D02*
D03*
X926929D02*
D03*
Y338583D02*
D03*
X905512D02*
D03*
X884095D02*
D03*
X1005669D02*
D03*
X984252D02*
D03*
X962835D02*
D03*
D163*
X1480315Y334646D02*
D03*
D164*
X91149Y595476D02*
D03*
X179732D02*
D03*
X91149Y553475D02*
D03*
X179732D02*
D03*
D165*
X98425Y437008D02*
D03*
X153543D02*
D03*
D166*
X1279528Y535433D02*
D03*
X1250000D02*
D03*
X1220472D02*
D03*
X1181102D02*
D03*
X1417323D02*
D03*
X1387795D02*
D03*
X1358268D02*
D03*
X1318898D02*
D03*
D167*
X329803Y328740D02*
D03*
M02*
