M48
;Layer_Color=9474304
;FILE_FORMAT=2:4
INCH,LZ
;TYPE=PLATED
T1F00S00C0.0157
T2F00S00C0.0197
T3F00S00C0.0236
T4F00S00C0.0280
T5F00S00C0.0315
T6F00S00C0.0394
T7F00S00C0.0394
T8F00S00C0.0433
T9F00S00C0.0472
T10F00S00C0.0512
T11F00S00C0.0551
T12F00S00C0.0591
T13F00S00C0.0709
T14F00S00C0.0787
T16F00S00C0.0866
T17F00S00C0.0882
T18F00S00C0.0945
T19F00S00C0.0984
T20F00S00C0.1260
T21F00S00C0.1496
%
T01
X100787Y018701
X103543Y019685
X093541Y018022
X09252Y017717
X093307Y016732
X094094Y016732
X089567Y016929
X090157Y018898
X08385Y01741
X083071Y020479
X082169Y020174
X080315Y019882
X079921
X079528
X066535Y019488
X06595Y020865
X063432Y020863
X061119Y020843
X058661Y020276
X059252Y019488
X044685Y007874
X040945Y006496
X022638Y010433
X022638Y011024
X022047
X021457
X021457Y010433
X022047
X022047Y01437
X021457
X021457Y014961
X022047
X022638
X022638Y01437
X022638Y017323
Y017913
X022047
X021457
Y017323
X022047
X013432Y017733
Y020095
X012214Y014941
X011588Y012874
X011614Y011417
X012008
Y011024
X011614
X015374Y012875
X012214Y02187
X021063Y026378
X023372Y029778
X024606Y028937
X030108Y026969
X033268Y031102
Y031496
Y03189
X035039Y031545
X035433Y03189
X039764Y032087
X040157
X040551
Y031496
X040157
X039764
Y030906
X040157
X040551
X041545Y027362
X044094Y027559
Y026969
X044685
Y027559
X045276
Y026969
X049606Y033579
X055512Y030118
X056693
X057874
X059055
X05748Y026575
Y026181
Y025787
X056102Y025984
X055709
X057234Y023819
X056648Y022967
X058858Y023425
Y024803
X060039Y025319
X06063Y025787
X061024
X063501Y026296
X063976Y026673
X066339Y026575
X066929Y025787
X06811
X066732Y024206
X067126Y022835
X067913Y02874
X058465Y02126
X07502Y023622
X075394Y024409
Y024803
X076772Y023612
X078543Y024409
X07874Y026575
X077565Y026378
X077565Y027165
X077165Y029724
X081611Y029474
X08248Y029471
X082087Y028937
X083268Y028543
X082677Y024416
X08189Y024409
Y022835
X082283
Y023228
X082693Y022835
X079921Y022047
X084252Y022835
Y023228
Y023622
X085827Y02185
X087992Y025591
X085039Y029331
X083858
Y028937
Y028543
X084055Y029921
X08622Y045472
X088583Y045866
Y046457
X093898Y042913
Y04252
Y042085
X094488Y042126
Y04252
Y042913
X074803Y039567
X072825
X072441Y048425
X073228
Y049213
X072441
X074016
Y048425
X074803
X075591
Y049213
X074803
X062598Y038386
X061216Y038391
X060443Y038396
T02
X001772Y004921
X002362
X002953
X003543
Y005512
X002953
X002362
X001772
X036417Y003937
Y00315
Y002362
X03563
Y00315
X037205
Y003937
X037992
X03878
X039567
X039567Y00315
X03878
Y002362
X039567
X037992Y002362
X037205
X037992Y00315
X100787Y017323
X103937Y017904
X104724Y015977
X10128Y021072
X113319Y020945
X114331
Y019429
X114449Y018972
Y018449
Y017925
Y017402
X114331Y017008
X113976Y016693
X113563
X113319Y017008
X113189Y017402
Y017925
Y018449
Y018972
X113319Y01937
X097597Y01752
X096497
X092333Y020866
X067717Y021063
X060039Y019882
X056693Y019685
X057283Y020866
X051772Y021063
X043307Y018898
Y018307
X042717
X042126
X041535
Y018898
X042126
X042717
Y017717
X042126
Y017126
Y016535
Y015945
Y015354
X042717
Y015945
Y016535
Y017126
X043307
Y016535
Y015945
Y015354
Y014764
X042717
Y014173
X043307
X041535Y015354
Y015945
Y016535
Y017126
Y017717
X040551
X039764
X038976
X038189
X037402
X043307
X040157Y006102
X036811Y017126
Y017717
Y018307
X03622
X03563
Y018898
Y017717
X03622
Y017126
X03563
Y016535
X034449Y015354
X031299Y019094
X032087Y019882
X019291Y020472
X018523Y017916
X016929Y017126
X017028Y015354
Y014764
Y014173
Y013583
Y012992
X010079Y016232
Y018594
Y020957
X009449Y009252
Y008661
X005512Y009055
Y011417
X004724Y01858
X010079Y023319
X010039Y031496
Y032087
X018701Y029331
X022638Y026417
X026939Y03189
X026939Y032795
X029528Y031896
X033268Y025787
X038386Y028799
X037874Y030906
X05001Y031299
X053543Y033071
X054134
X061001Y024336
X068898Y021654
X073228Y027559
X072244Y030118
X080038Y029402
X081693Y031299
Y03189
Y03248
X082283
X082874
X083465
Y03189
Y031299
X082874
X082283
Y03189
X082874
X080315Y022835
X091535Y021654
X092323Y025
X092992
X093701
X095079Y023228
Y022638
X095669
Y023228
X09626
Y022638
X09685
Y023228
X08563Y036024
X085039
Y036614
X08563
X09996Y022976
X100394Y023228
Y02248
X113189Y022386
Y021862
Y021339
X114449
Y021862
Y022386
Y022909
X114331Y023366
X113976Y023622
X113563
X113319Y023307
X113189Y022909
X118941Y04439
Y044803
X119197Y045157
X119654Y045276
X120177
X120701
X121224
X121618Y045157
Y044146
X121224Y044016
X120701
X120177
X119654
X119256Y044146
X123193
X123591Y044016
X124114
X124638
X125161
X125555Y044146
X12587Y04439
Y044803
X125555Y045157
X125161Y045276
X124638
X124114
X123591
X123134Y045157
X093898Y046104
X091339Y04311
Y04252
X089764Y044285
X088976
X088583Y047041
X086024Y043504
X085433
Y042913
X084843
Y043504
X086024Y042913
X084843Y040748
X085039Y039567
Y038976
Y038386
Y037795
X08563
Y038386
Y038976
Y039567
Y037205
X085039
Y05
X084252Y049606
X084646Y050787
X083858
X084646Y051575
X085433
Y050787
Y052362
X084646
X083465Y051968
X083071Y050787
X082283
Y051575
Y052362
X081496
Y051575
Y050787
X08189Y05
X082677Y049606
X083465
X075984
Y048819
Y048032
Y047244
X075197
X074409
X073622
X072835
X072047
Y048032
X072835
X073622
X074409
X075197
Y048819
X074409
Y049606
X075197
Y050394
X074409
X073622
X072835
Y049606
Y048819
X073622
Y049606
X072047
Y048819
Y050394
X075984
X072417Y042685
X063583Y037598
X081496Y05315
X082283
X083071
Y053937
X082283
Y054724
X083071
Y055512
X082283
X081496
Y054724
Y053937
X083858
X084646
Y054724
X083858
Y055512
X084646
X085433
Y054724
Y053937
Y05315
X084646
X083858
T03
X03198Y032874
X03248
X03298
T04
X072244Y023218
Y026969
X070659Y036417
X068701Y036614
X075079Y035433
T05
X135433Y009685
X137913Y009646
Y013583
X135433Y013622
X105394Y019406
Y020157
Y020909
X043307Y03622
X040945
X078346Y035433
X121654Y03622
X122406
X123157
X078346Y03937
Y042126
Y046063
X078346Y048819
X043307Y040157
X040945
X020866Y040945
X018504
Y044882
X020866
X078346Y052756
Y055906
Y059843
T06
X001772Y016142
Y017126
Y01811
Y019094
T07
X017307Y031496
X018307
X062492Y029055
X063492
X060236Y05
X058268
X02126Y047638
X018307Y047244
X014567Y047638
Y050394
X011614Y05
Y047244
X058268Y053346
X060236
T08
X008236Y001969
Y002968
X009236
X010236
X011236
Y001969
X012236
X013236
Y002968
X012236
X014236
Y001969
X015236
Y002968
X016236
Y001969
X017236
Y002968
X010236Y001969
X009236
X041339Y002937
Y003937
X042339
X043339
X044339
Y002937
X043339
X042339
X045339
Y003937
X046339
Y002937
X135748Y001181
X138976
Y007087
X135748
X140669Y01378
X141669
X142669
Y01478
X143669
Y01378
X144669
X145669
Y01478
X144669
Y017717
X143669
X142669
Y018717
X143669
X144669
X145669
Y017717
X141669
X140669
Y018717
X141669
Y01478
X140669
X147031Y028465
X148032
Y029465
Y030465
X147031
Y031465
X148032
Y032465
Y033465
X147031
Y032465
Y029465
X147047Y035728
Y044587
Y047343
X074409Y051476
X061122Y037008
X052264
X0375
X028642
X025098
X01624
X010728
X00187
X074409Y060335
X147047Y056201
T09
X064087Y051177
X068087
T10
X06311Y041535
X062323Y043898
X06311Y04626
X067913
Y041535
T11
X009843Y043701
X015354
T12
X009115Y055348
X009115Y059548
X017973
X017973Y055348
X11811Y053543
X122047
X125
X127953
X13189
X135827
X13878
X141732
T13
X022874Y006191
X024433
X025992
X027551
X02911
X030669
T14
X144291Y006496
Y010246
X098425Y033858
X096283
X092693
X090551
X088409
X100567
X02185Y05
X019882
X005315Y051575
Y047825
Y044075
X00374Y056299
X001772
X019882Y05748
Y06063
X019882Y05315
X02185
X02185Y05748
Y06063
X088409Y053543
X090551
X092693
X096283
X098425
X100567
T16
X125984Y006102
Y010039
X109449
Y006102
X092913
Y010039
X076378
Y006102
X059843
Y010039
X104157Y033858
Y035827
X106299
Y033858
X108441
Y035827
X112031
Y033858
X114173
Y035827
X116315
Y033858
Y037795
X112031
X108441
X104157
Y049606
Y051575
X106299
X108441
Y049606
Y053543
X106299
X104157
T17
X062587Y056177
X069587Y057177
Y060177
T18
X055512Y049606
X047638
X044094
X03622
X032677
X024803
Y053543
X032677
X03622
X044094
X047638
X055512
T19
X124114Y007402
X107579
X091043
X074508
X057972
T20
X002362Y002362
X06811
X147244
X002362Y06063
X059449
X147244
T21
X133622Y021693
Y031535
Y03622
Y046063
M30
