G04*
G04 #@! TF.GenerationSoftware,Altium Limited,Altium Designer,21.0.8 (223)*
G04*
G04 Layer_Color=8388736*
%FSLAX25Y25*%
%MOIN*%
G70*
G04*
G04 #@! TF.SameCoordinates,62C4E7E2-AFE0-4541-AB1A-96B31376B225*
G04*
G04*
G04 #@! TF.FilePolarity,Negative*
G04*
G01*
G75*
%ADD59C,0.02000*%
%ADD60R,0.04394X0.06394*%
%ADD61R,0.05118X0.04724*%
%ADD62R,0.06693X0.14173*%
%ADD63R,0.06394X0.08394*%
%ADD64R,0.03150X0.05315*%
%ADD65R,0.05315X0.03150*%
%ADD66R,0.03937X0.03543*%
%ADD67R,0.04331X0.02756*%
%ADD68R,0.04724X0.05118*%
%ADD69R,0.05294X0.12894*%
%ADD70R,0.12894X0.05294*%
%ADD71R,0.04331X0.05118*%
%ADD72C,0.04331*%
%ADD73C,0.05118*%
%ADD74R,0.08394X0.06394*%
%ADD75R,0.11417X0.06693*%
%ADD76R,0.04724X0.09055*%
G04:AMPARAMS|DCode=77|XSize=29.53mil|YSize=51.18mil|CornerRadius=3.89mil|HoleSize=0mil|Usage=FLASHONLY|Rotation=0.000|XOffset=0mil|YOffset=0mil|HoleType=Round|Shape=RoundedRectangle|*
%AMROUNDEDRECTD77*
21,1,0.02953,0.04341,0,0,0.0*
21,1,0.02175,0.05118,0,0,0.0*
1,1,0.00778,0.01088,-0.02170*
1,1,0.00778,-0.01088,-0.02170*
1,1,0.00778,-0.01088,0.02170*
1,1,0.00778,0.01088,0.02170*
%
%ADD77ROUNDEDRECTD77*%
%ADD78R,0.21654X0.11811*%
%ADD79R,0.08268X0.10039*%
%ADD80R,0.02756X0.04331*%
%ADD81R,0.03740X0.06693*%
%ADD82R,0.06693X0.03740*%
%ADD83R,0.05906X0.06299*%
%ADD84R,0.06394X0.04394*%
%ADD85R,0.06693X0.11417*%
%ADD86O,0.06102X0.02756*%
%ADD87R,0.05512X0.06299*%
%ADD88R,0.08268X0.05512*%
%ADD89R,0.08268X0.08268*%
%ADD90R,0.03543X0.03937*%
%ADD91O,0.02165X0.06299*%
G04:AMPARAMS|DCode=92|XSize=29.53mil|YSize=51.18mil|CornerRadius=3.89mil|HoleSize=0mil|Usage=FLASHONLY|Rotation=270.000|XOffset=0mil|YOffset=0mil|HoleType=Round|Shape=RoundedRectangle|*
%AMROUNDEDRECTD92*
21,1,0.02953,0.04341,0,0,270.0*
21,1,0.02175,0.05118,0,0,270.0*
1,1,0.00778,-0.02170,-0.01088*
1,1,0.00778,-0.02170,0.01088*
1,1,0.00778,0.02170,0.01088*
1,1,0.00778,0.02170,-0.01088*
%
%ADD92ROUNDEDRECTD92*%
%ADD93O,0.02756X0.06102*%
%ADD94R,0.01968X0.03543*%
%ADD95R,0.04331X0.12992*%
%ADD96R,0.12992X0.04331*%
%ADD97R,0.06299X0.06299*%
%ADD98C,0.06299*%
G04:AMPARAMS|DCode=99|XSize=62.99mil|YSize=62.99mil|CornerRadius=16.73mil|HoleSize=0mil|Usage=FLASHONLY|Rotation=180.000|XOffset=0mil|YOffset=0mil|HoleType=Round|Shape=RoundedRectangle|*
%AMROUNDEDRECTD99*
21,1,0.06299,0.02953,0,0,180.0*
21,1,0.02953,0.06299,0,0,180.0*
1,1,0.03347,-0.01476,0.01476*
1,1,0.03347,0.01476,0.01476*
1,1,0.03347,0.01476,-0.01476*
1,1,0.03347,-0.01476,-0.01476*
%
%ADD99ROUNDEDRECTD99*%
G04:AMPARAMS|DCode=100|XSize=358.27mil|YSize=240.16mil|CornerRadius=61.02mil|HoleSize=0mil|Usage=FLASHONLY|Rotation=180.000|XOffset=0mil|YOffset=0mil|HoleType=Round|Shape=RoundedRectangle|*
%AMROUNDEDRECTD100*
21,1,0.35827,0.11811,0,0,180.0*
21,1,0.23622,0.24016,0,0,180.0*
1,1,0.12205,-0.11811,0.05906*
1,1,0.12205,0.11811,0.05906*
1,1,0.12205,0.11811,-0.05906*
1,1,0.12205,-0.11811,-0.05906*
%
%ADD100ROUNDEDRECTD100*%
G04:AMPARAMS|DCode=101|XSize=358.27mil|YSize=240.16mil|CornerRadius=61.02mil|HoleSize=0mil|Usage=FLASHONLY|Rotation=90.000|XOffset=0mil|YOffset=0mil|HoleType=Round|Shape=RoundedRectangle|*
%AMROUNDEDRECTD101*
21,1,0.35827,0.11811,0,0,90.0*
21,1,0.23622,0.24016,0,0,90.0*
1,1,0.12205,0.05906,0.11811*
1,1,0.12205,0.05906,-0.11811*
1,1,0.12205,-0.05906,-0.11811*
1,1,0.12205,-0.05906,0.11811*
%
%ADD101ROUNDEDRECTD101*%
G04:AMPARAMS|DCode=102|XSize=62.99mil|YSize=62.99mil|CornerRadius=16.73mil|HoleSize=0mil|Usage=FLASHONLY|Rotation=90.000|XOffset=0mil|YOffset=0mil|HoleType=Round|Shape=RoundedRectangle|*
%AMROUNDEDRECTD102*
21,1,0.06299,0.02953,0,0,90.0*
21,1,0.02953,0.06299,0,0,90.0*
1,1,0.03347,0.01476,0.01476*
1,1,0.03347,0.01476,-0.01476*
1,1,0.03347,-0.01476,-0.01476*
1,1,0.03347,-0.01476,0.01476*
%
%ADD102ROUNDEDRECTD102*%
%ADD103C,0.15354*%
%ADD104C,0.08268*%
%ADD105C,0.06693*%
%ADD106R,0.06693X0.06693*%
%ADD107C,0.11417*%
G04:AMPARAMS|DCode=108|XSize=200.79mil|YSize=200.79mil|CornerRadius=51.18mil|HoleSize=0mil|Usage=FLASHONLY|Rotation=90.000|XOffset=0mil|YOffset=0mil|HoleType=Round|Shape=RoundedRectangle|*
%AMROUNDEDRECTD108*
21,1,0.20079,0.09843,0,0,90.0*
21,1,0.09843,0.20079,0,0,90.0*
1,1,0.10236,0.04921,0.04921*
1,1,0.10236,0.04921,-0.04921*
1,1,0.10236,-0.04921,-0.04921*
1,1,0.10236,-0.04921,0.04921*
%
%ADD108ROUNDEDRECTD108*%
%ADD109C,0.11024*%
%ADD110R,0.11024X0.11024*%
%ADD111C,0.17717*%
%ADD112C,0.14173*%
G04:AMPARAMS|DCode=113|XSize=555.12mil|YSize=129.92mil|CornerRadius=33.47mil|HoleSize=0mil|Usage=FLASHONLY|Rotation=270.000|XOffset=0mil|YOffset=0mil|HoleType=Round|Shape=RoundedRectangle|*
%AMROUNDEDRECTD113*
21,1,0.55512,0.06299,0,0,270.0*
21,1,0.48819,0.12992,0,0,270.0*
1,1,0.06693,-0.03150,-0.24410*
1,1,0.06693,-0.03150,0.24410*
1,1,0.06693,0.03150,0.24410*
1,1,0.06693,0.03150,-0.24410*
%
%ADD113ROUNDEDRECTD113*%
G04:AMPARAMS|DCode=114|XSize=358.27mil|YSize=129.92mil|CornerRadius=33.47mil|HoleSize=0mil|Usage=FLASHONLY|Rotation=270.000|XOffset=0mil|YOffset=0mil|HoleType=Round|Shape=RoundedRectangle|*
%AMROUNDEDRECTD114*
21,1,0.35827,0.06299,0,0,270.0*
21,1,0.29134,0.12992,0,0,270.0*
1,1,0.06693,-0.03150,-0.14567*
1,1,0.06693,-0.03150,0.14567*
1,1,0.06693,0.03150,0.14567*
1,1,0.06693,0.03150,-0.14567*
%
%ADD114ROUNDEDRECTD114*%
%ADD115C,0.10236*%
%ADD116C,0.07480*%
%ADD117C,0.06890*%
%ADD118R,0.07480X0.07480*%
%ADD119R,0.06299X0.06299*%
G04:AMPARAMS|DCode=120|XSize=200.79mil|YSize=200.79mil|CornerRadius=51.18mil|HoleSize=0mil|Usage=FLASHONLY|Rotation=0.000|XOffset=0mil|YOffset=0mil|HoleType=Round|Shape=RoundedRectangle|*
%AMROUNDEDRECTD120*
21,1,0.20079,0.09843,0,0,0.0*
21,1,0.09843,0.20079,0,0,0.0*
1,1,0.10236,0.04921,-0.04921*
1,1,0.10236,-0.04921,-0.04921*
1,1,0.10236,-0.04921,0.04921*
1,1,0.10236,0.04921,0.04921*
%
%ADD120ROUNDEDRECTD120*%
G04:AMPARAMS|DCode=121|XSize=318.9mil|YSize=318.9mil|CornerRadius=80.71mil|HoleSize=0mil|Usage=FLASHONLY|Rotation=90.000|XOffset=0mil|YOffset=0mil|HoleType=Round|Shape=RoundedRectangle|*
%AMROUNDEDRECTD121*
21,1,0.31890,0.15748,0,0,90.0*
21,1,0.15748,0.31890,0,0,90.0*
1,1,0.16142,0.07874,0.07874*
1,1,0.16142,0.07874,-0.07874*
1,1,0.16142,-0.07874,-0.07874*
1,1,0.16142,-0.07874,0.07874*
%
%ADD121ROUNDEDRECTD121*%
%ADD122C,0.09055*%
%ADD123C,0.09843*%
G04:AMPARAMS|DCode=124|XSize=161.42mil|YSize=161.42mil|CornerRadius=41.34mil|HoleSize=0mil|Usage=FLASHONLY|Rotation=180.000|XOffset=0mil|YOffset=0mil|HoleType=Round|Shape=RoundedRectangle|*
%AMROUNDEDRECTD124*
21,1,0.16142,0.07874,0,0,180.0*
21,1,0.07874,0.16142,0,0,180.0*
1,1,0.08268,-0.03937,0.03937*
1,1,0.08268,0.03937,0.03937*
1,1,0.08268,0.03937,-0.03937*
1,1,0.08268,-0.03937,-0.03937*
%
%ADD124ROUNDEDRECTD124*%
G04:AMPARAMS|DCode=125|XSize=161.42mil|YSize=129.92mil|CornerRadius=33.47mil|HoleSize=0mil|Usage=FLASHONLY|Rotation=90.000|XOffset=0mil|YOffset=0mil|HoleType=Round|Shape=RoundedRectangle|*
%AMROUNDEDRECTD125*
21,1,0.16142,0.06299,0,0,90.0*
21,1,0.09449,0.12992,0,0,90.0*
1,1,0.06693,0.03150,0.04724*
1,1,0.06693,0.03150,-0.04724*
1,1,0.06693,-0.03150,-0.04724*
1,1,0.06693,-0.03150,0.04724*
%
%ADD125ROUNDEDRECTD125*%
%ADD126R,0.07480X0.07480*%
%ADD127C,0.12205*%
%ADD128C,0.12992*%
G04:AMPARAMS|DCode=129|XSize=122.05mil|YSize=122.05mil|CornerRadius=31.5mil|HoleSize=0mil|Usage=FLASHONLY|Rotation=0.000|XOffset=0mil|YOffset=0mil|HoleType=Round|Shape=RoundedRectangle|*
%AMROUNDEDRECTD129*
21,1,0.12205,0.05906,0,0,0.0*
21,1,0.05906,0.12205,0,0,0.0*
1,1,0.06299,0.02953,-0.02953*
1,1,0.06299,-0.02953,-0.02953*
1,1,0.06299,-0.02953,0.02953*
1,1,0.06299,0.02953,0.02953*
%
%ADD129ROUNDEDRECTD129*%
%ADD130R,0.04331X0.04331*%
G36*
X990551Y570472D02*
Y529404D01*
X988706Y527559D01*
X979798D01*
X977953Y529404D01*
Y543701D01*
X970472Y551181D01*
X915354D01*
X911811Y547638D01*
Y529404D01*
X909966Y527559D01*
X901058D01*
X899213Y529404D01*
Y572441D01*
X905512Y578740D01*
X982283D01*
X990551Y570472D01*
D02*
G37*
G36*
X1397638Y614173D02*
Y527559D01*
X1395669Y525591D01*
X1379921D01*
X1377953Y527559D01*
Y541339D01*
X1360236Y559055D01*
X1267717D01*
X1257874Y549213D01*
Y527559D01*
X1255906Y525591D01*
X1242126D01*
X1240158Y527559D01*
Y549213D01*
X1232283Y557087D01*
X1177165D01*
X1173228Y561024D01*
Y578740D01*
X1157480Y594488D01*
X883858D01*
X860236Y570866D01*
Y503937D01*
X830709Y474409D01*
X779528D01*
X771654Y474409D01*
X764272Y467028D01*
X716043D01*
X714567Y468504D01*
Y519685D01*
X716535Y521654D01*
X722441D01*
X740158Y521654D01*
X761811D01*
X771654Y511811D01*
X801181D01*
X811024Y521654D01*
Y608268D01*
X826772Y624016D01*
X1387795D01*
X1397638Y614173D01*
D02*
G37*
G36*
X1157480Y568898D02*
Y513779D01*
X1167323Y503937D01*
X1265748D01*
X1271653Y509842D01*
Y539370D01*
X1273622Y541339D01*
X1285433D01*
X1287402Y539370D01*
Y488189D01*
X1273622Y474409D01*
X1137795D01*
X1110236Y501968D01*
Y545276D01*
X1100394Y555118D01*
X1025591D01*
X1015748Y545276D01*
Y529528D01*
X1013780Y527559D01*
X1001215D01*
X999370Y529404D01*
Y578110D01*
X1001968Y580709D01*
X1145669D01*
X1157480Y568898D01*
D02*
G37*
G36*
X637549Y403316D02*
X638624Y402871D01*
X639591Y402225D01*
X640414Y401402D01*
X641060Y400435D01*
X641505Y399360D01*
X641732Y398219D01*
Y397638D01*
Y397056D01*
X641505Y395915D01*
X641060Y394841D01*
X640414Y393873D01*
X639591Y393051D01*
X638624Y392404D01*
X637549Y391959D01*
X636408Y391732D01*
X635245D01*
X634104Y391959D01*
X633030Y392404D01*
X632062Y393051D01*
X631240Y393873D01*
X630593Y394841D01*
X630148Y395915D01*
X629921Y397056D01*
Y397638D01*
Y398219D01*
X630148Y399360D01*
X630593Y400435D01*
X631240Y401402D01*
X632062Y402225D01*
X633030Y402871D01*
X634104Y403316D01*
X635245Y403543D01*
X636408D01*
X637549Y403316D01*
D02*
G37*
G36*
X623770D02*
X624845Y402871D01*
X625812Y402225D01*
X626634Y401402D01*
X627281Y400435D01*
X627726Y399360D01*
X627953Y398219D01*
Y397638D01*
Y397056D01*
X627726Y395915D01*
X627281Y394841D01*
X626634Y393873D01*
X625812Y393051D01*
X624845Y392404D01*
X623770Y391959D01*
X622629Y391732D01*
X621466D01*
X620325Y391959D01*
X619250Y392404D01*
X618283Y393051D01*
X617460Y393873D01*
X616814Y394841D01*
X616369Y395915D01*
X616142Y397056D01*
Y397638D01*
Y398219D01*
X616369Y399360D01*
X616814Y400435D01*
X617460Y401402D01*
X618283Y402225D01*
X619250Y402871D01*
X620325Y403316D01*
X621466Y403543D01*
X622629D01*
X623770Y403316D01*
D02*
G37*
G36*
X990551Y344612D02*
Y324409D01*
X1120079Y194882D01*
X1159449D01*
X1161417Y192913D01*
Y163386D01*
X1159449Y161417D01*
X1068898D01*
X1066929Y163386D01*
Y216535D01*
X1059055Y224410D01*
X1025591D01*
X974409Y275590D01*
X887795D01*
X866142Y297244D01*
Y316929D01*
X872047Y322835D01*
X895669D01*
X899213Y326378D01*
Y344612D01*
X901058Y346457D01*
X909966D01*
X911811Y344612D01*
Y326378D01*
X915354Y322835D01*
X972441D01*
X977953Y328346D01*
Y344612D01*
X979798Y346457D01*
X988706D01*
X990551Y344612D01*
D02*
G37*
G36*
X1334646Y539370D02*
Y515748D01*
X1338583Y511811D01*
X1393701D01*
X1405512Y500000D01*
Y303150D01*
X1397638Y295276D01*
X1326772D01*
X1320473Y301575D01*
Y380315D01*
X1299213Y401575D01*
X1149606D01*
X1126614Y378583D01*
Y327402D01*
X1122047Y322835D01*
X1110236D01*
X1106299Y326772D01*
Y417323D01*
X1114173Y425197D01*
X1271653D01*
X1303150Y456693D01*
Y539370D01*
X1307087Y543307D01*
X1330709D01*
X1334646Y539370D01*
D02*
G37*
G36*
X50609Y290946D02*
X50977D01*
Y290905D01*
X51344D01*
Y290864D01*
X51630D01*
Y290823D01*
X51794D01*
Y290783D01*
X51998D01*
Y290742D01*
X52161D01*
Y290701D01*
X52202D01*
Y290742D01*
X52243D01*
Y290701D01*
X52324D01*
Y290660D01*
X52488D01*
Y290619D01*
X52570D01*
Y290578D01*
X52651D01*
Y290619D01*
X52692D01*
Y290578D01*
X52774D01*
Y290538D01*
X52855D01*
Y290497D01*
X52937D01*
Y290456D01*
X53100D01*
Y290415D01*
X53141D01*
Y290374D01*
X53223D01*
Y290333D01*
X53305D01*
Y290293D01*
X53427D01*
Y290252D01*
X53386D01*
Y290211D01*
X53305D01*
Y290252D01*
X53223D01*
Y290293D01*
X53060D01*
Y290333D01*
X52896D01*
Y290374D01*
X52774D01*
Y290415D01*
X52610D01*
Y290456D01*
X52365D01*
Y290497D01*
X52202D01*
Y290538D01*
X51875D01*
Y290578D01*
X50773D01*
Y290538D01*
X50405D01*
Y290497D01*
X50201D01*
Y290456D01*
X50119D01*
Y290497D01*
X50078D01*
Y290456D01*
X49915D01*
Y290415D01*
X49752D01*
Y290374D01*
X49589D01*
Y290333D01*
X49384D01*
Y290293D01*
X49221D01*
Y290252D01*
X49139D01*
Y290211D01*
X48976D01*
Y290170D01*
X48853D01*
Y290129D01*
X48772D01*
Y290088D01*
X48690D01*
Y290048D01*
X48608D01*
Y290007D01*
X48445D01*
Y289966D01*
X48363D01*
Y289925D01*
X48323D01*
Y289884D01*
X48200D01*
Y289843D01*
X48118D01*
Y289803D01*
X48037D01*
Y289762D01*
X47955D01*
Y289721D01*
X47873D01*
Y289680D01*
X47833D01*
Y289639D01*
X47710D01*
Y289598D01*
X47669D01*
Y289558D01*
X47628D01*
Y289517D01*
X47506D01*
Y289476D01*
X47383D01*
Y289517D01*
X47343D01*
Y289558D01*
X47302D01*
Y289598D01*
X47343D01*
Y289639D01*
Y289680D01*
Y289721D01*
Y289762D01*
X47383D01*
Y289803D01*
Y289843D01*
X47424D01*
Y289884D01*
Y289925D01*
X47465D01*
Y289966D01*
X47506D01*
Y290007D01*
Y290048D01*
X47547D01*
Y290088D01*
X47587D01*
Y290129D01*
X47628D01*
Y290170D01*
X47669D01*
Y290211D01*
X47710D01*
Y290252D01*
Y290293D01*
X47833D01*
Y290333D01*
X47873D01*
Y290374D01*
X47914D01*
Y290415D01*
X47955D01*
Y290456D01*
X48078D01*
Y290497D01*
X48118D01*
Y290538D01*
X48200D01*
Y290578D01*
X48241D01*
Y290619D01*
X48363D01*
Y290660D01*
X48445D01*
Y290701D01*
X48527D01*
Y290742D01*
X48568D01*
Y290701D01*
X48608D01*
Y290742D01*
X48690D01*
Y290783D01*
X48853D01*
Y290823D01*
X48935D01*
Y290864D01*
X49221D01*
Y290905D01*
X49425D01*
Y290946D01*
X49548D01*
Y290905D01*
X49589D01*
Y290946D01*
X49670D01*
Y290987D01*
X50609D01*
Y290946D01*
D02*
G37*
G36*
X127787Y291148D02*
X127860Y291133D01*
X127933Y291104D01*
X128006Y291075D01*
X128050Y291017D01*
X128065Y290944D01*
Y290929D01*
X128050Y290900D01*
X128035Y290827D01*
X127977Y290740D01*
X127962Y290725D01*
X127948Y290667D01*
X127919Y290623D01*
X127904Y290594D01*
X127890Y290565D01*
X127860Y290521D01*
X127802Y290463D01*
X127758Y290448D01*
X127715Y290433D01*
X127671D01*
X127583Y290463D01*
X127554Y290477D01*
X127481Y290506D01*
X127379Y290535D01*
X127248Y290550D01*
X127190D01*
X127117Y290535D01*
X127029D01*
X126825Y290477D01*
X126723Y290433D01*
X126621Y290375D01*
X126592Y290360D01*
X126534Y290302D01*
X126432Y290215D01*
X126286Y290084D01*
X126111Y289909D01*
X125921Y289690D01*
X125688Y289413D01*
X125455Y289092D01*
X125440Y289063D01*
X125382Y288975D01*
X125280Y288830D01*
X125148Y288640D01*
X125003Y288407D01*
X124828Y288130D01*
X124638Y287824D01*
X124419Y287474D01*
X124201Y287109D01*
X123968Y286716D01*
X123734Y286293D01*
X123501Y285870D01*
X123064Y284966D01*
X122845Y284514D01*
X122655Y284062D01*
Y284047D01*
X122641Y284018D01*
X122626Y283960D01*
X122597Y283887D01*
X122553Y283727D01*
X122539Y283552D01*
Y283523D01*
X122553Y283464D01*
X122582Y283406D01*
X122612Y283391D01*
X122641Y283377D01*
X122670D01*
X122757Y283391D01*
X122889Y283450D01*
X122976Y283479D01*
X123078Y283537D01*
X123093D01*
X123107Y283552D01*
X123151Y283581D01*
X123209Y283625D01*
X123355Y283741D01*
X123545Y283916D01*
X123647Y284018D01*
X123763Y284135D01*
X123880Y284266D01*
X124011Y284426D01*
X124143Y284587D01*
X124274Y284776D01*
X124419Y284981D01*
X124551Y285199D01*
X124565Y285214D01*
X124594Y285243D01*
X124638Y285258D01*
X124639Y285258D01*
X124799Y285447D01*
X125090Y285695D01*
X125251Y285826D01*
X125426Y285928D01*
X125440Y285943D01*
X125484Y285957D01*
X125557Y285986D01*
X125644Y286030D01*
X125746Y286074D01*
X125863Y286103D01*
X126140Y286161D01*
X126154Y286176D01*
X126169Y286205D01*
X126227Y286249D01*
X126286Y286307D01*
X126373Y286366D01*
X126490Y286409D01*
X126636Y286438D01*
X126796Y286453D01*
Y286438D01*
X126781Y286409D01*
X126767Y286351D01*
X126738Y286293D01*
X126709Y286234D01*
X126679Y286176D01*
X126665Y286147D01*
X126636Y286132D01*
X126650D01*
X126709Y286118D01*
X126796Y286074D01*
X126869Y286030D01*
X126956Y285986D01*
Y285972D01*
X126942Y285957D01*
X126913Y285899D01*
X126869Y285826D01*
X126840Y285811D01*
X126811Y285797D01*
X126694D01*
X126679Y285811D01*
X126738D01*
X126694Y285826D01*
X126621D01*
X126548Y285841D01*
X126534Y285811D01*
X126519Y285782D01*
X126490Y285724D01*
X126446Y285622D01*
X126388Y285505D01*
X126300Y285360D01*
X126213Y285155D01*
Y285141D01*
X126198Y285112D01*
X126184Y285068D01*
X126154Y285010D01*
X126082Y284864D01*
X126023Y284674D01*
X125950Y284485D01*
X125877Y284295D01*
X125834Y284120D01*
X125819Y283975D01*
Y283945D01*
X125834Y283902D01*
X125863Y283843D01*
X125892Y283829D01*
X125921Y283814D01*
X125965D01*
X126052Y283829D01*
X126067D01*
X126096Y283843D01*
X126140Y283872D01*
X126198Y283902D01*
X126344Y283989D01*
X126548Y284135D01*
X126781Y284324D01*
X126913Y284441D01*
X127044Y284572D01*
X127175Y284718D01*
X127306Y284878D01*
X127452Y285068D01*
X127583Y285258D01*
X127598Y285272D01*
X127627Y285316D01*
X127671Y285345D01*
X127744Y285360D01*
X127773D01*
X127817Y285345D01*
X127860Y285301D01*
X127890Y285214D01*
Y285199D01*
X127875Y285243D01*
X127860Y285214D01*
X127802Y285126D01*
X127729Y285010D01*
X127627Y284864D01*
X127496Y284689D01*
X127350Y284514D01*
X127175Y284353D01*
X127000Y284193D01*
X126986Y284179D01*
X126971Y284164D01*
X126927Y284120D01*
X126869Y284076D01*
X126738Y283960D01*
X126563Y283829D01*
X126373Y283683D01*
X126169Y283566D01*
X125965Y283479D01*
X125863Y283464D01*
X125775Y283450D01*
X125746D01*
X125688Y283464D01*
X125601Y283479D01*
X125513Y283523D01*
X125411Y283610D01*
X125323Y283712D01*
X125265Y283872D01*
X125236Y283960D01*
Y284076D01*
Y284091D01*
Y284120D01*
X125251Y284208D01*
X125280Y284339D01*
X125315Y284432D01*
X125309Y284426D01*
X125280Y284383D01*
X125236Y284324D01*
X125148Y284193D01*
X125017Y284033D01*
X124872Y283872D01*
X124711Y283741D01*
X124624Y283683D01*
X124536Y283654D01*
X124449Y283625D01*
X124361Y283610D01*
X124303D01*
X124244Y283625D01*
X124186Y283654D01*
X124128Y283697D01*
X124070Y283770D01*
X124026Y283858D01*
X124014Y283967D01*
X123836Y283770D01*
X123545Y283508D01*
X123399Y283391D01*
X123253Y283289D01*
X123239Y283275D01*
X123180Y283245D01*
X123107Y283202D01*
X123020Y283158D01*
X122903Y283100D01*
X122786Y283056D01*
X122655Y283027D01*
X122539Y283012D01*
X122510D01*
X122451Y283027D01*
X122364Y283041D01*
X122276Y283085D01*
X122174Y283173D01*
X122087Y283275D01*
X122028Y283435D01*
X121999Y283523D01*
Y283639D01*
Y283654D01*
X122014Y283727D01*
X122028Y283829D01*
X122057Y283975D01*
X122116Y284149D01*
X122189Y284383D01*
X122305Y284645D01*
X122403Y284849D01*
X122364Y284791D01*
X122305Y284674D01*
X122203Y284543D01*
X122087Y284397D01*
X121941Y284222D01*
X121766Y284047D01*
X121751Y284033D01*
X121708Y283989D01*
X121649Y283916D01*
X121562Y283858D01*
X121460Y283785D01*
X121343Y283712D01*
X121227Y283668D01*
X121110Y283654D01*
X121052D01*
X120993Y283668D01*
X120935Y283697D01*
X120862Y283741D01*
X120804Y283814D01*
X120760Y283902D01*
X120758Y283915D01*
X120585Y283756D01*
X120410Y283610D01*
X120220Y283479D01*
X120031Y283362D01*
X119841Y283275D01*
X119652Y283216D01*
X119462Y283202D01*
X119448D01*
X119389Y283216D01*
X119302Y283231D01*
X119214Y283275D01*
X119127Y283333D01*
X119039Y283435D01*
X118981Y283566D01*
X118967Y283741D01*
Y283756D01*
Y283785D01*
Y283829D01*
X118981Y283872D01*
X119010Y284004D01*
X119062Y284097D01*
X119025Y284047D01*
X118967Y283945D01*
X118879Y283843D01*
X118763Y283727D01*
X118646Y283625D01*
X118500Y283566D01*
X118340Y283537D01*
X118325D01*
X118281Y283552D01*
X118208Y283566D01*
X118135Y283595D01*
X118063Y283639D01*
X117990Y283727D01*
X117946Y283829D01*
X117931Y283975D01*
Y283989D01*
Y284004D01*
X117946Y284076D01*
X117961Y284193D01*
X118004Y284339D01*
Y284353D01*
X118019Y284383D01*
X118034Y284426D01*
X118063Y284485D01*
X118092Y284558D01*
X118121Y284645D01*
X118223Y284849D01*
X118340Y285112D01*
X118500Y285403D01*
X118675Y285710D01*
X118879Y286045D01*
Y286059D01*
X118894Y286074D01*
X118952Y286132D01*
X119039Y286176D01*
X119098Y286205D01*
X119200D01*
X119316Y286176D01*
X119360Y286147D01*
X119419Y286089D01*
X119448Y286030D01*
X119462Y285943D01*
X119448Y285914D01*
X119433Y285870D01*
X119375Y285782D01*
X119302Y285651D01*
X119244Y285564D01*
X119185Y285462D01*
X119098Y285345D01*
X119010Y285214D01*
X118908Y285053D01*
X118792Y284878D01*
Y284864D01*
X118777Y284849D01*
X118748Y284762D01*
X118690Y284645D01*
X118646Y284499D01*
X118588Y284339D01*
X118529Y284193D01*
X118500Y284062D01*
X118485Y283960D01*
Y283945D01*
Y283931D01*
Y283916D01*
X118500Y283902D01*
X118515D01*
X118558Y283916D01*
X118631Y283960D01*
X118733Y284047D01*
X118748Y284062D01*
X118792Y284120D01*
X118879Y284208D01*
X118967Y284324D01*
X119083Y284485D01*
X119214Y284674D01*
X119346Y284893D01*
X119477Y285141D01*
X119492Y285155D01*
X119521Y285214D01*
X119564Y285287D01*
X119608Y285389D01*
X119681Y285505D01*
X119754Y285637D01*
X119914Y285899D01*
X119929Y285914D01*
X119973Y285972D01*
X120031Y286016D01*
X120104Y286030D01*
X120118D01*
X120162Y286016D01*
X120220Y285986D01*
X120279Y285928D01*
Y285914D01*
X120293Y285899D01*
X120352Y285826D01*
X120395Y285724D01*
X120410Y285607D01*
Y285593D01*
Y285578D01*
X120395Y285535D01*
X120381Y285476D01*
X120352Y285403D01*
X120308Y285316D01*
X120250Y285214D01*
X120177Y285097D01*
X120148Y285068D01*
X120089Y284995D01*
X119987Y284864D01*
X119856Y284703D01*
X119841Y284674D01*
X119798Y284616D01*
X119739Y284514D01*
X119681Y284383D01*
X119608Y284237D01*
X119550Y284062D01*
X119506Y283872D01*
X119492Y283683D01*
Y283654D01*
X119506Y283610D01*
X119535Y283566D01*
X119579Y283537D01*
X119594D01*
X119652Y283552D01*
X119739Y283581D01*
X119856Y283625D01*
X120016Y283712D01*
X120206Y283829D01*
X120439Y284004D01*
X120570Y284120D01*
X120702Y284237D01*
X120716Y284251D01*
X120774Y284310D01*
X120830Y284377D01*
X120833Y284383D01*
X120877Y284485D01*
X120935Y284601D01*
X120949Y284616D01*
X120979Y284660D01*
X121022Y284733D01*
X121081Y284820D01*
X121168Y284937D01*
X121270Y285053D01*
X121387Y285185D01*
X121518Y285330D01*
X121664Y285462D01*
X121824Y285607D01*
X122189Y285870D01*
X122393Y285986D01*
X122597Y286089D01*
X122830Y286161D01*
X123064Y286220D01*
Y286234D01*
X123093Y286263D01*
X123122Y286322D01*
X123166Y286395D01*
X123209Y286482D01*
X123282Y286584D01*
X123355Y286716D01*
X123428Y286847D01*
X123618Y287153D01*
X123851Y287503D01*
X124099Y287882D01*
X124376Y288290D01*
X124667Y288698D01*
X124973Y289107D01*
X125309Y289500D01*
X125630Y289879D01*
X125965Y290229D01*
X126315Y290535D01*
X126475Y290667D01*
X126650Y290783D01*
X126811Y290885D01*
X126971Y290973D01*
X126986Y290987D01*
X127029Y291002D01*
X127102Y291031D01*
X127204Y291075D01*
X127423Y291133D01*
X127540Y291148D01*
X127656Y291162D01*
X127715D01*
X127787Y291148D01*
D02*
G37*
G36*
X47710Y290742D02*
Y290701D01*
Y290660D01*
Y290619D01*
Y290578D01*
X47669D01*
Y290538D01*
Y290497D01*
X47628D01*
Y290456D01*
Y290415D01*
X47587D01*
Y290374D01*
Y290333D01*
X47547D01*
Y290293D01*
X47506D01*
Y290252D01*
Y290211D01*
X47465D01*
Y290170D01*
Y290129D01*
X47424D01*
Y290088D01*
X47383D01*
Y290048D01*
X47343D01*
Y290007D01*
X47302D01*
Y289966D01*
X47261D01*
Y289925D01*
Y289884D01*
X47220D01*
Y289843D01*
X47179D01*
Y289803D01*
X47138D01*
Y289762D01*
X47098D01*
Y289721D01*
X47057D01*
Y289680D01*
Y289639D01*
X47016D01*
Y289598D01*
X46975D01*
Y289558D01*
X46934D01*
Y289517D01*
X46893D01*
Y289476D01*
X46852D01*
Y289435D01*
X46812D01*
Y289394D01*
X46771D01*
Y289353D01*
X46730D01*
Y289313D01*
Y289272D01*
X46689D01*
Y289231D01*
Y289190D01*
X46648D01*
Y289149D01*
X46608D01*
Y289108D01*
Y289068D01*
X46567D01*
Y289027D01*
X46526D01*
Y288986D01*
Y288945D01*
X46485D01*
Y288904D01*
Y288863D01*
Y288823D01*
X46444D01*
Y288782D01*
Y288741D01*
X46403D01*
Y288700D01*
Y288659D01*
Y288618D01*
Y288577D01*
Y288537D01*
Y288496D01*
Y288455D01*
X46444D01*
Y288414D01*
X46403D01*
Y288373D01*
Y288332D01*
Y288292D01*
X46444D01*
Y288251D01*
Y288210D01*
X46485D01*
Y288169D01*
Y288128D01*
X46526D01*
Y288087D01*
Y288047D01*
Y288006D01*
X46567D01*
Y287965D01*
X46608D01*
Y287924D01*
X46648D01*
Y287883D01*
X46689D01*
Y287842D01*
X46730D01*
Y287802D01*
X46852D01*
Y287761D01*
X46893D01*
Y287720D01*
X46975D01*
Y287679D01*
X47138D01*
Y287638D01*
X47261D01*
Y287597D01*
X47465D01*
Y287557D01*
X47628D01*
Y287516D01*
X47669D01*
Y287557D01*
X47710D01*
Y287516D01*
X47955D01*
Y287475D01*
X48241D01*
Y287434D01*
X48404D01*
Y287393D01*
X48731D01*
Y287352D01*
X49017D01*
Y287312D01*
X49180D01*
Y287271D01*
X49425D01*
Y287230D01*
X49589D01*
Y287189D01*
X49752D01*
Y287148D01*
X49874D01*
Y287107D01*
X49997D01*
Y287067D01*
X50119D01*
Y287026D01*
X50201D01*
Y286985D01*
X50283D01*
Y286944D01*
X50405D01*
Y286903D01*
X50487D01*
Y286862D01*
X50528D01*
Y286822D01*
X50569D01*
Y286781D01*
X50650D01*
Y286740D01*
X50691D01*
Y286699D01*
X50732D01*
Y286658D01*
X50814D01*
Y286617D01*
X50854D01*
Y286577D01*
X50895D01*
Y286536D01*
X50936D01*
Y286495D01*
X50977D01*
Y286454D01*
X51018D01*
Y286413D01*
X51059D01*
Y286372D01*
Y286332D01*
X51099D01*
Y286291D01*
X51140D01*
Y286250D01*
Y286209D01*
X51181D01*
Y286168D01*
X51222D01*
Y286127D01*
Y286086D01*
X51263D01*
Y286046D01*
Y286005D01*
Y285964D01*
Y285923D01*
Y285882D01*
Y285841D01*
Y285801D01*
Y285760D01*
Y285719D01*
Y285678D01*
Y285637D01*
Y285596D01*
Y285556D01*
X51222D01*
Y285515D01*
Y285474D01*
Y285433D01*
X51181D01*
Y285392D01*
X51140D01*
Y285351D01*
Y285311D01*
X51059D01*
Y285270D01*
X51018D01*
Y285229D01*
X50936D01*
Y285188D01*
X50854D01*
Y285147D01*
X50732D01*
Y285106D01*
X50650D01*
Y285147D01*
X50283D01*
Y285188D01*
X49834D01*
Y285229D01*
X49711D01*
Y285270D01*
X49670D01*
Y285229D01*
X49629D01*
Y285270D01*
X49466D01*
Y285311D01*
X49017D01*
Y285351D01*
X48853D01*
Y285392D01*
X48772D01*
Y285351D01*
X48690D01*
Y285392D01*
X48527D01*
Y285433D01*
X48037D01*
Y285474D01*
X47792D01*
Y285515D01*
X47098D01*
Y285556D01*
X45995D01*
Y285515D01*
X45137D01*
Y285474D01*
X44851D01*
Y285433D01*
X44484D01*
Y285392D01*
X44157D01*
Y285351D01*
X43912D01*
Y285311D01*
X43626D01*
Y285270D01*
X43463D01*
Y285229D01*
X43300D01*
Y285188D01*
X43055D01*
Y285147D01*
X42932D01*
Y285106D01*
X42769D01*
Y285066D01*
X42565D01*
Y285025D01*
X42442D01*
Y284984D01*
X42156D01*
Y285025D01*
X42116D01*
Y285066D01*
Y285106D01*
X42156D01*
Y285147D01*
X42197D01*
Y285188D01*
Y285229D01*
X42238D01*
Y285270D01*
X42279D01*
Y285311D01*
X42320D01*
Y285351D01*
X42360D01*
Y285392D01*
X42401D01*
Y285433D01*
X42442D01*
Y285474D01*
X42483D01*
Y285515D01*
X42524D01*
Y285556D01*
X42606D01*
Y285596D01*
X42646D01*
Y285637D01*
X42687D01*
Y285678D01*
X42769D01*
Y285719D01*
X42810D01*
Y285760D01*
X42891D01*
Y285801D01*
X43014D01*
Y285841D01*
X43096D01*
Y285882D01*
X43177D01*
Y285923D01*
X43300D01*
Y285964D01*
X43381D01*
Y286005D01*
X43545D01*
Y286046D01*
X43586D01*
Y286086D01*
X43831D01*
Y286127D01*
X43912D01*
Y286168D01*
X44076D01*
Y286209D01*
X44321D01*
Y286250D01*
X44525D01*
Y286291D01*
X44688D01*
Y286332D01*
X45219D01*
Y286372D01*
X45505D01*
Y286413D01*
X46199D01*
Y286454D01*
X48976D01*
Y286495D01*
X48894D01*
Y286536D01*
X48649D01*
Y286577D01*
X48486D01*
Y286617D01*
X48363D01*
Y286658D01*
X48037D01*
Y286699D01*
X47710D01*
Y286740D01*
X47506D01*
Y286781D01*
X47098D01*
Y286822D01*
X46608D01*
Y286862D01*
X46526D01*
Y286822D01*
X46485D01*
Y286862D01*
X44851D01*
Y286822D01*
X44729D01*
Y286862D01*
X44688D01*
Y286822D01*
X44321D01*
Y286781D01*
X43912D01*
Y286740D01*
X43708D01*
Y286699D01*
X43504D01*
Y286658D01*
X43218D01*
Y286617D01*
X43096D01*
Y286577D01*
X42891D01*
Y286536D01*
X42728D01*
Y286495D01*
X42606D01*
Y286454D01*
X42483D01*
Y286413D01*
X42360D01*
Y286372D01*
X42238D01*
Y286332D01*
X42116D01*
Y286291D01*
X42034D01*
Y286250D01*
X41952D01*
Y286209D01*
X41870D01*
Y286168D01*
X41748D01*
Y286127D01*
X41707D01*
Y286086D01*
X41585D01*
Y286046D01*
X41544D01*
Y286005D01*
X41462D01*
Y285964D01*
X41380D01*
Y285923D01*
X41340D01*
Y285882D01*
X41258D01*
Y285841D01*
X41217D01*
Y285801D01*
X41135D01*
Y285760D01*
X41095D01*
Y285719D01*
X41054D01*
Y285678D01*
X40972D01*
Y285637D01*
X40931D01*
Y285596D01*
X40890D01*
Y285556D01*
X40809D01*
Y285515D01*
X40768D01*
Y285474D01*
X40727D01*
Y285433D01*
X40686D01*
Y285392D01*
X40645D01*
Y285351D01*
X40605D01*
Y285311D01*
X40564D01*
Y285270D01*
X40523D01*
Y285229D01*
X40482D01*
Y285188D01*
X40441D01*
Y285147D01*
X40400D01*
Y285106D01*
X40360D01*
Y285066D01*
Y285025D01*
X40319D01*
Y284984D01*
X40278D01*
Y284943D01*
X40237D01*
Y284902D01*
X40196D01*
Y284861D01*
Y284821D01*
X40155D01*
Y284780D01*
X40115D01*
Y284739D01*
Y284698D01*
X40074D01*
Y284657D01*
X40033D01*
Y284616D01*
Y284576D01*
Y284535D01*
X39992D01*
Y284494D01*
Y284453D01*
X39951D01*
Y284412D01*
X39910D01*
Y284371D01*
Y284331D01*
X39869D01*
Y284290D01*
Y284249D01*
X39829D01*
Y284208D01*
Y284167D01*
Y284126D01*
X39788D01*
Y284085D01*
Y284045D01*
X39747D01*
Y284004D01*
Y283963D01*
X39706D01*
Y283922D01*
Y283881D01*
Y283840D01*
Y283800D01*
Y283759D01*
X39665D01*
Y283718D01*
Y283677D01*
Y283636D01*
Y283595D01*
X39625D01*
Y283555D01*
Y283514D01*
X39584D01*
Y283473D01*
Y283432D01*
Y283391D01*
Y283350D01*
Y283310D01*
X39502D01*
Y283269D01*
X39420D01*
Y283310D01*
X39339D01*
Y283350D01*
X39216D01*
Y283391D01*
Y283432D01*
X39175D01*
Y283473D01*
Y283514D01*
X39134D01*
Y283555D01*
Y283595D01*
Y283636D01*
X39094D01*
Y283677D01*
Y283718D01*
Y283759D01*
Y283800D01*
X39053D01*
Y283840D01*
Y283881D01*
X39012D01*
Y283922D01*
Y283963D01*
X39053D01*
Y284004D01*
X39012D01*
Y284045D01*
Y284085D01*
Y284126D01*
X38971D01*
Y284167D01*
Y284208D01*
Y284249D01*
Y284290D01*
Y284331D01*
Y284371D01*
Y284412D01*
Y284453D01*
Y284494D01*
X38930D01*
Y284535D01*
Y284576D01*
Y284616D01*
Y284657D01*
Y284698D01*
Y284739D01*
Y284780D01*
Y284821D01*
Y284861D01*
Y284902D01*
Y284943D01*
Y284984D01*
Y285025D01*
X38971D01*
Y285066D01*
Y285106D01*
Y285147D01*
Y285188D01*
Y285229D01*
Y285270D01*
Y285311D01*
Y285351D01*
X39012D01*
Y285392D01*
Y285433D01*
Y285474D01*
Y285515D01*
Y285556D01*
Y285596D01*
X39053D01*
Y285637D01*
Y285678D01*
X39094D01*
Y285719D01*
Y285760D01*
Y285801D01*
Y285841D01*
X39134D01*
Y285882D01*
Y285923D01*
X39175D01*
Y285964D01*
Y286005D01*
Y286046D01*
X39216D01*
Y286086D01*
Y286127D01*
Y286168D01*
X39257D01*
Y286209D01*
X39298D01*
Y286250D01*
Y286291D01*
X39339D01*
Y286332D01*
Y286372D01*
Y286413D01*
X39380D01*
Y286454D01*
X39420D01*
Y286495D01*
X39461D01*
Y286536D01*
Y286577D01*
Y286617D01*
X39502D01*
Y286658D01*
X39543D01*
Y286699D01*
X39584D01*
Y286740D01*
Y286781D01*
X39625D01*
Y286822D01*
X39665D01*
Y286862D01*
Y286903D01*
X39706D01*
Y286944D01*
X39747D01*
Y286985D01*
X39788D01*
Y287026D01*
X39829D01*
Y287067D01*
X39869D01*
Y287107D01*
Y287148D01*
X39910D01*
Y287189D01*
X39951D01*
Y287230D01*
X39992D01*
Y287271D01*
X40033D01*
Y287312D01*
X40074D01*
Y287352D01*
X40115D01*
Y287393D01*
X40155D01*
Y287434D01*
X40196D01*
Y287475D01*
X40237D01*
Y287516D01*
X40278D01*
Y287557D01*
X40319D01*
Y287597D01*
X40360D01*
Y287638D01*
X40400D01*
Y287679D01*
X40441D01*
Y287720D01*
X40482D01*
Y287761D01*
X40564D01*
Y287802D01*
X40605D01*
Y287842D01*
X40686D01*
Y287883D01*
Y287924D01*
X40727D01*
Y287965D01*
X40768D01*
Y288006D01*
X40809D01*
Y288047D01*
X40931D01*
Y288087D01*
X40972D01*
Y288128D01*
X41013D01*
Y288169D01*
X41054D01*
Y288210D01*
X41095D01*
Y288251D01*
X41217D01*
Y288292D01*
X41258D01*
Y288332D01*
X41299D01*
Y288373D01*
X41380D01*
Y288414D01*
X41421D01*
Y288455D01*
X41462D01*
Y288496D01*
X41585D01*
Y288537D01*
X41625D01*
Y288577D01*
X41707D01*
Y288618D01*
X41748D01*
Y288659D01*
X41830D01*
Y288700D01*
X41870D01*
Y288741D01*
X41952D01*
Y288782D01*
X42034D01*
Y288823D01*
X42075D01*
Y288863D01*
X42197D01*
Y288904D01*
X42238D01*
Y288945D01*
X42320D01*
Y288986D01*
X42401D01*
Y289027D01*
X42483D01*
Y289068D01*
X42606D01*
Y289108D01*
X42646D01*
Y289149D01*
X42728D01*
Y289190D01*
X42810D01*
Y289231D01*
X42891D01*
Y289272D01*
X43014D01*
Y289313D01*
X43055D01*
Y289353D01*
X43177D01*
Y289394D01*
X43218D01*
Y289435D01*
X43341D01*
Y289476D01*
X43422D01*
Y289517D01*
X43545D01*
Y289558D01*
X43626D01*
Y289598D01*
X43708D01*
Y289639D01*
X43831D01*
Y289680D01*
X43912D01*
Y289721D01*
X43994D01*
Y289762D01*
X44117D01*
Y289803D01*
X44198D01*
Y289843D01*
X44321D01*
Y289884D01*
X44484D01*
Y289925D01*
X44525D01*
Y289966D01*
X44647D01*
Y290007D01*
X44770D01*
Y290048D01*
X44811D01*
Y290007D01*
X44851D01*
Y290048D01*
X44892D01*
Y290088D01*
X45015D01*
Y290129D01*
X45178D01*
Y290170D01*
X45301D01*
Y290211D01*
X45423D01*
Y290252D01*
X45505D01*
Y290293D01*
X45668D01*
Y290333D01*
X45872D01*
Y290374D01*
X45954D01*
Y290415D01*
X46077D01*
Y290456D01*
X46281D01*
Y290497D01*
X46363D01*
Y290538D01*
X46526D01*
Y290578D01*
X46689D01*
Y290619D01*
X46852D01*
Y290660D01*
X46975D01*
Y290701D01*
X47179D01*
Y290742D01*
X47261D01*
Y290783D01*
X47710D01*
Y290742D01*
D02*
G37*
G36*
X54407Y289680D02*
X54571D01*
Y289639D01*
X54611D01*
Y289680D01*
X54652D01*
Y289639D01*
X55020D01*
Y289598D01*
X55224D01*
Y289558D01*
X55428D01*
Y289517D01*
X55632D01*
Y289476D01*
X55796D01*
Y289435D01*
X56000D01*
Y289394D01*
X56204D01*
Y289353D01*
X56286D01*
Y289313D01*
X56449D01*
Y289272D01*
X56653D01*
Y289231D01*
X56735D01*
Y289190D01*
X56898D01*
Y289149D01*
X57021D01*
Y289108D01*
X57143D01*
Y289068D01*
X57225D01*
Y289027D01*
X57347D01*
Y288986D01*
X57470D01*
Y288945D01*
X57551D01*
Y288904D01*
X57674D01*
Y288863D01*
X57756D01*
Y288823D01*
X57878D01*
Y288782D01*
X57919D01*
Y288741D01*
X58042D01*
Y288700D01*
X58164D01*
Y288659D01*
X58246D01*
Y288618D01*
X58327D01*
Y288577D01*
X58409D01*
Y288537D01*
X58491D01*
Y288496D01*
X58572D01*
Y288455D01*
X58654D01*
Y288414D01*
X58736D01*
Y288373D01*
X58858D01*
Y288332D01*
X58899D01*
Y288292D01*
X58981D01*
Y288251D01*
X59062D01*
Y288210D01*
X59144D01*
Y288169D01*
X59226D01*
Y288128D01*
X59267D01*
Y288087D01*
X59307D01*
Y288047D01*
X59389D01*
Y288006D01*
X59471D01*
Y287965D01*
X59553D01*
Y287924D01*
X59593D01*
Y287883D01*
X59675D01*
Y287842D01*
X59716D01*
Y287802D01*
X59798D01*
Y287761D01*
X59838D01*
Y287720D01*
X59920D01*
Y287679D01*
X59961D01*
Y287638D01*
X60043D01*
Y287597D01*
X60083D01*
Y287557D01*
X60124D01*
Y287516D01*
X60206D01*
Y287475D01*
X60247D01*
Y287434D01*
X60287D01*
Y287393D01*
X60369D01*
Y287352D01*
X60410D01*
Y287312D01*
X60492D01*
Y287271D01*
X60533D01*
Y287230D01*
X60573D01*
Y287189D01*
X60614D01*
Y287148D01*
X60696D01*
Y287107D01*
X60737D01*
Y287067D01*
X60778D01*
Y287026D01*
X60818D01*
Y286985D01*
X60859D01*
Y286944D01*
X60900D01*
Y286903D01*
X60982D01*
Y286862D01*
X61023D01*
Y286822D01*
X61063D01*
Y286781D01*
X61145D01*
Y286740D01*
X61186D01*
Y286699D01*
Y286658D01*
X61268D01*
Y286617D01*
X61308D01*
Y286577D01*
Y286536D01*
X61390D01*
Y286495D01*
X61431D01*
Y286454D01*
Y286413D01*
X61513D01*
Y286372D01*
X61554D01*
Y286332D01*
X61594D01*
Y286291D01*
X61635D01*
Y286250D01*
Y286209D01*
X61717D01*
Y286168D01*
Y286127D01*
X61799D01*
Y286086D01*
Y286046D01*
X61839D01*
Y286005D01*
X61880D01*
Y285964D01*
X61921D01*
Y285923D01*
X61962D01*
Y285882D01*
X62003D01*
Y285841D01*
X62043D01*
Y285801D01*
Y285760D01*
X62084D01*
Y285719D01*
X62125D01*
Y285678D01*
X62166D01*
Y285637D01*
X62207D01*
Y285596D01*
X62248D01*
Y285556D01*
X62288D01*
Y285515D01*
Y285474D01*
X62329D01*
Y285433D01*
X62370D01*
Y285392D01*
X62411D01*
Y285351D01*
Y285311D01*
X62452D01*
Y285270D01*
Y285229D01*
X62493D01*
Y285188D01*
X62533D01*
Y285147D01*
X62574D01*
Y285106D01*
Y285066D01*
X62615D01*
Y285025D01*
X62656D01*
Y284984D01*
Y284943D01*
X62738D01*
Y284902D01*
Y284861D01*
Y284821D01*
X62779D01*
Y284780D01*
X62819D01*
Y284739D01*
Y284698D01*
X62860D01*
Y284657D01*
Y284616D01*
X62901D01*
Y284576D01*
X62942D01*
Y284535D01*
Y284494D01*
X62983D01*
Y284453D01*
X63024D01*
Y284412D01*
Y284371D01*
X63064D01*
Y284331D01*
Y284290D01*
X63105D01*
Y284249D01*
Y284208D01*
X63146D01*
Y284167D01*
Y284126D01*
X63187D01*
Y284085D01*
Y284045D01*
X63228D01*
Y284004D01*
Y283963D01*
X63269D01*
Y283922D01*
Y283881D01*
X63309D01*
Y283840D01*
Y283800D01*
X63350D01*
Y283759D01*
Y283718D01*
Y283677D01*
X63391D01*
Y283636D01*
X63432D01*
Y283595D01*
Y283555D01*
Y283514D01*
Y283473D01*
Y283432D01*
Y283391D01*
X63309D01*
Y283432D01*
X63269D01*
Y283473D01*
X63228D01*
Y283514D01*
X63187D01*
Y283555D01*
Y283595D01*
X63146D01*
Y283636D01*
X63105D01*
Y283677D01*
X63064D01*
Y283718D01*
Y283759D01*
X63024D01*
Y283800D01*
X62983D01*
Y283840D01*
X62942D01*
Y283881D01*
Y283922D01*
X62901D01*
Y283963D01*
Y284004D01*
X62860D01*
Y284045D01*
X62819D01*
Y284085D01*
X62779D01*
Y284126D01*
Y284167D01*
X62738D01*
Y284208D01*
X62697D01*
Y284249D01*
X62656D01*
Y284290D01*
Y284331D01*
X62615D01*
Y284371D01*
X62574D01*
Y284412D01*
Y284453D01*
X62533D01*
Y284494D01*
X62493D01*
Y284535D01*
X62452D01*
Y284576D01*
X62411D01*
Y284616D01*
Y284657D01*
X62370D01*
Y284698D01*
X62329D01*
Y284739D01*
X62288D01*
Y284780D01*
X62248D01*
Y284821D01*
Y284861D01*
X62207D01*
Y284902D01*
X62166D01*
Y284943D01*
X62125D01*
Y284984D01*
X62084D01*
Y285025D01*
X62043D01*
Y285066D01*
X62003D01*
Y285106D01*
X61962D01*
Y285147D01*
X61921D01*
Y285188D01*
X61880D01*
Y285229D01*
X61839D01*
Y285270D01*
Y285311D01*
X61799D01*
Y285351D01*
X61758D01*
Y285392D01*
X61717D01*
Y285433D01*
X61676D01*
Y285474D01*
X61635D01*
Y285515D01*
X61594D01*
Y285556D01*
X61554D01*
Y285596D01*
X61513D01*
Y285637D01*
X61431D01*
Y285678D01*
X61390D01*
Y285719D01*
X61349D01*
Y285760D01*
X61308D01*
Y285801D01*
X61268D01*
Y285841D01*
X61186D01*
Y285882D01*
Y285923D01*
X61145D01*
Y285964D01*
X61104D01*
Y286005D01*
X61023D01*
Y286046D01*
X60982D01*
Y286086D01*
X60900D01*
Y286127D01*
X60859D01*
Y286168D01*
X60818D01*
Y286209D01*
X60737D01*
Y286250D01*
X60696D01*
Y286291D01*
X60614D01*
Y286332D01*
Y286372D01*
X60533D01*
Y286413D01*
X60451D01*
Y286454D01*
X60410D01*
Y286495D01*
X60328D01*
Y286536D01*
X60247D01*
Y286577D01*
X60206D01*
Y286617D01*
X60165D01*
Y286658D01*
X60083D01*
Y286699D01*
X60002D01*
Y286740D01*
X59920D01*
Y286781D01*
X59838D01*
Y286822D01*
X59757D01*
Y286862D01*
X59716D01*
Y286903D01*
X59593D01*
Y286944D01*
X59553D01*
Y286985D01*
X59471D01*
Y287026D01*
X59348D01*
Y287067D01*
X59307D01*
Y287107D01*
X59185D01*
Y287148D01*
X59062D01*
Y287189D01*
X58981D01*
Y287230D01*
X58858D01*
Y287271D01*
X58777D01*
Y287312D01*
X58654D01*
Y287352D01*
X58572D01*
Y287393D01*
X58368D01*
Y287434D01*
X58246D01*
Y287475D01*
X58082D01*
Y287516D01*
X57960D01*
Y287557D01*
X57633D01*
Y287597D01*
X57266D01*
Y287638D01*
X56898D01*
Y287679D01*
X56817D01*
Y287638D01*
X56612D01*
Y287679D01*
X56490D01*
Y287720D01*
X56408D01*
Y287761D01*
X56367D01*
Y287802D01*
X56326D01*
Y287842D01*
X56286D01*
Y287883D01*
X56245D01*
Y287924D01*
X56163D01*
Y287965D01*
Y288006D01*
X56122D01*
Y288047D01*
X56041D01*
Y288087D01*
X56000D01*
Y288128D01*
X55959D01*
Y288169D01*
X55877D01*
Y288210D01*
X55836D01*
Y288251D01*
X55755D01*
Y288292D01*
X55714D01*
Y288332D01*
X55673D01*
Y288373D01*
X55591D01*
Y288414D01*
X55551D01*
Y288455D01*
X55469D01*
Y288496D01*
X55428D01*
Y288537D01*
X55387D01*
Y288577D01*
X55305D01*
Y288618D01*
X55224D01*
Y288659D01*
X55183D01*
Y288700D01*
X55101D01*
Y288741D01*
X55060D01*
Y288782D01*
X54979D01*
Y288823D01*
X54897D01*
Y288863D01*
X54816D01*
Y288904D01*
X54775D01*
Y288945D01*
X54693D01*
Y288986D01*
X54652D01*
Y289027D01*
X54571D01*
Y289068D01*
X54489D01*
Y289108D01*
X54407D01*
Y289149D01*
X54325D01*
Y289190D01*
X54285D01*
Y289231D01*
X54244D01*
Y289272D01*
X54121D01*
Y289313D01*
X54040D01*
Y289353D01*
Y289394D01*
X53917D01*
Y289435D01*
X53876D01*
Y289476D01*
X53835D01*
Y289517D01*
Y289558D01*
Y289598D01*
Y289639D01*
Y289680D01*
X53917D01*
Y289721D01*
X54325D01*
Y289680D01*
X54366D01*
Y289721D01*
X54407D01*
Y289680D01*
D02*
G37*
G36*
X52692Y292130D02*
X53305D01*
Y292089D01*
X53550D01*
Y292049D01*
X53795D01*
Y292008D01*
X54040D01*
Y291967D01*
X54203D01*
Y291926D01*
X54325D01*
Y291885D01*
X54530D01*
Y291844D01*
X54611D01*
Y291804D01*
X54775D01*
Y291763D01*
X54897D01*
Y291722D01*
X55020D01*
Y291681D01*
X55142D01*
Y291640D01*
X55183D01*
Y291599D01*
X55305D01*
Y291559D01*
X55428D01*
Y291518D01*
X55510D01*
Y291477D01*
X55632D01*
Y291436D01*
X55755D01*
Y291395D01*
X55796D01*
Y291354D01*
X55918D01*
Y291314D01*
X56000D01*
Y291273D01*
X56081D01*
Y291232D01*
X56163D01*
Y291191D01*
X56245D01*
Y291150D01*
X56286D01*
Y291109D01*
X56367D01*
Y291068D01*
X56449D01*
Y291028D01*
X56490D01*
Y290987D01*
X56531D01*
Y290946D01*
X56572D01*
Y290987D01*
X56612D01*
Y290946D01*
X56653D01*
Y290905D01*
X56694D01*
Y290864D01*
X56776D01*
Y290823D01*
X56857D01*
Y290783D01*
X56898D01*
Y290742D01*
X56980D01*
Y290701D01*
X57021D01*
Y290660D01*
X57102D01*
Y290619D01*
X57143D01*
Y290578D01*
X57184D01*
Y290538D01*
X57266D01*
Y290497D01*
Y290456D01*
X57347D01*
Y290415D01*
X57388D01*
Y290374D01*
X57429D01*
Y290333D01*
X57511D01*
Y290293D01*
X57551D01*
Y290252D01*
X57592D01*
Y290211D01*
X57633D01*
Y290170D01*
X57715D01*
Y290129D01*
X57756D01*
Y290088D01*
X57797D01*
Y290048D01*
X57837D01*
Y290007D01*
X57878D01*
Y289966D01*
X57919D01*
Y289925D01*
X57960D01*
Y289884D01*
X58001D01*
Y289843D01*
X58042D01*
Y289803D01*
X58082D01*
Y289762D01*
Y289721D01*
X58123D01*
Y289680D01*
Y289639D01*
X58082D01*
Y289598D01*
X58001D01*
Y289639D01*
X57919D01*
Y289680D01*
X57878D01*
Y289721D01*
X57837D01*
Y289762D01*
X57756D01*
Y289803D01*
X57715D01*
Y289843D01*
X57674D01*
Y289884D01*
X57592D01*
Y289925D01*
X57511D01*
Y289966D01*
X57470D01*
Y290007D01*
X57347D01*
Y290048D01*
Y290088D01*
X57306D01*
Y290129D01*
X57225D01*
Y290170D01*
X57143D01*
Y290211D01*
X57061D01*
Y290252D01*
X56980D01*
Y290293D01*
X56898D01*
Y290333D01*
X56817D01*
Y290374D01*
X56735D01*
Y290415D01*
X56653D01*
Y290456D01*
X56572D01*
Y290497D01*
X56490D01*
Y290538D01*
X56367D01*
Y290578D01*
X56286D01*
Y290619D01*
X56163D01*
Y290660D01*
X56000D01*
Y290701D01*
X55959D01*
Y290742D01*
X55755D01*
Y290783D01*
X55632D01*
Y290823D01*
X55551D01*
Y290864D01*
X55305D01*
Y290905D01*
X55183D01*
Y290946D01*
X55020D01*
Y290987D01*
X54652D01*
Y291028D01*
X54285D01*
Y291068D01*
X54162D01*
Y291028D01*
X54121D01*
Y291068D01*
X53713D01*
Y291028D01*
X53631D01*
Y291068D01*
X53550D01*
Y291028D01*
X53509D01*
Y291068D01*
X53468D01*
Y291028D01*
X53100D01*
Y290987D01*
X52774D01*
Y290946D01*
X52651D01*
Y290905D01*
X52570D01*
Y290946D01*
X52529D01*
Y290905D01*
X52488D01*
Y290946D01*
X52365D01*
Y290987D01*
X52202D01*
Y291028D01*
X52079D01*
Y291068D01*
X51998D01*
Y291109D01*
X51834D01*
Y291150D01*
X51671D01*
Y291191D01*
X51508D01*
Y291232D01*
X51304D01*
Y291273D01*
X51263D01*
Y291314D01*
X50977D01*
Y291354D01*
X50528D01*
Y291395D01*
X50242D01*
Y291354D01*
X49711D01*
Y291314D01*
X49548D01*
Y291273D01*
X49425D01*
Y291232D01*
X49262D01*
Y291191D01*
X49139D01*
Y291150D01*
X49058D01*
Y291109D01*
X49017D01*
Y291068D01*
X48894D01*
Y291028D01*
X48813D01*
Y290987D01*
X48649D01*
Y290946D01*
X48608D01*
Y290905D01*
X48568D01*
Y290864D01*
X48486D01*
Y290823D01*
X48404D01*
Y290783D01*
X48323D01*
Y290823D01*
X48200D01*
Y290864D01*
Y290905D01*
X48159D01*
Y290946D01*
Y290987D01*
Y291028D01*
X48200D01*
Y291068D01*
X48241D01*
Y291109D01*
X48363D01*
Y291150D01*
X48445D01*
Y291191D01*
X48486D01*
Y291232D01*
X48608D01*
Y291273D01*
X48649D01*
Y291314D01*
X48731D01*
Y291354D01*
X48853D01*
Y291395D01*
X48935D01*
Y291436D01*
X49058D01*
Y291477D01*
X49139D01*
Y291518D01*
X49262D01*
Y291559D01*
X49343D01*
Y291599D01*
X49466D01*
Y291640D01*
X49548D01*
Y291681D01*
X49670D01*
Y291722D01*
X49793D01*
Y291763D01*
X49956D01*
Y291804D01*
X50038D01*
Y291844D01*
X50119D01*
Y291885D01*
X50323D01*
Y291926D01*
X50487D01*
Y291967D01*
X50650D01*
Y292008D01*
X50895D01*
Y292049D01*
X51181D01*
Y292089D01*
X51304D01*
Y292130D01*
X51875D01*
Y292171D01*
X52692D01*
Y292130D01*
D02*
G37*
G36*
X84951Y288786D02*
X85068Y288771D01*
X85199Y288742D01*
X85491Y288655D01*
X85637Y288596D01*
X85782Y288523D01*
X85914Y288436D01*
X86030Y288319D01*
X86132Y288188D01*
X86205Y288042D01*
X86264Y287867D01*
X86278Y287663D01*
Y287634D01*
X86264Y287561D01*
X86249Y287444D01*
X86205Y287284D01*
X86132Y287109D01*
X86016Y286905D01*
X85870Y286686D01*
X85666Y286468D01*
X85651Y286453D01*
X85593Y286395D01*
X85520Y286322D01*
X85403Y286220D01*
X85272Y286118D01*
X85112Y286016D01*
X84922Y285914D01*
X84704Y285826D01*
X84674Y285811D01*
X84601Y285797D01*
X84485Y285768D01*
X84339Y285739D01*
X84179Y285695D01*
X83989Y285666D01*
X83785Y285651D01*
X83581Y285637D01*
X83479D01*
X83406Y285651D01*
X83231Y285680D01*
X83056Y285724D01*
X83042Y285739D01*
X82998Y285768D01*
X82954Y285826D01*
X82939Y285914D01*
X82954Y285928D01*
X82983Y285972D01*
X83027Y286001D01*
X83100Y286016D01*
X83158D01*
X83231Y286001D01*
X83333Y285986D01*
X83362D01*
X83420Y285972D01*
X83493Y285957D01*
X83625D01*
X83683Y285972D01*
X83756D01*
X83858Y285986D01*
X83975Y286016D01*
X84222Y286103D01*
X84368Y286161D01*
X84514Y286234D01*
X84660Y286322D01*
X84806Y286438D01*
X84951Y286570D01*
X85083Y286716D01*
X85214Y286891D01*
X85330Y287095D01*
X85345Y287109D01*
X85360Y287153D01*
X85389Y287211D01*
X85418Y287299D01*
X85447Y287401D01*
X85462Y287517D01*
X85491Y287649D01*
Y287780D01*
Y287794D01*
Y287809D01*
X85476Y287896D01*
X85447Y287999D01*
X85389Y288130D01*
X85287Y288261D01*
X85214Y288319D01*
X85126Y288378D01*
X85024Y288421D01*
X84922Y288451D01*
X84777Y288465D01*
X84631Y288480D01*
X84543D01*
X84456Y288465D01*
X84354Y288451D01*
X84252Y288436D01*
X84149Y288407D01*
X84062Y288349D01*
X84004Y288290D01*
X83989Y288261D01*
X83931Y288174D01*
X83858Y288042D01*
X83741Y287853D01*
X83610Y287634D01*
X83464Y287386D01*
X83304Y287109D01*
X83129Y286818D01*
X82764Y286191D01*
X82400Y285535D01*
X82225Y285228D01*
X82065Y284937D01*
X81919Y284660D01*
X81788Y284412D01*
Y284397D01*
X81773Y284383D01*
X81729Y284281D01*
X81686Y284164D01*
X81671Y284047D01*
Y284033D01*
X81686Y284004D01*
X81700Y283960D01*
X81729Y283916D01*
X81802Y283858D01*
X81890Y283814D01*
X82006Y283785D01*
X82181Y283770D01*
X82385D01*
X82444Y283756D01*
X82487Y283712D01*
X82517Y283668D01*
Y283625D01*
Y283610D01*
X82502Y283566D01*
X82458Y283508D01*
X82371Y283479D01*
X82356D01*
X82298Y283464D01*
X82210Y283450D01*
X82079Y283435D01*
X81933Y283420D01*
X81773Y283406D01*
X81583Y283391D01*
X81277D01*
X81161Y283406D01*
X81044Y283435D01*
X80927Y283479D01*
X80811Y283552D01*
X80738Y283639D01*
X80723Y283697D01*
X80709Y283770D01*
Y283785D01*
X80723Y283843D01*
X80738Y283945D01*
X80782Y284076D01*
X80796Y284091D01*
X80811Y284149D01*
X80869Y284237D01*
X80913Y284310D01*
X80957Y284397D01*
X81000Y284485D01*
X81073Y284601D01*
X81146Y284733D01*
X81234Y284878D01*
X81336Y285053D01*
X81438Y285243D01*
X81569Y285447D01*
X81700Y285680D01*
Y285695D01*
X81729Y285724D01*
X81744Y285768D01*
X81788Y285826D01*
X81831Y285914D01*
X81890Y286016D01*
X81963Y286118D01*
X82035Y286249D01*
X82210Y286555D01*
X82415Y286905D01*
X82633Y287284D01*
X82881Y287721D01*
X82896Y287751D01*
X82925Y287809D01*
X82969Y287896D01*
X83027Y288013D01*
X83071Y288130D01*
X83114Y288232D01*
X83144Y288334D01*
X83216D01*
X83187Y288349D01*
X83173Y288363D01*
X83158Y288378D01*
Y288392D01*
X83144Y288334D01*
X83042D01*
X82939Y288319D01*
X82823Y288305D01*
X82677Y288290D01*
X82502Y288276D01*
X82429D01*
X82342Y288261D01*
X82240D01*
X82006Y288246D01*
X81890Y288232D01*
X81729D01*
X81686Y288246D01*
X81627Y288261D01*
X81554Y288290D01*
X81511Y288334D01*
X81467Y288392D01*
X81452Y288480D01*
Y288494D01*
X81467Y288538D01*
X81481Y288596D01*
X81525Y288684D01*
X81540Y288698D01*
X81569Y288742D01*
X81627Y288786D01*
X81715Y288800D01*
X81729Y288786D01*
X81758Y288771D01*
X81802Y288727D01*
X81831Y288684D01*
X81846D01*
X81861Y288669D01*
X81904D01*
X81977Y288655D01*
X82079D01*
X82210Y288640D01*
X82721D01*
X82881Y288655D01*
X83056D01*
X83435Y288669D01*
X83450D01*
X83493Y288684D01*
X83552D01*
X83625Y288698D01*
X83741Y288713D01*
X83902Y288727D01*
X84091Y288742D01*
X84106D01*
X84164Y288757D01*
X84237D01*
X84325Y288771D01*
X84529Y288786D01*
X84616Y288800D01*
X84849D01*
X84951Y288786D01*
D02*
G37*
G36*
X50446Y290293D02*
X50487D01*
Y290252D01*
X50528D01*
Y290211D01*
Y290170D01*
X50569D01*
Y290129D01*
Y290088D01*
Y290048D01*
X50609D01*
Y290007D01*
Y289966D01*
Y289925D01*
X50650D01*
Y289884D01*
X50609D01*
Y289843D01*
Y289803D01*
Y289762D01*
Y289721D01*
Y289680D01*
X50569D01*
Y289639D01*
Y289598D01*
Y289558D01*
Y289517D01*
Y289476D01*
X50528D01*
Y289435D01*
X50487D01*
Y289394D01*
Y289353D01*
X50446D01*
Y289313D01*
Y289272D01*
X50405D01*
Y289231D01*
Y289190D01*
X50364D01*
Y289149D01*
X50323D01*
Y289108D01*
Y289068D01*
X50283D01*
Y289027D01*
X50242D01*
Y288986D01*
X50160D01*
Y288945D01*
X50119D01*
Y288904D01*
X50078D01*
Y288863D01*
X50038D01*
Y288823D01*
X49956D01*
Y288782D01*
X49915D01*
Y288741D01*
X49834D01*
Y288700D01*
X49752D01*
Y288659D01*
X49670D01*
Y288618D01*
X49425D01*
Y288577D01*
X49017D01*
Y288618D01*
X48813D01*
Y288659D01*
X48731D01*
Y288700D01*
X48649D01*
Y288741D01*
X48568D01*
Y288782D01*
X48527D01*
Y288823D01*
X48445D01*
Y288863D01*
X48363D01*
Y288904D01*
Y288945D01*
X48282D01*
Y288986D01*
X48241D01*
Y289027D01*
X48200D01*
Y289068D01*
X48159D01*
Y289108D01*
Y289149D01*
X48078D01*
Y289190D01*
Y289231D01*
X48037D01*
Y289272D01*
X47996D01*
Y289313D01*
Y289353D01*
X47955D01*
Y289394D01*
Y289435D01*
X47996D01*
Y289476D01*
X48037D01*
Y289517D01*
X48078D01*
Y289558D01*
X48118D01*
Y289598D01*
X48159D01*
Y289639D01*
X48241D01*
Y289680D01*
X48282D01*
Y289721D01*
X48323D01*
Y289762D01*
X48404D01*
Y289803D01*
X48486D01*
Y289843D01*
X48527D01*
Y289884D01*
X48608D01*
Y289925D01*
X48690D01*
Y289966D01*
X48772D01*
Y290007D01*
X48894D01*
Y290048D01*
X48976D01*
Y290088D01*
X49099D01*
Y290129D01*
X49262D01*
Y290170D01*
X49384D01*
Y290211D01*
X49589D01*
Y290252D01*
X49670D01*
Y290293D01*
X50242D01*
Y290333D01*
X50446D01*
Y290293D01*
D02*
G37*
G36*
X50160Y288414D02*
X50323D01*
Y288373D01*
X50405D01*
Y288414D01*
X50446D01*
Y288373D01*
X50691D01*
Y288332D01*
X50895D01*
Y288292D01*
X51140D01*
Y288251D01*
X51304D01*
Y288210D01*
X51508D01*
Y288169D01*
X51712D01*
Y288128D01*
X51834D01*
Y288087D01*
X51875D01*
Y288128D01*
X51916D01*
Y288087D01*
X52039D01*
Y288047D01*
X52202D01*
Y288006D01*
X52365D01*
Y287965D01*
X52447D01*
Y287924D01*
X52610D01*
Y287883D01*
X52733D01*
Y287842D01*
X52855D01*
Y287802D01*
X53019D01*
Y287761D01*
X53100D01*
Y287720D01*
X53223D01*
Y287679D01*
X53386D01*
Y287638D01*
X53468D01*
Y287597D01*
X53550D01*
Y287557D01*
X53631D01*
Y287516D01*
X53754D01*
Y287475D01*
X53876D01*
Y287434D01*
X53917D01*
Y287393D01*
X54080D01*
Y287352D01*
X54162D01*
Y287312D01*
X54244D01*
Y287271D01*
X54325D01*
Y287230D01*
X54407D01*
Y287189D01*
X54530D01*
Y287148D01*
X54611D01*
Y287107D01*
X54693D01*
Y287067D01*
X54734D01*
Y287026D01*
X54816D01*
Y286985D01*
X54897D01*
Y286944D01*
X54979D01*
Y286903D01*
X55060D01*
Y286862D01*
X55142D01*
Y286822D01*
X55183D01*
Y286781D01*
X55265D01*
Y286740D01*
X55346D01*
Y286699D01*
X55387D01*
Y286658D01*
X55469D01*
Y286617D01*
X55510D01*
Y286577D01*
X55591D01*
Y286536D01*
X55673D01*
Y286495D01*
X55755D01*
Y286454D01*
X55796D01*
Y286413D01*
X55836D01*
Y286372D01*
X55877D01*
Y286332D01*
X55959D01*
Y286291D01*
X56000D01*
Y286250D01*
X56081D01*
Y286209D01*
X56163D01*
Y286168D01*
X56204D01*
Y286127D01*
X56245D01*
Y286086D01*
X56326D01*
Y286046D01*
X56367D01*
Y286005D01*
X56408D01*
Y285964D01*
X56449D01*
Y285923D01*
X56490D01*
Y285882D01*
X56572D01*
Y285841D01*
X56612D01*
Y285801D01*
X56694D01*
Y285760D01*
X56735D01*
Y285719D01*
X56776D01*
Y285678D01*
X56817D01*
Y285637D01*
X56857D01*
Y285596D01*
X56898D01*
Y285556D01*
X56980D01*
Y285515D01*
Y285474D01*
X57021D01*
Y285433D01*
X57102D01*
Y285392D01*
X57143D01*
Y285351D01*
Y285311D01*
X57225D01*
Y285270D01*
X57266D01*
Y285229D01*
X57306D01*
Y285188D01*
X57347D01*
Y285147D01*
X57388D01*
Y285106D01*
X57429D01*
Y285066D01*
X57470D01*
Y285025D01*
X57511D01*
Y284984D01*
X57551D01*
Y284943D01*
X57592D01*
Y284902D01*
Y284861D01*
X57633D01*
Y284821D01*
X57715D01*
Y284780D01*
X57756D01*
Y284739D01*
Y284698D01*
X57797D01*
Y284657D01*
X57837D01*
Y284616D01*
X57878D01*
Y284576D01*
X57919D01*
Y284535D01*
X57960D01*
Y284494D01*
X58001D01*
Y284453D01*
Y284412D01*
X58042D01*
Y284371D01*
X58082D01*
Y284331D01*
X58123D01*
Y284290D01*
X58164D01*
Y284249D01*
Y284208D01*
X58205D01*
Y284167D01*
X58246D01*
Y284126D01*
Y284085D01*
X58327D01*
Y284045D01*
Y284004D01*
X58368D01*
Y283963D01*
X58409D01*
Y283922D01*
X58450D01*
Y283881D01*
Y283840D01*
X58491D01*
Y283800D01*
Y283759D01*
X58532D01*
Y283718D01*
X58572D01*
Y283677D01*
X58613D01*
Y283636D01*
Y283595D01*
X58654D01*
Y283555D01*
X58695D01*
Y283514D01*
Y283473D01*
X58736D01*
Y283432D01*
X58777D01*
Y283391D01*
Y283350D01*
X58817D01*
Y283310D01*
X58858D01*
Y283269D01*
Y283228D01*
X58899D01*
Y283187D01*
X58940D01*
Y283146D01*
Y283105D01*
X58981D01*
Y283065D01*
X59022D01*
Y283024D01*
Y282983D01*
X59062D01*
Y282942D01*
X59103D01*
Y282901D01*
Y282860D01*
X59144D01*
Y282820D01*
Y282779D01*
X59185D01*
Y282738D01*
X59226D01*
Y282697D01*
Y282656D01*
X59267D01*
Y282615D01*
Y282575D01*
X59307D01*
Y282534D01*
X59348D01*
Y282493D01*
Y282452D01*
X59389D01*
Y282411D01*
Y282370D01*
X59430D01*
Y282330D01*
X59471D01*
Y282289D01*
Y282248D01*
Y282207D01*
X59512D01*
Y282166D01*
X59553D01*
Y282125D01*
Y282084D01*
X59593D01*
Y282044D01*
Y282003D01*
X59634D01*
Y281962D01*
Y281921D01*
X59675D01*
Y281880D01*
X59716D01*
Y281839D01*
Y281799D01*
Y281758D01*
X59757D01*
Y281717D01*
Y281676D01*
X59634D01*
Y281717D01*
X59593D01*
Y281758D01*
X59553D01*
Y281799D01*
X59512D01*
Y281839D01*
Y281880D01*
X59471D01*
Y281921D01*
X59430D01*
Y281962D01*
Y282003D01*
X59389D01*
Y282044D01*
X59348D01*
Y282084D01*
Y282125D01*
X59267D01*
Y282166D01*
Y282207D01*
X59226D01*
Y282248D01*
X59185D01*
Y282289D01*
X59144D01*
Y282330D01*
Y282370D01*
X59103D01*
Y282411D01*
X59022D01*
Y282452D01*
X58981D01*
Y282493D01*
Y282534D01*
X58940D01*
Y282575D01*
X58899D01*
Y282615D01*
X58858D01*
Y282656D01*
X58817D01*
Y282697D01*
X58777D01*
Y282738D01*
Y282779D01*
X58736D01*
Y282820D01*
X58695D01*
Y282860D01*
X58654D01*
Y282901D01*
X58613D01*
Y282942D01*
X58572D01*
Y282983D01*
X58532D01*
Y283024D01*
Y283065D01*
X58491D01*
Y283105D01*
X58450D01*
Y283146D01*
X58409D01*
Y283187D01*
X58368D01*
Y283228D01*
X58327D01*
Y283269D01*
X58246D01*
Y283310D01*
Y283350D01*
X58205D01*
Y283391D01*
X58164D01*
Y283432D01*
X58123D01*
Y283473D01*
X58082D01*
Y283514D01*
X58042D01*
Y283555D01*
X58001D01*
Y283595D01*
X57960D01*
Y283636D01*
X57919D01*
Y283677D01*
X57878D01*
Y283718D01*
X57797D01*
Y283759D01*
X57756D01*
Y283800D01*
Y283840D01*
X57674D01*
Y283881D01*
X57633D01*
Y283922D01*
X57592D01*
Y283963D01*
X57551D01*
Y284004D01*
X57511D01*
Y284045D01*
X57470D01*
Y284085D01*
X57388D01*
Y284126D01*
X57347D01*
Y284167D01*
X57306D01*
Y284208D01*
X57225D01*
Y284249D01*
X57184D01*
Y284290D01*
X57143D01*
Y284331D01*
X57061D01*
Y284371D01*
X57021D01*
Y284412D01*
X56980D01*
Y284453D01*
X56939D01*
Y284494D01*
X56898D01*
Y284535D01*
X56817D01*
Y284576D01*
X56776D01*
Y284616D01*
X56694D01*
Y284657D01*
X56653D01*
Y284698D01*
X56531D01*
Y284739D01*
X56490D01*
Y284780D01*
X56449D01*
Y284821D01*
X56367D01*
Y284861D01*
X56326D01*
Y284902D01*
X56245D01*
Y284943D01*
X56163D01*
Y284984D01*
X56081D01*
Y285025D01*
X56041D01*
Y285066D01*
X55918D01*
Y285106D01*
X55877D01*
Y285147D01*
X55796D01*
Y285188D01*
X55714D01*
Y285229D01*
X55632D01*
Y285270D01*
X55551D01*
Y285311D01*
X55428D01*
Y285351D01*
X55346D01*
Y285392D01*
X55265D01*
Y285433D01*
X55183D01*
Y285474D01*
X55060D01*
Y285515D01*
X55020D01*
Y285556D01*
X54816D01*
Y285596D01*
X54775D01*
Y285637D01*
X54611D01*
Y285678D01*
X54448D01*
Y285719D01*
X54325D01*
Y285760D01*
X54162D01*
Y285801D01*
X53958D01*
Y285841D01*
X53795D01*
Y285882D01*
X53509D01*
Y285923D01*
X53264D01*
Y285964D01*
X52733D01*
Y286005D01*
X52529D01*
Y285964D01*
X52488D01*
Y286005D01*
X51834D01*
Y286046D01*
X51794D01*
Y286086D01*
X51753D01*
Y286127D01*
X51712D01*
Y286168D01*
X51671D01*
Y286209D01*
X51630D01*
Y286250D01*
X51590D01*
Y286291D01*
Y286332D01*
X51549D01*
Y286372D01*
X51508D01*
Y286413D01*
X51467D01*
Y286454D01*
X51426D01*
Y286495D01*
X51385D01*
Y286536D01*
X51344D01*
Y286577D01*
X51304D01*
Y286617D01*
X51263D01*
Y286658D01*
Y286699D01*
X51222D01*
Y286740D01*
X51181D01*
Y286781D01*
X51140D01*
Y286822D01*
X51099D01*
Y286862D01*
X51059D01*
Y286903D01*
X50977D01*
Y286944D01*
X50936D01*
Y286985D01*
X50895D01*
Y287026D01*
X50854D01*
Y287067D01*
X50814D01*
Y287107D01*
X50773D01*
Y287148D01*
X50732D01*
Y287189D01*
X50650D01*
Y287230D01*
X50609D01*
Y287271D01*
X50528D01*
Y287312D01*
X50487D01*
Y287352D01*
X50405D01*
Y287393D01*
X50323D01*
Y287434D01*
X50242D01*
Y287475D01*
X50201D01*
Y287516D01*
X50078D01*
Y287557D01*
X49997D01*
Y287597D01*
X49915D01*
Y287638D01*
X49834D01*
Y287679D01*
X49711D01*
Y287720D01*
X49589D01*
Y287761D01*
X49507D01*
Y287802D01*
X49343D01*
Y287842D01*
X49221D01*
Y287883D01*
X49139D01*
Y287924D01*
X49017D01*
Y287965D01*
X48853D01*
Y288006D01*
X48772D01*
Y288047D01*
X48608D01*
Y288087D01*
X48486D01*
Y288128D01*
X48363D01*
Y288169D01*
X48241D01*
Y288210D01*
X48200D01*
Y288251D01*
X48118D01*
Y288292D01*
X48078D01*
Y288332D01*
Y288373D01*
Y288414D01*
X48363D01*
Y288373D01*
X48608D01*
Y288332D01*
X48853D01*
Y288292D01*
X49589D01*
Y288332D01*
X49752D01*
Y288373D01*
X50038D01*
Y288414D01*
X50119D01*
Y288455D01*
X50160D01*
Y288414D01*
D02*
G37*
G36*
X111502Y288786D02*
X111604Y288771D01*
X111837Y288742D01*
X112099Y288684D01*
X112362Y288611D01*
X112595Y288494D01*
X112712Y288421D01*
X112799Y288349D01*
X112814Y288334D01*
X112858Y288276D01*
X112887Y288188D01*
X112901Y288101D01*
Y288086D01*
X112872Y288028D01*
X112858Y287984D01*
X112828Y287926D01*
X112799Y287853D01*
X112770Y287765D01*
Y287751D01*
X112756Y287736D01*
X112741Y287678D01*
X112712Y287605D01*
Y287590D01*
X112697Y287576D01*
X112653Y287488D01*
X112595Y287372D01*
X112508Y287240D01*
X112493Y287226D01*
X112464Y287211D01*
X112420Y287182D01*
X112362Y287168D01*
X112333D01*
X112289Y287182D01*
X112245Y287240D01*
X112216Y287269D01*
Y287328D01*
Y287357D01*
Y287386D01*
X112231Y287430D01*
X112245Y287444D01*
X112260Y287474D01*
X112274Y287532D01*
X112289Y287590D01*
Y287605D01*
Y287663D01*
X112260Y287721D01*
X112231Y287824D01*
X112187Y287911D01*
X112099Y288028D01*
X111997Y288130D01*
X111852Y288217D01*
X111837Y288232D01*
X111764Y288261D01*
X111677Y288290D01*
X111560Y288334D01*
X111414Y288378D01*
X111254Y288421D01*
X111079Y288436D01*
X110904Y288451D01*
X110831D01*
X110743Y288436D01*
X110627Y288421D01*
X110466Y288378D01*
X110306Y288334D01*
X110117Y288261D01*
X109898Y288159D01*
X109679Y288042D01*
X109431Y287882D01*
X109198Y287707D01*
X108935Y287474D01*
X108688Y287211D01*
X108440Y286905D01*
X108192Y286555D01*
X107944Y286147D01*
Y286132D01*
X107915Y286103D01*
X107900Y286045D01*
X107857Y285986D01*
X107813Y285899D01*
X107769Y285797D01*
X107667Y285578D01*
X107565Y285316D01*
X107477Y285039D01*
X107419Y284762D01*
X107390Y284514D01*
Y284499D01*
Y284485D01*
X107405Y284441D01*
Y284383D01*
X107448Y284251D01*
X107521Y284091D01*
X107580Y284018D01*
X107652Y283945D01*
X107740Y283872D01*
X107842Y283814D01*
X107959Y283756D01*
X108105Y283712D01*
X108265Y283697D01*
X108454Y283683D01*
X108527D01*
X108586Y283697D01*
X108746Y283712D01*
X108935Y283756D01*
X109169Y283800D01*
X109402Y283887D01*
X109650Y283989D01*
X109898Y284120D01*
X109912Y284135D01*
X109956Y284149D01*
X110014Y284193D01*
X110102Y284251D01*
X110189Y284324D01*
X110306Y284412D01*
X110554Y284616D01*
X110816Y284864D01*
X111064Y285141D01*
X111181Y285301D01*
X111283Y285447D01*
X111370Y285607D01*
X111443Y285768D01*
Y285782D01*
X111458Y285797D01*
X111468Y285836D01*
X111458Y285826D01*
X111356D01*
X111239Y285811D01*
X111064Y285797D01*
X110918D01*
X110787Y285782D01*
X110641D01*
X110568Y285811D01*
X110481Y285855D01*
X110466Y285899D01*
X110452Y285957D01*
Y285972D01*
Y285986D01*
X110481Y286045D01*
X110510Y286074D01*
X110539Y286103D01*
X110598Y286132D01*
X111035D01*
X111137Y286147D01*
X111254D01*
X111385Y286161D01*
X111531Y286176D01*
X111560D01*
X111633Y286191D01*
X111735Y286205D01*
X111866Y286220D01*
X112158Y286263D01*
X112303Y286278D01*
X112420Y286307D01*
X112493D01*
X112566Y286293D01*
X112624Y286249D01*
X112639Y286205D01*
X112653Y286161D01*
Y286132D01*
X112624Y286074D01*
X112581Y286016D01*
X112522Y285986D01*
X112464Y285972D01*
X112435Y285957D01*
X112362Y285914D01*
X112274Y285826D01*
X112231Y285753D01*
X112187Y285680D01*
Y285666D01*
X112172Y285637D01*
X112143Y285593D01*
X112129Y285535D01*
X112041Y285374D01*
X111954Y285170D01*
X111837Y284908D01*
X111720Y284631D01*
X111574Y284339D01*
X111443Y284033D01*
Y284018D01*
X111414Y283989D01*
X111400Y283931D01*
X111356Y283858D01*
X111312Y283770D01*
X111254Y283683D01*
X111123Y283450D01*
X110977Y283173D01*
X110802Y282895D01*
X110612Y282633D01*
X110408Y282371D01*
X110394Y282356D01*
X110364Y282312D01*
X110292Y282254D01*
X110204Y282167D01*
X110102Y282065D01*
X109985Y281962D01*
X109839Y281831D01*
X109679Y281715D01*
X109490Y281598D01*
X109300Y281481D01*
X109096Y281365D01*
X108877Y281263D01*
X108659Y281175D01*
X108425Y281117D01*
X108177Y281073D01*
X107930Y281059D01*
X107798D01*
X107711Y281073D01*
X107507Y281102D01*
X107288Y281160D01*
X107273Y281175D01*
X107230Y281204D01*
X107171Y281263D01*
X107157Y281335D01*
Y281350D01*
X107171Y281408D01*
X107230Y281452D01*
X107259Y281467D01*
X107346D01*
X107419Y281452D01*
X107434D01*
X107448Y281437D01*
X107492Y281423D01*
X107550Y281408D01*
X107623Y281394D01*
X107711Y281379D01*
X107930Y281365D01*
X108002D01*
X108061Y281379D01*
X108206Y281394D01*
X108396Y281437D01*
X108615Y281510D01*
X108848Y281612D01*
X109110Y281758D01*
X109373Y281962D01*
X109402Y281992D01*
X109475Y282050D01*
X109577Y282167D01*
X109723Y282312D01*
X109883Y282487D01*
X110044Y282721D01*
X110219Y282968D01*
X110379Y283245D01*
X110394Y283275D01*
X110437Y283348D01*
X110496Y283479D01*
X110568Y283639D01*
X110671Y283843D01*
X110773Y284076D01*
X110875Y284339D01*
X110906Y284429D01*
X110860Y284383D01*
X110743Y284295D01*
X110612Y284193D01*
X110466Y284091D01*
X110292Y283975D01*
X110102Y283872D01*
X109912Y283756D01*
X109460Y283566D01*
X109227Y283479D01*
X108979Y283420D01*
X108731Y283377D01*
X108469Y283362D01*
X108352D01*
X108206Y283377D01*
X108046Y283391D01*
X107842Y283420D01*
X107652Y283479D01*
X107448Y283537D01*
X107259Y283625D01*
X107230Y283639D01*
X107171Y283697D01*
X107069Y283785D01*
X106967Y283916D01*
X106851Y284076D01*
X106748Y284266D01*
X106690Y284499D01*
X106661Y284762D01*
Y284776D01*
Y284835D01*
X106676Y284908D01*
X106690Y285024D01*
X106705Y285155D01*
X106734Y285301D01*
X106778Y285462D01*
X106836Y285637D01*
Y285651D01*
X106851Y285695D01*
X106880Y285753D01*
X106923Y285841D01*
X106967Y285957D01*
X107026Y286074D01*
X107098Y286220D01*
X107186Y286380D01*
X107390Y286701D01*
X107638Y287065D01*
X107930Y287430D01*
X108279Y287765D01*
X108294Y287780D01*
X108338Y287809D01*
X108396Y287867D01*
X108484Y287926D01*
X108600Y287999D01*
X108746Y288086D01*
X108906Y288188D01*
X109081Y288290D01*
X109285Y288378D01*
X109519Y288480D01*
X109752Y288567D01*
X110014Y288640D01*
X110292Y288698D01*
X110583Y288757D01*
X110904Y288786D01*
X111225Y288800D01*
X111414D01*
X111502Y288786D01*
D02*
G37*
G36*
X93058Y287911D02*
X93102Y287882D01*
X93145Y287824D01*
X93175Y287765D01*
X93189Y287678D01*
Y287663D01*
Y287649D01*
X93175Y287576D01*
X93116Y287459D01*
X93087Y287401D01*
X93029Y287328D01*
X93000Y287299D01*
X92927Y287240D01*
X92810Y287182D01*
X92752Y287168D01*
X92679Y287153D01*
X92635D01*
X92562Y287182D01*
X92504Y287211D01*
X92475Y287255D01*
X92446Y287313D01*
X92431Y287401D01*
Y287415D01*
Y287430D01*
X92446Y287517D01*
X92489Y287634D01*
X92562Y287765D01*
Y287780D01*
X92591Y287794D01*
X92664Y287853D01*
X92781Y287911D01*
X92854Y287940D01*
X92970D01*
X93058Y287911D01*
D02*
G37*
G36*
X57470Y287067D02*
X57674D01*
Y287026D01*
X57960D01*
Y286985D01*
X58082D01*
Y286944D01*
X58246D01*
Y286903D01*
X58450D01*
Y286862D01*
X58532D01*
Y286822D01*
X58654D01*
Y286781D01*
X58817D01*
Y286740D01*
X58899D01*
Y286699D01*
X58981D01*
Y286658D01*
X59062D01*
Y286617D01*
X59144D01*
Y286577D01*
X59226D01*
Y286536D01*
X59348D01*
Y286495D01*
X59389D01*
Y286454D01*
X59471D01*
Y286413D01*
X59553D01*
Y286372D01*
X59634D01*
Y286332D01*
X59716D01*
Y286291D01*
X59757D01*
Y286250D01*
X59798D01*
Y286209D01*
X59879D01*
Y286168D01*
X59920D01*
Y286127D01*
X60002D01*
Y286086D01*
X60043D01*
Y286046D01*
X60083D01*
Y286005D01*
X60165D01*
Y285964D01*
X60206D01*
Y285923D01*
X60247D01*
Y285882D01*
X60328D01*
Y285841D01*
X60369D01*
Y285801D01*
X60410D01*
Y285760D01*
X60492D01*
Y285719D01*
Y285678D01*
X60573D01*
Y285637D01*
X60614D01*
Y285596D01*
Y285556D01*
X60696D01*
Y285515D01*
X60737D01*
Y285474D01*
X60778D01*
Y285433D01*
X60818D01*
Y285392D01*
X60859D01*
Y285351D01*
Y285311D01*
X60941D01*
Y285270D01*
X60982D01*
Y285229D01*
Y285188D01*
X61023D01*
Y285147D01*
X61063D01*
Y285106D01*
X61104D01*
Y285066D01*
X61145D01*
Y285025D01*
X61186D01*
Y284984D01*
X61227D01*
Y284943D01*
X61268D01*
Y284902D01*
X61308D01*
Y284861D01*
Y284821D01*
X61390D01*
Y284780D01*
Y284739D01*
X61431D01*
Y284698D01*
X61472D01*
Y284657D01*
Y284616D01*
X61513D01*
Y284576D01*
X61554D01*
Y284535D01*
X61594D01*
Y284494D01*
X61635D01*
Y284453D01*
X61676D01*
Y284412D01*
Y284371D01*
X61717D01*
Y284331D01*
Y284290D01*
X61758D01*
Y284249D01*
X61799D01*
Y284208D01*
X61839D01*
Y284167D01*
Y284126D01*
X61880D01*
Y284085D01*
X61921D01*
Y284045D01*
X61962D01*
Y284004D01*
Y283963D01*
X62003D01*
Y283922D01*
X62043D01*
Y283881D01*
Y283840D01*
X62084D01*
Y283800D01*
X62125D01*
Y283759D01*
Y283718D01*
X62166D01*
Y283677D01*
X62207D01*
Y283636D01*
Y283595D01*
X62248D01*
Y283555D01*
Y283514D01*
X62288D01*
Y283473D01*
X62329D01*
Y283432D01*
Y283391D01*
X62370D01*
Y283350D01*
Y283310D01*
X62411D01*
Y283269D01*
X62452D01*
Y283228D01*
Y283187D01*
X62493D01*
Y283146D01*
Y283105D01*
X62533D01*
Y283065D01*
X62574D01*
Y283024D01*
Y282983D01*
Y282942D01*
X62615D01*
Y282901D01*
Y282860D01*
X62697D01*
Y282820D01*
Y282779D01*
Y282738D01*
X62738D01*
Y282697D01*
Y282656D01*
X62779D01*
Y282615D01*
Y282575D01*
X62819D01*
Y282534D01*
Y282493D01*
Y282452D01*
X62860D01*
Y282411D01*
Y282370D01*
X62901D01*
Y282330D01*
X62942D01*
Y282289D01*
Y282248D01*
Y282207D01*
X62983D01*
Y282166D01*
Y282125D01*
X63024D01*
Y282084D01*
Y282044D01*
X63064D01*
Y282003D01*
Y281962D01*
Y281921D01*
X63105D01*
Y281880D01*
X63146D01*
Y281839D01*
Y281799D01*
Y281758D01*
X63187D01*
Y281717D01*
Y281676D01*
Y281635D01*
X63228D01*
Y281594D01*
X63269D01*
Y281554D01*
Y281513D01*
Y281472D01*
X63309D01*
Y281431D01*
Y281390D01*
Y281349D01*
X63350D01*
Y281309D01*
Y281268D01*
X63391D01*
Y281227D01*
Y281186D01*
Y281145D01*
X63432D01*
Y281104D01*
Y281064D01*
Y281023D01*
X63473D01*
Y280982D01*
Y280941D01*
Y280900D01*
Y280859D01*
X63514D01*
Y280819D01*
Y280778D01*
Y280737D01*
X63554D01*
Y280696D01*
Y280655D01*
X63595D01*
Y280614D01*
Y280574D01*
Y280533D01*
Y280492D01*
X63636D01*
Y280451D01*
Y280410D01*
Y280369D01*
X63677D01*
Y280329D01*
Y280288D01*
Y280247D01*
Y280206D01*
X63718D01*
Y280165D01*
Y280124D01*
Y280083D01*
Y280043D01*
Y280002D01*
X63759D01*
Y279961D01*
Y279920D01*
Y279879D01*
Y279838D01*
Y279798D01*
X63800D01*
Y279757D01*
Y279716D01*
Y279675D01*
X63759D01*
Y279634D01*
Y279593D01*
X63677D01*
Y279634D01*
X63636D01*
Y279675D01*
Y279716D01*
Y279757D01*
X63595D01*
Y279798D01*
Y279838D01*
X63554D01*
Y279879D01*
Y279920D01*
Y279961D01*
Y280002D01*
X63514D01*
Y280043D01*
Y280083D01*
X63473D01*
Y280124D01*
Y280165D01*
X63432D01*
Y280206D01*
Y280247D01*
Y280288D01*
X63391D01*
Y280329D01*
Y280369D01*
X63350D01*
Y280410D01*
Y280451D01*
X63309D01*
Y280492D01*
Y280533D01*
Y280574D01*
X63269D01*
Y280614D01*
Y280655D01*
X63228D01*
Y280696D01*
Y280737D01*
X63187D01*
Y280778D01*
Y280819D01*
Y280859D01*
X63146D01*
Y280900D01*
Y280941D01*
X63105D01*
Y280982D01*
X63064D01*
Y281023D01*
Y281064D01*
Y281104D01*
X63024D01*
Y281145D01*
Y281186D01*
X62983D01*
Y281227D01*
X62942D01*
Y281268D01*
Y281309D01*
X62901D01*
Y281349D01*
Y281390D01*
X62860D01*
Y281431D01*
Y281472D01*
X62819D01*
Y281513D01*
X62779D01*
Y281554D01*
Y281594D01*
X62738D01*
Y281635D01*
Y281676D01*
X62697D01*
Y281717D01*
Y281758D01*
X62615D01*
Y281799D01*
Y281839D01*
Y281880D01*
X62574D01*
Y281921D01*
X62533D01*
Y281962D01*
X62493D01*
Y282003D01*
Y282044D01*
X62452D01*
Y282084D01*
X62411D01*
Y282125D01*
X62370D01*
Y282166D01*
Y282207D01*
X62329D01*
Y282248D01*
Y282289D01*
X62288D01*
Y282330D01*
X62248D01*
Y282370D01*
X62207D01*
Y282411D01*
X62166D01*
Y282452D01*
X62125D01*
Y282493D01*
X62084D01*
Y282534D01*
Y282575D01*
X62043D01*
Y282615D01*
X62003D01*
Y282656D01*
X61962D01*
Y282697D01*
X61921D01*
Y282738D01*
X61880D01*
Y282779D01*
X61839D01*
Y282820D01*
X61799D01*
Y282860D01*
X61758D01*
Y282901D01*
X61717D01*
Y282942D01*
X61676D01*
Y282983D01*
X61635D01*
Y283024D01*
X61594D01*
Y283065D01*
X61554D01*
Y283105D01*
X61513D01*
Y283146D01*
X61472D01*
Y283187D01*
X61431D01*
Y283228D01*
X61390D01*
Y283269D01*
X61349D01*
Y283310D01*
X61308D01*
Y283350D01*
X61227D01*
Y283391D01*
X61186D01*
Y283432D01*
X61104D01*
Y283473D01*
X61063D01*
Y283514D01*
X60982D01*
Y283555D01*
X60941D01*
Y283595D01*
X60859D01*
Y283636D01*
X60818D01*
Y283677D01*
X60737D01*
Y283718D01*
X60655D01*
Y283759D01*
X60614D01*
Y283800D01*
X60533D01*
Y283840D01*
X60410D01*
Y283881D01*
X60328D01*
Y283922D01*
X60247D01*
Y283963D01*
X60124D01*
Y284004D01*
X60043D01*
Y284045D01*
X59920D01*
Y284085D01*
X59716D01*
Y284126D01*
X59593D01*
Y284167D01*
X59348D01*
Y284208D01*
X59267D01*
Y284249D01*
Y284290D01*
Y284331D01*
X59226D01*
Y284371D01*
X59185D01*
Y284412D01*
Y284453D01*
X59144D01*
Y284494D01*
Y284535D01*
X59103D01*
Y284576D01*
Y284616D01*
Y284657D01*
X59062D01*
Y284698D01*
X59022D01*
Y284739D01*
Y284780D01*
X58981D01*
Y284821D01*
Y284861D01*
X58940D01*
Y284902D01*
Y284943D01*
X58899D01*
Y284984D01*
Y285025D01*
X58858D01*
Y285066D01*
X58817D01*
Y285106D01*
Y285147D01*
X58777D01*
Y285188D01*
X58736D01*
Y285229D01*
Y285270D01*
X58695D01*
Y285311D01*
Y285351D01*
X58654D01*
Y285392D01*
X58613D01*
Y285433D01*
Y285474D01*
X58572D01*
Y285515D01*
X58532D01*
Y285556D01*
X58491D01*
Y285596D01*
Y285637D01*
X58450D01*
Y285678D01*
X58409D01*
Y285719D01*
Y285760D01*
X58368D01*
Y285801D01*
X58327D01*
Y285841D01*
X58287D01*
Y285882D01*
X58246D01*
Y285923D01*
Y285964D01*
X58205D01*
Y286005D01*
X58164D01*
Y286046D01*
X58123D01*
Y286086D01*
X58082D01*
Y286127D01*
X58042D01*
Y286168D01*
X58001D01*
Y286209D01*
Y286250D01*
X57960D01*
Y286291D01*
X57919D01*
Y286332D01*
X57878D01*
Y286372D01*
X57837D01*
Y286413D01*
X57756D01*
Y286454D01*
X57715D01*
Y286495D01*
X57674D01*
Y286536D01*
X57633D01*
Y286577D01*
X57592D01*
Y286617D01*
Y286658D01*
X57511D01*
Y286699D01*
X57470D01*
Y286740D01*
Y286781D01*
X57388D01*
Y286822D01*
X57347D01*
Y286862D01*
X57306D01*
Y286903D01*
Y286944D01*
X57225D01*
Y286985D01*
X57184D01*
Y287026D01*
X57225D01*
Y287067D01*
Y287107D01*
X57388D01*
Y287067D01*
X57429D01*
Y287107D01*
X57470D01*
Y287067D01*
D02*
G37*
G36*
X87940Y286220D02*
X88013Y286205D01*
X88086Y286176D01*
X88144Y286118D01*
X88188Y286059D01*
X88203Y285972D01*
Y285957D01*
X88188Y285914D01*
X88144Y285841D01*
X88072Y285724D01*
X88057Y285695D01*
X88013Y285622D01*
X87955Y285549D01*
X87926Y285476D01*
Y285462D01*
X87897Y285447D01*
X87853Y285433D01*
X87780Y285418D01*
X87765D01*
X87751Y285433D01*
X87707Y285447D01*
X87663Y285491D01*
X87649Y285520D01*
X87590Y285564D01*
X87503Y285607D01*
X87372Y285637D01*
X87357D01*
X87299Y285622D01*
X87197Y285593D01*
X87080Y285520D01*
X86920Y285418D01*
X86832Y285345D01*
X86745Y285258D01*
X86643Y285155D01*
X86541Y285039D01*
X86439Y284908D01*
X86322Y284747D01*
X86307Y284733D01*
X86278Y284674D01*
X86220Y284587D01*
X86132Y284456D01*
X86016Y284295D01*
X85885Y284091D01*
X85710Y283843D01*
X85520Y283552D01*
Y283537D01*
X85491Y283508D01*
X85433Y283479D01*
X85345Y283464D01*
X85316D01*
X85243Y283493D01*
X85199Y283537D01*
X85156Y283581D01*
X85141Y283654D01*
X85126Y283741D01*
Y283756D01*
X85141Y283814D01*
X85170Y283902D01*
X85243Y284033D01*
Y284047D01*
X85272Y284076D01*
X85301Y284149D01*
X85360Y284251D01*
X85433Y284383D01*
X85520Y284543D01*
X85637Y284747D01*
X85768Y284995D01*
X85782Y285024D01*
X85812Y285083D01*
X85870Y285185D01*
X85943Y285316D01*
X86045Y285462D01*
X86147Y285651D01*
X86264Y285841D01*
X86380Y286059D01*
Y286074D01*
X86395Y286089D01*
X86439Y286147D01*
X86511Y286205D01*
X86555Y286234D01*
X86643D01*
X86686Y286220D01*
X86745Y286191D01*
X86803Y286161D01*
X86847Y286103D01*
X86876Y286016D01*
X86891Y285914D01*
Y285899D01*
X86876Y285855D01*
X86847Y285811D01*
X86818Y285739D01*
X86815Y285733D01*
X86934Y285826D01*
X87066Y285914D01*
X87080Y285928D01*
X87138Y285957D01*
X87226Y286016D01*
X87343Y286074D01*
X87459Y286132D01*
X87590Y286191D01*
X87707Y286220D01*
X87824Y286234D01*
X87882D01*
X87940Y286220D01*
D02*
G37*
G36*
X52202Y285719D02*
X52284D01*
Y285678D01*
X52406D01*
Y285637D01*
X52692D01*
Y285596D01*
X52855D01*
Y285556D01*
X53141D01*
Y285515D01*
X53345D01*
Y285474D01*
X53509D01*
Y285433D01*
X53754D01*
Y285392D01*
X53835D01*
Y285351D01*
X54040D01*
Y285311D01*
X54244D01*
Y285270D01*
X54325D01*
Y285229D01*
X54489D01*
Y285188D01*
X54652D01*
Y285147D01*
X54734D01*
Y285106D01*
X54816D01*
Y285066D01*
X54979D01*
Y285025D01*
X55060D01*
Y284984D01*
X55183D01*
Y284943D01*
X55305D01*
Y284902D01*
X55387D01*
Y284861D01*
X55469D01*
Y284821D01*
X55591D01*
Y284780D01*
X55673D01*
Y284739D01*
X55755D01*
Y284698D01*
X55836D01*
Y284657D01*
X55918D01*
Y284616D01*
X56000D01*
Y284576D01*
X56081D01*
Y284535D01*
X56163D01*
Y284494D01*
X56245D01*
Y284453D01*
X56326D01*
Y284412D01*
X56367D01*
Y284371D01*
X56408D01*
Y284331D01*
X56490D01*
Y284290D01*
X56572D01*
Y284249D01*
X56653D01*
Y284208D01*
X56694D01*
Y284167D01*
X56776D01*
Y284126D01*
X56817D01*
Y284085D01*
X56857D01*
Y284045D01*
X56939D01*
Y284004D01*
X56980D01*
Y283963D01*
X57021D01*
Y283922D01*
X57061D01*
Y283881D01*
X57102D01*
Y283840D01*
X57184D01*
Y283800D01*
X57225D01*
Y283759D01*
Y283718D01*
X57306D01*
Y283677D01*
X57347D01*
Y283636D01*
X57388D01*
Y283595D01*
X57429D01*
Y283555D01*
X57470D01*
Y283514D01*
Y283473D01*
X57551D01*
Y283432D01*
X57592D01*
Y283391D01*
Y283350D01*
X57633D01*
Y283310D01*
X57674D01*
Y283269D01*
X57715D01*
Y283228D01*
X57756D01*
Y283187D01*
Y283146D01*
X57797D01*
Y283105D01*
X57837D01*
Y283065D01*
X57878D01*
Y283024D01*
X57919D01*
Y282983D01*
X57960D01*
Y282942D01*
X58001D01*
Y282901D01*
Y282860D01*
X58042D01*
Y282820D01*
Y282779D01*
X58082D01*
Y282738D01*
X58123D01*
Y282697D01*
Y282656D01*
X58164D01*
Y282615D01*
X58205D01*
Y282575D01*
X58246D01*
Y282534D01*
Y282493D01*
Y282452D01*
X58287D01*
Y282411D01*
Y282370D01*
X58327D01*
Y282330D01*
X58368D01*
Y282289D01*
Y282248D01*
X58409D01*
Y282207D01*
Y282166D01*
X58450D01*
Y282125D01*
Y282084D01*
X58491D01*
Y282044D01*
Y282003D01*
X58532D01*
Y281962D01*
Y281921D01*
X58572D01*
Y281880D01*
X58613D01*
Y281839D01*
X58572D01*
Y281799D01*
X58491D01*
Y281839D01*
X58450D01*
Y281880D01*
X58409D01*
Y281921D01*
X58368D01*
Y281962D01*
X58327D01*
Y282003D01*
X58287D01*
Y282044D01*
X58246D01*
Y282084D01*
X58205D01*
Y282125D01*
X58164D01*
Y282166D01*
X58123D01*
Y282207D01*
Y282248D01*
X58082D01*
Y282289D01*
X58042D01*
Y282330D01*
X57960D01*
Y282370D01*
Y282411D01*
X57919D01*
Y282452D01*
X57837D01*
Y282493D01*
X57797D01*
Y282534D01*
X57756D01*
Y282575D01*
X57715D01*
Y282615D01*
X57674D01*
Y282656D01*
X57592D01*
Y282697D01*
X57551D01*
Y282738D01*
X57470D01*
Y282779D01*
Y282820D01*
X57388D01*
Y282860D01*
X57306D01*
Y282901D01*
X57266D01*
Y282942D01*
X57225D01*
Y282983D01*
X57102D01*
Y283024D01*
X57061D01*
Y283065D01*
X57021D01*
Y283105D01*
X56898D01*
Y283146D01*
X56817D01*
Y283187D01*
X56776D01*
Y283228D01*
X56694D01*
Y283269D01*
X56612D01*
Y283310D01*
X56531D01*
Y283350D01*
X56408D01*
Y283391D01*
X56326D01*
Y283432D01*
X56245D01*
Y283473D01*
X56122D01*
Y283514D01*
X56041D01*
Y283555D01*
X55959D01*
Y283595D01*
X55796D01*
Y283636D01*
X55673D01*
Y283677D01*
X55591D01*
Y283718D01*
X55428D01*
Y283759D01*
X55346D01*
Y283800D01*
X55224D01*
Y283840D01*
X55060D01*
Y283881D01*
X54938D01*
Y283922D01*
X54816D01*
Y283963D01*
X54611D01*
Y284004D01*
X54489D01*
Y284045D01*
X54325D01*
Y284085D01*
X54040D01*
Y284126D01*
X53876D01*
Y284167D01*
X53631D01*
Y284208D01*
X53386D01*
Y284249D01*
X53264D01*
Y284290D01*
X52937D01*
Y284331D01*
X52733D01*
Y284371D01*
X52692D01*
Y284331D01*
X52651D01*
Y284371D01*
X52284D01*
Y284412D01*
X51916D01*
Y284453D01*
X51385D01*
Y284494D01*
X50323D01*
Y284535D01*
X50242D01*
Y284576D01*
X50201D01*
Y284616D01*
Y284657D01*
X50160D01*
Y284698D01*
Y284739D01*
Y284780D01*
X50201D01*
Y284821D01*
X50242D01*
Y284861D01*
X50405D01*
Y284902D01*
X50936D01*
Y284943D01*
X50977D01*
Y284902D01*
X51099D01*
Y284943D01*
X51263D01*
Y284984D01*
X51304D01*
Y285025D01*
X51344D01*
Y285066D01*
X51385D01*
Y285106D01*
X51426D01*
Y285147D01*
X51467D01*
Y285188D01*
X51508D01*
Y285229D01*
X51549D01*
Y285270D01*
Y285311D01*
X51590D01*
Y285351D01*
X51630D01*
Y285392D01*
X51671D01*
Y285433D01*
Y285474D01*
X51712D01*
Y285515D01*
X51753D01*
Y285556D01*
X51794D01*
Y285596D01*
X51834D01*
Y285637D01*
X51875D01*
Y285678D01*
X51916D01*
Y285719D01*
X52039D01*
Y285760D01*
X52120D01*
Y285719D01*
X52161D01*
Y285760D01*
X52202D01*
Y285719D01*
D02*
G37*
G36*
X56776Y291967D02*
X56939D01*
Y291926D01*
X57021D01*
Y291967D01*
X57061D01*
Y291926D01*
X57306D01*
Y291885D01*
X57551D01*
Y291844D01*
X57592D01*
Y291885D01*
X57715D01*
Y291844D01*
X57797D01*
Y291804D01*
X58001D01*
Y291763D01*
X58205D01*
Y291722D01*
X58368D01*
Y291681D01*
X58532D01*
Y291640D01*
X58613D01*
Y291599D01*
X58654D01*
Y291640D01*
X58695D01*
Y291599D01*
X58817D01*
Y291559D01*
X58981D01*
Y291518D01*
X59022D01*
Y291477D01*
X59226D01*
Y291436D01*
X59348D01*
Y291395D01*
X59430D01*
Y291354D01*
X59593D01*
Y291314D01*
X59716D01*
Y291273D01*
X59798D01*
Y291232D01*
X59920D01*
Y291191D01*
X60002D01*
Y291150D01*
X60124D01*
Y291109D01*
X60247D01*
Y291068D01*
X60328D01*
Y291028D01*
X60451D01*
Y290987D01*
X60533D01*
Y290946D01*
X60614D01*
Y290905D01*
X60696D01*
Y290864D01*
X60818D01*
Y290823D01*
X60900D01*
Y290783D01*
X60982D01*
Y290742D01*
X61104D01*
Y290701D01*
X61145D01*
Y290660D01*
X61227D01*
Y290619D01*
X61349D01*
Y290578D01*
X61390D01*
Y290538D01*
X61472D01*
Y290497D01*
X61554D01*
Y290456D01*
X61676D01*
Y290415D01*
X61717D01*
Y290374D01*
X61799D01*
Y290333D01*
X61880D01*
Y290293D01*
X61962D01*
Y290252D01*
X62003D01*
Y290211D01*
X62125D01*
Y290170D01*
X62166D01*
Y290129D01*
X62288D01*
Y290088D01*
X62329D01*
Y290048D01*
X62411D01*
Y290007D01*
X62452D01*
Y289966D01*
X62533D01*
Y289925D01*
X62574D01*
Y289884D01*
X62656D01*
Y289843D01*
X62738D01*
Y289803D01*
X62819D01*
Y289762D01*
X62901D01*
Y289721D01*
X62942D01*
Y289680D01*
X62983D01*
Y289639D01*
X63064D01*
Y289598D01*
X63105D01*
Y289558D01*
X63187D01*
Y289517D01*
X63228D01*
Y289476D01*
X63269D01*
Y289435D01*
X63309D01*
Y289394D01*
X63391D01*
Y289353D01*
X63473D01*
Y289313D01*
X63514D01*
Y289272D01*
X63554D01*
Y289231D01*
X63636D01*
Y289190D01*
X63677D01*
Y289149D01*
X63718D01*
Y289108D01*
X63759D01*
Y289068D01*
X63881D01*
Y289027D01*
X63922D01*
Y288986D01*
X63963D01*
Y288945D01*
X64004D01*
Y288904D01*
X64085D01*
Y288863D01*
X64126D01*
Y288823D01*
X64167D01*
Y288782D01*
X64249D01*
Y288741D01*
X64289D01*
Y288700D01*
X64330D01*
Y288659D01*
X64412D01*
Y288618D01*
X64453D01*
Y288577D01*
X64494D01*
Y288537D01*
X64534D01*
Y288496D01*
X64616D01*
Y288455D01*
X64657D01*
Y288414D01*
X64698D01*
Y288373D01*
X64780D01*
Y288332D01*
X64820D01*
Y288292D01*
Y288251D01*
X64902D01*
Y288210D01*
X64943D01*
Y288169D01*
X64984D01*
Y288128D01*
X65025D01*
Y288087D01*
X65065D01*
Y288047D01*
X65147D01*
Y288006D01*
Y287965D01*
X65188D01*
Y287924D01*
X65270D01*
Y287883D01*
X65310D01*
Y287842D01*
X65351D01*
Y287802D01*
X65392D01*
Y287761D01*
X65433D01*
Y287720D01*
X65474D01*
Y287679D01*
X65515D01*
Y287638D01*
X65555D01*
Y287597D01*
X65596D01*
Y287557D01*
X65678D01*
Y287516D01*
Y287475D01*
X65719D01*
Y287434D01*
X65760D01*
Y287393D01*
X65800D01*
Y287352D01*
X65841D01*
Y287312D01*
X65882D01*
Y287271D01*
X65964D01*
Y287230D01*
Y287189D01*
X66005D01*
Y287148D01*
X66086D01*
Y287107D01*
X66127D01*
Y287067D01*
Y287026D01*
X66168D01*
Y286985D01*
X66209D01*
Y286944D01*
X66250D01*
Y286903D01*
X66290D01*
Y286862D01*
X66331D01*
Y286822D01*
X66372D01*
Y286781D01*
X66413D01*
Y286740D01*
X66454D01*
Y286699D01*
X66495D01*
Y286658D01*
X66536D01*
Y286617D01*
Y286577D01*
X66576D01*
Y286536D01*
X66658D01*
Y286495D01*
Y286454D01*
X66699D01*
Y286413D01*
X66740D01*
Y286372D01*
X66781D01*
Y286332D01*
X66821D01*
Y286291D01*
X66862D01*
Y286250D01*
Y286209D01*
X66944D01*
Y286168D01*
Y286127D01*
X66985D01*
Y286086D01*
X67026D01*
Y286046D01*
X67066D01*
Y286005D01*
X67107D01*
Y285964D01*
Y285923D01*
X67148D01*
Y285882D01*
X67189D01*
Y285841D01*
X67230D01*
Y285801D01*
X67270D01*
Y285760D01*
Y285719D01*
X67311D01*
Y285678D01*
Y285637D01*
X67352D01*
Y285596D01*
X67393D01*
Y285556D01*
Y285515D01*
Y285474D01*
X67352D01*
Y285515D01*
X67311D01*
Y285556D01*
X67270D01*
Y285596D01*
X67230D01*
Y285637D01*
X67189D01*
Y285678D01*
X67148D01*
Y285719D01*
Y285760D01*
X67107D01*
Y285801D01*
X67026D01*
Y285841D01*
X66985D01*
Y285882D01*
Y285923D01*
X66944D01*
Y285964D01*
X66903D01*
Y286005D01*
X66821D01*
Y286046D01*
Y286086D01*
X66781D01*
Y286127D01*
X66740D01*
Y286168D01*
X66699D01*
Y286209D01*
X66658D01*
Y286250D01*
X66576D01*
Y286291D01*
X66536D01*
Y286332D01*
X66495D01*
Y286372D01*
X66454D01*
Y286413D01*
X66413D01*
Y286454D01*
X66372D01*
Y286495D01*
X66331D01*
Y286536D01*
X66290D01*
Y286577D01*
X66209D01*
Y286617D01*
X66168D01*
Y286658D01*
X66127D01*
Y286699D01*
X66086D01*
Y286740D01*
X66045D01*
Y286781D01*
X66005D01*
Y286822D01*
X65964D01*
Y286862D01*
X65923D01*
Y286903D01*
X65882D01*
Y286944D01*
X65841D01*
Y286985D01*
X65800D01*
Y287026D01*
X65719D01*
Y287067D01*
X65678D01*
Y287107D01*
X65637D01*
Y287148D01*
X65596D01*
Y287189D01*
X65555D01*
Y287230D01*
X65515D01*
Y287271D01*
X65392D01*
Y287312D01*
Y287352D01*
X65351D01*
Y287393D01*
X65270D01*
Y287434D01*
X65229D01*
Y287475D01*
X65188D01*
Y287516D01*
X65106D01*
Y287557D01*
X65065D01*
Y287597D01*
X65025D01*
Y287638D01*
X64984D01*
Y287679D01*
X64902D01*
Y287720D01*
X64861D01*
Y287761D01*
X64820D01*
Y287802D01*
X64739D01*
Y287842D01*
X64698D01*
Y287883D01*
X64657D01*
Y287924D01*
X64575D01*
Y287965D01*
X64494D01*
Y288006D01*
X64453D01*
Y288047D01*
X64412D01*
Y288087D01*
X64330D01*
Y288128D01*
X64289D01*
Y288169D01*
X64208D01*
Y288210D01*
X64126D01*
Y288251D01*
X64085D01*
Y288292D01*
X64044D01*
Y288332D01*
X63963D01*
Y288373D01*
X63922D01*
Y288414D01*
X63800D01*
Y288455D01*
X63759D01*
Y288496D01*
X63677D01*
Y288537D01*
X63636D01*
Y288577D01*
X63554D01*
Y288618D01*
X63432D01*
Y288659D01*
X63391D01*
Y288700D01*
X63309D01*
Y288741D01*
X63187D01*
Y288782D01*
X63146D01*
Y288823D01*
X63064D01*
Y288863D01*
X62983D01*
Y288904D01*
X62942D01*
Y288945D01*
X62819D01*
Y288986D01*
X62738D01*
Y289027D01*
X62656D01*
Y289068D01*
X62533D01*
Y289108D01*
X62452D01*
Y289149D01*
X62329D01*
Y289190D01*
X62207D01*
Y289231D01*
X62166D01*
Y289272D01*
X61962D01*
Y289313D01*
X61880D01*
Y289353D01*
X61839D01*
Y289394D01*
X61635D01*
Y289435D01*
X61513D01*
Y289476D01*
X61390D01*
Y289517D01*
X61186D01*
Y289558D01*
X61063D01*
Y289598D01*
X60818D01*
Y289639D01*
X60492D01*
Y289680D01*
X60247D01*
Y289721D01*
X58695D01*
Y289762D01*
X58613D01*
Y289803D01*
X58572D01*
Y289843D01*
Y289884D01*
X58491D01*
Y289925D01*
Y289966D01*
X58450D01*
Y290007D01*
X58368D01*
Y290048D01*
X58327D01*
Y290088D01*
X58287D01*
Y290129D01*
X58246D01*
Y290170D01*
X58205D01*
Y290211D01*
X58123D01*
Y290252D01*
Y290293D01*
X58042D01*
Y290333D01*
X58001D01*
Y290374D01*
X57960D01*
Y290415D01*
X57919D01*
Y290456D01*
X57878D01*
Y290497D01*
X57797D01*
Y290538D01*
Y290578D01*
X57715D01*
Y290619D01*
X57674D01*
Y290660D01*
X57633D01*
Y290701D01*
X57592D01*
Y290742D01*
X57511D01*
Y290783D01*
X57470D01*
Y290823D01*
X57388D01*
Y290864D01*
X57347D01*
Y290905D01*
X57306D01*
Y290946D01*
X57225D01*
Y290987D01*
X57143D01*
Y291028D01*
X57102D01*
Y291068D01*
X57061D01*
Y291109D01*
X56980D01*
Y291150D01*
X56939D01*
Y291191D01*
X56898D01*
Y291232D01*
X56776D01*
Y291273D01*
X56735D01*
Y291314D01*
X56694D01*
Y291354D01*
X56612D01*
Y291395D01*
X56531D01*
Y291436D01*
X56490D01*
Y291477D01*
X56408D01*
Y291518D01*
X56326D01*
Y291559D01*
X56245D01*
Y291599D01*
X56163D01*
Y291640D01*
X56081D01*
Y291681D01*
X56000D01*
Y291722D01*
X55918D01*
Y291763D01*
X55796D01*
Y291804D01*
X55755D01*
Y291844D01*
X55714D01*
Y291885D01*
X55632D01*
Y291926D01*
Y291967D01*
Y292008D01*
X56776D01*
Y291967D01*
D02*
G37*
G36*
X115118Y286438D02*
X115103Y286409D01*
X115088Y286351D01*
X115059Y286293D01*
X115030Y286234D01*
X115001Y286176D01*
X114986Y286147D01*
X114957Y286132D01*
X114972D01*
X115030Y286118D01*
X115118Y286074D01*
X115190Y286030D01*
X115278Y285986D01*
Y285972D01*
X115263Y285957D01*
X115234Y285899D01*
X115190Y285826D01*
X115161Y285811D01*
X115132Y285797D01*
X115015D01*
X115001Y285811D01*
X115059D01*
X115015Y285826D01*
X114943D01*
X114870Y285841D01*
X114855Y285811D01*
X114840Y285782D01*
X114811Y285724D01*
X114768Y285622D01*
X114709Y285505D01*
X114622Y285360D01*
X114534Y285155D01*
Y285141D01*
X114520Y285112D01*
X114505Y285068D01*
X114476Y285010D01*
X114403Y284864D01*
X114345Y284674D01*
X114272Y284485D01*
X114199Y284295D01*
X114155Y284120D01*
X114141Y283975D01*
Y283945D01*
X114155Y283902D01*
X114184Y283843D01*
X114214Y283829D01*
X114243Y283814D01*
X114286D01*
X114374Y283829D01*
X114389D01*
X114418Y283843D01*
X114461Y283872D01*
X114520Y283902D01*
X114665Y283989D01*
X114870Y284135D01*
X115103Y284324D01*
X115234Y284441D01*
X115365Y284572D01*
X115497Y284718D01*
X115628Y284878D01*
X115774Y285068D01*
X115809Y285120D01*
X115847Y285185D01*
X115919Y285316D01*
X116021Y285462D01*
X116123Y285651D01*
X116240Y285841D01*
X116357Y286059D01*
Y286074D01*
X116371Y286089D01*
X116415Y286147D01*
X116488Y286205D01*
X116532Y286234D01*
X116619D01*
X116663Y286220D01*
X116721Y286191D01*
X116780Y286161D01*
X116823Y286103D01*
X116852Y286016D01*
X116867Y285914D01*
Y285899D01*
X116852Y285855D01*
X116823Y285811D01*
X116794Y285739D01*
X116791Y285733D01*
X116911Y285826D01*
X117042Y285914D01*
X117057Y285928D01*
X117115Y285957D01*
X117202Y286016D01*
X117319Y286074D01*
X117436Y286132D01*
X117567Y286191D01*
X117683Y286220D01*
X117800Y286234D01*
X117859D01*
X117917Y286220D01*
X117990Y286205D01*
X118063Y286176D01*
X118121Y286118D01*
X118165Y286059D01*
X118179Y285972D01*
Y285957D01*
X118165Y285914D01*
X118121Y285841D01*
X118048Y285724D01*
X118034Y285695D01*
X117990Y285622D01*
X117931Y285549D01*
X117902Y285476D01*
Y285462D01*
X117873Y285447D01*
X117829Y285433D01*
X117756Y285418D01*
X117742D01*
X117727Y285433D01*
X117683Y285447D01*
X117640Y285491D01*
X117625Y285520D01*
X117567Y285564D01*
X117479Y285607D01*
X117348Y285637D01*
X117334D01*
X117275Y285622D01*
X117173Y285593D01*
X117057Y285520D01*
X116896Y285418D01*
X116809Y285345D01*
X116721Y285258D01*
X116619Y285155D01*
X116517Y285039D01*
X116415Y284908D01*
X116298Y284747D01*
X116284Y284733D01*
X116255Y284674D01*
X116196Y284587D01*
X116109Y284456D01*
X115992Y284295D01*
X115861Y284091D01*
X115686Y283843D01*
X115497Y283552D01*
Y283537D01*
X115467Y283508D01*
X115409Y283479D01*
X115322Y283464D01*
X115292D01*
X115219Y283493D01*
X115176Y283537D01*
X115132Y283581D01*
X115118Y283654D01*
X115103Y283741D01*
Y283756D01*
X115118Y283814D01*
X115147Y283902D01*
X115219Y284033D01*
Y284047D01*
X115249Y284076D01*
X115278Y284149D01*
X115249Y284120D01*
X115190Y284076D01*
X115059Y283960D01*
X114884Y283829D01*
X114695Y283683D01*
X114490Y283566D01*
X114286Y283479D01*
X114184Y283464D01*
X114097Y283450D01*
X114068D01*
X114009Y283464D01*
X113922Y283479D01*
X113834Y283523D01*
X113732Y283610D01*
X113645Y283712D01*
X113587Y283872D01*
X113557Y283960D01*
Y284076D01*
Y284091D01*
Y284120D01*
X113572Y284208D01*
X113601Y284339D01*
X113636Y284432D01*
X113630Y284426D01*
X113601Y284383D01*
X113557Y284324D01*
X113470Y284193D01*
X113339Y284033D01*
X113193Y283872D01*
X113032Y283741D01*
X112945Y283683D01*
X112858Y283654D01*
X112770Y283625D01*
X112683Y283610D01*
X112624D01*
X112566Y283625D01*
X112508Y283654D01*
X112449Y283697D01*
X112391Y283770D01*
X112347Y283858D01*
X112333Y283989D01*
Y284018D01*
X112347Y284076D01*
X112362Y284179D01*
X112391Y284310D01*
Y284324D01*
X112406Y284353D01*
X112435Y284412D01*
X112464Y284485D01*
X112508Y284572D01*
X112566Y284674D01*
X112697Y284908D01*
X112887Y285170D01*
X113120Y285447D01*
X113412Y285695D01*
X113572Y285826D01*
X113747Y285928D01*
X113761Y285943D01*
X113805Y285957D01*
X113878Y285986D01*
X113966Y286030D01*
X114068Y286074D01*
X114184Y286103D01*
X114461Y286161D01*
X114476Y286176D01*
X114490Y286205D01*
X114549Y286249D01*
X114607Y286307D01*
X114695Y286366D01*
X114811Y286409D01*
X114957Y286438D01*
X115118Y286453D01*
Y286438D01*
D02*
G37*
G36*
X100844Y287984D02*
X100887Y287926D01*
X100917Y287896D01*
Y287838D01*
Y287824D01*
X100902Y287794D01*
X100873Y287736D01*
X100814Y287692D01*
X100800D01*
X100771Y287678D01*
X100683Y287634D01*
X100581Y287576D01*
X100479Y287488D01*
Y287474D01*
X100450Y287459D01*
X100421Y287415D01*
X100392Y287357D01*
X100290Y287211D01*
X100158Y287022D01*
X100013Y286818D01*
X99852Y286584D01*
X99677Y286336D01*
X99517Y286103D01*
X100742D01*
X100756Y286089D01*
X100800Y286074D01*
X100844Y286030D01*
X100902Y285957D01*
Y285943D01*
X100887Y285928D01*
X100858Y285870D01*
X100800Y285797D01*
X100771Y285782D01*
X100727Y285768D01*
X100479D01*
X100304Y285753D01*
X100115Y285739D01*
X99881D01*
X99648Y285710D01*
X99400Y285695D01*
X99386Y285666D01*
X99357Y285607D01*
X99298Y285505D01*
X99240Y285374D01*
X99152Y285199D01*
X99080Y285024D01*
X98992Y284820D01*
X98905Y284601D01*
Y284587D01*
X98890Y284558D01*
X98875Y284528D01*
Y284470D01*
X98846Y284324D01*
X98832Y284179D01*
Y284164D01*
Y284135D01*
X98861Y284033D01*
X98890Y283975D01*
X98934Y283931D01*
X98992Y283902D01*
X99080Y283887D01*
X99138D01*
X99196Y283902D01*
X99298Y283931D01*
X99415Y283960D01*
X99561Y284018D01*
X99736Y284106D01*
X99925Y284208D01*
X99954Y284222D01*
X99983Y284237D01*
X100071D01*
X100129Y284222D01*
X100173Y284179D01*
X100202Y284135D01*
Y284091D01*
Y284076D01*
X100173Y284033D01*
X100144Y283989D01*
X100100Y283945D01*
X100085D01*
X100071Y283931D01*
X100027Y283902D01*
X99969Y283872D01*
X99838Y283800D01*
X99648Y283712D01*
X99444Y283610D01*
X99225Y283537D01*
X99007Y283479D01*
X98788Y283464D01*
X98759D01*
X98686Y283479D01*
X98584Y283493D01*
X98467Y283537D01*
X98336Y283625D01*
X98234Y283727D01*
X98161Y283887D01*
X98146Y283975D01*
X98132Y284091D01*
Y284120D01*
X98146Y284179D01*
X98176Y284295D01*
X98219Y284470D01*
X98229Y284494D01*
X98190Y284456D01*
X97913Y284193D01*
X97607Y283945D01*
X97286Y283727D01*
X97126Y283639D01*
X96965Y283566D01*
X96951D01*
X96907Y283537D01*
X96834Y283523D01*
X96732Y283493D01*
X96528Y283450D01*
X96309Y283420D01*
X96280D01*
X96193Y283435D01*
X96091Y283450D01*
X95959Y283508D01*
X95828Y283581D01*
X95711Y283697D01*
X95624Y283858D01*
X95609Y283960D01*
X95595Y284076D01*
Y284091D01*
Y284120D01*
Y284164D01*
X95609Y284222D01*
X95612Y284234D01*
X95580Y284208D01*
X95376Y284033D01*
X95143Y283872D01*
X95128D01*
X95114Y283858D01*
X95070Y283829D01*
X95026Y283800D01*
X94880Y283727D01*
X94705Y283639D01*
X94487Y283537D01*
X94253Y283464D01*
X94020Y283406D01*
X93772Y283391D01*
X93743D01*
X93670Y283406D01*
X93568Y283420D01*
X93452Y283464D01*
X93335Y283537D01*
X93233Y283639D01*
X93160Y283785D01*
X93145Y283872D01*
X93131Y283975D01*
Y283989D01*
Y284004D01*
Y284027D01*
X93072Y283960D01*
X92941Y283829D01*
X92927Y283814D01*
X92897Y283785D01*
X92839Y283727D01*
X92752Y283654D01*
X92635Y283552D01*
X92519Y283420D01*
X92358Y283289D01*
X92183Y283114D01*
X91979Y282939D01*
X91760Y282721D01*
X91512Y282502D01*
X91250Y282254D01*
X90958Y281992D01*
X90638Y281700D01*
X90302Y281394D01*
X89952Y281073D01*
X89938Y281059D01*
X89909Y281029D01*
X89865Y280986D01*
X89792Y280913D01*
X89705Y280811D01*
X89603Y280694D01*
X89486Y280534D01*
X89340Y280359D01*
X89325Y280329D01*
X89267Y280271D01*
X89194Y280169D01*
X89107Y280067D01*
X88873Y279805D01*
X88757Y279688D01*
X88640Y279586D01*
X88626Y279571D01*
X88611Y279557D01*
X88567Y279542D01*
X88494Y279528D01*
X88465D01*
X88421Y279542D01*
X88378Y279571D01*
X88334Y279630D01*
X88305Y279688D01*
X88276Y279790D01*
X88261Y279921D01*
Y279936D01*
X88276Y279994D01*
X88290Y280052D01*
X88319Y280140D01*
X88334Y280154D01*
X88363Y280184D01*
X88407Y280242D01*
X88480Y280329D01*
X88582Y280432D01*
X88699Y280548D01*
X88859Y280694D01*
X89034Y280854D01*
X89048Y280869D01*
X89107Y280913D01*
X89180Y280986D01*
X89267Y281088D01*
X89369Y281190D01*
X89471Y281321D01*
X89573Y281452D01*
X89661Y281598D01*
X89675Y281612D01*
X89705Y281671D01*
X89748Y281758D01*
X89821Y281890D01*
X89894Y282050D01*
X89996Y282239D01*
X90113Y282458D01*
X90244Y282706D01*
X90390Y282998D01*
X90536Y283304D01*
X90711Y283639D01*
X90886Y284004D01*
X91075Y284397D01*
X91265Y284805D01*
X91348Y284984D01*
X91308Y284951D01*
X91104Y284835D01*
X90871Y284747D01*
X90754Y284733D01*
X90638Y284718D01*
X90550D01*
X90463Y284733D01*
X90346Y284762D01*
X90229Y284805D01*
X90127Y284878D01*
X90025Y284966D01*
X89952Y285097D01*
Y285083D01*
X89923Y285039D01*
X89894Y284981D01*
X89850Y284893D01*
X89792Y284791D01*
X89734Y284674D01*
X89573Y284426D01*
X89384Y284149D01*
X89165Y283887D01*
X89034Y283770D01*
X88917Y283668D01*
X88786Y283581D01*
X88655Y283508D01*
X88640D01*
X88626Y283493D01*
X88524Y283450D01*
X88392Y283406D01*
X88261Y283391D01*
X88247D01*
X88188Y283406D01*
X88130Y283420D01*
X88042Y283464D01*
X87969Y283523D01*
X87897Y283625D01*
X87838Y283756D01*
X87824Y283945D01*
Y283960D01*
Y283975D01*
X87838Y284062D01*
X87853Y284208D01*
X87911Y284383D01*
X87984Y284616D01*
X88115Y284864D01*
X88188Y285010D01*
X88290Y285155D01*
X88392Y285301D01*
X88524Y285462D01*
X88553Y285491D01*
X88611Y285564D01*
X88713Y285666D01*
X88859Y285782D01*
X89034Y285899D01*
X89238Y286016D01*
X89457Y286103D01*
X89705Y286161D01*
Y286176D01*
X89719Y286205D01*
X89734Y286263D01*
X89763Y286322D01*
X89792Y286380D01*
X89850Y286438D01*
X89923Y286497D01*
X90011Y286526D01*
X90069D01*
X90127Y286541D01*
X90200Y286570D01*
X90229Y286584D01*
X90259Y286599D01*
X90332D01*
X90390Y286570D01*
X90448Y286526D01*
X90477Y286468D01*
Y286409D01*
Y286395D01*
X90463Y286380D01*
X90448Y286336D01*
X90419Y286278D01*
X90375Y286132D01*
X90317Y285957D01*
Y285928D01*
Y285870D01*
X90302Y285782D01*
Y285680D01*
Y285651D01*
Y285578D01*
X90332Y285476D01*
X90361Y285374D01*
X90404Y285258D01*
X90477Y285155D01*
X90579Y285083D01*
X90652Y285068D01*
X90725Y285053D01*
X90740D01*
X90798Y285068D01*
X90886Y285083D01*
X91002Y285126D01*
X91133Y285185D01*
X91279Y285287D01*
X91425Y285418D01*
X91571Y285607D01*
X91585Y285622D01*
X91600Y285651D01*
X91658Y285680D01*
X91682Y285684D01*
X91687Y285695D01*
X91702Y285710D01*
X91717Y285739D01*
X91731Y285782D01*
Y285797D01*
X91717D01*
X91658Y285782D01*
X91571Y285768D01*
X91556D01*
X91498Y285753D01*
X91425Y285739D01*
X91367Y285724D01*
X91338D01*
X91279Y285739D01*
X91221Y285797D01*
X91206Y285826D01*
X91192Y285884D01*
Y285899D01*
X91206Y285943D01*
X91250Y286001D01*
X91338Y286045D01*
X91367D01*
X91425Y286059D01*
X91512Y286074D01*
X91629Y286103D01*
X91775Y286147D01*
X91906Y286176D01*
X92052Y286220D01*
X92183Y286278D01*
X92198Y286293D01*
X92227Y286307D01*
X92271Y286322D01*
X92387D01*
X92460Y286293D01*
X92504Y286263D01*
X92548Y286220D01*
X92562Y286161D01*
X92577Y286089D01*
Y286074D01*
Y286030D01*
X92548Y285957D01*
X92519Y285870D01*
Y285855D01*
X92489Y285826D01*
X92460Y285768D01*
X92416Y285680D01*
X92373Y285578D01*
X92314Y285447D01*
X92227Y285301D01*
X92154Y285141D01*
X92052Y284966D01*
X91950Y284762D01*
X91833Y284543D01*
X91717Y284310D01*
X91585Y284062D01*
X91439Y283800D01*
X91133Y283245D01*
X91119Y283216D01*
X91090Y283187D01*
X91061Y283143D01*
X91031Y283085D01*
X90973Y283012D01*
X90915Y282910D01*
X90827Y282779D01*
X90725Y282633D01*
X90609Y282444D01*
X90463Y282225D01*
X90288Y281977D01*
X90098Y281685D01*
X89880Y281350D01*
X89894Y281365D01*
X89938Y281394D01*
X89996Y281452D01*
X90069Y281540D01*
X90171Y281627D01*
X90273Y281729D01*
X90521Y281977D01*
X90798Y282225D01*
X91075Y282487D01*
X91338Y282721D01*
X91454Y282823D01*
X91556Y282910D01*
X91571Y282925D01*
X91600Y282954D01*
X91644Y282998D01*
X91717Y283070D01*
X91790Y283143D01*
X91891Y283245D01*
X92096Y283464D01*
X92343Y283727D01*
X92577Y284018D01*
X92825Y284295D01*
X93029Y284587D01*
X93043Y284601D01*
X93072Y284660D01*
X93116Y284733D01*
X93160Y284820D01*
X93247Y285039D01*
X93277Y285155D01*
X93291Y285272D01*
Y285301D01*
Y285345D01*
X93262Y285403D01*
X93233Y285462D01*
X93175Y285549D01*
Y285578D01*
X93189Y285622D01*
X93233Y285666D01*
X93320Y285695D01*
X93335D01*
X93379Y285680D01*
X93422Y285666D01*
X93495Y285622D01*
X93554Y285549D01*
X93597Y285447D01*
X93641Y285301D01*
X93642Y285285D01*
X93772Y285447D01*
X93787Y285462D01*
X93801Y285476D01*
X93874Y285564D01*
X94006Y285695D01*
X94166Y285841D01*
X94355Y285972D01*
X94560Y286103D01*
X94778Y286191D01*
X94895Y286205D01*
X95012Y286220D01*
X95085D01*
X95157Y286205D01*
X95245Y286176D01*
X95332Y286147D01*
X95405Y286089D01*
X95464Y286001D01*
X95478Y285899D01*
Y285870D01*
X95449Y285811D01*
X95405Y285710D01*
X95362Y285651D01*
X95303Y285578D01*
X95216Y285505D01*
X95128Y285433D01*
X95012Y285360D01*
X94866Y285287D01*
X94705Y285214D01*
X94516Y285141D01*
X94283Y285083D01*
X94035Y285010D01*
X94020Y284995D01*
X94006Y284937D01*
X93962Y284849D01*
X93933Y284747D01*
X93889Y284616D01*
X93845Y284485D01*
X93831Y284339D01*
X93816Y284179D01*
Y284164D01*
Y284120D01*
X93831Y284062D01*
X93860Y284004D01*
X93889Y283931D01*
X93947Y283872D01*
X94020Y283829D01*
X94122Y283814D01*
X94195D01*
X94297Y283843D01*
X94414Y283872D01*
X94574Y283916D01*
X94735Y283989D01*
X94924Y284091D01*
X95128Y284222D01*
X95143Y284237D01*
X95216Y284281D01*
X95303Y284353D01*
X95420Y284456D01*
X95537Y284572D01*
X95682Y284703D01*
X95828Y284864D01*
X95884Y284933D01*
X95901Y284966D01*
X96076Y285214D01*
X96295Y285491D01*
X96572Y285768D01*
X96907Y286016D01*
X97082Y286118D01*
X97286Y286220D01*
X97315Y286234D01*
X97374Y286263D01*
X97461Y286278D01*
X97549Y286293D01*
X97607D01*
X97665Y286278D01*
X97738Y286249D01*
X97826Y286205D01*
X97913Y286132D01*
X97986Y286045D01*
X98059Y285914D01*
Y285899D01*
X98073Y285870D01*
X98088Y285826D01*
Y285797D01*
Y285782D01*
X98073Y285724D01*
X98030Y285637D01*
X97942Y285549D01*
X97913Y285535D01*
X97869Y285491D01*
X97811Y285433D01*
X97782Y285418D01*
X97767Y285403D01*
X97738Y285374D01*
X97680Y285345D01*
X97622Y285330D01*
X97592D01*
X97549Y285345D01*
X97505Y285403D01*
X97476Y285433D01*
Y285491D01*
Y285535D01*
X97490Y285549D01*
Y285607D01*
Y285622D01*
Y285637D01*
X97461Y285710D01*
X97432Y285739D01*
X97388Y285768D01*
X97330Y285782D01*
X97242Y285797D01*
X97228D01*
X97184Y285782D01*
X97111Y285768D01*
X97024Y285710D01*
X96922Y285622D01*
X96805Y285505D01*
X96674Y285330D01*
X96615Y285214D01*
X96543Y285097D01*
X96528Y285083D01*
X96513Y285024D01*
X96470Y284937D01*
X96426Y284820D01*
X96353Y284572D01*
X96324Y284441D01*
X96309Y284324D01*
Y284193D01*
Y284179D01*
Y284135D01*
X96324Y284076D01*
X96353Y284018D01*
X96382Y283945D01*
X96441Y283887D01*
X96513Y283843D01*
X96615Y283829D01*
X96630D01*
X96688Y283843D01*
X96776Y283858D01*
X96907Y283902D01*
X97082Y283975D01*
X97286Y284076D01*
X97534Y284222D01*
X97811Y284412D01*
X97826Y284426D01*
X97869Y284470D01*
X97928Y284558D01*
X98030Y284660D01*
X98132Y284791D01*
X98248Y284937D01*
X98394Y285097D01*
X98540Y285287D01*
X98555Y285301D01*
X98584Y285330D01*
X98625Y285344D01*
X98715Y285491D01*
X98832Y285695D01*
X98423Y285666D01*
X98394D01*
X98307Y285695D01*
X98234Y285739D01*
X98205Y285782D01*
X98190Y285841D01*
Y285855D01*
Y285884D01*
X98205Y285928D01*
X98234Y285972D01*
X98292Y286016D01*
X98351Y286059D01*
X98453Y286089D01*
X98584Y286103D01*
X98977D01*
X98992Y286132D01*
X99036Y286205D01*
X99109Y286322D01*
X99211Y286482D01*
X99327Y286672D01*
X99473Y286905D01*
X99634Y287168D01*
X99823Y287459D01*
Y287474D01*
X99852Y287503D01*
X99925Y287590D01*
X100042Y287692D01*
X100202Y287794D01*
X100217Y287809D01*
X100260Y287824D01*
X100333Y287853D01*
X100421Y287896D01*
X100596Y287969D01*
X100698Y287984D01*
X100771Y287999D01*
X100800D01*
X100844Y287984D01*
D02*
G37*
G36*
X51140Y290374D02*
X51222D01*
Y290333D01*
X51385D01*
Y290293D01*
X51549D01*
Y290252D01*
X51590D01*
Y290211D01*
X51753D01*
Y290170D01*
X51834D01*
Y290129D01*
X51998D01*
Y290088D01*
X52079D01*
Y290048D01*
X52161D01*
Y290007D01*
X52284D01*
Y289966D01*
X52365D01*
Y289925D01*
X52447D01*
Y289884D01*
X52570D01*
Y289843D01*
X52692D01*
Y289803D01*
X52733D01*
Y289762D01*
X52855D01*
Y289721D01*
X52937D01*
Y289680D01*
X52978D01*
Y289639D01*
X53060D01*
Y289598D01*
X53182D01*
Y289558D01*
X53223D01*
Y289517D01*
X53345D01*
Y289476D01*
X53386D01*
Y289435D01*
X53468D01*
Y289394D01*
X53550D01*
Y289353D01*
X53590D01*
Y289313D01*
X53672D01*
Y289272D01*
X53754D01*
Y289231D01*
X53835D01*
Y289190D01*
X53917D01*
Y289149D01*
X53958D01*
Y289108D01*
X54040D01*
Y289068D01*
X54121D01*
Y289027D01*
X54162D01*
Y288986D01*
X54244D01*
Y288945D01*
X54285D01*
Y288904D01*
X54366D01*
Y288863D01*
X54448D01*
Y288823D01*
X54489D01*
Y288782D01*
X54530D01*
Y288741D01*
X54652D01*
Y288700D01*
X54693D01*
Y288659D01*
X54734D01*
Y288618D01*
X54816D01*
Y288577D01*
X54897D01*
Y288537D01*
X54938D01*
Y288496D01*
X54979D01*
Y288455D01*
X55060D01*
Y288414D01*
X55101D01*
Y288373D01*
X55183D01*
Y288332D01*
X55224D01*
Y288292D01*
X55265D01*
Y288251D01*
X55346D01*
Y288210D01*
X55387D01*
Y288169D01*
X55469D01*
Y288128D01*
X55510D01*
Y288087D01*
Y288047D01*
X55591D01*
Y288006D01*
X55632D01*
Y287965D01*
X55673D01*
Y287924D01*
X55755D01*
Y287883D01*
Y287842D01*
X55836D01*
Y287802D01*
X55918D01*
Y287761D01*
Y287720D01*
X56000D01*
Y287679D01*
X56041D01*
Y287638D01*
X56081D01*
Y287597D01*
X56122D01*
Y287557D01*
X56204D01*
Y287516D01*
X56245D01*
Y287475D01*
X56286D01*
Y287434D01*
X56326D01*
Y287393D01*
X56367D01*
Y287352D01*
X56408D01*
Y287312D01*
X56449D01*
Y287271D01*
X56531D01*
Y287230D01*
X56572D01*
Y287189D01*
X56612D01*
Y287148D01*
X56653D01*
Y287107D01*
X56694D01*
Y287067D01*
X56735D01*
Y287026D01*
X56817D01*
Y286985D01*
Y286944D01*
X56857D01*
Y286903D01*
X56939D01*
Y286862D01*
X56980D01*
Y286822D01*
X57021D01*
Y286781D01*
X57061D01*
Y286740D01*
X57102D01*
Y286699D01*
X57143D01*
Y286658D01*
X57184D01*
Y286617D01*
X57225D01*
Y286577D01*
Y286536D01*
X57306D01*
Y286495D01*
X57347D01*
Y286454D01*
X57388D01*
Y286413D01*
Y286372D01*
X57470D01*
Y286332D01*
X57511D01*
Y286291D01*
X57551D01*
Y286250D01*
X57592D01*
Y286209D01*
X57633D01*
Y286168D01*
X57674D01*
Y286127D01*
X57715D01*
Y286086D01*
X57756D01*
Y286046D01*
X57797D01*
Y286005D01*
X57837D01*
Y285964D01*
X57878D01*
Y285923D01*
X57919D01*
Y285882D01*
X57960D01*
Y285841D01*
X58001D01*
Y285801D01*
Y285760D01*
X58082D01*
Y285719D01*
X58123D01*
Y285678D01*
Y285637D01*
X58164D01*
Y285596D01*
X58205D01*
Y285556D01*
X58246D01*
Y285515D01*
Y285474D01*
X58287D01*
Y285433D01*
X58327D01*
Y285392D01*
X58368D01*
Y285351D01*
Y285311D01*
X58409D01*
Y285270D01*
Y285229D01*
X58491D01*
Y285188D01*
Y285147D01*
Y285106D01*
X58532D01*
Y285066D01*
X58572D01*
Y285025D01*
Y284984D01*
X58613D01*
Y284943D01*
Y284902D01*
X58654D01*
Y284861D01*
Y284821D01*
X58695D01*
Y284780D01*
Y284739D01*
Y284698D01*
X58654D01*
Y284657D01*
X58613D01*
Y284698D01*
X58532D01*
Y284739D01*
X58491D01*
Y284780D01*
X58450D01*
Y284821D01*
X58368D01*
Y284861D01*
X58327D01*
Y284902D01*
X58287D01*
Y284943D01*
X58246D01*
Y284984D01*
X58164D01*
Y285025D01*
X58123D01*
Y285066D01*
X58082D01*
Y285106D01*
X58042D01*
Y285147D01*
X58001D01*
Y285188D01*
X57960D01*
Y285229D01*
X57919D01*
Y285270D01*
X57878D01*
Y285311D01*
X57837D01*
Y285351D01*
X57797D01*
Y285392D01*
X57756D01*
Y285433D01*
X57674D01*
Y285474D01*
X57633D01*
Y285515D01*
X57592D01*
Y285556D01*
X57551D01*
Y285596D01*
X57511D01*
Y285637D01*
X57470D01*
Y285678D01*
X57429D01*
Y285719D01*
X57388D01*
Y285760D01*
X57347D01*
Y285801D01*
X57306D01*
Y285841D01*
X57266D01*
Y285882D01*
X57225D01*
Y285923D01*
X57143D01*
Y285964D01*
Y286005D01*
X57102D01*
Y286046D01*
X57061D01*
Y286086D01*
X57021D01*
Y286127D01*
X56980D01*
Y286168D01*
X56939D01*
Y286209D01*
X56898D01*
Y286250D01*
X56817D01*
Y286291D01*
X56776D01*
Y286332D01*
X56694D01*
Y286372D01*
X56653D01*
Y286413D01*
X56612D01*
Y286454D01*
X56572D01*
Y286495D01*
X56490D01*
Y286536D01*
X56449D01*
Y286577D01*
X56408D01*
Y286617D01*
X56367D01*
Y286658D01*
X56286D01*
Y286699D01*
X56245D01*
Y286740D01*
X56163D01*
Y286781D01*
X56122D01*
Y286822D01*
X56041D01*
Y286862D01*
X56000D01*
Y286903D01*
X55877D01*
Y286944D01*
X55836D01*
Y286985D01*
X55796D01*
Y287026D01*
X55755D01*
Y287067D01*
X55632D01*
Y287107D01*
X55591D01*
Y287148D01*
X55510D01*
Y287189D01*
X55469D01*
Y287230D01*
X55387D01*
Y287271D01*
X55346D01*
Y287312D01*
X55305D01*
Y287271D01*
X55265D01*
Y287312D01*
X55224D01*
Y287352D01*
X55183D01*
Y287393D01*
X55060D01*
Y287434D01*
X54938D01*
Y287475D01*
X54897D01*
Y287516D01*
X54816D01*
Y287557D01*
X54734D01*
Y287597D01*
X54652D01*
Y287638D01*
X54571D01*
Y287679D01*
X54448D01*
Y287720D01*
X54366D01*
Y287761D01*
X54285D01*
Y287802D01*
X54162D01*
Y287842D01*
X54080D01*
Y287883D01*
X53958D01*
Y287924D01*
X53835D01*
Y287965D01*
X53795D01*
Y288006D01*
X53631D01*
Y288047D01*
X53468D01*
Y288087D01*
X53345D01*
Y288128D01*
X53223D01*
Y288169D01*
X53060D01*
Y288210D01*
X52978D01*
Y288251D01*
X52733D01*
Y288292D01*
X52570D01*
Y288332D01*
X52488D01*
Y288373D01*
X52243D01*
Y288414D01*
X52079D01*
Y288455D01*
X51916D01*
Y288496D01*
X51630D01*
Y288537D01*
X51508D01*
Y288577D01*
X51222D01*
Y288618D01*
X50650D01*
Y288659D01*
X50569D01*
Y288700D01*
X50446D01*
Y288741D01*
X50405D01*
Y288782D01*
Y288823D01*
Y288863D01*
Y288904D01*
X50446D01*
Y288945D01*
Y288986D01*
X50487D01*
Y289027D01*
Y289068D01*
X50528D01*
Y289108D01*
X50569D01*
Y289149D01*
X50609D01*
Y289190D01*
Y289231D01*
X50650D01*
Y289272D01*
X50691D01*
Y289313D01*
Y289353D01*
X50732D01*
Y289394D01*
X50773D01*
Y289435D01*
X50814D01*
Y289476D01*
Y289517D01*
Y289558D01*
Y289598D01*
X50854D01*
Y289639D01*
Y289680D01*
X50814D01*
Y289721D01*
X50854D01*
Y289762D01*
Y289803D01*
X50895D01*
Y289843D01*
Y289884D01*
X50854D01*
Y289925D01*
Y289966D01*
X50895D01*
Y290007D01*
Y290048D01*
Y290088D01*
Y290129D01*
Y290170D01*
Y290211D01*
X50936D01*
Y290252D01*
Y290293D01*
X50977D01*
Y290333D01*
Y290374D01*
X51018D01*
Y290415D01*
X51140D01*
Y290374D01*
D02*
G37*
G36*
X59022Y289190D02*
X59593D01*
Y289149D01*
X59798D01*
Y289108D01*
X59879D01*
Y289149D01*
X59920D01*
Y289108D01*
X60083D01*
Y289068D01*
X60287D01*
Y289027D01*
X60410D01*
Y288986D01*
X60614D01*
Y288945D01*
X60737D01*
Y288904D01*
X60818D01*
Y288863D01*
X60982D01*
Y288823D01*
X61145D01*
Y288782D01*
X61186D01*
Y288741D01*
X61308D01*
Y288700D01*
X61431D01*
Y288659D01*
X61513D01*
Y288618D01*
X61594D01*
Y288577D01*
X61676D01*
Y288537D01*
X61758D01*
Y288496D01*
X61839D01*
Y288455D01*
X61921D01*
Y288414D01*
X61962D01*
Y288373D01*
X62084D01*
Y288332D01*
X62125D01*
Y288292D01*
X62207D01*
Y288251D01*
X62288D01*
Y288210D01*
X62329D01*
Y288169D01*
X62411D01*
Y288128D01*
X62493D01*
Y288087D01*
X62533D01*
Y288047D01*
X62615D01*
Y288006D01*
X62656D01*
Y287965D01*
X62697D01*
Y287924D01*
X62779D01*
Y287883D01*
X62819D01*
Y287842D01*
X62860D01*
Y287802D01*
X62942D01*
Y287761D01*
X62983D01*
Y287720D01*
X63064D01*
Y287679D01*
X63105D01*
Y287638D01*
X63146D01*
Y287597D01*
X63187D01*
Y287557D01*
X63269D01*
Y287516D01*
X63309D01*
Y287475D01*
X63350D01*
Y287434D01*
X63391D01*
Y287393D01*
X63432D01*
Y287352D01*
X63514D01*
Y287312D01*
X63554D01*
Y287271D01*
X63595D01*
Y287230D01*
X63636D01*
Y287189D01*
X63677D01*
Y287148D01*
X63759D01*
Y287107D01*
X63800D01*
Y287067D01*
X63840D01*
Y287026D01*
X63881D01*
Y286985D01*
X63922D01*
Y286944D01*
Y286903D01*
X64004D01*
Y286862D01*
X64044D01*
Y286822D01*
Y286781D01*
X64085D01*
Y286740D01*
X64126D01*
Y286699D01*
X64167D01*
Y286658D01*
X64208D01*
Y286617D01*
X64249D01*
Y286577D01*
X64289D01*
Y286536D01*
X64330D01*
Y286495D01*
X64371D01*
Y286454D01*
X64412D01*
Y286413D01*
Y286372D01*
X64453D01*
Y286332D01*
X64494D01*
Y286291D01*
X64534D01*
Y286250D01*
X64575D01*
Y286209D01*
X64616D01*
Y286168D01*
X64657D01*
Y286127D01*
X64698D01*
Y286086D01*
Y286046D01*
X64739D01*
Y286005D01*
X64780D01*
Y285964D01*
X64820D01*
Y285923D01*
X64861D01*
Y285882D01*
Y285841D01*
X64902D01*
Y285801D01*
X64943D01*
Y285760D01*
X64984D01*
Y285719D01*
X65025D01*
Y285678D01*
Y285637D01*
X65065D01*
Y285596D01*
X65106D01*
Y285556D01*
X65147D01*
Y285515D01*
Y285474D01*
X65188D01*
Y285433D01*
X65229D01*
Y285392D01*
Y285351D01*
X65270D01*
Y285311D01*
X65310D01*
Y285270D01*
Y285229D01*
X65351D01*
Y285188D01*
X65392D01*
Y285147D01*
Y285106D01*
X65433D01*
Y285066D01*
X65474D01*
Y285025D01*
X65515D01*
Y284984D01*
Y284943D01*
X65555D01*
Y284902D01*
X65596D01*
Y284861D01*
X65637D01*
Y284821D01*
X65678D01*
Y284780D01*
Y284739D01*
X65719D01*
Y284698D01*
X65760D01*
Y284657D01*
Y284616D01*
X65800D01*
Y284576D01*
Y284535D01*
Y284494D01*
Y284453D01*
X65678D01*
Y284494D01*
X65637D01*
Y284535D01*
X65596D01*
Y284576D01*
X65555D01*
Y284616D01*
X65515D01*
Y284657D01*
Y284698D01*
X65474D01*
Y284739D01*
X65433D01*
Y284780D01*
Y284821D01*
X65392D01*
Y284861D01*
X65351D01*
Y284902D01*
Y284943D01*
X65310D01*
Y284984D01*
X65270D01*
Y285025D01*
X65229D01*
Y285066D01*
X65188D01*
Y285106D01*
X65147D01*
Y285147D01*
Y285188D01*
X65106D01*
Y285229D01*
X65065D01*
Y285270D01*
X65025D01*
Y285311D01*
X64984D01*
Y285351D01*
X64943D01*
Y285392D01*
Y285433D01*
X64861D01*
Y285474D01*
X64820D01*
Y285515D01*
Y285556D01*
X64780D01*
Y285596D01*
X64698D01*
Y285637D01*
Y285678D01*
X64657D01*
Y285719D01*
X64575D01*
Y285760D01*
X64534D01*
Y285801D01*
X64494D01*
Y285841D01*
X64453D01*
Y285882D01*
X64412D01*
Y285923D01*
X64371D01*
Y285964D01*
X64289D01*
Y286005D01*
Y286046D01*
X64249D01*
Y286086D01*
X64167D01*
Y286127D01*
X64126D01*
Y286168D01*
X64044D01*
Y286209D01*
X64004D01*
Y286250D01*
X63922D01*
Y286291D01*
X63881D01*
Y286332D01*
X63840D01*
Y286372D01*
X63759D01*
Y286413D01*
X63718D01*
Y286454D01*
X63677D01*
Y286495D01*
X63595D01*
Y286536D01*
X63514D01*
Y286577D01*
X63473D01*
Y286617D01*
X63432D01*
Y286658D01*
X63350D01*
Y286699D01*
X63269D01*
Y286740D01*
X63187D01*
Y286781D01*
X63105D01*
Y286822D01*
X63024D01*
Y286862D01*
X62983D01*
Y286903D01*
X62901D01*
Y286944D01*
X62819D01*
Y286985D01*
X62738D01*
Y287026D01*
X62656D01*
Y287067D01*
X62574D01*
Y287107D01*
X62452D01*
Y287148D01*
X62329D01*
Y287189D01*
X62248D01*
Y287230D01*
X62125D01*
Y287271D01*
X62003D01*
Y287312D01*
X61921D01*
Y287352D01*
X61799D01*
Y287393D01*
X61676D01*
Y287434D01*
X61635D01*
Y287393D01*
X61594D01*
Y287434D01*
X61472D01*
Y287475D01*
X61268D01*
Y287516D01*
X61104D01*
Y287557D01*
X60900D01*
Y287597D01*
X60778D01*
Y287638D01*
X60696D01*
Y287679D01*
X60533D01*
Y287720D01*
X60451D01*
Y287761D01*
X60369D01*
Y287802D01*
X60287D01*
Y287842D01*
X60165D01*
Y287883D01*
X60124D01*
Y287924D01*
X60043D01*
Y287965D01*
X59961D01*
Y288006D01*
X59920D01*
Y288047D01*
X59798D01*
Y288087D01*
X59757D01*
Y288128D01*
X59675D01*
Y288169D01*
X59593D01*
Y288210D01*
X59553D01*
Y288251D01*
X59430D01*
Y288292D01*
X59389D01*
Y288332D01*
X59348D01*
Y288373D01*
X59226D01*
Y288414D01*
X59185D01*
Y288455D01*
X59144D01*
Y288496D01*
X59062D01*
Y288537D01*
X59022D01*
Y288577D01*
X58940D01*
Y288618D01*
X58899D01*
Y288659D01*
X58817D01*
Y288700D01*
X58736D01*
Y288741D01*
X58695D01*
Y288782D01*
X58613D01*
Y288823D01*
X58572D01*
Y288863D01*
X58450D01*
Y288904D01*
X58368D01*
Y288945D01*
X58327D01*
Y288986D01*
X58246D01*
Y289027D01*
Y289068D01*
Y289108D01*
Y289149D01*
X58368D01*
Y289190D01*
X58532D01*
Y289231D01*
X59022D01*
Y289190D01*
D02*
G37*
G36*
X941723Y255679D02*
X942797Y255233D01*
X943764Y254587D01*
X944587Y253765D01*
X945233Y252797D01*
X945679Y251723D01*
X945905Y250582D01*
Y250000D01*
Y249418D01*
X945679Y248277D01*
X945233Y247203D01*
X944587Y246235D01*
X943764Y245413D01*
X942797Y244767D01*
X941723Y244321D01*
X940582Y244094D01*
X939418D01*
X938277Y244321D01*
X937203Y244767D01*
X936235Y245413D01*
X935413Y246235D01*
X934767Y247203D01*
X934321Y248277D01*
X934095Y249418D01*
Y250000D01*
Y250582D01*
X934321Y251723D01*
X934767Y252797D01*
X935413Y253765D01*
X936235Y254587D01*
X937203Y255233D01*
X938277Y255679D01*
X939418Y255906D01*
X940582D01*
X941723Y255679D01*
D02*
G37*
G36*
X928297D02*
X929372Y255233D01*
X930339Y254587D01*
X931162Y253765D01*
X931808Y252797D01*
X932253Y251723D01*
X932480Y250582D01*
Y250000D01*
Y249418D01*
X932253Y248277D01*
X931808Y247203D01*
X931162Y246235D01*
X930339Y245413D01*
X929372Y244767D01*
X928297Y244321D01*
X927157Y244094D01*
X925993D01*
X924852Y244321D01*
X923777Y244767D01*
X922810Y245413D01*
X921988Y246235D01*
X921341Y247203D01*
X920896Y248277D01*
X920669Y249418D01*
Y250000D01*
Y250582D01*
X920896Y251723D01*
X921341Y252797D01*
X921988Y253765D01*
X922810Y254587D01*
X923777Y255233D01*
X924852Y255679D01*
X925993Y255906D01*
X927157D01*
X928297Y255679D01*
D02*
G37*
G36*
X1045276Y387795D02*
X1047874Y385197D01*
Y320236D01*
X1090551Y277559D01*
X1147638D01*
X1161417Y263779D01*
Y212598D01*
X1157677Y208858D01*
X1125787D01*
X1023622Y311024D01*
Y385827D01*
X1025591Y387795D01*
X1045276D01*
Y387795D01*
D02*
G37*
G36*
X970423Y216308D02*
X971498Y215863D01*
X972465Y215217D01*
X973288Y214394D01*
X973934Y213427D01*
X974379Y212352D01*
X974606Y211211D01*
Y210630D01*
Y210048D01*
X974379Y208907D01*
X973934Y207833D01*
X973288Y206865D01*
X972465Y206043D01*
X971498Y205397D01*
X970423Y204951D01*
X969282Y204724D01*
X968119D01*
X966978Y204951D01*
X965903Y205397D01*
X964936Y206043D01*
X964114Y206865D01*
X963467Y207833D01*
X963022Y208907D01*
X962795Y210048D01*
Y210630D01*
Y211211D01*
X963022Y212352D01*
X963467Y213427D01*
X964114Y214394D01*
X964936Y215217D01*
X965903Y215863D01*
X966978Y216308D01*
X968119Y216535D01*
X969282D01*
X970423Y216308D01*
D02*
G37*
G36*
X956447D02*
X957522Y215863D01*
X958489Y215217D01*
X959311Y214394D01*
X959958Y213427D01*
X960403Y212352D01*
X960630Y211211D01*
Y210630D01*
Y210048D01*
X960403Y208907D01*
X959958Y207833D01*
X959311Y206865D01*
X958489Y206043D01*
X957522Y205397D01*
X956447Y204951D01*
X955306Y204724D01*
X954143D01*
X953002Y204951D01*
X951927Y205397D01*
X950960Y206043D01*
X950137Y206865D01*
X949491Y207833D01*
X949046Y208907D01*
X948819Y210048D01*
Y210630D01*
Y211211D01*
X949046Y212352D01*
X949491Y213427D01*
X950137Y214394D01*
X950960Y215217D01*
X951927Y215863D01*
X953002Y216308D01*
X954143Y216535D01*
X955306D01*
X956447Y216308D01*
D02*
G37*
G36*
X519324Y208435D02*
X520399Y207989D01*
X521367Y207343D01*
X522189Y206520D01*
X522835Y205553D01*
X523280Y204479D01*
X523507Y203338D01*
Y202756D01*
Y202174D01*
X523280Y201033D01*
X522835Y199959D01*
X522189Y198991D01*
X521367Y198169D01*
X520399Y197522D01*
X519324Y197077D01*
X518184Y196850D01*
X517020D01*
X515879Y197077D01*
X514805Y197522D01*
X513837Y198169D01*
X513015Y198991D01*
X512369Y199959D01*
X511923Y201033D01*
X511696Y202174D01*
Y202756D01*
Y203338D01*
X511923Y204479D01*
X512369Y205553D01*
X513015Y206520D01*
X513837Y207343D01*
X514805Y207989D01*
X515879Y208435D01*
X517020Y208661D01*
X518184D01*
X519324Y208435D01*
D02*
G37*
G36*
X68652Y66702D02*
X69726Y66257D01*
X70694Y65611D01*
X71516Y64788D01*
X72162Y63821D01*
X72608Y62746D01*
X72835Y61605D01*
Y61024D01*
Y60442D01*
X72608Y59301D01*
X72162Y58226D01*
X71516Y57259D01*
X70694Y56437D01*
X69726Y55790D01*
X68652Y55345D01*
X67511Y55118D01*
X66347D01*
X65207Y55345D01*
X64132Y55790D01*
X63165Y56437D01*
X62342Y57259D01*
X61696Y58226D01*
X61251Y59301D01*
X61024Y60442D01*
Y61024D01*
Y61605D01*
X61251Y62746D01*
X61696Y63821D01*
X62342Y64788D01*
X63165Y65611D01*
X64132Y66257D01*
X65207Y66702D01*
X66347Y66929D01*
X67511D01*
X68652Y66702D01*
D02*
G37*
G36*
X54872D02*
X55947Y66257D01*
X56914Y65611D01*
X57737Y64788D01*
X58383Y63821D01*
X58828Y62746D01*
X59055Y61605D01*
Y61024D01*
Y60442D01*
X58828Y59301D01*
X58383Y58226D01*
X57737Y57259D01*
X56914Y56437D01*
X55947Y55790D01*
X54872Y55345D01*
X53731Y55118D01*
X52568D01*
X51427Y55345D01*
X50352Y55790D01*
X49385Y56437D01*
X48562Y57259D01*
X47916Y58226D01*
X47471Y59301D01*
X47244Y60442D01*
Y61024D01*
Y61605D01*
X47471Y62746D01*
X47916Y63821D01*
X48562Y64788D01*
X49385Y65611D01*
X50352Y66257D01*
X51427Y66702D01*
X52568Y66929D01*
X53731D01*
X54872Y66702D01*
D02*
G37*
G36*
X1047874Y541462D02*
Y463937D01*
X1090709Y421102D01*
Y318740D01*
X1102362Y307087D01*
X1151575D01*
Y307087D01*
X1156850Y312362D01*
Y383982D01*
X1158695Y385827D01*
X1167604D01*
X1167604Y385827D01*
X1181102D01*
X1185039Y381890D01*
Y362205D01*
X1202756Y344488D01*
X1285433D01*
X1295276Y334646D01*
Y206693D01*
X1312992Y188976D01*
X1368110D01*
X1401575Y222441D01*
X1484252D01*
X1496063Y210630D01*
Y49213D01*
X1435039D01*
X1429134Y55118D01*
Y74803D01*
X1433071Y78740D01*
X1458661D01*
X1470472Y90551D01*
Y157480D01*
X1466535Y161417D01*
X1204724D01*
X1177165Y188976D01*
Y269685D01*
X1155512Y291339D01*
X1094488D01*
X1078110Y307717D01*
Y390394D01*
X1025591Y442913D01*
Y519685D01*
X1031496Y525591D01*
Y541339D01*
X1033465Y543307D01*
X1046029D01*
X1047874Y541462D01*
D02*
G37*
%LPC*%
G36*
X122947Y285855D02*
X122932D01*
X122874Y285841D01*
X122801Y285826D01*
X122699Y285782D01*
X122582Y285724D01*
X122451Y285637D01*
X122305Y285520D01*
X122174Y285374D01*
X122160Y285360D01*
X122145Y285330D01*
X122116Y285287D01*
X122072Y285243D01*
X121956Y285083D01*
X121824Y284908D01*
X121693Y284703D01*
X121591Y284485D01*
X121503Y284295D01*
X121489Y284208D01*
X121487Y284198D01*
X121518Y284222D01*
X121606Y284310D01*
X121737Y284441D01*
X121897Y284616D01*
X122101Y284835D01*
X122320Y285083D01*
X122553Y285389D01*
X122568Y285403D01*
X122597Y285447D01*
X122641Y285505D01*
X122714Y285578D01*
X122830Y285739D01*
X122903Y285797D01*
X122947Y285855D01*
D02*
G37*
G36*
X126028Y285827D02*
X126023Y285826D01*
X125950Y285811D01*
X125848Y285782D01*
X125717Y285739D01*
X125586Y285680D01*
X125426Y285607D01*
X125411Y285578D01*
X125353Y285505D01*
X125265Y285389D01*
X125148Y285228D01*
X125032Y285010D01*
X124901Y284762D01*
X124769Y284456D01*
X124638Y284120D01*
Y284106D01*
Y284076D01*
X124627Y284044D01*
X124638Y284047D01*
X124726Y284091D01*
X124740Y284106D01*
X124799Y284149D01*
X124886Y284237D01*
X124988Y284368D01*
X125134Y284543D01*
X125294Y284762D01*
X125469Y285039D01*
X125571Y285185D01*
X125673Y285360D01*
X126028Y285827D01*
D02*
G37*
G36*
X114349D02*
X114345Y285826D01*
X114272Y285811D01*
X114170Y285782D01*
X114039Y285739D01*
X113907Y285680D01*
X113747Y285607D01*
X113732Y285578D01*
X113674Y285505D01*
X113587Y285389D01*
X113470Y285228D01*
X113353Y285010D01*
X113222Y284762D01*
X113091Y284456D01*
X112960Y284120D01*
Y284106D01*
Y284076D01*
X112949Y284044D01*
X112960Y284047D01*
X113047Y284091D01*
X113062Y284106D01*
X113120Y284149D01*
X113207Y284237D01*
X113310Y284368D01*
X113455Y284543D01*
X113616Y284762D01*
X113791Y285039D01*
X113893Y285185D01*
X113995Y285360D01*
X114349Y285827D01*
D02*
G37*
G36*
X94713Y285863D02*
X94691Y285855D01*
X94633Y285826D01*
X94618Y285811D01*
X94574Y285782D01*
X94516Y285724D01*
X94443Y285651D01*
X94283Y285476D01*
X94122Y285316D01*
X94151D01*
X94224Y285345D01*
X94312Y285374D01*
X94428Y285433D01*
X94560Y285491D01*
X94662Y285578D01*
X94749Y285680D01*
X94807Y285797D01*
Y285811D01*
X94822Y285841D01*
Y285855D01*
X94720D01*
X94713Y285863D01*
D02*
G37*
G36*
X89705Y285830D02*
X89690Y285826D01*
X89603Y285797D01*
X89486Y285724D01*
X89340Y285622D01*
X89267Y285549D01*
X89180Y285462D01*
X89092Y285360D01*
X88990Y285228D01*
X88903Y285097D01*
X88801Y284937D01*
X88786Y284908D01*
X88742Y284835D01*
X88684Y284703D01*
X88626Y284558D01*
X88553Y284383D01*
X88494Y284193D01*
X88465Y284004D01*
X88451Y283829D01*
Y283814D01*
X88465Y283800D01*
X88480Y283785D01*
X88524D01*
X88538Y283800D01*
X88582Y283829D01*
X88655Y283872D01*
X88742Y283945D01*
X88859Y284047D01*
X88976Y284179D01*
X89107Y284339D01*
X89238Y284528D01*
X89253Y284543D01*
X89296Y284616D01*
X89355Y284703D01*
X89428Y284820D01*
X89500Y284951D01*
X89588Y285112D01*
X89734Y285447D01*
Y285476D01*
X89719Y285549D01*
X89705Y285680D01*
Y285830D01*
D02*
G37*
%LPD*%
D59*
X70782Y286375D02*
G03*
X70782Y286375I-18000J0D01*
G01*
D60*
X464630Y163386D02*
D03*
X456630D02*
D03*
X15811Y118110D02*
D03*
X7811D02*
D03*
X15811Y125984D02*
D03*
X7811D02*
D03*
X55181Y37402D02*
D03*
X47181D02*
D03*
X407543Y7874D02*
D03*
X399543D02*
D03*
X352425Y307087D02*
D03*
X344425D02*
D03*
X195849Y279528D02*
D03*
X187849D02*
D03*
X195766Y271759D02*
D03*
X187766D02*
D03*
X941008Y167323D02*
D03*
X933008D02*
D03*
X800379Y294018D02*
D03*
X808379D02*
D03*
X775654Y263779D02*
D03*
X767654D02*
D03*
X775655Y271654D02*
D03*
X767655D02*
D03*
X838646Y204724D02*
D03*
X830646D02*
D03*
X807024D02*
D03*
X815024D02*
D03*
X427890Y88779D02*
D03*
X435890D02*
D03*
X218441Y271654D02*
D03*
X226441D02*
D03*
X202693D02*
D03*
X210693D02*
D03*
X427890Y80905D02*
D03*
X435890D02*
D03*
D61*
X472441Y155512D02*
D03*
Y163779D02*
D03*
X133858Y167520D02*
D03*
Y159252D02*
D03*
X555118Y297441D02*
D03*
Y289173D02*
D03*
X566929Y297441D02*
D03*
Y289173D02*
D03*
X578740Y297441D02*
D03*
Y289173D02*
D03*
X590551Y297441D02*
D03*
Y289173D02*
D03*
D62*
X15748Y72835D02*
D03*
Y94882D02*
D03*
X356299Y75197D02*
D03*
Y53150D02*
D03*
X962598Y459449D02*
D03*
Y481496D02*
D03*
X913386Y406299D02*
D03*
Y428346D02*
D03*
D63*
X10248Y135827D02*
D03*
X21248D02*
D03*
X975972Y175197D02*
D03*
X964972D02*
D03*
X866547Y220472D02*
D03*
X877547D02*
D03*
X866547Y210630D02*
D03*
X877547D02*
D03*
X858673Y196850D02*
D03*
X869673D02*
D03*
X889358Y196850D02*
D03*
X878358D02*
D03*
X797650Y305118D02*
D03*
X808650D02*
D03*
X403138Y153543D02*
D03*
X392138D02*
D03*
X403138Y143701D02*
D03*
X392138D02*
D03*
D64*
X133858Y190945D02*
D03*
X141732D02*
D03*
X120079Y194882D02*
D03*
X127953D02*
D03*
X192913Y179134D02*
D03*
X200787D02*
D03*
X192913Y171260D02*
D03*
X200787D02*
D03*
X656758Y217344D02*
D03*
X664632D02*
D03*
X685039Y228346D02*
D03*
X677165D02*
D03*
X588583Y202756D02*
D03*
X580709D02*
D03*
X568898D02*
D03*
X561024D02*
D03*
X608464Y223128D02*
D03*
X600590D02*
D03*
X116142Y185039D02*
D03*
X108268D02*
D03*
X862205Y454724D02*
D03*
X854331D02*
D03*
X862205Y462598D02*
D03*
X854331D02*
D03*
X115737Y175197D02*
D03*
X107863D02*
D03*
Y198819D02*
D03*
X115737D02*
D03*
Y81496D02*
D03*
X107863D02*
D03*
X115737Y105071D02*
D03*
X107863D02*
D03*
Y128748D02*
D03*
X115737D02*
D03*
X47244Y129921D02*
D03*
X55118D02*
D03*
X47244Y106299D02*
D03*
X55118D02*
D03*
X47244Y82677D02*
D03*
X55118D02*
D03*
X47244Y209407D02*
D03*
X55118D02*
D03*
X47244Y162353D02*
D03*
X55118D02*
D03*
X47244Y185800D02*
D03*
X55118D02*
D03*
X47244Y233144D02*
D03*
X55118D02*
D03*
X47244Y137795D02*
D03*
X55118D02*
D03*
X47244Y114173D02*
D03*
X55118D02*
D03*
Y90551D02*
D03*
X47244D02*
D03*
X116142Y208661D02*
D03*
X108268D02*
D03*
X748032Y287402D02*
D03*
X755905D02*
D03*
X826926Y228346D02*
D03*
X834800D02*
D03*
X811024D02*
D03*
X818898D02*
D03*
X427953Y73032D02*
D03*
X435827D02*
D03*
X173228Y295276D02*
D03*
X181102D02*
D03*
Y287402D02*
D03*
X173228D02*
D03*
X210630Y279528D02*
D03*
X202756D02*
D03*
X226378D02*
D03*
X218504D02*
D03*
X324803Y318898D02*
D03*
X332677D02*
D03*
X253937Y301181D02*
D03*
X246063D02*
D03*
X253937Y289370D02*
D03*
X246063D02*
D03*
X253937Y309055D02*
D03*
X246063D02*
D03*
X218504Y263779D02*
D03*
X210630D02*
D03*
D65*
X110236Y236611D02*
D03*
Y228737D02*
D03*
X771654Y297244D02*
D03*
Y305118D02*
D03*
X440945Y55118D02*
D03*
Y62992D02*
D03*
X446850Y70866D02*
D03*
Y78740D02*
D03*
X1007874Y187008D02*
D03*
Y179134D02*
D03*
Y198787D02*
D03*
Y190913D02*
D03*
X867700Y170141D02*
D03*
Y178015D02*
D03*
X277559Y311024D02*
D03*
Y318898D02*
D03*
X675197Y242126D02*
D03*
Y250000D02*
D03*
X663386Y265748D02*
D03*
Y273622D02*
D03*
X667323Y242126D02*
D03*
Y250000D02*
D03*
X588583Y234252D02*
D03*
Y242126D02*
D03*
X580709D02*
D03*
Y234252D02*
D03*
X561024Y257874D02*
D03*
Y250000D02*
D03*
X580709Y228504D02*
D03*
Y220630D02*
D03*
X724409Y427165D02*
D03*
Y435039D02*
D03*
X732283D02*
D03*
Y427165D02*
D03*
X716535Y435039D02*
D03*
Y427165D02*
D03*
X169291Y181693D02*
D03*
Y189567D02*
D03*
X153543Y181693D02*
D03*
Y189567D02*
D03*
X161417Y181693D02*
D03*
Y189567D02*
D03*
X153543Y204724D02*
D03*
Y196850D02*
D03*
X161417D02*
D03*
Y204724D02*
D03*
X153543Y145669D02*
D03*
Y153543D02*
D03*
X767717Y236221D02*
D03*
Y244094D02*
D03*
X818898Y236221D02*
D03*
Y244094D02*
D03*
X842520Y236221D02*
D03*
Y244094D02*
D03*
X834646Y236221D02*
D03*
Y244094D02*
D03*
X811024D02*
D03*
Y236221D02*
D03*
X777559Y236157D02*
D03*
Y244032D02*
D03*
X763779Y305118D02*
D03*
Y297244D02*
D03*
X826772Y244094D02*
D03*
Y236221D02*
D03*
X287402Y318898D02*
D03*
Y311024D02*
D03*
D66*
X122007Y218577D02*
D03*
X114133Y214837D02*
D03*
Y222317D02*
D03*
X116124Y153347D02*
D03*
Y145866D02*
D03*
X123998Y149606D02*
D03*
X751968Y431102D02*
D03*
X744095Y427362D02*
D03*
Y434842D02*
D03*
D67*
X133967Y184983D02*
D03*
Y177502D02*
D03*
X144794Y181243D02*
D03*
X139272Y204724D02*
D03*
X128445Y200984D02*
D03*
Y208465D02*
D03*
X145177Y145866D02*
D03*
Y153347D02*
D03*
X134350Y149606D02*
D03*
X572342Y238189D02*
D03*
X561516Y234449D02*
D03*
Y241929D02*
D03*
X568405Y216535D02*
D03*
X557579Y212795D02*
D03*
Y220276D02*
D03*
X645177Y204921D02*
D03*
Y212402D02*
D03*
X634350Y208661D02*
D03*
X611221Y208465D02*
D03*
X600394Y204724D02*
D03*
Y212205D02*
D03*
X827264Y216535D02*
D03*
X838091Y220276D02*
D03*
Y212795D02*
D03*
X818406Y216535D02*
D03*
X807579Y212795D02*
D03*
Y220276D02*
D03*
X390918Y72806D02*
D03*
Y69065D02*
D03*
Y65325D02*
D03*
X401745D02*
D03*
Y69065D02*
D03*
Y72806D02*
D03*
D68*
X822638Y362205D02*
D03*
X830906D02*
D03*
X47047Y29528D02*
D03*
X55315D02*
D03*
X391732Y7874D02*
D03*
X383465D02*
D03*
X1431299Y11811D02*
D03*
X1423032D02*
D03*
X1476181Y584646D02*
D03*
X1484449D02*
D03*
X145472Y128748D02*
D03*
X153740D02*
D03*
D69*
X1414615Y31496D02*
D03*
X1439715D02*
D03*
X1424458Y594488D02*
D03*
X1449558D02*
D03*
D70*
X1427165Y556348D02*
D03*
Y581448D02*
D03*
X1444882Y556348D02*
D03*
Y581448D02*
D03*
D71*
X66929Y66929D02*
D03*
X53150D02*
D03*
X517602Y196850D02*
D03*
X635827Y391732D02*
D03*
X622047D02*
D03*
X940000Y244094D02*
D03*
X926575D02*
D03*
X954724Y204724D02*
D03*
X968701D02*
D03*
D72*
X66929Y61024D02*
D03*
X53150D02*
D03*
X517602Y202756D02*
D03*
X635827Y397638D02*
D03*
X622047D02*
D03*
X940000Y250000D02*
D03*
X926575D02*
D03*
X954724Y210630D02*
D03*
X968701D02*
D03*
X319803Y328740D02*
D03*
X324803D02*
D03*
D73*
X35433Y137795D02*
D03*
X124016Y139764D02*
D03*
X35433Y147638D02*
D03*
X120079Y171260D02*
D03*
X36129Y209407D02*
D03*
X31169Y233144D02*
D03*
X842520Y462598D02*
D03*
X1013780Y173228D02*
D03*
X1026933Y211762D02*
D03*
X358268Y285433D02*
D03*
X183071Y263779D02*
D03*
X233731Y314439D02*
D03*
X354331Y7874D02*
D03*
X879921Y165354D02*
D03*
X1047244Y169291D02*
D03*
X935039Y452756D02*
D03*
X860236Y478346D02*
D03*
X994094Y427165D02*
D03*
X990158Y395669D02*
D03*
X474409Y173228D02*
D03*
X549213Y281496D02*
D03*
X600394Y303150D02*
D03*
X549213Y271654D02*
D03*
X600394Y289370D02*
D03*
X795276Y204724D02*
D03*
X778740Y204921D02*
D03*
X759842Y226378D02*
D03*
X724409Y311024D02*
D03*
X757874Y279528D02*
D03*
X736221Y311024D02*
D03*
X732283Y251969D02*
D03*
X840551Y265748D02*
D03*
X761811Y330709D02*
D03*
X753937Y417323D02*
D03*
X929134Y505905D02*
D03*
X954724Y370079D02*
D03*
X655512Y354331D02*
D03*
X744095Y275590D02*
D03*
X458661Y393701D02*
D03*
D74*
X625984Y214161D02*
D03*
Y203161D02*
D03*
X938976Y420854D02*
D03*
Y409854D02*
D03*
X895669Y243689D02*
D03*
Y232689D02*
D03*
X881890D02*
D03*
Y243689D02*
D03*
X858658Y181172D02*
D03*
Y170172D02*
D03*
X823327D02*
D03*
Y181172D02*
D03*
X938976Y472035D02*
D03*
Y461035D02*
D03*
X381890Y65366D02*
D03*
Y76366D02*
D03*
D75*
X808871Y324736D02*
D03*
X791942D02*
D03*
D76*
X227598Y193307D02*
D03*
X217598D02*
D03*
X207598D02*
D03*
X197598D02*
D03*
Y227953D02*
D03*
X217598D02*
D03*
X227598D02*
D03*
X207598D02*
D03*
D77*
X891929Y212205D02*
D03*
X888189Y222441D02*
D03*
X895669D02*
D03*
D78*
X397638Y129724D02*
D03*
Y90748D02*
D03*
D79*
X472441Y440158D02*
D03*
Y425984D02*
D03*
X488189D02*
D03*
Y440158D02*
D03*
D80*
X655315Y273130D02*
D03*
X647835D02*
D03*
X651575Y262303D02*
D03*
D81*
X911319Y228346D02*
D03*
X923327D02*
D03*
Y208661D02*
D03*
X911319D02*
D03*
X923327Y218504D02*
D03*
X911319D02*
D03*
X718307Y448819D02*
D03*
X730315D02*
D03*
X742028Y456693D02*
D03*
X754035D02*
D03*
X742028Y446850D02*
D03*
X754035D02*
D03*
X118018Y318898D02*
D03*
X106010D02*
D03*
X118018Y310663D02*
D03*
X106010D02*
D03*
X767618Y253937D02*
D03*
X779626D02*
D03*
X301083Y269685D02*
D03*
X313090D02*
D03*
X344390Y328740D02*
D03*
X356398D02*
D03*
Y318898D02*
D03*
X344390D02*
D03*
D82*
X1031496Y179035D02*
D03*
Y191043D02*
D03*
X1039370Y179035D02*
D03*
Y191043D02*
D03*
X1023622Y179035D02*
D03*
Y191043D02*
D03*
X779528Y309252D02*
D03*
Y297244D02*
D03*
D83*
X718504Y364173D02*
D03*
X706693D02*
D03*
X718504Y395669D02*
D03*
X706693D02*
D03*
X740158D02*
D03*
X728346D02*
D03*
D84*
X899606Y470409D02*
D03*
Y478409D02*
D03*
X885827Y470409D02*
D03*
Y478409D02*
D03*
X877953Y470409D02*
D03*
Y478409D02*
D03*
X935417Y188399D02*
D03*
Y180399D02*
D03*
X945413Y188399D02*
D03*
Y180399D02*
D03*
X580709Y249937D02*
D03*
Y257937D02*
D03*
X572835D02*
D03*
Y249937D02*
D03*
X295276Y318961D02*
D03*
Y310961D02*
D03*
X269685Y318961D02*
D03*
Y310961D02*
D03*
X816107Y294742D02*
D03*
Y302742D02*
D03*
X832628Y294701D02*
D03*
Y302701D02*
D03*
X787402Y297181D02*
D03*
Y305181D02*
D03*
X785433Y244094D02*
D03*
Y236094D02*
D03*
X824802Y294708D02*
D03*
Y302708D02*
D03*
X755905Y297181D02*
D03*
Y305181D02*
D03*
X962598Y507811D02*
D03*
Y515811D02*
D03*
X1005713Y368370D02*
D03*
Y360370D02*
D03*
X937008Y381953D02*
D03*
Y373953D02*
D03*
X967052Y441070D02*
D03*
Y433070D02*
D03*
X889764Y450850D02*
D03*
Y442850D02*
D03*
X897638Y450850D02*
D03*
Y442850D02*
D03*
X883858Y515811D02*
D03*
Y507811D02*
D03*
X927165Y366205D02*
D03*
Y358205D02*
D03*
X994094Y368173D02*
D03*
Y360173D02*
D03*
X309055Y279465D02*
D03*
Y287465D02*
D03*
X990158Y403480D02*
D03*
Y411480D02*
D03*
X978347Y403480D02*
D03*
Y411480D02*
D03*
X986220Y441008D02*
D03*
Y433008D02*
D03*
X1000000Y403480D02*
D03*
Y411480D02*
D03*
X881890Y450850D02*
D03*
Y442850D02*
D03*
X948819Y409386D02*
D03*
Y417386D02*
D03*
X929134Y464504D02*
D03*
Y472504D02*
D03*
X949790Y500165D02*
D03*
Y492165D02*
D03*
X972441Y515811D02*
D03*
Y507811D02*
D03*
X1005906Y383921D02*
D03*
Y375921D02*
D03*
X976378Y441008D02*
D03*
Y433008D02*
D03*
X893701Y515811D02*
D03*
Y507811D02*
D03*
X875984Y498095D02*
D03*
Y490095D02*
D03*
X917323Y366205D02*
D03*
Y358205D02*
D03*
X301181Y279465D02*
D03*
Y287465D02*
D03*
D85*
X535433Y219094D02*
D03*
Y202165D02*
D03*
D86*
X640650Y223189D02*
D03*
Y228189D02*
D03*
Y233189D02*
D03*
Y238189D02*
D03*
Y243189D02*
D03*
Y248189D02*
D03*
Y253189D02*
D03*
X619193Y223189D02*
D03*
Y228189D02*
D03*
Y233189D02*
D03*
Y238189D02*
D03*
Y243189D02*
D03*
Y248189D02*
D03*
Y253189D02*
D03*
X270768Y302776D02*
D03*
Y297776D02*
D03*
Y292776D02*
D03*
Y287776D02*
D03*
X292224Y302776D02*
D03*
Y297776D02*
D03*
Y292776D02*
D03*
Y287776D02*
D03*
X217421D02*
D03*
Y292776D02*
D03*
Y297776D02*
D03*
Y302776D02*
D03*
X195965Y287776D02*
D03*
Y292776D02*
D03*
Y297776D02*
D03*
Y302776D02*
D03*
D87*
X100787Y223189D02*
D03*
Y233189D02*
D03*
X64567Y223189D02*
D03*
Y233189D02*
D03*
X64567Y91457D02*
D03*
Y81457D02*
D03*
X100787Y91457D02*
D03*
Y81457D02*
D03*
X64567Y185945D02*
D03*
Y175945D02*
D03*
X100787Y185945D02*
D03*
Y175945D02*
D03*
X64567Y209567D02*
D03*
Y199567D02*
D03*
X100787Y209567D02*
D03*
Y199567D02*
D03*
X64567Y162323D02*
D03*
Y152323D02*
D03*
X100787Y162323D02*
D03*
Y152323D02*
D03*
X100787Y128701D02*
D03*
Y138701D02*
D03*
X64567Y128701D02*
D03*
Y138701D02*
D03*
X100787Y105079D02*
D03*
Y115079D02*
D03*
X64567Y105079D02*
D03*
Y115079D02*
D03*
D88*
X143701Y310433D02*
D03*
Y319488D02*
D03*
D89*
X159449Y314961D02*
D03*
D90*
X753937Y244094D02*
D03*
X757677Y236221D02*
D03*
X750197D02*
D03*
D91*
X795571Y260236D02*
D03*
X798130D02*
D03*
X800689D02*
D03*
X803248D02*
D03*
X805807D02*
D03*
X808366D02*
D03*
X810925D02*
D03*
X813484D02*
D03*
X816043D02*
D03*
X818602D02*
D03*
X795571Y283071D02*
D03*
X798130D02*
D03*
X800689D02*
D03*
X803248D02*
D03*
X805807D02*
D03*
X808366D02*
D03*
X810925D02*
D03*
X813484D02*
D03*
X816043D02*
D03*
X818602D02*
D03*
D92*
X846850Y170369D02*
D03*
Y174109D02*
D03*
Y177849D02*
D03*
X835236D02*
D03*
Y170369D02*
D03*
D93*
X972067Y424114D02*
D03*
X967067D02*
D03*
X962067D02*
D03*
X957067D02*
D03*
X972067Y402658D02*
D03*
X967067D02*
D03*
X962067D02*
D03*
X957067D02*
D03*
X907854Y457776D02*
D03*
X912854D02*
D03*
X917854D02*
D03*
X922854D02*
D03*
X907854Y479232D02*
D03*
X912854D02*
D03*
X917854D02*
D03*
X922854D02*
D03*
D94*
X949899Y515649D02*
D03*
Y506594D02*
D03*
X876049Y515731D02*
D03*
Y506676D02*
D03*
X937005Y358315D02*
D03*
Y367370D02*
D03*
X1013825Y360316D02*
D03*
Y369371D02*
D03*
D95*
X496457Y366142D02*
D03*
X472047D02*
D03*
Y383858D02*
D03*
X496457D02*
D03*
Y401575D02*
D03*
X472047D02*
D03*
D96*
X515748Y511417D02*
D03*
Y535827D02*
D03*
X287402Y504331D02*
D03*
Y479921D02*
D03*
Y535827D02*
D03*
Y511417D02*
D03*
X515748Y504331D02*
D03*
Y479921D02*
D03*
D97*
X17717Y190945D02*
D03*
D98*
Y181102D02*
D03*
Y171260D02*
D03*
Y161417D02*
D03*
X1224055Y362205D02*
D03*
X1216535D02*
D03*
X1053937Y209095D02*
D03*
Y201575D02*
D03*
X624921Y290551D02*
D03*
X183071Y314961D02*
D03*
D99*
X1231575Y362205D02*
D03*
D100*
X1243740Y446457D02*
D03*
X1204370D02*
D03*
D101*
X1138189Y221260D02*
D03*
Y181890D02*
D03*
D102*
X1053937Y194055D02*
D03*
D103*
X23622Y23622D02*
D03*
X1472441Y606299D02*
D03*
X681102Y23622D02*
D03*
X594488Y606299D02*
D03*
X1472441Y23622D02*
D03*
X23622Y606299D02*
D03*
D104*
X783464Y527559D02*
D03*
Y488189D02*
D03*
X1354331Y136221D02*
D03*
X1379134Y135827D02*
D03*
X783465Y393701D02*
D03*
Y354331D02*
D03*
X208661Y409449D02*
D03*
Y448819D02*
D03*
X433071Y362205D02*
D03*
Y401575D02*
D03*
X783465Y421260D02*
D03*
Y460630D02*
D03*
X783464Y559055D02*
D03*
Y598425D02*
D03*
X185039Y409449D02*
D03*
Y448819D02*
D03*
X409449Y401575D02*
D03*
Y362205D02*
D03*
X1379134Y96457D02*
D03*
X1354331Y96850D02*
D03*
D105*
X82362Y19685D02*
D03*
X92362D02*
D03*
X102362D02*
D03*
X82362Y29685D02*
D03*
X92362D02*
D03*
X102362D02*
D03*
X172362Y19685D02*
D03*
X162362Y29685D02*
D03*
Y19685D02*
D03*
X152362Y29685D02*
D03*
Y19685D02*
D03*
X142362Y29685D02*
D03*
Y19685D02*
D03*
X132362Y29685D02*
D03*
X122362D02*
D03*
X132362Y19685D02*
D03*
X122362D02*
D03*
X112362Y29685D02*
D03*
Y19685D02*
D03*
D106*
X172362Y29685D02*
D03*
D107*
X623228Y438976D02*
D03*
X631102Y462598D02*
D03*
Y415354D02*
D03*
X679134D02*
D03*
Y462598D02*
D03*
D108*
X1442913Y102461D02*
D03*
Y64961D02*
D03*
X53150Y478248D02*
D03*
Y440748D02*
D03*
Y515748D02*
D03*
D109*
X291102Y61910D02*
D03*
X275512D02*
D03*
X259921D02*
D03*
X244331D02*
D03*
X228740D02*
D03*
D110*
X306693D02*
D03*
D111*
X1259842Y61024D02*
D03*
Y100394D02*
D03*
X763779D02*
D03*
X1094488D02*
D03*
X598425D02*
D03*
X929134D02*
D03*
Y61024D02*
D03*
X598425D02*
D03*
X1094488D02*
D03*
X763779D02*
D03*
D112*
X1241142Y74016D02*
D03*
X910433D02*
D03*
X579724D02*
D03*
X1075787D02*
D03*
X745079D02*
D03*
D113*
X1120315Y358268D02*
D03*
X1163150D02*
D03*
X1041575Y515748D02*
D03*
X1084409D02*
D03*
X1041575Y358268D02*
D03*
X1084409D02*
D03*
D114*
X1141732Y348425D02*
D03*
X1062992Y525591D02*
D03*
Y348425D02*
D03*
D115*
X1120315Y377953D02*
D03*
X1141732Y338583D02*
D03*
Y358268D02*
D03*
X1163150Y338583D02*
D03*
Y377953D02*
D03*
X1120315Y338583D02*
D03*
X1084409Y535433D02*
D03*
X1041575Y496063D02*
D03*
Y535433D02*
D03*
X1062992Y515748D02*
D03*
Y535433D02*
D03*
X1084409Y496063D02*
D03*
X1041575Y377953D02*
D03*
X1062992Y338583D02*
D03*
Y358268D02*
D03*
X1084409Y338583D02*
D03*
Y377953D02*
D03*
X1041575Y338583D02*
D03*
D116*
X463386Y29370D02*
D03*
Y39370D02*
D03*
X1406693Y187165D02*
D03*
X1416693D02*
D03*
X1406693Y177165D02*
D03*
X1416693D02*
D03*
X1446693Y187165D02*
D03*
Y177165D02*
D03*
X1456693Y187165D02*
D03*
X1436693Y177165D02*
D03*
Y187165D02*
D03*
X1426693Y177165D02*
D03*
Y187165D02*
D03*
X1470315Y304646D02*
D03*
X1480315D02*
D03*
X1470315Y314646D02*
D03*
X1480315D02*
D03*
X1470315Y334646D02*
D03*
X1480315Y324646D02*
D03*
X1470315D02*
D03*
X1480315Y294646D02*
D03*
Y284646D02*
D03*
X1470315Y294646D02*
D03*
Y284646D02*
D03*
X443386Y29370D02*
D03*
Y39370D02*
D03*
X433386Y29370D02*
D03*
Y39370D02*
D03*
X413386Y29370D02*
D03*
X423386Y39370D02*
D03*
Y29370D02*
D03*
X453386Y39370D02*
D03*
Y29370D02*
D03*
X1426693Y147795D02*
D03*
Y137795D02*
D03*
X1436693Y147795D02*
D03*
Y137795D02*
D03*
X1456693Y147795D02*
D03*
X1446693Y137795D02*
D03*
Y147795D02*
D03*
X1416693Y137795D02*
D03*
X1406693D02*
D03*
X1416693Y147795D02*
D03*
X1406693D02*
D03*
D117*
X1357480Y11811D02*
D03*
X1389764Y70866D02*
D03*
X522638Y370079D02*
D03*
X611221D02*
D03*
X18701D02*
D03*
X107283D02*
D03*
X375000D02*
D03*
X286417D02*
D03*
X1470472Y445866D02*
D03*
Y357283D02*
D03*
Y473425D02*
D03*
Y562008D02*
D03*
X744095Y603346D02*
D03*
Y514764D02*
D03*
X162402Y370079D02*
D03*
X250984D02*
D03*
X1389764Y11811D02*
D03*
X1357480Y70866D02*
D03*
D118*
X1456693Y177165D02*
D03*
X413386Y39370D02*
D03*
X1456693Y137795D02*
D03*
D119*
X634921Y290551D02*
D03*
X173071Y314961D02*
D03*
D120*
X476378Y496063D02*
D03*
X555118D02*
D03*
Y535433D02*
D03*
X476378D02*
D03*
X248031D02*
D03*
X326772D02*
D03*
Y496063D02*
D03*
X248031D02*
D03*
X362205D02*
D03*
X440945D02*
D03*
Y535433D02*
D03*
X362205D02*
D03*
D121*
X1336220Y460630D02*
D03*
Y362205D02*
D03*
Y216929D02*
D03*
Y315354D02*
D03*
D122*
X602362Y500000D02*
D03*
X582677D02*
D03*
X602362Y533465D02*
D03*
X582677D02*
D03*
D123*
X680866Y511772D02*
D03*
X640866D02*
D03*
X212598Y476378D02*
D03*
X183071Y472441D02*
D03*
X145669Y476378D02*
D03*
X116142Y472441D02*
D03*
Y500000D02*
D03*
X145669Y503937D02*
D03*
D124*
X695866Y601772D02*
D03*
Y571772D02*
D03*
X625866Y561772D02*
D03*
X37402Y562992D02*
D03*
X17717D02*
D03*
X198819Y606299D02*
D03*
X218504D02*
D03*
X198819Y574803D02*
D03*
X218504D02*
D03*
X218504Y500000D02*
D03*
X198819D02*
D03*
X218504Y531496D02*
D03*
X198819D02*
D03*
D125*
X962835Y535433D02*
D03*
X984252D02*
D03*
X1005669D02*
D03*
X884095D02*
D03*
X905512D02*
D03*
X926929D02*
D03*
Y338583D02*
D03*
X905512D02*
D03*
X884095D02*
D03*
X1005669D02*
D03*
X984252D02*
D03*
X962835D02*
D03*
D126*
X1480315Y334646D02*
D03*
D127*
X91149Y595476D02*
D03*
X179732D02*
D03*
X91149Y553475D02*
D03*
X179732D02*
D03*
D128*
X98425Y437008D02*
D03*
X153543D02*
D03*
D129*
X1279528Y535433D02*
D03*
X1250000D02*
D03*
X1220472D02*
D03*
X1181102D02*
D03*
X1417323D02*
D03*
X1387795D02*
D03*
X1358268D02*
D03*
X1318898D02*
D03*
D130*
X329803Y328740D02*
D03*
M02*
